<svg viewBox="0 0 135 177" fill="none" xmlns="http://www.w3.org/2000/svg">
<path fill-rule="evenodd" clip-rule="evenodd" d="M12.9243 76.5299C12.9243 106.789 37.4538 131.318 67.7125 131.318C97.9712 131.318 122.501 106.789 122.501 76.5299C122.501 46.2712 97.9712 21.7417 67.7125 21.7417C37.4538 21.7417 12.9243 46.2712 12.9243 76.5299ZM31.4002 89.1872C31.4002 109.062 47.5123 125.175 67.3876 125.175C87.263 125.175 103.375 109.062 103.375 89.1872C103.375 69.3119 87.263 53.1997 67.3876 53.1997C47.5123 53.1997 31.4002 69.3118 31.4002 89.1872Z" fill="#00CEC9"/>
<path fill-rule="evenodd" clip-rule="evenodd" d="M0.870603 67.7799C0.870601 104.696 30.7967 134.622 67.7125 134.622C104.628 134.622 134.554 104.696 134.554 67.7799C134.554 30.8641 104.628 0.937999 67.7125 0.937997C30.7967 0.937995 0.870604 30.8641 0.870603 67.7799ZM21.6282 82.683C21.6282 108.287 42.3846 129.044 67.9889 129.044C93.5932 129.044 114.35 108.287 114.35 82.683C114.35 57.0787 93.5932 36.3223 67.9889 36.3223C42.3846 36.3223 21.6282 57.0787 21.6282 82.683Z" fill="#341F97"/>
<path fill-rule="evenodd" clip-rule="evenodd" d="M13.7879 76.7391C13.7879 106.521 37.9308 130.664 67.7125 130.664C97.4943 130.664 121.637 106.521 121.637 76.7391C121.637 46.9574 97.4943 22.8145 67.7125 22.8145C37.9308 22.8144 13.7879 46.9573 13.7879 76.7391ZM22.744 82.9597C22.744 107.795 42.8771 127.928 67.7124 127.928C92.5478 127.928 112.681 107.795 112.681 82.9597C112.681 58.1243 92.5478 37.9912 67.7124 37.9912C42.8771 37.9912 22.744 58.1243 22.744 82.9597Z" fill="#774ECD"/>
<path d="M16.8362 175.488C14.1811 175.488 11.7409 174.843 9.51557 173.553C7.29028 172.239 5.52017 170.443 4.20523 168.167C2.91558 165.866 2.27075 163.287 2.27075 160.429C2.27075 157.673 2.94087 155.157 4.28109 152.881C5.64661 150.605 7.45465 148.81 9.70522 147.495C11.9811 146.18 14.396 145.522 16.95 145.522C18.7202 145.522 20.1236 145.687 21.1604 146.016C22.1972 146.319 23.3983 146.863 24.7638 147.647V149.05C23.4742 148.165 22.273 147.545 21.1604 147.191C20.073 146.812 18.7075 146.622 17.0638 146.622C14.5604 146.622 12.2719 147.267 10.1983 148.557C8.15005 149.821 6.51902 151.528 5.30523 153.678C4.11673 155.802 3.52247 158.09 3.52247 160.543C3.52247 163.021 4.12937 165.322 5.34316 167.447C6.55695 169.571 8.1627 171.265 10.1604 172.529C12.1834 173.768 14.3581 174.388 16.6845 174.388C18.3535 174.388 19.8075 174.198 21.0466 173.819C22.2857 173.414 23.5247 172.795 24.7638 171.96V173.364C23.55 174.097 22.2983 174.628 21.0087 174.957C19.7443 175.311 18.3535 175.488 16.8362 175.488Z" fill="#341F97"/>
<path d="M39.7134 175.147C37.3111 175.147 35.4525 174.489 34.1375 173.174C32.8479 171.859 32.203 170.001 32.203 167.598V157.66H33.4168V167.598C33.4168 169.672 33.9605 171.278 35.0479 172.416C36.1605 173.528 37.7157 174.084 39.7134 174.084C40.9272 174.084 42.0398 173.819 43.0513 173.288C44.0628 172.732 44.8593 171.96 45.4409 170.974C46.0226 169.988 46.3134 168.863 46.3134 167.598V157.66H47.5271V174.729H46.3134V171.543C45.7318 172.605 44.8593 173.478 43.6961 174.16C42.5329 174.818 41.2053 175.147 39.7134 175.147Z" fill="#341F97"/>
<path d="M54.972 157.66H56.1858V161.605C56.6915 160.366 57.4249 159.393 58.3858 158.685C59.372 157.976 60.4846 157.622 61.7237 157.622C62.5076 157.622 63.3042 157.787 64.1134 158.116V159.519C63.38 158.963 62.5582 158.685 61.6478 158.685C60.7375 158.685 59.8524 158.963 58.9927 159.519C58.1582 160.075 57.4754 160.821 56.9444 161.757C56.4387 162.693 56.1858 163.691 56.1858 164.753V174.729H54.972V157.66Z" fill="#341F97"/>
<path d="M69.7769 157.66H70.9907V161.605C71.4965 160.366 72.2298 159.393 73.1907 158.685C74.1769 157.976 75.2896 157.622 76.5286 157.622C77.3125 157.622 78.1091 157.787 78.9183 158.116V159.519C78.185 158.963 77.3631 158.685 76.4528 158.685C75.5424 158.685 74.6574 158.963 73.7976 159.519C72.9631 160.075 72.2804 160.821 71.7493 161.757C71.2436 162.693 70.9907 163.691 70.9907 164.753V174.729H69.7769V157.66Z" fill="#341F97"/>
<path d="M91.7404 174.122C93.0554 174.122 94.3071 173.781 95.4956 173.098C96.6841 172.416 97.6703 171.48 98.4542 170.291V172.226C97.5186 173.263 96.4945 174.021 95.3818 174.502C94.2692 174.957 93.0048 175.184 91.5887 175.184C90.0209 175.184 88.5416 174.767 87.1508 173.933C85.7853 173.098 84.6853 171.986 83.8508 170.595C83.0416 169.204 82.637 167.725 82.637 166.157C82.637 164.463 83.0416 162.945 83.8508 161.605C84.66 160.24 85.76 159.178 87.1508 158.419C88.5669 157.66 90.1347 157.281 91.8542 157.281C94.4841 157.281 96.722 158.318 98.568 160.391L86.6577 172.15C87.4922 172.833 88.3014 173.339 89.0853 173.667C89.8692 173.971 90.7542 174.122 91.7404 174.122ZM83.8508 166.043C83.8508 168.142 84.5462 169.937 85.937 171.429L97.0508 160.391C96.2163 159.658 95.4071 159.14 94.6232 158.836C93.8393 158.508 92.9037 158.343 91.8163 158.343C90.2738 158.343 88.8956 158.685 87.6818 159.367C86.4933 160.025 85.5577 160.935 84.8749 162.098C84.1922 163.262 83.8508 164.576 83.8508 166.043Z" fill="#341F97"/>
<path d="M105.017 157.66H106.231V161.453C106.787 160.189 107.736 159.178 109.076 158.419C110.416 157.635 111.895 157.243 113.514 157.243C115.613 157.243 117.269 157.913 118.483 159.253C119.722 160.568 120.341 162.414 120.341 164.791V174.729H119.127V164.791C119.127 162.743 118.622 161.15 117.61 160.012C116.624 158.874 115.233 158.305 113.438 158.305C112.123 158.305 110.909 158.609 109.796 159.216C108.709 159.797 107.837 160.606 107.179 161.643C106.547 162.68 106.231 163.856 106.231 165.171V174.729H105.017V157.66Z" fill="#341F97"/>
<path d="M133.893 174.957C132.022 174.957 130.467 174.388 129.228 173.25C128.014 172.112 127.407 170.544 127.407 168.547V150.795H128.621V157.66H133.855V158.722H128.621V168.547C128.621 170.216 129.114 171.53 130.1 172.491C131.111 173.427 132.376 173.895 133.893 173.895V174.957Z" fill="#341F97"/>
<path fill-rule="evenodd" clip-rule="evenodd" d="M9.09606 174.277L9.08994 174.273C6.73859 172.884 4.86646 170.983 3.48079 168.585L3.47531 168.576C2.10986 166.139 1.43408 163.417 1.43408 160.429C1.43408 157.53 2.14078 154.866 3.56015 152.456L3.56364 152.45C5.00013 150.056 6.90887 148.159 9.28317 146.772L9.28667 146.77C11.6859 145.383 14.2447 144.685 16.9501 144.685C18.7547 144.685 20.252 144.851 21.4044 145.214C22.5239 145.543 23.7849 146.119 25.1804 146.92L25.6006 147.161V150.638L24.2904 149.739C23.047 148.886 21.9199 148.31 20.9067 147.988L20.8957 147.985L20.8848 147.981C19.9151 147.642 18.6504 147.458 17.0639 147.458C14.7125 147.458 12.5777 148.062 10.6403 149.267L10.6379 149.268C8.71341 150.456 7.1808 152.058 6.0347 154.087C4.91712 156.085 4.35923 158.232 4.35923 160.542C4.35923 162.877 4.9291 165.035 6.06967 167.031C7.21709 169.039 8.727 170.63 10.6028 171.818C12.4954 172.976 14.5176 173.551 16.6846 173.551C18.2896 173.551 19.6551 173.368 20.7943 173.02C21.9476 172.643 23.115 172.061 24.2965 171.266L25.6006 170.387V173.835L25.1965 174.079C23.92 174.85 22.5958 175.414 21.225 175.765C19.8794 176.14 18.4146 176.324 16.8363 176.324C14.0388 176.324 11.4531 175.643 9.09606 174.277ZM21.0087 174.956C22.2984 174.627 23.5501 174.096 24.7639 173.363V171.96C24.485 172.147 24.2061 172.324 23.9272 172.49C22.967 173.062 22.0068 173.505 21.0466 173.818C19.8076 174.198 18.3535 174.387 16.6846 174.387C14.3581 174.387 12.1834 173.768 10.1604 172.529C8.16274 171.264 6.557 169.57 5.3432 167.446C4.12941 165.322 3.52252 163.021 3.52252 160.542C3.52252 158.09 4.11677 155.801 5.30527 153.677C6.51906 151.528 8.1501 149.821 10.1984 148.556C12.2719 147.267 14.5604 146.622 17.0639 146.622C18.7076 146.622 20.0731 146.811 21.1604 147.191C22.0288 147.467 22.951 147.905 23.9272 148.505C24.2018 148.673 24.4807 148.855 24.7639 149.049V147.646C23.3983 146.862 22.1972 146.318 21.1604 146.015C20.1236 145.686 18.7202 145.522 16.9501 145.522C14.3961 145.522 11.9811 146.179 9.70527 147.494C7.4547 148.809 5.64665 150.605 4.28114 152.88C2.94091 155.156 2.27079 157.672 2.27079 160.429C2.27079 163.286 2.91562 165.865 4.20527 168.167C5.52022 170.442 7.29033 172.238 9.51561 173.553C11.7409 174.842 14.1811 175.487 16.8363 175.487C18.3535 175.487 19.7443 175.31 21.0087 174.956ZM33.5459 173.765L33.5402 173.759C32.0546 172.245 31.3664 170.15 31.3664 167.598V156.823H34.2536V167.598C34.2536 169.521 34.7542 170.892 35.6462 171.83C36.5622 172.742 37.8792 173.247 39.7134 173.247C40.7975 173.247 41.773 173.012 42.6552 172.55C43.5329 172.066 44.2169 171.402 44.7203 170.548C45.2182 169.704 45.4767 168.729 45.4767 167.598V156.823H48.3639V175.565H45.4767V173.903C45.0697 174.263 44.6168 174.59 44.1197 174.881L44.1079 174.888C42.805 175.625 41.3325 175.983 39.7134 175.983C37.1569 175.983 35.0599 175.279 33.5459 173.765ZM45.4767 172.725C45.802 172.361 46.0809 171.967 46.3134 171.542V174.729H47.5272V157.66H46.3134V167.598C46.3134 168.862 46.0226 169.987 45.441 170.973C44.8594 171.96 44.0628 172.731 43.0513 173.287C42.0398 173.818 40.9272 174.084 39.7134 174.084C37.7157 174.084 36.1605 173.527 35.0479 172.415C33.9605 171.277 33.4169 169.671 33.4169 167.598V157.66H32.2031V167.598C32.2031 170 32.8479 171.859 34.1376 173.173C35.4525 174.488 37.3111 175.146 39.7134 175.146C41.2054 175.146 42.5329 174.817 43.6962 174.16C44.3945 173.75 44.988 173.272 45.4767 172.725ZM54.1353 156.823H57.0225V158.768C57.2895 158.492 57.5784 158.239 57.8895 158.01L57.8978 158.004C59.0293 157.192 60.3135 156.785 61.7237 156.785C62.6273 156.785 63.5305 156.975 64.4283 157.34L64.9501 157.552V161.203L63.6077 160.185C63.0181 159.738 62.3734 159.521 61.6479 159.521C60.92 159.521 60.1922 159.74 59.4521 160.218C58.7385 160.694 58.146 161.337 57.6764 162.162C57.2394 162.973 57.0225 163.833 57.0225 164.753V175.565H54.1353V156.823ZM57.3302 161.147C57.7938 160.491 58.348 159.948 58.9927 159.518C59.8525 158.962 60.7375 158.684 61.6479 158.684C62.2266 158.684 62.7695 158.796 63.2767 159.021C63.5673 159.15 63.8462 159.316 64.1134 159.518V158.115C63.3042 157.786 62.5077 157.622 61.7237 157.622C60.4847 157.622 59.372 157.976 58.3858 158.684C57.8644 159.068 57.4099 159.53 57.0225 160.071C56.8797 160.27 56.7459 160.48 56.6212 160.701C56.4992 160.917 56.3859 161.143 56.2813 161.38C56.2792 161.385 56.277 161.389 56.2749 161.394C56.2445 161.464 56.2148 161.534 56.1858 161.605V157.66H54.972V174.729H56.1858V164.753C56.1858 163.746 56.4131 162.796 56.8677 161.902C56.8705 161.897 56.8732 161.892 56.876 161.886C56.8983 161.843 56.9211 161.799 56.9444 161.756C57.0652 161.544 57.1937 161.341 57.3302 161.147ZM68.9403 156.823H71.8275V158.768C72.0944 158.492 72.3833 158.239 72.6944 158.01L72.7027 158.004C73.8343 157.192 75.1184 156.785 76.5287 156.785C77.4322 156.785 78.3354 156.975 79.2333 157.34L79.755 157.552V161.203L78.4126 160.185C77.823 159.738 77.1784 159.521 76.4528 159.521C75.7249 159.521 74.9971 159.74 74.2569 160.218C73.5433 160.695 72.9509 161.337 72.4814 162.162C72.0443 162.973 71.8275 163.833 71.8275 164.753V175.565H68.9403V156.823ZM72.1351 161.148C72.5987 160.491 73.1529 159.948 73.7977 159.518C74.6574 158.962 75.5425 158.684 76.4528 158.684C77.0315 158.684 77.5745 158.796 78.0816 159.021C78.3723 159.15 78.6512 159.316 78.9183 159.518V158.115C78.1091 157.786 77.3126 157.622 76.5287 157.622C75.2896 157.622 74.177 157.976 73.1908 158.684C72.6693 159.068 72.2149 159.53 71.8275 160.071C71.6846 160.27 71.5508 160.48 71.4262 160.701C71.3041 160.917 71.1908 161.143 71.0862 161.38C71.0841 161.385 71.082 161.389 71.0798 161.394C71.0494 161.464 71.0197 161.534 70.9908 161.605V157.66H69.777V174.729H70.9908V164.753C70.9908 163.746 71.218 162.796 71.6726 161.902C71.6754 161.897 71.6782 161.892 71.681 161.886C71.7032 161.843 71.726 161.799 71.7494 161.756C71.8701 161.544 71.9987 161.341 72.1351 161.148ZM99.291 167.502V172.547L99.0754 172.786C98.0715 173.898 96.9521 174.734 95.7136 175.269L95.7061 175.272L95.6987 175.275C94.4693 175.778 93.0945 176.021 91.5888 176.021C89.8639 176.021 88.2365 175.559 86.7204 174.65L86.7145 174.646C85.2322 173.74 84.0364 172.53 83.1334 171.025L83.1276 171.015C82.2461 169.5 81.8003 167.876 81.8003 166.156C81.8003 164.324 82.2395 162.656 83.1326 161.175C84.0183 159.682 85.2279 158.514 86.7502 157.684L86.7557 157.681C88.3018 156.852 90.0069 156.444 91.8543 156.444C94.7376 156.444 97.1983 157.594 99.193 159.834L99.7214 160.428L87.9328 172.066C88.4429 172.421 88.9314 172.694 89.3982 172.89C90.0682 173.148 90.8449 173.285 91.7405 173.285C92.9028 173.285 94.0116 172.985 95.0789 172.372C96.1497 171.757 97.041 170.914 97.7558 169.83L99.291 167.502ZM89.0853 173.667C88.513 173.427 87.9272 173.092 87.3279 172.663C87.1064 172.505 86.883 172.334 86.6577 172.149L98.5681 160.391C96.7221 158.317 94.4842 157.28 91.8543 157.28C90.1347 157.28 88.5669 157.66 87.1508 158.418C85.76 159.177 84.66 160.239 83.8508 161.605C83.0416 162.945 82.6371 164.462 82.6371 166.156C82.6371 167.724 83.0416 169.203 83.8508 170.594C84.6853 171.985 85.7853 173.098 87.1508 173.932C88.5416 174.767 90.021 175.184 91.5888 175.184C93.0049 175.184 94.2692 174.956 95.3819 174.501C96.4945 174.021 97.5186 173.262 98.4543 172.225V170.291C98.1971 170.681 97.9182 171.043 97.6176 171.379C97.0016 172.066 96.2943 172.639 95.4957 173.098C94.3071 173.78 93.0554 174.122 91.7405 174.122C90.7543 174.122 89.8692 173.97 89.0853 173.667ZM87.6819 159.367C86.4934 160.024 85.5577 160.934 84.875 162.098C84.1922 163.261 83.8508 164.576 83.8508 166.042C83.8508 167.849 84.3658 169.43 85.3959 170.787C85.5627 171.007 85.7431 171.221 85.937 171.429L97.0508 160.391C96.832 160.198 96.615 160.021 96.3996 159.858C95.7937 159.4 95.2016 159.059 94.6232 158.836C93.8393 158.507 92.9037 158.342 91.8163 158.342C90.2738 158.342 88.8957 158.684 87.6819 159.367ZM95.7994 160.454C95.2788 160.071 94.7859 159.796 94.3212 159.616L94.3104 159.612L94.2997 159.607C93.6425 159.332 92.8223 159.179 91.8163 159.179C90.4017 159.179 89.1675 159.491 88.0921 160.096L88.0869 160.099C87.0287 160.684 86.2028 161.488 85.5966 162.521C84.9957 163.545 84.6876 164.711 84.6876 166.042C84.6876 167.63 85.123 169.004 85.9954 170.191L95.7994 160.454ZM104.181 156.823H107.068V158.854C107.532 158.418 108.063 158.031 108.658 157.693C110.131 156.833 111.755 156.406 113.514 156.406C115.804 156.406 117.7 157.145 119.097 158.685C120.52 160.199 121.178 162.273 121.178 164.791V175.565H118.291V164.791C118.291 162.876 117.819 161.506 116.985 160.567L116.978 160.559C116.181 159.64 115.042 159.141 113.438 159.141C112.257 159.141 111.182 159.412 110.197 159.949L110.191 159.953C109.233 160.465 108.469 161.173 107.89 162.084C107.347 162.978 107.068 163.998 107.068 165.17V175.565H104.181V156.823ZM107.179 161.642C107.837 160.606 108.709 159.796 109.797 159.215C110.909 158.608 112.123 158.305 113.438 158.305C115.233 158.305 116.624 158.873 117.61 160.011C118.622 161.149 119.128 162.742 119.128 164.791V174.729H120.341V164.791C120.341 162.414 119.722 160.568 118.483 159.253C117.269 157.913 115.613 157.242 113.514 157.242C111.895 157.242 110.416 157.634 109.076 158.418C108.262 158.879 107.593 159.433 107.068 160.08C106.728 160.499 106.449 160.956 106.231 161.453V157.66H105.017V174.729H106.231V165.17C106.231 163.855 106.547 162.679 107.179 161.642ZM134.73 175.793H133.893C131.838 175.793 130.073 175.162 128.662 173.866L128.655 173.86C127.239 172.532 126.57 170.725 126.57 168.546V149.957H129.457V156.823H134.692V159.558H129.457V168.546C129.457 170.036 129.89 171.113 130.676 171.884C131.515 172.657 132.568 173.057 133.893 173.057H134.73V175.793ZM130.1 172.491C129.114 171.53 128.621 170.215 128.621 168.546V158.722H133.855V157.66H128.621V150.794H127.407V168.546C127.407 170.544 128.014 172.111 129.228 173.249C130.277 174.213 131.553 174.769 133.056 174.916C133.328 174.943 133.607 174.956 133.893 174.956V173.894C132.376 173.894 131.111 173.426 130.1 172.491Z" fill="#341F97"/>
</svg>
