<svg width="121" height="121" viewBox="0 0 121 121" fill="none" xmlns="http://www.w3.org/2000/svg">
<path opacity="0.5" d="M120.158 60.6084C120.158 93.7455 93.2948 120.608 60.1577 120.608C27.0206 120.608 0.157715 93.7455 0.157715 60.6084C0.157715 27.4713 27.0206 0.608398 60.1577 0.608398C93.2948 0.608398 120.158 27.4713 120.158 60.6084ZM12.1577 60.6084C12.1577 87.1181 33.648 108.608 60.1577 108.608C86.6674 108.608 108.158 87.1181 108.158 60.6084C108.158 34.0987 86.6674 12.6084 60.1577 12.6084C33.648 12.6084 12.1577 34.0987 12.1577 60.6084Z" fill="#81D3C8"/>
<path d="M114.158 60.6084C117.471 60.6084 120.189 63.3013 119.858 66.5985C119.164 73.5196 117.269 80.2829 114.245 86.5808C110.353 94.6858 104.689 101.813 97.6723 107.434C90.6553 113.056 82.4647 117.029 73.7058 119.059C64.9469 121.089 55.8437 121.125 47.0691 119.163C38.2945 117.202 30.0729 113.294 23.0121 107.727C15.9512 102.161 10.2316 95.079 6.27606 87.0047C2.32052 78.9305 0.23018 70.0705 0.159565 61.0796C0.104696 54.0936 1.27035 47.1673 3.58886 40.6092C4.69338 37.485 8.29872 36.2054 11.2971 37.6163C14.2954 39.0272 15.5429 42.5945 14.5168 45.7453C12.9188 50.6527 12.1185 55.7984 12.1592 60.9854C12.2157 68.1781 13.888 75.2661 17.0524 81.7255C20.2168 88.1849 24.7925 93.8505 30.4412 98.3036C36.0899 102.757 42.6672 105.883 49.6868 107.452C56.7065 109.021 63.9891 108.993 70.9962 107.369C78.0033 105.745 84.5558 102.566 90.1694 98.0691C95.7829 93.5718 100.314 87.8703 103.428 81.3863C105.673 76.7103 107.14 71.7136 107.783 66.5928C108.196 63.305 110.844 60.6084 114.158 60.6084Z" fill="#18A2A2"/>
</svg>
