<svg width="121" height="121" viewBox="0 0 121 121" fill="none" xmlns="http://www.w3.org/2000/svg">
<path opacity="0.5" d="M120.728 60.6084C120.728 93.7455 93.8651 120.608 60.728 120.608C27.5909 120.608 0.728027 93.7455 0.728027 60.6084C0.728027 27.4713 27.5909 0.608398 60.728 0.608398C93.8651 0.608398 120.728 27.4713 120.728 60.6084ZM12.728 60.6084C12.728 87.1181 34.2184 108.608 60.728 108.608C87.2377 108.608 108.728 87.1181 108.728 60.6084C108.728 34.0987 87.2377 12.6084 60.728 12.6084C34.2184 12.6084 12.728 34.0987 12.728 60.6084Z" fill="#81D3C8"/>
<path d="M114.728 60.6084C118.042 60.6084 120.759 63.3014 120.428 66.5986C119.497 75.8763 116.413 84.8388 111.388 92.758C105.287 102.371 96.5769 110.05 86.2748 114.898C75.9727 119.746 64.5039 121.562 53.208 120.135C41.9121 118.708 31.2554 114.097 22.4826 106.839C13.7098 99.5817 7.18301 89.9779 3.66464 79.1494C0.146266 68.321 -0.218467 56.715 2.61304 45.687C5.44454 34.659 11.3554 24.6643 19.6552 16.8703C26.4924 10.4497 34.7183 5.7409 43.6572 3.08804C46.834 2.14525 49.9885 4.30987 50.6094 7.56489C51.2304 10.8199 49.0776 13.9259 45.9254 14.9479C39.2173 17.1225 33.0461 20.757 27.8698 25.6179C21.2299 31.8531 16.5012 39.8489 14.236 48.6713C11.9708 57.4937 12.2626 66.7785 15.0773 75.4412C17.892 84.104 23.1134 91.787 30.1317 97.593C37.1499 103.399 45.6753 107.088 54.712 108.23C63.7488 109.372 72.9238 107.918 81.1654 104.04C89.4071 100.162 96.3752 94.0187 101.256 86.3281C105.061 80.3326 107.474 73.5897 108.354 66.5929C108.767 63.305 111.414 60.6084 114.728 60.6084Z" fill="#18A2A2"/>
</svg>
