<svg width="121" height="121" viewBox="0 0 121 121" fill="none" xmlns="http://www.w3.org/2000/svg">
<path opacity="0.5" d="M120.729 60.6084C120.729 93.7455 93.8661 120.608 60.729 120.608C27.5919 120.608 0.729004 93.7455 0.729004 60.6084C0.729004 27.4713 27.5919 0.608398 60.729 0.608398C93.8661 0.608398 120.729 27.4713 120.729 60.6084ZM12.729 60.6084C12.729 87.1181 34.2193 108.608 60.729 108.608C87.2387 108.608 108.729 87.1181 108.729 60.6084C108.729 34.0987 87.2387 12.6084 60.729 12.6084C34.2193 12.6084 12.729 34.0987 12.729 60.6084Z" fill="#81D3C8"/>
<path d="M114.729 60.6084C118.043 60.6084 120.76 63.3014 120.429 66.5986C119.324 77.6122 115.188 88.1483 108.426 97.0093C100.445 107.466 89.2494 115.011 76.5614 118.482C63.8733 121.953 50.3962 121.158 38.2041 116.22C26.0119 111.281 15.7805 102.473 9.08448 91.1509C2.38841 79.8284 -0.401223 66.6192 1.1449 53.5561C2.69102 40.4931 8.4872 28.3001 17.6414 18.8536C26.7957 9.4072 38.8006 3.23088 51.8087 1.27521C62.8315 -0.382001 74.057 1.06929 84.2406 5.40683C87.2893 6.70537 88.3401 10.384 86.7437 13.2878C85.1473 16.1917 81.5087 17.2127 78.4285 15.9908C70.5799 12.8772 62.0124 11.876 53.5927 13.1418C43.1863 14.7064 33.5823 19.6474 26.2589 27.2046C18.9356 34.7617 14.2986 44.5161 13.0617 54.9666C11.8248 65.4171 14.0565 75.9844 19.4134 85.0424C24.7702 94.1003 32.9554 101.147 42.7091 105.098C52.4628 109.048 63.2445 109.684 73.3949 106.907C83.5453 104.13 92.502 98.0947 98.8863 89.7291C104.052 82.9608 107.302 74.9707 108.355 66.5929C108.768 63.3051 111.415 60.6084 114.729 60.6084Z" fill="#18A2A2"/>
</svg>
