<svg width="121" height="121" viewBox="0 0 121 121" fill="none" xmlns="http://www.w3.org/2000/svg">
<path opacity="0.5" d="M120.839 60.6084C120.839 93.7455 93.9764 120.608 60.8394 120.608C27.7023 120.608 0.839355 93.7455 0.839355 60.6084C0.839355 27.4713 27.7023 0.608398 60.8394 0.608398C93.9764 0.608398 120.839 27.4713 120.839 60.6084ZM12.8394 60.6084C12.8394 87.1181 34.3297 108.608 60.8394 108.608C87.349 108.608 108.839 87.1181 108.839 60.6084C108.839 34.0987 87.349 12.6084 60.8394 12.6084C34.3297 12.6084 12.8394 34.0987 12.8394 60.6084Z" fill="#81D3C8"/>
<path d="M114.839 60.6084C118.153 60.6084 120.87 63.3016 120.54 66.5987C119.355 78.4039 114.69 89.643 107.07 98.8538C98.1703 109.612 85.7972 116.929 72.0822 119.546C58.3673 122.162 44.1693 119.913 31.9341 113.187C19.6989 106.46 10.1926 95.6776 5.05277 82.6959C-0.0870745 69.7141 -0.538604 55.3463 3.77596 42.0674C8.09053 28.7885 16.901 17.4301 28.6897 9.94873C40.4784 2.46739 54.5072 -0.668415 68.3593 1.08152C80.2192 2.57976 91.3138 7.57909 100.258 15.3739C102.757 17.551 102.619 21.3745 100.204 23.6428C97.7881 25.9112 94.012 25.7578 91.4601 23.6439C84.4692 17.8526 75.9431 14.1349 66.8553 12.9869C55.7736 11.5869 44.5506 14.0956 35.1197 20.0807C25.6887 26.0657 18.6403 35.1525 15.1886 45.7756C11.737 56.3987 12.0982 67.893 16.2101 78.2784C20.322 88.6638 27.927 97.29 37.7152 102.671C47.5033 108.052 58.8617 109.851 69.8337 107.758C80.8056 105.665 90.7041 99.8112 97.824 91.2048C103.663 84.1469 107.333 75.6003 108.465 66.593C108.878 63.3052 111.526 60.6084 114.839 60.6084Z" fill="#18A2A2"/>
</svg>
