<svg width="168" height="168" viewBox="0 0 168 168" fill="none" xmlns="http://www.w3.org/2000/svg">
<circle opacity="0.5" cx="84.1114" cy="83.6936" r="83.47" fill="#80D8D3"/>
<path d="M19.6883 30.619C30.3275 17.7049 44.6024 8.28643 60.6606 3.58555C76.7189 -1.11532 93.8193 -0.881554 109.743 4.25652L84.1114 83.6936L19.6883 30.619Z" fill="#C7F6F0"/>
<path d="M167.581 83.6936C167.581 97.0877 164.358 110.285 158.184 122.171C152.009 134.057 143.065 144.283 132.107 151.985C121.149 159.686 108.498 164.638 95.223 166.421C81.9481 168.204 68.4391 166.766 55.8369 162.229C43.2347 157.692 31.9094 150.189 22.8175 140.353C13.7256 130.518 7.13409 118.638 3.59975 105.719C0.0654162 92.7998 -0.307983 79.2196 2.51109 66.1256C5.33016 53.0315 11.2589 40.8082 19.7966 30.4879L84.1114 83.6936H167.581Z" fill="#81D3C8"/>
<path d="M113.647 60.994C112.751 60.994 111.957 60.7753 111.263 60.338C110.581 59.89 110.047 59.2553 109.663 58.434C109.279 57.602 109.087 56.6313 109.087 55.522C109.087 54.4127 109.279 53.4527 109.663 52.642C110.047 51.8313 110.581 51.2127 111.263 50.786C111.957 50.3487 112.751 50.13 113.647 50.13C114.543 50.13 115.333 50.3487 116.015 50.786C116.709 51.2127 117.247 51.8313 117.631 52.642C118.015 53.4527 118.207 54.4127 118.207 55.522C118.207 56.6313 118.015 57.602 117.631 58.434C117.247 59.2553 116.709 59.89 116.015 60.338C115.333 60.7753 114.543 60.994 113.647 60.994ZM113.647 59.57C114.223 59.57 114.73 59.4047 115.167 59.074C115.605 58.7433 115.941 58.274 116.175 57.666C116.41 57.0473 116.527 56.3327 116.527 55.522C116.527 54.2953 116.266 53.33 115.743 52.626C115.221 51.9113 114.522 51.554 113.647 51.554C112.773 51.554 112.074 51.9113 111.551 52.626C111.029 53.33 110.767 54.2953 110.767 55.522C110.767 56.3327 110.885 57.0473 111.119 57.666C111.354 58.274 111.69 58.7433 112.127 59.074C112.565 59.4047 113.071 59.57 113.647 59.57Z" fill="#484848"/>
<path d="M123.182 60.994C121.603 60.994 120.814 60.082 120.814 58.258V54.274H119.678V53.058L120.894 52.978L121.086 50.818H122.43V52.978H124.478V54.274H122.43V58.258C122.43 58.738 122.521 59.1007 122.702 59.346C122.883 59.5807 123.177 59.698 123.582 59.698C123.827 59.698 124.11 59.634 124.43 59.506L124.718 60.706C124.142 60.898 123.63 60.994 123.182 60.994Z" fill="#484848"/>
<path d="M126.488 49.458H128.104V52.466L128.04 54.018C128.445 53.634 128.845 53.3353 129.24 53.122C129.645 52.898 130.093 52.786 130.584 52.786C132.184 52.786 132.984 53.8153 132.984 55.874V60.802H131.368V56.082C131.368 55.41 131.261 54.9247 131.048 54.626C130.845 54.3273 130.509 54.178 130.04 54.178C129.688 54.178 129.373 54.2633 129.096 54.434C128.818 54.594 128.488 54.866 128.104 55.25V60.802H126.488V49.458Z" fill="#484848"/>
<path d="M141.844 56.482C141.844 56.7807 141.822 57.058 141.78 57.314H136.612C136.686 58.1033 136.953 58.706 137.412 59.122C137.881 59.5273 138.446 59.73 139.108 59.73C139.737 59.73 140.361 59.5327 140.98 59.138L141.54 60.162C140.708 60.7167 139.828 60.994 138.9 60.994C138.185 60.994 137.54 60.8287 136.964 60.498C136.388 60.1673 135.929 59.6927 135.588 59.074C135.257 58.4553 135.092 57.73 135.092 56.898C135.092 56.0767 135.257 55.3567 135.588 54.738C135.929 54.1087 136.372 53.6287 136.916 53.298C137.46 52.9567 138.041 52.786 138.66 52.786C139.673 52.786 140.457 53.122 141.012 53.794C141.566 54.4553 141.844 55.3513 141.844 56.482ZM140.436 56.194C140.436 55.5113 140.286 54.9833 139.988 54.61C139.689 54.2367 139.257 54.05 138.692 54.05C138.201 54.05 137.764 54.2313 137.38 54.594C136.996 54.9567 136.75 55.49 136.644 56.194H140.436Z" fill="#484848"/>
<path d="M143.987 52.978H145.315L145.443 54.386H145.491C145.768 53.8847 146.099 53.4953 146.483 53.218C146.878 52.93 147.288 52.786 147.715 52.786C148.067 52.786 148.355 52.8393 148.579 52.946L148.291 54.354C148.003 54.2687 147.742 54.226 147.507 54.226C147.155 54.226 146.808 54.3647 146.467 54.642C146.126 54.9087 145.838 55.3353 145.603 55.922V60.802H143.987V52.978Z" fill="#484848"/>
<path d="M55.6066 127.267C56.9146 125.983 57.9166 124.963 58.6126 124.207C59.3206 123.439 59.8726 122.725 60.2686 122.065C60.6766 121.393 60.8806 120.769 60.8806 120.193C60.8806 119.545 60.7066 119.035 60.3586 118.663C60.0106 118.291 59.5126 118.105 58.8646 118.105C58.0846 118.105 57.3106 118.543 56.5426 119.419L55.5166 118.411C56.0566 117.823 56.6026 117.385 57.1546 117.097C57.7186 116.797 58.3666 116.647 59.0986 116.647C60.1786 116.647 61.0366 116.965 61.6726 117.601C62.3206 118.225 62.6446 119.059 62.6446 120.103C62.6446 120.763 62.4586 121.441 62.0866 122.137C61.7266 122.833 61.2466 123.535 60.6466 124.243C60.0586 124.939 59.2606 125.821 58.2526 126.889C59.0686 126.817 59.7106 126.781 60.1786 126.781H63.2026V128.329H55.6066V127.267Z" fill="#484848"/>
<path d="M69.4641 121.273C70.4841 121.273 71.2881 121.579 71.8761 122.191C72.4761 122.791 72.7761 123.667 72.7761 124.819C72.7761 125.551 72.6141 126.199 72.2901 126.763C71.9781 127.327 71.5521 127.765 71.0121 128.077C70.4841 128.389 69.9021 128.545 69.2661 128.545C68.4981 128.545 67.8021 128.341 67.1781 127.933C66.5661 127.513 66.0801 126.889 65.7201 126.061C65.3721 125.221 65.1981 124.195 65.1981 122.983C65.1981 121.543 65.3961 120.349 65.7921 119.401C66.2001 118.453 66.7401 117.757 67.4121 117.313C68.0841 116.869 68.8281 116.647 69.6441 116.647C70.8081 116.647 71.7861 117.067 72.5781 117.907L71.5881 119.023C71.3721 118.759 71.0961 118.549 70.7601 118.393C70.4241 118.225 70.0821 118.141 69.7341 118.141C68.9181 118.141 68.2461 118.501 67.7181 119.221C67.2021 119.929 66.9261 121.075 66.8901 122.659C67.2261 122.239 67.6281 121.903 68.0961 121.651C68.5641 121.399 69.0201 121.273 69.4641 121.273ZM69.2481 127.141C69.7761 127.141 70.2141 126.931 70.5621 126.511C70.9101 126.091 71.0841 125.527 71.0841 124.819C71.0841 124.111 70.9161 123.565 70.5801 123.181C70.2441 122.797 69.7641 122.605 69.1401 122.605C68.7681 122.605 68.3901 122.719 68.0061 122.947C67.6341 123.175 67.2801 123.535 66.9441 124.027C67.0401 125.059 67.2861 125.839 67.6821 126.367C68.0901 126.883 68.6121 127.141 69.2481 127.141Z" fill="#484848"/>
<path d="M74.5915 123.127H78.8035V124.477H74.5915V123.127Z" fill="#484848"/>
<path d="M84.1924 128.545C82.6084 128.545 81.3304 128.005 80.3584 126.925L81.2404 125.755C81.6364 126.151 82.0624 126.469 82.5184 126.709C82.9744 126.937 83.4844 127.051 84.0484 127.051C84.7084 127.051 85.2424 126.883 85.6504 126.547C86.0704 126.199 86.2804 125.737 86.2804 125.161C86.2804 124.489 86.0104 123.973 85.4704 123.613C84.9424 123.253 84.0484 123.073 82.7884 123.073V121.723C84.8524 121.723 85.8844 121.069 85.8844 119.761C85.8844 119.245 85.7224 118.843 85.3984 118.555C85.0744 118.255 84.6304 118.105 84.0664 118.105C83.2624 118.105 82.4764 118.477 81.7084 119.221L80.7544 118.087C81.8224 117.127 82.9504 116.647 84.1384 116.647C85.2184 116.647 86.0824 116.911 86.7304 117.439C87.3904 117.967 87.7204 118.693 87.7204 119.617C87.7204 120.877 87.0424 121.771 85.6864 122.299V122.371C86.4064 122.551 86.9884 122.893 87.4324 123.397C87.8884 123.889 88.1164 124.507 88.1164 125.251C88.1164 125.923 87.9424 126.511 87.5944 127.015C87.2464 127.507 86.7724 127.885 86.1724 128.149C85.5844 128.413 84.9244 128.545 84.1924 128.545Z" fill="#484848"/>
<path d="M93.9279 128.545C92.7399 128.545 91.8099 128.023 91.1379 126.979C90.4659 125.935 90.1299 124.459 90.1299 122.551C90.1299 120.643 90.4659 119.185 91.1379 118.177C91.8099 117.157 92.7399 116.647 93.9279 116.647C95.1159 116.647 96.0459 117.157 96.7179 118.177C97.3899 119.197 97.7259 120.655 97.7259 122.551C97.7259 124.459 97.3899 125.935 96.7179 126.979C96.0459 128.023 95.1159 128.545 93.9279 128.545ZM93.9279 127.105C94.5639 127.105 95.0619 126.739 95.4219 126.007C95.7939 125.275 95.9799 124.123 95.9799 122.551C95.9799 119.575 95.2959 118.087 93.9279 118.087C92.5599 118.087 91.8759 119.575 91.8759 122.551C91.8759 124.123 92.0559 125.275 92.4159 126.007C92.7879 126.739 93.2919 127.105 93.9279 127.105Z" fill="#484848"/>
<path d="M48.5464 37.6861C46.9624 37.6861 45.6844 37.1461 44.7124 36.0661L45.5944 34.8961C45.9904 35.2921 46.4164 35.6101 46.8724 35.8501C47.3284 36.0781 47.8384 36.1921 48.4024 36.1921C49.0624 36.1921 49.5964 36.0241 50.0044 35.6881C50.4244 35.3401 50.6344 34.8781 50.6344 34.3021C50.6344 33.6301 50.3644 33.1141 49.8244 32.7541C49.2964 32.3941 48.4024 32.2141 47.1424 32.2141V30.8641C49.2064 30.8641 50.2384 30.2101 50.2384 28.9021C50.2384 28.3861 50.0764 27.9841 49.7524 27.6961C49.4284 27.3961 48.9844 27.2461 48.4204 27.2461C47.6164 27.2461 46.8304 27.6181 46.0624 28.3621L45.1084 27.2281C46.1764 26.2681 47.3044 25.7881 48.4924 25.7881C49.5724 25.7881 50.4364 26.0521 51.0844 26.5801C51.7444 27.1081 52.0744 27.8341 52.0744 28.7581C52.0744 30.0181 51.3964 30.9121 50.0404 31.4401V31.5121C50.7604 31.6921 51.3424 32.0341 51.7864 32.5381C52.2424 33.0301 52.4704 33.6481 52.4704 34.3921C52.4704 35.0641 52.2964 35.6521 51.9484 36.1561C51.6004 36.6481 51.1264 37.0261 50.5264 37.2901C49.9384 37.5541 49.2784 37.6861 48.5464 37.6861Z" fill="#484848"/>
<path d="M54.5379 35.9761H57.1299V28.0561H55.0239V26.9041C56.0439 26.7241 56.8959 26.4241 57.5799 26.0041H58.9479V35.9761H61.2519V37.4701H54.5379V35.9761Z" fill="#484848"/>
<path d="M63.1759 32.2681H67.3879V33.6181H63.1759V32.2681Z" fill="#484848"/>
<path d="M72.7768 37.6861C71.1928 37.6861 69.9148 37.1461 68.9428 36.0661L69.8248 34.8961C70.2208 35.2921 70.6468 35.6101 71.1028 35.8501C71.5588 36.0781 72.0688 36.1921 72.6328 36.1921C73.2928 36.1921 73.8268 36.0241 74.2348 35.6881C74.6548 35.3401 74.8648 34.8781 74.8648 34.3021C74.8648 33.6301 74.5948 33.1141 74.0548 32.7541C73.5268 32.3941 72.6328 32.2141 71.3728 32.2141V30.8641C73.4368 30.8641 74.4688 30.2101 74.4688 28.9021C74.4688 28.3861 74.3068 27.9841 73.9828 27.6961C73.6588 27.3961 73.2148 27.2461 72.6508 27.2461C71.8468 27.2461 71.0608 27.6181 70.2928 28.3621L69.3388 27.2281C70.4068 26.2681 71.5348 25.7881 72.7228 25.7881C73.8028 25.7881 74.6668 26.0521 75.3148 26.5801C75.9748 27.1081 76.3048 27.8341 76.3048 28.7581C76.3048 30.0181 75.6268 30.9121 74.2708 31.4401V31.5121C74.9908 31.6921 75.5728 32.0341 76.0168 32.5381C76.4728 33.0301 76.7008 33.6481 76.7008 34.3921C76.7008 35.0641 76.5268 35.6521 76.1788 36.1561C75.8308 36.6481 75.3568 37.0261 74.7568 37.2901C74.1688 37.5541 73.5088 37.6861 72.7768 37.6861Z" fill="#484848"/>
<path d="M82.2423 37.6861C81.3903 37.6861 80.6523 37.5421 80.0283 37.2541C79.4163 36.9661 78.8703 36.5821 78.3903 36.1021L79.2543 34.9321C79.6503 35.3161 80.0703 35.6221 80.5143 35.8501C80.9583 36.0781 81.4623 36.1921 82.0263 36.1921C82.7103 36.1921 83.2683 35.9761 83.7003 35.5441C84.1443 35.1121 84.3663 34.5361 84.3663 33.8161C84.3663 33.0961 84.1623 32.5321 83.7543 32.1241C83.3463 31.7161 82.8003 31.5121 82.1163 31.5121C81.7563 31.5121 81.4443 31.5661 81.1803 31.6741C80.9163 31.7701 80.5983 31.9381 80.2263 32.1781L79.3263 31.6021L79.6863 26.0041H85.6443V27.5521H81.2703L81.0003 30.5941C81.5163 30.3181 82.0563 30.1801 82.6203 30.1801C83.6643 30.1801 84.5223 30.4861 85.1943 31.0981C85.8663 31.6981 86.2023 32.5861 86.2023 33.7621C86.2023 34.5661 86.0163 35.2681 85.6443 35.8681C85.2843 36.4561 84.8043 36.9061 84.2043 37.2181C83.6043 37.5301 82.9503 37.6861 82.2423 37.6861Z" fill="#484848"/>
</svg>
