<svg width="51" height="46" viewBox="0 0 51 46" fill="none" xmlns="http://www.w3.org/2000/svg">
<path d="M47.4857 41.3115C47.2247 41.7695 46.8465 42.1499 46.39 42.4134C45.9335 42.677 45.415 42.8144 44.8878 42.8114M47.4857 41.3115L44.8878 42.8114M47.4857 41.3115C47.7519 40.8564 47.8922 40.3386 47.8922 39.8114C47.8922 39.2841 47.7519 38.7663 47.4856 38.3111C47.4855 38.311 47.4855 38.3109 47.4854 38.3107L28.0753 4.69049L27.9929 4.73806L28.0753 4.69048C27.8119 4.23445 27.4332 3.85577 26.9772 3.59249C26.5211 3.32921 26.0038 3.19061 25.4772 3.19061C24.9506 3.19061 24.4332 3.32921 23.9772 3.59249C23.5211 3.85577 23.1424 4.23445 22.8791 4.69048L22.9638 4.73942L22.8791 4.69049L3.46809 38.3113C3.20477 38.7673 3.06612 39.2846 3.0661 39.8112C3.06607 40.3378 3.20466 40.8552 3.46794 41.3112C3.73122 41.7673 4.10991 42.146 4.56595 42.4094C5.02199 42.6727 5.53931 42.8113 6.06592 42.8114L44.8873 42.8113M47.4857 41.3115L44.8873 42.8113M44.8878 42.8114C44.8877 42.8114 44.8875 42.8113 44.8873 42.8113M44.8878 42.8114L44.8873 42.8113M1.22541 37.0164L1.13913 36.9666L1.22541 37.0164L20.6364 3.39566C21.127 2.54596 21.8326 1.84037 22.6824 1.34981C23.5321 0.859239 24.496 0.600977 25.4772 0.600977C26.4583 0.600977 27.4222 0.859239 28.272 1.34981C29.1217 1.84037 29.8273 2.54596 30.3179 3.39566L49.7284 37.0164C50.219 37.8661 50.4773 38.83 50.4773 39.8112C50.4773 40.7924 50.2191 41.7563 49.7285 42.606C49.2379 43.4558 48.5324 44.1614 47.6826 44.652C46.8329 45.1426 45.869 45.4009 44.8878 45.401H6.06593C5.08474 45.4009 4.12085 45.1426 3.27114 44.652C2.42142 44.1614 1.71582 43.4558 1.22525 42.606C0.734686 41.7563 0.476438 40.7924 0.476465 39.8112C0.476492 38.83 0.734794 37.8661 1.22541 37.0164ZM24.1821 29.4131V13.1307C24.1821 12.7873 24.3185 12.4579 24.5613 12.2151C24.8041 11.9723 25.1335 11.8359 25.4769 11.8359C25.8203 11.8359 26.1496 11.9723 26.3925 12.2151C26.6353 12.4579 26.7717 12.7873 26.7717 13.1307V29.4131C26.7717 29.7565 26.6353 30.0859 26.3925 30.3287C26.1496 30.5715 25.8203 30.7079 25.4769 30.7079C25.1335 30.7079 24.8041 30.5715 24.5613 30.3287C24.3185 30.0859 24.1821 29.7565 24.1821 29.4131ZM27.5111 36.615C27.5111 37.0173 27.3918 37.4105 27.1683 37.745C26.9448 38.0795 26.6271 38.3402 26.2554 38.4942C25.8837 38.6481 25.4747 38.6884 25.0802 38.6099C24.6856 38.5314 24.3232 38.3377 24.0387 38.0532C23.7542 37.7688 23.5605 37.4063 23.482 37.0118C23.4035 36.6172 23.4438 36.2082 23.5978 35.8365C23.7517 35.4648 24.0124 35.1472 24.3469 34.9237C24.6814 34.7002 25.0747 34.5809 25.477 34.5809C25.7441 34.5809 26.0086 34.6335 26.2554 34.7357C26.5022 34.8379 26.7264 34.9877 26.9153 35.1766C27.1042 35.3655 27.254 35.5897 27.3563 35.8365C27.4585 36.0833 27.5111 36.3478 27.5111 36.615Z" fill="#18A2A2" stroke="#7EC3C3" stroke-width="0.2"/>
</svg>
