<svg width="167" height="168" viewBox="0 0 167 168" fill="none" xmlns="http://www.w3.org/2000/svg">
<circle cx="83.4934" cy="84.1468" r="83.47" fill="#C7F6F0"/>
<path d="M166.963 84.1468C166.963 102.514 160.905 120.368 149.728 134.943C138.551 149.517 122.878 159.998 105.139 164.761C87.4005 169.524 68.586 168.304 51.6114 161.288C34.6369 154.273 20.4503 141.854 11.25 125.957C2.04983 110.061 -1.65021 91.5732 0.723345 73.3601C3.0969 55.147 11.4115 38.2252 24.3786 25.2173C37.3457 12.2094 54.2412 3.84172 72.4468 1.41096C90.6523 -1.0198 109.151 2.62214 125.077 11.7724L83.4934 84.1468H166.963Z" fill="#81D3C8"/>
<path d="M20.3782 95.2347H27.3622V96.7827H22.2142V100.401H26.5882V101.949H22.2142V107.025H20.3782V95.2347Z" fill="#484848"/>
<path d="M36.3492 102.165C36.3492 102.501 36.3252 102.813 36.2772 103.101H30.4632C30.5472 103.989 30.8472 104.667 31.3632 105.135C31.8912 105.591 32.5272 105.819 33.2712 105.819C33.9792 105.819 34.6812 105.597 35.3772 105.153L36.0072 106.305C35.0712 106.929 34.0812 107.241 33.0372 107.241C32.2332 107.241 31.5072 107.055 30.8592 106.683C30.2112 106.311 29.6952 105.777 29.3112 105.081C28.9392 104.385 28.7532 103.569 28.7532 102.633C28.7532 101.709 28.9392 100.899 29.3112 100.203C29.6952 99.4947 30.1932 98.9547 30.8052 98.5827C31.4172 98.1987 32.0712 98.0067 32.7672 98.0067C33.9072 98.0067 34.7892 98.3847 35.4132 99.1407C36.0372 99.8847 36.3492 100.893 36.3492 102.165ZM34.7652 101.841C34.7652 101.073 34.5972 100.479 34.2612 100.059C33.9252 99.6387 33.4392 99.4287 32.8032 99.4287C32.2512 99.4287 31.7592 99.6327 31.3272 100.041C30.8952 100.449 30.6192 101.049 30.4992 101.841H34.7652Z" fill="#484848"/>
<path d="M38.7604 98.2227H40.2544L40.3984 99.4467H40.4524C40.8844 99.0027 41.3164 98.6547 41.7484 98.4027C42.1924 98.1387 42.6664 98.0067 43.1704 98.0067C44.3824 98.0067 45.1924 98.5467 45.6004 99.6267C46.0924 99.0987 46.5604 98.6967 47.0044 98.4207C47.4604 98.1447 47.9464 98.0067 48.4624 98.0067C49.3624 98.0067 50.0344 98.3067 50.4784 98.9067C50.9344 99.4947 51.1624 100.353 51.1624 101.481V107.025H49.3444V101.715C49.3444 100.959 49.2244 100.413 48.9844 100.077C48.7564 99.7407 48.3844 99.5727 47.8684 99.5727C47.2684 99.5727 46.6024 99.9747 45.8704 100.779V107.025H44.0524V101.715C44.0524 100.959 43.9324 100.413 43.6924 100.077C43.4644 99.7407 43.0924 99.5727 42.5764 99.5727C41.9764 99.5727 41.3104 99.9747 40.5784 100.779V107.025H38.7604V98.2227Z" fill="#484848"/>
<path d="M56.2728 107.241C55.5048 107.241 54.8808 107.013 54.4008 106.557C53.9208 106.089 53.6808 105.465 53.6808 104.685C53.6808 103.737 54.1008 103.011 54.9408 102.507C55.7808 101.991 57.1188 101.631 58.9548 101.427C58.9308 100.131 58.3668 99.4827 57.2628 99.4827C56.5188 99.4827 55.6728 99.7827 54.7248 100.383L54.0408 99.1587C55.2408 98.3907 56.4228 98.0067 57.5868 98.0067C58.6548 98.0067 59.4528 98.3307 59.9808 98.9787C60.5088 99.6147 60.7728 100.533 60.7728 101.733V107.025H59.2788L59.1348 106.017H59.0808C58.1088 106.833 57.1728 107.241 56.2728 107.241ZM56.8308 105.801C57.2029 105.801 57.5508 105.717 57.8748 105.549C58.1988 105.381 58.5588 105.117 58.9548 104.757V102.579C57.6828 102.735 56.7768 102.975 56.2368 103.299C55.7088 103.623 55.4448 104.043 55.4448 104.559C55.4448 104.967 55.5709 105.279 55.8228 105.495C56.0748 105.699 56.4109 105.801 56.8308 105.801Z" fill="#484848"/>
<path d="M65.5562 107.241C64.9202 107.241 64.4582 107.049 64.1702 106.665C63.8822 106.281 63.7382 105.717 63.7382 104.973V94.2627H65.5562V105.081C65.5562 105.309 65.5982 105.477 65.6822 105.585C65.7662 105.693 65.8682 105.747 65.9882 105.747C66.0962 105.747 66.2042 105.735 66.3122 105.711L66.5462 107.079C66.2702 107.187 65.9402 107.241 65.5562 107.241Z" fill="#484848"/>
<path d="M75.8283 102.165C75.8283 102.501 75.8043 102.813 75.7563 103.101H69.9423C70.0263 103.989 70.3263 104.667 70.8423 105.135C71.3703 105.591 72.0063 105.819 72.7503 105.819C73.4583 105.819 74.1603 105.597 74.8563 105.153L75.4863 106.305C74.5503 106.929 73.5603 107.241 72.5163 107.241C71.7123 107.241 70.9863 107.055 70.3383 106.683C69.6903 106.311 69.1743 105.777 68.7903 105.081C68.4183 104.385 68.2323 103.569 68.2323 102.633C68.2323 101.709 68.4183 100.899 68.7903 100.203C69.1743 99.4947 69.6723 98.9547 70.2843 98.5827C70.8963 98.1987 71.5503 98.0067 72.2463 98.0067C73.3863 98.0067 74.2683 98.3847 74.8923 99.1407C75.5163 99.8847 75.8283 100.893 75.8283 102.165ZM74.2443 101.841C74.2443 101.073 74.0763 100.479 73.7403 100.059C73.4043 99.6387 72.9183 99.4287 72.2823 99.4287C71.7303 99.4287 71.2383 99.6327 70.8063 100.041C70.3743 100.449 70.0983 101.049 69.9783 101.841H74.2443Z" fill="#484848"/>
<path d="M112.092 52.8949H114.216L116.376 58.8889L116.808 60.2029L117.168 61.2649H117.24C117.432 60.6889 117.552 60.3169 117.6 60.1489L118.014 58.8889L120.138 52.8949H122.262V64.6849H120.57V58.8169C120.57 58.1689 120.636 57.0949 120.768 55.5949L120.804 55.1809H120.732L119.796 57.8989L117.726 63.5329H116.592L114.522 57.8989L113.586 55.1809H113.514L113.55 55.5949C113.682 57.0949 113.748 58.1689 113.748 58.8169V64.6849H112.092V52.8949Z" fill="#484848"/>
<path d="M127.65 64.9009C126.882 64.9009 126.258 64.6729 125.778 64.2169C125.298 63.7489 125.058 63.1249 125.058 62.3449C125.058 61.3969 125.478 60.6709 126.318 60.1669C127.158 59.6509 128.496 59.2909 130.332 59.0869C130.308 57.7909 129.744 57.1429 128.64 57.1429C127.896 57.1429 127.05 57.4429 126.102 58.0429L125.418 56.8189C126.618 56.0509 127.8 55.6669 128.964 55.6669C130.032 55.6669 130.83 55.9909 131.358 56.6389C131.886 57.2749 132.15 58.1929 132.15 59.3929V64.6849H130.656L130.512 63.6769H130.458C129.486 64.4929 128.55 64.9009 127.65 64.9009ZM128.208 63.4609C128.58 63.4609 128.928 63.3769 129.252 63.2089C129.576 63.0409 129.936 62.7769 130.332 62.4169V60.2389C129.06 60.3949 128.154 60.6349 127.614 60.9589C127.086 61.2829 126.822 61.7029 126.822 62.2189C126.822 62.6269 126.948 62.9389 127.2 63.1549C127.452 63.3589 127.788 63.4609 128.208 63.4609Z" fill="#484848"/>
<path d="M136.933 64.9009C136.297 64.9009 135.835 64.7089 135.547 64.3249C135.259 63.9409 135.115 63.3769 135.115 62.6329V51.9229H136.933V62.7409C136.933 62.9689 136.975 63.1369 137.059 63.2449C137.143 63.3529 137.245 63.4069 137.365 63.4069C137.473 63.4069 137.581 63.3949 137.689 63.3709L137.923 64.7389C137.647 64.8469 137.317 64.9009 136.933 64.9009Z" fill="#484848"/>
<path d="M147.205 59.8249C147.205 60.1609 147.181 60.4729 147.133 60.7609H141.319C141.403 61.6489 141.703 62.3269 142.219 62.7949C142.747 63.2509 143.383 63.4789 144.127 63.4789C144.835 63.4789 145.537 63.2569 146.233 62.8129L146.863 63.9649C145.927 64.5889 144.937 64.9009 143.893 64.9009C143.089 64.9009 142.363 64.7149 141.715 64.3429C141.067 63.9709 140.551 63.4369 140.167 62.7409C139.795 62.0449 139.609 61.2289 139.609 60.2929C139.609 59.3689 139.795 58.5589 140.167 57.8629C140.551 57.1549 141.049 56.6149 141.661 56.2429C142.273 55.8589 142.927 55.6669 143.623 55.6669C144.763 55.6669 145.645 56.0449 146.269 56.8009C146.893 57.5449 147.205 58.5529 147.205 59.8249ZM145.621 59.5009C145.621 58.7329 145.453 58.1389 145.117 57.7189C144.781 57.2989 144.295 57.0889 143.659 57.0889C143.107 57.0889 142.615 57.2929 142.183 57.7009C141.751 58.1089 141.475 58.7089 141.355 59.5009H145.621Z" fill="#484848"/>
</svg>
