<svg width="47" height="46" viewBox="0 0 47 46" fill="none" xmlns="http://www.w3.org/2000/svg">
<mask id="path-1-outside-1" maskUnits="userSpaceOnUse" x="-0.0141602" y="-0.499023" width="47" height="47" fill="black">
<rect fill="white" x="-0.0141602" y="-0.499023" width="47" height="47"/>
<path d="M18.237 0.502154C18.0947 0.508715 17.9551 0.542938 17.8261 0.60286C17.6972 0.662781 17.5814 0.747229 17.4855 0.851386C17.3896 0.955543 17.3153 1.07734 17.267 1.20987C17.2187 1.3424 17.1973 1.48306 17.204 1.62378C17.2106 1.7645 17.2453 1.90255 17.3059 2.03003C17.3666 2.15751 17.452 2.27191 17.5574 2.36674C17.6627 2.46157 17.7859 2.53497 17.92 2.5827C18.054 2.63043 18.1963 2.65159 18.3386 2.64496H22.6729V6.96404C14.6644 7.3967 7.93531 12.6009 5.36954 19.7706C5.30589 19.9057 5.27143 20.0524 5.26836 20.2014C5.26529 20.3503 5.29368 20.4983 5.35171 20.6358C5.40975 20.7734 5.49616 20.8974 5.60542 21C5.71468 21.1026 5.84439 21.1816 5.98626 21.2319C6.12813 21.2822 6.27904 21.3026 6.42936 21.292C6.57968 21.2813 6.7261 21.2397 6.85926 21.17C6.99242 21.1002 7.1094 21.0037 7.20272 20.8867C7.29605 20.7697 7.36366 20.6348 7.40125 20.4905C9.78173 13.8385 16.1997 9.07336 23.7565 9.07336C33.3444 9.07336 41.0937 16.7356 41.0937 26.2158C41.0937 35.6959 33.3444 43.3582 23.7565 43.3582C14.5087 43.3582 6.9763 36.2325 6.45312 27.2202L7.82452 28.5762C7.92495 28.6784 8.045 28.7598 8.17764 28.8156C8.31027 28.8714 8.45283 28.9004 8.59697 28.9011C8.7411 28.9017 8.88392 28.8739 9.01706 28.8193C9.15019 28.7647 9.27098 28.6844 9.37233 28.5831C9.47369 28.4817 9.55359 28.3614 9.60734 28.2292C9.66109 28.097 9.68763 27.9554 9.68539 27.8129C9.68315 27.6704 9.65219 27.5298 9.59431 27.3993C9.53643 27.2688 9.45279 27.151 9.3483 27.0528L6.09757 23.8386C5.98272 23.7268 5.84409 23.6417 5.69179 23.5896C5.53949 23.5375 5.37734 23.5196 5.21717 23.5373C4.97451 23.5632 4.74781 23.6694 4.57379 23.8386L1.32306 27.0528C1.21857 27.151 1.13494 27.2688 1.07706 27.3993C1.01917 27.5298 0.988209 27.6704 0.98597 27.8129C0.983732 27.9554 1.01027 28.097 1.06402 28.2292C1.11778 28.3614 1.19767 28.4817 1.29903 28.5831C1.40039 28.6844 1.52117 28.7647 1.65431 28.8193C1.78744 28.8739 1.93026 28.9017 2.0744 28.9011C2.21853 28.9004 2.36109 28.8714 2.49373 28.8156C2.62636 28.7598 2.74641 28.6784 2.84684 28.5762L4.28597 27.1532C4.77571 37.3629 13.3112 45.501 23.7565 45.501C34.5156 45.501 43.2609 36.854 43.2609 26.2158C43.2609 21.2794 41.3766 16.7729 38.2832 13.359L41.3646 10.3122L44.1244 13.0409C44.2248 13.143 44.3448 13.2243 44.4775 13.2801C44.6101 13.3358 44.7526 13.3648 44.8967 13.3654C45.0408 13.366 45.1836 13.3382 45.3167 13.2836C45.4498 13.229 45.5705 13.1487 45.6718 13.0474C45.7732 12.9461 45.853 12.8258 45.9068 12.6937C45.9605 12.5615 45.9871 12.42 45.9849 12.2775C45.9827 12.1351 45.9518 11.9945 45.8939 11.864C45.8361 11.7335 45.7525 11.6157 45.6481 11.5175L38.6049 4.55339C38.4916 4.43859 38.3536 4.3504 38.2013 4.29535C38.0489 4.2403 37.8859 4.21979 37.7245 4.23532C37.5179 4.25519 37.3215 4.33327 37.1585 4.4603C36.9956 4.58733 36.8729 4.75795 36.8052 4.95189C36.7374 5.14583 36.7274 5.35495 36.7763 5.55436C36.8252 5.75376 36.931 5.93509 37.0811 6.07679L39.8408 8.80551L36.7425 11.8523C33.5434 9.02244 29.4008 7.21254 24.8401 6.96404V2.64496H29.1744C29.318 2.64696 29.4605 2.62073 29.5938 2.56779C29.727 2.51485 29.8483 2.43625 29.9505 2.33656C30.0528 2.23687 30.134 2.11809 30.1894 1.9871C30.2448 1.85611 30.2734 1.71554 30.2734 1.57355C30.2734 1.43157 30.2448 1.291 30.1894 1.16001C30.134 1.02902 30.0528 0.910236 29.9505 0.810548C29.8483 0.71086 29.727 0.63226 29.5938 0.579318C29.4605 0.526376 29.318 0.500146 29.1744 0.502154H18.3386C18.3048 0.500584 18.2709 0.500584 18.237 0.502154ZM23.638 16.0207C23.3687 16.05 23.1202 16.1779 22.9416 16.3793C22.7629 16.5808 22.6671 16.841 22.6729 17.1089V25.6801C22.6729 25.9642 22.7871 26.2367 22.9903 26.4376C23.1935 26.6386 23.4691 26.7514 23.7565 26.7515H32.4251C32.5687 26.7535 32.7113 26.7272 32.8445 26.6743C32.9777 26.6214 33.099 26.5428 33.2013 26.4431C33.3035 26.3434 33.3847 26.2246 33.4402 26.0936C33.4956 25.9626 33.5241 25.8221 33.5241 25.6801C33.5241 25.5381 33.4956 25.3975 33.4402 25.2665C33.3847 25.1355 33.3035 25.0167 33.2013 24.9171C33.099 24.8174 32.9777 24.7388 32.8445 24.6858C32.7113 24.6329 32.5687 24.6067 32.4251 24.6087H24.8401V17.1089C24.8434 16.9563 24.8137 16.8049 24.7531 16.6646C24.6924 16.5243 24.6022 16.3985 24.4884 16.2954C24.3746 16.1924 24.2399 16.1146 24.0932 16.0672C23.9465 16.0199 23.7913 16.004 23.638 16.0207Z"/>
</mask>
<path d="M18.237 0.502154C18.0947 0.508715 17.9551 0.542938 17.8261 0.60286C17.6972 0.662781 17.5814 0.747229 17.4855 0.851386C17.3896 0.955543 17.3153 1.07734 17.267 1.20987C17.2187 1.3424 17.1973 1.48306 17.204 1.62378C17.2106 1.7645 17.2453 1.90255 17.3059 2.03003C17.3666 2.15751 17.452 2.27191 17.5574 2.36674C17.6627 2.46157 17.7859 2.53497 17.92 2.5827C18.054 2.63043 18.1963 2.65159 18.3386 2.64496H22.6729V6.96404C14.6644 7.3967 7.93531 12.6009 5.36954 19.7706C5.30589 19.9057 5.27143 20.0524 5.26836 20.2014C5.26529 20.3503 5.29368 20.4983 5.35171 20.6358C5.40975 20.7734 5.49616 20.8974 5.60542 21C5.71468 21.1026 5.84439 21.1816 5.98626 21.2319C6.12813 21.2822 6.27904 21.3026 6.42936 21.292C6.57968 21.2813 6.7261 21.2397 6.85926 21.17C6.99242 21.1002 7.1094 21.0037 7.20272 20.8867C7.29605 20.7697 7.36366 20.6348 7.40125 20.4905C9.78173 13.8385 16.1997 9.07336 23.7565 9.07336C33.3444 9.07336 41.0937 16.7356 41.0937 26.2158C41.0937 35.6959 33.3444 43.3582 23.7565 43.3582C14.5087 43.3582 6.9763 36.2325 6.45312 27.2202L7.82452 28.5762C7.92495 28.6784 8.045 28.7598 8.17764 28.8156C8.31027 28.8714 8.45283 28.9004 8.59697 28.9011C8.7411 28.9017 8.88392 28.8739 9.01706 28.8193C9.15019 28.7647 9.27098 28.6844 9.37233 28.5831C9.47369 28.4817 9.55359 28.3614 9.60734 28.2292C9.66109 28.097 9.68763 27.9554 9.68539 27.8129C9.68315 27.6704 9.65219 27.5298 9.59431 27.3993C9.53643 27.2688 9.45279 27.151 9.3483 27.0528L6.09757 23.8386C5.98272 23.7268 5.84409 23.6417 5.69179 23.5896C5.53949 23.5375 5.37734 23.5196 5.21717 23.5373C4.97451 23.5632 4.74781 23.6694 4.57379 23.8386L1.32306 27.0528C1.21857 27.151 1.13494 27.2688 1.07706 27.3993C1.01917 27.5298 0.988209 27.6704 0.98597 27.8129C0.983732 27.9554 1.01027 28.097 1.06402 28.2292C1.11778 28.3614 1.19767 28.4817 1.29903 28.5831C1.40039 28.6844 1.52117 28.7647 1.65431 28.8193C1.78744 28.8739 1.93026 28.9017 2.0744 28.9011C2.21853 28.9004 2.36109 28.8714 2.49373 28.8156C2.62636 28.7598 2.74641 28.6784 2.84684 28.5762L4.28597 27.1532C4.77571 37.3629 13.3112 45.501 23.7565 45.501C34.5156 45.501 43.2609 36.854 43.2609 26.2158C43.2609 21.2794 41.3766 16.7729 38.2832 13.359L41.3646 10.3122L44.1244 13.0409C44.2248 13.143 44.3448 13.2243 44.4775 13.2801C44.6101 13.3358 44.7526 13.3648 44.8967 13.3654C45.0408 13.366 45.1836 13.3382 45.3167 13.2836C45.4498 13.229 45.5705 13.1487 45.6718 13.0474C45.7732 12.9461 45.853 12.8258 45.9068 12.6937C45.9605 12.5615 45.9871 12.42 45.9849 12.2775C45.9827 12.1351 45.9518 11.9945 45.8939 11.864C45.8361 11.7335 45.7525 11.6157 45.6481 11.5175L38.6049 4.55339C38.4916 4.43859 38.3536 4.3504 38.2013 4.29535C38.0489 4.2403 37.8859 4.21979 37.7245 4.23532C37.5179 4.25519 37.3215 4.33327 37.1585 4.4603C36.9956 4.58733 36.8729 4.75795 36.8052 4.95189C36.7374 5.14583 36.7274 5.35495 36.7763 5.55436C36.8252 5.75376 36.931 5.93509 37.0811 6.07679L39.8408 8.80551L36.7425 11.8523C33.5434 9.02244 29.4008 7.21254 24.8401 6.96404V2.64496H29.1744C29.318 2.64696 29.4605 2.62073 29.5938 2.56779C29.727 2.51485 29.8483 2.43625 29.9505 2.33656C30.0528 2.23687 30.134 2.11809 30.1894 1.9871C30.2448 1.85611 30.2734 1.71554 30.2734 1.57355C30.2734 1.43157 30.2448 1.291 30.1894 1.16001C30.134 1.02902 30.0528 0.910236 29.9505 0.810548C29.8483 0.71086 29.727 0.63226 29.5938 0.579318C29.4605 0.526376 29.318 0.500146 29.1744 0.502154H18.3386C18.3048 0.500584 18.2709 0.500584 18.237 0.502154ZM23.638 16.0207C23.3687 16.05 23.1202 16.1779 22.9416 16.3793C22.7629 16.5808 22.6671 16.841 22.6729 17.1089V25.6801C22.6729 25.9642 22.7871 26.2367 22.9903 26.4376C23.1935 26.6386 23.4691 26.7514 23.7565 26.7515H32.4251C32.5687 26.7535 32.7113 26.7272 32.8445 26.6743C32.9777 26.6214 33.099 26.5428 33.2013 26.4431C33.3035 26.3434 33.3847 26.2246 33.4402 26.0936C33.4956 25.9626 33.5241 25.8221 33.5241 25.6801C33.5241 25.5381 33.4956 25.3975 33.4402 25.2665C33.3847 25.1355 33.3035 25.0167 33.2013 24.9171C33.099 24.8174 32.9777 24.7388 32.8445 24.6858C32.7113 24.6329 32.5687 24.6067 32.4251 24.6087H24.8401V17.1089C24.8434 16.9563 24.8137 16.8049 24.7531 16.6646C24.6924 16.5243 24.6022 16.3985 24.4884 16.2954C24.3746 16.1924 24.2399 16.1146 24.0932 16.0672C23.9465 16.0199 23.7913 16.004 23.638 16.0207Z" fill="#18A2A2"/>
<path d="M18.237 0.502154C18.0947 0.508715 17.9551 0.542938 17.8261 0.60286C17.6972 0.662781 17.5814 0.747229 17.4855 0.851386C17.3896 0.955543 17.3153 1.07734 17.267 1.20987C17.2187 1.3424 17.1973 1.48306 17.204 1.62378C17.2106 1.7645 17.2453 1.90255 17.3059 2.03003C17.3666 2.15751 17.452 2.27191 17.5574 2.36674C17.6627 2.46157 17.7859 2.53497 17.92 2.5827C18.054 2.63043 18.1963 2.65159 18.3386 2.64496H22.6729V6.96404C14.6644 7.3967 7.93531 12.6009 5.36954 19.7706C5.30589 19.9057 5.27143 20.0524 5.26836 20.2014C5.26529 20.3503 5.29368 20.4983 5.35171 20.6358C5.40975 20.7734 5.49616 20.8974 5.60542 21C5.71468 21.1026 5.84439 21.1816 5.98626 21.2319C6.12813 21.2822 6.27904 21.3026 6.42936 21.292C6.57968 21.2813 6.7261 21.2397 6.85926 21.17C6.99242 21.1002 7.1094 21.0037 7.20272 20.8867C7.29605 20.7697 7.36366 20.6348 7.40125 20.4905C9.78173 13.8385 16.1997 9.07336 23.7565 9.07336C33.3444 9.07336 41.0937 16.7356 41.0937 26.2158C41.0937 35.6959 33.3444 43.3582 23.7565 43.3582C14.5087 43.3582 6.9763 36.2325 6.45312 27.2202L7.82452 28.5762C7.92495 28.6784 8.045 28.7598 8.17764 28.8156C8.31027 28.8714 8.45283 28.9004 8.59697 28.9011C8.7411 28.9017 8.88392 28.8739 9.01706 28.8193C9.15019 28.7647 9.27098 28.6844 9.37233 28.5831C9.47369 28.4817 9.55359 28.3614 9.60734 28.2292C9.66109 28.097 9.68763 27.9554 9.68539 27.8129C9.68315 27.6704 9.65219 27.5298 9.59431 27.3993C9.53643 27.2688 9.45279 27.151 9.3483 27.0528L6.09757 23.8386C5.98272 23.7268 5.84409 23.6417 5.69179 23.5896C5.53949 23.5375 5.37734 23.5196 5.21717 23.5373C4.97451 23.5632 4.74781 23.6694 4.57379 23.8386L1.32306 27.0528C1.21857 27.151 1.13494 27.2688 1.07706 27.3993C1.01917 27.5298 0.988209 27.6704 0.98597 27.8129C0.983732 27.9554 1.01027 28.097 1.06402 28.2292C1.11778 28.3614 1.19767 28.4817 1.29903 28.5831C1.40039 28.6844 1.52117 28.7647 1.65431 28.8193C1.78744 28.8739 1.93026 28.9017 2.0744 28.9011C2.21853 28.9004 2.36109 28.8714 2.49373 28.8156C2.62636 28.7598 2.74641 28.6784 2.84684 28.5762L4.28597 27.1532C4.77571 37.3629 13.3112 45.501 23.7565 45.501C34.5156 45.501 43.2609 36.854 43.2609 26.2158C43.2609 21.2794 41.3766 16.7729 38.2832 13.359L41.3646 10.3122L44.1244 13.0409C44.2248 13.143 44.3448 13.2243 44.4775 13.2801C44.6101 13.3358 44.7526 13.3648 44.8967 13.3654C45.0408 13.366 45.1836 13.3382 45.3167 13.2836C45.4498 13.229 45.5705 13.1487 45.6718 13.0474C45.7732 12.9461 45.853 12.8258 45.9068 12.6937C45.9605 12.5615 45.9871 12.42 45.9849 12.2775C45.9827 12.1351 45.9518 11.9945 45.8939 11.864C45.8361 11.7335 45.7525 11.6157 45.6481 11.5175L38.6049 4.55339C38.4916 4.43859 38.3536 4.3504 38.2013 4.29535C38.0489 4.2403 37.8859 4.21979 37.7245 4.23532C37.5179 4.25519 37.3215 4.33327 37.1585 4.4603C36.9956 4.58733 36.8729 4.75795 36.8052 4.95189C36.7374 5.14583 36.7274 5.35495 36.7763 5.55436C36.8252 5.75376 36.931 5.93509 37.0811 6.07679L39.8408 8.80551L36.7425 11.8523C33.5434 9.02244 29.4008 7.21254 24.8401 6.96404V2.64496H29.1744C29.318 2.64696 29.4605 2.62073 29.5938 2.56779C29.727 2.51485 29.8483 2.43625 29.9505 2.33656C30.0528 2.23687 30.134 2.11809 30.1894 1.9871C30.2448 1.85611 30.2734 1.71554 30.2734 1.57355C30.2734 1.43157 30.2448 1.291 30.1894 1.16001C30.134 1.02902 30.0528 0.910236 29.9505 0.810548C29.8483 0.71086 29.727 0.63226 29.5938 0.579318C29.4605 0.526376 29.318 0.500146 29.1744 0.502154H18.3386C18.3048 0.500584 18.2709 0.500584 18.237 0.502154ZM23.638 16.0207C23.3687 16.05 23.1202 16.1779 22.9416 16.3793C22.7629 16.5808 22.6671 16.841 22.6729 17.1089V25.6801C22.6729 25.9642 22.7871 26.2367 22.9903 26.4376C23.1935 26.6386 23.4691 26.7514 23.7565 26.7515H32.4251C32.5687 26.7535 32.7113 26.7272 32.8445 26.6743C32.9777 26.6214 33.099 26.5428 33.2013 26.4431C33.3035 26.3434 33.3847 26.2246 33.4402 26.0936C33.4956 25.9626 33.5241 25.8221 33.5241 25.6801C33.5241 25.5381 33.4956 25.3975 33.4402 25.2665C33.3847 25.1355 33.3035 25.0167 33.2013 24.9171C33.099 24.8174 32.9777 24.7388 32.8445 24.6858C32.7113 24.6329 32.5687 24.6067 32.4251 24.6087H24.8401V17.1089C24.8434 16.9563 24.8137 16.8049 24.7531 16.6646C24.6924 16.5243 24.6022 16.3985 24.4884 16.2954C24.3746 16.1924 24.2399 16.1146 24.0932 16.0672C23.9465 16.0199 23.7913 16.004 23.638 16.0207Z" stroke="#18A2A2" stroke-width="0.8" mask="url(#path-1-outside-1)"/>
</svg>
