<svg width="53" height="46" viewBox="0 0 53 46" fill="none" xmlns="http://www.w3.org/2000/svg">
<path fill-rule="evenodd" clip-rule="evenodd" d="M5.34696 3.07241C3.92882 3.07241 2.77553 4.22569 2.77553 5.64383C2.77553 7.06198 3.92882 8.21526 5.34696 8.21526C6.7651 8.21526 7.91839 7.06198 7.91839 5.64383C7.91839 4.22569 6.7651 3.07241 5.34696 3.07241ZM5.34696 10.7867C2.51132 10.7867 0.204102 8.47948 0.204102 5.64383C0.204102 2.80819 2.51132 0.500977 5.34696 0.500977C8.1826 0.500977 10.4898 2.80819 10.4898 5.64383C10.4898 8.47948 8.1826 10.7867 5.34696 10.7867Z" fill="#18A2A2"/>
<path fill-rule="evenodd" clip-rule="evenodd" d="M46.49 37.7863C45.0719 37.7863 43.9186 38.9396 43.9186 40.3577C43.9186 41.7758 45.0719 42.9291 46.49 42.9291C47.9082 42.9291 49.0615 41.7758 49.0615 40.3577C49.0615 38.9396 47.9082 37.7863 46.49 37.7863ZM46.49 45.5006C43.6544 45.5006 41.3472 43.1933 41.3472 40.3577C41.3472 37.5221 43.6544 35.2148 46.49 35.2148C49.3257 35.2148 51.6329 37.5221 51.6329 40.3577C51.6329 43.1933 49.3257 45.5006 46.49 45.5006Z" fill="#18A2A2"/>
<path fill-rule="evenodd" clip-rule="evenodd" d="M35.12 41.6431H9.84267C4.88238 41.6431 0.847168 37.606 0.847168 32.6431V30.7146C0.847168 25.7517 4.88367 21.7146 9.8446 21.7146H22.0627H31.7043H43.2751C46.8205 21.7146 49.7043 18.8307 49.7043 15.286V13.3574C49.7043 9.81271 46.8217 6.92885 43.2777 6.92885H13.705C12.9952 6.92885 12.4192 6.35285 12.4192 5.64314C12.4192 4.93342 12.9952 4.35742 13.705 4.35742H43.2777C48.2399 4.35742 52.2757 8.39457 52.2757 13.3574V15.286C52.2757 20.2489 48.2386 24.286 43.2751 24.286H31.7043H22.0627H9.8446C6.30117 24.286 3.4186 27.1699 3.4186 30.7146V32.6431C3.4186 36.1879 6.30053 39.0717 9.84267 39.0717H35.1201L33.6824 37.6338C33.1784 37.1291 33.1733 36.3178 33.6786 35.8113C34.1807 35.3092 34.9977 35.3124 35.5011 35.8151L39.13 39.4447L39.1319 39.4466L39.1339 39.4486C39.2554 39.5701 39.346 39.7108 39.4084 39.8606C39.4097 39.8645 39.4122 39.8677 39.4142 39.8709C39.4283 39.9056 39.4347 39.9403 39.4457 39.9757C39.5839 40.4173 39.4855 40.9149 39.1339 41.2666L39.1319 41.2685L39.13 41.2704L35.5011 44.8993C34.9964 45.4033 34.1839 45.4085 33.6786 44.9032C33.1765 44.4011 33.1797 43.5834 33.6824 43.0807L35.12 41.6431Z" fill="#18A2A2"/>
</svg>
