<svg width="261" height="213" viewBox="0 0 261 213" fill="none" xmlns="http://www.w3.org/2000/svg">
<g opacity="0.7" filter="url(#filter0_f)">
<ellipse cx="99.6863" cy="193.79" rx="89.5" ry="9.16691" fill="url(#paint0_linear)" fill-opacity="0.4"/>
</g>
<g filter="url(#filter1_f)">
<ellipse cx="101.902" cy="189.646" rx="61.8059" ry="3.91368" fill="#F5F5F5"/>
</g>
<g clip-path="url(#clip0)">
<g opacity="0.8">
<path opacity="0.8" d="M175.35 44.1245C171.608 37.9587 167.186 32.2323 162.165 27.0529L160.268 25.1348L158.281 23.3057C156.98 22.0596 155.551 20.956 154.165 19.7944C153.47 19.2203 152.727 18.7041 152.005 18.1522L150.914 17.3423L150.366 16.9373L149.8 16.559C148.286 15.5577 146.785 14.5163 145.186 13.6262C144.402 13.1812 143.627 12.7006 142.829 12.2644L140.415 11.0317L139.203 10.4086L137.965 9.84344L135.48 8.71307C134.642 8.35704 133.792 8.03661 132.945 7.69839C132.099 7.36016 131.262 7.00858 130.388 6.73266C128.66 6.15856 126.945 5.53551 125.181 5.07713C118.18 3.06634 110.96 1.91413 103.681 1.64591C96.1657 1.34324 88.6426 1.99977 81.2938 3.59961L78.5455 4.22267L75.8284 4.97032L74.4921 5.3486L73.1559 5.79364L70.4833 6.68371L67.8509 7.69393L66.5146 8.20128C66.0692 8.38374 65.6505 8.57955 65.2229 8.76647L62.6394 9.90576C61.7931 10.3152 60.9557 10.7424 60.1094 11.1652L58.8266 11.7705C58.4079 11.9885 58.0025 12.2155 57.5927 12.4558L55.1295 13.8532C54.3233 14.3428 53.5305 14.859 52.7287 15.3619L51.5305 16.1229C51.1341 16.381 50.7555 16.6614 50.3635 16.9329L48.0473 18.5706C47.2901 19.1358 46.5506 19.7321 45.8202 20.3107L44.7021 21.2007C44.3324 21.4945 43.9805 21.8149 43.6198 22.122L41.455 23.9377C40.7557 24.5741 40.0786 25.2372 39.3882 25.887L38.3593 26.866C38.0163 27.1954 37.7001 27.5469 37.3705 27.8852L35.4106 29.9368C34.7736 30.6355 34.1634 31.3564 33.5398 32.0685L32.6089 33.1366C32.2971 33.4926 32.0165 33.8709 31.718 34.2403L29.9586 36.4654C29.384 37.2131 28.8495 37.9919 28.2927 38.7529C27.7359 39.5139 27.1791 40.2749 26.6803 41.076L25.1346 43.4391C24.6224 44.2313 24.1725 45.0546 23.687 45.8601C22.6982 47.4622 21.8608 49.1489 20.9788 50.8089C20.7517 51.2228 20.5334 51.6456 20.3552 52.0728L19.7583 53.35L19.1838 54.6451C18.9833 55.0901 18.7873 55.4951 18.6136 55.9357C17.9143 57.6802 17.1526 59.4025 16.5691 61.1916C16.2618 62.0816 15.9366 62.9717 15.6471 63.8618L14.8498 66.5676L14.4533 67.9027L14.1193 69.2734L13.4645 72.0237C13.2596 72.9449 13.1082 73.8751 12.93 74.8007L12.6761 76.1937L12.5514 76.8924L12.4578 77.5956C12.2218 79.4691 11.9233 81.3383 11.8209 83.2297C11.7496 84.1732 11.6694 85.1166 11.6115 86.0601L11.5403 88.8994L11.5046 90.3191C11.5046 90.7908 11.5046 91.267 11.5358 91.7388L11.6115 94.5825C11.8048 98.3744 12.2407 102.15 12.9166 105.886L13.1705 107.288L13.2952 107.987L13.4556 108.681L14.097 111.458C14.293 112.388 14.587 113.292 14.832 114.209C15.0769 115.125 15.3264 116.06 15.6204 116.95C16.2306 118.73 16.7918 120.559 17.5179 122.317C17.8698 123.207 18.186 124.097 18.5735 124.961L19.7316 127.56C20.1013 128.45 20.5468 129.273 20.9699 130.119C21.3931 130.964 21.8073 131.819 22.2705 132.651C23.2148 134.297 24.1057 135.975 25.1525 137.546C27.1687 140.763 29.3869 143.849 31.7937 146.785C33.0409 148.218 34.2302 149.7 35.562 151.053C36.2168 151.738 36.8538 152.441 37.5263 153.114L39.5753 155.089C40.2479 155.761 40.965 156.38 41.6822 157.008C42.3993 157.635 43.1031 158.267 43.8336 158.872L46.0607 160.652C46.4349 160.946 46.8001 161.249 47.1832 161.542L48.3413 162.375C49.1163 162.927 49.8824 163.492 50.6619 164.035L53.0494 165.592L54.2476 166.367L55.477 167.088L57.9357 168.53L60.4613 169.865L61.7263 170.523C62.1717 170.732 62.5859 170.928 63.018 171.129L65.6059 172.326C66.4968 172.704 67.3876 173.047 68.2473 173.407C69.9978 174.155 71.8107 174.742 73.5924 175.361C74.0378 175.525 74.4833 175.659 74.9554 175.806L76.3273 176.202C77.2449 176.456 78.1491 176.754 79.0756 176.967L81.855 177.617C82.3005 177.719 82.7815 177.844 83.2492 177.924L84.6523 178.178L87.4629 178.676L90.2958 179.032L91.8682 179.224C92.3938 179.282 92.9194 179.308 93.4494 179.348L96.612 179.571L99.7789 179.633C100.309 179.633 100.835 179.66 101.365 179.633L102.95 179.584C107.176 179.478 111.388 179.06 115.551 178.334L118.669 177.755C119.698 177.528 120.723 177.274 121.752 177.034C122.264 176.91 122.781 176.798 123.288 176.656L124.807 176.211L126.326 175.766C126.834 175.619 127.342 175.476 127.836 175.298L130.829 174.275C131.827 173.937 132.794 173.514 133.778 173.136L135.248 172.553C135.734 172.348 136.21 172.108 136.691 171.907C137.649 171.462 138.62 171.053 139.569 170.572C146.115 167.402 152.258 163.461 157.867 158.832C163.393 154.246 168.284 148.945 172.41 143.069C173.082 142.063 172.566 142.419 171.88 143.425C167.849 148.97 163.111 153.965 157.787 158.285C157.141 158.85 156.45 159.353 155.76 159.874L153.733 161.453L151.604 162.909C150.891 163.389 150.197 163.888 149.453 164.324C147.987 165.214 146.544 166.153 145.03 166.954L142.803 168.2L140.504 169.348C138.923 170.181 137.266 170.857 135.64 171.6C134.825 171.974 133.979 172.268 133.15 172.606C132.322 172.944 131.489 173.282 130.638 173.567C128.936 174.128 127.253 174.769 125.516 175.232L122.923 175.979L120.295 176.585C118.554 177.03 116.772 177.306 115.004 177.648C114.558 177.737 114.113 177.8 113.667 177.857L112.331 178.04C111.44 178.151 110.549 178.298 109.658 178.378L106.986 178.601L105.65 178.707L104.313 178.752L101.641 178.832C100.75 178.832 99.8591 178.805 98.9682 178.796C95.2327 178.709 91.5061 178.39 87.8104 177.84L85.0576 177.35C84.1401 177.181 83.2225 177.034 82.3183 176.807C80.5054 176.362 78.6836 175.988 76.9019 175.436C76.0111 175.169 75.1202 174.934 74.2294 174.644L71.588 173.754L70.2517 173.309L68.9555 172.788L66.2919 171.689C62.8682 170.207 59.5377 168.519 56.3188 166.634C54.6886 165.744 53.1385 164.68 51.5706 163.67L50.9826 163.287L50.4125 162.878L49.2767 162.063L48.1364 161.271C47.7533 161 47.3791 160.728 47.0139 160.43C45.5529 159.264 44.0652 158.138 42.6799 156.87C41.9806 156.247 41.259 155.655 40.5864 155.009L38.5642 153.069C37.8782 152.433 37.2279 151.734 36.6043 151.066C35.9807 150.399 35.3081 149.731 34.6935 149.019C33.4863 147.595 32.2258 146.215 31.1301 144.716C30.5599 143.977 29.9764 143.247 29.4241 142.491L27.8161 140.203C27.5533 139.82 27.2727 139.446 27.0232 139.055L26.2749 137.876C25.7805 137.088 25.2727 136.305 24.7872 135.508C17.1256 122.639 12.8802 108.028 12.4534 93.0605C12.4534 92.1304 12.4044 91.2003 12.3955 90.2746L12.4712 87.4887L12.5113 86.0957C12.538 85.6507 12.5781 85.17 12.6137 84.7072L12.8365 81.9346C12.9122 81.0134 13.0636 80.0966 13.175 79.1754L13.3576 77.8003C13.4155 77.3552 13.4779 76.8835 13.567 76.4296L14.0658 73.7015C14.1549 73.2565 14.2217 72.8114 14.3286 72.3397L14.6493 71.0046C16.2806 63.7742 18.8282 56.7811 22.2305 50.1948C22.6759 49.3803 23.0723 48.5615 23.5133 47.756L24.9075 45.375L25.6068 44.1868L26.3595 43.0341L27.8695 40.7289C29.9664 37.7068 32.2468 34.8161 34.6979 32.0729C39.591 26.5816 45.1531 21.7241 51.2543 17.6138C51.9982 17.0753 52.7911 16.608 53.5661 16.114C54.3411 15.62 55.1117 15.1171 55.9135 14.6632C57.5215 13.7731 59.0938 12.8074 60.7553 11.993C64.0366 10.3089 67.416 8.82278 70.8753 7.54262L73.4944 6.65255L74.8039 6.20752L76.1402 5.82034L78.8128 5.05488L81.4853 4.41403L82.8216 4.09806C83.267 3.9957 83.7124 3.92448 84.1579 3.83548L86.8794 3.33705C87.7703 3.18128 88.7057 3.08338 89.6143 2.95432C90.523 2.82525 91.4361 2.69174 92.3582 2.63389L95.4138 2.38467C96.4338 2.30456 97.4583 2.30456 98.4783 2.26451L100.011 2.21556C100.523 2.21556 101.035 2.21556 101.543 2.21556L104.612 2.26896L107.672 2.46922L109.204 2.57158L110.727 2.7496L113.774 3.11453L116.799 3.62187C117.302 3.71087 117.81 3.78208 118.309 3.88889L119.81 4.21821C120.807 4.44518 121.814 4.66325 122.803 4.89911C124.776 5.45096 126.767 5.9405 128.696 6.62585L130.152 7.11094C130.638 7.2667 131.123 7.43582 131.6 7.62718L134.464 8.73977C134.945 8.91778 135.413 9.1314 135.876 9.34057L137.279 9.96805C138.215 10.3864 139.154 10.8003 140.054 11.3032L142.794 12.7139L145.466 14.2671C145.912 14.5297 146.357 14.7789 146.802 15.0593L148.085 15.9048L149.364 16.7504C149.809 17.0308 150.219 17.3111 150.624 17.6405L153.087 19.4607C153.502 19.7588 153.894 20.0837 154.29 20.4086L155.47 21.3788L156.651 22.3489C157.043 22.6738 157.412 23.0254 157.791 23.3636L160.049 25.4197C162.972 28.2477 165.723 31.2465 168.29 34.4005C168.931 35.1882 169.532 36.0115 170.156 36.8126L171.087 38.023L171.978 39.2736C172.557 40.1103 173.167 40.9291 173.724 41.7836L175.385 44.3604C175.973 45.2326 175.933 45.0546 175.35 44.1245Z" fill="#FF945C"/>
</g>
<g opacity="0.8">
<path opacity="0.8" d="M178.687 46.0199C172.358 34.6759 163.302 24.903 152.626 17.3107L150.211 15.6774L149.004 14.863L147.761 14.1064L145.276 12.5933L142.719 11.2003L141.441 10.5016L140.131 9.86524L137.512 8.59688L134.84 7.45314L133.503 6.8835C133.058 6.69658 132.613 6.54527 132.14 6.37171C124.869 3.59463 117.259 1.79866 109.513 1.03129L106.604 0.768725C105.633 0.719771 104.658 0.693065 103.687 0.653011L102.226 0.599609C101.74 0.599609 101.25 0.599609 100.765 0.599609L97.8428 0.648563C93.9462 0.80385 90.064 1.21566 86.2216 1.88131C84.2929 2.17058 82.3999 2.62452 80.4979 3.04285C80.0213 3.14076 79.5492 3.26092 79.0815 3.39443L77.6739 3.77716C76.7385 4.04419 75.7898 4.2578 74.8678 4.57822L72.0928 5.46829C71.6473 5.6107 71.1707 5.77536 70.7164 5.94892L69.3534 6.45627C67.5182 7.09712 65.7455 7.88929 63.9593 8.64585C60.4158 10.2162 56.9708 11.9996 53.6433 13.9863C51.9551 14.9431 50.3605 16.0379 48.7436 17.1015C47.9329 17.6311 47.1668 18.2274 46.3784 18.7882C45.59 19.3489 44.7971 19.9097 44.0533 20.5327L41.786 22.3529C41.0288 22.9582 40.3251 23.6257 39.5901 24.2621C38.1113 25.5171 36.7572 26.9323 35.363 28.2674C32.638 31.045 30.1079 34.0071 27.7908 37.1325C23.0424 43.5346 19.1868 50.5517 16.33 57.9913C14.9181 61.7098 13.7471 65.5153 12.8245 69.3842C12.3123 71.3067 11.9916 73.2649 11.6085 75.2141L11.4704 75.944L11.368 76.6828L11.1586 78.1558L10.9493 79.6289C10.878 80.1184 10.8067 80.6124 10.7711 81.1064C9.89411 89.0126 10.0438 96.9989 11.2165 104.867C11.7865 108.797 12.6198 112.685 13.7109 116.504C14.3078 118.4 14.8601 120.318 15.5862 122.17L16.1028 123.572C16.2721 124.039 16.4458 124.506 16.6507 124.96L17.8222 127.706C24.4204 142.263 34.7434 154.824 47.7503 164.123C48.5342 164.733 49.3761 165.258 50.1957 165.819L51.4295 166.651C51.8393 166.931 52.2535 167.207 52.6811 167.456C54.3782 168.485 56.0619 169.544 57.8303 170.456L59.1398 171.168L59.7946 171.524L60.4672 171.849L63.1397 173.144L63.8123 173.469L64.4983 173.758L65.8702 174.337L67.2421 174.915L67.928 175.205L68.6273 175.463C80.2789 179.924 92.7343 181.907 105.197 181.284C106.315 181.213 107.424 181.155 108.555 181.075L111.9 180.705C113.018 180.607 114.127 180.385 115.228 180.216L116.889 179.949C117.441 179.864 117.989 179.726 118.537 179.615C122.931 178.737 127.249 177.52 131.455 175.974C132.501 175.574 133.561 175.218 134.572 174.777L137.659 173.442C138.684 172.997 139.677 172.476 140.688 171.991C141.187 171.742 141.699 171.511 142.194 171.244L143.664 170.438C145.646 169.401 147.534 168.213 149.454 167.034C151.303 165.774 153.173 164.55 154.928 163.171C155.819 162.499 156.71 161.836 157.561 161.101C158.412 160.367 159.285 159.682 160.122 158.943L162.585 156.678C163.004 156.308 163.391 155.908 163.783 155.512L164.959 154.319C168.087 151.133 170.964 147.711 173.565 144.083C173.89 143.638 174.238 143.193 174.545 142.748L175.471 141.355L176.393 139.962C176.545 139.731 176.705 139.517 176.839 139.264L177.284 138.547L178.995 135.677C179.529 134.697 180.046 133.71 180.567 132.73C181.137 131.653 180.968 131.658 180.393 132.73L179.013 135.316C178.523 136.162 178.01 136.994 177.507 137.835L176.75 139.09C176.491 139.504 176.206 139.904 175.939 140.309L174.3 142.739C173.725 143.531 173.133 144.306 172.549 145.089L171.659 146.259C171.356 146.642 171.039 147.016 170.728 147.39L168.852 149.646L166.875 151.809L165.886 152.891L164.848 153.923L162.763 155.984L160.59 157.946C160.225 158.271 159.868 158.605 159.498 158.921L158.367 159.851C157.61 160.465 156.862 161.097 156.095 161.698L153.748 163.447C153.352 163.732 152.973 164.039 152.568 164.31L151.356 165.129C150.545 165.667 149.748 166.233 148.924 166.753C142.331 170.954 135.229 174.296 127.789 176.7L126.394 177.145L125.695 177.367L124.987 177.559L122.154 178.32L121.446 178.511L120.729 178.667L119.294 178.978L117.86 179.286L117.143 179.441L116.421 179.561L113.526 180.033L112.805 180.149L112.074 180.233L110.618 180.398L109.161 180.558C108.675 180.616 108.19 180.665 107.7 180.687L104.774 180.861C103.798 180.941 102.818 180.914 101.843 180.932C100.867 180.95 99.8873 180.972 98.9118 180.932C96.9608 180.834 95.0009 180.821 93.0589 180.594L90.1414 180.314L87.2416 179.895L85.794 179.686C85.313 179.606 84.8364 179.504 84.3553 179.41L81.4823 178.845C77.6674 177.999 73.9107 176.909 70.2353 175.583C51.6886 168.956 35.8663 156.368 25.2474 139.793C23.1718 136.546 21.296 133.175 19.6306 129.7C18.7398 127.982 18.0271 126.184 17.2431 124.417C16.869 123.527 16.5483 122.61 16.2008 121.711C15.8534 120.812 15.506 119.905 15.2254 118.979L14.3345 116.22C14.0494 115.294 13.8178 114.355 13.5595 113.42C13.0116 111.56 12.6686 109.655 12.2232 107.768C11.4844 103.966 11.0037 100.118 10.7845 96.2509C10.6286 94.3195 10.6508 92.3836 10.633 90.4655C10.6063 89.4998 10.6909 88.534 10.7177 87.5683C10.7444 86.6026 10.78 85.6369 10.8691 84.6711L11.1453 81.7873C11.1987 81.3067 11.2255 80.826 11.2967 80.3454L11.5061 78.9124L11.9515 76.0464L12.5172 73.207C14.0734 65.6326 16.5958 58.2889 20.0226 51.3558C20.4235 50.4658 20.9134 49.6246 21.3589 48.7702C21.8043 47.9157 22.2497 47.0568 22.7531 46.2201C23.7686 44.569 24.7129 42.8735 25.8309 41.2891C26.3788 40.4881 26.9 39.6737 27.4657 38.886L29.2028 36.5584C29.7685 35.7707 30.3876 35.0275 31.0068 34.2843C31.6259 33.5411 32.2272 32.7801 32.8686 32.0591C37.9759 26.2255 43.8145 21.0741 50.2402 16.7321C53.4215 14.553 56.736 12.5747 60.1643 10.8087C61.897 9.96314 63.6163 9.08642 65.4025 8.35656L66.7388 7.78248C67.1842 7.58666 67.6296 7.39975 68.075 7.23953L70.7832 6.2204C71.6741 5.85992 72.6094 5.60179 73.527 5.29472L74.9034 4.84969C75.3488 4.69837 75.821 4.55152 76.2887 4.43581C78.155 3.93737 80.0124 3.39443 81.9099 3.02505C85.6965 2.18865 89.5339 1.60142 93.3974 1.26716L96.5956 1.06245L97.3929 1.0135H98.1946H99.7937C101.927 0.94229 104.056 1.08025 106.19 1.1559C107.255 1.22266 108.315 1.33836 109.375 1.43182L110.965 1.57868L112.546 1.8012L115.709 2.24624L118.827 2.86039C119.348 2.9672 119.873 3.05175 120.39 3.18081L121.94 3.568C122.974 3.83502 124.016 4.06198 125.036 4.3646L128.096 5.29472L128.862 5.52615L129.615 5.79317L131.12 6.33611C133.143 7.01702 135.094 7.88928 137.067 8.70814C138.038 9.15318 138.996 9.62491 139.962 10.0788C140.443 10.3103 140.929 10.5239 141.405 10.7776L142.817 11.5386C150.172 15.4509 156.949 20.3618 162.955 26.1313C165.937 29.0344 168.724 32.1311 171.298 35.4013C172.514 37.0747 173.788 38.6901 174.861 40.4213L175.703 41.6986C175.984 42.1436 176.269 42.5486 176.518 42.9892L178.059 45.606C178.331 46.1195 178.651 46.6054 179.017 47.0568C179.2 47.1503 179.124 46.8521 178.687 46.0199Z" fill="#FF945C"/>
</g>
<path d="M179.617 52.3718L178.49 50.1066C178.089 49.3634 177.671 48.6335 177.261 47.8814C176.463 46.3905 175.541 44.9753 174.646 43.5423C174.201 42.8169 173.715 42.1315 173.234 41.4373L171.782 39.3545L170.236 37.343C169.715 36.6754 169.216 36.0079 168.655 35.3581C164.33 30.148 159.439 25.4343 154.072 21.3039C148.693 17.2132 142.865 13.7492 136.7 10.9791C135.943 10.6053 135.146 10.3116 134.366 9.99114L132.014 9.03876L129.618 8.2021C128.816 7.93508 128.028 7.6191 127.208 7.40103L124.772 6.68897C124.367 6.57326 123.961 6.44421 123.551 6.33741L122.318 6.04368L119.85 5.46513C119.026 5.26041 118.189 5.14026 117.356 4.9756C110.692 3.71613 103.911 3.18785 97.1333 3.40017C90.3494 3.66419 83.6209 4.73233 77.0891 6.58217L75.8598 6.9204L74.6482 7.31647L72.2251 8.10864C71.4144 8.36676 70.6305 8.70053 69.8332 8.99871C69.0359 9.29688 68.2385 9.59061 67.4546 9.92438C64.3124 11.2324 61.2474 12.7183 58.2744 14.3747C57.535 14.7975 56.7778 15.1847 56.0473 15.6342L53.8781 16.9693L52.7957 17.6457L51.7445 18.3711L49.6421 19.822C48.9427 20.307 48.2835 20.8455 47.602 21.3573C46.9205 21.8691 46.2346 22.3765 45.5887 22.9283L43.6377 24.5794C43.3126 24.8553 42.9829 25.1268 42.6667 25.4071L41.7313 26.2972L39.865 28.0417C39.2503 28.6336 38.6712 29.2567 38.0833 29.8664L37.1924 30.7832C36.894 31.0858 36.6 31.3973 36.3238 31.7222L34.6357 33.6403C34.3595 33.9652 34.0655 34.2722 33.7983 34.606L32.9921 35.5851L31.3974 37.5833C30.8852 38.2642 30.3952 38.9629 29.8964 39.6527C29.3975 40.3425 28.8764 41.019 28.4309 41.7444C24.6419 47.4165 21.5042 53.4969 19.077 59.8706C16.7035 66.2233 15.0947 72.8355 14.2842 79.5679C12.5811 93.0565 13.9827 106.756 18.3821 119.621C20.5696 126.034 23.5217 132.16 27.1748 137.867C28.9949 140.72 30.9758 143.468 33.1079 146.096L34.7604 148.019C35.3172 148.655 35.8472 149.314 36.4397 149.915C37.6111 151.129 38.7381 152.393 40.0031 153.533L41.8337 155.282L43.7402 156.946C44.9918 158.081 46.3415 159.096 47.6599 160.146C48.3102 160.68 48.9962 161.161 49.6911 161.65L51.7489 163.119L53.8736 164.494C54.5863 164.939 55.2767 165.428 56.0161 165.829C61.8049 169.281 67.9752 172.05 74.4032 174.08C80.8237 176.089 87.4531 177.358 94.1623 177.863C100.888 178.399 107.652 178.19 114.331 177.24C121.004 176.239 127.537 174.461 133.796 171.944C140.04 169.427 145.972 166.198 151.475 162.322C154.231 160.395 156.877 158.315 159.399 156.092C160.027 155.531 160.629 154.943 161.243 154.374C161.858 153.804 162.49 153.243 163.061 152.625C164.219 151.405 165.43 150.239 166.508 148.949C167.368 147.97 167.02 147.814 166.165 148.789L165.337 149.732C165.056 150.044 164.758 150.337 164.468 150.622L162.722 152.425C162.147 153.034 161.511 153.582 160.909 154.16C160.308 154.739 159.698 155.317 159.07 155.869C156.554 158.086 153.914 160.159 151.163 162.077C145.679 165.94 139.759 169.144 133.524 171.623C121.028 176.645 107.522 178.65 94.1044 177.476C90.7631 177.201 87.4396 176.742 84.1491 176.1L83.53 175.989L82.9153 175.847L81.6904 175.566L79.2406 175.001L76.8219 174.316C76.0201 174.075 75.2005 173.871 74.4121 173.599C68.0139 171.544 61.8763 168.753 56.123 165.282C50.3747 161.793 45.035 157.673 40.2035 152.999L39.3127 152.109C39.0142 151.815 38.7292 151.503 38.4218 151.218L36.6846 149.394C36.0967 148.793 35.5755 148.13 35.0188 147.502C34.462 146.875 33.9097 146.239 33.3841 145.584C31.2644 142.971 29.3025 140.233 27.5089 137.387C20.2663 126.021 15.9501 112.91 14.5916 99.5588C13.9691 92.8653 14.147 86.1214 15.1216 79.47C17.0443 66.1318 21.9131 53.3882 29.3752 42.1627C33.1317 36.5648 37.5412 31.4331 42.5108 26.8758C49.9826 20.0158 58.5682 14.4762 67.9 10.494C68.6795 10.1736 69.4724 9.87542 70.2563 9.56835C71.0403 9.26128 71.8198 8.93195 72.626 8.67828C74.234 8.16204 75.8152 7.57015 77.4544 7.15627C83.9507 5.31924 90.6411 4.25419 97.3872 3.98317C104.127 3.74846 110.871 4.26041 117.498 5.50963C130.745 7.93952 143.284 13.6849 153.996 21.7801C159.326 25.877 164.175 30.5633 168.45 35.7497C169.007 36.3772 169.493 37.0849 170.009 37.7257C170.526 38.3666 171.038 39.0608 171.537 39.7239L172.976 41.7889L173.693 42.8213C173.933 43.164 174.138 43.529 174.37 43.8805L175.706 46.0122L176.04 46.5463L176.348 47.0937L176.967 48.1885C177.372 48.9228 177.8 49.6437 178.192 50.3869L179.323 52.6344L179.893 53.7559C180.08 54.1163 180.401 53.8671 179.617 52.3718Z" fill="#FF945C"/>
<path d="M173.862 131.552C170.799 136.861 167.247 141.873 163.252 146.523C159.217 151.216 154.654 155.428 149.653 159.077L149.123 159.473L148.571 159.843L147.466 160.564L146.366 161.302C146.001 161.552 145.631 161.796 145.252 162.019C143.738 162.909 142.246 163.875 140.673 164.689C137.575 166.373 134.374 167.86 131.088 169.14C129.426 169.736 127.792 170.395 126.095 170.884C125.253 171.142 124.415 171.427 123.569 171.658L121.008 172.326C120.562 172.433 120.157 172.562 119.725 172.646L118.429 172.918C117.565 173.096 116.705 173.287 115.836 173.452L113.222 173.861L111.912 174.066L110.576 174.208C109.623 174.306 108.67 174.422 107.716 174.511L104.843 174.676C103.886 174.751 102.928 174.747 101.97 174.756C101.013 174.765 100.051 174.8 99.0929 174.756C97.1776 174.671 95.2578 174.636 93.3514 174.418L91.9171 174.289L91.2 174.222L90.4873 174.119L87.6366 173.714C83.8458 173.105 80.1014 172.237 76.4297 171.115C74.5812 170.604 72.7906 169.909 70.9821 169.273C70.0913 168.948 69.2004 168.548 68.3096 168.187C67.4187 167.827 66.5279 167.462 65.6771 167.03L63.0848 165.788C62.2385 165.343 61.4011 164.898 60.5637 164.422L59.3076 163.732L58.0871 162.98C57.2764 162.473 56.4568 161.988 55.6551 161.467C54.0916 160.372 52.4881 159.34 51.0004 158.143L49.8646 157.253L49.2989 156.808L48.751 156.363L46.5729 154.516C40.8629 149.462 35.8563 143.666 31.6868 137.284L30.8895 136.082C30.6222 135.682 30.3906 135.259 30.1411 134.85L28.6624 132.375C27.7715 130.675 26.8005 129.011 25.9898 127.253L25.4196 125.998L25.1078 125.348L24.8272 124.685L23.7003 122.015C23.3351 121.125 23.0277 120.212 22.6847 119.313L22.1814 117.978L21.736 116.603C20.5428 112.934 19.6169 109.182 18.9654 105.379L18.52 102.531C18.3908 101.579 18.3062 100.622 18.1993 99.6696L18.0479 98.241L17.9677 96.8036C17.9187 95.8467 17.8519 94.8899 17.8207 93.9331C17.8207 92.015 17.7539 90.0969 17.8831 88.1788L17.9454 86.7413C17.9454 86.2607 17.9766 85.7845 18.0345 85.3083L18.3018 82.4423L18.3686 81.7258L18.471 81.0137L18.6759 79.5896L18.8808 78.1655L18.9833 77.4535L19.1213 76.7458L19.6737 73.9199C19.7227 73.684 19.7627 73.4481 19.8162 73.2123L19.9899 72.5136L20.3374 71.1162C22.1813 63.6573 25.0598 56.4926 28.8895 49.8301C29.9006 48.2013 30.8494 46.5324 31.9719 44.9793L32.787 43.7955L33.1923 43.2036L33.6377 42.6295L35.3838 40.3465C35.9628 39.5854 36.6132 38.8778 37.2234 38.1213L38.1499 37.0265C38.4617 36.6616 38.8002 36.3233 39.1254 35.9718L41.0897 33.8801L43.152 31.8863C45.9285 29.255 48.8843 26.8193 51.9981 24.5967L53.1563 23.7511L54.35 22.9589C55.1518 22.4383 55.9402 21.8953 56.7464 21.388C58.3944 20.4178 60.0113 19.3942 61.7128 18.5219C75.2612 11.1981 90.5824 7.78643 105.961 8.66888C111.696 8.98948 117.385 9.86586 122.95 11.2857C128.526 12.6989 133.93 14.7196 139.065 17.3114C149.404 22.4941 158.551 29.7688 165.924 38.6731C169.614 43.1895 172.794 48.0982 175.408 53.3103C178.022 58.535 169.586 41.0496 158.423 30.5067L156.294 28.5708C155.947 28.2415 155.577 27.9344 155.203 27.6363L154.089 26.7462C152.633 25.4956 151.052 24.4098 149.524 23.2616C148.735 22.7231 147.929 22.2024 147.132 21.6728L145.934 20.8851L144.7 20.1552C143.871 19.6746 143.061 19.1672 142.223 18.7089L139.684 17.3738C138.847 16.9287 137.97 16.5326 137.105 16.1277L135.805 15.5224C135.359 15.3177 134.941 15.1174 134.491 14.9483L131.818 13.8713L131.155 13.6043L130.478 13.3684L129.141 12.8967C127.36 12.2247 125.507 11.7263 123.68 11.1789C123.235 11.032 122.758 10.9297 122.295 10.814L120.901 10.4757C119.97 10.2577 119.052 9.99508 118.108 9.83487C99.4547 5.86371 80.003 8.385 62.9813 16.9803C45.9597 25.5755 32.3915 39.7279 24.5288 57.0887L23.4242 59.7188C23.2415 60.1638 23.05 60.6089 22.8763 61.0539L22.3908 62.389C22.0701 63.2791 21.7315 64.1692 21.4242 65.0592L20.5868 67.7873C20.4532 68.2323 20.2973 68.6774 20.177 69.1536L19.8296 70.5376C19.6024 71.4633 19.353 72.3801 19.1392 73.3102L18.5824 76.1095C18.4933 76.5545 18.3864 77.0396 18.3107 77.5113L18.1013 78.9221C15.6922 94.0713 17.5315 109.591 23.4152 123.759C29.3782 137.956 39.1377 150.238 51.624 159.26C54.7118 161.509 57.9518 163.542 61.3209 165.343L62.5814 166.029C63.0001 166.256 63.4411 166.447 63.8687 166.661L66.4522 167.902L69.0713 169.019L70.4075 169.576L71.7438 170.065L74.4431 171.04L77.1914 171.881L78.5677 172.299L79.9619 172.646L82.7503 173.345L85.552 173.915L86.964 174.191L88.3849 174.395L91.2312 174.8L94.0908 175.063C98.1538 175.406 102.238 175.43 106.304 175.134L107.828 175.036L109.342 174.867C110.349 174.743 111.36 174.653 112.367 174.502L115.369 174.004L116.117 173.875L116.861 173.714L118.349 173.394L119.836 173.074C120.331 172.962 120.816 172.815 121.306 172.686C122.282 172.415 123.266 172.175 124.237 171.885L127.132 170.955L127.854 170.724L128.567 170.457L129.992 169.923L131.417 169.389C131.89 169.206 132.353 168.993 132.82 168.797C133.751 168.387 134.691 168.009 135.609 167.582L138.348 166.247C138.794 166.033 139.239 165.802 139.684 165.544L141.021 164.814L142.286 164.124C142.704 163.893 143.11 163.63 143.52 163.381L145.983 161.872C147.568 160.777 149.203 159.74 150.727 158.539L151.889 157.649L152.468 157.204L153.029 156.759L155.257 154.903C155.996 154.275 156.695 153.603 157.417 152.954L158.495 151.975L159.524 150.946C162.283 148.233 164.856 145.337 167.225 142.277L168.971 139.976C169.532 139.198 170.062 138.397 170.61 137.609L171.43 136.425L172.187 135.206C172.69 134.391 173.207 133.59 173.702 132.776C174.686 131.076 174.82 129.887 173.862 131.552Z" fill="#FF945C"/>
<g opacity="0.6">
<path opacity="0.6" d="M174.526 56.2065L173.515 54.1015L172.401 52.041C166.598 41.2252 158.397 31.8786 148.424 24.7159C138.215 17.5063 126.304 12.9981 114.505 11.0311C108.033 9.94172 101.458 9.58938 94.9061 9.98077C94.0865 10.003 93.2714 10.0965 92.4562 10.1766L90.0064 10.4169L87.5744 10.7818C86.7637 10.902 85.9486 11.0132 85.1468 11.1957L82.7282 11.6853C82.3228 11.7609 81.922 11.8544 81.5255 11.9656L80.3273 12.2727C79.5345 12.4863 78.7238 12.6599 77.9398 12.9091L75.5791 13.6479C75.1871 13.7769 74.7862 13.8837 74.3987 14.0261L73.2361 14.4712L70.9066 15.339L68.626 16.2869L67.4813 16.7809C67.0982 16.9456 66.7329 17.1414 66.3588 17.3238L64.1317 18.4275C63.3833 18.7969 62.6707 19.2286 61.9402 19.6247L60.8489 20.2299L60.3055 20.5325L59.7754 20.8619L57.6552 22.197C56.9381 22.6198 56.2699 23.1182 55.5795 23.581C54.8891 24.0439 54.2032 24.5111 53.535 25.0051L51.5529 26.5138L50.564 27.2704L49.6108 28.0714L47.691 29.6468L45.8559 31.3202C44.6087 32.4061 43.4773 33.6166 42.2925 34.7647C41.9941 35.0496 41.7135 35.3522 41.4373 35.6548L40.6043 36.5671C40.0565 37.1813 39.4774 37.7687 38.9518 38.4051L37.375 40.3099C37.1167 40.6303 36.845 40.9374 36.5911 41.2667L35.8516 42.2547L34.3684 44.2306C33.8962 44.9071 33.4463 45.5969 32.9831 46.2778C32.0299 47.6129 31.2014 49.0593 30.3551 50.4656C29.9097 51.1598 29.5489 51.903 29.148 52.624L27.981 54.8047L26.9209 57.0298C26.5645 57.773 26.2038 58.5163 25.9009 59.2862C25.2728 60.8126 24.6091 62.3258 24.088 63.9012L23.2595 66.2421L22.5468 68.623C21.6231 71.763 20.8795 74.9532 20.3197 78.1779C20.1816 78.9834 20.0881 79.7978 19.9678 80.6078L19.7985 81.8227C19.7362 82.2277 19.6827 82.6327 19.656 83.0421L19.4422 85.4898C19.4066 85.8992 19.362 86.3042 19.3397 86.7137L19.2952 87.942L19.2017 90.403C19.2017 91.2219 19.2017 92.0452 19.2017 92.864V94.0968V94.7109L19.2418 95.3251L19.3932 97.7861C19.4244 98.6094 19.5268 99.4238 19.6204 100.243L19.8921 102.695L20.2885 105.134C20.4177 105.948 20.5379 106.762 20.7339 107.564L21.2462 109.971C21.3219 110.376 21.4243 110.772 21.5313 111.168L21.8475 112.357C22.0657 113.149 22.2484 113.95 22.4934 114.733L23.2372 117.083C23.3619 117.474 23.4778 117.866 23.6158 118.258L24.0613 119.415L24.9209 121.729C25.2327 122.49 25.5668 123.242 25.883 123.999C26.1993 124.755 26.5111 125.521 26.8897 126.251C27.6113 127.728 28.3017 129.223 29.1168 130.656C29.5177 131.377 29.8919 132.112 30.315 132.819L31.6023 134.929C31.8206 135.28 32.0477 135.636 32.2482 135.983L32.943 137.007L34.3283 139.068L35.8071 141.052C36.3015 141.711 36.7826 142.387 37.3215 143.011L38.8894 144.92L39.2814 145.396L39.6957 145.841L40.5197 146.758C41.0765 147.363 41.6021 147.995 42.1767 148.587L43.9049 150.367L44.7691 151.257L45.6599 152.094L47.4639 153.776C48.0786 154.323 48.7155 154.84 49.3436 155.378C49.9716 155.917 50.5863 156.464 51.25 156.949C56.4395 161.058 62.1263 164.497 68.1761 167.185C80.363 172.436 93.8638 174.893 107.097 173.896C108.759 173.82 110.402 173.589 112.055 173.402C112.883 173.326 113.699 173.162 114.518 173.028C115.338 172.895 116.157 172.761 116.977 172.61L119.413 172.076L120.634 171.813C121.039 171.715 121.436 171.6 121.841 171.493L124.304 170.799C125.106 170.576 125.89 170.296 126.683 170.051C129.844 169.027 132.942 167.819 135.961 166.433L138.188 165.333L139.306 164.786C139.671 164.595 140.032 164.386 140.397 164.19L142.571 162.988C143.293 162.583 143.983 162.125 144.691 161.698C147.507 159.954 150.219 158.048 152.811 155.988L154.718 154.39L155.671 153.593L156.589 152.752L158.415 151.066C159.016 150.496 159.582 149.886 160.165 149.286C164.812 144.582 168.844 139.31 172.165 133.594C172.526 132.998 172.847 132.38 173.127 131.742C173.283 131.297 173.296 131.097 173.207 131.088C173.118 131.079 172.927 131.288 172.61 131.684C172.172 132.268 171.768 132.877 171.403 133.509C167.788 139.554 163.422 145.118 158.41 150.069C155.89 152.535 153.212 154.835 150.393 156.953C149.016 158.053 147.524 159.001 146.081 160.011C145.346 160.496 144.584 160.941 143.854 161.408C143.123 161.876 142.357 162.338 141.573 162.743L139.248 164.016C138.464 164.421 137.662 164.795 136.87 165.182L135.68 165.761C135.284 165.952 134.87 166.112 134.464 166.29L132.028 167.332C131.204 167.652 130.375 167.95 129.547 168.262L128.304 168.707C127.89 168.854 127.462 168.978 127.043 169.112L124.518 169.913L121.961 170.594L120.683 170.932C120.237 171.034 119.819 171.119 119.391 171.212L116.803 171.764L114.193 172.209L112.888 172.423C112.442 172.485 111.997 172.525 111.574 172.579L108.946 172.877C108.055 172.948 107.186 172.993 106.309 173.055L104.973 173.139C104.527 173.171 104.082 173.139 103.636 173.171L100.995 173.211C93.9621 173.144 86.9662 172.184 80.1759 170.353C73.3962 168.465 66.8762 165.746 60.7643 162.258C54.6443 158.753 48.9905 154.492 43.9361 149.575C41.4035 147.117 39.0361 144.494 36.8494 141.724C35.7937 140.314 34.6935 138.934 33.7314 137.457C33.2459 136.722 32.7203 136.015 32.266 135.258L30.8941 132.971C30.4175 132.227 30.0344 131.44 29.6068 130.67L28.9832 129.508C28.7739 129.125 28.5645 128.738 28.3863 128.338C27.638 126.753 26.863 125.182 26.2305 123.549C24.8968 120.328 23.7792 117.021 22.8853 113.652C21.1149 106.926 20.171 100.009 20.0747 93.0554C20.0747 92.1653 20.0391 91.3109 20.0747 90.4431L20.1771 87.8307C20.1771 87.3857 20.2039 86.9406 20.2306 86.5268L20.3464 85.2272L20.5736 82.6238C21.405 75.6987 23.0818 68.9014 25.5668 62.3836L26.5645 59.9715L27.0634 58.7655L27.6247 57.5861L28.7382 55.2275C29.1391 54.4575 29.5578 53.6965 29.9676 52.9266C33.2925 46.7985 37.3814 41.1161 42.1366 36.0153C44.5227 33.469 47.073 31.0815 49.7712 28.868C51.1074 27.7243 52.5195 26.723 53.9092 25.6727C54.613 25.1564 55.3479 24.6936 56.065 24.1996C56.7822 23.7056 57.5037 23.2161 58.2565 22.7844L60.4836 21.4493C61.2364 21.0043 62.0114 20.6215 62.7731 20.2077C64.2831 19.3487 65.8911 18.6679 67.4367 17.9068C68.2251 17.5508 69.0358 17.2348 69.8287 16.8966L71.0269 16.3982C71.4233 16.2291 71.8375 16.1 72.2429 15.9531L74.6838 15.0631C75.5034 14.7871 76.3363 14.5513 77.1603 14.2931C83.7817 12.2982 90.6285 11.1453 97.5385 10.8619C100.994 10.7248 104.454 10.808 107.899 11.1112C111.342 11.4095 114.764 11.9208 118.144 12.6421C124.917 14.1267 131.477 16.4578 137.667 19.5802C139.177 20.4124 140.736 21.1645 142.197 22.0857C142.936 22.5307 143.689 22.9758 144.424 23.4208L146.589 24.8538C146.95 25.0941 147.319 25.2989 147.667 25.5748L148.713 26.3447C149.408 26.8609 150.121 27.3594 150.811 27.8845L152.834 29.5178C153.168 29.7937 153.515 30.0563 153.84 30.3411L154.811 31.2089C155.457 31.7875 158.228 34.382 159.533 35.6904C161.495 37.6388 163.319 39.7206 164.994 41.9209C166.383 43.7011 168.441 46.8742 168.441 46.8742C168.94 47.5818 169.377 48.325 169.822 49.0637C170.268 49.8025 170.713 50.5323 171.158 51.2889C171.969 52.8154 172.842 54.3062 173.555 55.8772C175.109 58.9479 175.238 57.5906 174.526 56.2065Z" fill="#FF945C"/>
</g>
<g opacity="0.7">
<path opacity="0.7" d="M178.579 128.178C175.771 134.218 172.257 139.905 168.112 145.121C163.923 150.384 159.112 155.121 153.782 159.228C152.477 160.292 151.079 161.231 149.707 162.21C149.03 162.713 148.304 163.14 147.6 163.599L145.466 164.934C142.577 166.659 139.594 168.222 136.531 169.616C124.235 175.268 110.765 177.902 97.2436 177.297C83.7222 176.692 70.5414 172.867 58.8 166.14C52.9719 162.825 47.5617 158.825 42.6845 154.226C37.8469 149.612 33.5275 144.485 29.8029 138.935C26.0975 133.357 23.0357 127.377 20.6761 121.111C20.3554 120.337 20.1104 119.54 19.8387 118.748L19.0414 116.372L18.3643 113.959C18.1416 113.154 17.8922 112.357 17.7274 111.538C17.3666 109.91 16.9479 108.29 16.694 106.643L16.2486 104.178L15.9368 101.694C15.6829 99.972 15.5982 98.232 15.4557 96.4963C15.3666 95.6285 15.38 94.7562 15.3488 93.884C15.3176 93.0117 15.2909 92.1439 15.282 91.2716C15.294 87.782 15.5081 84.296 15.9234 80.8311C16.0348 79.9677 16.1283 79.0999 16.2486 78.2321L16.694 75.6553C16.9523 73.9286 17.3978 72.2375 17.7719 70.5374C17.9456 69.683 18.2173 68.8508 18.4445 68.0096L19.1616 65.4952L19.999 63.0208C20.2752 62.1975 20.5514 61.3697 20.8899 60.5687L21.8565 58.161C22.0124 57.756 22.1861 57.3555 22.3731 56.9639L22.9166 55.7801C23.2863 54.9924 23.6248 54.1913 24.0257 53.4214L25.2328 51.1161C25.4377 50.7334 25.6292 50.3462 25.8386 49.9635L26.4978 48.842L27.8341 46.6168C28.2795 45.8825 28.7828 45.166 29.2594 44.4406C29.736 43.7152 30.1948 42.9809 30.7249 42.2911C31.7493 40.8937 32.7471 39.474 33.8651 38.1478C34.4175 37.4803 34.9386 36.786 35.5132 36.1363L37.2414 34.1915C37.531 33.871 37.8116 33.5373 38.11 33.2257L39.0009 32.2956L40.8182 30.4354L42.7202 28.6552C43.3527 28.0589 43.9807 27.4625 44.6533 26.9151C49.8928 22.3207 55.6528 18.3552 61.8155 15.0995L64.1406 13.8934L66.5192 12.8031C68.0916 12.0376 69.7352 11.468 71.3521 10.7915C72.1627 10.4666 72.9957 10.2174 73.8197 9.92372L75.058 9.50093C75.4678 9.35407 75.882 9.22055 76.3052 9.10929C77.9844 8.66426 79.6459 8.11687 81.3519 7.77419C87.9812 6.22876 94.7831 5.54813 101.588 5.74929C108.337 5.95748 115.044 6.89453 121.592 8.5441C122.006 8.63311 122.416 8.74437 122.821 8.86453L124.046 9.21166C124.861 9.44753 125.681 9.6567 126.491 9.91036L128.905 10.7159L130.113 11.1164C130.518 11.2499 130.905 11.419 131.302 11.5614L133.68 12.4782L134.277 12.7096L134.861 12.9678L136.028 13.484C136.803 13.8356 137.591 14.156 138.357 14.5298L140.638 15.6736C146.716 18.7601 152.374 22.6096 157.475 27.1288C158.776 28.2146 159.952 29.4385 161.176 30.6C161.488 30.8893 161.778 31.1964 162.067 31.4901L162.936 32.4158C163.506 33.0388 164.107 33.6352 164.66 34.2805L166.303 36.2119C166.575 36.5368 166.856 36.8528 167.123 37.1821L167.898 38.1879L169.452 40.195C169.947 40.8803 170.423 41.579 170.913 42.2688C171.916 43.6351 172.78 45.0904 173.697 46.5145C174.446 47.7828 174.775 50.1816 171.323 44.8456C170.918 44.1602 170.432 43.5105 169.987 42.8741L168.624 40.9159L167.15 39.069C166.664 38.4415 166.196 37.7962 165.666 37.1999C164.628 35.9983 163.64 34.7522 162.526 33.6174L160.896 31.8817C160.335 31.321 159.756 30.778 159.185 30.2307C154.607 25.8476 149.523 22.0246 144.041 18.8422C138.565 15.6637 132.77 13.0711 126.75 11.1075C120.752 9.1208 114.555 7.79706 108.269 7.16004C101.978 6.51783 95.6342 6.61044 89.3651 7.43597C82.7384 8.32404 76.2507 10.0451 70.0559 12.5583C68.488 13.1413 66.9825 13.8712 65.4547 14.5521C64.6841 14.8814 63.9536 15.2864 63.2275 15.6602C62.5015 16.034 61.7354 16.4168 61.0004 16.8084C58.0759 18.4176 55.2417 20.1855 52.5106 22.1043C49.7813 24.015 47.157 26.0711 44.6488 28.2636L42.7914 29.9592C42.1857 30.5288 41.5576 31.0762 40.9875 31.6859C39.8249 32.8786 38.6312 34.0401 37.5488 35.3085C33.0628 40.2622 29.2183 45.76 26.1058 51.6724C22.9932 57.6026 20.6206 63.8919 19.0414 70.3995C17.4896 76.905 16.6576 83.5611 16.5603 90.248C16.4471 97.1048 17.1544 103.95 18.6672 110.64C20.1619 117.356 22.509 123.854 25.6515 129.976C32.0258 142.313 41.3157 152.91 52.7155 160.848C53.4015 161.373 54.1453 161.814 54.8624 162.295C55.5796 162.775 56.2967 163.234 57.045 163.679L59.2722 164.992L60.3857 165.65L61.5305 166.251L63.8199 167.457C64.5905 167.844 65.3789 168.191 66.1584 168.561C67.7085 169.322 69.3209 169.94 70.9156 170.595C71.7084 170.937 72.528 171.204 73.3431 171.485L75.7885 172.339L78.2784 173.065C79.1114 173.3 79.9309 173.567 80.7817 173.75C82.4654 174.137 84.1402 174.587 85.8551 174.858L88.4118 175.303L90.9909 175.637C94.4442 176.062 97.9209 176.271 101.4 176.26L104.011 176.175C104.901 176.14 105.752 176.135 106.616 176.042C108.349 175.886 110.086 175.775 111.81 175.499C112.67 175.374 113.534 175.272 114.393 175.13L116.955 174.644L118.238 174.404L119.507 174.101L122.041 173.496C122.883 173.278 123.712 173.02 124.545 172.784C125.378 172.548 126.22 172.339 127.035 172.028C128.674 171.462 130.326 170.942 131.934 170.274C135.169 169.021 138.33 167.587 141.404 165.98C144.461 164.347 147.421 162.539 150.268 160.564C151.72 159.602 153.079 158.525 154.459 157.448C155.163 156.936 155.796 156.349 156.473 155.793C157.15 155.236 157.809 154.68 158.45 154.097L160.352 152.317C160.669 152.019 160.989 151.73 161.297 151.427L162.188 150.488L163.996 148.614L165.706 146.652C170.253 141.382 174.122 135.564 177.225 129.335C178.762 126.354 179.773 125.566 178.579 128.178Z" fill="#FF945C"/>
</g>
</g>
<path d="M62.4399 78.8076C69.3299 78.8076 72.7749 81.4336 72.7749 86.6856C72.7749 88.9996 71.9559 90.8976 70.3179 92.3796C68.7059 93.8616 66.7819 94.6026 64.5459 94.6026C62.3099 94.6026 60.4119 94.2386 58.8519 93.5106V97.2936C58.8519 100.076 58.9299 101.974 59.0859 102.988C59.2679 104.002 59.5149 104.639 59.8269 104.899C60.4249 105.393 61.3739 105.64 62.6739 105.64L62.7519 106.108H52.2219L52.2999 105.64C53.5999 105.64 54.5489 105.393 55.1469 104.899C55.7969 104.353 56.1219 101.818 56.1219 97.2936V87.6216C56.1219 84.8396 56.0309 82.9416 55.8489 81.9276C55.6929 80.9136 55.4589 80.2766 55.1469 80.0166C54.5489 79.5226 53.5999 79.2756 52.2999 79.2756L52.2219 78.8076H62.4399ZM58.8519 79.7046V92.5356C60.2039 93.2636 61.7899 93.6276 63.6099 93.6276C65.4559 93.6276 66.9379 93.0556 68.0559 91.9116C69.1739 90.7416 69.7329 88.9996 69.7329 86.6856C69.7329 83.7996 68.7969 81.8756 66.9249 80.9136C65.3909 80.1076 63.5449 79.7046 61.3869 79.7046H58.8519Z" fill="#282828"/>
<path d="M87.8944 87.0756C88.5444 87.0756 89.1164 87.2186 89.6104 87.5046C90.1044 87.7906 90.3514 88.1806 90.3514 88.6746C90.3514 89.1686 90.1954 89.5586 89.8834 89.8446C89.5714 90.1306 89.2204 90.2736 88.8304 90.2736C88.4404 90.2736 87.9464 90.1046 87.3484 89.7666C86.7764 89.4286 86.1654 89.2596 85.5154 89.2596C84.5014 89.2596 83.6694 90.1956 83.0194 92.0676C82.3954 93.9396 82.0834 96.1106 82.0834 98.5806C82.0834 101.909 82.2524 103.924 82.5904 104.626C82.6944 104.86 82.8894 105.081 83.1754 105.289C83.4614 105.471 83.7604 105.575 84.0724 105.601C84.3844 105.627 84.8264 105.64 85.3984 105.64L85.4764 106.108H75.9994L76.0774 105.64C76.9094 105.64 77.5074 105.601 77.8714 105.523C78.2614 105.419 78.5864 105.094 78.8464 104.548C79.1064 104.002 79.2494 103.326 79.2754 102.52C79.3274 101.688 79.3534 100.375 79.3534 98.5806V96.3186C79.3534 92.7046 79.2494 90.6506 79.0414 90.1566C78.8594 89.6626 78.6904 89.2726 78.5344 88.9866C78.3784 88.7006 78.1444 88.5056 77.8324 88.4016C77.2604 88.2456 76.5064 88.1676 75.5704 88.1676L75.4924 87.7386C77.7024 87.4266 79.8994 87.2706 82.0834 87.2706V93.0036C82.3694 91.1576 83.0064 89.7146 83.9944 88.6746C85.0084 87.6086 86.3084 87.0756 87.8944 87.0756Z" fill="#282828"/>
<path d="M92.3158 96.9036C92.3158 94.1736 93.0958 91.8856 94.6558 90.0396C96.2158 88.1936 98.3348 87.2706 101.013 87.2706C103.691 87.2706 105.849 88.1936 107.487 90.0396C109.125 91.8856 109.944 94.1736 109.944 96.9036C109.944 99.6336 109.151 101.922 107.565 103.768C106.005 105.588 103.886 106.498 101.208 106.498C98.5298 106.498 96.3718 105.575 94.7338 103.729C93.1218 101.883 92.3158 99.6076 92.3158 96.9036ZM96.8008 103.222C97.8408 104.886 99.3098 105.718 101.208 105.718C103.106 105.718 104.536 104.899 105.498 103.261C106.486 101.623 106.98 99.5166 106.98 96.9426C106.98 94.3426 106.46 92.2106 105.42 90.5466C104.38 88.8826 102.911 88.0506 101.013 88.0506C99.1408 88.0506 97.7108 88.8826 96.7228 90.5466C95.7608 92.1846 95.2798 94.2906 95.2798 96.8646C95.2798 99.4386 95.7868 101.558 96.8008 103.222Z" fill="#282828"/>
<path d="M119.157 87.6606H123.954V88.5186H119.157V103.378C119.157 103.924 119.287 104.366 119.547 104.704C119.807 105.016 120.145 105.172 120.561 105.172C121.497 105.172 122.602 104.899 123.876 104.353L123.954 104.782C122.134 105.926 120.522 106.498 119.118 106.498C118.208 106.498 117.532 106.277 117.09 105.835C116.648 105.393 116.427 104.626 116.427 103.534V88.5186H114.087V87.6606C115.491 87.6606 116.466 87.2706 117.012 86.4906C117.584 85.6846 118.013 84.5016 118.299 82.9416L119.157 82.8636V87.6606Z" fill="#282828"/>
<path d="M127.087 96.9036C127.087 94.1736 127.867 91.8856 129.427 90.0396C130.987 88.1936 133.106 87.2706 135.784 87.2706C138.462 87.2706 140.62 88.1936 142.258 90.0396C143.896 91.8856 144.715 94.1736 144.715 96.9036C144.715 99.6336 143.922 101.922 142.336 103.768C140.776 105.588 138.657 106.498 135.979 106.498C133.301 106.498 131.143 105.575 129.505 103.729C127.893 101.883 127.087 99.6076 127.087 96.9036ZM131.572 103.222C132.612 104.886 134.081 105.718 135.979 105.718C137.877 105.718 139.307 104.899 140.269 103.261C141.257 101.623 141.751 99.5166 141.751 96.9426C141.751 94.3426 141.231 92.2106 140.191 90.5466C139.151 88.8826 137.682 88.0506 135.784 88.0506C133.912 88.0506 132.482 88.8826 131.494 90.5466C130.532 92.1846 130.051 94.2906 130.051 96.8646C130.051 99.4386 130.558 101.558 131.572 103.222Z" fill="#282828"/>
<path d="M153.928 87.6606H158.725V88.5186H153.928V103.378C153.928 103.924 154.058 104.366 154.318 104.704C154.578 105.016 154.916 105.172 155.332 105.172C156.268 105.172 157.373 104.899 158.647 104.353L158.725 104.782C156.905 105.926 155.293 106.498 153.889 106.498C152.979 106.498 152.303 106.277 151.861 105.835C151.419 105.393 151.198 104.626 151.198 103.534V88.5186H148.858V87.6606C150.262 87.6606 151.237 87.2706 151.783 86.4906C152.355 85.6846 152.784 84.5016 153.07 82.9416L153.928 82.8636V87.6606Z" fill="#282828"/>
<path d="M164.081 114.298C165.381 114.298 166.46 113.791 167.318 112.777C168.202 111.789 169.099 110.177 170.009 107.941L164.198 93.2766C163.34 91.0926 162.56 89.6886 161.858 89.0646C161.182 88.4406 160.363 88.1286 159.401 88.1286L159.323 87.6606H168.995L168.917 88.1286C168.007 88.1286 167.37 88.2716 167.006 88.5576C166.668 88.8436 166.499 89.2856 166.499 89.8836C166.499 91.0796 167.11 93.2116 168.332 96.2796L171.335 103.846L174.377 94.4856C174.975 92.6136 175.274 91.1966 175.274 90.2346C175.274 88.8306 174.364 88.1286 172.544 88.1286L172.466 87.6606H179.798L179.72 88.1286C178.654 88.1286 177.9 88.4796 177.458 89.1816C177.042 89.8576 176.249 91.9766 175.079 95.5386L171.569 106.225C170.425 109.735 169.086 112.439 167.552 114.337C166.018 116.235 164.419 117.184 162.755 117.184C162.001 117.184 161.377 117.028 160.883 116.716C160.389 116.43 160.142 116.014 160.142 115.468C160.142 114.948 160.298 114.532 160.61 114.22C160.948 113.934 161.299 113.791 161.663 113.791C162.053 113.791 162.482 113.869 162.95 114.025C163.418 114.207 163.795 114.298 164.081 114.298Z" fill="#282828"/>
<path d="M187.598 92.3796C188.04 90.9496 188.742 89.7406 189.704 88.7526C190.692 87.7646 192.005 87.2706 193.643 87.2706C195.307 87.2706 196.698 87.7776 197.816 88.7916C199.844 90.5856 200.858 93.3026 200.858 96.9426C200.858 99.6726 200.026 101.948 198.362 103.768C196.698 105.588 194.592 106.498 192.044 106.498C190.198 106.498 188.716 106.147 187.598 105.445V110.047C187.598 111.607 187.611 112.738 187.637 113.44C187.689 114.142 187.832 114.74 188.066 115.234C188.326 115.754 188.651 116.066 189.041 116.17C189.457 116.274 190.081 116.326 190.913 116.326L190.991 116.794H181.553L181.631 116.326C183.139 116.326 184.049 115.988 184.361 115.312C184.699 114.662 184.868 112.907 184.868 110.047V93.5886C184.868 92.1846 184.842 91.1836 184.79 90.5856C184.764 89.9876 184.621 89.4676 184.361 89.0256C184.127 88.5836 183.815 88.3366 183.425 88.2846C183.061 88.2066 182.463 88.1676 181.631 88.1676L181.553 87.7386C183.399 87.4266 185.414 87.2706 187.598 87.2706V92.3796ZM191.537 105.367C193.929 105.367 195.606 104.47 196.568 102.676C197.452 101.038 197.894 99.1266 197.894 96.9426C197.894 94.9926 197.608 93.1856 197.036 91.5216C196.698 90.6116 196.178 89.8836 195.476 89.3376C194.774 88.7656 193.929 88.4796 192.941 88.4796C191.979 88.4796 191.121 88.8306 190.367 89.5326C189.613 90.2086 189.054 91.0536 188.69 92.0676C187.962 94.0956 187.598 95.8116 187.598 97.2156V103.3C188.404 104.678 189.717 105.367 191.537 105.367Z" fill="#282828"/>
<path d="M207.978 82.5906C207.536 82.1486 207.315 81.6286 207.315 81.0306C207.315 80.4326 207.536 79.9126 207.978 79.4706C208.42 79.0286 208.94 78.8076 209.538 78.8076C210.136 78.8076 210.656 79.0286 211.098 79.4706C211.54 79.9126 211.761 80.4326 211.761 81.0306C211.761 81.6286 211.54 82.1486 211.098 82.5906C210.656 83.0326 210.136 83.2536 209.538 83.2536C208.94 83.2536 208.42 83.0326 207.978 82.5906ZM211.02 87.2706V99.6726C211.02 102.403 211.176 104.08 211.488 104.704C211.826 105.328 212.762 105.64 214.296 105.64L214.374 106.108H204.858L204.936 105.64C206.496 105.64 207.445 105.328 207.783 104.704C208.121 104.054 208.29 102.351 208.29 99.5946V96.8646C208.29 93.8486 208.199 91.8596 208.017 90.8976C207.861 89.9096 207.627 89.2726 207.315 88.9866C206.691 88.4146 205.729 88.1286 204.429 88.1286L204.351 87.6996C206.613 87.4136 208.836 87.2706 211.02 87.2706Z" fill="#282828"/>
<path d="M224.178 87.2706V94.2516C224.412 92.3796 225.062 90.7546 226.128 89.3766C227.194 87.9726 228.611 87.2706 230.379 87.2706C234.357 87.2706 236.346 89.3506 236.346 93.5106V99.6726C236.346 102.377 236.515 104.054 236.853 104.704C237.217 105.328 238.153 105.64 239.661 105.64L239.739 106.108H230.262L230.34 105.64C231.9 105.64 232.836 105.315 233.148 104.665C233.46 104.015 233.616 102.234 233.616 99.3216V93.9006C233.616 92.1066 233.33 90.7546 232.758 89.8446C232.212 88.9346 231.328 88.4796 230.106 88.4796C228.91 88.4796 227.909 88.8956 227.103 89.7276C226.297 90.5336 225.699 91.5606 225.309 92.8086C224.555 95.2266 224.178 97.6576 224.178 100.102C224.178 102.546 224.334 104.08 224.646 104.704C224.984 105.328 225.92 105.64 227.454 105.64L227.532 106.108H218.016L218.094 105.64C219.654 105.64 220.603 105.328 220.941 104.704C221.279 104.054 221.448 102.351 221.448 99.5946V96.4746C221.448 92.5746 221.253 90.2216 220.863 89.4156C220.733 89.1296 220.499 88.8696 220.161 88.6356C219.849 88.4016 219.498 88.2586 219.108 88.2066C218.744 88.1546 218.237 88.1286 217.587 88.1286L217.509 87.6996C219.771 87.4136 221.994 87.2706 224.178 87.2706Z" fill="#282828"/>
<path d="M257.05 86.8416L256.816 84.8526C256.816 84.3586 256.959 83.9686 257.245 83.6826C257.557 83.3966 257.908 83.2536 258.298 83.2536C258.688 83.2536 259.026 83.3966 259.312 83.6826C259.624 83.9686 259.78 84.3586 259.78 84.8526C259.78 86.3086 258.701 87.8816 256.543 89.5716C257.687 90.8456 258.259 92.3796 258.259 94.1736C258.259 95.9416 257.557 97.5016 256.153 98.8536C254.749 100.206 253.033 100.882 251.005 100.882C249.575 100.882 248.301 100.544 247.183 99.8676C246.091 100.856 245.545 101.909 245.545 103.027C245.545 103.781 245.818 104.392 246.364 104.86C246.936 105.302 247.794 105.523 248.938 105.523C250.108 105.523 251.083 105.536 251.863 105.562C252.643 105.588 253.566 105.64 254.632 105.718C255.698 105.796 256.517 105.939 257.089 106.147C257.687 106.355 258.285 106.628 258.883 106.966C259.975 107.59 260.521 108.669 260.521 110.203C260.521 112.075 259.546 113.7 257.596 115.078C255.672 116.482 253.176 117.184 250.108 117.184C247.768 117.184 245.87 116.742 244.414 115.858C242.958 115 242.23 113.856 242.23 112.426C242.23 111.412 242.568 110.437 243.244 109.501C243.92 108.591 244.791 107.967 245.857 107.629C244.349 107.031 243.595 105.861 243.595 104.119C243.595 103.287 243.868 102.442 244.414 101.584C244.96 100.7 245.662 99.9846 246.52 99.4386C244.674 98.0346 243.751 96.2926 243.751 94.2126C243.751 92.1066 244.453 90.4296 245.857 89.1816C247.261 87.9076 248.964 87.2706 250.966 87.2706C252.994 87.2706 254.697 87.8816 256.075 89.1036C256.725 88.4536 257.05 87.6996 257.05 86.8416ZM244.96 112.036C244.96 113.336 245.467 114.376 246.481 115.156C247.521 115.936 248.938 116.326 250.732 116.326C252.552 116.326 254.177 115.819 255.607 114.805C257.063 113.791 257.791 112.582 257.791 111.178C257.791 109.8 257.063 108.903 255.607 108.487C254.177 108.071 251.304 107.863 246.988 107.863C246.494 108.149 246.026 108.682 245.584 109.462C245.168 110.268 244.96 111.126 244.96 112.036ZM247.729 98.2296C248.483 99.3216 249.575 99.8676 251.005 99.8676C252.435 99.8676 253.527 99.3216 254.281 98.2296C255.035 97.1116 255.412 95.6946 255.412 93.9786C255.412 92.2366 255.035 90.8456 254.281 89.8056C253.527 88.7656 252.435 88.2456 251.005 88.2456C249.575 88.2456 248.483 88.7656 247.729 89.8056C246.975 90.8456 246.598 92.2366 246.598 93.9786C246.598 95.6946 246.975 97.1116 247.729 98.2296Z" fill="#282828"/>
<defs>
<filter id="filter0_f" x="0.186279" y="174.623" width="199" height="38.3338" filterUnits="userSpaceOnUse" color-interpolation-filters="sRGB">
<feFlood flood-opacity="0" result="BackgroundImageFix"/>
<feBlend mode="normal" in="SourceGraphic" in2="BackgroundImageFix" result="shape"/>
<feGaussianBlur stdDeviation="5" result="effect1_foregroundBlur"/>
</filter>
<filter id="filter1_f" x="36.0957" y="181.732" width="131.612" height="15.8274" filterUnits="userSpaceOnUse" color-interpolation-filters="sRGB">
<feFlood flood-opacity="0" result="BackgroundImageFix"/>
<feBlend mode="normal" in="SourceGraphic" in2="BackgroundImageFix" result="shape"/>
<feGaussianBlur stdDeviation="2" result="effect1_foregroundBlur"/>
</filter>
<linearGradient id="paint0_linear" x1="99.6863" y1="184.623" x2="99.6863" y2="202.957" gradientUnits="userSpaceOnUse">
<stop stop-color="#B4B4B4"/>
<stop offset="1" stop-color="#F2F1EE"/>
</linearGradient>
<clipPath id="clip0">
<rect width="170.758" height="180.773" fill="white" transform="translate(10.1863 0.604492)"/>
</clipPath>
</defs>
</svg>
