<svg viewBox="0 0 306 213" fill="none" xmlns="http://www.w3.org/2000/svg">
<g opacity="0.7" filter="url(#filter0_f)">
<ellipse cx="100.333" cy="193.631" rx="89.5" ry="9.16691" fill="url(#paint0_linear)" fill-opacity="0.4"/>
</g>
<g filter="url(#filter1_f)">
<ellipse cx="102.549" cy="189.487" rx="61.8059" ry="3.91368" fill="#F5F5F5"/>
</g>
<g clip-path="url(#clip0)">
<g opacity="0.8">
<path opacity="0.8" d="M175.997 43.9653C172.255 37.7996 167.833 32.0732 162.812 26.8938L160.915 24.9757L158.928 23.1466C157.627 21.9005 156.198 20.7968 154.812 19.6352C154.117 19.0612 153.374 18.5449 152.652 17.9931L151.561 17.1831L151.013 16.7781L150.447 16.3999C148.933 15.3985 147.432 14.3571 145.832 13.4671C145.049 13.022 144.274 12.5414 143.476 12.1053L141.062 10.8725L139.85 10.2495L138.612 9.68426L136.127 8.55389C135.289 8.19786 134.439 7.87743 133.592 7.53921C132.746 7.20098 131.908 6.8494 131.035 6.57348C129.307 5.99938 127.592 5.37633 125.828 4.91795C118.827 2.90716 111.607 1.75495 104.328 1.48673C96.8127 1.18406 89.2896 1.84059 81.9408 3.44043L79.1925 4.06349L76.4754 4.81114L75.1391 5.18942L73.8028 5.63446L71.1303 6.52453L68.4978 7.53475L67.1616 8.0421C66.7161 8.22456 66.2974 8.42037 65.8698 8.60729L63.2864 9.74658C62.4401 10.156 61.6027 10.5832 60.7564 11.006L59.4735 11.6113C59.0548 11.8293 58.6495 12.0563 58.2397 12.2966L55.7765 13.694C54.9703 14.1836 54.1774 14.6998 53.3757 15.2027L52.1775 15.9637C51.781 16.2218 51.4024 16.5022 51.0105 16.7737L48.6942 18.4114C47.937 18.9766 47.1976 19.5729 46.4671 20.1515L45.3491 21.0416C44.9794 21.3353 44.6275 21.6557 44.2667 21.9628L42.102 23.7785C41.4027 24.4149 40.7256 25.078 40.0352 25.7278L39.0063 26.7068C38.6633 27.0362 38.347 27.3878 38.0174 27.726L36.0576 29.7776C35.4206 30.4763 34.8104 31.1972 34.1868 31.9093L33.2558 32.9774C32.944 33.3334 32.6634 33.7117 32.365 34.0811L30.6056 36.3062C30.031 37.0539 29.4965 37.8327 28.9397 38.5937C28.3829 39.3547 27.8261 40.1158 27.3272 40.9168L25.7816 43.2799C25.2694 44.0721 24.8195 44.8954 24.334 45.7009C23.3451 47.3031 22.5077 48.9897 21.6258 50.6497C21.3986 51.0636 21.1804 51.4864 21.0022 51.9136L20.4053 53.1909L19.8307 54.4859C19.6303 54.931 19.4343 55.3359 19.2606 55.7765C18.5613 57.5211 17.7996 59.2433 17.2161 61.0324C16.9087 61.9225 16.5836 62.8125 16.2941 63.7026L15.4967 66.4084L15.1003 67.7435L14.7663 69.1142L14.1115 71.8645C13.9066 72.7857 13.7551 73.7159 13.577 74.6416L13.3231 76.0345L13.1983 76.7332L13.1048 77.4364C12.8687 79.31 12.5703 81.1791 12.4679 83.0705C12.3966 84.014 12.3164 84.9575 12.2585 85.9009L12.1872 88.7403L12.1516 90.1599C12.1516 90.6317 12.1516 91.1078 12.1828 91.5796L12.2585 94.4233C12.4518 98.2153 12.8877 101.991 13.5636 105.727L13.8175 107.129L13.9422 107.828L14.1026 108.522L14.744 111.299C14.94 112.229 15.234 113.133 15.4789 114.049C15.7239 114.966 15.9734 115.901 16.2673 116.791C16.8776 118.571 17.4388 120.4 18.1648 122.158C18.5167 123.048 18.833 123.938 19.2205 124.801L20.3786 127.4C20.7483 128.291 21.1937 129.114 21.6169 129.959C22.04 130.805 22.4543 131.659 22.9175 132.492C23.8618 134.138 24.7527 135.816 25.7994 137.387C27.8157 140.604 30.0339 143.689 32.4407 146.626C33.6879 148.059 34.8772 149.541 36.209 150.894C36.8638 151.579 37.5007 152.282 38.1733 152.954L40.2223 154.93C40.8949 155.602 41.612 156.221 42.3291 156.848C43.0463 157.476 43.7501 158.108 44.4805 158.713L46.7077 160.493C47.0818 160.787 47.4471 161.09 47.8301 161.383L48.9882 162.215C49.7633 162.767 50.5294 163.333 51.3089 163.875L53.6964 165.433L54.8946 166.207L56.1239 166.928L58.5827 168.37L61.1082 169.705L62.3733 170.364C62.8187 170.573 63.2329 170.769 63.665 170.969L66.2529 172.166C67.1437 172.545 68.0346 172.887 68.8943 173.248C70.6448 173.996 72.4577 174.583 74.2394 175.202C74.6848 175.366 75.1302 175.5 75.6024 175.647L76.9743 176.043C77.8918 176.296 78.7961 176.595 79.7226 176.808L82.502 177.458C82.9474 177.56 83.4285 177.685 83.8962 177.765L85.2993 178.019L88.1099 178.517L90.9428 178.873L92.5151 179.065C93.0407 179.122 93.5663 179.149 94.0964 179.189L97.2589 179.412L100.426 179.474C100.956 179.474 101.482 179.501 102.012 179.474L103.597 179.425C107.823 179.319 112.035 178.901 116.198 178.174L119.316 177.596C120.345 177.369 121.37 177.115 122.399 176.875C122.911 176.75 123.428 176.639 123.935 176.497L125.454 176.052L126.973 175.607C127.481 175.46 127.989 175.317 128.483 175.139L131.476 174.116C132.474 173.777 133.441 173.355 134.425 172.976L135.895 172.393C136.381 172.189 136.857 171.948 137.338 171.748C138.296 171.303 139.267 170.894 140.216 170.413C146.762 167.243 152.905 163.302 158.514 158.673C164.04 154.086 168.93 148.786 173.057 142.91C173.729 141.904 173.213 142.26 172.527 143.266C168.496 148.81 163.758 153.806 158.434 158.126C157.788 158.691 157.097 159.194 156.407 159.714L154.38 161.294L152.251 162.75C151.538 163.23 150.844 163.729 150.1 164.165C148.634 165.055 147.191 165.994 145.677 166.795L143.449 168.041L141.151 169.189C139.57 170.021 137.913 170.698 136.287 171.441C135.472 171.815 134.626 172.109 133.797 172.447C132.969 172.785 132.136 173.123 131.285 173.408C129.583 173.969 127.9 174.61 126.163 175.073L123.57 175.82L120.942 176.425C119.201 176.87 117.419 177.146 115.651 177.489C115.205 177.578 114.76 177.64 114.314 177.698L112.978 177.881C112.087 177.992 111.196 178.139 110.305 178.219L107.633 178.441L106.297 178.548L104.96 178.593L102.288 178.673C101.397 178.673 100.506 178.646 99.6152 178.637C95.8796 178.55 92.1531 178.231 88.4573 177.68L85.7046 177.191C84.787 177.022 83.8694 176.875 82.9652 176.648C81.1524 176.203 79.3306 175.829 77.5489 175.277C76.658 175.01 75.7672 174.774 74.8763 174.485L72.235 173.595L70.8987 173.15L69.6025 172.629L66.9389 171.53C63.5152 170.048 60.1847 168.36 56.9658 166.474C55.3355 165.584 53.7855 164.521 52.2176 163.511L51.6296 163.128L51.0595 162.718L49.9236 161.904L48.7833 161.112C48.4003 160.84 48.0261 160.569 47.6609 160.271C46.1999 159.105 44.7122 157.979 43.3269 156.71C42.6276 156.087 41.906 155.495 41.2334 154.85L39.2112 152.91C38.5252 152.273 37.8749 151.575 37.2513 150.907C36.6277 150.24 35.9551 149.572 35.3404 148.86C34.1333 147.436 32.8728 146.056 31.777 144.557C31.2069 143.818 30.6234 143.088 30.071 142.331L28.4631 140.044C28.2003 139.661 27.9196 139.287 27.6702 138.896L26.9219 137.716C26.4275 136.929 25.9197 136.145 25.4342 135.349C17.7726 122.48 13.5272 107.869 13.1004 92.9013C13.1004 91.9712 13.0514 91.0411 13.0425 90.1154L13.1182 87.3295L13.1583 85.9365C13.185 85.4915 13.2251 85.0109 13.2607 84.548L13.4834 81.7755C13.5591 80.8542 13.7106 79.9375 13.822 79.0162L14.0046 77.6411C14.0625 77.196 14.1248 76.7243 14.2139 76.2704L14.7128 73.5423C14.8019 73.0973 14.8687 72.6522 14.9756 72.1805L15.2963 70.8454C16.9275 63.615 19.4751 56.6219 22.8774 50.0356C23.3229 49.2212 23.7193 48.4023 24.1602 47.5968L25.5544 45.2159L26.2537 44.0276L27.0065 42.875L28.5165 40.5697C30.6134 37.5476 32.8938 34.6569 35.3449 31.9138C40.2379 26.4224 45.8 21.5649 51.9013 17.4546C52.6452 16.9161 53.438 16.4488 54.2131 15.9548C54.9881 15.4608 55.7587 14.9579 56.5605 14.504C58.1684 13.6139 59.7408 12.6482 61.4022 11.8338C64.6836 10.1497 68.063 8.6636 71.5223 7.38344L74.1414 6.49337L75.4509 6.04834L76.7872 5.66116L79.4597 4.8957L82.1323 4.25485L83.4686 3.93888C83.914 3.83652 84.3594 3.7653 84.8048 3.6763L87.5264 3.17787C88.4172 3.0221 89.3526 2.9242 90.2613 2.79514C91.17 2.66608 92.0831 2.53256 93.0051 2.47471L96.0607 2.22549C97.0808 2.14539 98.1052 2.14538 99.1253 2.10533L100.658 2.05638C101.17 2.05638 101.682 2.05638 102.19 2.05638L105.259 2.10978L108.319 2.31004L109.851 2.41241L111.374 2.59042L114.421 2.95535L117.446 3.46269C117.949 3.55169 118.457 3.6229 118.956 3.72971L120.457 4.05903C121.454 4.286 122.461 4.50407 123.45 4.73994C125.423 5.29178 127.414 5.78132 129.343 6.46667L130.799 6.95176C131.285 7.10752 131.77 7.27664 132.247 7.468L135.111 8.58059C135.592 8.7586 136.06 8.97222 136.523 9.18139L137.926 9.80887C138.862 10.2272 139.801 10.6411 140.701 11.144L143.441 12.5547L146.113 14.1079C146.559 14.3705 147.004 14.6197 147.449 14.9001L148.732 15.7456L150.011 16.5912C150.456 16.8716 150.866 17.152 151.271 17.4813L153.734 19.3015C154.149 19.5996 154.541 19.9245 154.937 20.2494L156.117 21.2196L157.298 22.1897C157.69 22.5146 158.059 22.8662 158.438 23.2044L160.696 25.2605C163.619 28.0885 166.37 31.0874 168.937 34.2413C169.578 35.029 170.179 35.8523 170.803 36.6534L171.734 37.8639L172.625 39.1144C173.204 39.9511 173.814 40.77 174.371 41.6244L176.032 44.2012C176.62 45.0734 176.58 44.8954 175.997 43.9653Z" fill="#FF945C"/>
</g>
<g opacity="0.8">
<path opacity="0.8" d="M179.334 45.8607C173.005 34.5167 163.949 24.7438 153.273 17.1515L150.858 15.5182L149.651 14.7038L148.408 13.9472L145.923 12.4341L143.366 11.0412L142.088 10.3425L140.778 9.70606L138.159 8.43771L135.487 7.29396L134.15 6.72432C133.705 6.5374 133.26 6.38609 132.787 6.21253C125.516 3.43545 117.906 1.63948 110.16 0.872114L107.251 0.609545C106.28 0.560591 105.305 0.533885 104.334 0.493832L102.873 0.44043C102.387 0.44043 101.897 0.44043 101.412 0.44043L98.4897 0.489384C94.5931 0.64467 90.711 1.05648 86.8686 1.72213C84.9399 2.0114 83.0469 2.46534 81.1449 2.88367C80.6683 2.98158 80.1961 3.10174 79.7284 3.23525L78.3209 3.61798C77.3855 3.88501 76.4368 4.09862 75.5147 4.41904L72.7397 5.30911C72.2943 5.45152 71.8177 5.61618 71.3634 5.78974L70.0004 6.29709C68.1652 6.93794 66.3924 7.73011 64.6063 8.48667C61.0628 10.057 57.6178 11.8404 54.2902 13.8271C52.6021 14.7839 51.0074 15.8787 49.3906 16.9423C48.5799 17.4719 47.8137 18.0683 47.0253 18.629C46.2369 19.1897 45.4441 19.7505 44.7002 20.3735L42.433 22.1937C41.6758 22.799 40.972 23.4665 40.2371 24.1029C38.7583 25.3579 37.4042 26.7731 36.01 28.1082C33.285 30.8858 30.7549 33.8479 28.4378 36.9733C23.6893 43.3754 19.8338 50.3925 16.977 57.8321C15.565 61.5507 14.3941 65.3562 13.4715 69.225C12.9593 71.1476 12.6386 73.1057 12.2555 75.055L12.1174 75.7848L12.015 76.5236L11.8056 77.9966L11.5963 79.4697C11.525 79.9593 11.4537 80.4532 11.4181 80.9472C10.5411 88.8534 10.6908 96.8398 11.8635 104.708C12.4334 108.638 13.2668 112.526 14.3579 116.345C14.9548 118.241 15.5071 120.159 16.2331 122.011L16.7498 123.412C16.9191 123.88 17.0928 124.347 17.2977 124.801L18.4692 127.547C25.0674 142.104 35.3904 154.665 48.3973 163.964C49.1812 164.574 50.0231 165.099 50.8426 165.66L52.0765 166.492C52.4863 166.772 52.9005 167.048 53.3281 167.297C55.0252 168.325 56.7089 169.385 58.4772 170.297L59.7868 171.009L60.4415 171.365L61.1141 171.69L63.7867 172.985L64.4593 173.31L65.1452 173.599L66.5171 174.178L67.8891 174.756L68.575 175.045L69.2743 175.303C80.9259 179.765 93.3813 181.748 105.844 181.125C106.962 181.053 108.071 180.996 109.202 180.915L112.547 180.546C113.665 180.448 114.774 180.226 115.875 180.056L117.536 179.789C118.088 179.705 118.636 179.567 119.184 179.456C123.578 178.577 127.896 177.36 132.101 175.815C133.148 175.415 134.208 175.059 135.219 174.618L138.306 173.283C139.331 172.838 140.324 172.317 141.335 171.832C141.834 171.583 142.346 171.352 142.841 171.085L144.311 170.279C146.293 169.242 148.181 168.054 150.101 166.875C151.95 165.615 153.82 164.391 155.575 163.012C156.466 162.34 157.357 161.677 158.208 160.942C159.059 160.208 159.932 159.523 160.769 158.784L163.232 156.519C163.651 156.149 164.038 155.749 164.43 155.353L165.606 154.16C168.734 150.974 171.611 147.552 174.212 143.924C174.537 143.479 174.885 143.034 175.192 142.589L176.118 141.196L177.04 139.803C177.192 139.572 177.352 139.358 177.486 139.104L177.931 138.388L179.642 135.517C180.176 134.538 180.693 133.55 181.214 132.571C181.784 131.494 181.615 131.499 181.04 132.571L179.659 135.157C179.17 136.002 178.657 136.835 178.154 137.676L177.397 138.931C177.138 139.345 176.853 139.745 176.586 140.15L174.947 142.58C174.372 143.372 173.78 144.147 173.196 144.93L172.306 146.1C172.003 146.483 171.686 146.857 171.375 147.231L169.499 149.487L167.522 151.65L166.533 152.731L165.495 153.764L163.41 155.824L161.237 157.787C160.871 158.112 160.515 158.446 160.145 158.762L159.014 159.692C158.257 160.306 157.509 160.938 156.742 161.539L154.395 163.288C153.999 163.572 153.62 163.879 153.215 164.151L152.003 164.97C151.192 165.508 150.395 166.073 149.571 166.594C142.978 170.795 135.876 174.137 128.436 176.541L127.041 176.986L126.342 177.208L125.634 177.4L122.801 178.161L122.093 178.352L121.376 178.508L119.941 178.819L118.507 179.126L117.79 179.282L117.068 179.402L114.173 179.874L113.452 179.99L112.721 180.074L111.265 180.239L109.808 180.399C109.322 180.457 108.837 180.506 108.347 180.528L105.421 180.702C104.445 180.782 103.465 180.755 102.49 180.773C101.514 180.791 100.534 180.813 99.5587 180.773C97.6078 180.675 95.6479 180.662 93.7059 180.435L90.7883 180.154L87.8886 179.736L86.441 179.527C85.9599 179.447 85.4833 179.344 85.0023 179.251L82.1293 178.686C78.3143 177.84 74.5576 176.75 70.8823 175.424C52.3356 168.796 36.5133 156.209 25.8944 139.634C23.8187 136.387 21.943 133.016 20.2776 129.541C19.3867 127.823 18.6741 126.025 17.8901 124.258C17.516 123.368 17.1952 122.451 16.8478 121.552C16.5004 120.653 16.153 119.745 15.8723 118.82L14.9815 116.06C14.6964 115.135 14.4648 114.196 14.2064 113.261C13.6586 111.401 13.3156 109.496 12.8702 107.609C12.1313 103.807 11.6507 99.9589 11.4315 96.0918C11.2756 94.1603 11.2978 92.2244 11.28 90.3063C11.2533 89.3406 11.3379 88.3749 11.3646 87.4091C11.3914 86.4434 11.427 85.4777 11.5161 84.512L11.7923 81.6281C11.8457 81.1475 11.8724 80.6668 11.9437 80.1862L12.153 78.7532L12.5985 75.8872L13.1642 73.0479C14.7204 65.4734 17.2428 58.1297 20.6696 51.1966C21.0705 50.3066 21.5604 49.4655 22.0058 48.611C22.4513 47.7565 22.8967 46.8976 23.4 46.0609C24.4156 44.4099 25.3599 42.7143 26.4779 41.13C27.0258 40.3289 27.5469 39.5145 28.1126 38.7268L29.8498 36.3992C30.4155 35.6115 31.0346 34.8683 31.6537 34.1251C32.2729 33.3819 32.8742 32.6209 33.5156 31.8999C38.6229 26.0663 44.4615 20.9149 50.8872 16.5729C54.0685 14.3938 57.3829 12.4155 60.8112 10.6495C62.544 9.80396 64.2633 8.92724 66.0494 8.19738L67.3857 7.6233C67.8311 7.42748 68.2766 7.24057 68.722 7.08035L71.4302 6.06122C72.321 5.70074 73.2564 5.44262 74.174 5.13554L75.5504 4.69051C75.9958 4.53919 76.4679 4.39234 76.9356 4.27663C78.802 3.77819 80.6594 3.23525 82.5569 2.86587C86.3434 2.02947 90.1809 1.44224 94.0444 1.10798L97.2425 0.90327L98.0399 0.854316H98.8416H100.441C102.574 0.78311 104.703 0.921067 106.837 0.996723C107.902 1.06348 108.962 1.17919 110.022 1.27264L111.612 1.4195L113.193 1.64202L116.356 2.08706L119.474 2.70121C119.995 2.80802 120.52 2.89257 121.037 3.02163L122.587 3.40882C123.621 3.67584 124.663 3.9028 125.683 4.20542L128.743 5.13554L129.509 5.36697L130.262 5.63399L131.767 6.17693C133.79 6.85784 135.741 7.7301 137.714 8.54896C138.685 8.994 139.643 9.46573 140.609 9.91966C141.09 10.1511 141.576 10.3647 142.052 10.6184L143.464 11.3794C150.819 15.2918 157.596 20.2026 163.602 25.9721C166.584 28.8752 169.371 31.972 171.945 35.2422C173.161 36.9155 174.435 38.531 175.508 40.2621L176.35 41.5394C176.631 41.9844 176.916 42.3894 177.165 42.83L178.706 45.4468C178.978 45.9603 179.298 46.4462 179.664 46.8976C179.847 46.9911 179.771 46.6929 179.334 45.8607Z" fill="#FF945C"/>
</g>
<path d="M180.264 52.2126L179.137 49.9474C178.736 49.2042 178.318 48.4743 177.908 47.7222C177.11 46.2313 176.188 44.8161 175.293 43.3831C174.848 42.6577 174.362 41.9724 173.881 41.2781L172.429 39.1954L170.883 37.1838C170.362 36.5162 169.863 35.8487 169.302 35.1989C164.977 29.9888 160.086 25.2751 154.719 21.1447C149.34 17.054 143.512 13.59 137.347 10.8199C136.59 10.4461 135.793 10.1524 135.013 9.83196L132.661 8.87958L130.265 8.04292C129.463 7.7759 128.675 7.45992 127.855 7.24185L125.419 6.52979C125.014 6.41409 124.608 6.28503 124.198 6.17823L122.965 5.8845L120.497 5.30595C119.673 5.10123 118.835 4.98108 118.003 4.81642C111.339 3.55695 104.558 3.02867 97.7802 3.24099C90.9963 3.50501 84.2678 4.57315 77.7361 6.42299L76.5067 6.76122L75.2952 7.15729L72.8721 7.94946C72.0614 8.20758 71.2775 8.54135 70.4802 8.83953C69.6828 9.1377 68.8855 9.43143 68.1016 9.76521C64.9594 11.0732 61.8943 12.5591 58.9214 14.2156C58.182 14.6383 57.4247 15.0255 56.6942 15.475L54.525 16.8101L53.4426 17.4865L52.3914 18.212L50.289 19.6628C49.5897 20.1479 48.9305 20.6864 48.249 21.1981C47.5675 21.7099 46.8815 22.2173 46.2357 22.7691L44.2847 24.4202C43.9596 24.6961 43.6299 24.9676 43.3137 25.248L42.3783 26.138L40.512 27.8826C39.8973 28.4745 39.3182 29.0975 38.7303 29.7072L37.8394 30.624C37.541 30.9266 37.247 31.2381 36.9708 31.563L35.2827 33.4811C35.0065 33.806 34.7125 34.1131 34.4453 34.4468L33.639 35.4259L32.0444 37.4241C31.5322 38.105 31.0422 38.8037 30.5433 39.4935C30.0445 40.1833 29.5233 40.8598 29.0779 41.5852C25.2889 47.2573 22.1511 53.3377 19.724 59.7114C17.3505 66.0641 15.7416 72.6763 14.9312 79.4087C13.2281 92.8973 14.6296 106.596 19.0291 119.462C21.2166 125.874 24.1687 132.001 27.8218 137.708C29.6419 140.561 31.6228 143.309 33.7549 145.937L35.4074 147.859C35.9642 148.496 36.4942 149.155 37.0866 149.755C38.2581 150.97 39.385 152.234 40.65 153.373L42.4807 155.122L44.3872 156.787C45.6388 157.922 46.9884 158.936 48.3069 159.987C48.9572 160.521 49.6432 161.001 50.338 161.491L52.3959 162.96L54.5206 164.335C55.2332 164.78 55.9237 165.269 56.6631 165.67C62.4518 169.122 68.6222 171.891 75.0502 173.921C81.4707 175.93 88.1001 177.199 94.8093 177.704C101.535 178.24 108.299 178.031 114.978 177.08C121.651 176.079 128.184 174.302 134.443 171.785C140.687 169.268 146.619 166.039 152.122 162.163C154.878 160.236 157.524 158.156 160.046 155.932C160.674 155.372 161.276 154.784 161.89 154.215C162.505 153.645 163.137 153.084 163.708 152.466C164.866 151.246 166.077 150.08 167.155 148.79C168.015 147.811 167.667 147.655 166.812 148.629L165.984 149.573C165.703 149.884 165.405 150.178 165.115 150.463L163.369 152.265C162.794 152.875 162.157 153.422 161.556 154.001C160.955 154.58 160.345 155.158 159.717 155.71C157.201 157.927 154.561 160 151.81 161.918C146.326 165.781 140.406 168.985 134.171 171.464C121.675 176.486 108.169 178.491 94.7514 177.316C91.4101 177.042 88.0866 176.583 84.7961 175.941L84.177 175.83L83.5623 175.688L82.3374 175.407L79.8875 174.842L77.4689 174.157C76.6671 173.916 75.8475 173.712 75.0591 173.44C68.6609 171.385 62.5233 168.593 56.77 165.122C51.0217 161.634 45.682 157.514 40.8505 152.839L39.9596 151.949C39.6612 151.656 39.3761 151.344 39.0688 151.059L37.3316 149.235C36.7437 148.634 36.2225 147.971 35.6657 147.343C35.1089 146.716 34.5566 146.079 34.031 145.425C31.9114 142.812 29.9495 140.074 28.1559 137.228C20.9133 125.861 16.5971 112.751 15.2385 99.3997C14.616 92.7061 14.794 85.9623 15.7686 79.3108C17.6912 65.9726 22.5601 53.229 30.0222 42.0035C33.7787 36.4056 38.1882 31.2739 43.1578 26.7166C50.6295 19.8566 59.2151 14.317 68.547 10.3348C69.3265 10.0144 70.1193 9.71624 70.9033 9.40917C71.6872 9.1021 72.4667 8.77277 73.273 8.5191C74.8809 8.00286 76.4622 7.41097 78.1014 6.99709C84.5976 5.16007 91.2881 4.09501 98.0341 3.82399C104.774 3.58928 111.518 4.10123 118.145 5.35045C131.392 7.78034 143.931 13.5257 154.643 21.6209C159.973 25.7178 164.822 30.4042 169.097 35.5906C169.654 36.2181 170.14 36.9257 170.656 37.5665C171.173 38.2074 171.685 38.9016 172.184 39.5647L173.623 41.6297L174.34 42.6622C174.58 43.0048 174.785 43.3698 175.017 43.7213L176.353 45.8531L176.687 46.3871L176.995 46.9345L177.614 48.0293C178.019 48.7636 178.447 49.4845 178.839 50.2278L179.97 52.4752L180.54 53.5967C180.727 53.9572 181.048 53.7079 180.264 52.2126Z" fill="#FF945C"/>
<path d="M174.509 131.393C171.446 136.702 167.894 141.714 163.899 146.364C159.864 151.056 155.3 155.269 150.3 158.918L149.77 159.314L149.218 159.684L148.113 160.405L147.013 161.143C146.648 161.392 146.278 161.637 145.899 161.86C144.385 162.75 142.893 163.716 141.32 164.53C138.222 166.214 135.021 167.701 131.735 168.98C130.073 169.577 128.439 170.235 126.742 170.725C125.9 170.983 125.062 171.268 124.216 171.499L121.655 172.167C121.209 172.274 120.804 172.403 120.372 172.487L119.076 172.759C118.212 172.937 117.352 173.128 116.483 173.293L113.869 173.702L112.559 173.907L111.223 174.049C110.27 174.147 109.317 174.263 108.363 174.352L105.49 174.517C104.533 174.592 103.575 174.588 102.617 174.597C101.66 174.606 100.698 174.641 99.7399 174.597C97.8246 174.512 95.9048 174.477 93.9984 174.258L92.5641 174.129L91.8469 174.063L91.1343 173.96L88.2835 173.555C84.4928 172.946 80.7484 172.078 77.0767 170.956C75.2282 170.445 73.4375 169.75 71.6291 169.114C70.7383 168.789 69.8474 168.388 68.9566 168.028C68.0657 167.667 67.1749 167.303 66.3241 166.871L63.7317 165.629C62.8854 165.184 62.048 164.739 61.2106 164.263L59.9545 163.573L58.7341 162.821C57.9234 162.314 57.1038 161.829 56.3021 161.308C54.7386 160.213 53.1351 159.181 51.6474 157.984L50.5115 157.093L49.9458 156.648L49.398 156.203L47.2198 154.356C41.5098 149.303 36.5033 143.507 32.3337 137.125L31.5364 135.923C31.2692 135.523 31.0375 135.1 30.7881 134.69L29.3093 132.216C28.4185 130.516 27.4474 128.852 26.6368 127.094L26.0666 125.839L25.7548 125.189L25.4742 124.526L24.3473 121.856C23.982 120.966 23.6747 120.053 23.3317 119.154L22.8284 117.819L22.3829 116.444C21.1898 112.774 20.2639 109.023 19.6124 105.22L19.167 102.372C19.0378 101.42 18.9532 100.463 18.8463 99.5104L18.6948 98.0818L18.6147 96.6444C18.5657 95.6876 18.4989 94.7307 18.4677 93.7739C18.4677 91.8558 18.4009 89.9377 18.53 88.0196L18.5924 86.5821C18.5924 86.1015 18.6236 85.6253 18.6815 85.1491L18.9487 82.2831L19.0155 81.5666L19.118 80.8545L19.3229 79.4304L19.5278 78.0063L19.6302 77.2943L19.7683 76.5867L20.3206 73.7607C20.3696 73.5248 20.4097 73.289 20.4632 73.0531L20.6369 72.3544L20.9843 70.957C22.8282 63.4981 25.7068 56.3334 29.5365 49.671C30.5476 48.0421 31.4964 46.3733 32.6188 44.8201L33.4339 43.6363L33.8393 43.0444L34.2847 42.4703L36.0308 40.1873C36.6098 39.4263 37.2601 38.7187 37.8704 37.9621L38.7969 36.8673C39.1087 36.5024 39.4472 36.1642 39.7723 35.8126L41.7367 33.7209L43.799 31.7272C46.5755 29.0959 49.5313 26.6601 52.6451 24.4375L53.8032 23.5919L54.997 22.7998C55.7987 22.2791 56.5871 21.7361 57.3933 21.2288C59.0414 20.2586 60.6583 19.235 62.3598 18.3628C75.9082 11.0389 91.2294 7.62725 106.608 8.5097C112.343 8.8303 118.032 9.70668 123.597 11.1265C129.173 12.5397 134.577 14.5604 139.712 17.1523C150.051 22.335 159.198 29.6096 166.571 38.5139C170.261 43.0303 173.441 47.939 176.054 53.1511C178.669 58.3758 170.233 40.8904 159.07 30.3476L156.941 28.4117C156.594 28.0823 156.224 27.7753 155.85 27.4771L154.736 26.587C153.28 25.3365 151.699 24.2506 150.171 23.1024C149.382 22.5639 148.576 22.0432 147.779 21.5136L146.581 20.7259L145.347 19.996C144.518 19.5154 143.708 19.0081 142.87 18.5497L140.331 17.2146C139.494 16.7695 138.617 16.3735 137.752 15.9685L136.452 15.3632C136.006 15.1585 135.588 14.9582 135.138 14.7891L132.465 13.7122L131.802 13.4451L131.124 13.2093L129.788 12.7375C128.007 12.0655 126.154 11.5671 124.327 11.0197C123.882 10.8728 123.405 10.7705 122.942 10.6548L121.548 10.3165C120.617 10.0985 119.699 9.8359 118.755 9.67569C100.102 5.70453 80.65 8.22582 63.6283 16.8211C46.6066 25.4164 33.0385 39.5688 25.1758 56.9295L24.0711 59.5596C23.8885 60.0047 23.6969 60.4497 23.5232 60.8947L23.0377 62.2298C22.717 63.1199 22.3785 64.01 22.0712 64.9001L21.2338 67.6281C21.1001 68.0732 20.9442 68.5182 20.824 68.9944L20.4765 70.3784C20.2494 71.3041 19.9999 72.2209 19.7861 73.151L19.2294 75.9503C19.1403 76.3953 19.0334 76.8804 18.9576 77.3521L18.7483 78.7629C16.3391 93.9121 18.1785 109.432 24.0622 123.6C30.0252 137.796 39.7846 150.079 52.271 159.101C55.3587 161.35 58.5988 163.383 61.9678 165.184L63.2284 165.87C63.6471 166.097 64.0881 166.288 64.5157 166.501L67.0991 167.743L69.7182 168.86L71.0545 169.416L72.3908 169.906L75.0901 170.881L77.8383 171.722L79.2147 172.14L80.6089 172.487L83.3972 173.186L86.199 173.756L87.6109 174.031L89.0319 174.236L91.8781 174.641L94.7377 174.904C98.8008 175.247 102.885 175.271 106.951 174.975L108.475 174.877L109.989 174.708C110.996 174.583 112.007 174.494 113.014 174.343L116.016 173.845L116.764 173.715L117.508 173.555L118.996 173.235L120.483 172.914C120.978 172.803 121.463 172.656 121.953 172.527C122.929 172.256 123.913 172.015 124.884 171.726L127.779 170.796L128.501 170.565L129.214 170.298L130.639 169.764L132.064 169.23C132.536 169.047 133 168.833 133.467 168.638C134.398 168.228 135.338 167.85 136.256 167.423L138.995 166.088C139.441 165.874 139.886 165.643 140.331 165.384L141.668 164.655L142.933 163.965C143.351 163.733 143.757 163.471 144.167 163.222L146.63 161.713C148.215 160.618 149.85 159.581 151.374 158.38L152.536 157.49L153.115 157.045L153.676 156.599L155.903 154.744C156.643 154.116 157.342 153.444 158.064 152.794L159.142 151.815L160.171 150.787C162.93 148.074 165.503 145.178 167.872 142.118L169.618 139.817C170.179 139.038 170.709 138.237 171.257 137.45L172.077 136.266L172.834 135.046C173.337 134.232 173.854 133.431 174.349 132.617C175.333 130.917 175.467 129.728 174.509 131.393Z" fill="#FF945C"/>
<g opacity="0.6">
<path opacity="0.6" d="M175.173 56.0474L174.162 53.9423L173.048 51.8818C167.245 41.0661 159.044 31.7194 149.071 24.5567C138.862 17.3471 126.951 12.8389 115.152 10.8719C108.68 9.78254 102.105 9.4302 95.5531 9.82159C94.7335 9.84385 93.9183 9.93729 93.1032 10.0174L90.6534 10.2577L88.2213 10.6227C87.4107 10.7428 86.5956 10.8541 85.7938 11.0365L83.3751 11.5261C82.9698 11.6017 82.5689 11.6952 82.1725 11.8064L80.9743 12.1135C80.1814 12.3271 79.3708 12.5007 78.5868 12.7499L76.2261 13.4887C75.8341 13.6177 75.4332 13.7245 75.0457 13.867L73.8831 14.312L71.5536 15.1798L69.273 16.1277L68.1282 16.6217C67.7452 16.7864 67.3799 16.9822 67.0058 17.1647L64.7786 18.2683C64.0303 18.6377 63.3176 19.0694 62.5872 19.4655L61.4959 20.0707L60.9525 20.3734L60.4224 20.7027L58.3022 22.0378C57.585 22.4606 56.9169 22.959 56.2265 23.4219C55.5361 23.8847 54.8501 24.352 54.182 24.846L52.1998 26.3546L51.211 27.1112L50.2578 27.9123L48.338 29.4877L46.5029 31.161C45.2557 32.2469 44.1243 33.4574 42.9395 34.6056C42.641 34.8904 42.3604 35.193 42.0843 35.4956L41.2513 36.408C40.7034 37.0221 40.1244 37.6096 39.5988 38.246L38.022 40.1507C37.7636 40.4711 37.4919 40.7782 37.238 41.1075L36.4986 42.0955L35.0154 44.0715C34.5432 44.7479 34.0933 45.4377 33.6301 46.1186C32.6769 47.4537 31.8484 48.9001 31.0021 50.3064C30.5567 51.0006 30.1959 51.7439 29.795 52.4648L28.628 54.6455L27.5679 56.8707C27.2115 57.6139 26.8507 58.3571 26.5478 59.127C25.9198 60.6535 25.2561 62.1666 24.735 63.742L23.9065 66.0829L23.1938 68.4638C22.27 71.6038 21.5264 74.794 20.9667 78.0187C20.8286 78.8242 20.735 79.6386 20.6148 80.4486L20.4455 81.6636C20.3832 82.0685 20.3297 82.4735 20.303 82.8829L20.0892 85.3306C20.0535 85.7401 20.009 86.145 19.9867 86.5545L19.9422 87.7828L19.8486 90.2438C19.8486 91.0627 19.8486 91.886 19.8486 92.7049V93.9376V94.5518L19.8887 95.1659L20.0402 97.6269C20.0713 98.4503 20.1738 99.2647 20.2673 100.084L20.5391 102.536L20.9355 104.974C21.0646 105.789 21.1849 106.603 21.3809 107.404L21.8931 109.812C21.9689 110.217 22.0713 110.613 22.1782 111.009L22.4945 112.197C22.7127 112.99 22.8953 113.791 23.1403 114.574L23.8842 116.924C24.0089 117.315 24.1247 117.707 24.2628 118.099L24.7082 119.256L25.5679 121.57C25.8797 122.331 26.2138 123.083 26.53 123.839C26.8463 124.596 27.1581 125.362 27.5367 126.091C28.2583 127.569 28.9487 129.064 29.7638 130.497C30.1647 131.218 30.5388 131.952 30.962 132.66L32.2493 134.77C32.4675 135.121 32.6947 135.477 32.8951 135.824L33.59 136.848L34.9753 138.908L36.4541 140.893C36.9485 141.552 37.4295 142.228 37.9685 142.851L39.5364 144.761L39.9284 145.237L40.3426 145.682L41.1667 146.599C41.7235 147.204 42.2491 147.836 42.8237 148.428L44.5519 150.208L45.416 151.098L46.3069 151.935L48.1108 153.617C48.7255 154.164 49.3625 154.68 49.9906 155.219C50.6186 155.757 51.2333 156.305 51.897 156.79C57.0864 160.898 62.7732 164.337 68.8231 167.026C81.0099 172.277 94.5108 174.734 107.744 173.737C109.406 173.661 111.049 173.43 112.702 173.243C113.53 173.167 114.346 173.002 115.165 172.869C115.985 172.735 116.804 172.602 117.624 172.451L120.06 171.917L121.281 171.654C121.686 171.556 122.083 171.44 122.488 171.334L124.951 170.639C125.753 170.417 126.537 170.136 127.33 169.892C130.491 168.868 133.589 167.66 136.608 166.274L138.835 165.174L139.953 164.627C140.318 164.436 140.679 164.226 141.044 164.031L143.218 162.829C143.94 162.424 144.63 161.966 145.338 161.538C148.154 159.795 150.865 157.889 153.458 155.829L155.365 154.231L156.318 153.434L157.235 152.593L159.062 150.906C159.663 150.337 160.229 149.727 160.812 149.126C165.459 144.423 169.491 139.15 172.812 133.434C173.173 132.839 173.494 132.22 173.774 131.583C173.93 131.138 173.943 130.938 173.854 130.929C173.765 130.92 173.574 131.129 173.257 131.525C172.819 132.109 172.415 132.718 172.05 133.35C168.435 139.395 164.069 144.959 159.057 149.91C156.537 152.376 153.859 154.676 151.04 156.794C149.663 157.894 148.171 158.841 146.728 159.852C145.993 160.337 145.231 160.782 144.501 161.249C143.77 161.716 143.004 162.179 142.22 162.584L139.895 163.857C139.111 164.262 138.309 164.636 137.517 165.023L136.327 165.602C135.931 165.793 135.517 165.953 135.111 166.131L132.675 167.173C131.851 167.493 131.022 167.791 130.194 168.103L128.951 168.548C128.537 168.695 128.109 168.819 127.69 168.953L125.165 169.754L122.608 170.435L121.33 170.773C120.884 170.875 120.466 170.96 120.038 171.053L117.45 171.605L114.84 172.05L113.535 172.264C113.089 172.326 112.644 172.366 112.221 172.419L109.593 172.718C108.702 172.789 107.833 172.833 106.956 172.896L105.62 172.98C105.174 173.011 104.729 172.98 104.283 173.011L101.642 173.051C94.6091 172.985 87.6132 172.025 80.8228 170.194C74.0432 168.305 67.5232 165.586 61.4112 162.099C55.2913 158.594 49.6375 154.332 44.5831 149.416C42.0505 146.958 39.6831 144.335 37.4964 141.565C36.4407 140.154 35.3405 138.775 34.3784 137.297C33.8929 136.563 33.3673 135.855 32.913 135.099L31.541 132.811C31.0644 132.068 30.6814 131.28 30.2538 130.511L29.6302 129.349C29.4208 128.966 29.2115 128.579 29.0333 128.179C28.285 126.594 27.51 125.023 26.8775 123.39C25.5437 120.169 24.4262 116.862 23.5323 113.492C21.7618 106.767 20.818 99.8502 20.7217 92.8962C20.7217 92.0062 20.686 91.1517 20.7217 90.2839L20.8241 87.6715C20.8241 87.2265 20.8508 86.7815 20.8776 86.3676L20.9934 85.0681L21.2205 82.4646C22.0519 75.5396 23.7288 68.7423 26.2138 62.2244L27.2115 59.8123L27.7104 58.6063L28.2716 57.4269L29.3852 55.0683C29.7861 54.2984 30.2048 53.5374 30.6146 52.7674C33.9395 46.6393 38.0284 40.9569 42.7836 35.8561C45.1697 33.3099 47.72 30.9223 50.4181 28.7089C51.7544 27.5651 53.1664 26.5638 54.5562 25.5135C55.2599 24.9973 55.9949 24.5344 56.712 24.0404C57.4291 23.5465 58.1507 23.0569 58.9035 22.6252L61.1306 21.2901C61.8834 20.8451 62.6584 20.4624 63.4201 20.0485C64.9301 19.1896 66.5381 18.5087 68.0837 17.7477C68.8721 17.3916 69.6828 17.0757 70.4756 16.7374L71.6738 16.239C72.0703 16.0699 72.4845 15.9408 72.8898 15.794L75.3308 14.9039C76.1503 14.628 76.9833 14.3921 77.8073 14.134C84.4287 12.139 91.2754 10.9862 98.1855 10.7028C101.641 10.5656 105.101 10.6489 108.546 10.952C111.989 11.2504 115.411 11.7617 118.791 12.4829C125.564 13.9675 132.124 16.2986 138.314 19.421C139.824 20.2532 141.383 21.0053 142.844 21.9265C143.583 22.3716 144.336 22.8166 145.071 23.2616L147.236 24.6946C147.597 24.935 147.966 25.1397 148.314 25.4156L149.36 26.1855C150.055 26.7018 150.768 27.2002 151.458 27.7253L153.481 29.3586C153.815 29.6345 154.162 29.8971 154.487 30.1819L155.458 31.0497C156.104 31.6283 158.875 34.2228 160.18 35.5312C162.142 37.4796 163.966 39.5615 165.641 41.7617C167.03 43.5419 169.088 46.715 169.088 46.715C169.587 47.4226 170.024 48.1658 170.469 48.9045C170.914 49.6433 171.36 50.3732 171.805 51.1297C172.616 52.6562 173.489 54.147 174.202 55.718C175.756 58.7888 175.885 57.4314 175.173 56.0474Z" fill="#FF945C"/>
</g>
<g opacity="0.7">
<path opacity="0.7" d="M179.226 128.019C176.418 134.059 172.904 139.746 168.759 144.962C164.57 150.225 159.758 154.962 154.429 159.069C153.124 160.133 151.726 161.072 150.354 162.051C149.677 162.554 148.951 162.981 148.247 163.439L146.113 164.775C143.224 166.5 140.241 168.063 137.178 169.456C124.882 175.109 111.412 177.742 97.8906 177.138C84.3692 176.533 71.1884 172.708 59.447 165.981C53.6189 162.666 48.2086 158.666 43.3315 154.067C38.4939 149.453 34.1745 144.326 30.4498 138.776C26.7445 133.197 23.6827 127.218 21.323 120.952C21.0023 120.178 20.7574 119.381 20.4856 118.589L19.6883 116.212L19.0113 113.8C18.7886 112.995 18.5391 112.198 18.3743 111.379C18.0135 109.75 17.5949 108.131 17.341 106.484L16.8955 104.018L16.5837 101.535C16.3298 99.8129 16.2452 98.0728 16.1027 96.3371C16.0136 95.4693 16.027 94.5971 15.9958 93.7248C15.9646 92.8525 15.9379 91.9847 15.929 91.1124C15.9409 87.6228 16.1551 84.1368 16.5704 80.6719C16.6817 79.8086 16.7753 78.9407 16.8955 78.0729L17.341 75.4962C17.5993 73.7694 18.0447 72.0783 18.4189 70.3783C18.5926 69.5238 18.8643 68.6916 19.0915 67.8505L19.8086 65.336L20.646 62.8616C20.9222 62.0383 21.1983 61.2105 21.5369 60.4095L22.5034 58.0018C22.6593 57.5969 22.833 57.1963 23.0201 56.8047L23.5635 55.6209C23.9332 54.8332 24.2718 54.0321 24.6726 53.2622L25.8798 50.957C26.0847 50.5742 26.2762 50.187 26.4855 49.8043L27.1448 48.6828L28.481 46.4576C28.9265 45.7233 29.4298 45.0068 29.9064 44.2814C30.383 43.556 30.8418 42.8217 31.3718 42.1319C32.3963 40.7345 33.3941 39.3148 34.5121 37.9886C35.0644 37.3211 35.5855 36.6268 36.1601 35.9771L37.8884 34.0323C38.1779 33.7119 38.4585 33.3781 38.757 33.0666L39.6478 32.1364L41.4652 30.2762L43.3671 28.496C43.9996 27.8997 44.6277 27.3034 45.3003 26.756C50.5397 22.1615 56.2997 18.196 62.4625 14.9403L64.7876 13.7342L67.1662 12.6439C68.7385 11.8785 70.3822 11.3088 71.999 10.6323C72.8097 10.3075 73.6427 10.0583 74.4667 9.76454L75.705 9.34175C76.1148 9.19489 76.529 9.06137 76.9522 8.95011C78.6314 8.50508 80.2929 7.95769 81.9988 7.61501C88.6282 6.06958 95.43 5.38895 102.234 5.59011C108.984 5.7983 115.691 6.73535 122.239 8.38493C122.653 8.47393 123.063 8.58519 123.468 8.70535L124.693 9.05248C125.508 9.28835 126.328 9.49752 127.138 9.75119L129.552 10.5567L130.759 10.9572C131.165 11.0907 131.552 11.2598 131.949 11.4023L134.327 12.319L134.924 12.5504L135.508 12.8086L136.675 13.3248C137.45 13.6764 138.238 13.9968 139.004 14.3706L141.285 15.5144C147.363 18.6009 153.021 22.4505 158.122 26.9696C159.423 28.0555 160.599 29.2793 161.823 30.4408C162.135 30.7301 162.425 31.0372 162.714 31.3309L163.583 32.2566C164.153 32.8796 164.754 33.476 165.307 34.1213L166.95 36.0527C167.222 36.3776 167.503 36.6936 167.77 37.0229L168.545 38.0287L170.099 40.0358C170.594 40.7211 171.07 41.4199 171.56 42.1097C172.563 43.4759 173.427 44.9312 174.344 46.3553C175.093 47.6236 175.422 50.0224 171.97 44.6864C171.565 44.0011 171.079 43.3513 170.634 42.7149L169.271 40.7567L167.797 38.9099C167.311 38.2824 166.843 37.6371 166.313 37.0407C165.275 35.8391 164.287 34.593 163.173 33.4582L161.543 31.7226C160.982 31.1618 160.403 30.6189 159.832 30.0715C155.254 25.6885 150.17 21.8654 144.688 18.683C139.212 15.5045 133.416 12.912 127.397 10.9483C121.399 8.96162 115.202 7.63788 108.916 7.00086C102.625 6.35865 96.2812 6.45126 90.012 7.27679C83.3854 8.16486 76.8976 9.88593 70.7029 12.3991C69.135 12.9821 67.6294 13.712 66.1016 14.3929C65.331 14.7222 64.6005 15.1272 63.8745 15.501C63.1485 15.8749 62.3823 16.2576 61.6474 16.6492C58.7228 18.2584 55.8887 20.0264 53.1576 21.9451C50.4283 23.8559 47.8039 25.9119 45.2958 28.1044L43.4384 29.8C42.8326 30.3696 42.2046 30.917 41.6344 31.5267C40.4719 32.7194 39.2781 33.881 38.1957 35.1493C33.7098 40.103 29.8653 45.6008 26.7528 51.5132C23.6401 57.4434 21.2676 63.7327 19.6883 70.2403C18.1366 76.7458 17.3046 83.4019 17.2073 90.0889C17.0941 96.9456 17.8014 103.791 19.3142 110.48C20.8089 117.197 23.156 123.695 26.2985 129.817C32.6728 142.154 41.9626 152.751 53.3625 160.689C54.0484 161.214 54.7923 161.655 55.5094 162.136C56.2265 162.616 56.9437 163.075 57.692 163.52L59.9191 164.832L61.0327 165.491L62.1774 166.092L64.4669 167.298C65.2375 167.685 66.0259 168.032 66.8054 168.402C68.3555 169.163 69.9679 169.781 71.5625 170.435C72.3554 170.778 73.175 171.045 73.9901 171.325L76.4355 172.18L78.9254 172.905C79.7583 173.141 80.5779 173.408 81.4287 173.591C83.1124 173.978 84.7872 174.427 86.5021 174.699L89.0588 175.144L91.6378 175.478C95.0912 175.903 98.5679 176.111 102.047 176.101L104.658 176.016C105.548 175.981 106.399 175.976 107.263 175.883C108.996 175.727 110.733 175.616 112.457 175.34C113.317 175.215 114.181 175.113 115.04 174.97L117.602 174.485L118.884 174.245L120.154 173.942L122.688 173.337C123.53 173.119 124.359 172.861 125.192 172.625C126.025 172.389 126.866 172.18 127.682 171.868C129.321 171.303 130.973 170.783 132.581 170.115C135.816 168.862 138.977 167.428 142.051 165.82C145.108 164.188 148.068 162.38 150.915 160.404C152.367 159.443 153.726 158.366 155.106 157.289C155.81 156.777 156.443 156.19 157.12 155.634C157.797 155.077 158.456 154.521 159.097 153.938L160.999 152.158C161.316 151.86 161.636 151.57 161.944 151.268L162.835 150.329L164.643 148.455L166.353 146.493C170.9 141.222 174.769 135.405 177.872 129.176C179.409 126.195 180.42 125.407 179.226 128.019Z" fill="#FF945C"/>
</g>
</g>
<path d="M58.875 80.3641C58.875 80.8061 58.901 81.1571 58.953 81.4171C59.031 81.6511 59.083 81.8461 59.109 82.0021C59.161 82.1581 59.226 82.3791 59.304 82.6651C59.382 82.9251 59.447 83.1591 59.499 83.3671C59.577 83.5491 59.681 83.8221 59.811 84.1861C59.941 84.5501 60.045 84.8491 60.123 85.0831C60.227 85.3171 60.357 85.6681 60.513 86.1361C60.695 86.6041 60.838 86.9811 60.942 87.2671L67.026 103.842L72.798 87.2671C73.942 83.9651 74.514 81.8981 74.514 81.0661C74.514 80.2341 74.293 79.7011 73.851 79.4671C73.409 79.2331 72.642 79.1161 71.55 79.1161L71.472 78.6481H81.027L80.949 79.1161C79.961 79.1161 79.207 79.1811 78.687 79.3111C78.193 79.4411 77.66 79.7921 77.088 80.3641C76.542 80.9361 76.035 81.7421 75.567 82.7821C75.099 83.8221 74.527 85.3171 73.851 87.2671L67.299 106.143H64.842L57.939 87.2671C56.483 83.3671 55.456 81.0661 54.858 80.3641C54.624 80.0781 54.299 79.8181 53.883 79.5841C53.493 79.3501 53.103 79.2201 52.713 79.1941C52.349 79.1421 51.842 79.1161 51.192 79.1161L51.114 78.6481H61.644L61.566 79.1161C60.578 79.1161 59.876 79.2071 59.46 79.3891C59.07 79.5711 58.875 79.8961 58.875 80.3641Z" fill="#282828"/>
<path d="M86.8124 82.4311C86.3704 81.9891 86.1494 81.4691 86.1494 80.8711C86.1494 80.2731 86.3704 79.7531 86.8124 79.3111C87.2544 78.8691 87.7744 78.6481 88.3724 78.6481C88.9704 78.6481 89.4904 78.8691 89.9324 79.3111C90.3744 79.7531 90.5954 80.2731 90.5954 80.8711C90.5954 81.4691 90.3744 81.9891 89.9324 82.4311C89.4904 82.8731 88.9704 83.0941 88.3724 83.0941C87.7744 83.0941 87.2544 82.8731 86.8124 82.4311ZM89.8544 87.1111V99.5131C89.8544 102.243 90.0104 103.92 90.3224 104.544C90.6604 105.168 91.5964 105.48 93.1304 105.48L93.2084 105.948H83.6924L83.7704 105.48C85.3304 105.48 86.2794 105.168 86.6174 104.544C86.9554 103.894 87.1244 102.191 87.1244 99.4351V96.7051C87.1244 93.6891 87.0334 91.7001 86.8514 90.7381C86.6954 89.7501 86.4614 89.1131 86.1494 88.8271C85.5254 88.2551 84.5634 87.9691 83.2634 87.9691L83.1854 87.5401C85.4474 87.2541 87.6704 87.1111 89.8544 87.1111Z" fill="#282828"/>
<path d="M97.9813 100.137C97.9813 101.827 98.4364 103.101 99.3464 103.959C100.256 104.791 101.335 105.207 102.583 105.207C103.857 105.207 104.884 104.921 105.664 104.349C106.444 103.777 106.834 103.01 106.834 102.048C106.834 101.06 106.496 100.254 105.82 99.6301C105.17 99.0061 104.377 98.4991 103.441 98.1091C102.505 97.7191 101.556 97.3161 100.594 96.9001C99.6584 96.4841 98.8524 95.8731 98.1764 95.0671C97.5264 94.2611 97.2014 93.1821 97.2014 91.8301C97.2014 90.4781 97.7993 89.3601 98.9953 88.4761C100.217 87.5661 101.621 87.1111 103.207 87.1111C105.469 87.1111 107.237 87.4751 108.511 88.2031C108.511 89.3991 108.355 91.0631 108.043 93.1951L107.575 93.0781C107.575 91.3621 107.185 90.1141 106.405 89.3341C105.625 88.5541 104.676 88.1641 103.558 88.1641C102.466 88.1641 101.582 88.4501 100.906 89.0221C100.256 89.5941 99.9314 90.3741 99.9314 91.3621C99.9314 92.3241 100.256 93.1041 100.906 93.7021C101.582 94.2741 102.388 94.7551 103.324 95.1451C104.26 95.5351 105.196 95.9511 106.132 96.3931C107.094 96.8091 107.9 97.4201 108.55 98.2261C109.226 99.0061 109.564 99.9681 109.564 101.112C109.564 102.776 108.914 104.063 107.614 104.973C106.314 105.883 104.598 106.338 102.466 106.338C100.36 106.338 98.5794 105.779 97.1234 104.661C97.1234 103.361 97.2534 101.827 97.5134 100.059L97.9813 100.137Z" fill="#282828"/>
<path d="M127.666 101.697C128.082 100.683 128.381 99.6561 128.563 98.6161C128.771 97.5761 128.875 96.4581 128.875 95.2621C128.875 94.0661 128.849 93.0651 128.797 92.2591C128.745 91.4531 128.654 90.7381 128.524 90.1141C128.394 89.4641 128.173 88.9961 127.861 88.7101C127.289 88.2161 126.34 87.9691 125.014 87.9691L124.936 87.5401C127.198 87.2541 129.421 87.1111 131.605 87.1111V97.2901C131.605 100.176 131.696 102.074 131.878 102.984C132.06 103.868 132.502 104.31 133.204 104.31C133.646 104.31 134.231 104.128 134.959 103.764L135.154 104.154C134.946 104.31 134.673 104.505 134.335 104.739C133.997 104.947 133.308 105.233 132.268 105.597C131.228 105.961 130.227 106.143 129.265 106.143C129.005 104.635 128.875 102.893 128.875 100.917C127.679 104.531 125.612 106.338 122.674 106.338C118.696 106.338 116.707 104.258 116.707 100.098V96.3151C116.707 92.4151 116.512 90.0621 116.122 89.2561C115.992 88.9701 115.758 88.7101 115.42 88.4761C115.108 88.2421 114.757 88.0991 114.367 88.0471C114.003 87.9951 113.496 87.9691 112.846 87.9691L112.768 87.5401C115.03 87.2541 117.253 87.1111 119.437 87.1111V99.7081C119.437 101.502 119.71 102.854 120.256 103.764C120.828 104.674 121.699 105.129 122.869 105.129C124.065 105.129 125.053 104.804 125.833 104.154C126.639 103.504 127.25 102.685 127.666 101.697Z" fill="#282828"/>
<path d="M152.982 93.3511V97.2901C152.982 100.176 153.073 102.074 153.255 102.984C153.437 103.868 153.879 104.31 154.581 104.31C155.023 104.31 155.608 104.128 156.336 103.764L156.531 104.154C156.323 104.31 156.05 104.505 155.712 104.739C155.374 104.947 154.685 105.233 153.645 105.597C152.605 105.961 151.604 106.143 150.642 106.143C150.382 105.051 150.252 103.309 150.252 100.917C149.68 102.529 148.926 103.842 147.99 104.856C147.08 105.844 145.806 106.338 144.168 106.338C142.53 106.338 141.23 105.909 140.268 105.051C139.332 104.167 138.864 102.971 138.864 101.463C138.864 97.2771 142.66 95.1711 150.252 95.1451V93.7411C150.252 91.8691 149.979 90.4391 149.433 89.4511C148.887 88.4631 147.873 87.9691 146.391 87.9691C145.559 87.9691 144.883 88.1771 144.363 88.5931C143.843 89.0091 143.492 89.4641 143.31 89.9581C142.868 91.3101 142.205 91.9861 141.321 91.9861C140.463 91.9861 140.034 91.5051 140.034 90.5431C140.034 89.5551 140.684 88.7361 141.984 88.0861C143.284 87.4361 144.857 87.1111 146.703 87.1111C148.549 87.1111 150.057 87.6441 151.227 88.7101C152.397 89.7501 152.982 91.2971 152.982 93.3511ZM141.828 101.619C141.828 102.633 142.075 103.478 142.569 104.154C143.063 104.804 143.843 105.129 144.909 105.129C146.001 105.129 146.989 104.609 147.873 103.569C148.757 102.503 149.355 101.333 149.667 100.059C150.005 98.7591 150.2 97.4201 150.252 96.0421C147.366 96.0681 145.234 96.6011 143.856 97.6411C142.504 98.6811 141.828 100.007 141.828 101.619Z" fill="#282828"/>
<path d="M165.436 77.2441V99.1621C165.436 102.048 165.605 103.829 165.943 104.505C166.281 105.155 167.217 105.48 168.751 105.48L168.829 105.948H159.274L159.352 105.48C160.912 105.48 161.861 105.155 162.199 104.505C162.537 103.855 162.706 102.074 162.706 99.1621V84.2641C162.706 81.3781 162.55 79.6361 162.238 79.0381C162.134 78.8561 161.939 78.6741 161.653 78.4921C161.367 78.3101 161.055 78.2061 160.717 78.1801C160.405 78.1541 159.95 78.1411 159.352 78.1411L159.274 77.7121C161.224 77.4001 163.278 77.2441 165.436 77.2441Z" fill="#282828"/>
<path d="M191.129 78.6481C195.601 78.6481 198.955 79.0381 201.191 79.8181C202.205 80.1821 203.284 80.7021 204.428 81.3781C205.572 82.0541 206.495 82.8601 207.197 83.7961C207.925 84.7321 208.523 85.9281 208.991 87.3841C209.485 88.8401 209.732 90.4781 209.732 92.2981C209.732 94.0921 209.485 95.7171 208.991 97.1731C208.523 98.6031 207.925 99.7861 207.197 100.722C206.495 101.658 205.611 102.477 204.545 103.179C203.505 103.855 202.517 104.362 201.581 104.7C200.645 105.038 199.605 105.311 198.461 105.519C196.927 105.805 195.354 105.948 193.742 105.948H183.251L183.329 105.48C184.629 105.48 185.578 105.233 186.176 104.739C186.826 104.193 187.151 101.658 187.151 97.1341V87.4621C187.151 84.6801 187.06 82.7821 186.878 81.7681C186.722 80.7281 186.488 80.0781 186.176 79.8181C185.578 79.3241 184.629 79.0771 183.329 79.0771L183.251 78.6481H191.129ZM191.324 105.012C191.636 105.038 192.273 105.051 193.235 105.051C194.223 105.051 195.289 104.947 196.433 104.739C197.603 104.531 198.799 104.141 200.021 103.569C201.269 102.971 202.335 102.217 203.219 101.307C204.129 100.397 204.87 99.1751 205.442 97.6411C206.04 96.0811 206.339 94.3131 206.339 92.3371C206.339 90.3351 206.053 88.5671 205.481 87.0331C204.909 85.4991 204.168 84.2771 203.258 83.3671C202.348 82.4311 201.282 81.6641 200.06 81.0661C197.902 80.0521 195.523 79.5451 192.923 79.5451C191.753 79.5451 190.739 79.6231 189.881 79.7791V97.6021C189.881 100.41 189.959 102.269 190.115 103.179C190.271 104.089 190.674 104.7 191.324 105.012Z" fill="#282828"/>
<path d="M229.18 96.0811H216.388V96.7441C216.388 99.5001 216.973 101.606 218.143 103.062C219.313 104.492 220.769 105.207 222.511 105.207C225.111 105.207 226.983 104.167 228.127 102.087L228.712 102.399C227.36 105.025 225.098 106.338 221.926 106.338C219.586 106.338 217.584 105.493 215.92 103.803C214.256 102.113 213.424 99.8381 213.424 96.9781C213.424 94.0921 214.152 91.7261 215.608 89.8801C217.09 88.0341 219.053 87.1111 221.497 87.1111C223.967 87.1111 225.865 87.9561 227.191 89.6461C228.517 91.3101 229.18 93.4551 229.18 96.0811ZM221.614 87.8911C220.106 87.8911 218.91 88.5411 218.026 89.8411C217.168 91.1151 216.648 92.8181 216.466 94.9501H226.177C225.995 90.2441 224.474 87.8911 221.614 87.8911Z" fill="#282828"/>
<path d="M234.724 100.137C234.724 101.827 235.179 103.101 236.089 103.959C236.999 104.791 238.078 105.207 239.326 105.207C240.6 105.207 241.627 104.921 242.407 104.349C243.187 103.777 243.577 103.01 243.577 102.048C243.577 101.06 243.239 100.254 242.563 99.6301C241.913 99.0061 241.12 98.4991 240.184 98.1091C239.248 97.7191 238.299 97.3161 237.337 96.9001C236.401 96.4841 235.595 95.8731 234.919 95.0671C234.269 94.2611 233.944 93.1821 233.944 91.8301C233.944 90.4781 234.542 89.3601 235.738 88.4761C236.96 87.5661 238.364 87.1111 239.95 87.1111C242.212 87.1111 243.98 87.4751 245.254 88.2031C245.254 89.3991 245.098 91.0631 244.786 93.1951L244.318 93.0781C244.318 91.3621 243.928 90.1141 243.148 89.3341C242.368 88.5541 241.419 88.1641 240.301 88.1641C239.209 88.1641 238.325 88.4501 237.649 89.0221C236.999 89.5941 236.674 90.3741 236.674 91.3621C236.674 92.3241 236.999 93.1041 237.649 93.7021C238.325 94.2741 239.131 94.7551 240.067 95.1451C241.003 95.5351 241.939 95.9511 242.875 96.3931C243.837 96.8091 244.643 97.4201 245.293 98.2261C245.969 99.0061 246.307 99.9681 246.307 101.112C246.307 102.776 245.657 104.063 244.357 104.973C243.057 105.883 241.341 106.338 239.209 106.338C237.103 106.338 235.322 105.779 233.866 104.661C233.866 103.361 233.996 101.827 234.256 100.059L234.724 100.137Z" fill="#282828"/>
<path d="M253.527 82.4311C253.085 81.9891 252.864 81.4691 252.864 80.8711C252.864 80.2731 253.085 79.7531 253.527 79.3111C253.969 78.8691 254.489 78.6481 255.087 78.6481C255.685 78.6481 256.205 78.8691 256.647 79.3111C257.089 79.7531 257.31 80.2731 257.31 80.8711C257.31 81.4691 257.089 81.9891 256.647 82.4311C256.205 82.8731 255.685 83.0941 255.087 83.0941C254.489 83.0941 253.969 82.8731 253.527 82.4311ZM256.569 87.1111V99.5131C256.569 102.243 256.725 103.92 257.037 104.544C257.375 105.168 258.311 105.48 259.845 105.48L259.923 105.948H250.407L250.485 105.48C252.045 105.48 252.994 105.168 253.332 104.544C253.67 103.894 253.839 102.191 253.839 99.4351V96.7051C253.839 93.6891 253.748 91.7001 253.566 90.7381C253.41 89.7501 253.176 89.1131 252.864 88.8271C252.24 88.2551 251.278 87.9691 249.978 87.9691L249.9 87.5401C252.162 87.2541 254.385 87.1111 256.569 87.1111Z" fill="#282828"/>
<path d="M277.254 86.6821L277.02 84.6931C277.02 84.1991 277.163 83.8091 277.449 83.5231C277.761 83.2371 278.112 83.0941 278.502 83.0941C278.892 83.0941 279.23 83.2371 279.516 83.5231C279.828 83.8091 279.984 84.1991 279.984 84.6931C279.984 86.1491 278.905 87.7221 276.747 89.4121C277.891 90.6861 278.463 92.2201 278.463 94.0141C278.463 95.7821 277.761 97.3421 276.357 98.6941C274.953 100.046 273.237 100.722 271.209 100.722C269.779 100.722 268.505 100.384 267.387 99.7081C266.295 100.696 265.749 101.749 265.749 102.867C265.749 103.621 266.022 104.232 266.568 104.7C267.14 105.142 267.998 105.363 269.142 105.363C270.312 105.363 271.287 105.376 272.067 105.402C272.847 105.428 273.77 105.48 274.836 105.558C275.902 105.636 276.721 105.779 277.293 105.987C277.891 106.195 278.489 106.468 279.087 106.806C280.179 107.43 280.725 108.509 280.725 110.043C280.725 111.915 279.75 113.54 277.8 114.918C275.876 116.322 273.38 117.024 270.312 117.024C267.972 117.024 266.074 116.582 264.618 115.698C263.162 114.84 262.434 113.696 262.434 112.266C262.434 111.252 262.772 110.277 263.448 109.341C264.124 108.431 264.995 107.807 266.061 107.469C264.553 106.871 263.799 105.701 263.799 103.959C263.799 103.127 264.072 102.282 264.618 101.424C265.164 100.54 265.866 99.8251 266.724 99.2791C264.878 97.8751 263.955 96.1331 263.955 94.0531C263.955 91.9471 264.657 90.2701 266.061 89.0221C267.465 87.7481 269.168 87.1111 271.17 87.1111C273.198 87.1111 274.901 87.7221 276.279 88.9441C276.929 88.2941 277.254 87.5401 277.254 86.6821ZM265.164 111.876C265.164 113.176 265.671 114.216 266.685 114.996C267.725 115.776 269.142 116.166 270.936 116.166C272.756 116.166 274.381 115.659 275.811 114.645C277.267 113.631 277.995 112.422 277.995 111.018C277.995 109.64 277.267 108.743 275.811 108.327C274.381 107.911 271.508 107.703 267.192 107.703C266.698 107.989 266.23 108.522 265.788 109.302C265.372 110.108 265.164 110.966 265.164 111.876ZM267.933 98.0701C268.687 99.1621 269.779 99.7081 271.209 99.7081C272.639 99.7081 273.731 99.1621 274.485 98.0701C275.239 96.9521 275.616 95.5351 275.616 93.8191C275.616 92.0771 275.239 90.6861 274.485 89.6461C273.731 88.6061 272.639 88.0861 271.209 88.0861C269.779 88.0861 268.687 88.6061 267.933 89.6461C267.179 90.6861 266.802 92.0771 266.802 93.8191C266.802 95.5351 267.179 96.9521 267.933 98.0701Z" fill="#282828"/>
<path d="M289.931 87.1111V94.0921C290.165 92.2201 290.815 90.5951 291.881 89.2171C292.947 87.8131 294.364 87.1111 296.132 87.1111C300.11 87.1111 302.099 89.1911 302.099 93.3511V99.5131C302.099 102.217 302.268 103.894 302.606 104.544C302.97 105.168 303.906 105.48 305.414 105.48L305.492 105.948H296.015L296.093 105.48C297.653 105.48 298.589 105.155 298.901 104.505C299.213 103.855 299.369 102.074 299.369 99.1621V93.7411C299.369 91.9471 299.083 90.5951 298.511 89.6851C297.965 88.7751 297.081 88.3201 295.859 88.3201C294.663 88.3201 293.662 88.7361 292.856 89.5681C292.05 90.3741 291.452 91.4011 291.062 92.6491C290.308 95.0671 289.931 97.4981 289.931 99.9421C289.931 102.386 290.087 103.92 290.399 104.544C290.737 105.168 291.673 105.48 293.207 105.48L293.285 105.948H283.769L283.847 105.48C285.407 105.48 286.356 105.168 286.694 104.544C287.032 103.894 287.201 102.191 287.201 99.4351V96.3151C287.201 92.4151 287.006 90.0621 286.616 89.2561C286.486 88.9701 286.252 88.7101 285.914 88.4761C285.602 88.2421 285.251 88.0991 284.861 88.0471C284.497 87.9951 283.99 87.9691 283.34 87.9691L283.262 87.5401C285.524 87.2541 287.747 87.1111 289.931 87.1111Z" fill="#282828"/>
<defs>
<filter id="filter0_f" x="0.833252" y="174.464" width="199" height="38.3338" filterUnits="userSpaceOnUse" color-interpolation-filters="sRGB">
<feFlood flood-opacity="0" result="BackgroundImageFix"/>
<feBlend mode="normal" in="SourceGraphic" in2="BackgroundImageFix" result="shape"/>
<feGaussianBlur stdDeviation="5" result="effect1_foregroundBlur"/>
</filter>
<filter id="filter1_f" x="36.7427" y="181.573" width="131.612" height="15.8274" filterUnits="userSpaceOnUse" color-interpolation-filters="sRGB">
<feFlood flood-opacity="0" result="BackgroundImageFix"/>
<feBlend mode="normal" in="SourceGraphic" in2="BackgroundImageFix" result="shape"/>
<feGaussianBlur stdDeviation="2" result="effect1_foregroundBlur"/>
</filter>
<linearGradient id="paint0_linear" x1="100.333" y1="184.464" x2="100.333" y2="202.798" gradientUnits="userSpaceOnUse">
<stop stop-color="#B4B4B4"/>
<stop offset="1" stop-color="#F2F1EE"/>
</linearGradient>
<clipPath id="clip0">
<rect width="170.758" height="180.773" fill="white" transform="translate(10.8333 0.445312)"/>
</clipPath>
</defs>
</svg>
