<svg width="436" height="113" viewBox="0 0 436 113" fill="none" xmlns="http://www.w3.org/2000/svg">
<path d="M6.52777 14.4932C5.35444 14.4932 4.30777 14.2266 3.38777 13.6932C2.48111 13.1599 1.76777 12.3866 1.24777 11.3732C0.727773 10.3466 0.467773 9.13324 0.467773 7.73324C0.467773 6.34658 0.73444 5.13991 1.26777 4.11324C1.80111 3.07324 2.52777 2.27991 3.44777 1.73324C4.38111 1.18658 5.42777 0.913242 6.58777 0.913242C8.10777 0.913242 9.40111 1.45991 10.4678 2.55324L9.36777 3.87324C8.99444 3.49991 8.59444 3.21324 8.16777 3.01324C7.74111 2.79991 7.23444 2.69324 6.64777 2.69324C5.83444 2.69324 5.12111 2.89324 4.50777 3.29324C3.89444 3.69324 3.41444 4.27324 3.06777 5.03324C2.73444 5.77991 2.56777 6.65991 2.56777 7.67324C2.56777 9.24658 2.92777 10.4799 3.64777 11.3732C4.36777 12.2666 5.39444 12.7132 6.72777 12.7132C7.14111 12.7132 7.53444 12.6599 7.90777 12.5532C8.28111 12.4332 8.58111 12.2666 8.80777 12.0532V8.97324H6.20777V7.29324H10.6478V12.9532C10.1944 13.4199 9.60777 13.7932 8.88777 14.0732C8.16777 14.3532 7.38111 14.4932 6.52777 14.4932Z" fill="#484848"/>
<path d="M17.7887 14.4932C16.9754 14.4932 16.2154 14.2866 15.5087 13.8732C14.802 13.4599 14.2354 12.8666 13.8087 12.0932C13.3954 11.3199 13.1887 10.4132 13.1887 9.37324C13.1887 8.31991 13.3954 7.40658 13.8087 6.63324C14.2354 5.85991 14.7954 5.26658 15.4887 4.85324C16.1954 4.43991 16.962 4.23324 17.7887 4.23324C18.6154 4.23324 19.3754 4.43991 20.0687 4.85324C20.7754 5.26658 21.3354 5.85991 21.7487 6.63324C22.1754 7.40658 22.3887 8.31991 22.3887 9.37324C22.3887 10.4132 22.1754 11.3199 21.7487 12.0932C21.3354 12.8666 20.7754 13.4599 20.0687 13.8732C19.362 14.2866 18.602 14.4932 17.7887 14.4932ZM17.7887 12.8332C18.562 12.8332 19.1754 12.5199 19.6287 11.8932C20.082 11.2532 20.3087 10.4132 20.3087 9.37324C20.3087 8.33324 20.0754 7.49324 19.6087 6.85324C19.1554 6.21324 18.5487 5.89324 17.7887 5.89324C17.0287 5.89324 16.4154 6.21324 15.9487 6.85324C15.4954 7.49324 15.2687 8.33324 15.2687 9.37324C15.2687 10.4132 15.4954 11.2532 15.9487 11.8932C16.402 12.5199 17.0154 12.8332 17.7887 12.8332Z" fill="#484848"/>
<path d="M29.1067 14.4932C28.2933 14.4932 27.5333 14.2866 26.8267 13.8732C26.12 13.4599 25.5533 12.8666 25.1267 12.0932C24.7133 11.3199 24.5067 10.4132 24.5067 9.37324C24.5067 8.31991 24.7133 7.40658 25.1267 6.63324C25.5533 5.85991 26.1133 5.26658 26.8067 4.85324C27.5133 4.43991 28.28 4.23324 29.1067 4.23324C29.9333 4.23324 30.6933 4.43991 31.3867 4.85324C32.0933 5.26658 32.6533 5.85991 33.0667 6.63324C33.4933 7.40658 33.7067 8.31991 33.7067 9.37324C33.7067 10.4132 33.4933 11.3199 33.0667 12.0932C32.6533 12.8666 32.0933 13.4599 31.3867 13.8732C30.68 14.2866 29.92 14.4932 29.1067 14.4932ZM29.1067 12.8332C29.88 12.8332 30.4933 12.5199 30.9467 11.8932C31.4 11.2532 31.6267 10.4132 31.6267 9.37324C31.6267 8.33324 31.3933 7.49324 30.9267 6.85324C30.4733 6.21324 29.8667 5.89324 29.1067 5.89324C28.3467 5.89324 27.7333 6.21324 27.2667 6.85324C26.8133 7.49324 26.5867 8.33324 26.5867 9.37324C26.5867 10.4132 26.8133 11.2532 27.2667 11.8932C27.72 12.5199 28.3333 12.8332 29.1067 12.8332Z" fill="#484848"/>
<path d="M39.8647 18.6532C38.6513 18.6532 37.6713 18.4266 36.9246 17.9732C36.178 17.5332 35.8046 16.8999 35.8046 16.0732C35.8046 15.6599 35.9246 15.2666 36.1646 14.8932C36.418 14.5332 36.7713 14.2132 37.2246 13.9332V13.8532C36.638 13.4799 36.3447 12.9399 36.3447 12.2332C36.3447 11.8732 36.4446 11.5332 36.6446 11.2132C36.858 10.8932 37.118 10.6266 37.4246 10.4132V10.3332C37.0646 10.0532 36.758 9.68658 36.5047 9.23324C36.2646 8.77991 36.1446 8.27991 36.1446 7.73324C36.1446 7.02658 36.3113 6.40658 36.6446 5.87324C36.9913 5.33991 37.4513 4.93324 38.0247 4.65324C38.6113 4.37324 39.2446 4.23324 39.9246 4.23324C40.4313 4.23324 40.9047 4.31324 41.3447 4.47324H44.8046V5.99324H42.9246C43.1246 6.20658 43.2846 6.47324 43.4046 6.79324C43.5246 7.09991 43.5846 7.43324 43.5846 7.79324C43.5846 8.83324 43.238 9.65324 42.5447 10.2532C41.8513 10.8532 40.978 11.1532 39.9246 11.1532C39.4446 11.1532 38.9846 11.0532 38.5447 10.8532C38.3713 11.0132 38.238 11.1732 38.1446 11.3332C38.0513 11.4799 38.0047 11.6666 38.0047 11.8932C38.0047 12.1999 38.1313 12.4399 38.3847 12.6132C38.638 12.7732 39.058 12.8532 39.6446 12.8532H41.4646C42.638 12.8532 43.5113 13.0466 44.0846 13.4332C44.6713 13.8199 44.9646 14.4199 44.9646 15.2332C44.9646 15.8599 44.7513 16.4332 44.3246 16.9532C43.9113 17.4732 43.318 17.8866 42.5447 18.1932C41.7713 18.4999 40.878 18.6532 39.8647 18.6532ZM39.9246 9.85324C40.458 9.85324 40.898 9.65991 41.2446 9.27324C41.6046 8.88658 41.7846 8.37324 41.7846 7.73324C41.7846 7.09324 41.6046 6.58658 41.2446 6.21324C40.898 5.83991 40.458 5.65324 39.9246 5.65324C39.3913 5.65324 38.9446 5.83991 38.5846 6.21324C38.238 6.58658 38.0646 7.09324 38.0646 7.73324C38.0646 8.37324 38.238 8.88658 38.5846 9.27324C38.9446 9.65991 39.3913 9.85324 39.9246 9.85324ZM40.1646 17.3132C40.7113 17.3132 41.198 17.2332 41.6246 17.0732C42.0646 16.9132 42.4047 16.6932 42.6446 16.4132C42.8847 16.1466 43.0047 15.8599 43.0047 15.5532C43.0047 15.1532 42.8513 14.8732 42.5447 14.7132C42.2513 14.5532 41.798 14.4732 41.1847 14.4732H39.6847C39.1913 14.4732 38.758 14.4266 38.3847 14.3332C37.8113 14.7599 37.5247 15.2399 37.5247 15.7732C37.5247 16.2532 37.758 16.6266 38.2246 16.8932C38.6913 17.1732 39.338 17.3132 40.1646 17.3132Z" fill="#484848"/>
<path d="M49.1786 14.4932C48.4719 14.4932 47.9586 14.2799 47.6386 13.8532C47.3186 13.4266 47.1586 12.7999 47.1586 11.9732V0.0732422H49.1786V12.0932C49.1786 12.3466 49.2252 12.5332 49.3186 12.6532C49.4119 12.7732 49.5252 12.8332 49.6586 12.8332C49.7786 12.8332 49.8986 12.8199 50.0186 12.7932L50.2786 14.3132C49.9719 14.4332 49.6052 14.4932 49.1786 14.4932Z" fill="#484848"/>
<path d="M60.592 8.85324C60.592 9.22658 60.5653 9.57324 60.512 9.89324H54.052C54.1453 10.8799 54.4787 11.6332 55.052 12.1532C55.6387 12.6599 56.3453 12.9132 57.172 12.9132C57.9587 12.9132 58.7387 12.6666 59.512 12.1732L60.212 13.4532C59.172 14.1466 58.072 14.4932 56.912 14.4932C56.0187 14.4932 55.212 14.2866 54.492 13.8732C53.772 13.4599 53.1987 12.8666 52.772 12.0932C52.3587 11.3199 52.152 10.4132 52.152 9.37324C52.152 8.34658 52.3587 7.44658 52.772 6.67324C53.1987 5.88658 53.752 5.28658 54.432 4.87324C55.112 4.44658 55.8387 4.23324 56.612 4.23324C57.8787 4.23324 58.8587 4.65324 59.552 5.49324C60.2453 6.31991 60.592 7.43991 60.592 8.85324ZM58.832 8.49324C58.832 7.63991 58.6453 6.97991 58.272 6.51324C57.8987 6.04658 57.3587 5.81324 56.652 5.81324C56.0387 5.81324 55.492 6.03991 55.012 6.49324C54.532 6.94658 54.2253 7.61324 54.092 8.49324H58.832Z" fill="#484848"/>
<path d="M67.855 1.15324H70.215L72.615 7.81324L73.095 9.27324L73.495 10.4532H73.575C73.7883 9.81324 73.9216 9.39991 73.975 9.21324L74.435 7.81324L76.795 1.15324H79.155V14.2532H77.275V7.73324C77.275 7.01324 77.3483 5.81991 77.495 4.15324L77.535 3.69324H77.455L76.415 6.71324L74.115 12.9732H72.855L70.555 6.71324L69.515 3.69324H69.435L69.475 4.15324C69.6216 5.81991 69.695 7.01324 69.695 7.73324V14.2532H67.855V1.15324Z" fill="#484848"/>
<path d="M85.1411 14.4932C84.2877 14.4932 83.5944 14.2399 83.0611 13.7332C82.5277 13.2132 82.2611 12.5199 82.2611 11.6532C82.2611 10.5999 82.7277 9.79324 83.661 9.23324C84.5944 8.65991 86.0811 8.25991 88.1211 8.03324C88.0944 6.59324 87.4677 5.87324 86.2411 5.87324C85.4144 5.87324 84.4744 6.20658 83.4211 6.87324L82.661 5.51324C83.9944 4.65991 85.3077 4.23324 86.6011 4.23324C87.7877 4.23324 88.6744 4.59324 89.2611 5.31324C89.8477 6.01991 90.1411 7.03991 90.1411 8.37324V14.2532H88.481L88.3211 13.1332H88.2611C87.1811 14.0399 86.1411 14.4932 85.1411 14.4932ZM85.7611 12.8932C86.1744 12.8932 86.5611 12.7999 86.9211 12.6132C87.2811 12.4266 87.6811 12.1332 88.1211 11.7332V9.31324C86.7077 9.48658 85.701 9.75324 85.1011 10.1132C84.5144 10.4732 84.2211 10.9399 84.2211 11.5132C84.2211 11.9666 84.3611 12.3132 84.6411 12.5532C84.9211 12.7799 85.2944 12.8932 85.7611 12.8932Z" fill="#484848"/>
<path d="M93.4359 4.47324H95.0959L95.2559 5.55324H95.3159C96.3692 4.67324 97.3759 4.23324 98.3359 4.23324C99.5626 4.23324 100.509 4.67991 101.176 5.57324C101.856 6.46658 102.196 7.67991 102.196 9.21324C102.196 10.2932 102.003 11.2332 101.616 12.0332C101.229 12.8199 100.716 13.4266 100.076 13.8532C99.4359 14.2799 98.7426 14.4932 97.9959 14.4932C97.1426 14.4932 96.2759 14.1266 95.3959 13.3932L95.4559 15.0532V18.2332H93.4359V4.47324ZM97.5959 12.8132C98.3426 12.8132 98.9492 12.4999 99.4159 11.8732C99.8826 11.2332 100.116 10.3532 100.116 9.23324C100.116 7.01991 99.3426 5.91324 97.7959 5.91324C97.0759 5.91324 96.2959 6.31324 95.4559 7.11324V11.9132C96.1626 12.5132 96.8759 12.8132 97.5959 12.8132Z" fill="#484848"/>
<path d="M107.629 14.4932C106.975 14.4932 106.322 14.3666 105.669 14.1132C105.015 13.8599 104.442 13.5332 103.949 13.1332L104.909 11.8332C105.375 12.1932 105.829 12.4732 106.269 12.6732C106.709 12.8599 107.182 12.9532 107.689 12.9532C108.249 12.9532 108.675 12.8332 108.969 12.5932C109.262 12.3399 109.409 12.0199 109.409 11.6332C109.409 11.2332 109.229 10.9199 108.869 10.6932C108.509 10.4532 107.969 10.1999 107.249 9.93324C106.382 9.61324 105.695 9.24658 105.189 8.83324C104.682 8.40658 104.429 7.82658 104.429 7.09324C104.429 6.25324 104.742 5.56658 105.369 5.03324C105.995 4.49991 106.842 4.23324 107.909 4.23324C109.055 4.23324 110.109 4.61324 111.069 5.37324L110.129 6.63324C109.755 6.35324 109.395 6.13991 109.049 5.99324C108.702 5.84658 108.335 5.77324 107.949 5.77324C107.429 5.77324 107.029 5.88658 106.749 6.11324C106.482 6.33991 106.349 6.63324 106.349 6.99324C106.349 7.25991 106.442 7.48658 106.629 7.67324C106.815 7.84658 107.029 7.98658 107.269 8.09324C107.522 8.19991 107.915 8.35324 108.449 8.55324C109.035 8.76658 109.522 8.98658 109.909 9.21324C110.309 9.42658 110.642 9.71991 110.909 10.0932C111.189 10.4666 111.329 10.9399 111.329 11.5132C111.329 12.0732 111.182 12.5799 110.889 13.0332C110.609 13.4732 110.189 13.8266 109.629 14.0932C109.069 14.3599 108.402 14.4932 107.629 14.4932Z" fill="#484848"/>
<rect opacity="0.5" x="134.028" y="3.76953" width="237.556" height="11.5498" rx="5.77492" fill="#81D3C8"/>
<rect x="134.028" y="3.76953" width="237.556" height="11.5498" rx="5.77492" fill="#18A2A2"/>
<path d="M386.14 12.0177H389.02V3.2177H386.68V1.9377C387.813 1.7377 388.76 1.40436 389.52 0.937696H391.04V12.0177H393.6V13.6777H386.14V12.0177Z" fill="#484848"/>
<path d="M400.357 13.9177C399.037 13.9177 398.004 13.3377 397.257 12.1777C396.511 11.0177 396.137 9.3777 396.137 7.2577C396.137 5.1377 396.511 3.5177 397.257 2.3977C398.004 1.26436 399.037 0.697695 400.357 0.697695C401.677 0.697695 402.711 1.26436 403.457 2.3977C404.204 3.53103 404.577 5.15103 404.577 7.2577C404.577 9.3777 404.204 11.0177 403.457 12.1777C402.711 13.3377 401.677 13.9177 400.357 13.9177ZM400.357 12.3177C401.064 12.3177 401.617 11.911 402.017 11.0977C402.431 10.2844 402.637 9.00436 402.637 7.2577C402.637 3.95103 401.877 2.2977 400.357 2.2977C398.837 2.2977 398.077 3.95103 398.077 7.2577C398.077 9.00436 398.277 10.2844 398.677 11.0977C399.091 11.911 399.651 12.3177 400.357 12.3177Z" fill="#484848"/>
<path d="M411.275 13.9177C409.955 13.9177 408.921 13.3377 408.175 12.1777C407.428 11.0177 407.055 9.3777 407.055 7.2577C407.055 5.1377 407.428 3.5177 408.175 2.3977C408.921 1.26436 409.955 0.697695 411.275 0.697695C412.595 0.697695 413.628 1.26436 414.375 2.3977C415.121 3.53103 415.495 5.15103 415.495 7.2577C415.495 9.3777 415.121 11.0177 414.375 12.1777C413.628 13.3377 412.595 13.9177 411.275 13.9177ZM411.275 12.3177C411.981 12.3177 412.535 11.911 412.935 11.0977C413.348 10.2844 413.555 9.00436 413.555 7.2577C413.555 3.95103 412.795 2.2977 411.275 2.2977C409.755 2.2977 408.995 3.95103 408.995 7.2577C408.995 9.00436 409.195 10.2844 409.595 11.0977C410.008 11.911 410.568 12.3177 411.275 12.3177Z" fill="#484848"/>
<path d="M420.832 8.4177C419.912 8.4177 419.172 8.05103 418.612 7.3177C418.052 6.58436 417.772 5.56436 417.772 4.2577C417.772 2.96436 418.052 1.9577 418.612 1.2377C419.172 0.504362 419.912 0.137695 420.832 0.137695C421.752 0.137695 422.492 0.504362 423.052 1.2377C423.612 1.9577 423.892 2.96436 423.892 4.2577C423.892 5.56436 423.612 6.58436 423.052 7.3177C422.492 8.05103 421.752 8.4177 420.832 8.4177ZM428.352 0.337695H429.632L422.452 13.9177H421.172L428.352 0.337695ZM420.832 7.2177C421.312 7.2177 421.692 6.97103 421.972 6.4777C422.265 5.97103 422.412 5.23103 422.412 4.2577C422.412 3.28436 422.265 2.5577 421.972 2.0777C421.692 1.58436 421.312 1.3377 420.832 1.3377C420.352 1.3377 419.965 1.58436 419.672 2.0777C419.392 2.5577 419.252 3.28436 419.252 4.2577C419.252 5.23103 419.392 5.97103 419.672 6.4777C419.965 6.97103 420.352 7.2177 420.832 7.2177ZM430.012 13.9177C429.092 13.9177 428.352 13.551 427.792 12.8177C427.232 12.0844 426.952 11.0644 426.952 9.7577C426.952 8.46436 427.232 7.4577 427.792 6.7377C428.352 6.00436 429.092 5.6377 430.012 5.6377C430.932 5.6377 431.672 6.00436 432.232 6.7377C432.792 7.4577 433.072 8.46436 433.072 9.7577C433.072 11.0644 432.792 12.0844 432.232 12.8177C431.672 13.551 430.932 13.9177 430.012 13.9177ZM430.012 12.7177C430.492 12.7177 430.872 12.471 431.152 11.9777C431.445 11.471 431.592 10.731 431.592 9.7577C431.592 8.78436 431.445 8.0577 431.152 7.5777C430.872 7.08436 430.492 6.8377 430.012 6.8377C429.532 6.8377 429.145 7.08436 428.852 7.5777C428.572 8.0577 428.432 8.78436 428.432 9.7577C428.432 10.731 428.572 11.471 428.852 11.9777C429.145 12.471 429.532 12.7177 430.012 12.7177Z" fill="#484848"/>
<path d="M53.4028 47.3541H55.7628L58.1628 54.0141L58.6428 55.4741L59.0428 56.6541H59.1228C59.3362 56.0141 59.4695 55.6007 59.5228 55.4141L59.9828 54.0141L62.3428 47.3541H64.7028V60.4541H62.8228V53.9341C62.8228 53.2141 62.8962 52.0207 63.0428 50.3541L63.0828 49.8941H63.0028L61.9628 52.9141L59.6628 59.1741H58.4028L56.1028 52.9141L55.0628 49.8941H54.9828L55.0228 50.3541C55.1695 52.0207 55.2428 53.2141 55.2428 53.9341V60.4541H53.4028V47.3541Z" fill="#484848"/>
<path d="M72.2889 60.6941C71.4756 60.6941 70.7156 60.4874 70.0089 60.0741C69.3023 59.6607 68.7356 59.0674 68.3089 58.2941C67.8956 57.5207 67.6889 56.6141 67.6889 55.5741C67.6889 54.5207 67.8956 53.6074 68.3089 52.8341C68.7356 52.0607 69.2956 51.4674 69.9889 51.0541C70.6956 50.6407 71.4623 50.4341 72.2889 50.4341C73.1156 50.4341 73.8756 50.6407 74.5689 51.0541C75.2756 51.4674 75.8356 52.0607 76.2489 52.8341C76.6756 53.6074 76.8889 54.5207 76.8889 55.5741C76.8889 56.6141 76.6756 57.5207 76.2489 58.2941C75.8356 59.0674 75.2756 59.6607 74.5689 60.0741C73.8623 60.4874 73.1023 60.6941 72.2889 60.6941ZM72.2889 59.0341C73.0623 59.0341 73.6756 58.7207 74.1289 58.0941C74.5823 57.4541 74.8089 56.6141 74.8089 55.5741C74.8089 54.5341 74.5756 53.6941 74.1089 53.0541C73.6556 52.4141 73.0489 52.0941 72.2889 52.0941C71.5289 52.0941 70.9156 52.4141 70.4489 53.0541C69.9956 53.6941 69.7689 54.5341 69.7689 55.5741C69.7689 56.6141 69.9956 57.4541 70.4489 58.0941C70.9023 58.7207 71.5156 59.0341 72.2889 59.0341Z" fill="#484848"/>
<path d="M83.6069 60.6941C82.7936 60.6941 82.0336 60.4874 81.3269 60.0741C80.6202 59.6607 80.0536 59.0674 79.6269 58.2941C79.2136 57.5207 79.0069 56.6141 79.0069 55.5741C79.0069 54.5207 79.2136 53.6074 79.6269 52.8341C80.0536 52.0607 80.6136 51.4674 81.3069 51.0541C82.0136 50.6407 82.7802 50.4341 83.6069 50.4341C84.4336 50.4341 85.1936 50.6407 85.8869 51.0541C86.5936 51.4674 87.1536 52.0607 87.5669 52.8341C87.9936 53.6074 88.2069 54.5207 88.2069 55.5741C88.2069 56.6141 87.9936 57.5207 87.5669 58.2941C87.1536 59.0674 86.5936 59.6607 85.8869 60.0741C85.1802 60.4874 84.4202 60.6941 83.6069 60.6941ZM83.6069 59.0341C84.3802 59.0341 84.9936 58.7207 85.4469 58.0941C85.9002 57.4541 86.1269 56.6141 86.1269 55.5741C86.1269 54.5341 85.8936 53.6941 85.4269 53.0541C84.9736 52.4141 84.3669 52.0941 83.6069 52.0941C82.8469 52.0941 82.2336 52.4141 81.7669 53.0541C81.3136 53.6941 81.0869 54.5341 81.0869 55.5741C81.0869 56.6141 81.3136 57.4541 81.7669 58.0941C82.2202 58.7207 82.8336 59.0341 83.6069 59.0341Z" fill="#484848"/>
<path d="M89.6072 50.6741H91.6672L93.3472 55.9541L94.2072 58.8741H94.2872L95.1472 55.9541L96.8272 50.6741H98.7872L95.4072 60.4541H93.0672L89.6072 50.6741Z" fill="#484848"/>
<path d="M100.975 50.6741H102.995V60.4541H100.975V50.6741ZM101.995 48.8341C101.635 48.8341 101.335 48.7207 101.095 48.4941C100.869 48.2674 100.755 47.9741 100.755 47.6141C100.755 47.2674 100.869 46.9807 101.095 46.7541C101.335 46.5274 101.635 46.4141 101.995 46.4141C102.355 46.4141 102.649 46.5274 102.875 46.7541C103.115 46.9807 103.235 47.2674 103.235 47.6141C103.235 47.9741 103.115 48.2674 102.875 48.4941C102.649 48.7207 102.355 48.8341 101.995 48.8341Z" fill="#484848"/>
<path d="M109.753 60.6941C107.779 60.6941 106.793 59.5541 106.793 57.2741V52.2941H105.373V50.7741L106.893 50.6741L107.133 47.9741H108.813V50.6741H111.373V52.2941H108.813V57.2741C108.813 57.8741 108.926 58.3274 109.153 58.6341C109.379 58.9274 109.746 59.0741 110.253 59.0741C110.559 59.0741 110.913 58.9941 111.313 58.8341L111.673 60.3341C110.953 60.5741 110.313 60.6941 109.753 60.6941Z" fill="#484848"/>
<rect opacity="0.5" x="134.028" y="50.5967" width="237.556" height="11.5498" rx="5.77492" fill="#81D3C8"/>
<rect x="134.028" y="50.5967" width="78" height="11.5498" rx="5.77492" fill="#18A2A2"/>
<path d="M402.307 61.0769C400.547 61.0769 399.127 60.4769 398.047 59.2769L399.027 57.9769C399.467 58.4169 399.941 58.7702 400.447 59.0369C400.954 59.2902 401.521 59.4169 402.147 59.4169C402.881 59.4169 403.474 59.2302 403.927 58.8569C404.394 58.4702 404.627 57.9569 404.627 57.3169C404.627 56.5702 404.327 55.9969 403.727 55.5969C403.141 55.1969 402.147 54.9969 400.747 54.9969V53.4969C403.041 53.4969 404.187 52.7702 404.187 51.3169C404.187 50.7435 404.007 50.2969 403.647 49.9769C403.287 49.6435 402.794 49.4769 402.167 49.4769C401.274 49.4769 400.401 49.8902 399.547 50.7169L398.487 49.4569C399.674 48.3902 400.927 47.8569 402.247 47.8569C403.447 47.8569 404.407 48.1502 405.127 48.7369C405.861 49.3235 406.227 50.1302 406.227 51.1569C406.227 52.5569 405.474 53.5502 403.967 54.1369V54.2169C404.767 54.4169 405.414 54.7969 405.907 55.3569C406.414 55.9035 406.667 56.5902 406.667 57.4169C406.667 58.1635 406.474 58.8169 406.087 59.3769C405.701 59.9235 405.174 60.3435 404.507 60.6369C403.854 60.9302 403.121 61.0769 402.307 61.0769Z" fill="#484848"/>
<path d="M413.225 61.0769C411.465 61.0769 410.045 60.4769 408.965 59.2769L409.945 57.9769C410.385 58.4169 410.858 58.7702 411.365 59.0369C411.871 59.2902 412.438 59.4169 413.065 59.4169C413.798 59.4169 414.391 59.2302 414.845 58.8569C415.311 58.4702 415.545 57.9569 415.545 57.3169C415.545 56.5702 415.245 55.9969 414.645 55.5969C414.058 55.1969 413.065 54.9969 411.665 54.9969V53.4969C413.958 53.4969 415.105 52.7702 415.105 51.3169C415.105 50.7435 414.925 50.2969 414.565 49.9769C414.205 49.6435 413.711 49.4769 413.085 49.4769C412.191 49.4769 411.318 49.8902 410.465 50.7169L409.405 49.4569C410.591 48.3902 411.845 47.8569 413.165 47.8569C414.365 47.8569 415.325 48.1502 416.045 48.7369C416.778 49.3235 417.145 50.1302 417.145 51.1569C417.145 52.5569 416.391 53.5502 414.885 54.1369V54.2169C415.685 54.4169 416.331 54.7969 416.825 55.3569C417.331 55.9035 417.585 56.5902 417.585 57.4169C417.585 58.1635 417.391 58.8169 417.005 59.3769C416.618 59.9235 416.091 60.3435 415.425 60.6369C414.771 60.9302 414.038 61.0769 413.225 61.0769Z" fill="#484848"/>
<path d="M423.082 55.5769C422.162 55.5769 421.422 55.2102 420.862 54.4769C420.302 53.7435 420.022 52.7235 420.022 51.4169C420.022 50.1235 420.302 49.1169 420.862 48.3969C421.422 47.6635 422.162 47.2969 423.082 47.2969C424.002 47.2969 424.742 47.6635 425.302 48.3969C425.862 49.1169 426.142 50.1235 426.142 51.4169C426.142 52.7235 425.862 53.7435 425.302 54.4769C424.742 55.2102 424.002 55.5769 423.082 55.5769ZM430.602 47.4969H431.882L424.702 61.0769H423.422L430.602 47.4969ZM423.082 54.3769C423.562 54.3769 423.942 54.1302 424.222 53.6369C424.515 53.1302 424.662 52.3902 424.662 51.4169C424.662 50.4435 424.515 49.7169 424.222 49.2369C423.942 48.7435 423.562 48.4969 423.082 48.4969C422.602 48.4969 422.215 48.7435 421.922 49.2369C421.642 49.7169 421.502 50.4435 421.502 51.4169C421.502 52.3902 421.642 53.1302 421.922 53.6369C422.215 54.1302 422.602 54.3769 423.082 54.3769ZM432.262 61.0769C431.342 61.0769 430.602 60.7102 430.042 59.9769C429.482 59.2435 429.202 58.2235 429.202 56.9169C429.202 55.6235 429.482 54.6169 430.042 53.8969C430.602 53.1635 431.342 52.7969 432.262 52.7969C433.182 52.7969 433.922 53.1635 434.482 53.8969C435.042 54.6169 435.322 55.6235 435.322 56.9169C435.322 58.2235 435.042 59.2435 434.482 59.9769C433.922 60.7102 433.182 61.0769 432.262 61.0769ZM432.262 59.8769C432.742 59.8769 433.122 59.6302 433.402 59.1369C433.695 58.6302 433.842 57.8902 433.842 56.9169C433.842 55.9435 433.695 55.2169 433.402 54.7369C433.122 54.2435 432.742 53.9969 432.262 53.9969C431.782 53.9969 431.395 54.2435 431.102 54.7369C430.822 55.2169 430.682 55.9435 430.682 56.9169C430.682 57.8902 430.822 58.6302 431.102 59.1369C431.395 59.6302 431.782 59.8769 432.262 59.8769Z" fill="#484848"/>
<path d="M17.2736 108.244C16.1669 108.244 15.1736 107.977 14.2936 107.444C13.4136 106.911 12.7203 106.137 12.2136 105.124C11.7069 104.097 11.4536 102.884 11.4536 101.484C11.4536 100.097 11.7136 98.8905 12.2336 97.8639C12.7536 96.8372 13.4603 96.0505 14.3536 95.5039C15.2603 94.9439 16.2669 94.6639 17.3736 94.6639C18.1336 94.6639 18.8269 94.8172 19.4536 95.1239C20.0936 95.4305 20.6336 95.8239 21.0736 96.3039L19.9736 97.6239C19.2136 96.8372 18.3603 96.4439 17.4136 96.4439C16.6536 96.4439 15.9803 96.6505 15.3936 97.0639C14.8203 97.4639 14.3669 98.0372 14.0336 98.7839C13.7136 99.5305 13.5536 100.411 13.5536 101.424C13.5536 102.984 13.8936 104.217 14.5736 105.124C15.2669 106.017 16.1936 106.464 17.3536 106.464C18.4469 106.464 19.4136 105.997 20.2536 105.064L21.3536 106.344C20.2736 107.611 18.9136 108.244 17.2736 108.244Z" fill="#484848"/>
<path d="M23.878 98.2239H25.898V108.004H23.878V98.2239ZM24.898 96.3839C24.538 96.3839 24.238 96.2705 23.998 96.0439C23.7713 95.8172 23.658 95.5239 23.658 95.1639C23.658 94.8172 23.7713 94.5305 23.998 94.3039C24.238 94.0772 24.538 93.9639 24.898 93.9639C25.258 93.9639 25.5513 94.0772 25.778 94.3039C26.018 94.5305 26.138 94.8172 26.138 95.1639C26.138 95.5239 26.018 95.8172 25.778 96.0439C25.5513 96.2705 25.258 96.3839 24.898 96.3839Z" fill="#484848"/>
<path d="M32.6556 108.244C30.6823 108.244 29.6956 107.104 29.6956 104.824V99.8439H28.2756V98.3239L29.7956 98.2239L30.0356 95.5239H31.7156V98.2239H34.2756V99.8439H31.7156V104.824C31.7156 105.424 31.829 105.877 32.0556 106.184C32.2823 106.477 32.649 106.624 33.1556 106.624C33.4623 106.624 33.8156 106.544 34.2156 106.384L34.5756 107.884C33.8556 108.124 33.2156 108.244 32.6556 108.244Z" fill="#484848"/>
<path d="M37.2274 112.104C36.7874 112.104 36.3807 112.037 36.0074 111.904L36.3874 110.324C36.694 110.417 36.934 110.464 37.1074 110.464C38.0674 110.464 38.754 109.844 39.1674 108.604L39.3674 107.944L35.4874 98.2239H37.5474L39.3674 103.284L39.9674 105.104L40.2674 106.044H40.3474C40.494 105.564 40.6074 105.151 40.6874 104.804L41.1274 103.284L42.7074 98.2239H44.6674L41.0674 108.604C40.654 109.751 40.154 110.617 39.5674 111.204C38.9807 111.804 38.2007 112.104 37.2274 112.104Z" fill="#484848"/>
<path d="M47.0353 94.9039H49.3953L51.7953 101.564L52.2753 103.024L52.6753 104.204H52.7553C52.9687 103.564 53.102 103.151 53.1553 102.964L53.6153 101.564L55.9753 94.9039H58.3353V108.004H56.4553V101.484C56.4553 100.764 56.5287 99.5705 56.6753 97.9039L56.7153 97.4439H56.6353L55.5953 100.464L53.2953 106.724H52.0353L49.7353 100.464L48.6953 97.4439H48.6153L48.6553 97.9039C48.802 99.5705 48.8753 100.764 48.8753 101.484V108.004H47.0353V94.9039Z" fill="#484848"/>
<path d="M64.3214 108.244C63.4681 108.244 62.7748 107.991 62.2414 107.484C61.7081 106.964 61.4414 106.271 61.4414 105.404C61.4414 104.351 61.9081 103.544 62.8414 102.984C63.7748 102.411 65.2614 102.011 67.3014 101.784C67.2748 100.344 66.6481 99.6239 65.4214 99.6239C64.5948 99.6239 63.6548 99.9572 62.6014 100.624L61.8414 99.2639C63.1748 98.4105 64.4881 97.9839 65.7814 97.9839C66.9681 97.9839 67.8548 98.3439 68.4414 99.0639C69.0281 99.7705 69.3214 100.791 69.3214 102.124V108.004H67.6614L67.5014 106.884H67.4414C66.3614 107.791 65.3214 108.244 64.3214 108.244ZM64.9414 106.644C65.3548 106.644 65.7414 106.551 66.1014 106.364C66.4614 106.177 66.8614 105.884 67.3014 105.484V103.064C65.8881 103.237 64.8814 103.504 64.2814 103.864C63.6948 104.224 63.4014 104.691 63.4014 105.264C63.4014 105.717 63.5414 106.064 63.8214 106.304C64.1014 106.531 64.4748 106.644 64.9414 106.644Z" fill="#484848"/>
<path d="M72.6163 98.2239H74.2763L74.4363 99.3039H74.4963C75.5496 98.4239 76.5563 97.9839 77.5163 97.9839C78.7429 97.9839 79.6896 98.4305 80.3563 99.3239C81.0363 100.217 81.3763 101.431 81.3763 102.964C81.3763 104.044 81.1829 104.984 80.7963 105.784C80.4096 106.571 79.8963 107.177 79.2563 107.604C78.6163 108.031 77.9229 108.244 77.1763 108.244C76.3229 108.244 75.4563 107.877 74.5763 107.144L74.6363 108.804V111.984H72.6163V98.2239ZM76.7763 106.564C77.5229 106.564 78.1296 106.251 78.5963 105.624C79.0629 104.984 79.2963 104.104 79.2963 102.984C79.2963 100.771 78.5229 99.6639 76.9763 99.6639C76.2563 99.6639 75.4763 100.064 74.6363 100.864V105.664C75.3429 106.264 76.0563 106.564 76.7763 106.564Z" fill="#484848"/>
<path d="M84.2077 98.2239H85.8677L86.0277 99.3039H86.0877C87.141 98.4239 88.1477 97.9839 89.1077 97.9839C90.3344 97.9839 91.281 98.4305 91.9477 99.3239C92.6277 100.217 92.9677 101.431 92.9677 102.964C92.9677 104.044 92.7743 104.984 92.3877 105.784C92.001 106.571 91.4877 107.177 90.8477 107.604C90.2077 108.031 89.5143 108.244 88.7677 108.244C87.9143 108.244 87.0477 107.877 86.1677 107.144L86.2277 108.804V111.984H84.2077V98.2239ZM88.3677 106.564C89.1143 106.564 89.721 106.251 90.1877 105.624C90.6543 104.984 90.8877 104.104 90.8877 102.984C90.8877 100.771 90.1143 99.6639 88.5677 99.6639C87.8477 99.6639 87.0677 100.064 86.2277 100.864V105.664C86.9343 106.264 87.6477 106.564 88.3677 106.564Z" fill="#484848"/>
<path d="M103.559 102.604C103.559 102.977 103.532 103.324 103.479 103.644H97.0191C97.1124 104.631 97.4457 105.384 98.0191 105.904C98.6058 106.411 99.3124 106.664 100.139 106.664C100.926 106.664 101.706 106.417 102.479 105.924L103.179 107.204C102.139 107.897 101.039 108.244 99.8791 108.244C98.9857 108.244 98.1791 108.037 97.4591 107.624C96.7391 107.211 96.1657 106.617 95.7391 105.844C95.3258 105.071 95.1191 104.164 95.1191 103.124C95.1191 102.097 95.3258 101.197 95.7391 100.424C96.1657 99.6372 96.7191 99.0372 97.3991 98.6239C98.0791 98.1972 98.8057 97.9839 99.5791 97.9839C100.846 97.9839 101.826 98.4039 102.519 99.2439C103.212 100.071 103.559 101.191 103.559 102.604ZM101.799 102.244C101.799 101.391 101.612 100.731 101.239 100.264C100.866 99.7972 100.326 99.5639 99.6191 99.5639C99.0057 99.5639 98.4591 99.7905 97.9791 100.244C97.4991 100.697 97.1924 101.364 97.0591 102.244H101.799Z" fill="#484848"/>
<path d="M106.238 98.2239H107.898L108.058 99.9839H108.118C108.465 99.3572 108.878 98.8705 109.358 98.5239C109.851 98.1639 110.365 97.9839 110.898 97.9839C111.338 97.9839 111.698 98.0505 111.978 98.1839L111.618 99.9439C111.258 99.8372 110.931 99.7839 110.638 99.7839C110.198 99.7839 109.765 99.9572 109.338 100.304C108.911 100.637 108.551 101.171 108.258 101.904V108.004H106.238V98.2239Z" fill="#484848"/>
<rect opacity="0.5" x="134.028" y="97.9004" width="237.556" height="11.5498" rx="5.77492" fill="#81D3C8"/>
<rect x="134.028" y="97.9004" width="64.14" height="11.5498" rx="5.77492" fill="#18A2A2"/>
<path d="M398.327 106.816C399.78 105.389 400.894 104.256 401.667 103.416C402.454 102.563 403.067 101.769 403.507 101.036C403.96 100.289 404.187 99.5961 404.187 98.9561C404.187 98.2361 403.994 97.6694 403.607 97.2561C403.22 96.8427 402.667 96.6361 401.947 96.6361C401.08 96.6361 400.22 97.1227 399.367 98.0961L398.227 96.9761C398.827 96.3227 399.434 95.8361 400.047 95.5161C400.674 95.1827 401.394 95.0161 402.207 95.0161C403.407 95.0161 404.36 95.3694 405.067 96.0761C405.787 96.7694 406.147 97.6961 406.147 98.8561C406.147 99.5894 405.94 100.343 405.527 101.116C405.127 101.889 404.594 102.669 403.927 103.456C403.274 104.229 402.387 105.209 401.267 106.396C402.174 106.316 402.887 106.276 403.407 106.276H406.767V107.996H398.327V106.816Z" fill="#484848"/>
<path d="M411.904 107.996C412.011 105.649 412.331 103.656 412.864 102.016C413.398 100.363 414.278 98.6827 415.504 96.9761H409.344V95.2561H417.744V96.4961C416.758 97.7227 416.004 98.8961 415.484 100.016C414.978 101.123 414.618 102.283 414.404 103.496C414.191 104.696 414.044 106.196 413.964 107.996H411.904Z" fill="#484848"/>
<path d="M423.081 102.736C422.161 102.736 421.421 102.369 420.861 101.636C420.301 100.903 420.021 99.8827 420.021 98.5761C420.021 97.2827 420.301 96.2761 420.861 95.5561C421.421 94.8227 422.161 94.4561 423.081 94.4561C424.001 94.4561 424.741 94.8227 425.301 95.5561C425.861 96.2761 426.141 97.2827 426.141 98.5761C426.141 99.8827 425.861 100.903 425.301 101.636C424.741 102.369 424.001 102.736 423.081 102.736ZM430.601 94.6561H431.881L424.701 108.236H423.421L430.601 94.6561ZM423.081 101.536C423.561 101.536 423.941 101.289 424.221 100.796C424.515 100.289 424.661 99.5494 424.661 98.5761C424.661 97.6027 424.515 96.8761 424.221 96.3961C423.941 95.9027 423.561 95.6561 423.081 95.6561C422.601 95.6561 422.215 95.9027 421.921 96.3961C421.641 96.8761 421.501 97.6027 421.501 98.5761C421.501 99.5494 421.641 100.289 421.921 100.796C422.215 101.289 422.601 101.536 423.081 101.536ZM432.261 108.236C431.341 108.236 430.601 107.869 430.041 107.136C429.481 106.403 429.201 105.383 429.201 104.076C429.201 102.783 429.481 101.776 430.041 101.056C430.601 100.323 431.341 99.9561 432.261 99.9561C433.181 99.9561 433.921 100.323 434.481 101.056C435.041 101.776 435.321 102.783 435.321 104.076C435.321 105.383 435.041 106.403 434.481 107.136C433.921 107.869 433.181 108.236 432.261 108.236ZM432.261 107.036C432.741 107.036 433.121 106.789 433.401 106.296C433.695 105.789 433.841 105.049 433.841 104.076C433.841 103.103 433.695 102.376 433.401 101.896C433.121 101.403 432.741 101.156 432.261 101.156C431.781 101.156 431.395 101.403 431.101 101.896C430.821 102.376 430.681 103.103 430.681 104.076C430.681 105.049 430.821 105.789 431.101 106.296C431.395 106.789 431.781 107.036 432.261 107.036Z" fill="#484848"/>
</svg>
