<svg viewBox="0 0 97 97" fill="none" xmlns="http://www.w3.org/2000/svg">
<mask id="mask0" mask-type="alpha" maskUnits="userSpaceOnUse" x="0" y="0" width="97" height="97">
<path d="M48.6827 96.4291C75.1925 96.4291 96.6829 74.9387 96.6829 48.4289C96.6829 21.9191 75.1925 0.428711 48.6827 0.428711C22.1729 0.428711 0.682495 21.9191 0.682495 48.4289C0.682495 74.9387 22.1729 96.4291 48.6827 96.4291Z" fill="#1C5A7D"/>
</mask>
<g mask="url(#mask0)">
<path d="M76.9971 50.312V94.9139L20.4807 93.9495V49.3477L76.9971 50.312Z" fill="#421800"/>
<path d="M70.0472 30.1627V43.3172C70.0472 43.5468 70.0472 43.7764 70.0472 44.0111C70.0472 44.2458 70.0472 44.3836 70.0472 44.5724C70.0472 44.7612 70.0472 44.9092 70.0166 45.0827C69.986 45.2561 70.0166 45.3225 69.9911 45.4449C69.9656 45.5674 69.9911 45.5878 69.9911 45.6593C69.9911 45.7307 69.9911 45.9246 69.9503 46.0573C69.9503 46.3073 69.8993 46.5675 69.8636 46.8073C69.8636 46.8686 69.8636 46.9349 69.8381 46.9961C69.8125 47.0574 69.8023 47.2462 69.7819 47.3737L69.6849 47.9197C69.639 48.1697 69.5931 48.43 69.537 48.6698C69.537 48.6698 69.537 48.6698 69.537 48.7004C69.5396 48.7378 69.5396 48.7753 69.537 48.8127C69.537 48.8127 69.537 48.8127 69.537 48.8433C69.5115 48.981 69.4809 49.1086 69.4502 49.2413C69.4417 49.3002 69.4281 49.3582 69.4094 49.4148C69.4094 49.5117 69.3686 49.6036 69.3482 49.7005C69.3278 49.7975 69.3227 49.8128 69.3023 49.8638C69.2818 49.9148 69.2768 49.9607 69.2666 50.0016C69.1543 50.4302 69.0318 50.8537 68.8992 51.2721C68.8379 51.4711 68.7716 51.665 68.7053 51.864C68.7053 51.864 68.7053 51.9048 68.7053 51.9253L68.5165 52.4355L68.4552 52.5988C68.394 52.7672 68.3277 52.9356 68.2613 53.1091C68.195 53.2825 68.0981 53.5122 68.0164 53.7112C67.9348 53.9102 67.8633 54.0683 67.7868 54.2214C67.7868 54.252 67.7613 54.2775 67.7511 54.3082C67.6643 54.497 67.5776 54.6858 67.4908 54.8694C67.4041 55.0531 67.3071 55.2573 67.2051 55.4512C67.0163 55.8338 66.8122 56.2165 66.6081 56.589L66.3223 57.0993C65.5306 58.4671 64.635 59.7721 63.6435 61.0028C63.5108 61.1763 63.3748 61.3464 63.2353 61.513C63.0414 61.7478 62.8424 61.9825 62.6434 62.207C62.4444 62.4315 62.3015 62.5897 62.1331 62.7734V62.7989C61.6296 63.3398 61.1194 63.85 60.6023 64.3297C60.4952 64.4368 60.388 64.5287 60.2758 64.6307C60.1635 64.7328 59.9186 64.9522 59.7349 65.1053C59.5512 65.2583 59.444 65.3502 59.3012 65.4727C58.9236 65.7839 58.546 66.0799 58.1633 66.3605C58.0051 66.483 57.8418 66.5952 57.6785 66.7075C57.4183 66.8963 57.1683 67.0749 56.8825 67.2484C56.7346 67.3504 56.5815 67.4423 56.4335 67.5341C55.9232 67.8658 55.3569 68.1668 54.8211 68.4322L54.4282 68.6261L54.02 68.8149C53.8465 68.8931 53.6764 68.9662 53.5097 69.0343C53.4435 69.0643 53.3753 69.0899 53.3056 69.1108C53.1015 69.1925 52.8923 69.2741 52.6882 69.3404C52.4841 69.4068 52.1779 69.5139 51.9126 69.5854C51.734 69.6364 51.5503 69.6874 51.3717 69.7282H51.336C51.1574 69.769 50.9788 69.8099 50.8257 69.8456L50.6829 69.8711C50.5349 69.8966 50.3869 69.9221 50.244 69.9374C50.1012 69.9527 49.8256 69.9936 49.6164 70.0038C49.5451 70.009 49.4734 70.009 49.4021 70.0038C49.2337 70.0038 49.0704 70.0038 48.8918 70.0038C48.7286 70.0038 48.5585 70.0038 48.3816 70.0038C48.3188 70.009 48.2556 70.009 48.1928 70.0038C48.0448 70.0038 47.8918 70.0038 47.7387 69.963H47.6366L47.0498 69.866C46.8814 69.8405 46.713 69.8048 46.5395 69.7588C45.5933 69.5388 44.6705 69.2278 43.7842 68.8302C42.9536 68.4615 42.1489 68.037 41.3757 67.5596C40.9726 67.3147 40.5695 67.0494 40.1715 66.7738L39.5745 66.3452C38.9486 65.8894 38.3312 65.3927 37.7223 64.8552L37.212 64.396L36.7017 63.9368C36.3139 63.5643 35.9363 63.1816 35.5741 62.7785C35.5507 62.7576 35.5286 62.7355 35.5077 62.7121C35.3546 62.5489 35.2033 62.3788 35.0536 62.2019C34.6352 61.7273 34.227 61.2426 33.8341 60.7323C33.681 60.5487 33.5381 60.3599 33.4003 60.1711C32.8697 59.4669 32.3594 58.7338 31.8696 57.9718L31.4971 57.3544C31.3491 57.1095 31.2062 56.8442 31.0684 56.6043C30.5367 55.6526 30.0597 54.6713 29.6397 53.6652C29.5785 53.5173 29.5122 53.3693 29.4611 53.2264C29.4101 53.0835 29.303 52.8437 29.2366 52.6549C29.1312 52.376 29.0308 52.0987 28.9356 51.8232C28.8386 51.5477 28.7519 51.2619 28.6651 50.9762C28.5784 50.6904 28.5018 50.4302 28.4304 50.1546C28.359 49.8791 28.2671 49.5627 28.2008 49.2566C28.2008 49.226 28.2008 49.1954 28.2008 49.1596C28.1021 48.7412 28.0137 48.316 27.9355 47.884C27.8283 47.3176 27.7467 46.741 27.6854 46.1593C27.6599 45.9756 27.6446 45.7919 27.6293 45.6082C27.614 45.4245 27.5936 45.2255 27.5834 45.0316C27.5579 44.6796 27.5426 44.3224 27.5323 43.9652C27.5323 43.7356 27.5323 43.506 27.5323 43.2712V30.1627C27.5332 24.7015 29.6259 19.4482 33.3802 15.4822C37.1346 11.5162 42.2654 9.13893 47.7182 8.83887H47.7744H48.2132H48.8714H49.5501H50.0604C51.246 8.9116 52.4236 9.08226 53.5811 9.34913C58.2708 10.4173 62.4629 13.0366 65.4789 16.7833C68.4949 20.5299 70.1585 25.1847 70.2003 29.9943C70.0472 30.0402 70.0472 30.1014 70.0472 30.1627Z" fill="#F0D0B4"/>
<path d="M76.5124 102.859H20.8583C20.8538 99.8293 21.3468 96.8195 22.3176 93.9497C22.3176 93.9242 22.3176 93.8987 22.3432 93.8732C22.5166 93.3629 22.7054 92.8527 22.9095 92.3424C23.1085 91.8322 23.328 91.3576 23.5576 90.8729C24.474 88.9466 25.611 87.1332 26.9457 85.4692C27.2825 85.0559 27.6244 84.6528 27.9662 84.265C28.1397 84.066 28.3234 83.8721 28.5071 83.6782L29.0633 83.1118C30.0017 82.1769 31.0061 81.3107 32.0687 80.5197C32.579 80.1268 33.1352 79.7594 33.6913 79.4022L33.9107 79.2644C34.1148 79.1318 34.319 79.0093 34.5282 78.8868C34.7374 78.7644 35.0997 78.5552 35.3905 78.3766C35.615 78.2541 35.8344 78.1265 36.059 77.9888C36.7161 77.5957 37.3453 77.1576 37.9418 76.6774C40.0154 75.0304 41.6892 72.9353 42.838 70.5494C43.9868 68.1635 44.5807 65.5485 44.5752 62.9004H48.6318H48.6981H52.7802C52.778 63.9265 52.8651 64.9509 53.0404 65.962C53.2071 66.9234 53.4546 67.869 53.7803 68.7888C54.8805 71.881 56.8249 74.6032 59.3931 76.6468C59.766 76.9539 60.1543 77.2417 60.5566 77.5091L60.679 77.5908C60.8678 77.7183 61.0566 77.8408 61.2556 77.9582C61.4546 78.0755 61.6893 78.2184 61.9138 78.3409C61.9489 78.3494 61.9819 78.365 62.0108 78.3868C62.47 78.6419 62.9292 78.897 63.3732 79.1879L63.4803 79.2542C63.6589 79.3665 63.8426 79.4787 63.9906 79.6063C64.4243 79.8818 64.8529 80.188 65.2662 80.5044C65.7765 80.8973 66.2868 81.3157 66.797 81.7494C67.3073 82.1831 67.7818 82.6322 68.2513 83.0965C70.8451 85.6778 72.9021 88.7474 74.3033 92.1279C75.7046 95.5085 76.4224 99.1331 76.4154 102.793L76.5124 102.859Z" fill="#F0D0B4"/>
<path d="M76.5124 102.858H20.8583C20.8538 99.8289 21.3468 96.8191 22.3176 93.9493C22.3176 93.9238 22.3176 93.8983 22.3432 93.8728C22.5166 93.3625 22.7054 92.8522 22.9095 92.342C23.1085 91.8317 23.328 91.3572 23.5576 90.8724C24.474 88.9461 25.611 87.1328 26.9457 85.4688C27.2825 85.0554 27.6244 84.6524 27.9662 84.2646C28.1397 84.0656 28.3234 83.8716 28.5071 83.6777L29.0633 83.1114C30.0017 82.1765 31.0061 81.3102 32.0687 80.5192C32.579 80.1263 33.1352 79.759 33.6913 79.4018L33.9107 79.264C34.1148 79.1313 34.319 79.0089 34.5282 78.8864C34.7374 78.7639 35.0997 78.5496 35.3905 78.3761L36.059 77.9934C36.7135 77.5975 37.3392 77.1559 37.9316 76.6719C39.3255 78.1021 40.9919 79.2386 42.8323 80.0142C44.6727 80.7898 46.6499 81.1888 48.6471 81.1877H48.7134C50.71 81.1881 52.6865 80.7892 54.5267 80.0146C56.3669 79.2399 58.0336 78.1052 59.4289 76.677C59.7999 76.9857 60.1865 77.2752 60.5872 77.5444L60.7096 77.6261C60.8984 77.7536 61.0923 77.871 61.2862 77.9934C61.4801 78.1159 61.7199 78.2486 61.9444 78.371C61.9783 78.3829 62.0108 78.3983 62.0414 78.417C62.5006 78.6721 62.9599 78.9272 63.4038 79.2232L63.5109 79.2895C63.6895 79.4018 63.8732 79.514 64.0212 79.6416C64.4549 79.9171 64.8835 80.2233 65.2969 80.5396C65.8071 80.9376 66.348 81.351 66.8276 81.7898C67.3073 82.2286 67.8124 82.6725 68.2819 83.1369C70.8758 85.7182 72.9327 88.7878 74.334 92.1683C75.7352 95.5489 76.4531 99.1735 76.446 102.833L76.5124 102.858Z" fill="#F49F0A"/>
<path d="M77.1197 87.4495C77.0807 87.467 77.0395 87.479 76.9972 87.4852C74.2367 88.2047 63.3579 75.091 63.2457 61.3446C63.2373 60.2291 63.3021 59.1144 63.4396 58.0075C63.807 55.0428 65.2357 52.1956 66.4195 49.333C67.3533 47.0624 68.1442 44.7866 68.1442 42.4343C68.1442 29.8411 64.4907 33.9436 54.3111 27.152C51.8516 25.5141 50.1014 24.1721 48.7339 23.0699C44.9529 20.0696 43.9936 18.9878 38.8042 18.9878C32.2066 18.9878 29.5838 30.4483 28.8337 35.3519C28.0275 40.6229 28.0173 49.1697 31.3034 57.2931C33.8547 63.5999 33.8547 69.7792 28.8337 76.6473C26.9509 79.1986 24.0628 87.924 20.4808 90.7356C19.3633 91.6132 18.1846 91.9143 16.9396 91.2815C7.14767 86.2708 13.0412 70.1925 15.9803 60.125C19.1439 49.2922 20.0981 38.3114 22.3942 27.3714C24.9864 15.0537 35.5284 7.5478 39.789 10.589C41.2127 8.03765 44.9324 7.08347 48.7339 7.08347C51.3416 7.06671 53.9321 7.50709 56.3878 8.38463C71.9405 14.421 72.2059 28.841 73.0325 34.8365C73.7163 39.7912 76.1553 44.4141 77.0074 49.3075C77.1975 50.343 77.2982 51.3929 77.3085 52.4456C77.3442 58.1707 76.7064 62.0385 81.0538 66.8094C84.3399 70.4782 81.8192 85.4084 77.1197 87.4495Z" fill="#421800"/>
<g style="mix-blend-mode:multiply" opacity="0.5">
<path d="M48.734 7.13086V102.866H20.8585C20.854 99.8363 21.347 96.8266 22.3178 93.9568H20.4809V90.783C19.3634 91.6606 18.1847 91.9616 16.9397 91.3289C7.14779 86.3182 13.0413 70.2399 15.9804 60.1724C19.144 49.3396 20.0982 38.3588 22.3944 27.4188C24.9865 15.1011 35.5285 7.59519 39.7892 10.6363C41.2128 8.08504 44.9326 7.13086 48.734 7.13086Z" fill="#F0D0B4"/>
</g>
</g>
</svg>
