<svg viewBox="0 0 101 101" fill="none" xmlns="http://www.w3.org/2000/svg">
<mask id="mask0" mask-type="alpha" maskUnits="userSpaceOnUse" x="0" y="0" width="101" height="101">
<path d="M50.0776 100.188C77.6919 100.188 100.078 77.8027 100.078 50.1885C100.078 22.5742 77.6919 0.188477 50.0776 0.188477C22.4634 0.188477 0.0776367 22.5742 0.0776367 50.1885C0.0776367 77.8027 22.4634 100.188 50.0776 100.188Z" fill="#E9EAE6"/>
</mask>
<g mask="url(#mask0)">
<path d="M72.3318 28.247V44.8676C72.3318 45.1068 72.3318 45.346 72.3318 45.5905C72.3318 46.0901 72.2945 46.5844 72.252 47.0787C72.252 47.2488 72.2361 47.426 72.2042 47.6103C72.1351 48.3172 72.0341 49.0082 71.9065 49.6991C71.864 49.9277 71.8215 50.1509 71.7683 50.3742C71.7627 50.4208 71.7538 50.467 71.7418 50.5124C71.6993 50.7409 71.6408 50.9641 71.5876 51.1874C71.5876 51.3096 71.5345 51.4266 71.5079 51.5488C71.4813 51.6711 71.4547 51.7561 71.4228 51.8624C71.3059 52.3089 71.1784 52.75 71.0402 53.1859C70.9764 53.3932 70.9073 53.5952 70.8382 53.8025C70.8382 53.8025 70.8382 53.845 70.8382 53.8663L70.6415 54.3978L70.5777 54.5679C70.514 54.7433 70.4449 54.9187 70.3758 55.0994C70.3067 55.2801 70.2057 55.5193 70.1206 55.7266C70.0356 55.9339 69.9612 56.0986 69.8815 56.2581C69.8815 56.29 69.8549 56.3165 69.8442 56.3484C69.7539 56.5451 69.6635 56.7417 69.5732 56.9331C69.4828 57.1244 69.3818 57.3371 69.2755 57.539C69.0789 57.9377 68.8663 58.3363 68.6537 58.7243L68.356 59.2559C67.5179 60.6839 66.5707 62.0451 65.523 63.3273C65.3848 63.508 65.2431 63.6852 65.0978 63.8588C64.8958 64.1033 64.6885 64.3425 64.4812 64.5817C64.2739 64.8208 64.1091 64.9963 63.9178 65.1982C63.3863 65.7617 62.8548 66.2985 62.3232 66.7928C62.2116 66.9044 62.1 67.0001 61.9831 67.1064C61.8661 67.2127 61.611 67.4412 61.4197 67.6007C61.2283 67.7601 61.1167 67.8558 60.9679 67.9834C60.5746 68.3076 60.1812 68.6159 59.7826 68.9082C59.6178 69.0358 59.4477 69.1527 59.2776 69.2697C59.0066 69.4663 58.7461 69.6524 58.4485 69.8331C58.2943 69.9394 58.1349 70.035 57.9807 70.1307C57.4492 70.4762 56.8592 70.7898 56.3011 71.0662L55.8919 71.2682L55.4667 71.4648C55.2859 71.5463 55.1088 71.6225 54.9351 71.6934C54.8661 71.7247 54.7951 71.7513 54.7225 71.7731C54.5099 71.8582 54.292 71.9432 54.0794 72.0123C53.8668 72.0814 53.5479 72.193 53.2715 72.2674C53.0855 72.3206 52.8941 72.3737 52.7081 72.4162H52.6709C52.4848 72.4588 52.2988 72.5013 52.1393 72.5385L51.9905 72.5651C51.8364 72.5917 51.6822 72.6182 51.5334 72.6342C51.3846 72.6501 51.0976 72.6927 50.8797 72.7033C50.8053 72.7087 50.7307 72.7087 50.6564 72.7033C50.481 72.7033 50.3056 72.7033 50.1249 72.7033C49.9548 72.7033 49.7776 72.7033 49.5934 72.7033C49.5279 72.7087 49.4621 72.7087 49.3967 72.7033C49.2426 72.7033 49.0831 72.7033 48.9236 72.6608H48.8174L48.2061 72.5651C48.0307 72.5385 47.8553 72.5013 47.6746 72.4535C46.6889 72.2243 45.7277 71.9003 44.8044 71.4861C43.9392 71.1021 43.101 70.66 42.2956 70.1626C41.8757 69.9075 41.4558 69.6311 41.0412 69.3441L40.4193 68.8976C39.7673 68.4228 39.1242 67.9054 38.4899 67.3456L37.9584 66.8672L37.4269 66.3888C37.0017 65.9778 36.5871 65.5508 36.1831 65.1079C36.0237 64.9378 35.866 64.7606 35.7101 64.5763C35.2742 64.082 34.849 63.5771 34.4397 63.0456C34.2803 62.8542 34.1315 62.6576 33.988 62.4609C33.4352 61.7274 32.9037 60.9638 32.3934 60.1701L32.0054 59.5269C31.8513 59.2718 31.7024 58.9954 31.5589 58.7456C31.005 57.7542 30.5081 56.732 30.0707 55.684C30.0069 55.5299 29.9378 55.3758 29.8846 55.2269C29.8315 55.0781 29.7199 54.8283 29.6508 54.6316C29.5409 54.3411 29.4364 54.0523 29.3372 53.7653C29.2362 53.4782 29.1458 53.1806 29.0555 52.8829C28.9651 52.5853 28.8854 52.3142 28.811 52.0272C28.7366 51.7402 28.6409 51.4106 28.5718 51.0917C28.5718 51.0598 28.5718 51.0279 28.5718 50.9907C28.469 50.5549 28.3769 50.1119 28.2954 49.6619C28.1838 49.0719 28.0987 48.4713 28.0349 47.8654C28.0084 47.674 27.9924 47.4827 27.9765 47.2914C27.9605 47.1 27.9393 46.8927 27.9286 46.6907C27.9021 46.324 27.8861 45.9519 27.8755 45.5799C27.8755 45.3407 27.8755 45.1015 27.8755 44.857V28.247C27.8755 22.3498 30.2167 16.6938 34.3847 12.5219C38.5527 8.3499 44.2064 6.00328 50.1036 5.99765C51.7606 5.99302 53.413 6.17127 55.0308 6.52917C59.9484 7.65392 64.3382 10.4152 67.4814 14.3608C70.6245 18.3064 72.3347 23.2025 72.3318 28.247Z" fill="#ECC19C"/>
<path d="M79.0661 106.886H21.0934C21.0854 103.703 21.6044 100.54 22.6294 97.5261C22.8102 96.9946 23.0068 96.4631 23.2194 95.9315C23.432 95.4 23.6553 94.9057 23.8945 94.4008C24.8465 92.4001 26.0273 90.5166 27.4131 88.7879C27.7639 88.3574 28.12 87.9375 28.4762 87.5335C28.6569 87.3262 28.8482 87.1243 29.0396 86.9223L29.6189 86.3323C30.5965 85.3585 31.6427 84.4561 32.7496 83.6322C33.2811 83.2229 33.8604 82.8402 34.4398 82.4681C35.0191 82.0961 35.6091 81.7506 36.2098 81.4051C36.4436 81.2775 36.6722 81.1447 36.906 81.0012C37.3578 80.7301 37.8096 80.4324 38.2348 80.1135C38.4528 79.9594 38.6601 79.7999 38.8674 79.6351C39.3617 79.2418 39.8347 78.8219 40.2865 78.3808L40.7277 77.9343C41.0359 77.6154 41.323 77.2858 41.5994 76.9457C41.7376 76.7809 41.8704 76.6108 41.998 76.4407C42.1256 76.2706 42.2531 76.0952 42.3807 75.9092C44.5991 72.8093 45.7872 69.0907 45.7771 65.2788H50.0027H54.3452C54.3415 68.0265 54.957 70.7396 56.1459 73.2168C57.3348 75.6939 59.0665 77.8713 61.2124 79.5873C61.4144 79.7521 61.6164 79.9115 61.8183 80.055C62.0203 80.1985 62.217 80.3421 62.4243 80.4803L62.5518 80.5653C62.7485 80.6982 62.9452 80.8258 63.1525 80.948C63.3597 81.0703 63.6043 81.2191 63.8381 81.3467C63.8747 81.3556 63.909 81.3718 63.9391 81.3945C64.4175 81.6602 64.8959 81.926 65.3583 82.229C65.5815 82.3672 65.8047 82.5054 66.0227 82.6648C66.4762 82.9589 66.9192 83.2707 67.3515 83.6003C68.4553 84.4259 69.4997 85.3281 70.4768 86.3004C73.2036 88.9895 75.3675 92.1949 76.8422 95.7293C78.3169 99.2637 79.073 103.056 79.0661 106.886Z" fill="#ECC19C"/>
<path d="M79.0662 106.911H21.0934C21.0825 103.719 21.6016 100.547 22.6295 97.5247C22.8102 96.9932 23.0069 96.4616 23.2195 95.9301C23.4268 95.3986 23.6554 94.9043 23.8945 94.3994C24.8466 92.3987 26.0274 90.5152 27.4132 88.7865C27.764 88.356 28.1201 87.9361 28.4762 87.5321C28.657 87.3248 28.8483 87.1229 29.0396 86.9209L29.619 86.3309C30.5966 85.3571 31.6428 84.4547 32.7496 83.6308C33.2812 83.2215 33.8605 82.8388 34.4399 82.4667C35.0192 82.0947 35.6092 81.7439 36.2098 81.4037L36.9061 81.0051C37.5879 80.5927 38.2398 80.1326 38.8568 79.6284C40.3088 81.1183 42.0446 82.3021 43.9617 83.11C45.8788 83.9179 47.9383 84.3336 50.0187 84.3324H50.0612C52.1409 84.3322 54.1996 83.9164 56.1164 83.1096C58.0332 82.3027 59.7694 81.1209 61.2231 79.6337C61.6096 79.9553 62.0124 80.2569 62.4297 80.5373L62.5572 80.6224C62.7539 80.7552 62.9559 80.8775 63.1579 81.0051C63.3598 81.1326 63.6096 81.2708 63.8435 81.3984C63.8787 81.4107 63.9126 81.4268 63.9445 81.4462C64.4229 81.712 64.9012 81.9777 65.3637 82.286C65.5869 82.4242 65.8101 82.5624 66.0281 82.7219C66.4799 83.0142 66.9263 83.3278 67.3569 83.6573C70.9842 86.3543 73.9316 89.861 75.9645 93.8981C77.9973 97.9352 79.0594 102.391 79.0662 106.911Z" fill="#C7D4E2"/>
<path d="M67.5907 14.5232C66.5037 16.9672 65.1009 19.2581 63.4182 21.3373L63.1152 21.6987C59.6545 25.8677 55.15 29.0443 50.0611 30.9046C48.7014 31.4061 47.3069 31.8076 45.8887 32.1059C44.932 32.3078 43.9593 32.4655 42.9707 32.5789C41.8181 32.7064 40.6594 32.7703 39.4999 32.7703C38.1775 32.7712 36.8566 32.6859 35.5454 32.5151C34.2909 32.3594 33.048 32.1215 31.8247 31.8029C31.1284 31.6275 30.4534 31.4255 29.7784 31.2023C29.1034 30.979 28.4708 30.7452 27.833 30.4794V28.247C27.833 22.3498 30.1742 16.6938 34.3422 12.5219C38.5102 8.3499 44.1639 6.00328 50.0611 5.99765C51.7181 5.99302 53.3705 6.17127 54.9883 6.52917C59.9711 7.66811 64.4121 10.4824 67.5694 14.502L67.5907 14.5232Z" fill="#D8D06A"/>
<path d="M72.332 28.2466V32.6263C68.5329 29.6861 65.3976 25.9767 63.1314 21.7408C60.852 17.4816 59.5091 12.7844 59.1929 7.96387C63.1031 9.72099 66.423 12.5696 68.7537 16.1675C71.0845 19.7654 72.327 23.9597 72.332 28.2466Z" fill="#D8D06A"/>
<path d="M30.4375 29.9586C30.2036 30.3679 29.991 30.7878 29.7784 31.2236C29.6987 31.3937 29.6137 31.5744 29.5339 31.7551C28.5334 33.9124 27.9577 36.2421 27.8384 38.6171C27.8384 38.6755 27.8384 38.7446 27.8384 38.8031V30.2244C27.8384 29.9161 27.8384 29.6185 27.8384 29.3208C28.7048 29.5494 29.5711 29.7673 30.4375 29.9586Z" fill="#D8D06A"/>
<path d="M69.7324 29.9582C70.062 30.5375 70.3596 31.1328 70.6413 31.7441C71.6728 33.9583 72.2511 36.3564 72.3422 38.7973V30.2239C72.3422 29.921 72.3422 29.6233 72.3422 29.3257C71.4705 29.5489 70.6094 29.7668 69.7324 29.9582Z" fill="#D8D06A"/>
<path d="M50.077 57.1242C53.0859 57.1242 55.525 56.3699 55.525 55.4393C55.525 54.5088 53.0859 53.7544 50.077 53.7544C47.0681 53.7544 44.6289 54.5088 44.6289 55.4393C44.6289 56.3699 47.0681 57.1242 50.077 57.1242Z" fill="#ECC19C"/>
<g style="mix-blend-mode:multiply" opacity="0.5">
<path d="M50.0617 5.99857V106.913H21.0939C21.083 103.72 21.6021 100.548 22.63 97.5262C22.8107 96.9946 23.0074 96.4631 23.22 95.9316C23.4273 95.4001 23.6559 94.9058 23.895 94.4008C24.8471 92.4002 26.0279 90.5167 27.4137 88.788C27.7645 88.3575 28.1206 87.9375 28.4767 87.5336C28.6574 87.3263 28.8488 87.1243 29.0401 86.9223L29.6195 86.3324C30.3153 85.6398 31.0463 84.9834 31.8094 84.3657C32.123 84.1159 32.4312 83.8661 32.7501 83.6322C33.2019 83.2921 33.6644 82.9785 34.1321 82.6702L34.4404 82.4682C35.0179 82.1139 35.6079 81.7595 36.2103 81.4052L36.9066 81.0065C37.3584 80.7301 37.8049 80.4325 38.2301 80.1136C38.4427 79.9594 38.6553 79.7947 38.8573 79.6246C41.5212 77.4983 43.5448 74.6763 44.704 71.4711C43.8388 71.0871 43.0006 70.6449 42.1952 70.1476C41.7753 69.8978 41.3608 69.6161 40.9409 69.329L40.319 68.8826C39.667 68.4078 39.0238 67.8904 38.3896 67.3306L37.8581 66.8522L37.3265 66.3738C36.9013 65.9628 36.4867 65.5358 36.0828 65.0929C35.9233 64.9228 35.7656 64.7456 35.6097 64.5613C35.1739 64.067 34.7487 63.5621 34.3394 63.0306C34.1799 62.8392 34.0311 62.6426 33.8876 62.4459C33.3348 61.7124 32.8033 60.9488 32.293 60.1551L31.905 59.5119C31.7509 59.2568 31.6021 58.9804 31.4585 58.7306C30.9046 57.7392 30.4077 56.717 29.9703 55.669C29.9065 55.5149 29.8374 55.3607 29.7843 55.2119C29.7311 55.0631 29.6195 54.8133 29.5504 54.6166C29.4406 54.326 29.336 54.0372 29.2368 53.7502C29.1358 53.4632 29.0455 53.1656 28.9551 52.8679C28.8647 52.5703 28.785 52.2992 28.7106 52.0122C28.6362 51.7252 28.5405 51.3956 28.4714 51.0767C28.4714 51.0448 28.4714 51.0129 28.4714 50.981C28.3686 50.5452 28.2765 50.1023 28.195 49.6522C28.0834 49.0622 27.9983 48.4616 27.9346 47.8557C27.908 47.6643 27.8921 47.473 27.8761 47.2816C27.8602 47.0903 27.8389 46.883 27.8283 46.681C27.8017 46.3143 27.7857 45.9422 27.7751 45.5702C27.7751 45.331 27.7751 45.0918 27.7751 44.8473V28.2479C27.7751 25.323 28.3519 22.4267 29.4723 19.7249C30.5928 17.023 32.235 14.5686 34.305 12.5021C36.375 10.4355 38.8321 8.79744 41.5358 7.68149C44.2395 6.56555 47.1367 5.99368 50.0617 5.99857Z" fill="#ECC19C"/>
</g>
</g>
</svg>
