<svg width="450" height="500" viewBox="0 0 450 500" fill="none" xmlns="http://www.w3.org/2000/svg">
<rect width="450" height="500" fill="#FCFCFC"/>
<circle cx="59.0747" cy="221.711" r="27.7431" fill="#2F2F2F"/>
<circle cx="126.561" cy="221.711" r="27.7431" fill="#8A8A8A"/>
<path d="M145.22 352.9C145.552 357.88 149.693 361.123 155.669 361.123C162.154 361.123 166.216 357.9 166.216 352.744C166.216 348.701 163.853 346.455 158.013 344.99L155.064 344.208C151.236 343.212 149.673 341.943 149.673 339.814C149.673 337.06 152.212 335.166 155.865 335.166C159.537 335.166 161.978 337.021 162.291 340.048H165.806C165.65 335.322 161.587 332.001 155.982 332.001C150.123 332.001 146.021 335.283 146.021 339.97C146.021 343.798 148.326 346.083 153.521 347.412L157.134 348.349C160.923 349.326 162.583 350.791 162.583 353.173C162.583 355.947 159.81 357.958 156.001 357.958C151.978 357.958 149.087 355.947 148.755 352.9H145.22ZM175.033 360.654V348.447H187.514V345.322H175.033V335.634H188.627V332.47H171.518V360.654H175.033ZM203.254 332.47V360.654H206.769V350.595H213.273C218.566 350.595 222.336 346.865 222.336 341.513C222.336 336.181 218.605 332.47 213.312 332.47H203.254ZM206.769 335.595H212.394C216.437 335.595 218.723 337.783 218.723 341.513C218.723 345.263 216.418 347.47 212.394 347.47H206.769V335.595ZM227.051 360.654H230.45V347.998C230.45 345.126 232.169 343.232 234.805 343.232C235.626 343.232 236.348 343.33 236.622 343.427V340.126C236.348 340.087 235.841 339.99 235.255 339.99C232.872 339.99 230.997 341.416 230.333 343.662H230.255V340.341H227.051V360.654ZM248.037 361.005C253.642 361.005 257.431 356.962 257.431 350.498C257.431 344.013 253.642 339.99 248.037 339.99C242.412 339.99 238.623 344.013 238.623 350.498C238.623 356.962 242.412 361.005 248.037 361.005ZM248.037 358.017C244.443 358.017 242.08 355.283 242.08 350.498C242.08 345.712 244.443 342.978 248.037 342.978C251.63 342.978 253.974 345.712 253.974 350.498C253.974 355.283 251.63 358.017 248.037 358.017ZM271.999 332.47V360.654H281.472C289.851 360.654 294.773 355.439 294.773 346.552C294.773 337.685 289.831 332.47 281.472 332.47H271.999ZM275.515 335.634H281.237C287.644 335.634 291.179 339.541 291.179 346.591C291.179 353.583 287.624 357.49 281.237 357.49H275.515V335.634ZM299.996 360.654H303.394V340.341H299.996V360.654ZM301.695 336.923C302.867 336.923 303.824 335.966 303.824 334.814C303.824 333.642 302.867 332.705 301.695 332.705C300.543 332.705 299.586 333.642 299.586 334.814C299.586 335.966 300.543 336.923 301.695 336.923ZM308.833 345.947C308.833 348.72 310.591 350.556 314.165 351.474L317.739 352.392C320.024 352.998 320.864 353.779 320.864 355.224C320.864 357.06 319.165 358.232 316.411 358.232C313.657 358.232 312.055 357.099 311.684 354.99H308.286C308.637 358.583 311.743 361.005 316.196 361.005C320.942 361.005 324.282 358.505 324.282 354.97C324.282 351.982 322.798 350.498 318.696 349.462L315.551 348.701C313.247 348.115 312.173 347.177 312.173 345.771C312.173 343.994 313.813 342.763 316.294 342.763C318.794 342.763 320.376 343.974 320.61 345.927H323.852C323.696 342.49 320.61 339.99 316.411 339.99C311.938 339.99 308.833 342.47 308.833 345.947ZM338.88 339.99C335.931 339.99 333.568 341.494 332.318 343.779H332.24V340.341H329.017V367.431H332.416V357.353H332.494C333.705 359.58 336.048 361.005 338.958 361.005C344.076 361.005 347.572 356.865 347.572 350.498C347.572 344.13 344.056 339.99 338.88 339.99ZM338.216 358.017C334.74 358.017 332.396 355.029 332.396 350.498C332.396 345.986 334.74 342.978 338.216 342.978C341.83 342.978 344.095 345.908 344.095 350.498C344.095 355.107 341.83 358.017 338.216 358.017ZM352.385 360.654H355.783V332.47H352.385V360.654ZM368.273 358.115C365.831 358.115 364.21 356.845 364.21 354.912C364.21 352.998 365.773 351.787 368.507 351.611L373.937 351.279V352.939C373.937 355.869 371.476 358.115 368.273 358.115ZM367.511 361.005C370.245 361.005 372.823 359.482 374.034 357.158H374.112V360.654H377.335V346.611C377.335 342.568 374.327 339.99 369.562 339.99C364.757 339.99 361.749 342.685 361.515 346.201H364.796C365.226 344.208 366.866 342.978 369.483 342.978C372.296 342.978 373.937 344.462 373.937 346.943V348.642L368.116 348.974C363.429 349.248 360.753 351.435 360.753 354.912C360.753 358.564 363.468 361.005 367.511 361.005ZM384.531 368.251C388.203 368.251 389.883 366.826 391.621 362.08L399.609 340.341H396.035L390.41 357.255H390.351L384.726 340.341H381.094L388.594 360.673L388.125 362.099C387.344 364.462 386.289 365.38 384.394 365.38C383.965 365.38 383.437 365.361 383.066 365.283V368.134C383.437 368.212 384.121 368.251 384.531 368.251Z" fill="#282828"/>
<path d="M154.361 410.517H156.207L151.011 396.425H149.273L144.078 410.517H145.923L147.339 406.484H152.945L154.361 410.517ZM150.113 398.564H150.171L152.427 404.99H147.857L150.113 398.564ZM163.904 409.248C162.683 409.248 161.873 408.613 161.873 407.646C161.873 406.689 162.654 406.083 164.021 405.996L166.736 405.83V406.66C166.736 408.125 165.505 409.248 163.904 409.248ZM163.523 410.693C164.89 410.693 166.179 409.931 166.785 408.769H166.824V410.517H168.435V403.496C168.435 401.474 166.931 400.185 164.548 400.185C162.146 400.185 160.642 401.533 160.525 403.291H162.166C162.38 402.294 163.201 401.679 164.509 401.679C165.916 401.679 166.736 402.421 166.736 403.662V404.511L163.826 404.677C161.482 404.814 160.144 405.908 160.144 407.646C160.144 409.472 161.501 410.693 163.523 410.693ZM179.179 410.517C182.177 410.517 183.955 409.042 183.955 406.562C183.955 404.687 182.724 403.339 180.81 403.095V403.017C182.167 402.773 183.242 401.406 183.242 399.941C183.242 397.832 181.611 396.425 179.199 396.425H173.857V410.517H179.179ZM175.615 397.978H178.798C180.507 397.978 181.464 398.75 181.464 400.146C181.464 401.669 180.332 402.5 178.251 402.5H175.615V397.978ZM175.615 408.964V404.013H178.75C180.996 404.013 182.148 404.843 182.148 406.474C182.148 408.105 181.035 408.964 178.916 408.964H175.615ZM193.732 410.693C196.33 410.693 198.048 408.632 198.048 405.439C198.048 402.255 196.32 400.185 193.761 400.185C192.326 400.185 191.144 400.898 190.509 402.06H190.47V396.425H188.771V410.517H190.392V408.798H190.431C191.085 409.97 192.248 410.693 193.732 410.693ZM193.4 401.679C195.197 401.679 196.31 403.134 196.31 405.439C196.31 407.763 195.197 409.199 193.4 409.199C191.681 409.199 190.46 407.705 190.46 405.439C190.46 403.183 191.681 401.679 193.4 401.679ZM208.841 410.751C211.957 410.751 214.046 409.199 214.691 406.416H212.914C212.406 408.134 210.921 409.13 208.851 409.13C206.068 409.13 204.3 406.923 204.3 403.466C204.3 400.039 206.087 397.812 208.841 397.812C210.853 397.812 212.464 399.023 212.914 400.869H214.691C214.242 398.056 211.908 396.191 208.841 396.191C204.984 396.191 202.494 399.042 202.494 403.466C202.494 407.929 204.955 410.751 208.841 410.751ZM227.945 403.691C227.73 401.865 226.216 400.185 223.677 400.185C220.875 400.185 219.009 402.236 219.009 405.439C219.009 408.71 220.884 410.693 223.697 410.693C226.001 410.693 227.701 409.267 227.964 407.246H226.294C226.001 408.466 225.093 409.199 223.707 409.199C221.949 409.199 220.738 407.802 220.738 405.439C220.738 403.134 221.929 401.679 223.687 401.679C225.181 401.679 226.041 402.587 226.285 403.691H227.945ZM232.791 396.425V410.517H237.527C241.716 410.517 244.177 407.91 244.177 403.466C244.177 399.033 241.707 396.425 237.527 396.425H232.791ZM234.548 398.007H237.41C240.613 398.007 242.38 399.96 242.38 403.486C242.38 406.982 240.603 408.935 237.41 408.935H234.548V398.007ZM252.949 410.693C254.414 410.693 255.576 409.97 256.23 408.798H256.259V410.517H257.88V396.425H256.181V402.011H256.142C255.537 400.898 254.365 400.185 252.91 400.185C250.351 400.185 248.603 402.255 248.603 405.439C248.603 408.623 250.361 410.693 252.949 410.693ZM253.271 401.679C255.019 401.679 256.191 403.173 256.191 405.439C256.191 407.714 255.019 409.199 253.271 409.199C251.474 409.199 250.341 407.744 250.341 405.439C250.341 403.144 251.474 401.679 253.271 401.679ZM272.169 408.935H265.197V404.091H271.808V402.529H265.197V398.007H272.169V396.425H263.439V410.517H272.169V408.935ZM281.302 401.66C282.904 401.66 283.968 402.871 284.007 404.57H278.49C278.597 402.88 279.71 401.66 281.302 401.66ZM283.968 407.607C283.685 408.564 282.738 409.218 281.449 409.218C279.623 409.218 278.48 407.939 278.48 405.996V405.898H285.765V405.253C285.765 402.177 284.076 400.185 281.332 400.185C278.529 400.185 276.732 402.324 276.732 405.478C276.732 408.671 278.5 410.693 281.41 410.693C283.626 410.693 285.345 409.384 285.638 407.607H283.968ZM292.505 410.517V404.414H298.746V402.851H292.505V398.007H299.302V396.425H290.748V410.517H292.505ZM304.597 410.517H306.296V401.757H308.367V400.361H306.287V399.238C306.287 398.232 306.726 397.744 307.644 397.744C307.927 397.744 308.21 397.773 308.416 397.802V396.425C308.171 396.386 307.761 396.347 307.38 396.347C305.505 396.347 304.597 397.275 304.597 399.228V400.361H303.181V401.757H304.597V410.517ZM325.273 404.687V403.349H319.541V404.892H323.515V405.146C323.515 407.509 321.796 409.13 319.296 409.13C316.425 409.13 314.648 406.933 314.648 403.388C314.648 399.902 316.396 397.812 319.296 397.812C321.279 397.812 322.753 398.896 323.339 400.8H325.185C324.658 397.998 322.343 396.191 319.296 396.191C315.351 396.191 312.841 398.994 312.841 403.398C312.841 407.88 315.361 410.751 319.296 410.751C323.056 410.751 325.273 408.496 325.273 404.687ZM334.396 409.101C332.648 409.101 331.505 407.675 331.505 405.4C331.505 403.125 332.648 401.679 334.396 401.679C336.164 401.679 337.345 403.164 337.345 405.4C337.345 407.636 336.164 409.101 334.396 409.101ZM334.455 414.345C337.257 414.345 339.044 412.734 339.044 410.312V400.361H337.423V402.07H337.394C336.72 400.888 335.529 400.185 334.093 400.185C331.466 400.185 329.767 402.216 329.767 405.4C329.767 408.554 331.466 410.595 334.054 410.595C335.48 410.595 336.681 409.873 337.306 408.769H337.345V410.371C337.345 411.884 336.281 412.9 334.523 412.9C333.253 412.9 332.248 412.285 331.916 411.357H330.167C330.451 413.085 332.218 414.345 334.455 414.345ZM355.775 410.517V396.425H354.017V402.519H346.283V396.425H344.525V410.517H346.283V404.101H354.017V410.517H355.775ZM361.333 410.517H363.033V404.599C363.033 402.841 364.078 401.689 365.767 401.689C367.359 401.689 368.169 402.656 368.169 404.267V410.517H369.869V403.955C369.869 401.689 368.521 400.185 366.294 400.185C364.751 400.185 363.638 400.849 363.072 401.982H363.033V396.425H361.333V410.517ZM377.048 410.517V396.425H375.291V410.517H377.048ZM382.607 410.517H384.306V400.361H382.607V410.517ZM383.457 398.652C384.042 398.652 384.521 398.173 384.521 397.597C384.521 397.011 384.042 396.542 383.457 396.542C382.88 396.542 382.402 397.011 382.402 397.597C382.402 398.173 382.88 398.652 383.457 398.652ZM144.244 435.207C144.244 437.345 145.884 438.849 148.228 438.849C150.826 438.849 152.369 437.267 152.369 434.591V424.425H150.611V434.582C150.611 436.3 149.771 437.228 148.218 437.228C146.939 437.228 146.031 436.398 145.992 435.207H144.244ZM159.626 428.361H157.927V439.035C157.927 440.167 157.527 440.587 156.423 440.587C156.414 440.587 156.179 440.587 156.16 440.587V442.003C156.179 442.013 156.453 442.013 156.482 442.013C158.65 442.013 159.626 441.076 159.626 439.015V428.361ZM158.777 426.652C159.363 426.652 159.841 426.173 159.841 425.597C159.841 425.011 159.363 424.542 158.777 424.542C158.201 424.542 157.722 425.011 157.722 425.597C157.722 426.173 158.201 426.652 158.777 426.652ZM166.943 438.517V433.595L168.466 431.916L173.75 438.517H175.996L169.687 430.666L175.478 424.425H173.261L167.041 431.3H166.943V424.425H165.185V438.517H166.943ZM182.013 432.873V424.425H180.314V438.517H182.013V434.689L182.96 433.791L186.73 438.517H188.703L184.162 432.746L188.566 428.361H186.505L182.013 432.873ZM201.751 436.935H194.955V424.425H193.197V438.517H201.751V436.935ZM206.509 438.517H208.208V424.425H206.509V438.517ZM227.654 438.517V424.425H225.613L220.75 436.183H220.671L215.808 424.425H213.767V438.517H215.408V427.658H215.476L219.968 438.419H221.453L225.945 427.658H226.013V438.517H227.654ZM233.125 438.517H234.824V432.15C234.824 430.744 235.8 429.689 237.148 429.689C238.408 429.689 239.228 430.49 239.228 431.71V438.517H240.927V432.062C240.927 430.685 241.875 429.689 243.222 429.689C244.56 429.689 245.332 430.509 245.332 431.896V438.517H247.031V431.505C247.031 429.494 245.732 428.185 243.72 428.185C242.294 428.185 241.103 428.908 240.537 430.119H240.498C240.058 428.888 239.033 428.185 237.646 428.185C236.279 428.185 235.244 428.908 234.765 429.982H234.726V428.361H233.125V438.517ZM254.201 438.517V427.492H254.289L262.003 438.517H263.712V424.425H261.974V435.49H261.886L254.171 424.425H252.462V438.517H254.201ZM273.392 438.693C276.195 438.693 278.089 436.671 278.089 433.439C278.089 430.197 276.195 428.185 273.392 428.185C270.58 428.185 268.685 430.197 268.685 433.439C268.685 436.671 270.58 438.693 273.392 438.693ZM273.392 437.199C271.595 437.199 270.414 435.832 270.414 433.439C270.414 431.046 271.595 429.679 273.392 429.679C275.189 429.679 276.361 431.046 276.361 433.439C276.361 435.832 275.189 437.199 273.392 437.199ZM289.019 424.191C285.025 424.191 282.525 427.003 282.525 431.476C282.525 435.949 285.025 438.751 289.019 438.751C293.013 438.751 295.513 435.949 295.513 431.476C295.513 427.003 293.013 424.191 289.019 424.191ZM289.019 425.812C291.9 425.812 293.707 428 293.707 431.476C293.707 434.943 291.9 437.13 289.019 437.13C286.138 437.13 284.332 434.943 284.332 431.476C284.332 428 286.138 425.812 289.019 425.812ZM305.369 428.185C303.894 428.185 302.712 428.937 302.087 430.08H302.048V428.361H300.437V441.906H302.136V436.867H302.175C302.781 437.98 303.953 438.693 305.408 438.693C307.966 438.693 309.714 436.623 309.714 433.439C309.714 430.255 307.957 428.185 305.369 428.185ZM305.037 437.199C303.298 437.199 302.126 435.705 302.126 433.439C302.126 431.183 303.298 429.679 305.037 429.679C306.843 429.679 307.976 431.144 307.976 433.439C307.976 435.744 306.843 437.199 305.037 437.199ZM314.697 424.425V438.517H316.455V433.488H319.707C322.353 433.488 324.238 431.623 324.238 428.947C324.238 426.281 322.373 424.425 319.726 424.425H314.697ZM316.455 425.988H319.267C321.289 425.988 322.431 427.082 322.431 428.947C322.431 430.822 321.279 431.925 319.267 431.925H316.455V425.988ZM333.927 428.185C332.453 428.185 331.271 428.937 330.646 430.08H330.607V428.361H328.996V441.906H330.695V436.867H330.734C331.339 437.98 332.511 438.693 333.966 438.693C336.525 438.693 338.273 436.623 338.273 433.439C338.273 430.255 336.515 428.185 333.927 428.185ZM333.595 437.199C331.857 437.199 330.685 435.705 330.685 433.439C330.685 431.183 331.857 429.679 333.595 429.679C335.402 429.679 336.535 431.144 336.535 433.439C336.535 435.744 335.402 437.199 333.595 437.199ZM349.203 438.751C350.13 438.751 350.97 438.605 351.722 438.312L353.031 440.109H355.003L353.138 437.541C354.769 436.31 355.697 434.201 355.697 431.476C355.697 427.003 353.197 424.191 349.203 424.191C345.208 424.191 342.708 427.003 342.708 431.476C342.708 435.949 345.208 438.751 349.203 438.751ZM349.203 437.13C346.322 437.13 344.515 434.943 344.515 431.476C344.515 428 346.322 425.812 349.203 425.812C352.083 425.812 353.89 428 353.89 431.476C353.89 433.546 353.246 435.167 352.113 436.125L350.912 434.484H348.939L350.697 436.906C350.238 437.052 349.74 437.13 349.203 437.13ZM364.449 428.185C361.841 428.185 360.123 430.246 360.123 433.439C360.123 436.623 361.841 438.693 364.41 438.693C365.845 438.693 367.027 437.98 367.662 436.818H367.701V441.906H369.4V428.361H367.779V430.08H367.74C367.085 428.908 365.923 428.185 364.449 428.185ZM364.751 437.199C362.974 437.199 361.861 435.753 361.861 433.439C361.861 431.115 362.974 429.679 364.751 429.679C366.49 429.679 367.701 431.173 367.701 433.439C367.701 435.705 366.49 437.199 364.751 437.199ZM376.638 425.988H379.929C381.746 425.988 382.839 426.994 382.839 428.683C382.839 430.412 381.814 431.388 380.007 431.388H376.638V425.988ZM376.638 432.941H380.007L383.025 438.517H385.085L381.824 432.667C383.591 432.111 384.656 430.587 384.656 428.625C384.656 426.085 382.878 424.425 380.164 424.425H374.88V438.517H376.638V432.941ZM389.609 438.517H391.308V432.189C391.308 430.753 392.167 429.806 393.486 429.806C393.896 429.806 394.257 429.855 394.394 429.904V428.253C394.257 428.234 394.003 428.185 393.71 428.185C392.519 428.185 391.582 428.898 391.25 430.021H391.21V428.361H389.609V438.517ZM144.527 462.64C144.693 465.13 146.763 466.751 149.751 466.751C152.994 466.751 155.025 465.14 155.025 462.562C155.025 460.541 153.843 459.417 150.923 458.685L149.449 458.294C147.535 457.796 146.753 457.162 146.753 456.097C146.753 454.72 148.023 453.773 149.849 453.773C151.685 453.773 152.906 454.701 153.062 456.214H154.82C154.742 453.851 152.71 452.191 149.908 452.191C146.978 452.191 144.927 453.832 144.927 456.175C144.927 458.089 146.08 459.232 148.677 459.896L150.484 460.365C152.378 460.853 153.208 461.585 153.208 462.777C153.208 464.164 151.822 465.169 149.917 465.169C147.906 465.169 146.46 464.164 146.294 462.64H144.527ZM159.636 459.164C159.636 460.55 160.515 461.468 162.302 461.927L164.089 462.386C165.232 462.689 165.652 463.08 165.652 463.802C165.652 464.72 164.802 465.306 163.425 465.306C162.048 465.306 161.248 464.74 161.062 463.685H159.363C159.539 465.482 161.091 466.693 163.318 466.693C165.691 466.693 167.361 465.443 167.361 463.675C167.361 462.181 166.619 461.439 164.568 460.921L162.996 460.541C161.843 460.248 161.306 459.779 161.306 459.076C161.306 458.187 162.126 457.572 163.367 457.572C164.617 457.572 165.408 458.177 165.525 459.154H167.146C167.068 457.435 165.525 456.185 163.425 456.185C161.189 456.185 159.636 457.425 159.636 459.164ZM175.078 466.517V454.007H179.521V452.425H168.876V454.007H173.32V466.517H175.078ZM184.66 453.91V456.361H183.146V457.757H184.66V463.88C184.66 465.833 185.382 466.595 187.248 466.595C187.648 466.595 188.117 466.566 188.322 466.517V465.091C188.205 465.111 187.814 465.14 187.619 465.14C186.75 465.14 186.359 464.72 186.359 463.792V457.757H188.332V456.361H186.359V453.91H184.66ZM195.169 452.425H193.412V461.576C193.412 464.583 195.511 466.751 199.007 466.751C202.503 466.751 204.603 464.583 204.603 461.576V452.425H202.845V461.458C202.845 463.587 201.449 465.13 199.007 465.13C196.566 465.13 195.169 463.587 195.169 461.458V452.425ZM218.414 456.361H216.714V462.328C216.714 464.056 215.718 465.189 214.068 465.189C212.496 465.189 211.724 464.3 211.724 462.65V456.361H210.025V462.953C210.025 465.257 211.324 466.693 213.541 466.693C215.103 466.693 216.158 466.039 216.763 464.867H216.802V466.517H218.414V456.361ZM228.914 466.517L234.109 452.425H232.263L228.074 464.378H228.015L223.826 452.425H221.98L227.175 466.517H228.914ZM246.494 456.361H244.726L241.914 464.71H241.875L239.072 456.361H237.285L241.025 466.517H242.763L246.494 456.361ZM258.722 455.335H258.82L262.072 466.517H263.732L267.57 452.425H265.734L262.912 463.929H262.833L259.66 452.425H257.882L254.708 463.929H254.63L251.808 452.425H249.972L253.81 466.517H255.47L258.722 455.335ZM285.033 456.361H283.353L281.322 464.623H281.283L278.978 456.361H277.337L275.042 464.623H275.003L272.972 456.361H271.283L274.125 466.517H275.853L278.138 458.656H278.177L280.472 466.517H282.201L285.033 456.361ZM288.375 466.517H290.367L294.166 460.902H294.234L297.974 466.517H300.083L295.328 459.535V459.476L300.191 452.425H298.189L294.38 458.089H294.312L290.552 452.425H288.433L293.169 459.388V459.457L288.375 466.517ZM308.328 462.65L310.759 466.517H312.644L309.265 461.371L312.693 456.361H310.798L308.386 460.169H308.347L305.906 456.361H304.011L307.41 461.439L303.953 466.517H305.837L308.289 462.65H308.328ZM322.343 466.517V460.453L327.343 452.425H325.341L321.494 458.753H321.435L317.587 452.425H315.585L320.585 460.453V466.517H322.343ZM331.945 470.316C333.781 470.316 334.621 469.603 335.49 467.23L339.484 456.361H337.697L334.884 464.818H334.855L332.042 456.361H330.226L333.976 466.527L333.742 467.24C333.351 468.421 332.824 468.88 331.876 468.88C331.662 468.88 331.398 468.871 331.212 468.832V470.257C331.398 470.296 331.74 470.316 331.945 470.316ZM343.685 466.517H354.105V464.935H345.941V464.867L353.939 453.675V452.425H343.958V454.007H351.722V454.076L343.685 465.267V466.517ZM358.96 466.517H366.539V465.121H360.923V465.091L366.509 457.601V456.361H358.97V457.757H364.585V457.787L358.96 465.306V466.517Z" fill="#282828"/>
<path d="M58.5605 360.654H64.0977L48.5117 318.378H43.2969L27.7109 360.654H33.248L37.4961 348.554H54.3125L58.5605 360.654ZM45.8164 324.794H45.9922L52.7598 344.072H39.0488L45.8164 324.794ZM79.9895 356.845C76.3273 356.845 73.8957 354.941 73.8957 352.041C73.8957 349.169 76.2395 347.353 80.341 347.089L88.4855 346.591V349.082C88.4855 353.476 84.7941 356.845 79.9895 356.845ZM78.8469 361.181C82.9484 361.181 86.8156 358.896 88.632 355.41H88.7492V360.654H93.5832V339.589C93.5832 333.525 89.0715 329.658 81.923 329.658C74.716 329.658 70.2043 333.701 69.8527 338.974H74.7746C75.4191 335.986 77.8801 334.14 81.8059 334.14C86.0246 334.14 88.4855 336.367 88.4855 340.087V342.636L79.7551 343.134C72.7238 343.544 68.7102 346.826 68.7102 352.041C68.7102 357.519 72.7824 361.181 78.8469 361.181Z" fill="#282828"/>
<circle cx="194.047" cy="221.711" r="27.7431" fill="#CCCCCC"/>
<circle cx="261.534" cy="221.711" r="27.7431" fill="#E9E9E9"/>
<circle cx="70.5073" cy="61.5146" r="39.1758" fill="#002B99"/>
<path d="M40.7524 126.918H39.2944V125.982H40.8604L41.2024 123.228H39.6544V122.292H41.3104L41.7424 118.944H42.6064L42.1924 122.292H44.6584L45.0904 118.944H45.9544L45.5404 122.292H46.9804V123.228H45.4324L45.0904 125.982H46.6204V126.918H44.9824L44.5324 130.644H43.6504L44.1004 126.918H41.6344L41.1844 130.644H40.3024L40.7524 126.918ZM44.2084 125.982L44.5504 123.228H42.0844L41.7424 125.982H44.2084ZM51.9517 130.86C50.8117 130.86 49.9237 130.338 49.2877 129.294C48.6517 128.25 48.3337 126.774 48.3337 124.866C48.3337 122.958 48.6517 121.494 49.2877 120.474C49.9237 119.454 50.8117 118.944 51.9517 118.944C53.0917 118.944 53.9797 119.454 54.6157 120.474C55.2517 121.494 55.5697 122.958 55.5697 124.866C55.5697 126.774 55.2517 128.25 54.6157 129.294C53.9797 130.338 53.0917 130.86 51.9517 130.86ZM51.9517 129.798C52.6837 129.798 53.2537 129.39 53.6617 128.574C54.0817 127.746 54.2917 126.51 54.2917 124.866C54.2917 123.222 54.0817 122.004 53.6617 121.212C53.2537 120.408 52.6837 120.006 51.9517 120.006C51.2197 120.006 50.6437 120.408 50.2237 121.212C49.8157 122.004 49.6117 123.222 49.6117 124.866C49.6117 126.51 49.8157 127.746 50.2237 128.574C50.6437 129.39 51.2197 129.798 51.9517 129.798ZM60.8111 130.86C59.6711 130.86 58.7831 130.338 58.1471 129.294C57.5111 128.25 57.1931 126.774 57.1931 124.866C57.1931 122.958 57.5111 121.494 58.1471 120.474C58.7831 119.454 59.6711 118.944 60.8111 118.944C61.9511 118.944 62.8391 119.454 63.4751 120.474C64.1111 121.494 64.4291 122.958 64.4291 124.866C64.4291 126.774 64.1111 128.25 63.4751 129.294C62.8391 130.338 61.9511 130.86 60.8111 130.86ZM60.8111 129.798C61.5431 129.798 62.1131 129.39 62.5211 128.574C62.9411 127.746 63.1511 126.51 63.1511 124.866C63.1511 123.222 62.9411 122.004 62.5211 121.212C62.1131 120.408 61.5431 120.006 60.8111 120.006C60.0791 120.006 59.5031 120.408 59.0831 121.212C58.6751 122.004 58.4711 123.222 58.4711 124.866C58.4711 126.51 58.6751 127.746 59.0831 128.574C59.5031 129.39 60.0791 129.798 60.8111 129.798ZM65.9625 129.87C67.3185 128.502 68.3685 127.404 69.1125 126.576C69.8565 125.748 70.4265 124.986 70.8225 124.29C71.2305 123.594 71.4345 122.94 71.4345 122.328C71.4345 121.632 71.2425 121.074 70.8585 120.654C70.4745 120.234 69.9105 120.024 69.1665 120.024C68.7105 120.024 68.2665 120.15 67.8345 120.402C67.4145 120.654 67.0245 120.996 66.6645 121.428L65.8905 120.672C66.3945 120.12 66.9225 119.694 67.4745 119.394C68.0265 119.094 68.6445 118.944 69.3285 118.944C70.3725 118.944 71.2005 119.25 71.8125 119.862C72.4245 120.462 72.7305 121.266 72.7305 122.274C72.7305 122.97 72.5325 123.684 72.1365 124.416C71.7525 125.148 71.2425 125.886 70.6065 126.63C69.9705 127.374 69.0645 128.364 67.8885 129.6L68.3205 129.582C68.9925 129.534 69.4905 129.51 69.8145 129.51H73.2885V130.644H65.9625V129.87ZM75.7579 118.818H79.1779C80.4379 118.818 81.4219 119.058 82.1299 119.538C82.8499 120.006 83.2099 120.732 83.2099 121.716C83.2099 122.316 83.0539 122.85 82.7419 123.318C82.4299 123.774 81.9979 124.092 81.4459 124.272V124.344C82.2019 124.488 82.7959 124.806 83.2279 125.298C83.6719 125.778 83.8939 126.408 83.8939 127.188C83.8939 128.316 83.4919 129.174 82.6879 129.762C81.8959 130.35 80.8159 130.644 79.4479 130.644H75.7579V118.818ZM78.9079 123.894C80.8999 123.894 81.8959 123.222 81.8959 121.878C81.8959 121.17 81.6559 120.66 81.1759 120.348C80.6959 120.036 79.9639 119.88 78.9799 119.88H77.0899V123.894H78.9079ZM79.2319 129.582C80.3119 129.582 81.1399 129.384 81.7159 128.988C82.2919 128.58 82.5799 127.968 82.5799 127.152C82.5799 125.664 81.4639 124.92 79.2319 124.92H77.0899V129.582H79.2319ZM88.6812 118.944C89.4492 118.944 90.1272 119.154 90.7152 119.574C91.3152 119.982 91.7772 120.6 92.1012 121.428C92.4372 122.244 92.6052 123.246 92.6052 124.434C92.6052 125.922 92.4072 127.146 92.0112 128.106C91.6152 129.066 91.0932 129.768 90.4452 130.212C89.7972 130.644 89.0712 130.86 88.2672 130.86C87.1872 130.86 86.2932 130.464 85.5852 129.672L86.3232 128.844C86.5632 129.132 86.8452 129.36 87.1692 129.528C87.5052 129.684 87.8532 129.762 88.2132 129.762C89.1252 129.762 89.8692 129.36 90.4452 128.556C91.0212 127.752 91.3212 126.456 91.3452 124.668C90.9732 125.136 90.5412 125.502 90.0492 125.766C89.5692 126.03 89.0892 126.162 88.6092 126.162C87.5892 126.162 86.7912 125.862 86.2152 125.262C85.6392 124.65 85.3512 123.762 85.3512 122.598C85.3512 121.902 85.5012 121.278 85.8012 120.726C86.1012 120.162 86.5032 119.724 87.0072 119.412C87.5232 119.1 88.0812 118.944 88.6812 118.944ZM88.8252 125.154C89.2212 125.154 89.6352 125.028 90.0672 124.776C90.5112 124.524 90.9252 124.128 91.3092 123.588C91.2252 122.436 90.9612 121.548 90.5172 120.924C90.0732 120.3 89.4612 119.988 88.6812 119.988C88.0932 119.988 87.6012 120.234 87.2052 120.726C86.8092 121.206 86.6112 121.83 86.6112 122.598C86.6112 123.402 86.7972 124.032 87.1692 124.488C87.5412 124.932 88.0932 125.154 88.8252 125.154ZM97.5405 118.944C98.3085 118.944 98.9865 119.154 99.5745 119.574C100.175 119.982 100.637 120.6 100.961 121.428C101.297 122.244 101.465 123.246 101.465 124.434C101.465 125.922 101.267 127.146 100.871 128.106C100.475 129.066 99.9525 129.768 99.3045 130.212C98.6565 130.644 97.9305 130.86 97.1265 130.86C96.0465 130.86 95.1525 130.464 94.4445 129.672L95.1825 128.844C95.4225 129.132 95.7045 129.36 96.0285 129.528C96.3645 129.684 96.7125 129.762 97.0725 129.762C97.9845 129.762 98.7285 129.36 99.3045 128.556C99.8805 127.752 100.181 126.456 100.205 124.668C99.8325 125.136 99.4005 125.502 98.9085 125.766C98.4285 126.03 97.9485 126.162 97.4685 126.162C96.4485 126.162 95.6505 125.862 95.0745 125.262C94.4985 124.65 94.2105 123.762 94.2105 122.598C94.2105 121.902 94.3605 121.278 94.6605 120.726C94.9605 120.162 95.3625 119.724 95.8665 119.412C96.3825 119.1 96.9405 118.944 97.5405 118.944ZM97.6845 125.154C98.0805 125.154 98.4945 125.028 98.9265 124.776C99.3705 124.524 99.7845 124.128 100.169 123.588C100.085 122.436 99.8205 121.548 99.3765 120.924C98.9325 120.3 98.3205 119.988 97.5405 119.988C96.9525 119.988 96.4605 120.234 96.0645 120.726C95.6685 121.206 95.4705 121.83 95.4705 122.598C95.4705 123.402 95.6565 124.032 96.0285 124.488C96.4005 124.932 96.9525 125.154 97.6845 125.154Z" fill="#333333"/>
<circle cx="172.564" cy="61.5146" r="39.1758" fill="#FFB30F"/>
<path d="M142.863 126.918H141.405V125.982H142.971L143.313 123.228H141.765V122.292H143.421L143.853 118.944H144.717L144.303 122.292H146.769L147.201 118.944H148.065L147.651 122.292H149.091V123.228H147.543L147.201 125.982H148.731V126.918H147.093L146.643 130.644H145.761L146.211 126.918H143.745L143.295 130.644H142.413L142.863 126.918ZM146.319 125.982L146.661 123.228H144.195L143.853 125.982H146.319ZM151.29 118.818H158.004V119.952H152.622V124.128H157.176V125.244H152.622V130.644H151.29V118.818ZM160.114 118.818H166.828V119.952H161.446V124.128H166V125.244H161.446V130.644H160.114V118.818ZM168.939 118.818H172.359C173.619 118.818 174.603 119.058 175.311 119.538C176.031 120.006 176.391 120.732 176.391 121.716C176.391 122.316 176.235 122.85 175.923 123.318C175.611 123.774 175.179 124.092 174.627 124.272V124.344C175.383 124.488 175.977 124.806 176.409 125.298C176.853 125.778 177.075 126.408 177.075 127.188C177.075 128.316 176.673 129.174 175.869 129.762C175.077 130.35 173.997 130.644 172.629 130.644H168.939V118.818ZM172.089 123.894C174.081 123.894 175.077 123.222 175.077 121.878C175.077 121.17 174.837 120.66 174.357 120.348C173.877 120.036 173.145 119.88 172.161 119.88H170.271V123.894H172.089ZM172.413 129.582C173.493 129.582 174.321 129.384 174.897 128.988C175.473 128.58 175.761 127.968 175.761 127.152C175.761 125.664 174.645 124.92 172.413 124.92H170.271V129.582H172.413ZM182.042 130.86C180.53 130.86 179.282 130.32 178.298 129.24L178.964 128.376C179.384 128.808 179.828 129.15 180.296 129.402C180.776 129.642 181.334 129.762 181.97 129.762C182.702 129.762 183.296 129.564 183.752 129.168C184.208 128.76 184.436 128.22 184.436 127.548C184.436 125.964 183.182 125.172 180.674 125.172V124.146C181.85 124.146 182.702 123.942 183.23 123.534C183.758 123.126 184.022 122.586 184.022 121.914C184.022 121.338 183.836 120.882 183.464 120.546C183.092 120.198 182.588 120.024 181.952 120.024C181.04 120.024 180.206 120.42 179.45 121.212L178.73 120.366C179.738 119.418 180.824 118.944 181.988 118.944C182.984 118.944 183.794 119.202 184.418 119.718C185.042 120.222 185.354 120.924 185.354 121.824C185.354 122.496 185.162 123.066 184.778 123.534C184.406 123.99 183.89 124.338 183.23 124.578V124.65C183.974 124.818 184.58 125.16 185.048 125.676C185.528 126.192 185.768 126.828 185.768 127.584C185.768 128.244 185.6 128.826 185.264 129.33C184.94 129.822 184.496 130.2 183.932 130.464C183.368 130.728 182.738 130.86 182.042 130.86ZM191.099 130.86C189.959 130.86 189.071 130.338 188.435 129.294C187.799 128.25 187.481 126.774 187.481 124.866C187.481 122.958 187.799 121.494 188.435 120.474C189.071 119.454 189.959 118.944 191.099 118.944C192.239 118.944 193.127 119.454 193.763 120.474C194.399 121.494 194.717 122.958 194.717 124.866C194.717 126.774 194.399 128.25 193.763 129.294C193.127 130.338 192.239 130.86 191.099 130.86ZM191.099 129.798C191.831 129.798 192.401 129.39 192.809 128.574C193.229 127.746 193.439 126.51 193.439 124.866C193.439 123.222 193.229 122.004 192.809 121.212C192.401 120.408 191.831 120.006 191.099 120.006C190.367 120.006 189.791 120.408 189.371 121.212C188.963 122.004 188.759 123.222 188.759 124.866C188.759 126.51 188.963 127.746 189.371 128.574C189.791 129.39 190.367 129.798 191.099 129.798ZM197.187 118.818H203.901V119.952H198.519V124.128H203.073V125.244H198.519V130.644H197.187V118.818Z" fill="#414143"/>
<circle cx="274.622" cy="61.5146" r="39.1758" fill="#E3070C"/>
<path d="M244.718 126.918H243.26V125.982H244.826L245.168 123.228H243.62V122.292H245.276L245.708 118.944H246.572L246.158 122.292H248.624L249.056 118.944H249.92L249.506 122.292H250.946V123.228H249.398L249.056 125.982H250.586V126.918H248.948L248.498 130.644H247.616L248.066 126.918H245.6L245.15 130.644H244.268L244.718 126.918ZM248.174 125.982L248.516 123.228H246.05L245.708 125.982H248.174ZM253.145 118.818H259.859V119.952H254.477V123.858H259.013V124.974H254.477V129.51H260.039V130.644H253.145V118.818ZM265.159 130.86C263.647 130.86 262.399 130.32 261.415 129.24L262.081 128.376C262.501 128.808 262.945 129.15 263.413 129.402C263.893 129.642 264.451 129.762 265.087 129.762C265.819 129.762 266.413 129.564 266.869 129.168C267.325 128.76 267.553 128.22 267.553 127.548C267.553 125.964 266.299 125.172 263.791 125.172V124.146C264.967 124.146 265.819 123.942 266.347 123.534C266.875 123.126 267.139 122.586 267.139 121.914C267.139 121.338 266.953 120.882 266.581 120.546C266.209 120.198 265.705 120.024 265.069 120.024C264.157 120.024 263.323 120.42 262.567 121.212L261.847 120.366C262.855 119.418 263.941 118.944 265.105 118.944C266.101 118.944 266.911 119.202 267.535 119.718C268.159 120.222 268.471 120.924 268.471 121.824C268.471 122.496 268.279 123.066 267.895 123.534C267.523 123.99 267.007 124.338 266.347 124.578V124.65C267.091 124.818 267.697 125.16 268.165 125.676C268.645 126.192 268.885 126.828 268.885 127.584C268.885 128.244 268.717 128.826 268.381 129.33C268.057 129.822 267.613 130.2 267.049 130.464C266.485 130.728 265.855 130.86 265.159 130.86ZM274.216 130.86C273.076 130.86 272.188 130.338 271.552 129.294C270.916 128.25 270.598 126.774 270.598 124.866C270.598 122.958 270.916 121.494 271.552 120.474C272.188 119.454 273.076 118.944 274.216 118.944C275.356 118.944 276.244 119.454 276.88 120.474C277.516 121.494 277.834 122.958 277.834 124.866C277.834 126.774 277.516 128.25 276.88 129.294C276.244 130.338 275.356 130.86 274.216 130.86ZM274.216 129.798C274.948 129.798 275.518 129.39 275.926 128.574C276.346 127.746 276.556 126.51 276.556 124.866C276.556 123.222 276.346 122.004 275.926 121.212C275.518 120.408 274.948 120.006 274.216 120.006C273.484 120.006 272.908 120.408 272.488 121.212C272.08 122.004 271.876 123.222 271.876 124.866C271.876 126.51 272.08 127.746 272.488 128.574C272.908 129.39 273.484 129.798 274.216 129.798ZM281.887 130.644C281.983 128.436 282.283 126.558 282.787 125.01C283.291 123.45 284.107 121.878 285.235 120.294H279.439V119.16H286.747V119.952C285.859 121.104 285.169 122.208 284.677 123.264C284.197 124.32 283.855 125.412 283.651 126.54C283.447 127.668 283.309 129.036 283.237 130.644H281.887ZM291.935 130.86C290.795 130.86 289.907 130.338 289.271 129.294C288.635 128.25 288.317 126.774 288.317 124.866C288.317 122.958 288.635 121.494 289.271 120.474C289.907 119.454 290.795 118.944 291.935 118.944C293.075 118.944 293.963 119.454 294.599 120.474C295.235 121.494 295.553 122.958 295.553 124.866C295.553 126.774 295.235 128.25 294.599 129.294C293.963 130.338 293.075 130.86 291.935 130.86ZM291.935 129.798C292.667 129.798 293.237 129.39 293.645 128.574C294.065 127.746 294.275 126.51 294.275 124.866C294.275 123.222 294.065 122.004 293.645 121.212C293.237 120.408 292.667 120.006 291.935 120.006C291.203 120.006 290.627 120.408 290.207 121.212C289.799 122.004 289.595 123.222 289.595 124.866C289.595 126.51 289.799 127.746 290.207 128.574C290.627 129.39 291.203 129.798 291.935 129.798ZM302.414 130.86C301.43 130.86 300.548 130.614 299.768 130.122C299 129.63 298.394 128.922 297.95 127.998C297.518 127.074 297.302 125.988 297.302 124.74C297.302 123.504 297.524 122.424 297.968 121.5C298.412 120.564 299.03 119.85 299.822 119.358C300.614 118.854 301.508 118.602 302.504 118.602C303.164 118.602 303.77 118.74 304.322 119.016C304.874 119.292 305.336 119.634 305.708 120.042L304.97 120.924C304.286 120.156 303.47 119.772 302.522 119.772C301.754 119.772 301.082 119.976 300.506 120.384C299.93 120.78 299.48 121.35 299.156 122.094C298.844 122.826 298.688 123.696 298.688 124.704C298.688 125.712 298.838 126.594 299.138 127.35C299.45 128.094 299.888 128.67 300.452 129.078C301.028 129.486 301.7 129.69 302.468 129.69C303.02 129.69 303.518 129.576 303.962 129.348C304.418 129.12 304.856 128.778 305.276 128.322L306.014 129.15C305.534 129.714 305 130.14 304.412 130.428C303.824 130.716 303.158 130.86 302.414 130.86Z" fill="#414143"/>
<circle cx="376.679" cy="61.5146" r="39.1758" fill="#219653"/>
<path d="M348.128 126.918H346.67V125.982H348.236L348.578 123.228H347.03V122.292H348.686L349.118 118.944H349.982L349.568 122.292H352.034L352.466 118.944H353.33L352.916 122.292H354.356V123.228H352.808L352.466 125.982H353.996V126.918H352.358L351.908 130.644H351.026L351.476 126.918H349.01L348.56 130.644H347.678L348.128 126.918ZM351.584 125.982L351.926 123.228H349.46L349.118 125.982H351.584ZM355.62 129.87C356.976 128.502 358.026 127.404 358.77 126.576C359.514 125.748 360.084 124.986 360.48 124.29C360.888 123.594 361.092 122.94 361.092 122.328C361.092 121.632 360.9 121.074 360.516 120.654C360.132 120.234 359.568 120.024 358.824 120.024C358.368 120.024 357.924 120.15 357.492 120.402C357.072 120.654 356.682 120.996 356.322 121.428L355.548 120.672C356.052 120.12 356.58 119.694 357.132 119.394C357.684 119.094 358.302 118.944 358.986 118.944C360.03 118.944 360.858 119.25 361.47 119.862C362.082 120.462 362.388 121.266 362.388 122.274C362.388 122.97 362.19 123.684 361.794 124.416C361.41 125.148 360.9 125.886 360.264 126.63C359.628 127.374 358.722 128.364 357.546 129.6L357.978 129.582C358.65 129.534 359.148 129.51 359.472 129.51H362.946V130.644H355.62V129.87ZM364.641 129.546H367.287V120.816H365.199V119.97C366.171 119.802 366.969 119.532 367.593 119.16H368.601V129.546H370.995V130.644H364.641V129.546ZM375.93 118.944C376.698 118.944 377.376 119.154 377.964 119.574C378.564 119.982 379.026 120.6 379.35 121.428C379.686 122.244 379.854 123.246 379.854 124.434C379.854 125.922 379.656 127.146 379.26 128.106C378.864 129.066 378.342 129.768 377.694 130.212C377.046 130.644 376.32 130.86 375.516 130.86C374.436 130.86 373.542 130.464 372.834 129.672L373.572 128.844C373.812 129.132 374.094 129.36 374.418 129.528C374.754 129.684 375.102 129.762 375.462 129.762C376.374 129.762 377.118 129.36 377.694 128.556C378.27 127.752 378.57 126.456 378.594 124.668C378.222 125.136 377.79 125.502 377.298 125.766C376.818 126.03 376.338 126.162 375.858 126.162C374.838 126.162 374.04 125.862 373.464 125.262C372.888 124.65 372.6 123.762 372.6 122.598C372.6 121.902 372.75 121.278 373.05 120.726C373.35 120.162 373.752 119.724 374.256 119.412C374.772 119.1 375.33 118.944 375.93 118.944ZM376.074 125.154C376.47 125.154 376.884 125.028 377.316 124.776C377.76 124.524 378.174 124.128 378.558 123.588C378.474 122.436 378.21 121.548 377.766 120.924C377.322 120.3 376.71 119.988 375.93 119.988C375.342 119.988 374.85 120.234 374.454 120.726C374.058 121.206 373.86 121.83 373.86 122.598C373.86 123.402 374.046 124.032 374.418 124.488C374.79 124.932 375.342 125.154 376.074 125.154ZM385.618 123.642C386.626 123.642 387.418 123.948 387.994 124.56C388.57 125.172 388.858 126.054 388.858 127.206C388.858 127.914 388.708 128.544 388.408 129.096C388.108 129.648 387.7 130.08 387.184 130.392C386.68 130.704 386.128 130.86 385.528 130.86C384.76 130.86 384.082 130.656 383.494 130.248C382.906 129.828 382.444 129.204 382.108 128.376C381.784 127.548 381.622 126.546 381.622 125.37C381.622 123.882 381.82 122.658 382.216 121.698C382.612 120.738 383.134 120.042 383.782 119.61C384.43 119.166 385.156 118.944 385.96 118.944C387.016 118.944 387.91 119.34 388.642 120.132L387.904 120.96C387.664 120.672 387.376 120.45 387.04 120.294C386.716 120.126 386.368 120.042 385.996 120.042C385.084 120.042 384.34 120.45 383.764 121.266C383.188 122.07 382.888 123.366 382.864 125.154C383.236 124.686 383.668 124.32 384.16 124.056C384.652 123.78 385.138 123.642 385.618 123.642ZM385.546 129.816C386.134 129.816 386.626 129.57 387.022 129.078C387.418 128.586 387.616 127.962 387.616 127.206C387.616 126.402 387.43 125.778 387.058 125.334C386.686 124.878 386.134 124.65 385.402 124.65C384.994 124.65 384.568 124.782 384.124 125.046C383.692 125.298 383.284 125.694 382.9 126.234C382.996 127.386 383.266 128.274 383.71 128.898C384.154 129.51 384.766 129.816 385.546 129.816ZM393.775 130.86C392.947 130.86 392.233 130.716 391.633 130.428C391.045 130.14 390.517 129.762 390.049 129.294L390.715 128.43C391.123 128.838 391.555 129.162 392.011 129.402C392.479 129.642 393.031 129.762 393.667 129.762C394.147 129.762 394.585 129.648 394.981 129.42C395.377 129.192 395.689 128.874 395.917 128.466C396.145 128.046 396.259 127.566 396.259 127.026C396.259 126.21 396.031 125.568 395.575 125.1C395.119 124.632 394.507 124.398 393.739 124.398C393.355 124.398 393.013 124.452 392.713 124.56C392.425 124.668 392.095 124.848 391.723 125.1L391.003 124.65L391.381 119.16H397.015V120.294H392.533L392.209 123.876C392.509 123.708 392.803 123.582 393.091 123.498C393.379 123.414 393.697 123.372 394.045 123.372C395.089 123.372 395.941 123.678 396.601 124.29C397.261 124.89 397.591 125.784 397.591 126.972C397.591 127.764 397.411 128.454 397.051 129.042C396.703 129.63 396.235 130.08 395.647 130.392C395.071 130.704 394.447 130.86 393.775 130.86ZM402.688 130.86C401.176 130.86 399.928 130.32 398.944 129.24L399.61 128.376C400.03 128.808 400.474 129.15 400.942 129.402C401.422 129.642 401.98 129.762 402.616 129.762C403.348 129.762 403.942 129.564 404.398 129.168C404.854 128.76 405.082 128.22 405.082 127.548C405.082 125.964 403.828 125.172 401.32 125.172V124.146C402.496 124.146 403.348 123.942 403.876 123.534C404.404 123.126 404.668 122.586 404.668 121.914C404.668 121.338 404.482 120.882 404.11 120.546C403.738 120.198 403.234 120.024 402.598 120.024C401.686 120.024 400.852 120.42 400.096 121.212L399.376 120.366C400.384 119.418 401.47 118.944 402.634 118.944C403.63 118.944 404.44 119.202 405.064 119.718C405.688 120.222 406 120.924 406 121.824C406 122.496 405.808 123.066 405.424 123.534C405.052 123.99 404.536 124.338 403.876 124.578V124.65C404.62 124.818 405.226 125.16 405.694 125.676C406.174 126.192 406.414 126.828 406.414 127.584C406.414 128.244 406.246 128.826 405.91 129.33C405.586 129.822 405.142 130.2 404.578 130.464C404.014 130.728 403.384 130.86 402.688 130.86Z" fill="#414143"/>
</svg>
