<svg viewBox="0 0 170 170" fill="none" xmlns="http://www.w3.org/2000/svg">
<g filter="url(#filter0_d)">
<path d="M42.6284 91.7194H48.0884V76.7434H43.4864V73.4284C44.7604 73.1944 45.8654 72.9084 46.8014 72.5704C47.7374 72.2324 48.6344 71.7904 49.4924 71.2444H53.4314V91.7194H58.1504V96.0484H42.6284V91.7194Z" fill="#FDFDFD"/>
<path d="M70.6904 96.5164C68.9224 96.5164 67.3754 96.0224 66.0494 95.0344C64.7494 94.0204 63.7354 92.5384 63.0074 90.5884C62.3054 88.6384 61.9544 86.2854 61.9544 83.5294C61.9544 79.4214 62.7344 76.2754 64.2944 74.0914C65.8544 71.8814 67.9864 70.7764 70.6904 70.7764C73.3684 70.7764 75.4874 71.8814 77.0474 74.0914C78.6074 76.2754 79.3874 79.4214 79.3874 83.5294C79.3874 86.2854 79.0234 88.6384 78.2954 90.5884C77.5934 92.5384 76.5924 94.0204 75.2924 95.0344C73.9924 96.0224 72.4584 96.5164 70.6904 96.5164ZM70.6904 92.3824C71.8344 92.3824 72.7314 91.7194 73.3814 90.3934C74.0314 89.0414 74.3564 86.7534 74.3564 83.5294C74.3564 80.3574 74.0314 78.1344 73.3814 76.8604C72.7314 75.5604 71.8344 74.9104 70.6904 74.9104C69.5204 74.9104 68.6104 75.5474 67.9604 76.8214C67.3364 78.0954 67.0244 80.3314 67.0244 83.5294C67.0244 86.7534 67.3494 89.0414 67.9994 90.3934C68.6494 91.7194 69.5464 92.3824 70.6904 92.3824Z" fill="#FDFDFD"/>
<path d="M91.8845 96.5164C90.1165 96.5164 88.5695 96.0224 87.2435 95.0344C85.9435 94.0204 84.9295 92.5384 84.2015 90.5884C83.4995 88.6384 83.1485 86.2854 83.1485 83.5294C83.1485 79.4214 83.9285 76.2754 85.4885 74.0914C87.0485 71.8814 89.1805 70.7764 91.8845 70.7764C94.5625 70.7764 96.6815 71.8814 98.2415 74.0914C99.8015 76.2754 100.582 79.4214 100.582 83.5294C100.582 86.2854 100.218 88.6384 99.4895 90.5884C98.7875 92.5384 97.7865 94.0204 96.4865 95.0344C95.1865 96.0224 93.6525 96.5164 91.8845 96.5164ZM91.8845 92.3824C93.0285 92.3824 93.9255 91.7194 94.5755 90.3934C95.2255 89.0414 95.5505 86.7534 95.5505 83.5294C95.5505 80.3574 95.2255 78.1344 94.5755 76.8604C93.9255 75.5604 93.0285 74.9104 91.8845 74.9104C90.7145 74.9104 89.8045 75.5474 89.1545 76.8214C88.5305 78.0954 88.2185 80.3314 88.2185 83.5294C88.2185 86.7534 88.5435 89.0414 89.1935 90.3934C89.8435 91.7194 90.7405 92.3824 91.8845 92.3824Z" fill="#FDFDFD"/>
<path d="M109.817 86.2064C108.041 86.2064 106.598 85.528 105.488 84.1714C104.402 82.79 103.86 80.903 103.86 78.5104C103.86 76.1424 104.402 74.28 105.488 72.9234C106.598 71.5667 108.041 70.8884 109.817 70.8884C111.568 70.8884 112.986 71.5667 114.072 72.9234C115.182 74.28 115.737 76.1424 115.737 78.5104C115.737 80.8784 115.182 82.753 114.072 84.1344C112.986 85.5157 111.568 86.2064 109.817 86.2064ZM123.544 71.4434H126.504L113.406 96.4924H110.446L123.544 71.4434ZM109.817 83.3574C110.532 83.3574 111.099 82.975 111.519 82.2104C111.963 81.421 112.185 80.1877 112.185 78.5104C112.185 76.8577 111.963 75.649 111.519 74.8844C111.099 74.1197 110.532 73.7374 109.817 73.7374C109.101 73.7374 108.522 74.1197 108.078 74.8844C107.634 75.649 107.412 76.8577 107.412 78.5104C107.412 80.163 107.634 81.384 108.078 82.1734C108.522 82.9627 109.101 83.3574 109.817 83.3574ZM127.17 96.4924C125.418 96.4924 123.988 95.8017 122.878 94.4204C121.792 93.039 121.25 91.1644 121.25 88.7964C121.25 86.4284 121.792 84.566 122.878 83.2094C123.988 81.8527 125.418 81.1744 127.17 81.1744C128.946 81.1744 130.376 81.8527 131.462 83.2094C132.572 84.566 133.127 86.4284 133.127 88.7964C133.127 91.189 132.572 93.076 131.462 94.4574C130.376 95.814 128.946 96.4924 127.17 96.4924ZM127.17 93.6434C127.885 93.6434 128.465 93.2487 128.909 92.4594C129.353 91.67 129.575 90.449 129.575 88.7964C129.575 87.1437 129.353 85.935 128.909 85.1704C128.465 84.4057 127.885 84.0234 127.17 84.0234C126.454 84.0234 125.875 84.4057 125.431 85.1704C125.011 85.935 124.802 87.1437 124.802 88.7964C124.802 90.449 125.011 91.67 125.431 92.4594C125.875 93.2487 126.454 93.6434 127.17 93.6434Z" fill="#FDFDFD"/>
</g>
<path d="M169.877 85.2384C169.877 131.891 132.057 169.71 85.4049 169.71C38.7524 169.71 0.933105 131.891 0.933105 85.2384C0.933105 38.5859 38.7524 0.766602 85.4049 0.766602C132.057 0.766602 169.877 38.5859 169.877 85.2384ZM27.6936 85.2384C27.6936 117.111 53.5318 142.95 85.4049 142.95C117.278 142.95 143.116 117.111 143.116 85.2384C143.116 53.3653 117.278 27.5271 85.4049 27.5271C53.5318 27.5271 27.6936 53.3653 27.6936 85.2384Z" fill="#005377"/>
<path d="M169.877 85.2384C169.877 131.891 132.057 169.71 85.4049 169.71C38.7524 169.71 0.933105 131.891 0.933105 85.2384C0.933105 38.5859 38.7524 0.766602 85.4049 0.766602C132.057 0.766602 169.877 38.5859 169.877 85.2384ZM28.8088 85.2384C28.8088 116.496 54.1477 141.834 85.4049 141.834C116.662 141.834 142.001 116.496 142.001 85.2384C142.001 53.9812 116.662 28.6423 85.4049 28.6423C54.1477 28.6423 28.8088 53.9812 28.8088 85.2384Z" fill="#FF806F"/>
<defs>
<filter id="filter0_d" x="40.6284" y="70.7764" width="94.4982" height="29.74" filterUnits="userSpaceOnUse" color-interpolation-filters="sRGB">
<feFlood flood-opacity="0" result="BackgroundImageFix"/>
<feColorMatrix in="SourceAlpha" type="matrix" values="0 0 0 0 0 0 0 0 0 0 0 0 0 0 0 0 0 0 127 0"/>
<feOffset dy="2"/>
<feGaussianBlur stdDeviation="1"/>
<feColorMatrix type="matrix" values="0 0 0 0 0 0 0 0 0 0 0 0 0 0 0 0 0 0 0.1 0"/>
<feBlend mode="normal" in2="BackgroundImageFix" result="effect1_dropShadow"/>
<feBlend mode="normal" in="SourceGraphic" in2="effect1_dropShadow" result="shape"/>
</filter>
</defs>
</svg>
