<svg width="437" height="19" viewBox="0 0 437 19" fill="none" xmlns="http://www.w3.org/2000/svg">
<path d="M6.50324 14.5167C5.3299 14.5167 4.28324 14.25 3.36324 13.7167C2.45657 13.1833 1.74324 12.41 1.22324 11.3967C0.703237 10.37 0.443237 9.15668 0.443237 7.75668C0.443237 6.37001 0.709904 5.16335 1.24324 4.13668C1.77657 3.09668 2.50324 2.30335 3.42324 1.75668C4.35657 1.21001 5.40324 0.93668 6.56324 0.93668C8.08324 0.93668 9.37657 1.48335 10.4432 2.57668L9.34324 3.89668C8.9699 3.52335 8.5699 3.23668 8.14324 3.03668C7.71657 2.82335 7.2099 2.71668 6.62324 2.71668C5.8099 2.71668 5.09657 2.91668 4.48324 3.31668C3.8699 3.71668 3.3899 4.29668 3.04324 5.05668C2.7099 5.80335 2.54324 6.68335 2.54324 7.69668C2.54324 9.27001 2.90324 10.5033 3.62324 11.3967C4.34324 12.29 5.3699 12.7367 6.70324 12.7367C7.11657 12.7367 7.5099 12.6833 7.88324 12.5767C8.25657 12.4567 8.55657 12.29 8.78324 12.0767V8.99668H6.18324V7.31668H10.6232V12.9767C10.1699 13.4433 9.58324 13.8167 8.86324 14.0967C8.14324 14.3767 7.35657 14.5167 6.50324 14.5167Z" fill="#484848"/>
<path d="M17.7642 14.5167C16.9508 14.5167 16.1908 14.31 15.4842 13.8967C14.7775 13.4833 14.2108 12.89 13.7842 12.1167C13.3708 11.3433 13.1642 10.4367 13.1642 9.39668C13.1642 8.34335 13.3708 7.43001 13.7842 6.65668C14.2108 5.88335 14.7708 5.29001 15.4642 4.87668C16.1708 4.46335 16.9375 4.25668 17.7642 4.25668C18.5908 4.25668 19.3508 4.46335 20.0442 4.87668C20.7508 5.29001 21.3108 5.88335 21.7242 6.65668C22.1508 7.43001 22.3642 8.34335 22.3642 9.39668C22.3642 10.4367 22.1508 11.3433 21.7242 12.1167C21.3108 12.89 20.7508 13.4833 20.0442 13.8967C19.3375 14.31 18.5775 14.5167 17.7642 14.5167ZM17.7642 12.8567C18.5375 12.8567 19.1508 12.5433 19.6042 11.9167C20.0575 11.2767 20.2842 10.4367 20.2842 9.39668C20.2842 8.35668 20.0508 7.51668 19.5842 6.87668C19.1308 6.23668 18.5242 5.91668 17.7642 5.91668C17.0042 5.91668 16.3908 6.23668 15.9242 6.87668C15.4708 7.51668 15.2442 8.35668 15.2442 9.39668C15.2442 10.4367 15.4708 11.2767 15.9242 11.9167C16.3775 12.5433 16.9908 12.8567 17.7642 12.8567Z" fill="#484848"/>
<path d="M29.0821 14.5167C28.2688 14.5167 27.5088 14.31 26.8021 13.8967C26.0955 13.4833 25.5288 12.89 25.1021 12.1167C24.6888 11.3433 24.4821 10.4367 24.4821 9.39668C24.4821 8.34335 24.6888 7.43001 25.1021 6.65668C25.5288 5.88335 26.0888 5.29001 26.7821 4.87668C27.4888 4.46335 28.2555 4.25668 29.0821 4.25668C29.9088 4.25668 30.6688 4.46335 31.3621 4.87668C32.0688 5.29001 32.6288 5.88335 33.0421 6.65668C33.4688 7.43001 33.6821 8.34335 33.6821 9.39668C33.6821 10.4367 33.4688 11.3433 33.0421 12.1167C32.6288 12.89 32.0688 13.4833 31.3621 13.8967C30.6555 14.31 29.8955 14.5167 29.0821 14.5167ZM29.0821 12.8567C29.8555 12.8567 30.4688 12.5433 30.9221 11.9167C31.3755 11.2767 31.6021 10.4367 31.6021 9.39668C31.6021 8.35668 31.3688 7.51668 30.9021 6.87668C30.4488 6.23668 29.8421 5.91668 29.0821 5.91668C28.3221 5.91668 27.7088 6.23668 27.2421 6.87668C26.7888 7.51668 26.5621 8.35668 26.5621 9.39668C26.5621 10.4367 26.7888 11.2767 27.2421 11.9167C27.6955 12.5433 28.3088 12.8567 29.0821 12.8567Z" fill="#484848"/>
<path d="M39.8401 18.6767C38.6268 18.6767 37.6468 18.45 36.9001 17.9967C36.1534 17.5567 35.7801 16.9233 35.7801 16.0967C35.7801 15.6833 35.9001 15.29 36.1401 14.9167C36.3934 14.5567 36.7468 14.2367 37.2001 13.9567V13.8767C36.6134 13.5033 36.3201 12.9633 36.3201 12.2567C36.3201 11.8967 36.4201 11.5567 36.6201 11.2367C36.8334 10.9167 37.0934 10.65 37.4001 10.4367V10.3567C37.0401 10.0767 36.7334 9.71001 36.4801 9.25668C36.2401 8.80335 36.1201 8.30335 36.1201 7.75668C36.1201 7.05001 36.2868 6.43001 36.6201 5.89668C36.9668 5.36335 37.4268 4.95668 38.0001 4.67668C38.5868 4.39668 39.2201 4.25668 39.9001 4.25668C40.4068 4.25668 40.8801 4.33668 41.3201 4.49668H44.7801V6.01668H42.9001C43.1001 6.23001 43.2601 6.49668 43.3801 6.81668C43.5001 7.12335 43.5601 7.45668 43.5601 7.81668C43.5601 8.85668 43.2134 9.67668 42.5201 10.2767C41.8268 10.8767 40.9534 11.1767 39.9001 11.1767C39.4201 11.1767 38.9601 11.0767 38.5201 10.8767C38.3468 11.0367 38.2134 11.1967 38.1201 11.3567C38.0268 11.5033 37.9801 11.69 37.9801 11.9167C37.9801 12.2233 38.1068 12.4633 38.3601 12.6367C38.6134 12.7967 39.0334 12.8767 39.6201 12.8767H41.4401C42.6134 12.8767 43.4868 13.07 44.0601 13.4567C44.6468 13.8433 44.9401 14.4433 44.9401 15.2567C44.9401 15.8833 44.7268 16.4567 44.3001 16.9767C43.8868 17.4967 43.2934 17.91 42.5201 18.2167C41.7468 18.5233 40.8534 18.6767 39.8401 18.6767ZM39.9001 9.87668C40.4334 9.87668 40.8734 9.68335 41.2201 9.29668C41.5801 8.91001 41.7601 8.39668 41.7601 7.75668C41.7601 7.11668 41.5801 6.61001 41.2201 6.23668C40.8734 5.86335 40.4334 5.67668 39.9001 5.67668C39.3668 5.67668 38.9201 5.86335 38.5601 6.23668C38.2134 6.61001 38.0401 7.11668 38.0401 7.75668C38.0401 8.39668 38.2134 8.91001 38.5601 9.29668C38.9201 9.68335 39.3668 9.87668 39.9001 9.87668ZM40.1401 17.3367C40.6868 17.3367 41.1734 17.2567 41.6001 17.0967C42.0401 16.9367 42.3801 16.7167 42.6201 16.4367C42.8601 16.17 42.9801 15.8833 42.9801 15.5767C42.9801 15.1767 42.8268 14.8967 42.5201 14.7367C42.2268 14.5767 41.7734 14.4967 41.1601 14.4967H39.6601C39.1668 14.4967 38.7334 14.45 38.3601 14.3567C37.7868 14.7833 37.5001 15.2633 37.5001 15.7967C37.5001 16.2767 37.7334 16.65 38.2001 16.9167C38.6668 17.1967 39.3134 17.3367 40.1401 17.3367Z" fill="#484848"/>
<path d="M49.154 14.5167C48.4474 14.5167 47.934 14.3033 47.614 13.8767C47.294 13.45 47.134 12.8233 47.134 11.9967V0.0966797H49.154V12.1167C49.154 12.37 49.2007 12.5567 49.294 12.6767C49.3874 12.7967 49.5007 12.8567 49.634 12.8567C49.754 12.8567 49.874 12.8433 49.994 12.8167L50.254 14.3367C49.9474 14.4567 49.5807 14.5167 49.154 14.5167Z" fill="#484848"/>
<path d="M60.5675 8.87668C60.5675 9.25001 60.5408 9.59668 60.4875 9.91668H54.0275C54.1208 10.9033 54.4541 11.6567 55.0275 12.1767C55.6141 12.6833 56.3208 12.9367 57.1475 12.9367C57.9341 12.9367 58.7141 12.69 59.4875 12.1967L60.1875 13.4767C59.1475 14.17 58.0475 14.5167 56.8875 14.5167C55.9941 14.5167 55.1875 14.31 54.4675 13.8967C53.7475 13.4833 53.1741 12.89 52.7475 12.1167C52.3341 11.3433 52.1275 10.4367 52.1275 9.39668C52.1275 8.37001 52.3341 7.47001 52.7475 6.69668C53.1741 5.91001 53.7275 5.31001 54.4075 4.89668C55.0875 4.47001 55.8141 4.25668 56.5875 4.25668C57.8541 4.25668 58.8341 4.67668 59.5275 5.51668C60.2208 6.34335 60.5675 7.46335 60.5675 8.87668ZM58.8075 8.51668C58.8075 7.66335 58.6208 7.00335 58.2475 6.53668C57.8741 6.07001 57.3341 5.83668 56.6275 5.83668C56.0141 5.83668 55.4675 6.06335 54.9875 6.51668C54.5075 6.97001 54.2008 7.63668 54.0675 8.51668H58.8075Z" fill="#484848"/>
<path d="M67.8304 1.17668H71.7904C75.1238 1.17668 76.7904 2.49668 76.7904 5.13668C76.7904 6.51001 76.3371 7.55001 75.4304 8.25668C74.5371 8.95001 73.3504 9.29668 71.8704 9.29668H69.8704V14.2767H67.8304V1.17668ZM71.6704 7.65668C72.7238 7.65668 73.5038 7.45001 74.0104 7.03668C74.5171 6.62335 74.7704 5.99001 74.7704 5.13668C74.7704 4.29668 74.5104 3.70335 73.9904 3.35668C73.4838 2.99668 72.6838 2.81668 71.5904 2.81668H69.8704V7.65668H71.6704Z" fill="#484848"/>
<path d="M79.5543 0.0966797H81.5743V3.85668L81.4943 5.79668C82.001 5.31668 82.501 4.94335 82.9943 4.67668C83.501 4.39668 84.061 4.25668 84.6743 4.25668C86.6743 4.25668 87.6743 5.54335 87.6743 8.11668V14.2767H85.6543V8.37668C85.6543 7.53668 85.521 6.93001 85.2543 6.55668C85.001 6.18335 84.581 5.99668 83.9943 5.99668C83.5543 5.99668 83.161 6.10335 82.8143 6.31668C82.4677 6.51668 82.0543 6.85668 81.5743 7.33668V14.2767H79.5543V0.0966797Z" fill="#484848"/>
<path d="M94.9095 14.5167C94.0962 14.5167 93.3362 14.31 92.6295 13.8967C91.9228 13.4833 91.3562 12.89 90.9295 12.1167C90.5162 11.3433 90.3095 10.4367 90.3095 9.39668C90.3095 8.34335 90.5162 7.43001 90.9295 6.65668C91.3562 5.88335 91.9162 5.29001 92.6095 4.87668C93.3162 4.46335 94.0828 4.25668 94.9095 4.25668C95.7362 4.25668 96.4962 4.46335 97.1895 4.87668C97.8962 5.29001 98.4562 5.88335 98.8695 6.65668C99.2962 7.43001 99.5095 8.34335 99.5095 9.39668C99.5095 10.4367 99.2962 11.3433 98.8695 12.1167C98.4562 12.89 97.8962 13.4833 97.1895 13.8967C96.4828 14.31 95.7228 14.5167 94.9095 14.5167ZM94.9095 12.8567C95.6828 12.8567 96.2962 12.5433 96.7495 11.9167C97.2028 11.2767 97.4295 10.4367 97.4295 9.39668C97.4295 8.35668 97.1962 7.51668 96.7295 6.87668C96.2762 6.23668 95.6695 5.91668 94.9095 5.91668C94.1495 5.91668 93.5362 6.23668 93.0695 6.87668C92.6162 7.51668 92.3895 8.35668 92.3895 9.39668C92.3895 10.4367 92.6162 11.2767 93.0695 11.9167C93.5228 12.5433 94.1362 12.8567 94.9095 12.8567Z" fill="#484848"/>
<path d="M105.197 14.5167C103.223 14.5167 102.237 13.3767 102.237 11.0967V6.11668H100.817V4.59668L102.337 4.49668L102.577 1.79668H104.257V4.49668H106.817V6.11668H104.257V11.0967C104.257 11.6967 104.37 12.15 104.597 12.4567C104.823 12.75 105.19 12.8967 105.697 12.8967C106.003 12.8967 106.357 12.8167 106.757 12.6567L107.117 14.1567C106.397 14.3967 105.757 14.5167 105.197 14.5167Z" fill="#484848"/>
<path d="M112.956 14.5167C112.142 14.5167 111.382 14.31 110.676 13.8967C109.969 13.4833 109.402 12.89 108.976 12.1167C108.562 11.3433 108.356 10.4367 108.356 9.39668C108.356 8.34335 108.562 7.43001 108.976 6.65668C109.402 5.88335 109.962 5.29001 110.656 4.87668C111.362 4.46335 112.129 4.25668 112.956 4.25668C113.782 4.25668 114.542 4.46335 115.236 4.87668C115.942 5.29001 116.502 5.88335 116.916 6.65668C117.342 7.43001 117.556 8.34335 117.556 9.39668C117.556 10.4367 117.342 11.3433 116.916 12.1167C116.502 12.89 115.942 13.4833 115.236 13.8967C114.529 14.31 113.769 14.5167 112.956 14.5167ZM112.956 12.8567C113.729 12.8567 114.342 12.5433 114.796 11.9167C115.249 11.2767 115.476 10.4367 115.476 9.39668C115.476 8.35668 115.242 7.51668 114.776 6.87668C114.322 6.23668 113.716 5.91668 112.956 5.91668C112.196 5.91668 111.582 6.23668 111.116 6.87668C110.662 7.51668 110.436 8.35668 110.436 9.39668C110.436 10.4367 110.662 11.2767 111.116 11.9167C111.569 12.5433 112.182 12.8567 112.956 12.8567Z" fill="#484848"/>
<path d="M122.955 14.5167C122.302 14.5167 121.648 14.39 120.995 14.1367C120.342 13.8833 119.768 13.5567 119.275 13.1567L120.235 11.8567C120.702 12.2167 121.155 12.4967 121.595 12.6967C122.035 12.8833 122.508 12.9767 123.015 12.9767C123.575 12.9767 124.002 12.8567 124.295 12.6167C124.588 12.3633 124.735 12.0433 124.735 11.6567C124.735 11.2567 124.555 10.9433 124.195 10.7167C123.835 10.4767 123.295 10.2233 122.575 9.95668C121.708 9.63668 121.022 9.27001 120.515 8.85668C120.008 8.43001 119.755 7.85001 119.755 7.11668C119.755 6.27668 120.068 5.59001 120.695 5.05668C121.322 4.52335 122.168 4.25668 123.235 4.25668C124.382 4.25668 125.435 4.63668 126.395 5.39668L125.455 6.65668C125.082 6.37668 124.722 6.16335 124.375 6.01668C124.028 5.87001 123.662 5.79668 123.275 5.79668C122.755 5.79668 122.355 5.91001 122.075 6.13668C121.808 6.36335 121.675 6.65668 121.675 7.01668C121.675 7.28335 121.768 7.51001 121.955 7.69668C122.142 7.87001 122.355 8.01001 122.595 8.11668C122.848 8.22335 123.242 8.37668 123.775 8.57668C124.362 8.79001 124.848 9.01001 125.235 9.23668C125.635 9.45001 125.968 9.74335 126.235 10.1167C126.515 10.49 126.655 10.9633 126.655 11.5367C126.655 12.0967 126.508 12.6033 126.215 13.0567C125.935 13.4967 125.515 13.85 124.955 14.1167C124.395 14.3833 123.728 14.5167 122.955 14.5167Z" fill="#484848"/>
<rect opacity="0.5" x="149.355" y="3.00879" width="237.556" height="11.5498" rx="5.77492" fill="#81D3C8"/>
<rect x="149.355" y="3.00879" width="97.3978" height="11.5498" rx="5.77492" fill="#18A2A2"/>
<path d="M408.798 11.3973H407.138V14.7773H405.238V11.3973H399.578V10.0373L404.798 2.0373H407.138V9.8173H408.798V11.3973ZM405.238 9.8173V6.5773C405.238 6.03064 405.272 5.1773 405.338 4.0173H405.258C405.205 4.11064 404.985 4.5173 404.598 5.2373C404.545 5.3173 404.485 5.41731 404.418 5.53731C404.365 5.64397 404.298 5.77064 404.218 5.9173L401.618 9.8173H405.238Z" fill="#484848"/>
<path d="M410.915 13.5973C412.369 12.1706 413.482 11.0373 414.255 10.1973C415.042 9.34397 415.655 8.55064 416.095 7.81731C416.549 7.07064 416.775 6.3773 416.775 5.7373C416.775 5.0173 416.582 4.45064 416.195 4.03731C415.809 3.62397 415.255 3.4173 414.535 3.4173C413.669 3.4173 412.809 3.90397 411.955 4.87731L410.815 3.75731C411.415 3.10397 412.022 2.6173 412.635 2.29731C413.262 1.96397 413.982 1.7973 414.795 1.7973C415.995 1.7973 416.949 2.15064 417.655 2.85731C418.375 3.55064 418.735 4.47731 418.735 5.63731C418.735 6.37064 418.529 7.12397 418.115 7.89731C417.715 8.67064 417.182 9.45064 416.515 10.2373C415.862 11.0106 414.975 11.9906 413.855 13.1773C414.762 13.0973 415.475 13.0573 415.995 13.0573H419.355V14.7773H410.915V13.5973Z" fill="#484848"/>
<path d="M424.753 9.51731C423.833 9.51731 423.093 9.15064 422.533 8.4173C421.973 7.68397 421.693 6.66397 421.693 5.35731C421.693 4.06397 421.973 3.05731 422.533 2.33731C423.093 1.60397 423.833 1.2373 424.753 1.2373C425.673 1.2373 426.413 1.60397 426.973 2.33731C427.533 3.05731 427.813 4.06397 427.813 5.35731C427.813 6.66397 427.533 7.68397 426.973 8.4173C426.413 9.15064 425.673 9.51731 424.753 9.51731ZM432.273 1.4373H433.553L426.373 15.0173H425.093L432.273 1.4373ZM424.753 8.31731C425.233 8.31731 425.613 8.07064 425.893 7.5773C426.186 7.07064 426.333 6.33064 426.333 5.35731C426.333 4.38397 426.186 3.65731 425.893 3.17731C425.613 2.68397 425.233 2.4373 424.753 2.4373C424.273 2.4373 423.886 2.68397 423.593 3.17731C423.313 3.65731 423.173 4.38397 423.173 5.35731C423.173 6.33064 423.313 7.07064 423.593 7.5773C423.886 8.07064 424.273 8.31731 424.753 8.31731ZM433.933 15.0173C433.013 15.0173 432.273 14.6506 431.713 13.9173C431.153 13.184 430.873 12.164 430.873 10.8573C430.873 9.56397 431.153 8.5573 431.713 7.83731C432.273 7.10397 433.013 6.73731 433.933 6.73731C434.853 6.73731 435.593 7.10397 436.153 7.83731C436.713 8.5573 436.993 9.56397 436.993 10.8573C436.993 12.164 436.713 13.184 436.153 13.9173C435.593 14.6506 434.853 15.0173 433.933 15.0173ZM433.933 13.8173C434.413 13.8173 434.793 13.5706 435.073 13.0773C435.366 12.5706 435.513 11.8306 435.513 10.8573C435.513 9.88397 435.366 9.15731 435.073 8.67731C434.793 8.18397 434.413 7.93731 433.933 7.93731C433.453 7.93731 433.066 8.18397 432.773 8.67731C432.493 9.15731 432.353 9.88397 432.353 10.8573C432.353 11.8306 432.493 12.5706 432.773 13.0773C433.066 13.5706 433.453 13.8173 433.933 13.8173Z" fill="#484848"/>
</svg>
