<svg width="389" height="16" viewBox="0 0 389 16" fill="none" xmlns="http://www.w3.org/2000/svg">
<path d="M0.535095 1.21734H4.49509C7.82843 1.21734 9.49509 2.53734 9.49509 5.17734C9.49509 6.55068 9.04176 7.59068 8.13509 8.29734C7.24176 8.99068 6.0551 9.33734 4.5751 9.33734H2.57509V14.3173H0.535095V1.21734ZM4.3751 7.69734C5.42843 7.69734 6.20843 7.49068 6.7151 7.07734C7.22176 6.66401 7.47509 6.03068 7.47509 5.17734C7.47509 4.33734 7.2151 3.74401 6.6951 3.39734C6.18843 3.03734 5.38843 2.85734 4.29509 2.85734H2.57509V7.69734H4.3751Z" fill="#484848"/>
<path d="M12.259 4.53734H14.279V14.3173H12.259V4.53734ZM13.279 2.69734C12.919 2.69734 12.619 2.58401 12.379 2.35734C12.1523 2.13068 12.039 1.83734 12.039 1.47734C12.039 1.13068 12.1523 0.84401 12.379 0.617343C12.619 0.390677 12.919 0.277344 13.279 0.277344C13.639 0.277344 13.9323 0.390677 14.159 0.617343C14.399 0.84401 14.519 1.13068 14.519 1.47734C14.519 1.83734 14.399 2.13068 14.159 2.35734C13.9323 2.58401 13.639 2.69734 13.279 2.69734Z" fill="#484848"/>
<path d="M17.7567 4.53734H19.4166L19.5767 5.89734H19.6367C20.1567 5.39068 20.67 4.99734 21.1767 4.71734C21.6967 4.43734 22.2633 4.29734 22.8767 4.29734C24.8767 4.29734 25.8767 5.58401 25.8767 8.15734V14.3173H23.8567V8.41734C23.8567 7.57734 23.7233 6.97068 23.4566 6.59734C23.2033 6.22401 22.7833 6.03734 22.1967 6.03734C21.7567 6.03734 21.3633 6.14401 21.0167 6.35734C20.67 6.55734 20.2566 6.89734 19.7766 7.37734V14.3173H17.7567V4.53734Z" fill="#484848"/>
<path d="M32.5109 14.5573C30.5375 14.5573 29.5509 13.4173 29.5509 11.1373V6.15734H28.1309V4.63734L29.6509 4.53734L29.8909 1.83734H31.5709V4.53734H34.1309V6.15734H31.5709V11.1373C31.5709 11.7373 31.6842 12.1907 31.9109 12.4973C32.1375 12.7907 32.5042 12.9373 33.0109 12.9373C33.3175 12.9373 33.6709 12.8573 34.0709 12.6973L34.4309 14.1973C33.7109 14.4373 33.0709 14.5573 32.5109 14.5573Z" fill="#484848"/>
<path d="M44.1096 8.91734C44.1096 9.29068 44.083 9.63734 44.0296 9.95734H37.5696C37.663 10.944 37.9963 11.6973 38.5696 12.2173C39.1563 12.724 39.863 12.9773 40.6896 12.9773C41.4763 12.9773 42.2563 12.7307 43.0296 12.2373L43.7296 13.5173C42.6896 14.2107 41.5896 14.5573 40.4296 14.5573C39.5363 14.5573 38.7296 14.3507 38.0096 13.9373C37.2896 13.524 36.7163 12.9307 36.2896 12.1573C35.8763 11.384 35.6696 10.4773 35.6696 9.43734C35.6696 8.41068 35.8763 7.51068 36.2896 6.73734C36.7163 5.95068 37.2696 5.35068 37.9496 4.93734C38.6296 4.51068 39.3563 4.29734 40.1296 4.29734C41.3963 4.29734 42.3763 4.71734 43.0696 5.55734C43.763 6.38401 44.1096 7.50401 44.1096 8.91734ZM42.3496 8.55734C42.3496 7.70401 42.163 7.04401 41.7896 6.57734C41.4163 6.11068 40.8763 5.87734 40.1696 5.87734C39.5563 5.87734 39.0096 6.10401 38.5296 6.55734C38.0496 7.01068 37.743 7.67734 37.6096 8.55734H42.3496Z" fill="#484848"/>
<path d="M46.7887 4.53734H48.4487L48.6087 6.29734H48.6687C49.0154 5.67068 49.4287 5.18401 49.9087 4.83734C50.402 4.47734 50.9154 4.29734 51.4487 4.29734C51.8887 4.29734 52.2487 4.36401 52.5287 4.49734L52.1687 6.25734C51.8087 6.15068 51.482 6.09734 51.1887 6.09734C50.7487 6.09734 50.3154 6.27068 49.8887 6.61734C49.462 6.95068 49.102 7.48401 48.8087 8.21734V14.3173H46.7887V4.53734Z" fill="#484848"/>
<path d="M61.9995 8.91734C61.9995 9.29068 61.9728 9.63734 61.9195 9.95734H55.4595C55.5528 10.944 55.8861 11.6973 56.4595 12.2173C57.0461 12.724 57.7528 12.9773 58.5795 12.9773C59.3661 12.9773 60.1461 12.7307 60.9195 12.2373L61.6195 13.5173C60.5795 14.2107 59.4795 14.5573 58.3195 14.5573C57.4261 14.5573 56.6195 14.3507 55.8995 13.9373C55.1795 13.524 54.6061 12.9307 54.1795 12.1573C53.7661 11.384 53.5595 10.4773 53.5595 9.43734C53.5595 8.41068 53.7661 7.51068 54.1795 6.73734C54.6061 5.95068 55.1595 5.35068 55.8395 4.93734C56.5195 4.51068 57.2461 4.29734 58.0195 4.29734C59.2861 4.29734 60.2661 4.71734 60.9595 5.55734C61.6528 6.38401 61.9995 7.50401 61.9995 8.91734ZM60.2395 8.55734C60.2395 7.70401 60.0528 7.04401 59.6795 6.57734C59.3061 6.11068 58.7661 5.87734 58.0595 5.87734C57.4461 5.87734 56.8995 6.10401 56.4195 6.55734C55.9395 7.01068 55.6328 7.67734 55.4995 8.55734H60.2395Z" fill="#484848"/>
<path d="M67.3385 14.5573C66.6852 14.5573 66.0319 14.4307 65.3785 14.1773C64.7252 13.924 64.1519 13.5973 63.6585 13.1973L64.6185 11.8973C65.0852 12.2573 65.5385 12.5373 65.9785 12.7373C66.4185 12.924 66.8919 13.0173 67.3985 13.0173C67.9585 13.0173 68.3852 12.8973 68.6785 12.6573C68.9719 12.404 69.1185 12.084 69.1185 11.6973C69.1185 11.2973 68.9385 10.984 68.5785 10.7573C68.2185 10.5173 67.6785 10.264 66.9585 9.99734C66.0919 9.67734 65.4052 9.31068 64.8985 8.89734C64.3919 8.47068 64.1385 7.89068 64.1385 7.15734C64.1385 6.31734 64.4519 5.63068 65.0785 5.09734C65.7052 4.56401 66.5519 4.29734 67.6185 4.29734C68.7652 4.29734 69.8185 4.67734 70.7785 5.43734L69.8385 6.69734C69.4652 6.41734 69.1052 6.20401 68.7585 6.05734C68.4119 5.91068 68.0452 5.83734 67.6585 5.83734C67.1385 5.83734 66.7385 5.95068 66.4585 6.17734C66.1919 6.40401 66.0585 6.69734 66.0585 7.05734C66.0585 7.32401 66.1519 7.55068 66.3385 7.73734C66.5252 7.91068 66.7385 8.05068 66.9785 8.15734C67.2319 8.26401 67.6252 8.41734 68.1585 8.61734C68.7452 8.83068 69.2319 9.05068 69.6185 9.27734C70.0185 9.49068 70.3519 9.78401 70.6185 10.1573C70.8985 10.5307 71.0385 11.004 71.0385 11.5773C71.0385 12.1373 70.8919 12.644 70.5985 13.0973C70.3185 13.5373 69.8985 13.8907 69.3385 14.1573C68.7785 14.424 68.1119 14.5573 67.3385 14.5573Z" fill="#484848"/>
<path d="M76.6788 14.5573C74.7055 14.5573 73.7188 13.4173 73.7188 11.1373V6.15734H72.2988V4.63734L73.8188 4.53734L74.0588 1.83734H75.7388V4.53734H78.2988V6.15734H75.7388V11.1373C75.7388 11.7373 75.8522 12.1907 76.0788 12.4973C76.3055 12.7907 76.6722 12.9373 77.1788 12.9373C77.4855 12.9373 77.8388 12.8573 78.2388 12.6973L78.5988 14.1973C77.8788 14.4373 77.2388 14.5573 76.6788 14.5573Z" fill="#484848"/>
<rect opacity="0.5" x="101.355" y="3.74512" width="237.556" height="11.5498" rx="5.77492" fill="#81D3C8"/>
<rect x="101.355" y="3.74512" width="97.3978" height="11.5498" rx="5.77492" fill="#18A2A2"/>
<path d="M360.798 11.2791H359.138V14.6591H357.238V11.2791H351.578V9.91914L356.798 1.91914H359.138V9.69914H360.798V11.2791ZM357.238 9.69914V6.45914C357.238 5.91247 357.271 5.05914 357.338 3.89914H357.258C357.205 3.99247 356.985 4.39914 356.598 5.11914C356.545 5.19914 356.485 5.29914 356.418 5.41914C356.365 5.52581 356.298 5.65247 356.218 5.79914L353.618 9.69914H357.238Z" fill="#484848"/>
<path d="M362.915 13.4791C364.369 12.0525 365.482 10.9191 366.255 10.0791C367.042 9.22581 367.655 8.43247 368.095 7.69914C368.549 6.95247 368.775 6.25914 368.775 5.61914C368.775 4.89914 368.582 4.33247 368.195 3.91914C367.809 3.50581 367.255 3.29914 366.535 3.29914C365.669 3.29914 364.809 3.78581 363.955 4.75914L362.815 3.63914C363.415 2.98581 364.022 2.49914 364.635 2.17914C365.262 1.84581 365.982 1.67914 366.795 1.67914C367.995 1.67914 368.949 2.03247 369.655 2.73914C370.375 3.43247 370.735 4.35914 370.735 5.51914C370.735 6.25247 370.529 7.00581 370.115 7.77914C369.715 8.55247 369.182 9.33247 368.515 10.1191C367.862 10.8925 366.975 11.8725 365.855 13.0591C366.762 12.9791 367.475 12.9391 367.995 12.9391H371.355V14.6591H362.915V13.4791Z" fill="#484848"/>
<path d="M376.753 9.39914C375.833 9.39914 375.092 9.03247 374.532 8.29914C373.972 7.56581 373.692 6.54581 373.692 5.23914C373.692 3.94581 373.972 2.93914 374.532 2.21914C375.092 1.48581 375.833 1.11914 376.753 1.11914C377.673 1.11914 378.412 1.48581 378.972 2.21914C379.533 2.93914 379.812 3.94581 379.812 5.23914C379.812 6.54581 379.533 7.56581 378.972 8.29914C378.412 9.03247 377.673 9.39914 376.753 9.39914ZM384.272 1.31914H385.552L378.372 14.8991H377.093L384.272 1.31914ZM376.753 8.19914C377.233 8.19914 377.612 7.95247 377.892 7.45914C378.186 6.95247 378.333 6.21247 378.333 5.23914C378.333 4.26581 378.186 3.53914 377.892 3.05914C377.612 2.56581 377.233 2.31914 376.753 2.31914C376.273 2.31914 375.886 2.56581 375.593 3.05914C375.313 3.53914 375.173 4.26581 375.173 5.23914C375.173 6.21247 375.313 6.95247 375.593 7.45914C375.886 7.95247 376.273 8.19914 376.753 8.19914ZM385.933 14.8991C385.013 14.8991 384.273 14.5325 383.713 13.7991C383.153 13.0658 382.872 12.0458 382.872 10.7391C382.872 9.44581 383.153 8.43914 383.713 7.71914C384.273 6.98581 385.013 6.61914 385.933 6.61914C386.853 6.61914 387.593 6.98581 388.153 7.71914C388.713 8.43914 388.993 9.44581 388.993 10.7391C388.993 12.0458 388.713 13.0658 388.153 13.7991C387.593 14.5325 386.853 14.8991 385.933 14.8991ZM385.933 13.6991C386.413 13.6991 386.793 13.4525 387.073 12.9591C387.366 12.4525 387.513 11.7125 387.513 10.7391C387.513 9.76581 387.366 9.03914 387.073 8.55914C386.793 8.06581 386.413 7.81914 385.933 7.81914C385.453 7.81914 385.066 8.06581 384.772 8.55914C384.492 9.03914 384.353 9.76581 384.353 10.7391C384.353 11.7125 384.492 12.4525 384.772 12.9591C385.066 13.4525 385.453 13.6991 385.933 13.6991Z" fill="#484848"/>
</svg>
