<svg width="121" height="121" viewBox="0 0 121 121" fill="none" xmlns="http://www.w3.org/2000/svg">
<path opacity="0.5" d="M120.554 60.3809C120.554 93.5179 93.6908 120.381 60.5537 120.381C27.4166 120.381 0.553711 93.5179 0.553711 60.3809C0.553711 27.2438 27.4166 0.380859 60.5537 0.380859C93.6908 0.380859 120.554 27.2438 120.554 60.3809ZM12.5537 60.3809C12.5537 86.8905 34.044 108.381 60.5537 108.381C87.0634 108.381 108.554 86.8905 108.554 60.3809C108.554 33.8712 87.0634 12.3809 60.5537 12.3809C34.044 12.3809 12.5537 33.8712 12.5537 60.3809Z" fill="#81D3C8"/>
<path d="M114.554 60.3809C117.867 60.3809 120.585 63.0738 120.254 66.371C119.512 73.7626 117.402 80.9703 114.014 87.6203C109.715 96.0569 103.481 103.356 95.8208 108.922C88.1605 114.487 79.2918 118.161 69.9398 119.642C60.5877 121.123 51.0179 120.37 42.0127 117.444C33.0075 114.518 24.8226 109.503 18.1273 102.807C11.432 96.1119 6.41628 87.9271 3.49032 78.9219C0.564353 69.9167 -0.188809 60.3468 1.29241 50.9948C2.45996 43.6232 4.98962 36.5519 8.7343 30.136C10.4047 27.2741 14.186 26.6927 16.8668 28.6405V28.6405C19.5476 30.5882 20.1046 34.3261 18.5063 37.2288C15.8348 42.0806 14.0158 47.3718 13.1447 52.872C11.9597 60.3536 12.5622 68.0095 14.903 75.2137C17.2438 82.4178 21.2563 88.9657 26.6126 94.322C31.9688 99.6782 38.5167 103.691 45.7209 106.032C52.9251 108.372 60.5809 108.975 68.0626 107.79C75.5442 106.605 82.6392 103.666 88.7674 99.2137C94.8956 94.7613 99.8831 88.9217 103.322 82.1724C105.85 77.2106 107.489 71.8607 108.179 66.3653C108.592 63.0775 111.24 60.3809 114.554 60.3809V60.3809Z" fill="#18A2A2"/>
</svg>
