<svg viewBox="0 0 170 170" fill="none" xmlns="http://www.w3.org/2000/svg">
<g filter="url(#filter0_d)">
<path d="M62.9203 84.5231C65.0169 84.5231 66.6943 85.1398 67.9523 86.3731C69.2349 87.5818 69.8763 89.3825 69.8763 91.7751C69.8763 93.3538 69.5309 94.7351 68.8403 95.9191C68.1496 97.1031 67.2123 98.0158 66.0283 98.6571C64.8689 99.2985 63.5863 99.6191 62.1803 99.6191C60.6016 99.6191 59.1463 99.1998 57.8143 98.3611C56.4823 97.5225 55.4093 96.2398 54.5953 94.5131C53.8059 92.7618 53.4113 90.5911 53.4113 88.0011C53.4113 85.1645 53.8429 82.7841 54.7063 80.8601C55.5696 78.9361 56.7166 77.5178 58.1473 76.6051C59.5779 75.6678 61.1443 75.1991 62.8463 75.1991C64.2523 75.1991 65.5103 75.4581 66.6203 75.9761C67.7303 76.4941 68.6923 77.1601 69.5063 77.9741L66.8423 81.0081C66.3983 80.5148 65.8309 80.1078 65.1403 79.7871C64.4743 79.4665 63.8083 79.3061 63.1423 79.3061C61.6623 79.3061 60.4659 79.9228 59.5533 81.1561C58.6406 82.3895 58.1349 84.3875 58.0363 87.1501C58.6529 86.3361 59.4176 85.6948 60.3303 85.2261C61.2429 84.7575 62.1063 84.5231 62.9203 84.5231ZM62.1063 95.8081C63.0189 95.8081 63.7713 95.4628 64.3633 94.7721C64.9553 94.0815 65.2513 93.0825 65.2513 91.7751C65.2513 90.5418 64.9553 89.6291 64.3633 89.0371C63.7713 88.4205 62.9696 88.1121 61.9583 88.1121C61.2676 88.1121 60.5893 88.3095 59.9233 88.7041C59.2819 89.0988 58.7023 89.7278 58.1843 90.5911C58.4063 92.4165 58.8626 93.7485 59.5533 94.5871C60.2439 95.4011 61.0949 95.8081 62.1063 95.8081Z" fill="#FDFDFD"/>
<path d="M81.6584 99.6191C79.9811 99.6191 78.5134 99.1505 77.2554 98.2131C76.0221 97.2511 75.0601 95.8451 74.3694 93.9951C73.7034 92.1451 73.3704 89.9128 73.3704 87.2981C73.3704 83.4008 74.1104 80.4161 75.5904 78.3441C77.0704 76.2475 79.0931 75.1991 81.6584 75.1991C84.1991 75.1991 86.2094 76.2475 87.6894 78.3441C89.1694 80.4161 89.9094 83.4008 89.9094 87.2981C89.9094 89.9128 89.5641 92.1451 88.8734 93.9951C88.2074 95.8451 87.2578 97.2511 86.0244 98.2131C84.7911 99.1505 83.3358 99.6191 81.6584 99.6191ZM81.6584 95.6971C82.7438 95.6971 83.5948 95.0681 84.2114 93.8101C84.8281 92.5275 85.1364 90.3568 85.1364 87.2981C85.1364 84.2888 84.8281 82.1798 84.2114 80.9711C83.5948 79.7378 82.7438 79.1211 81.6584 79.1211C80.5484 79.1211 79.6851 79.7255 79.0684 80.9341C78.4764 82.1428 78.1804 84.2641 78.1804 87.2981C78.1804 90.3568 78.4888 92.5275 79.1054 93.8101C79.7221 95.0681 80.5731 95.6971 81.6584 95.6971Z" fill="#FDFDFD"/>
<path d="M99.0276 89.3331C97.2516 89.3331 95.8086 88.6548 94.6986 87.2981C93.6133 85.9168 93.0706 84.0298 93.0706 81.6371C93.0706 79.2691 93.6133 77.4068 94.6986 76.0501C95.8086 74.6935 97.2516 74.0151 99.0276 74.0151C100.779 74.0151 102.197 74.6935 103.283 76.0501C104.393 77.4068 104.948 79.2691 104.948 81.6371C104.948 84.0051 104.393 85.8798 103.283 87.2611C102.197 88.6425 100.779 89.3331 99.0276 89.3331ZM112.755 74.5701H115.715L102.617 99.6191H99.6566L112.755 74.5701ZM99.0276 86.4841C99.743 86.4841 100.31 86.1018 100.73 85.3371C101.174 84.5478 101.396 83.3145 101.396 81.6371C101.396 79.9845 101.174 78.7758 100.73 78.0111C100.31 77.2465 99.743 76.8641 99.0276 76.8641C98.3123 76.8641 97.7326 77.2465 97.2886 78.0111C96.8446 78.7758 96.6226 79.9845 96.6226 81.6371C96.6226 83.2898 96.8446 84.5108 97.2886 85.3001C97.7326 86.0895 98.3123 86.4841 99.0276 86.4841ZM116.381 99.6191C114.629 99.6191 113.199 98.9285 112.089 97.5471C111.003 96.1658 110.461 94.2911 110.461 91.9231C110.461 89.5551 111.003 87.6928 112.089 86.3361C113.199 84.9795 114.629 84.3011 116.381 84.3011C118.157 84.3011 119.587 84.9795 120.673 86.3361C121.783 87.6928 122.338 89.5551 122.338 91.9231C122.338 94.3158 121.783 96.2028 120.673 97.5841C119.587 98.9408 118.157 99.6191 116.381 99.6191ZM116.381 96.7701C117.096 96.7701 117.676 96.3755 118.12 95.5861C118.564 94.7968 118.786 93.5758 118.786 91.9231C118.786 90.2705 118.564 89.0618 118.12 88.2971C117.676 87.5325 117.096 87.1501 116.381 87.1501C115.665 87.1501 115.086 87.5325 114.642 88.2971C114.222 89.0618 114.013 90.2705 114.013 91.9231C114.013 93.5758 114.222 94.7968 114.642 95.5861C115.086 96.3755 115.665 96.7701 116.381 96.7701Z" fill="#FDFDFD"/>
</g>
<path d="M169.877 85.2574C169.877 131.91 132.057 169.729 85.4049 169.729C38.7524 169.729 0.933105 131.91 0.933105 85.2574C0.933105 38.605 38.7524 0.785645 85.4049 0.785645C132.057 0.785645 169.877 38.605 169.877 85.2574ZM28.8088 85.2574C28.8088 116.515 54.1477 141.854 85.4049 141.854C116.662 141.854 142.001 116.515 142.001 85.2574C142.001 54.0003 116.662 28.6613 85.4049 28.6613C54.1477 28.6613 28.8088 54.0003 28.8088 85.2574Z" fill="#8AD1CD"/>
<path d="M169.877 85.2574C169.877 98.5791 166.726 111.712 160.682 123.583C154.638 135.455 145.871 145.729 135.099 153.566C124.326 161.403 111.853 166.581 98.697 168.677C85.5413 170.773 72.0763 169.728 59.4016 165.627C46.7268 161.526 35.2017 154.486 25.7672 145.081C16.3327 135.676 9.25649 124.172 5.11626 111.51C0.976027 98.8485 -0.110793 85.3868 1.94454 72.2247C3.99988 59.0625 9.1391 46.5731 16.9426 35.7762L39.5351 52.105C34.3068 59.3389 30.8635 67.7068 29.4865 76.5255C28.1094 85.3441 28.8375 94.3634 31.6115 102.847C34.3855 111.33 39.1266 119.038 45.4476 125.339C51.7687 131.641 59.4906 136.358 67.9827 139.105C76.4747 141.853 85.4963 142.553 94.3106 141.148C103.125 139.744 111.482 136.275 118.7 131.024C125.917 125.773 131.791 118.89 135.84 110.936C139.89 102.982 142.001 94.1829 142.001 85.2574H169.877Z" fill="#FF806F"/>
<defs>
<filter id="filter0_d" x="51.4113" y="74.0151" width="72.9264" height="29.604" filterUnits="userSpaceOnUse" color-interpolation-filters="sRGB">
<feFlood flood-opacity="0" result="BackgroundImageFix"/>
<feColorMatrix in="SourceAlpha" type="matrix" values="0 0 0 0 0 0 0 0 0 0 0 0 0 0 0 0 0 0 127 0"/>
<feOffset dy="2"/>
<feGaussianBlur stdDeviation="1"/>
<feColorMatrix type="matrix" values="0 0 0 0 0 0 0 0 0 0 0 0 0 0 0 0 0 0 0.1 0"/>
<feBlend mode="normal" in2="BackgroundImageFix" result="effect1_dropShadow"/>
<feBlend mode="normal" in="SourceGraphic" in2="effect1_dropShadow" result="shape"/>
</filter>
</defs>
</svg>
