<svg width="384" height="19" viewBox="0 0 384 19" fill="none" xmlns="http://www.w3.org/2000/svg">
<path d="M0.993347 1.44914H4.39334C6.42001 1.44914 7.97334 2.00247 9.05334 3.10914C10.1467 4.21581 10.6933 5.82914 10.6933 7.94914C10.6933 10.0691 10.1533 11.7025 9.07335 12.8491C7.99335 13.9825 6.46668 14.5491 4.49335 14.5491H0.993347V1.44914ZM4.25335 12.8891C5.66668 12.8891 6.74001 12.4758 7.47335 11.6491C8.22001 10.8091 8.59335 9.57581 8.59335 7.94914C8.59335 6.33581 8.22668 5.12914 7.49335 4.32914C6.76001 3.51581 5.68001 3.10914 4.25335 3.10914H3.03334V12.8891H4.25335Z" fill="#484848"/>
<path d="M13.6352 4.76914H15.2952L15.4552 6.52914H15.5152C15.8619 5.90247 16.2752 5.41581 16.7552 5.06914C17.2486 4.70914 17.7619 4.52914 18.2952 4.52914C18.7352 4.52914 19.0952 4.59581 19.3752 4.72914L19.0152 6.48914C18.6552 6.38247 18.3286 6.32914 18.0352 6.32914C17.5952 6.32914 17.1619 6.50247 16.7352 6.84914C16.3086 7.18247 15.9486 7.71581 15.6552 8.44914V14.5491H13.6352V4.76914Z" fill="#484848"/>
<path d="M25.006 14.7891C24.1927 14.7891 23.4327 14.5825 22.726 14.1691C22.0193 13.7558 21.4527 13.1625 21.026 12.3891C20.6127 11.6158 20.406 10.7091 20.406 9.66914C20.406 8.61581 20.6127 7.70248 21.026 6.92914C21.4527 6.15581 22.0127 5.56247 22.706 5.14914C23.4127 4.73581 24.1793 4.52914 25.006 4.52914C25.8327 4.52914 26.5927 4.73581 27.286 5.14914C27.9927 5.56247 28.5527 6.15581 28.966 6.92914C29.3927 7.70248 29.606 8.61581 29.606 9.66914C29.606 10.7091 29.3927 11.6158 28.966 12.3891C28.5527 13.1625 27.9927 13.7558 27.286 14.1691C26.5793 14.5825 25.8193 14.7891 25.006 14.7891ZM25.006 13.1291C25.7793 13.1291 26.3927 12.8158 26.846 12.1891C27.2993 11.5491 27.526 10.7091 27.526 9.66914C27.526 8.62914 27.2927 7.78914 26.826 7.14914C26.3727 6.50914 25.766 6.18914 25.006 6.18914C24.246 6.18914 23.6327 6.50914 23.166 7.14914C22.7127 7.78914 22.486 8.62914 22.486 9.66914C22.486 10.7091 22.7127 11.5491 23.166 12.1891C23.6193 12.8158 24.2327 13.1291 25.006 13.1291Z" fill="#484848"/>
<path d="M32.404 4.76914H34.064L34.224 5.84914H34.284C35.3373 4.96914 36.344 4.52914 37.304 4.52914C38.5306 4.52914 39.4773 4.97581 40.144 5.86914C40.824 6.76247 41.164 7.97581 41.164 9.50914C41.164 10.5891 40.9706 11.5291 40.584 12.3291C40.1973 13.1158 39.684 13.7225 39.044 14.1491C38.404 14.5758 37.7106 14.7891 36.964 14.7891C36.1106 14.7891 35.244 14.4225 34.364 13.6891L34.424 15.3491V18.5291H32.404V4.76914ZM36.564 13.1091C37.3106 13.1091 37.9173 12.7958 38.384 12.1691C38.8506 11.5291 39.084 10.6491 39.084 9.52914C39.084 7.31581 38.3106 6.20914 36.764 6.20914C36.044 6.20914 35.264 6.60914 34.424 7.40914V12.2091C35.1306 12.8091 35.844 13.1091 36.564 13.1091Z" fill="#484848"/>
<path d="M48.5554 14.7891C48.102 14.7891 47.642 14.6825 47.1754 14.4691C46.7087 14.2425 46.262 13.9291 45.8354 13.5291H45.7754L45.5954 14.5491H43.9954V0.369141H46.0154V4.12914L45.9554 5.80914C46.4087 5.42247 46.8887 5.11581 47.3954 4.88914C47.902 4.64914 48.402 4.52914 48.8954 4.52914C50.122 4.52914 51.0687 4.97581 51.7354 5.86914C52.4154 6.76247 52.7554 7.96914 52.7554 9.48914C52.7554 10.5691 52.562 11.5091 52.1754 12.3091C51.7887 13.1091 51.2754 13.7225 50.6354 14.1491C49.9954 14.5758 49.302 14.7891 48.5554 14.7891ZM48.1554 13.1091C48.902 13.1091 49.5087 12.7958 49.9754 12.1691C50.442 11.5291 50.6754 10.6491 50.6754 9.52914C50.6754 7.31581 49.902 6.20914 48.3554 6.20914C47.622 6.20914 46.842 6.60914 46.0154 7.40914V12.2091C46.3754 12.5158 46.7354 12.7425 47.0954 12.8891C47.4687 13.0358 47.822 13.1091 48.1554 13.1091Z" fill="#484848"/>
<path d="M59.4873 14.7891C58.6739 14.7891 57.9139 14.5825 57.2073 14.1691C56.5006 13.7558 55.9339 13.1625 55.5073 12.3891C55.0939 11.6158 54.8873 10.7091 54.8873 9.66914C54.8873 8.61581 55.0939 7.70248 55.5073 6.92914C55.9339 6.15581 56.4939 5.56247 57.1873 5.14914C57.8939 4.73581 58.6606 4.52914 59.4873 4.52914C60.3139 4.52914 61.0739 4.73581 61.7673 5.14914C62.4739 5.56247 63.0339 6.15581 63.4473 6.92914C63.8739 7.70248 64.0872 8.61581 64.0872 9.66914C64.0872 10.7091 63.8739 11.6158 63.4473 12.3891C63.0339 13.1625 62.4739 13.7558 61.7673 14.1691C61.0606 14.5825 60.3006 14.7891 59.4873 14.7891ZM59.4873 13.1291C60.2606 13.1291 60.8739 12.8158 61.3273 12.1891C61.7806 11.5491 62.0073 10.7091 62.0073 9.66914C62.0073 8.62914 61.7739 7.78914 61.3073 7.14914C60.8539 6.50914 60.2473 6.18914 59.4873 6.18914C58.7273 6.18914 58.1139 6.50914 57.6473 7.14914C57.1939 7.78914 56.9673 8.62914 56.9673 9.66914C56.9673 10.7091 57.1939 11.5491 57.6473 12.1891C58.1006 12.8158 58.7139 13.1291 59.4873 13.1291Z" fill="#484848"/>
<path d="M68.3746 9.44914L65.4546 4.76914H67.6346L68.8146 6.74914L69.7346 8.38914H69.8146L70.6346 6.74914L71.6746 4.76914H73.7746L70.8546 9.66914L73.9946 14.5491H71.8146L70.5146 12.4691C70.1146 11.7491 69.7746 11.1691 69.4946 10.7291H69.4146L68.4946 12.4691L67.3346 14.5491H65.2346L68.3746 9.44914Z" fill="#484848"/>
<rect opacity="0.5" x="96.3549" y="3.48242" width="237.556" height="11.5498" rx="5.77492" fill="#81D3C8"/>
<rect x="96.3549" y="3.48242" width="154.411" height="11.5498" rx="5.77492" fill="#18A2A2"/>
<path d="M351.878 6.7C353.011 6.7 353.905 7.04 354.558 7.72C355.225 8.38667 355.558 9.36 355.558 10.64C355.558 11.4533 355.378 12.1733 355.018 12.8C354.671 13.4267 354.198 13.9133 353.598 14.26C353.011 14.6067 352.365 14.78 351.658 14.78C350.805 14.78 350.031 14.5533 349.338 14.1C348.658 13.6333 348.118 12.94 347.718 12.02C347.331 11.0867 347.138 9.94667 347.138 8.6C347.138 7 347.358 5.67333 347.798 4.62C348.251 3.56667 348.851 2.79333 349.598 2.3C350.345 1.80667 351.171 1.56 352.078 1.56C353.371 1.56 354.458 2.02667 355.338 2.96L354.238 4.2C353.998 3.90667 353.691 3.67333 353.318 3.5C352.945 3.31333 352.565 3.22 352.178 3.22C351.271 3.22 350.525 3.62 349.938 4.42C349.365 5.20667 349.058 6.48 349.018 8.24C349.391 7.77333 349.838 7.4 350.358 7.12C350.878 6.84 351.385 6.7 351.878 6.7ZM351.638 13.22C352.225 13.22 352.711 12.9867 353.098 12.52C353.485 12.0533 353.678 11.4267 353.678 10.64C353.678 9.85333 353.491 9.24667 353.118 8.82C352.745 8.39333 352.211 8.18 351.518 8.18C351.105 8.18 350.685 8.30667 350.258 8.56C349.845 8.81333 349.451 9.21333 349.078 9.76C349.185 10.9067 349.458 11.7733 349.898 12.36C350.351 12.9333 350.931 13.22 351.638 13.22Z" fill="#484848"/>
<path d="M361.895 14.78C360.135 14.78 358.715 14.18 357.635 12.98L358.615 11.68C359.055 12.12 359.529 12.4733 360.035 12.74C360.542 12.9933 361.109 13.12 361.735 13.12C362.469 13.12 363.062 12.9333 363.515 12.56C363.982 12.1733 364.215 11.66 364.215 11.02C364.215 10.2733 363.915 9.7 363.315 9.3C362.729 8.9 361.735 8.7 360.335 8.7V7.2C362.629 7.2 363.775 6.47333 363.775 5.02C363.775 4.44667 363.595 4 363.235 3.68C362.875 3.34667 362.382 3.18 361.755 3.18C360.862 3.18 359.989 3.59333 359.135 4.42L358.075 3.16C359.262 2.09333 360.515 1.56 361.835 1.56C363.035 1.56 363.995 1.85333 364.715 2.44C365.449 3.02667 365.815 3.83333 365.815 4.86C365.815 6.26 365.062 7.25333 363.555 7.84V7.92C364.355 8.12 365.002 8.5 365.495 9.06C366.002 9.60667 366.255 10.2933 366.255 11.12C366.255 11.8667 366.062 12.52 365.675 13.08C365.289 13.6267 364.762 14.0467 364.095 14.34C363.442 14.6333 362.709 14.78 361.895 14.78Z" fill="#484848"/>
<path d="M371.752 9.28C370.832 9.28 370.092 8.91333 369.532 8.18C368.972 7.44667 368.692 6.42667 368.692 5.12C368.692 3.82667 368.972 2.82 369.532 2.1C370.092 1.36667 370.832 1 371.752 1C372.672 1 373.412 1.36667 373.972 2.1C374.532 2.82 374.812 3.82667 374.812 5.12C374.812 6.42667 374.532 7.44667 373.972 8.18C373.412 8.91333 372.672 9.28 371.752 9.28ZM379.272 1.2H380.552L373.372 14.78H372.092L379.272 1.2ZM371.752 8.08C372.232 8.08 372.612 7.83333 372.892 7.34C373.186 6.83333 373.332 6.09333 373.332 5.12C373.332 4.14667 373.186 3.42 372.892 2.94C372.612 2.44667 372.232 2.2 371.752 2.2C371.272 2.2 370.886 2.44667 370.592 2.94C370.312 3.42 370.172 4.14667 370.172 5.12C370.172 6.09333 370.312 6.83333 370.592 7.34C370.886 7.83333 371.272 8.08 371.752 8.08ZM380.933 14.78C380.013 14.78 379.272 14.4133 378.712 13.68C378.152 12.9467 377.872 11.9267 377.872 10.62C377.872 9.32667 378.152 8.32 378.712 7.6C379.272 6.86667 380.013 6.5 380.933 6.5C381.853 6.5 382.592 6.86667 383.152 7.6C383.712 8.32 383.993 9.32667 383.993 10.62C383.993 11.9267 383.712 12.9467 383.152 13.68C382.592 14.4133 381.853 14.78 380.933 14.78ZM380.933 13.58C381.413 13.58 381.793 13.3333 382.073 12.84C382.366 12.3333 382.512 11.5933 382.512 10.62C382.512 9.64667 382.366 8.92 382.073 8.44C381.793 7.94667 381.413 7.7 380.933 7.7C380.453 7.7 380.066 7.94667 379.772 8.44C379.492 8.92 379.353 9.64667 379.353 10.62C379.353 11.5933 379.492 12.3333 379.772 12.84C380.066 13.3333 380.453 13.58 380.933 13.58Z" fill="#484848"/>
</svg>
