<svg viewBox="0 0 170 170" fill="none" xmlns="http://www.w3.org/2000/svg">
<g filter="url(#filter0_d)">
<path d="M62.9203 85.4938C65.0169 85.4938 66.6943 86.1105 67.9523 87.3438C69.2349 88.5525 69.8763 90.3532 69.8763 92.7458C69.8763 94.3245 69.5309 95.7058 68.8403 96.8898C68.1496 98.0738 67.2123 98.9865 66.0283 99.6278C64.8689 100.269 63.5863 100.59 62.1803 100.59C60.6016 100.59 59.1463 100.171 57.8143 99.3318C56.4823 98.4932 55.4093 97.2105 54.5953 95.4838C53.8059 93.7325 53.4113 91.5618 53.4113 88.9718C53.4113 86.1352 53.8429 83.7548 54.7063 81.8308C55.5696 79.9068 56.7166 78.4885 58.1473 77.5758C59.5779 76.6385 61.1443 76.1698 62.8463 76.1698C64.2523 76.1698 65.5103 76.4288 66.6203 76.9468C67.7303 77.4648 68.6923 78.1308 69.5063 78.9448L66.8423 81.9788C66.3983 81.4855 65.8309 81.0785 65.1403 80.7578C64.4743 80.4372 63.8083 80.2768 63.1423 80.2768C61.6623 80.2768 60.4659 80.8935 59.5533 82.1268C58.6406 83.3602 58.1349 85.3582 58.0363 88.1208C58.6529 87.3068 59.4176 86.6655 60.3303 86.1968C61.2429 85.7282 62.1063 85.4938 62.9203 85.4938ZM62.1063 96.7788C63.0189 96.7788 63.7713 96.4335 64.3633 95.7428C64.9553 95.0522 65.2513 94.0532 65.2513 92.7458C65.2513 91.5125 64.9553 90.5998 64.3633 90.0078C63.7713 89.3912 62.9696 89.0828 61.9583 89.0828C61.2676 89.0828 60.5893 89.2802 59.9233 89.6748C59.2819 90.0695 58.7023 90.6985 58.1843 91.5618C58.4063 93.3872 58.8626 94.7192 59.5533 95.5578C60.2439 96.3718 61.0949 96.7788 62.1063 96.7788Z" fill="#FDFDFD"/>
<path d="M81.6214 100.59C80.0921 100.59 78.7108 100.319 77.4774 99.7758C76.2441 99.2085 75.2698 98.4438 74.5544 97.4818C73.8638 96.4952 73.5184 95.3728 73.5184 94.1148C73.5184 91.6728 74.8751 89.7242 77.5884 88.2688V88.1208C75.4671 86.5668 74.4064 84.7292 74.4064 82.6078C74.4064 80.6592 75.0971 79.1052 76.4784 77.9458C77.8598 76.7618 79.6358 76.1698 81.8064 76.1698C83.9278 76.1698 85.6298 76.7618 86.9124 77.9458C88.2198 79.1052 88.8734 80.6592 88.8734 82.6078C88.8734 83.6685 88.5774 84.6552 87.9854 85.5678C87.3934 86.4805 86.6534 87.2328 85.7654 87.8248V87.9728C87.0234 88.6635 88.0101 89.5022 88.7254 90.4888C89.4654 91.4508 89.8354 92.6595 89.8354 94.1148C89.8354 95.3235 89.4901 96.4212 88.7994 97.4078C88.1088 98.3945 87.1344 99.1715 85.8764 99.7388C84.6431 100.306 83.2248 100.59 81.6214 100.59ZM83.1384 86.6038C84.1991 85.4198 84.7294 84.1988 84.7294 82.9408C84.7294 81.9542 84.4581 81.1772 83.9154 80.6098C83.3728 80.0178 82.6328 79.7218 81.6954 79.7218C80.8814 79.7218 80.2031 79.9808 79.6604 80.4988C79.1424 80.9922 78.8834 81.6952 78.8834 82.6078C78.8834 83.5452 79.2288 84.3098 79.9194 84.9018C80.6348 85.4692 81.7078 86.0365 83.1384 86.6038ZM81.7324 97.0378C82.7438 97.0378 83.5578 96.7665 84.1744 96.2238C84.7911 95.6812 85.0994 94.9165 85.0994 93.9298C85.0994 93.2392 84.8898 92.6472 84.4704 92.1538C84.0511 91.6605 83.5084 91.2535 82.8424 90.9328C82.2011 90.5875 81.2268 90.1435 79.9194 89.6008C79.3028 90.1188 78.8094 90.7232 78.4394 91.4138C78.0694 92.1045 77.8844 92.8198 77.8844 93.5598C77.8844 94.5958 78.2544 95.4345 78.9944 96.0758C79.7344 96.7172 80.6471 97.0378 81.7324 97.0378Z" fill="#FDFDFD"/>
<path d="M99.0276 90.3038C97.2516 90.3038 95.8086 89.6255 94.6986 88.2688C93.6133 86.8875 93.0706 85.0005 93.0706 82.6078C93.0706 80.2398 93.6133 78.3775 94.6986 77.0208C95.8086 75.6642 97.2516 74.9858 99.0276 74.9858C100.779 74.9858 102.197 75.6642 103.283 77.0208C104.393 78.3775 104.948 80.2398 104.948 82.6078C104.948 84.9758 104.393 86.8505 103.283 88.2318C102.197 89.6132 100.779 90.3038 99.0276 90.3038ZM112.755 75.5408H115.715L102.617 100.59H99.6566L112.755 75.5408ZM99.0276 87.4548C99.743 87.4548 100.31 87.0725 100.73 86.3078C101.174 85.5185 101.396 84.2852 101.396 82.6078C101.396 80.9552 101.174 79.7465 100.73 78.9818C100.31 78.2172 99.743 77.8348 99.0276 77.8348C98.3123 77.8348 97.7326 78.2172 97.2886 78.9818C96.8446 79.7465 96.6226 80.9552 96.6226 82.6078C96.6226 84.2605 96.8446 85.4815 97.2886 86.2708C97.7326 87.0602 98.3123 87.4548 99.0276 87.4548ZM116.381 100.59C114.629 100.59 113.199 99.8992 112.089 98.5178C111.003 97.1365 110.461 95.2618 110.461 92.8938C110.461 90.5258 111.003 88.6635 112.089 87.3068C113.199 85.9502 114.629 85.2718 116.381 85.2718C118.157 85.2718 119.587 85.9502 120.673 87.3068C121.783 88.6635 122.338 90.5258 122.338 92.8938C122.338 95.2865 121.783 97.1735 120.673 98.5548C119.587 99.9115 118.157 100.59 116.381 100.59ZM116.381 97.7408C117.096 97.7408 117.676 97.3462 118.12 96.5568C118.564 95.7675 118.786 94.5465 118.786 92.8938C118.786 91.2412 118.564 90.0325 118.12 89.2678C117.676 88.5032 117.096 88.1208 116.381 88.1208C115.665 88.1208 115.086 88.5032 114.642 89.2678C114.222 90.0325 114.013 91.2412 114.013 92.8938C114.013 94.5465 114.222 95.7675 114.642 96.5568C115.086 97.3462 115.665 97.7408 116.381 97.7408Z" fill="#FDFDFD"/>
</g>
<path d="M169.877 85.2511C169.877 131.904 132.057 169.723 85.4049 169.723C38.7524 169.723 0.933105 131.904 0.933105 85.2511C0.933105 38.5986 38.7524 0.779297 85.4049 0.779297C132.057 0.779297 169.877 38.5986 169.877 85.2511ZM28.8088 85.2511C28.8088 116.508 54.1477 141.847 85.4049 141.847C116.662 141.847 142.001 116.508 142.001 85.2511C142.001 53.9939 116.662 28.655 85.4049 28.655C54.1477 28.655 28.8088 53.9939 28.8088 85.2511Z" fill="#8AD1CD"/>
<path d="M169.877 85.2511C169.877 100.504 165.747 115.473 157.925 128.568C150.103 141.663 138.882 152.396 125.452 159.627C112.021 166.858 96.8839 170.318 81.6459 169.639C66.4078 168.96 51.6379 164.168 38.9039 155.772C26.17 147.375 15.9472 135.687 9.32074 121.948C2.69429 108.21 -0.0885354 92.9332 1.26766 77.7405C2.62386 62.5477 8.06847 48.0057 17.0235 35.658C25.9786 23.3103 38.11 13.6178 52.1298 7.60927L63.1106 33.2311C53.7173 37.2568 45.5893 43.7508 39.5894 52.0237C33.5895 60.2967 29.9416 70.0398 29.0329 80.219C28.1243 90.3981 29.9888 100.633 34.4285 109.838C38.8682 119.043 45.7175 126.874 54.2493 132.5C62.781 138.126 72.6769 141.336 82.8863 141.791C93.0958 142.246 103.238 139.928 112.236 135.083C121.234 130.238 128.753 123.047 133.993 114.273C139.234 105.5 142.001 95.4707 142.001 85.2511H169.877Z" fill="#FF806F"/>
<defs>
<filter id="filter0_d" x="51.4113" y="74.9858" width="72.9264" height="29.604" filterUnits="userSpaceOnUse" color-interpolation-filters="sRGB">
<feFlood flood-opacity="0" result="BackgroundImageFix"/>
<feColorMatrix in="SourceAlpha" type="matrix" values="0 0 0 0 0 0 0 0 0 0 0 0 0 0 0 0 0 0 127 0"/>
<feOffset dy="2"/>
<feGaussianBlur stdDeviation="1"/>
<feColorMatrix type="matrix" values="0 0 0 0 0 0 0 0 0 0 0 0 0 0 0 0 0 0 0.1 0"/>
<feBlend mode="normal" in2="BackgroundImageFix" result="effect1_dropShadow"/>
<feBlend mode="normal" in="SourceGraphic" in2="effect1_dropShadow" result="shape"/>
</filter>
</defs>
</svg>
