<svg viewBox="0 0 170 170" fill="none" xmlns="http://www.w3.org/2000/svg">
<g filter="url(#filter0_d)">
<path d="M61.5143 100.566C59.9849 100.566 58.6036 100.295 57.3703 99.7519C56.1369 99.1846 55.1626 98.4199 54.4473 97.4579C53.7566 96.4712 53.4113 95.3489 53.4113 94.0909C53.4113 91.6489 54.7679 89.7002 57.4813 88.2449V88.0969C55.3599 86.5429 54.2993 84.7052 54.2993 82.5839C54.2993 80.6352 54.9899 79.0812 56.3713 77.9219C57.7526 76.7379 59.5286 76.1459 61.6993 76.1459C63.8206 76.1459 65.5226 76.7379 66.8053 77.9219C68.1126 79.0812 68.7663 80.6352 68.7663 82.5839C68.7663 83.6446 68.4703 84.6312 67.8783 85.5439C67.2863 86.4566 66.5463 87.2089 65.6583 87.8009V87.9489C66.9163 88.6396 67.9029 89.4782 68.6183 90.4649C69.3583 91.4269 69.7283 92.6356 69.7283 94.0909C69.7283 95.2996 69.3829 96.3972 68.6923 97.3839C68.0016 98.3706 67.0273 99.1476 65.7693 99.7149C64.5359 100.282 63.1176 100.566 61.5143 100.566ZM63.0313 86.5799C64.0919 85.3959 64.6223 84.1749 64.6223 82.9169C64.6223 81.9302 64.3509 81.1532 63.8083 80.5859C63.2656 79.9939 62.5256 79.6979 61.5883 79.6979C60.7743 79.6979 60.0959 79.9569 59.5533 80.4749C59.0353 80.9682 58.7763 81.6712 58.7763 82.5839C58.7763 83.5212 59.1216 84.2859 59.8123 84.8779C60.5276 85.4452 61.6006 86.0126 63.0313 86.5799ZM61.6253 97.0139C62.6366 97.0139 63.4506 96.7426 64.0673 96.1999C64.6839 95.6572 64.9923 94.8926 64.9923 93.9059C64.9923 93.2152 64.7826 92.6232 64.3633 92.1299C63.9439 91.6366 63.4013 91.2296 62.7353 90.9089C62.0939 90.5636 61.1196 90.1196 59.8123 89.5769C59.1956 90.0949 58.7023 90.6992 58.3323 91.3899C57.9623 92.0806 57.7773 92.7959 57.7773 93.5359C57.7773 94.5719 58.1473 95.4106 58.8873 96.0519C59.6273 96.6932 60.5399 97.0139 61.6253 97.0139Z" fill="#FDFDFD"/>
<path d="M90.4274 94.3499H87.6154V100.122H82.9164V94.3499H72.6674V90.8719L81.5104 76.5899H87.6154V90.5019H90.4274V94.3499ZM82.9164 90.5019V86.1729C82.9164 85.1369 82.9781 83.4226 83.1014 81.0299H82.9534C82.7068 81.5479 82.1764 82.6086 81.3624 84.2119L81.0294 84.8779L77.5514 90.5019H82.9164Z" fill="#FDFDFD"/>
<path d="M99.0276 90.2799C97.2516 90.2799 95.8086 89.6016 94.6986 88.2449C93.6133 86.8636 93.0706 84.9766 93.0706 82.5839C93.0706 80.2159 93.6133 78.3536 94.6986 76.9969C95.8086 75.6402 97.2516 74.9619 99.0276 74.9619C100.779 74.9619 102.197 75.6402 103.283 76.9969C104.393 78.3536 104.948 80.2159 104.948 82.5839C104.948 84.9519 104.393 86.8266 103.283 88.2079C102.197 89.5892 100.779 90.2799 99.0276 90.2799ZM112.755 75.5169H115.715L102.617 100.566H99.6566L112.755 75.5169ZM99.0276 87.4309C99.743 87.4309 100.31 87.0486 100.73 86.2839C101.174 85.4946 101.396 84.2612 101.396 82.5839C101.396 80.9312 101.174 79.7226 100.73 78.9579C100.31 78.1932 99.743 77.8109 99.0276 77.8109C98.3123 77.8109 97.7326 78.1932 97.2886 78.9579C96.8446 79.7226 96.6226 80.9312 96.6226 82.5839C96.6226 84.2366 96.8446 85.4576 97.2886 86.2469C97.7326 87.0362 98.3123 87.4309 99.0276 87.4309ZM116.381 100.566C114.629 100.566 113.199 99.8752 112.089 98.4939C111.003 97.1126 110.461 95.2379 110.461 92.8699C110.461 90.5019 111.003 88.6396 112.089 87.2829C113.199 85.9262 114.629 85.2479 116.381 85.2479C118.157 85.2479 119.587 85.9262 120.673 87.2829C121.783 88.6396 122.338 90.5019 122.338 92.8699C122.338 95.2626 121.783 97.1496 120.673 98.5309C119.587 99.8876 118.157 100.566 116.381 100.566ZM116.381 97.7169C117.096 97.7169 117.676 97.3222 118.12 96.5329C118.564 95.7436 118.786 94.5226 118.786 92.8699C118.786 91.2172 118.564 90.0086 118.12 89.2439C117.676 88.4792 117.096 88.0969 116.381 88.0969C115.665 88.0969 115.086 88.4792 114.642 89.2439C114.222 90.0086 114.013 91.2172 114.013 92.8699C114.013 94.5226 114.222 95.7436 114.642 96.5329C115.086 97.3222 115.665 97.7169 116.381 97.7169Z" fill="#FDFDFD"/>
</g>
<path d="M169.877 84.9059C169.877 131.558 132.057 169.378 85.4049 169.378C38.7524 169.378 0.933105 131.558 0.933105 84.9059C0.933105 38.2534 38.7524 0.434082 85.4049 0.434082C132.057 0.434082 169.877 38.2534 169.877 84.9059ZM28.8088 84.9059C28.8088 116.163 54.1477 141.502 85.4049 141.502C116.662 141.502 142.001 116.163 142.001 84.9059C142.001 53.6487 116.662 28.3098 85.4049 28.3098C54.1477 28.3098 28.8088 53.6487 28.8088 84.9059Z" fill="#8AD1CD"/>
<path d="M169.877 84.9059C169.877 103.792 163.548 122.133 151.9 137C140.253 151.867 123.96 162.402 105.622 166.923C87.2853 171.443 67.9622 169.687 50.7396 161.937C33.5171 154.187 19.3886 140.888 10.6109 124.166C1.83321 107.443 -1.08734 88.2619 2.31576 69.6849C5.71885 51.1079 15.2493 34.2072 29.3847 21.6823C43.5202 9.15733 61.4453 1.73073 80.2968 0.588668C99.1484 -0.55339 117.839 4.65499 133.383 15.3819L117.55 38.3248C107.136 31.1378 94.613 27.6482 81.9825 28.4133C69.3519 29.1785 57.3421 34.1543 47.8714 42.5461C38.4006 50.9378 32.0152 62.2612 29.7352 74.7078C27.4551 87.1544 29.4119 100.006 35.2929 111.21C41.174 122.414 50.6401 131.324 62.1792 136.517C73.7183 141.71 86.6647 142.886 98.9507 139.857C111.237 136.828 122.153 129.77 129.957 119.809C137.761 109.848 142.001 97.5596 142.001 84.9059H169.877Z" fill="#FF806F"/>
<defs>
<filter id="filter0_d" x="51.4113" y="74.9619" width="72.9264" height="29.604" filterUnits="userSpaceOnUse" color-interpolation-filters="sRGB">
<feFlood flood-opacity="0" result="BackgroundImageFix"/>
<feColorMatrix in="SourceAlpha" type="matrix" values="0 0 0 0 0 0 0 0 0 0 0 0 0 0 0 0 0 0 127 0"/>
<feOffset dy="2"/>
<feGaussianBlur stdDeviation="1"/>
<feColorMatrix type="matrix" values="0 0 0 0 0 0 0 0 0 0 0 0 0 0 0 0 0 0 0.1 0"/>
<feBlend mode="normal" in2="BackgroundImageFix" result="effect1_dropShadow"/>
<feBlend mode="normal" in="SourceGraphic" in2="effect1_dropShadow" result="shape"/>
</filter>
</defs>
</svg>
