<svg width="121" height="121" viewBox="0 0 121 121" fill="none" xmlns="http://www.w3.org/2000/svg">
<path opacity="0.5" d="M120.205 60.3809C120.205 93.5179 93.3422 120.381 60.2051 120.381C27.068 120.381 0.205078 93.5179 0.205078 60.3809C0.205078 27.2438 27.068 0.380859 60.2051 0.380859C93.3422 0.380859 120.205 27.2438 120.205 60.3809ZM12.2051 60.3809C12.2051 86.8905 33.6954 108.381 60.2051 108.381C86.7147 108.381 108.205 86.8905 108.205 60.3809C108.205 33.8712 86.7147 12.3809 60.2051 12.3809C33.6954 12.3809 12.2051 33.8712 12.2051 60.3809Z" fill="#81D3C8"/>
<path d="M114.205 60.3809C117.519 60.3809 120.236 63.0739 119.905 66.3711C118.785 77.5428 114.545 88.2202 107.614 97.1553C99.4531 107.677 88.0238 115.184 75.1265 118.496C62.2292 121.807 48.5967 120.734 36.3762 115.446C24.1557 110.158 14.0415 100.955 7.62668 89.2861C1.21182 77.6175 -1.13925 64.1465 0.943776 50.9948C3.0268 37.8431 9.42555 25.7579 19.1322 16.6427C28.8389 7.52756 41.302 1.90026 54.5586 0.647143C65.8164 -0.417035 77.1032 1.72472 87.1364 6.7645C90.0975 8.2519 90.9153 11.9893 89.1397 14.7871V14.7871C87.3641 17.585 83.6686 18.3755 80.6712 16.9626C72.9189 13.3083 64.2928 11.7805 55.6879 12.5939C45.0826 13.5964 35.1122 18.0982 27.3468 25.3904C19.5815 32.6825 14.4625 42.3506 12.796 52.872C11.1296 63.3934 13.0105 74.1702 18.1424 83.505C23.2743 92.8399 31.3656 100.202 41.142 104.433C50.9184 108.664 61.8243 109.522 72.1422 106.873C82.46 104.224 91.6035 98.2175 98.1325 89.8004C103.43 82.9709 106.762 74.869 107.831 66.3654C108.244 63.0775 110.891 60.3809 114.205 60.3809V60.3809Z" fill="#18A2A2"/>
</svg>
