<svg width="366" height="16" viewBox="0 0 366 16" fill="none" xmlns="http://www.w3.org/2000/svg">
<path d="M0.830109 5.25938H2.85011V15.0394H0.830109V5.25938ZM1.85011 3.41938C1.49011 3.41938 1.19011 3.30604 0.950111 3.07938C0.723445 2.85271 0.610107 2.55938 0.610107 2.19938C0.610107 1.85271 0.723445 1.56604 0.950111 1.33937C1.19011 1.11271 1.49011 0.999376 1.85011 0.999376C2.21011 0.999376 2.50344 1.11271 2.73011 1.33937C2.97011 1.56604 3.09011 1.85271 3.09011 2.19938C3.09011 2.55938 2.97011 2.85271 2.73011 3.07938C2.50344 3.30604 2.21011 3.41938 1.85011 3.41938Z" fill="#484848"/>
<path d="M11.6078 15.2794C10.5011 15.2794 9.50776 15.0127 8.62776 14.4794C7.74776 13.946 7.05443 13.1727 6.54777 12.1594C6.0411 11.1327 5.78777 9.91938 5.78777 8.51938C5.78777 7.13271 6.04776 5.92604 6.56776 4.89938C7.08776 3.87271 7.79443 3.08604 8.68777 2.53938C9.59443 1.97938 10.6011 1.69937 11.7078 1.69937C12.4678 1.69937 13.1611 1.85271 13.7878 2.15937C14.4278 2.46604 14.9678 2.85938 15.4078 3.33938L14.3078 4.65937C13.5478 3.87271 12.6944 3.47938 11.7478 3.47938C10.9878 3.47938 10.3144 3.68604 9.72777 4.09938C9.15443 4.49938 8.7011 5.07271 8.36777 5.81938C8.04777 6.56604 7.88776 7.44604 7.88776 8.45938C7.88776 10.0194 8.22777 11.2527 8.90777 12.1594C9.6011 13.0527 10.5278 13.4994 11.6878 13.4994C12.7811 13.4994 13.7478 13.0327 14.5878 12.0994L15.6878 13.3794C14.6078 14.646 13.2478 15.2794 11.6078 15.2794Z" fill="#484848"/>
<path d="M20.2321 15.2794C19.5255 15.2794 19.0121 15.066 18.6921 14.6394C18.3721 14.2127 18.2121 13.586 18.2121 12.7594V0.859375H20.2321V12.8794C20.2321 13.1327 20.2788 13.3194 20.3721 13.4394C20.4655 13.5594 20.5788 13.6194 20.7121 13.6194C20.8321 13.6194 20.9521 13.606 21.0721 13.5794L21.3321 15.0994C21.0255 15.2194 20.6588 15.2794 20.2321 15.2794Z" fill="#484848"/>
<path d="M27.8056 15.2794C26.9922 15.2794 26.2322 15.0727 25.5256 14.6594C24.8189 14.246 24.2522 13.6527 23.8256 12.8794C23.4122 12.106 23.2056 11.1994 23.2056 10.1594C23.2056 9.10604 23.4122 8.19271 23.8256 7.41938C24.2522 6.64604 24.8122 6.05271 25.5056 5.63938C26.2122 5.22604 26.9789 5.01937 27.8056 5.01937C28.6322 5.01937 29.3922 5.22604 30.0856 5.63938C30.7922 6.05271 31.3522 6.64604 31.7656 7.41938C32.1922 8.19271 32.4056 9.10604 32.4056 10.1594C32.4056 11.1994 32.1922 12.106 31.7656 12.8794C31.3522 13.6527 30.7922 14.246 30.0856 14.6594C29.3789 15.0727 28.6189 15.2794 27.8056 15.2794ZM27.8056 13.6194C28.5789 13.6194 29.1922 13.306 29.6456 12.6794C30.0989 12.0394 30.3256 11.1994 30.3256 10.1594C30.3256 9.11938 30.0922 8.27938 29.6256 7.63938C29.1722 6.99938 28.5656 6.67938 27.8056 6.67938C27.0456 6.67938 26.4322 6.99938 25.9656 7.63938C25.5122 8.27938 25.2856 9.11938 25.2856 10.1594C25.2856 11.1994 25.5122 12.0394 25.9656 12.6794C26.4189 13.306 27.0322 13.6194 27.8056 13.6194Z" fill="#484848"/>
<path d="M38.0835 15.2794C36.0835 15.2794 35.0835 13.9927 35.0835 11.4194V5.25938H37.1035V11.1594C37.1035 11.9994 37.2302 12.606 37.4835 12.9794C37.7502 13.3527 38.1769 13.5394 38.7635 13.5394C39.2169 13.5394 39.6169 13.426 39.9635 13.1994C40.3102 12.9727 40.6969 12.5927 41.1235 12.0594V5.25938H43.1435V15.0394H41.4835L41.3235 13.5594H41.2635C40.7835 14.1194 40.2902 14.546 39.7835 14.8394C39.2902 15.1327 38.7235 15.2794 38.0835 15.2794Z" fill="#484848"/>
<path d="M49.9992 15.2794C48.7725 15.2794 47.7925 14.826 47.0592 13.9194C46.3392 13.0127 45.9792 11.7594 45.9792 10.1594C45.9792 9.13271 46.1725 8.23271 46.5592 7.45938C46.9458 6.67271 47.4592 6.07271 48.0992 5.65938C48.7392 5.23271 49.4258 5.01937 50.1592 5.01937C50.6792 5.01937 51.1392 5.11271 51.5392 5.29938C51.9392 5.47271 52.3592 5.74604 52.7992 6.11938L52.7192 4.49938V0.859375H54.7392V15.0394H53.0792L52.9192 13.9394H52.8592C52.4592 14.3394 52.0125 14.666 51.5192 14.9194C51.0258 15.1594 50.5192 15.2794 49.9992 15.2794ZM50.4792 13.5994C50.8925 13.5994 51.2792 13.506 51.6392 13.3194C51.9992 13.1194 52.3592 12.8127 52.7192 12.3994V7.59938C52.0525 6.99938 51.3325 6.69938 50.5592 6.69938C50.0925 6.69938 49.6658 6.83938 49.2792 7.11938C48.9058 7.39938 48.6058 7.79938 48.3792 8.31938C48.1658 8.83938 48.0592 9.44604 48.0592 10.1394C48.0592 11.246 48.2658 12.0994 48.6792 12.6994C49.1058 13.2994 49.7058 13.5994 50.4792 13.5994Z" fill="#484848"/>
<rect opacity="0.5" x="78.355" y="4.21875" width="237.556" height="11.5498" rx="5.77492" fill="#81D3C8"/>
<rect x="78.355" y="4.21875" width="209.049" height="11.5498" rx="5.77492" fill="#18A2A2"/>
<path d="M333.298 15.6609C332.498 15.6609 331.772 15.5142 331.118 15.2209C330.465 14.9142 329.952 14.4942 329.578 13.9609C329.218 13.4275 329.038 12.8275 329.038 12.1609C329.038 11.4142 329.258 10.7609 329.698 10.2009C330.138 9.64086 330.698 9.18086 331.378 8.82086V8.74086C330.205 7.91419 329.618 6.92753 329.618 5.78086C329.618 5.11419 329.778 4.53419 330.098 4.04086C330.432 3.53419 330.878 3.14086 331.438 2.86086C332.012 2.58086 332.652 2.44086 333.358 2.44086C334.478 2.44086 335.372 2.76086 336.038 3.40086C336.705 4.02753 337.038 4.84753 337.038 5.86086C337.038 6.46086 336.865 7.02753 336.518 7.56086C336.185 8.08086 335.785 8.50753 335.318 8.84086V8.92086C335.998 9.32086 336.532 9.78086 336.918 10.3009C337.318 10.8075 337.518 11.4475 337.518 12.2209C337.518 12.8609 337.338 13.4475 336.978 13.9809C336.632 14.5009 336.138 14.9142 335.498 15.2209C334.858 15.5142 334.125 15.6609 333.298 15.6609ZM334.158 8.34086C334.945 7.59419 335.338 6.80753 335.338 5.98086C335.338 5.36753 335.158 4.86753 334.798 4.48086C334.438 4.09419 333.945 3.90086 333.318 3.90086C332.772 3.90086 332.318 4.07419 331.958 4.42086C331.612 4.75419 331.438 5.20753 331.438 5.78086C331.438 6.40753 331.665 6.90086 332.118 7.26086C332.585 7.62086 333.265 7.98086 334.158 8.34086ZM333.338 14.2009C334.018 14.2009 334.565 14.0142 334.978 13.6409C335.405 13.2675 335.618 12.7742 335.618 12.1609C335.618 11.6942 335.478 11.3009 335.198 10.9809C334.932 10.6609 334.592 10.4009 334.178 10.2009C333.778 9.98753 333.178 9.72086 332.378 9.40086C331.912 9.73419 331.538 10.1209 331.258 10.5609C330.978 10.9875 330.838 11.4542 330.838 11.9609C330.838 12.6142 331.072 13.1542 331.538 13.5809C332.018 13.9942 332.618 14.2009 333.338 14.2009Z" fill="#484848"/>
<path d="M344.216 15.6609C343.416 15.6609 342.689 15.5142 342.036 15.2209C341.382 14.9142 340.869 14.4942 340.496 13.9609C340.136 13.4275 339.956 12.8275 339.956 12.1609C339.956 11.4142 340.176 10.7609 340.616 10.2009C341.056 9.64086 341.616 9.18086 342.296 8.82086V8.74086C341.122 7.91419 340.536 6.92753 340.536 5.78086C340.536 5.11419 340.696 4.53419 341.016 4.04086C341.349 3.53419 341.796 3.14086 342.356 2.86086C342.929 2.58086 343.569 2.44086 344.276 2.44086C345.396 2.44086 346.289 2.76086 346.956 3.40086C347.622 4.02753 347.956 4.84753 347.956 5.86086C347.956 6.46086 347.782 7.02753 347.436 7.56086C347.102 8.08086 346.702 8.50753 346.236 8.84086V8.92086C346.916 9.32086 347.449 9.78086 347.836 10.3009C348.236 10.8075 348.436 11.4475 348.436 12.2209C348.436 12.8609 348.256 13.4475 347.896 13.9809C347.549 14.5009 347.056 14.9142 346.416 15.2209C345.776 15.5142 345.042 15.6609 344.216 15.6609ZM345.076 8.34086C345.862 7.59419 346.256 6.80753 346.256 5.98086C346.256 5.36753 346.076 4.86753 345.716 4.48086C345.356 4.09419 344.862 3.90086 344.236 3.90086C343.689 3.90086 343.236 4.07419 342.876 4.42086C342.529 4.75419 342.356 5.20753 342.356 5.78086C342.356 6.40753 342.582 6.90086 343.036 7.26086C343.502 7.62086 344.182 7.98086 345.076 8.34086ZM344.256 14.2009C344.936 14.2009 345.482 14.0142 345.896 13.6409C346.322 13.2675 346.536 12.7742 346.536 12.1609C346.536 11.6942 346.396 11.3009 346.116 10.9809C345.849 10.6609 345.509 10.4009 345.096 10.2009C344.696 9.98753 344.096 9.72086 343.296 9.40086C342.829 9.73419 342.456 10.1209 342.176 10.5609C341.896 10.9875 341.756 11.4542 341.756 11.9609C341.756 12.6142 341.989 13.1542 342.456 13.5809C342.936 13.9942 343.536 14.2009 344.256 14.2009Z" fill="#484848"/>
<path d="M353.753 10.1609C352.833 10.1609 352.093 9.79419 351.533 9.06086C350.973 8.32753 350.693 7.30753 350.693 6.00086C350.693 4.70753 350.973 3.70086 351.533 2.98086C352.093 2.24753 352.833 1.88086 353.753 1.88086C354.673 1.88086 355.413 2.24753 355.973 2.98086C356.533 3.70086 356.813 4.70753 356.813 6.00086C356.813 7.30753 356.533 8.32753 355.973 9.06086C355.413 9.79419 354.673 10.1609 353.753 10.1609ZM361.273 2.08086H362.553L355.373 15.6609H354.093L361.273 2.08086ZM353.753 8.96086C354.233 8.96086 354.613 8.71419 354.893 8.22086C355.186 7.71419 355.333 6.97419 355.333 6.00086C355.333 5.02753 355.186 4.30086 354.893 3.82086C354.613 3.32753 354.233 3.08086 353.753 3.08086C353.273 3.08086 352.886 3.32753 352.593 3.82086C352.313 4.30086 352.173 5.02753 352.173 6.00086C352.173 6.97419 352.313 7.71419 352.593 8.22086C352.886 8.71419 353.273 8.96086 353.753 8.96086ZM362.933 15.6609C362.013 15.6609 361.273 15.2942 360.713 14.5609C360.153 13.8275 359.873 12.8075 359.873 11.5009C359.873 10.2075 360.153 9.20086 360.713 8.48086C361.273 7.74753 362.013 7.38086 362.933 7.38086C363.853 7.38086 364.593 7.74753 365.153 8.48086C365.713 9.20086 365.993 10.2075 365.993 11.5009C365.993 12.8075 365.713 13.8275 365.153 14.5609C364.593 15.2942 363.853 15.6609 362.933 15.6609ZM362.933 14.4609C363.413 14.4609 363.793 14.2142 364.073 13.7209C364.366 13.2142 364.513 12.4742 364.513 11.5009C364.513 10.5275 364.366 9.80086 364.073 9.32086C363.793 8.82753 363.413 8.58086 362.933 8.58086C362.453 8.58086 362.066 8.82753 361.773 9.32086C361.493 9.80086 361.353 10.5275 361.353 11.5009C361.353 12.4742 361.493 13.2142 361.773 13.7209C362.066 14.2142 362.453 14.4609 362.933 14.4609Z" fill="#484848"/>
</svg>
