<svg width="422" height="19" viewBox="0 0 422 19" fill="none" xmlns="http://www.w3.org/2000/svg">
<path d="M6.68872 14.6427C5.51539 14.6427 4.46872 14.376 3.54872 13.8427C2.64206 13.3093 1.92872 12.536 1.40872 11.5227C0.888724 10.496 0.628723 9.28266 0.628723 7.88266C0.628723 6.49599 0.895389 5.28932 1.42872 4.26266C1.96206 3.22266 2.68872 2.42932 3.60872 1.88266C4.54206 1.33599 5.58872 1.06266 6.74872 1.06266C8.26872 1.06266 9.56206 1.60932 10.6287 2.70266L9.52872 4.02266C9.15539 3.64932 8.75539 3.36266 8.32872 3.16266C7.90206 2.94932 7.39539 2.84266 6.80872 2.84266C5.99539 2.84266 5.28206 3.04266 4.66872 3.44266C4.05539 3.84266 3.57539 4.42266 3.22872 5.18266C2.89539 5.92932 2.72872 6.80932 2.72872 7.82266C2.72872 9.39599 3.08872 10.6293 3.80872 11.5227C4.52872 12.416 5.55539 12.8627 6.88872 12.8627C7.30206 12.8627 7.69539 12.8093 8.06872 12.7027C8.44206 12.5827 8.74206 12.416 8.96872 12.2027V9.12266H6.36872V7.44266H10.8087V13.1027C10.3554 13.5693 9.76872 13.9427 9.04872 14.2227C8.32872 14.5027 7.54206 14.6427 6.68872 14.6427Z" fill="#484848"/>
<path d="M17.9497 14.6427C17.1363 14.6427 16.3763 14.436 15.6697 14.0227C14.963 13.6093 14.3963 13.016 13.9697 12.2427C13.5563 11.4693 13.3497 10.5627 13.3497 9.52266C13.3497 8.46932 13.5563 7.55599 13.9697 6.78266C14.3963 6.00932 14.9563 5.41599 15.6497 5.00266C16.3563 4.58932 17.123 4.38266 17.9497 4.38266C18.7763 4.38266 19.5363 4.58932 20.2297 5.00266C20.9363 5.41599 21.4963 6.00932 21.9097 6.78266C22.3363 7.55599 22.5497 8.46932 22.5497 9.52266C22.5497 10.5627 22.3363 11.4693 21.9097 12.2427C21.4963 13.016 20.9363 13.6093 20.2297 14.0227C19.523 14.436 18.763 14.6427 17.9497 14.6427ZM17.9497 12.9827C18.723 12.9827 19.3363 12.6693 19.7897 12.0427C20.243 11.4027 20.4697 10.5627 20.4697 9.52266C20.4697 8.48266 20.2363 7.64266 19.7697 7.00266C19.3163 6.36266 18.7097 6.04266 17.9497 6.04266C17.1897 6.04266 16.5763 6.36266 16.1097 7.00266C15.6563 7.64266 15.4297 8.48266 15.4297 9.52266C15.4297 10.5627 15.6563 11.4027 16.1097 12.0427C16.563 12.6693 17.1763 12.9827 17.9497 12.9827Z" fill="#484848"/>
<path d="M29.2676 14.6427C28.4543 14.6427 27.6943 14.436 26.9876 14.0227C26.281 13.6093 25.7143 13.016 25.2876 12.2427C24.8743 11.4693 24.6676 10.5627 24.6676 9.52266C24.6676 8.46932 24.8743 7.55599 25.2876 6.78266C25.7143 6.00932 26.2743 5.41599 26.9676 5.00266C27.6743 4.58932 28.441 4.38266 29.2676 4.38266C30.0943 4.38266 30.8543 4.58932 31.5476 5.00266C32.2543 5.41599 32.8143 6.00932 33.2276 6.78266C33.6543 7.55599 33.8676 8.46932 33.8676 9.52266C33.8676 10.5627 33.6543 11.4693 33.2276 12.2427C32.8143 13.016 32.2543 13.6093 31.5476 14.0227C30.841 14.436 30.081 14.6427 29.2676 14.6427ZM29.2676 12.9827C30.041 12.9827 30.6543 12.6693 31.1076 12.0427C31.561 11.4027 31.7876 10.5627 31.7876 9.52266C31.7876 8.48266 31.5543 7.64266 31.0876 7.00266C30.6343 6.36266 30.0276 6.04266 29.2676 6.04266C28.5076 6.04266 27.8943 6.36266 27.4276 7.00266C26.9743 7.64266 26.7476 8.48266 26.7476 9.52266C26.7476 10.5627 26.9743 11.4027 27.4276 12.0427C27.881 12.6693 28.4943 12.9827 29.2676 12.9827Z" fill="#484848"/>
<path d="M40.0256 18.8027C38.8123 18.8027 37.8323 18.576 37.0856 18.1227C36.3389 17.6827 35.9656 17.0493 35.9656 16.2227C35.9656 15.8093 36.0856 15.416 36.3256 15.0427C36.5789 14.6827 36.9323 14.3627 37.3856 14.0827V14.0027C36.7989 13.6293 36.5056 13.0893 36.5056 12.3827C36.5056 12.0227 36.6056 11.6827 36.8056 11.3627C37.0189 11.0427 37.2789 10.776 37.5856 10.5627V10.4827C37.2256 10.2027 36.9189 9.83599 36.6656 9.38266C36.4256 8.92932 36.3056 8.42932 36.3056 7.88266C36.3056 7.17599 36.4723 6.55599 36.8056 6.02266C37.1523 5.48932 37.6123 5.08266 38.1856 4.80266C38.7723 4.52266 39.4056 4.38266 40.0856 4.38266C40.5923 4.38266 41.0656 4.46266 41.5056 4.62266H44.9656V6.14266H43.0856C43.2856 6.35599 43.4456 6.62266 43.5656 6.94266C43.6856 7.24932 43.7456 7.58266 43.7456 7.94266C43.7456 8.98266 43.3989 9.80266 42.7056 10.4027C42.0123 11.0027 41.1389 11.3027 40.0856 11.3027C39.6056 11.3027 39.1456 11.2027 38.7056 11.0027C38.5323 11.1627 38.3989 11.3227 38.3056 11.4827C38.2123 11.6293 38.1656 11.816 38.1656 12.0427C38.1656 12.3493 38.2923 12.5893 38.5456 12.7627C38.7989 12.9227 39.2189 13.0027 39.8056 13.0027H41.6256C42.7989 13.0027 43.6723 13.196 44.2456 13.5827C44.8323 13.9693 45.1256 14.5693 45.1256 15.3827C45.1256 16.0093 44.9123 16.5827 44.4856 17.1027C44.0723 17.6227 43.4789 18.036 42.7056 18.3427C41.9323 18.6493 41.0389 18.8027 40.0256 18.8027ZM40.0856 10.0027C40.6189 10.0027 41.0589 9.80932 41.4056 9.42266C41.7656 9.03599 41.9456 8.52266 41.9456 7.88266C41.9456 7.24266 41.7656 6.73599 41.4056 6.36266C41.0589 5.98932 40.6189 5.80266 40.0856 5.80266C39.5523 5.80266 39.1056 5.98932 38.7456 6.36266C38.3989 6.73599 38.2256 7.24266 38.2256 7.88266C38.2256 8.52266 38.3989 9.03599 38.7456 9.42266C39.1056 9.80932 39.5523 10.0027 40.0856 10.0027ZM40.3256 17.4627C40.8723 17.4627 41.3589 17.3827 41.7856 17.2227C42.2256 17.0627 42.5656 16.8427 42.8056 16.5627C43.0456 16.296 43.1656 16.0093 43.1656 15.7027C43.1656 15.3027 43.0123 15.0227 42.7056 14.8627C42.4123 14.7027 41.9589 14.6227 41.3456 14.6227H39.8456C39.3523 14.6227 38.9189 14.576 38.5456 14.4827C37.9723 14.9093 37.6856 15.3893 37.6856 15.9227C37.6856 16.4027 37.9189 16.776 38.3856 17.0427C38.8523 17.3227 39.4989 17.4627 40.3256 17.4627Z" fill="#484848"/>
<path d="M49.3395 14.6427C48.6328 14.6427 48.1195 14.4293 47.7995 14.0027C47.4795 13.576 47.3195 12.9493 47.3195 12.1227V0.222656H49.3395V12.2427C49.3395 12.496 49.3862 12.6827 49.4795 12.8027C49.5728 12.9227 49.6862 12.9827 49.8195 12.9827C49.9395 12.9827 50.0595 12.9693 50.1795 12.9427L50.4395 14.4627C50.1328 14.5827 49.7662 14.6427 49.3395 14.6427Z" fill="#484848"/>
<path d="M60.7529 9.00266C60.7529 9.37599 60.7263 9.72266 60.6729 10.0427H54.2129C54.3063 11.0293 54.6396 11.7827 55.2129 12.3027C55.7996 12.8093 56.5063 13.0627 57.3329 13.0627C58.1196 13.0627 58.8996 12.816 59.6729 12.3227L60.3729 13.6027C59.3329 14.296 58.2329 14.6427 57.0729 14.6427C56.1796 14.6427 55.3729 14.436 54.6529 14.0227C53.9329 13.6093 53.3596 13.016 52.9329 12.2427C52.5196 11.4693 52.3129 10.5627 52.3129 9.52266C52.3129 8.49599 52.5196 7.59599 52.9329 6.82266C53.3596 6.03599 53.9129 5.43599 54.5929 5.02266C55.2729 4.59599 55.9996 4.38266 56.7729 4.38266C58.0396 4.38266 59.0196 4.80266 59.7129 5.64266C60.4063 6.46932 60.7529 7.58932 60.7529 9.00266ZM58.9929 8.64266C58.9929 7.78932 58.8063 7.12932 58.4329 6.66266C58.0596 6.19599 57.5196 5.96266 56.8129 5.96266C56.1996 5.96266 55.6529 6.18932 55.1729 6.64266C54.6929 7.09599 54.3863 7.76266 54.2529 8.64266H58.9929Z" fill="#484848"/>
<path d="M68.0159 1.30266H71.4159C73.4426 1.30266 74.9959 1.85599 76.0759 2.96266C77.1692 4.06932 77.7159 5.68266 77.7159 7.80266C77.7159 9.92266 77.1759 11.556 76.0959 12.7027C75.0159 13.836 73.4892 14.4027 71.5159 14.4027H68.0159V1.30266ZM71.2759 12.7427C72.6893 12.7427 73.7626 12.3293 74.4959 11.5027C75.2426 10.6627 75.6159 9.42932 75.6159 7.80266C75.6159 6.18932 75.2492 4.98266 74.5159 4.18266C73.7826 3.36932 72.7026 2.96266 71.2759 2.96266H70.0559V12.7427H71.2759Z" fill="#484848"/>
<path d="M80.6578 4.62266H82.3178L82.4778 6.38266H82.5378C82.8844 5.75599 83.2978 5.26932 83.7778 4.92266C84.2711 4.56266 84.7844 4.38266 85.3178 4.38266C85.7578 4.38266 86.1178 4.44932 86.3978 4.58266L86.0378 6.34266C85.6778 6.23599 85.3511 6.18266 85.0578 6.18266C84.6178 6.18266 84.1844 6.35599 83.7578 6.70266C83.3311 7.03599 82.9711 7.56932 82.6778 8.30266V14.4027H80.6578V4.62266Z" fill="#484848"/>
<path d="M88.3039 4.62266H90.3239V14.4027H88.3039V4.62266ZM89.3239 2.78266C88.9639 2.78266 88.6639 2.66932 88.4239 2.44266C88.1972 2.21599 88.0839 1.92266 88.0839 1.56266C88.0839 1.21599 88.1972 0.929323 88.4239 0.702656C88.6639 0.47599 88.9639 0.362657 89.3239 0.362657C89.6839 0.362657 89.9772 0.47599 90.2039 0.702656C90.4439 0.929323 90.5639 1.21599 90.5639 1.56266C90.5639 1.92266 90.4439 2.21599 90.2039 2.44266C89.9772 2.66932 89.6839 2.78266 89.3239 2.78266Z" fill="#484848"/>
<path d="M92.5015 4.62266H94.5615L96.2415 9.90266L97.1015 12.8227H97.1815L98.0415 9.90266L99.7215 4.62266H101.682L98.3015 14.4027H95.9615L92.5015 4.62266Z" fill="#484848"/>
<path d="M111.532 9.00266C111.532 9.37599 111.505 9.72266 111.452 10.0427H104.992C105.085 11.0293 105.419 11.7827 105.992 12.3027C106.579 12.8093 107.285 13.0627 108.112 13.0627C108.899 13.0627 109.679 12.816 110.452 12.3227L111.152 13.6027C110.112 14.296 109.012 14.6427 107.852 14.6427C106.959 14.6427 106.152 14.436 105.432 14.0227C104.712 13.6093 104.139 13.016 103.712 12.2427C103.299 11.4693 103.092 10.5627 103.092 9.52266C103.092 8.49599 103.299 7.59599 103.712 6.82266C104.139 6.03599 104.692 5.43599 105.372 5.02266C106.052 4.59599 106.779 4.38266 107.552 4.38266C108.819 4.38266 109.799 4.80266 110.492 5.64266C111.185 6.46932 111.532 7.58932 111.532 9.00266ZM109.772 8.64266C109.772 7.78932 109.585 7.12932 109.212 6.66266C108.839 6.19599 108.299 5.96266 107.592 5.96266C106.979 5.96266 106.432 6.18932 105.952 6.64266C105.472 7.09599 105.165 7.76266 105.032 8.64266H109.772Z" fill="#484848"/>
<rect opacity="0.5" x="134.355" y="2.95605" width="237.556" height="11.5498" rx="5.77492" fill="#81D3C8"/>
<rect x="134.355" y="2.95605" width="218.551" height="11.5498" rx="5.77492" fill="#18A2A2"/>
<path d="M388.878 0.846132C389.731 0.846132 390.498 1.07947 391.178 1.54613C391.871 1.99947 392.411 2.6928 392.798 3.62613C393.198 4.54613 393.398 5.67947 393.398 7.02613C393.398 8.62613 393.171 9.9528 392.718 11.0061C392.278 12.0595 391.685 12.8328 390.938 13.3261C390.191 13.8195 389.365 14.0661 388.458 14.0661C387.165 14.0661 386.078 13.5995 385.198 12.6661L386.298 11.4261C386.551 11.7195 386.858 11.9595 387.218 12.1461C387.591 12.3195 387.971 12.4061 388.358 12.4061C389.278 12.4061 390.025 12.0128 390.598 11.2261C391.171 10.4261 391.478 9.14613 391.518 7.38613C391.145 7.86613 390.698 8.24613 390.178 8.52613C389.658 8.7928 389.151 8.92613 388.658 8.92613C387.525 8.92613 386.625 8.5928 385.958 7.92613C385.305 7.24613 384.978 6.26613 384.978 4.98613C384.978 4.1728 385.151 3.4528 385.498 2.82613C385.858 2.19947 386.331 1.7128 386.918 1.36613C387.518 1.01947 388.171 0.846132 388.878 0.846132ZM389.018 7.44613C389.431 7.44613 389.851 7.31947 390.278 7.06613C390.705 6.79947 391.098 6.39947 391.458 5.86613C391.351 4.71947 391.078 3.85947 390.638 3.28613C390.198 2.69947 389.618 2.40613 388.898 2.40613C388.311 2.40613 387.825 2.63947 387.438 3.10613C387.051 3.5728 386.858 4.19947 386.858 4.98613C386.858 5.7728 387.045 6.37947 387.418 6.80613C387.791 7.2328 388.325 7.44613 389.018 7.44613Z" fill="#484848"/>
<path d="M395.915 12.6461C397.368 11.2195 398.482 10.0861 399.255 9.24613C400.042 8.3928 400.655 7.59947 401.095 6.86613C401.548 6.11947 401.775 5.42613 401.775 4.78613C401.775 4.06613 401.582 3.49947 401.195 3.08613C400.808 2.6728 400.255 2.46613 399.535 2.46613C398.668 2.46613 397.808 2.9528 396.955 3.92613L395.815 2.80613C396.415 2.1528 397.022 1.66613 397.635 1.34613C398.262 1.0128 398.982 0.846132 399.795 0.846132C400.995 0.846132 401.948 1.19947 402.655 1.90613C403.375 2.59947 403.735 3.52613 403.735 4.68613C403.735 5.41947 403.528 6.1728 403.115 6.94613C402.715 7.71947 402.182 8.49947 401.515 9.28613C400.862 10.0595 399.975 11.0395 398.855 12.2261C399.762 12.1461 400.475 12.1061 400.995 12.1061H404.355V13.8261H395.915V12.6461Z" fill="#484848"/>
<path d="M409.752 8.56613C408.832 8.56613 408.092 8.19947 407.532 7.46613C406.972 6.7328 406.692 5.7128 406.692 4.40613C406.692 3.1128 406.972 2.10613 407.532 1.38613C408.092 0.6528 408.832 0.286133 409.752 0.286133C410.672 0.286133 411.412 0.6528 411.972 1.38613C412.532 2.10613 412.812 3.1128 412.812 4.40613C412.812 5.7128 412.532 6.7328 411.972 7.46613C411.412 8.19947 410.672 8.56613 409.752 8.56613ZM417.272 0.486133H418.552L411.372 14.0661H410.092L417.272 0.486133ZM409.752 7.36613C410.232 7.36613 410.612 7.11947 410.892 6.62613C411.186 6.11947 411.332 5.37947 411.332 4.40613C411.332 3.4328 411.186 2.70613 410.892 2.22613C410.612 1.7328 410.232 1.48613 409.752 1.48613C409.272 1.48613 408.886 1.7328 408.592 2.22613C408.312 2.70613 408.172 3.4328 408.172 4.40613C408.172 5.37947 408.312 6.11947 408.592 6.62613C408.886 7.11947 409.272 7.36613 409.752 7.36613ZM418.932 14.0661C418.012 14.0661 417.272 13.6995 416.712 12.9661C416.152 12.2328 415.872 11.2128 415.872 9.90613C415.872 8.6128 416.152 7.60613 416.712 6.88613C417.272 6.1528 418.012 5.78613 418.932 5.78613C419.852 5.78613 420.592 6.1528 421.152 6.88613C421.712 7.60613 421.992 8.6128 421.992 9.90613C421.992 11.2128 421.712 12.2328 421.152 12.9661C420.592 13.6995 419.852 14.0661 418.932 14.0661ZM418.932 12.8661C419.412 12.8661 419.792 12.6195 420.072 12.1261C420.366 11.6195 420.512 10.8795 420.512 9.90613C420.512 8.9328 420.366 8.20613 420.072 7.72613C419.792 7.2328 419.412 6.98613 418.932 6.98613C418.452 6.98613 418.066 7.2328 417.772 7.72613C417.492 8.20613 417.352 8.9328 417.352 9.90613C417.352 10.8795 417.492 11.6195 417.772 12.1261C418.066 12.6195 418.452 12.8661 418.932 12.8661Z" fill="#484848"/>
</svg>
