<svg width="41" height="45" viewBox="0 0 41 45" fill="none" xmlns="http://www.w3.org/2000/svg">
<path opacity="0.5" d="M40.8564 4.29944C40.8564 2.37884 39.2993 0.822266 37.3787 0.822266L13.7189 0.824337C11.7983 0.824337 10.2413 2.38143 10.2418 4.30203L10.2423 9.63404H12.4705V6.62601C12.4705 6.01187 12.9681 5.51425 13.5822 5.51425H37.5201C38.1342 5.51425 38.6319 6.01187 38.6319 6.62601V37.4985C38.6319 38.1127 38.1342 38.6103 37.5201 38.6103H21.3682V40.3466C21.3682 41.7773 20.78 43.077 19.8339 44.0164L37.3834 44.0148C39.304 44.0148 40.8611 42.4577 40.8606 40.5371L40.8564 4.29944ZM25.5512 42.7757C24.6843 42.7757 23.9817 42.073 23.9817 41.2061C23.9817 40.3393 24.6843 39.6366 25.5512 39.6366C26.418 39.6366 27.1207 40.3393 27.1207 41.2061C27.1207 42.073 26.418 42.7757 25.5512 42.7757ZM15.9818 11.5013H4.04501C2.12182 11.5013 0.548157 13.075 0.548157 14.9981V40.5097C0.548157 42.4329 2.12182 44.0065 4.04501 44.0065H15.9818C17.905 44.0065 19.4787 42.4329 19.4787 40.5097C19.4787 38.5865 19.4787 14.9976 19.4787 14.9976C19.4787 13.0744 17.905 11.5013 15.9818 11.5013ZM10.0134 43.2826C9.11603 43.2826 8.38798 42.5551 8.38798 41.6572C8.38798 40.7593 9.11551 40.0317 10.0134 40.0317C10.9108 40.0317 11.6389 40.7593 11.6389 41.6572C11.6389 42.5551 10.9108 43.2826 10.0134 43.2826ZM17.6233 38.3493C17.6233 38.8433 17.2194 39.2472 16.7254 39.2472H3.30141C2.80741 39.2472 2.40351 38.8433 2.40351 38.3493V17.158C2.40351 16.664 2.80741 16.2601 3.30141 16.2601H16.7254C17.2194 16.2601 17.6233 16.664 17.6233 17.158V38.3493Z" fill="#18A2A2"/>
</svg>
