<svg width="28" height="45" viewBox="0 0 28 45" fill="none" xmlns="http://www.w3.org/2000/svg">
<path opacity="0.5" fill-rule="evenodd" clip-rule="evenodd" d="M26.5711 19.7148C27.3682 18.0217 27.8127 16.1376 27.8127 14.152C27.8127 6.79019 21.7023 0.822266 14.1646 0.822266C6.627 0.822266 0.516541 6.79019 0.516541 14.152C0.516541 16.4975 1.13682 18.7016 2.2259 20.6162C2.28505 20.7292 2.34634 20.8505 2.41137 20.9792C2.71775 21.5854 3.10725 22.3562 3.74811 23.2052C4.83387 24.6436 6.71213 27.5885 7.26804 28.8759C7.82395 30.1633 7.9391 31.0226 7.9391 31.0226L8.02707 31.0232V38.0527C8.02707 39.7095 9.37021 41.0527 11.0271 41.0527H17.2413C18.8982 41.0527 20.2413 39.7095 20.2413 38.0527V37.664C20.2363 37.9358 20.0144 38.1546 19.7414 38.1546H8.52715C8.25101 38.1546 8.02715 37.9307 8.02715 37.6546V36.0182C8.02715 35.7421 8.25101 35.5182 8.52715 35.5182H19.7414C20.0144 35.5182 20.2363 35.737 20.2413 36.0088V32.9921C20.2363 33.2639 20.0144 33.4827 19.7414 33.4827H8.52715C8.25101 33.4827 8.02715 33.2588 8.02715 32.9827V31.6435C8.02715 31.3673 8.25101 31.1435 8.52715 31.1435H19.7414C20.0144 31.1435 20.2363 31.3623 20.2413 31.6341V31.1088L20.3384 31.1094C20.3384 31.1094 20.4007 30.1369 21.0345 28.6654C21.6682 27.1939 23.884 23.9795 25.1016 22.2325C25.1767 22.1248 25.2496 22.0156 25.3204 21.9058C25.8468 21.2495 26.2715 20.5116 26.5711 19.7148ZM11.8772 42.3902C11.8772 42.9676 12.112 43.5214 12.5301 43.9297C12.9481 44.338 13.5151 44.5674 14.1064 44.5674C14.6976 44.5674 15.2646 44.338 15.6826 43.9297C16.1007 43.5214 16.3355 42.9676 16.3355 42.3902H14.1064H11.8772ZM3.88334 16.6295C3.96299 17.161 4.49237 17.4833 5.01514 17.3585C5.53791 17.2337 5.85518 16.7088 5.78494 16.176C5.66277 15.249 5.67907 14.3072 5.83491 13.3817C6.04473 12.1355 6.5032 10.9444 7.183 9.87914C7.8628 8.81391 8.75003 7.89639 9.79185 7.18122C10.5657 6.65004 11.413 6.23856 12.3051 5.95894C12.818 5.7982 13.1604 5.28937 13.0535 4.76266C12.9465 4.23594 12.4311 3.8916 11.9155 4.04323C10.7683 4.3806 9.67953 4.89753 8.69033 5.57657C7.43319 6.43955 6.36259 7.5467 5.54229 8.83209C4.72199 10.1175 4.16877 11.5548 3.91559 13.0585C3.71637 14.2417 3.70612 15.4469 3.88334 16.6295Z" fill="#18A2A2"/>
</svg>
