<svg width="29" height="46" viewBox="0 0 29 46" fill="none" xmlns="http://www.w3.org/2000/svg">
<path opacity="0.5" fill-rule="evenodd" clip-rule="evenodd" d="M27.1526 19.6381C27.9727 17.8964 28.43 15.958 28.43 13.9152C28.43 6.34225 22.1443 0.203125 14.3904 0.203125C6.63658 0.203125 0.35083 6.34225 0.35083 13.9152C0.35083 16.328 0.988867 18.5952 2.10914 20.5647C2.16994 20.6809 2.23294 20.8055 2.29978 20.9378L2.29985 20.9379L2.29998 20.9382C2.61516 21.5619 3.01583 22.3547 3.67508 23.2281C4.79198 24.7077 6.72412 27.7372 7.29598 29.0615C7.86784 30.3858 7.98628 31.2697 7.98628 31.2697L8.07678 31.2704V37.9752C8.07678 39.6321 9.41992 40.9752 11.0768 40.9752H17.291C18.9479 40.9752 20.291 39.632 20.291 37.9752V37.5865C20.286 37.8583 20.0641 38.0771 19.7911 38.0771H8.57686C8.30072 38.0771 8.07686 37.8532 8.07686 37.5771V35.9407C8.07686 35.6646 8.30072 35.4407 8.57686 35.4407H19.7911C20.0641 35.4407 20.286 35.6595 20.291 35.9313V33.2446C20.2852 33.5156 20.0636 33.7335 19.7912 33.7335H8.5769C8.30075 33.7335 8.0769 33.5097 8.0769 33.2335V31.8943C8.0769 31.6182 8.30075 31.3943 8.5769 31.3943H19.7912C20.0636 31.3943 20.2852 31.6122 20.291 31.8833V31.3559L20.7412 31.3591C20.7412 31.3591 20.8054 30.3586 21.4573 28.8449C22.1093 27.3312 24.3886 24.0246 25.6411 22.2275C25.7184 22.1166 25.7935 22.0042 25.8664 21.8911C26.4077 21.2162 26.8444 20.4575 27.1526 19.6381ZM12.0373 42.9635C12.0373 43.5575 12.2789 44.1271 12.709 44.5471C13.139 44.9672 13.7223 45.2031 14.3305 45.2031C14.9386 45.2031 15.5219 44.9672 15.9519 44.5471C16.382 44.1271 16.6236 43.5575 16.6236 42.9635H14.3305H12.0373ZM3.81439 16.4648C3.89629 17.011 4.44132 17.342 4.9785 17.2137C5.51568 17.0854 5.84276 16.5458 5.77053 15.9983C5.64469 15.0444 5.66142 14.0752 5.82179 13.1228C6.03763 11.8409 6.50925 10.6156 7.20855 9.51977C7.90785 8.42398 8.82054 7.48013 9.89224 6.74445C10.6885 6.19782 11.5605 5.77443 12.4787 5.48679C13.0057 5.32167 13.3573 4.79774 13.2474 4.25651C13.1375 3.71527 12.6077 3.36037 12.0779 3.51614C10.8974 3.86318 9.777 4.39504 8.75912 5.09377C7.46592 5.9815 6.3646 7.12041 5.52077 8.44268C4.67694 9.76494 4.10786 11.2435 3.84741 12.7903C3.64241 14.0078 3.63193 15.248 3.81439 16.4648Z" fill="#18A2A2"/>
</svg>
