<svg xmlns="http://www.w3.org/2000/svg" id="Layer_1" viewBox="0 0 100 100">
  <style>
    .st2{fill:#fff}
  </style>
  <g id="surface1">
    <path fill="#ffc107" d="M9 99.3h62l27-27v-62c0-4.6-3.5-8.1-8.1-8.1H9C4.4 2.2.9 5.7.9 10.3v80.9c0 4.6 3.5 8.1 8.1 8.1z"/>
    <path fill="#ffecb3" d="M71 99.3v-27h27l-27 27z"/>
    <path d="M60.3 83.1H38.7V61.8c-8.4-4-13.5-12.4-13.5-21.8 0-13.5 10.8-24.3 24.3-24.3S73.7 26.5 73.7 40c0 9.4-5.1 17.5-13.5 21.8v21.3zm-16.2-5.4h10.8V58l1.6-.8c7.3-3 11.9-9.7 11.9-17.5 0-10.5-8.4-18.9-18.9-18.9s-18.9 8.4-18.9 18.9c0 7.8 4.6 14.6 11.9 17.5l1.6.8v19.7z" class="st2"/>
    <path d="M44.1 80.4h10.8v8.1H44.1v-8.1zM41.4 66.9h16.2v5.4H41.4z" class="st2"/>
  </g>
</svg>
