<svg width="381" height="253" viewBox="0 0 381 253" fill="none" xmlns="http://www.w3.org/2000/svg">
<circle opacity="0.5" cx="126.5" cy="192.5" r="60" fill="#81D3C8"/>
<circle opacity="0.5" cx="72.129" cy="72.1641" r="72" fill="#81D3C8"/>
<path d="M98.8656 218.454C98.1063 218.454 97.3809 218.313 96.6896 218.029C96.0096 217.735 95.4146 217.327 94.9046 216.805L95.9246 215.615C96.3326 216.023 96.7973 216.346 97.3186 216.584C97.8399 216.822 98.3669 216.941 98.8996 216.941C99.5569 216.941 100.073 216.8 100.447 216.516C100.821 216.222 101.008 215.831 101.008 215.343C101.008 215.026 100.934 214.765 100.787 214.561C100.651 214.346 100.464 214.17 100.226 214.034C99.9989 213.898 99.6646 213.74 99.2226 213.558L97.6756 212.878C96.1683 212.255 95.4146 211.286 95.4146 209.971C95.4146 209.393 95.5676 208.872 95.8736 208.407C96.1909 207.943 96.6273 207.58 97.1826 207.319C97.7379 207.047 98.3613 206.911 99.0526 206.911C99.6986 206.911 100.316 207.036 100.906 207.285C101.495 207.535 101.999 207.875 102.419 208.305L101.518 209.41C100.77 208.753 99.9479 208.424 99.0526 208.424C98.4746 208.424 98.0156 208.555 97.6756 208.815C97.3356 209.076 97.1656 209.427 97.1656 209.869C97.1656 210.164 97.2449 210.413 97.4036 210.617C97.5736 210.821 97.7719 210.986 97.9986 211.11C98.2366 211.235 98.5596 211.382 98.9676 211.552L100.515 212.215C101.24 212.51 101.795 212.895 102.181 213.371C102.577 213.836 102.776 214.448 102.776 215.207C102.776 215.808 102.617 216.358 102.3 216.856C101.982 217.344 101.529 217.735 100.94 218.029C100.35 218.313 99.6589 218.454 98.8656 218.454Z" fill="#484848"/>
<path d="M107.241 218.454C105.563 218.454 104.725 217.485 104.725 215.547V211.314H103.518V210.022L104.81 209.937L105.014 207.642H106.442V209.937H108.618V211.314H106.442V215.547C106.442 216.057 106.538 216.443 106.731 216.703C106.923 216.953 107.235 217.077 107.666 217.077C107.926 217.077 108.227 217.009 108.567 216.873L108.873 218.148C108.261 218.352 107.717 218.454 107.241 218.454Z" fill="#484848"/>
<path d="M113.031 218.454C111.331 218.454 110.481 217.361 110.481 215.173V209.937H112.198V214.952C112.198 215.666 112.305 216.182 112.521 216.499C112.747 216.817 113.11 216.975 113.609 216.975C113.994 216.975 114.334 216.879 114.629 216.686C114.923 216.494 115.252 216.171 115.615 215.717V209.937H117.332V218.25H115.921L115.785 216.992H115.734C115.326 217.468 114.906 217.831 114.476 218.08C114.056 218.33 113.575 218.454 113.031 218.454Z" fill="#484848"/>
<path d="M122.989 218.454C121.946 218.454 121.113 218.069 120.49 217.298C119.878 216.528 119.572 215.462 119.572 214.102C119.572 213.23 119.736 212.465 120.065 211.807C120.394 211.139 120.83 210.629 121.374 210.277C121.918 209.915 122.502 209.733 123.125 209.733C123.567 209.733 123.958 209.813 124.298 209.971C124.638 210.119 124.995 210.351 125.369 210.668L125.301 209.291V206.197H127.018V218.25H125.607L125.471 217.315H125.42C125.08 217.655 124.7 217.933 124.281 218.148C123.862 218.352 123.431 218.454 122.989 218.454ZM123.397 217.026C123.748 217.026 124.077 216.947 124.383 216.788C124.689 216.618 124.995 216.358 125.301 216.006V211.926C124.734 211.416 124.122 211.161 123.465 211.161C123.068 211.161 122.706 211.28 122.377 211.518C122.06 211.756 121.805 212.096 121.612 212.538C121.431 212.98 121.34 213.496 121.34 214.085C121.34 215.026 121.516 215.751 121.867 216.261C122.23 216.771 122.74 217.026 123.397 217.026Z" fill="#484848"/>
<path d="M136.395 213.66C136.395 213.978 136.372 214.272 136.327 214.544H130.836C130.915 215.383 131.198 216.023 131.686 216.465C132.184 216.896 132.785 217.111 133.488 217.111C134.156 217.111 134.819 216.902 135.477 216.482L136.072 217.57C135.188 218.16 134.253 218.454 133.267 218.454C132.507 218.454 131.822 218.279 131.21 217.927C130.598 217.576 130.11 217.072 129.748 216.414C129.396 215.757 129.221 214.986 129.221 214.102C129.221 213.23 129.396 212.465 129.748 211.807C130.11 211.139 130.581 210.629 131.159 210.277C131.737 209.915 132.354 209.733 133.012 209.733C134.088 209.733 134.921 210.09 135.511 210.804C136.1 211.507 136.395 212.459 136.395 213.66ZM134.899 213.354C134.899 212.629 134.74 212.068 134.423 211.671C134.105 211.275 133.646 211.076 133.046 211.076C132.524 211.076 132.06 211.269 131.652 211.654C131.244 212.04 130.983 212.606 130.87 213.354H134.899Z" fill="#484848"/>
<path d="M138.502 209.937H139.913L140.049 211.093H140.1C140.542 210.663 140.978 210.328 141.409 210.09C141.851 209.852 142.332 209.733 142.854 209.733C144.554 209.733 145.404 210.827 145.404 213.014V218.25H143.687V213.235C143.687 212.521 143.573 212.006 143.347 211.688C143.131 211.371 142.774 211.212 142.276 211.212C141.902 211.212 141.567 211.303 141.273 211.484C140.978 211.654 140.627 211.943 140.219 212.351V218.25H138.502V209.937Z" fill="#484848"/>
<path d="M150.873 218.454C149.196 218.454 148.357 217.485 148.357 215.547V211.314H147.15V210.022L148.442 209.937L148.646 207.642H150.074V209.937H152.25V211.314H150.074V215.547C150.074 216.057 150.17 216.443 150.363 216.703C150.556 216.953 150.867 217.077 151.298 217.077C151.559 217.077 151.859 217.009 152.199 216.873L152.505 218.148C151.893 218.352 151.349 218.454 150.873 218.454Z" fill="#484848"/>
<circle opacity="0.5" cx="201.441" cy="98.8262" r="60" fill="#81D3C8"/>
<path d="M160.181 89.9433H161.915V101.078H160.181V89.9433Z" fill="#484848"/>
<path d="M167.294 91.4053H164.013V89.9433H172.309V91.4053H169.028V101.078H167.294V91.4053Z" fill="#484848"/>
<path d="M186.439 101.282C185.612 101.078 184.733 100.665 183.804 100.041C182.863 100.869 181.764 101.282 180.506 101.282C179.815 101.282 179.203 101.146 178.67 100.874C178.149 100.602 177.741 100.234 177.446 99.7693C177.163 99.2933 177.021 98.7606 177.021 98.1713C177.021 97.4799 177.208 96.8906 177.582 96.4033C177.967 95.9046 178.494 95.4286 179.163 94.9753C178.687 94.0459 178.449 93.2073 178.449 92.4593C178.449 91.9606 178.562 91.5016 178.789 91.0823C179.016 90.6629 179.333 90.3343 179.741 90.0963C180.149 89.8583 180.619 89.7393 181.152 89.7393C181.877 89.7393 182.45 89.9489 182.869 90.3683C183.288 90.7876 183.498 91.3429 183.498 92.0343C183.498 92.6916 183.283 93.2583 182.852 93.7343C182.433 94.2103 181.826 94.7316 181.033 95.2983C181.792 96.3523 182.682 97.2816 183.702 98.0863C184.371 97.2023 184.864 96.1709 185.181 94.9923H186.762C186.309 96.5223 185.668 97.8256 184.841 98.9023C185.623 99.4009 186.303 99.7239 186.881 99.8713L186.439 101.282ZM179.911 92.4423C179.911 92.9749 180.07 93.5586 180.387 94.1933C180.954 93.8306 181.384 93.4906 181.679 93.1733C181.985 92.8446 182.138 92.4706 182.138 92.0513C182.138 91.7226 182.059 91.4563 181.9 91.2523C181.741 91.0369 181.498 90.9293 181.169 90.9293C180.795 90.9293 180.489 91.0709 180.251 91.3543C180.024 91.6376 179.911 92.0003 179.911 92.4423ZM178.67 98.0693C178.67 98.6246 178.863 99.0779 179.248 99.4293C179.633 99.7693 180.121 99.9393 180.71 99.9393C181.345 99.9393 181.991 99.6843 182.648 99.1743C181.537 98.2223 180.614 97.2136 179.877 96.1483C179.492 96.4543 179.191 96.7603 178.976 97.0663C178.772 97.3723 178.67 97.7066 178.67 98.0693Z" fill="#484848"/>
<path d="M160.181 109.943H166.76V111.405H161.915V114.533H166.012V115.995H161.915V119.616H166.93V121.078H160.181V109.943Z" fill="#484848"/>
<path d="M169.262 112.765H170.673L170.809 113.921H170.86C171.302 113.491 171.739 113.156 172.169 112.918C172.611 112.68 173.093 112.561 173.614 112.561C175.314 112.561 176.164 113.655 176.164 115.842V121.078H174.447V116.063C174.447 115.349 174.334 114.834 174.107 114.516C173.892 114.199 173.535 114.04 173.036 114.04C172.662 114.04 172.328 114.131 172.033 114.312C171.739 114.482 171.387 114.771 170.979 115.179V121.078H169.262V112.765Z" fill="#484848"/>
<path d="M181.701 124.818C180.67 124.818 179.837 124.626 179.202 124.24C178.568 123.866 178.25 123.328 178.25 122.625C178.25 122.274 178.352 121.94 178.556 121.622C178.772 121.316 179.072 121.044 179.457 120.806V120.738C178.959 120.421 178.709 119.962 178.709 119.361C178.709 119.055 178.794 118.766 178.964 118.494C179.146 118.222 179.367 117.996 179.627 117.814V117.746C179.321 117.508 179.061 117.197 178.845 116.811C178.641 116.426 178.539 116.001 178.539 115.536C178.539 114.936 178.681 114.409 178.964 113.955C179.259 113.502 179.65 113.156 180.137 112.918C180.636 112.68 181.174 112.561 181.752 112.561C182.183 112.561 182.585 112.629 182.959 112.765H185.9V114.057H184.302C184.472 114.239 184.608 114.465 184.71 114.737C184.812 114.998 184.863 115.281 184.863 115.587C184.863 116.471 184.569 117.168 183.979 117.678C183.39 118.188 182.648 118.443 181.752 118.443C181.344 118.443 180.953 118.358 180.579 118.188C180.432 118.324 180.319 118.46 180.239 118.596C180.16 118.721 180.12 118.88 180.12 119.072C180.12 119.333 180.228 119.537 180.443 119.684C180.659 119.82 181.016 119.888 181.514 119.888H183.061C184.059 119.888 184.801 120.053 185.288 120.381C185.787 120.71 186.036 121.22 186.036 121.911C186.036 122.444 185.855 122.931 185.492 123.373C185.141 123.815 184.637 124.167 183.979 124.427C183.322 124.688 182.563 124.818 181.701 124.818ZM181.752 117.338C182.206 117.338 182.58 117.174 182.874 116.845C183.18 116.517 183.333 116.08 183.333 115.536C183.333 114.992 183.18 114.562 182.874 114.244C182.58 113.927 182.206 113.768 181.752 113.768C181.299 113.768 180.919 113.927 180.613 114.244C180.319 114.562 180.171 114.992 180.171 115.536C180.171 116.08 180.319 116.517 180.613 116.845C180.919 117.174 181.299 117.338 181.752 117.338ZM181.956 123.679C182.421 123.679 182.835 123.611 183.197 123.475C183.571 123.339 183.86 123.152 184.064 122.914C184.268 122.688 184.37 122.444 184.37 122.183C184.37 121.843 184.24 121.605 183.979 121.469C183.73 121.333 183.345 121.265 182.823 121.265H181.548C181.129 121.265 180.761 121.226 180.443 121.146C179.956 121.509 179.712 121.917 179.712 122.37C179.712 122.778 179.911 123.096 180.307 123.322C180.704 123.56 181.254 123.679 181.956 123.679Z" fill="#484848"/>
<path d="M187.731 112.765H189.448V121.078H187.731V112.765ZM188.598 111.201C188.292 111.201 188.037 111.105 187.833 110.912C187.64 110.72 187.544 110.47 187.544 110.164C187.544 109.87 187.64 109.626 187.833 109.433C188.037 109.241 188.292 109.144 188.598 109.144C188.904 109.144 189.153 109.241 189.346 109.433C189.55 109.626 189.652 109.87 189.652 110.164C189.652 110.47 189.55 110.72 189.346 110.912C189.153 111.105 188.904 111.201 188.598 111.201Z" fill="#484848"/>
<path d="M192.234 112.765H193.645L193.781 113.921H193.832C194.274 113.491 194.71 113.156 195.141 112.918C195.583 112.68 196.065 112.561 196.586 112.561C198.286 112.561 199.136 113.655 199.136 115.842V121.078H197.419V116.063C197.419 115.349 197.306 114.834 197.079 114.516C196.864 114.199 196.507 114.04 196.008 114.04C195.634 114.04 195.3 114.131 195.005 114.312C194.71 114.482 194.359 114.771 193.951 115.179V121.078H192.234V112.765Z" fill="#484848"/>
<path d="M208.413 116.488C208.413 116.806 208.391 117.1 208.345 117.372H202.854C202.934 118.211 203.217 118.851 203.704 119.293C204.203 119.724 204.804 119.939 205.506 119.939C206.175 119.939 206.838 119.73 207.495 119.31L208.09 120.398C207.206 120.988 206.271 121.282 205.285 121.282C204.526 121.282 203.84 121.107 203.228 120.755C202.616 120.404 202.129 119.9 201.766 119.242C201.415 118.585 201.239 117.814 201.239 116.93C201.239 116.058 201.415 115.293 201.766 114.635C202.129 113.967 202.599 113.457 203.177 113.105C203.755 112.743 204.373 112.561 205.03 112.561C206.107 112.561 206.94 112.918 207.529 113.632C208.119 114.335 208.413 115.287 208.413 116.488ZM206.917 116.182C206.917 115.457 206.759 114.896 206.441 114.499C206.124 114.103 205.665 113.904 205.064 113.904C204.543 113.904 204.078 114.097 203.67 114.482C203.262 114.868 203.002 115.434 202.888 116.182H206.917Z" fill="#484848"/>
<path d="M217.116 116.488C217.116 116.806 217.094 117.1 217.048 117.372H211.557C211.637 118.211 211.92 118.851 212.407 119.293C212.906 119.724 213.507 119.939 214.209 119.939C214.878 119.939 215.541 119.73 216.198 119.31L216.793 120.398C215.909 120.988 214.974 121.282 213.988 121.282C213.229 121.282 212.543 121.107 211.931 120.755C211.319 120.404 210.832 119.9 210.469 119.242C210.118 118.585 209.942 117.814 209.942 116.93C209.942 116.058 210.118 115.293 210.469 114.635C210.832 113.967 211.302 113.457 211.88 113.105C212.458 112.743 213.076 112.561 213.733 112.561C214.81 112.561 215.643 112.918 216.232 113.632C216.822 114.335 217.116 115.287 217.116 116.488ZM215.62 116.182C215.62 115.457 215.462 114.896 215.144 114.499C214.827 114.103 214.368 113.904 213.767 113.904C213.246 113.904 212.781 114.097 212.373 114.482C211.965 114.868 211.705 115.434 211.591 116.182H215.62Z" fill="#484848"/>
<path d="M219.224 112.765H220.635L220.771 114.261H220.822C221.116 113.729 221.468 113.315 221.876 113.02C222.295 112.714 222.731 112.561 223.185 112.561C223.559 112.561 223.865 112.618 224.103 112.731L223.797 114.227C223.491 114.137 223.213 114.091 222.964 114.091C222.59 114.091 222.221 114.239 221.859 114.533C221.496 114.817 221.19 115.27 220.941 115.893V121.078H219.224V112.765Z" fill="#484848"/>
<path d="M225.553 112.765H227.27V121.078H225.553V112.765ZM226.42 111.201C226.114 111.201 225.859 111.105 225.655 110.912C225.462 110.72 225.366 110.47 225.366 110.164C225.366 109.87 225.462 109.626 225.655 109.433C225.859 109.241 226.114 109.144 226.42 109.144C226.726 109.144 226.975 109.241 227.168 109.433C227.372 109.626 227.474 109.87 227.474 110.164C227.474 110.47 227.372 110.72 227.168 110.912C226.975 111.105 226.726 111.201 226.42 111.201Z" fill="#484848"/>
<path d="M230.056 112.765H231.467L231.603 113.921H231.654C232.096 113.491 232.532 113.156 232.963 112.918C233.405 112.68 233.886 112.561 234.408 112.561C236.108 112.561 236.958 113.655 236.958 115.842V121.078H235.241V116.063C235.241 115.349 235.127 114.834 234.901 114.516C234.685 114.199 234.328 114.04 233.83 114.04C233.456 114.04 233.121 114.131 232.827 114.312C232.532 114.482 232.181 114.771 231.773 115.179V121.078H230.056V112.765Z" fill="#484848"/>
<path d="M242.495 124.818C241.464 124.818 240.631 124.626 239.996 124.24C239.361 123.866 239.044 123.328 239.044 122.625C239.044 122.274 239.146 121.94 239.35 121.622C239.565 121.316 239.866 121.044 240.251 120.806V120.738C239.752 120.421 239.503 119.962 239.503 119.361C239.503 119.055 239.588 118.766 239.758 118.494C239.939 118.222 240.16 117.996 240.421 117.814V117.746C240.115 117.508 239.854 117.197 239.639 116.811C239.435 116.426 239.333 116.001 239.333 115.536C239.333 114.936 239.475 114.409 239.758 113.955C240.053 113.502 240.444 113.156 240.931 112.918C241.43 112.68 241.968 112.561 242.546 112.561C242.977 112.561 243.379 112.629 243.753 112.765H246.694V114.057H245.096C245.266 114.239 245.402 114.465 245.504 114.737C245.606 114.998 245.657 115.281 245.657 115.587C245.657 116.471 245.362 117.168 244.773 117.678C244.184 118.188 243.441 118.443 242.546 118.443C242.138 118.443 241.747 118.358 241.373 118.188C241.226 118.324 241.112 118.46 241.033 118.596C240.954 118.721 240.914 118.88 240.914 119.072C240.914 119.333 241.022 119.537 241.237 119.684C241.452 119.82 241.809 119.888 242.308 119.888H243.855C244.852 119.888 245.595 120.053 246.082 120.381C246.581 120.71 246.83 121.22 246.83 121.911C246.83 122.444 246.649 122.931 246.286 123.373C245.935 123.815 245.43 124.167 244.773 124.427C244.116 124.688 243.356 124.818 242.495 124.818ZM242.546 117.338C242.999 117.338 243.373 117.174 243.668 116.845C243.974 116.517 244.127 116.08 244.127 115.536C244.127 114.992 243.974 114.562 243.668 114.244C243.373 113.927 242.999 113.768 242.546 113.768C242.093 113.768 241.713 113.927 241.407 114.244C241.112 114.562 240.965 114.992 240.965 115.536C240.965 116.08 241.112 116.517 241.407 116.845C241.713 117.174 242.093 117.338 242.546 117.338ZM242.75 123.679C243.215 123.679 243.628 123.611 243.991 123.475C244.365 123.339 244.654 123.152 244.858 122.914C245.062 122.688 245.164 122.444 245.164 122.183C245.164 121.843 245.034 121.605 244.773 121.469C244.524 121.333 244.138 121.265 243.617 121.265H242.342C241.923 121.265 241.554 121.226 241.237 121.146C240.75 121.509 240.506 121.917 240.506 122.37C240.506 122.778 240.704 123.096 241.101 123.322C241.498 123.56 242.047 123.679 242.75 123.679Z" fill="#484848"/>
<circle opacity="0.5" cx="222.504" cy="192.494" r="36" fill="#81D3C8"/>
<path d="M21.6488 62.9466C20.7081 62.9466 19.8638 62.7199 19.1158 62.2666C18.3678 61.8133 17.7784 61.1559 17.3478 60.2946C16.9171 59.4219 16.7018 58.3906 16.7018 57.2006C16.7018 56.0219 16.9228 54.9963 17.3648 54.1236C17.8068 53.2509 18.4074 52.5823 19.1668 52.1176C19.9374 51.6416 20.7931 51.4036 21.7338 51.4036C22.3798 51.4036 22.9691 51.5339 23.5018 51.7946C24.0458 52.0553 24.5048 52.3896 24.8788 52.7976L23.9438 53.9196C23.2978 53.2509 22.5724 52.9166 21.7678 52.9166C21.1218 52.9166 20.5494 53.0923 20.0508 53.4436C19.5634 53.7836 19.1781 54.2709 18.8948 54.9056C18.6228 55.5403 18.4868 56.2883 18.4868 57.1496C18.4868 58.4756 18.7758 59.5239 19.3538 60.2946C19.9431 61.0539 20.7308 61.4336 21.7168 61.4336C22.6461 61.4336 23.4678 61.0369 24.1818 60.2436L25.1168 61.3316C24.1988 62.4083 23.0428 62.9466 21.6488 62.9466Z" fill="#484848"/>
<path d="M30.4245 62.9466C29.7332 62.9466 29.0872 62.7709 28.4865 62.4196C27.8858 62.0683 27.4042 61.5639 27.0415 60.9066C26.6902 60.2493 26.5145 59.4786 26.5145 58.5946C26.5145 57.6993 26.6902 56.9229 27.0415 56.2656C27.4042 55.6083 27.8802 55.1039 28.4695 54.7526C29.0702 54.4013 29.7218 54.2256 30.4245 54.2256C31.1272 54.2256 31.7732 54.4013 32.3625 54.7526C32.9632 55.1039 33.4392 55.6083 33.7905 56.2656C34.1532 56.9229 34.3345 57.6993 34.3345 58.5946C34.3345 59.4786 34.1532 60.2493 33.7905 60.9066C33.4392 61.5639 32.9632 62.0683 32.3625 62.4196C31.7618 62.7709 31.1158 62.9466 30.4245 62.9466ZM30.4245 61.5356C31.0818 61.5356 31.6032 61.2693 31.9885 60.7366C32.3738 60.1926 32.5665 59.4786 32.5665 58.5946C32.5665 57.7106 32.3682 56.9966 31.9715 56.4526C31.5862 55.9086 31.0705 55.6366 30.4245 55.6366C29.7785 55.6366 29.2572 55.9086 28.8605 56.4526C28.4752 56.9966 28.2825 57.7106 28.2825 58.5946C28.2825 59.4786 28.4752 60.1926 28.8605 60.7366C29.2458 61.2693 29.7672 61.5356 30.4245 61.5356Z" fill="#484848"/>
<path d="M36.5428 54.4296H37.9538L38.0898 55.5856H38.1408C38.5488 55.1663 38.9568 54.8376 39.3648 54.5996C39.7841 54.3503 40.2318 54.2256 40.7078 54.2256C41.8524 54.2256 42.6174 54.7356 43.0028 55.7556C43.4674 55.2569 43.9094 54.8773 44.3288 54.6166C44.7594 54.3559 45.2184 54.2256 45.7058 54.2256C46.5558 54.2256 47.1904 54.5089 47.6098 55.0756C48.0404 55.6309 48.2558 56.4413 48.2558 57.5066V62.7426H46.5388V57.7276C46.5388 57.0136 46.4254 56.4979 46.1988 56.1806C45.9834 55.8633 45.6321 55.7046 45.1448 55.7046C44.5781 55.7046 43.9491 56.0843 43.2578 56.8436V62.7426H41.5408V57.7276C41.5408 57.0136 41.4274 56.4979 41.2008 56.1806C40.9854 55.8633 40.6341 55.7046 40.1468 55.7046C39.5801 55.7046 38.9511 56.0843 38.2598 56.8436V62.7426H36.5428V54.4296Z" fill="#484848"/>
<path d="M50.9403 54.4296H52.3513L52.4873 55.5856H52.5383C52.9463 55.1663 53.3543 54.8376 53.7623 54.5996C54.1816 54.3503 54.6293 54.2256 55.1053 54.2256C56.25 54.2256 57.015 54.7356 57.4003 55.7556C57.865 55.2569 58.307 54.8773 58.7263 54.6166C59.157 54.3559 59.616 54.2256 60.1033 54.2256C60.9533 54.2256 61.588 54.5089 62.0073 55.0756C62.438 55.6309 62.6533 56.4413 62.6533 57.5066V62.7426H60.9363V57.7276C60.9363 57.0136 60.823 56.4979 60.5963 56.1806C60.381 55.8633 60.0296 55.7046 59.5423 55.7046C58.9756 55.7046 58.3466 56.0843 57.6553 56.8436V62.7426H55.9383V57.7276C55.9383 57.0136 55.825 56.4979 55.5983 56.1806C55.383 55.8633 55.0316 55.7046 54.5443 55.7046C53.9776 55.7046 53.3486 56.0843 52.6573 56.8436V62.7426H50.9403V54.4296Z" fill="#484848"/>
<path d="M67.7859 62.9466C66.0859 62.9466 65.2359 61.8529 65.2359 59.6656V54.4296H66.9529V59.4446C66.9529 60.1586 67.0605 60.6743 67.2759 60.9916C67.5025 61.3089 67.8652 61.4676 68.3639 61.4676C68.7492 61.4676 69.0892 61.3713 69.3839 61.1786C69.6785 60.9859 70.0072 60.6629 70.3699 60.2096V54.4296H72.0869V62.7426H70.6759L70.5399 61.4846H70.4889C70.0809 61.9606 69.6615 62.3233 69.2309 62.5726C68.8115 62.8219 68.3299 62.9466 67.7859 62.9466Z" fill="#484848"/>
<path d="M74.8711 54.4296H76.2821L76.4181 55.5856H76.4691C76.9111 55.1549 77.3475 54.8206 77.7781 54.5826C78.2201 54.3446 78.7018 54.2256 79.2231 54.2256C80.9231 54.2256 81.7731 55.3193 81.7731 57.5066V62.7426H80.0561V57.7276C80.0561 57.0136 79.9428 56.4979 79.7161 56.1806C79.5008 55.8633 79.1438 55.7046 78.6451 55.7046C78.2711 55.7046 77.9368 55.7953 77.6421 55.9766C77.3475 56.1466 76.9961 56.4356 76.5881 56.8436V62.7426H74.8711V54.4296Z" fill="#484848"/>
<path d="M84.4542 54.4296H86.1712V62.7426H84.4542V54.4296ZM85.3212 52.8656C85.0152 52.8656 84.7602 52.7693 84.5562 52.5766C84.3636 52.3839 84.2672 52.1346 84.2672 51.8286C84.2672 51.5339 84.3636 51.2903 84.5562 51.0976C84.7602 50.9049 85.0152 50.8086 85.3212 50.8086C85.6272 50.8086 85.8766 50.9049 86.0692 51.0976C86.2732 51.2903 86.3752 51.5339 86.3752 51.8286C86.3752 52.1346 86.2732 52.3839 86.0692 52.5766C85.8766 52.7693 85.6272 52.8656 85.3212 52.8656Z" fill="#484848"/>
<path d="M92.3402 62.9466C91.5922 62.9466 90.9179 62.7766 90.3172 62.4366C89.7166 62.0853 89.2406 61.5809 88.8892 60.9236C88.5492 60.2663 88.3792 59.4899 88.3792 58.5946C88.3792 57.6993 88.5662 56.9229 88.9402 56.2656C89.3142 55.6083 89.8129 55.1039 90.4362 54.7526C91.0596 54.4013 91.7396 54.2256 92.4762 54.2256C93.3829 54.2256 94.1932 54.5429 94.9072 55.1776L94.0572 56.2996C93.8079 56.0843 93.5642 55.9199 93.3262 55.8066C93.0882 55.6933 92.8332 55.6366 92.5612 55.6366C91.8472 55.6366 91.2636 55.9086 90.8102 56.4526C90.3682 56.9966 90.1472 57.7106 90.1472 58.5946C90.1472 59.4786 90.3626 60.1926 90.7932 60.7366C91.2352 61.2693 91.8076 61.5356 92.5102 61.5356C93.1336 61.5356 93.7399 61.2806 94.3292 60.7706L95.0432 61.9096C94.6692 62.2496 94.2442 62.5103 93.7682 62.6916C93.3036 62.8616 92.8276 62.9466 92.3402 62.9466Z" fill="#484848"/>
<path d="M98.7359 62.9466C98.0106 62.9466 97.4213 62.7313 96.9679 62.3006C96.5146 61.8586 96.2879 61.2693 96.2879 60.5326C96.2879 59.6373 96.6846 58.9516 97.478 58.4756C98.2713 57.9883 99.535 57.6483 101.269 57.4556C101.246 56.2316 100.714 55.6196 99.671 55.6196C98.9683 55.6196 98.1693 55.9029 97.2739 56.4696L96.6279 55.3136C97.7613 54.5883 98.8776 54.2256 99.977 54.2256C100.986 54.2256 101.739 54.5316 102.238 55.1436C102.737 55.7443 102.986 56.6113 102.986 57.7446V62.7426H101.575L101.439 61.7906H101.388C100.47 62.5613 99.5859 62.9466 98.7359 62.9466ZM99.2629 61.5866C99.6143 61.5866 99.9429 61.5073 100.249 61.3486C100.555 61.1899 100.895 60.9406 101.269 60.6006V58.5436C100.068 58.6909 99.212 58.9176 98.702 59.2236C98.2033 59.5296 97.9539 59.9263 97.9539 60.4136C97.9539 60.7989 98.073 61.0936 98.311 61.2976C98.549 61.4903 98.8663 61.5866 99.2629 61.5866Z" fill="#484848"/>
<path d="M108.156 62.9466C106.478 62.9466 105.64 61.9776 105.64 60.0396V55.8066H104.433V54.5146L105.725 54.4296L105.929 52.1346H107.357V54.4296H109.533V55.8066H107.357V60.0396C107.357 60.5496 107.453 60.9349 107.646 61.1956C107.838 61.4449 108.15 61.5696 108.581 61.5696C108.841 61.5696 109.142 61.5016 109.482 61.3656L109.788 62.6406C109.176 62.8446 108.632 62.9466 108.156 62.9466Z" fill="#484848"/>
<path d="M111.497 54.4296H113.215V62.7426H111.497V54.4296ZM112.365 52.8656C112.059 52.8656 111.804 52.7693 111.6 52.5766C111.407 52.3839 111.311 52.1346 111.311 51.8286C111.311 51.5339 111.407 51.2903 111.6 51.0976C111.804 50.9049 112.059 50.8086 112.365 50.8086C112.671 50.8086 112.92 50.9049 113.113 51.0976C113.317 51.2903 113.419 51.5339 113.419 51.8286C113.419 52.1346 113.317 52.3839 113.113 52.5766C112.92 52.7693 112.671 52.8656 112.365 52.8656Z" fill="#484848"/>
<path d="M119.333 62.9466C118.641 62.9466 117.995 62.7709 117.395 62.4196C116.794 62.0683 116.312 61.5639 115.95 60.9066C115.598 60.2493 115.423 59.4786 115.423 58.5946C115.423 57.6993 115.598 56.9229 115.95 56.2656C116.312 55.6083 116.788 55.1039 117.378 54.7526C117.978 54.4013 118.63 54.2256 119.333 54.2256C120.035 54.2256 120.681 54.4013 121.271 54.7526C121.871 55.1039 122.347 55.6083 122.699 56.2656C123.061 56.9229 123.243 57.6993 123.243 58.5946C123.243 59.4786 123.061 60.2493 122.699 60.9066C122.347 61.5639 121.871 62.0683 121.271 62.4196C120.67 62.7709 120.024 62.9466 119.333 62.9466ZM119.333 61.5356C119.99 61.5356 120.511 61.2693 120.897 60.7366C121.282 60.1926 121.475 59.4786 121.475 58.5946C121.475 57.7106 121.276 56.9966 120.88 56.4526C120.494 55.9086 119.979 55.6366 119.333 55.6366C118.687 55.6366 118.165 55.9086 117.769 56.4526C117.383 56.9966 117.191 57.7106 117.191 58.5946C117.191 59.4786 117.383 60.1926 117.769 60.7366C118.154 61.2693 118.675 61.5356 119.333 61.5356Z" fill="#484848"/>
<path d="M125.451 54.4296H126.862L126.998 55.5856H127.049C127.491 55.1549 127.927 54.8206 128.358 54.5826C128.8 54.3446 129.281 54.2256 129.803 54.2256C131.503 54.2256 132.353 55.3193 132.353 57.5066V62.7426H130.636V57.7276C130.636 57.0136 130.522 56.4979 130.296 56.1806C130.08 55.8633 129.723 55.7046 129.225 55.7046C128.851 55.7046 128.516 55.7953 128.222 55.9766C127.927 56.1466 127.576 56.4356 127.168 56.8436V62.7426H125.451V54.4296Z" fill="#484848"/>
<path d="M136.037 60.5156C136.456 60.5156 136.785 60.6799 137.023 61.0086C137.261 61.3373 137.38 61.7906 137.38 62.3686C137.38 63.1506 137.165 63.8363 136.734 64.4256C136.303 65.0149 135.697 65.4569 134.915 65.7516L134.524 64.7826C135.045 64.5673 135.448 64.2783 135.731 63.9156C136.014 63.5643 136.162 63.1619 136.173 62.7086C136.139 62.7199 136.082 62.7256 136.003 62.7256C135.686 62.7256 135.414 62.6293 135.187 62.4366C134.96 62.2326 134.847 61.9606 134.847 61.6206C134.847 61.2919 134.96 61.0256 135.187 60.8216C135.425 60.6176 135.708 60.5156 136.037 60.5156Z" fill="#484848"/>
<path d="M17.3138 71.6076H20.2038C21.9264 71.6076 23.2468 72.0779 24.1648 73.0186C25.0941 73.9593 25.5588 75.3306 25.5588 77.1326C25.5588 78.9346 25.0998 80.3229 24.1818 81.2976C23.2638 82.2609 21.9661 82.7426 20.2888 82.7426H17.3138V71.6076ZM20.0848 81.3316C21.2861 81.3316 22.1984 80.9803 22.8218 80.2776C23.4564 79.5636 23.7738 78.5153 23.7738 77.1326C23.7738 75.7613 23.4621 74.7356 22.8388 74.0556C22.2154 73.3643 21.2974 73.0186 20.0848 73.0186H19.0478V81.3316H20.0848Z" fill="#484848"/>
<path d="M34.4854 78.1526C34.4854 78.4699 34.4627 78.7646 34.4174 79.0366H28.9264C29.0057 79.8753 29.289 80.5156 29.7764 80.9576C30.275 81.3883 30.8757 81.6036 31.5784 81.6036C32.247 81.6036 32.91 81.3939 33.5674 80.9746L34.1624 82.0626C33.2784 82.6519 32.3434 82.9466 31.3574 82.9466C30.598 82.9466 29.9124 82.7709 29.3004 82.4196C28.6884 82.0683 28.201 81.5639 27.8384 80.9066C27.487 80.2493 27.3114 79.4786 27.3114 78.5946C27.3114 77.7219 27.487 76.9569 27.8384 76.2996C28.201 75.6309 28.6714 75.1209 29.2494 74.7696C29.8274 74.4069 30.445 74.2256 31.1024 74.2256C32.179 74.2256 33.012 74.5826 33.6014 75.2966C34.1907 75.9993 34.4854 76.9513 34.4854 78.1526ZM32.9894 77.8466C32.9894 77.1213 32.8307 76.5603 32.5134 76.1636C32.196 75.7669 31.737 75.5686 31.1364 75.5686C30.615 75.5686 30.1504 75.7613 29.7424 76.1466C29.3344 76.5319 29.0737 77.0986 28.9604 77.8466H32.9894Z" fill="#484848"/>
<path d="M38.8536 82.9466C38.2982 82.9466 37.7429 82.8389 37.1876 82.6236C36.6322 82.4083 36.1449 82.1306 35.7256 81.7906L36.5416 80.6856C36.9382 80.9916 37.3236 81.2296 37.6976 81.3996C38.0716 81.5583 38.4739 81.6376 38.9046 81.6376C39.3806 81.6376 39.7432 81.5356 39.9926 81.3316C40.2419 81.1163 40.3666 80.8443 40.3666 80.5156C40.3666 80.1756 40.2136 79.9093 39.9076 79.7166C39.6016 79.5126 39.1426 79.2973 38.5306 79.0706C37.7939 78.7986 37.2102 78.4869 36.7796 78.1356C36.3489 77.7729 36.1336 77.2799 36.1336 76.6566C36.1336 75.9426 36.3999 75.3589 36.9326 74.9056C37.4652 74.4523 38.1849 74.2256 39.0916 74.2256C40.0662 74.2256 40.9616 74.5486 41.7776 75.1946L40.9786 76.2656C40.6612 76.0276 40.3552 75.8463 40.0606 75.7216C39.7659 75.5969 39.4542 75.5346 39.1256 75.5346C38.6836 75.5346 38.3436 75.6309 38.1056 75.8236C37.8789 76.0163 37.7656 76.2656 37.7656 76.5716C37.7656 76.7983 37.8449 76.9909 38.0036 77.1496C38.1622 77.2969 38.3436 77.4159 38.5476 77.5066C38.7629 77.5973 39.0972 77.7276 39.5506 77.8976C40.0492 78.0789 40.4629 78.2659 40.7916 78.4586C41.1316 78.6399 41.4149 78.8893 41.6416 79.2066C41.8796 79.5239 41.9986 79.9263 41.9986 80.4136C41.9986 80.8896 41.8739 81.3203 41.6246 81.7056C41.3866 82.0796 41.0296 82.3799 40.5536 82.6066C40.0776 82.8333 39.5109 82.9466 38.8536 82.9466Z" fill="#484848"/>
<path d="M44.0009 74.4296H45.7179V82.7426H44.0009V74.4296ZM44.8679 72.8656C44.5619 72.8656 44.3069 72.7693 44.1029 72.5766C43.9102 72.3839 43.8139 72.1346 43.8139 71.8286C43.8139 71.5339 43.9102 71.2903 44.1029 71.0976C44.3069 70.9049 44.5619 70.8086 44.8679 70.8086C45.1739 70.8086 45.4232 70.9049 45.6159 71.0976C45.8199 71.2903 45.9219 71.5339 45.9219 71.8286C45.9219 72.1346 45.8199 72.3839 45.6159 72.5766C45.4232 72.7693 45.1739 72.8656 44.8679 72.8656Z" fill="#484848"/>
<path d="M51.3599 86.4826C50.3285 86.4826 49.4955 86.2899 48.8609 85.9046C48.2262 85.5306 47.9089 84.9923 47.9089 84.2896C47.9089 83.9383 48.0109 83.6039 48.2149 83.2866C48.4302 82.9806 48.7305 82.7086 49.1159 82.4706V82.4026C48.6172 82.0853 48.3679 81.6263 48.3679 81.0256C48.3679 80.7196 48.4529 80.4306 48.6229 80.1586C48.8042 79.8866 49.0252 79.6599 49.2859 79.4786V79.4106C48.9799 79.1726 48.7192 78.8609 48.5039 78.4756C48.2999 78.0903 48.1979 77.6653 48.1979 77.2006C48.1979 76.5999 48.3395 76.0729 48.6229 75.6196C48.9175 75.1663 49.3085 74.8206 49.7959 74.5826C50.2945 74.3446 50.8329 74.2256 51.4109 74.2256C51.8415 74.2256 52.2439 74.2936 52.6179 74.4296H55.5589V75.7216H53.9609C54.1309 75.9029 54.2669 76.1296 54.3689 76.4016C54.4709 76.6623 54.5219 76.9456 54.5219 77.2516C54.5219 78.1356 54.2272 78.8326 53.6379 79.3426C53.0485 79.8526 52.3062 80.1076 51.4109 80.1076C51.0029 80.1076 50.6119 80.0226 50.2379 79.8526C50.0905 79.9886 49.9772 80.1246 49.8979 80.2606C49.8185 80.3853 49.7789 80.5439 49.7789 80.7366C49.7789 80.9973 49.8865 81.2013 50.1019 81.3486C50.3172 81.4846 50.6742 81.5526 51.1729 81.5526H52.7199C53.7172 81.5526 54.4595 81.7169 54.9469 82.0456C55.4455 82.3743 55.6949 82.8843 55.6949 83.5756C55.6949 84.1083 55.5135 84.5956 55.1509 85.0376C54.7995 85.4796 54.2952 85.8309 53.6379 86.0916C52.9805 86.3523 52.2212 86.4826 51.3599 86.4826ZM51.4109 79.0026C51.8642 79.0026 52.2382 78.8383 52.5329 78.5096C52.8389 78.1809 52.9919 77.7446 52.9919 77.2006C52.9919 76.6566 52.8389 76.2259 52.5329 75.9086C52.2382 75.5913 51.8642 75.4326 51.4109 75.4326C50.9575 75.4326 50.5779 75.5913 50.2719 75.9086C49.9772 76.2259 49.8299 76.6566 49.8299 77.2006C49.8299 77.7446 49.9772 78.1809 50.2719 78.5096C50.5779 78.8383 50.9575 79.0026 51.4109 79.0026ZM51.6149 85.3436C52.0795 85.3436 52.4932 85.2756 52.8559 85.1396C53.2299 85.0036 53.5189 84.8166 53.7229 84.5786C53.9269 84.3519 54.0289 84.1083 54.0289 83.8476C54.0289 83.5076 53.8985 83.2696 53.6379 83.1336C53.3885 82.9976 53.0032 82.9296 52.4819 82.9296H51.2069C50.7875 82.9296 50.4192 82.8899 50.1019 82.8106C49.6145 83.1733 49.3709 83.5813 49.3709 84.0346C49.3709 84.4426 49.5692 84.7599 49.9659 84.9866C50.3625 85.2246 50.9122 85.3436 51.6149 85.3436Z" fill="#484848"/>
<path d="M57.3897 74.4296H58.8007L58.9367 75.5856H58.9877C59.4297 75.1549 59.866 74.8206 60.2967 74.5826C60.7387 74.3446 61.2204 74.2256 61.7417 74.2256C63.4417 74.2256 64.2917 75.3193 64.2917 77.5066V82.7426H62.5747V77.7276C62.5747 77.0136 62.4614 76.4979 62.2347 76.1806C62.0194 75.8633 61.6624 75.7046 61.1637 75.7046C60.7897 75.7046 60.4554 75.7953 60.1607 75.9766C59.866 76.1466 59.5147 76.4356 59.1067 76.8436V82.7426H57.3897V74.4296Z" fill="#484848"/>
<path d="M79.1651 82.9466C78.3378 82.7426 77.4594 82.3289 76.5301 81.7056C75.5894 82.5329 74.4901 82.9466 73.2321 82.9466C72.5408 82.9466 71.9288 82.8106 71.3961 82.5386C70.8748 82.2666 70.4668 81.8983 70.1721 81.4336C69.8888 80.9576 69.7471 80.4249 69.7471 79.8356C69.7471 79.1443 69.9341 78.5549 70.3081 78.0676C70.6934 77.5689 71.2204 77.0929 71.8891 76.6396C71.4131 75.7103 71.1751 74.8716 71.1751 74.1236C71.1751 73.6249 71.2884 73.1659 71.5151 72.7466C71.7418 72.3273 72.0591 71.9986 72.4671 71.7606C72.8751 71.5226 73.3454 71.4036 73.8781 71.4036C74.6034 71.4036 75.1758 71.6133 75.5951 72.0326C76.0144 72.4519 76.2241 73.0073 76.2241 73.6986C76.2241 74.3559 76.0088 74.9226 75.5781 75.3986C75.1588 75.8746 74.5524 76.3959 73.7591 76.9626C74.5184 78.0166 75.4081 78.9459 76.4281 79.7506C77.0968 78.8666 77.5898 77.8353 77.9071 76.6566H79.4881C79.0348 78.1866 78.3944 79.4899 77.5671 80.5666C78.3491 81.0653 79.0291 81.3883 79.6071 81.5356L79.1651 82.9466ZM72.6371 74.1066C72.6371 74.6393 72.7958 75.2229 73.1131 75.8576C73.6798 75.4949 74.1104 75.1549 74.4051 74.8376C74.7111 74.5089 74.8641 74.1349 74.8641 73.7156C74.8641 73.3869 74.7848 73.1206 74.6261 72.9166C74.4674 72.7013 74.2238 72.5936 73.8951 72.5936C73.5211 72.5936 73.2151 72.7353 72.9771 73.0186C72.7504 73.3019 72.6371 73.6646 72.6371 74.1066ZM71.3961 79.7336C71.3961 80.2889 71.5888 80.7423 71.9741 81.0936C72.3594 81.4336 72.8468 81.6036 73.4361 81.6036C74.0708 81.6036 74.7168 81.3486 75.3741 80.8386C74.2634 79.8866 73.3398 78.8779 72.6031 77.8126C72.2178 78.1186 71.9174 78.4246 71.7021 78.7306C71.4981 79.0366 71.3961 79.3709 71.3961 79.7336Z" fill="#484848"/>
<path d="M17.3138 91.6076H19.3198L21.3598 97.2686L21.7678 98.5096L22.1078 99.5126H22.1758C22.3571 98.9686 22.4704 98.6173 22.5158 98.4586L22.9068 97.2686L24.9128 91.6076H26.9188V102.743H25.3208V97.2006C25.3208 96.5886 25.3831 95.5743 25.5078 94.1576L25.5418 93.7666H25.4738L24.5898 96.3336L22.6348 101.655H21.5638L19.6088 96.3336L18.7248 93.7666H18.6568L18.6908 94.1576C18.8154 95.5743 18.8778 96.5886 18.8778 97.2006V102.743H17.3138V91.6076Z" fill="#484848"/>
<path d="M31.837 102.947C31.1116 102.947 30.5223 102.731 30.069 102.301C29.6156 101.859 29.389 101.269 29.389 100.533C29.389 99.6373 29.7856 98.9516 30.579 98.4756C31.3723 97.9883 32.636 97.6483 34.37 97.4556C34.3473 96.2316 33.8146 95.6196 32.772 95.6196C32.0693 95.6196 31.2703 95.9029 30.375 96.4696L29.729 95.3136C30.8623 94.5883 31.9786 94.2256 33.078 94.2256C34.0866 94.2256 34.8403 94.5316 35.339 95.1436C35.8376 95.7443 36.087 96.6113 36.087 97.7446V102.743H34.676L34.54 101.791H34.489C33.571 102.561 32.687 102.947 31.837 102.947ZM32.364 101.587C32.7153 101.587 33.044 101.507 33.35 101.349C33.656 101.19 33.996 100.941 34.37 100.601V98.5436C33.1686 98.6909 32.313 98.9176 31.803 99.2236C31.3043 99.5296 31.055 99.9263 31.055 100.414C31.055 100.799 31.174 101.094 31.412 101.298C31.65 101.49 31.9673 101.587 32.364 101.587Z" fill="#484848"/>
<path d="M38.7176 94.4296H40.1286L40.2646 95.9256H40.3156C40.6102 95.3929 40.9616 94.9793 41.3696 94.6846C41.7889 94.3786 42.2252 94.2256 42.6786 94.2256C43.0526 94.2256 43.3586 94.2823 43.5966 94.3956L43.2906 95.8916C42.9846 95.8009 42.7069 95.7556 42.4576 95.7556C42.0836 95.7556 41.7152 95.9029 41.3526 96.1976C40.9899 96.4809 40.6839 96.9343 40.4346 97.5576V102.743H38.7176V94.4296Z" fill="#484848"/>
<path d="M45.0468 90.6896H46.7298V98.4926H46.7808L50.0618 94.4296H51.9488L49.1268 97.7956L52.2718 102.743H50.4018L48.1408 98.9686L46.7298 100.601V102.743H45.0468V90.6896Z" fill="#484848"/>
<path d="M60.1135 98.1526C60.1135 98.4699 60.0909 98.7646 60.0455 99.0366H54.5545C54.6339 99.8753 54.9172 100.516 55.4045 100.958C55.9032 101.388 56.5039 101.604 57.2065 101.604C57.8752 101.604 58.5382 101.394 59.1955 100.975L59.7905 102.063C58.9065 102.652 57.9715 102.947 56.9855 102.947C56.2262 102.947 55.5405 102.771 54.9285 102.42C54.3165 102.068 53.8292 101.564 53.4665 100.907C53.1152 100.249 52.9395 99.4786 52.9395 98.5946C52.9395 97.7219 53.1152 96.9569 53.4665 96.2996C53.8292 95.6309 54.2995 95.1209 54.8775 94.7696C55.4555 94.4069 56.0732 94.2256 56.7305 94.2256C57.8072 94.2256 58.6402 94.5826 59.2295 95.2966C59.8189 95.9993 60.1135 96.9513 60.1135 98.1526ZM58.6175 97.8466C58.6175 97.1213 58.4589 96.5603 58.1415 96.1636C57.8242 95.7669 57.3652 95.5686 56.7645 95.5686C56.2432 95.5686 55.7785 95.7613 55.3705 96.1466C54.9625 96.5319 54.7019 97.0986 54.5885 97.8466H58.6175Z" fill="#484848"/>
<path d="M64.8427 102.947C63.1654 102.947 62.3267 101.978 62.3267 100.04V95.8066H61.1197V94.5146L62.4117 94.4296L62.6157 92.1346H64.0437V94.4296H66.2197V95.8066H64.0437V100.04C64.0437 100.55 64.1401 100.935 64.3327 101.196C64.5254 101.445 64.8371 101.57 65.2677 101.57C65.5284 101.57 65.8287 101.502 66.1687 101.366L66.4747 102.641C65.8627 102.845 65.3187 102.947 64.8427 102.947Z" fill="#484848"/>
<path d="M68.1847 94.4296H69.9017V102.743H68.1847V94.4296ZM69.0517 92.8656C68.7457 92.8656 68.4907 92.7693 68.2867 92.5766C68.094 92.3839 67.9977 92.1346 67.9977 91.8286C67.9977 91.5339 68.094 91.2903 68.2867 91.0976C68.4907 90.9049 68.7457 90.8086 69.0517 90.8086C69.3577 90.8086 69.607 90.9049 69.7997 91.0976C70.0037 91.2903 70.1057 91.5339 70.1057 91.8286C70.1057 92.1346 70.0037 92.3839 69.7997 92.5766C69.607 92.7693 69.3577 92.8656 69.0517 92.8656Z" fill="#484848"/>
<path d="M72.6877 94.4296H74.0987L74.2347 95.5856H74.2857C74.7277 95.1549 75.164 94.8206 75.5947 94.5826C76.0367 94.3446 76.5184 94.2256 77.0397 94.2256C78.7397 94.2256 79.5897 95.3193 79.5897 97.5066V102.743H77.8727V97.7276C77.8727 97.0136 77.7594 96.4979 77.5327 96.1806C77.3174 95.8633 76.9604 95.7046 76.4617 95.7046C76.0877 95.7046 75.7534 95.7953 75.4587 95.9766C75.164 96.1466 74.8127 96.4356 74.4047 96.8436V102.743H72.6877V94.4296Z" fill="#484848"/>
<path d="M85.1268 106.483C84.0955 106.483 83.2625 106.29 82.6278 105.905C81.9931 105.531 81.6758 104.992 81.6758 104.29C81.6758 103.938 81.7778 103.604 81.9818 103.287C82.1971 102.981 82.4974 102.709 82.8828 102.471V102.403C82.3841 102.085 82.1348 101.626 82.1348 101.026C82.1348 100.72 82.2198 100.431 82.3898 100.159C82.5711 99.8866 82.7921 99.6599 83.0528 99.4786V99.4106C82.7468 99.1726 82.4861 98.8609 82.2708 98.4756C82.0668 98.0903 81.9648 97.6653 81.9648 97.2006C81.9648 96.5999 82.1065 96.0729 82.3898 95.6196C82.6845 95.1663 83.0754 94.8206 83.5628 94.5826C84.0614 94.3446 84.5998 94.2256 85.1778 94.2256C85.6085 94.2256 86.0108 94.2936 86.3848 94.4296H89.3258V95.7216H87.7278C87.8978 95.9029 88.0338 96.1296 88.1358 96.4016C88.2378 96.6623 88.2888 96.9456 88.2888 97.2516C88.2888 98.1356 87.9941 98.8326 87.4048 99.3426C86.8155 99.8526 86.0731 100.108 85.1778 100.108C84.7698 100.108 84.3788 100.023 84.0048 99.8526C83.8575 99.9886 83.7441 100.125 83.6648 100.261C83.5855 100.385 83.5458 100.544 83.5458 100.737C83.5458 100.997 83.6534 101.201 83.8688 101.349C84.0841 101.485 84.4411 101.553 84.9398 101.553H86.4868C87.4841 101.553 88.2264 101.717 88.7138 102.046C89.2124 102.374 89.4618 102.884 89.4618 103.576C89.4618 104.108 89.2805 104.596 88.9178 105.038C88.5665 105.48 88.0621 105.831 87.4048 106.092C86.7475 106.352 85.9881 106.483 85.1268 106.483ZM85.1778 99.0026C85.6311 99.0026 86.0051 98.8383 86.2998 98.5096C86.6058 98.1809 86.7588 97.7446 86.7588 97.2006C86.7588 96.6566 86.6058 96.2259 86.2998 95.9086C86.0051 95.5913 85.6311 95.4326 85.1778 95.4326C84.7245 95.4326 84.3448 95.5913 84.0388 95.9086C83.7441 96.2259 83.5968 96.6566 83.5968 97.2006C83.5968 97.7446 83.7441 98.1809 84.0388 98.5096C84.3448 98.8383 84.7245 99.0026 85.1778 99.0026ZM85.3818 105.344C85.8464 105.344 86.2601 105.276 86.6228 105.14C86.9968 105.004 87.2858 104.817 87.4898 104.579C87.6938 104.352 87.7958 104.108 87.7958 103.848C87.7958 103.508 87.6655 103.27 87.4048 103.134C87.1555 102.998 86.7701 102.93 86.2488 102.93H84.9738C84.5545 102.93 84.1861 102.89 83.8688 102.811C83.3814 103.173 83.1378 103.581 83.1378 104.035C83.1378 104.443 83.3361 104.76 83.7328 104.987C84.1295 105.225 84.6791 105.344 85.3818 105.344Z" fill="#484848"/>
<circle opacity="0.5" cx="283.951" cy="49.6484" r="36" fill="#81D3C8"/>
<path d="M270.266 48.4074C269.507 48.4074 268.781 48.2657 268.09 47.9824C267.41 47.6877 266.815 47.2797 266.305 46.7584L267.325 45.5684C267.733 45.9764 268.198 46.2994 268.719 46.5374C269.24 46.7754 269.767 46.8944 270.3 46.8944C270.957 46.8944 271.473 46.7527 271.847 46.4694C272.221 46.1747 272.408 45.7837 272.408 45.2964C272.408 44.9791 272.334 44.7184 272.187 44.5144C272.051 44.2991 271.864 44.1234 271.626 43.9874C271.399 43.8514 271.065 43.6927 270.623 43.5114L269.076 42.8314C267.569 42.2081 266.815 41.2391 266.815 39.9244C266.815 39.3464 266.968 38.8251 267.274 38.3604C267.591 37.8957 268.028 37.5331 268.583 37.2724C269.138 37.0004 269.762 36.8644 270.453 36.8644C271.099 36.8644 271.717 36.9891 272.306 37.2384C272.895 37.4877 273.4 37.8277 273.819 38.2584L272.918 39.3634C272.17 38.7061 271.348 38.3774 270.453 38.3774C269.875 38.3774 269.416 38.5077 269.076 38.7684C268.736 39.0291 268.566 39.3804 268.566 39.8224C268.566 40.1171 268.645 40.3664 268.804 40.5704C268.974 40.7744 269.172 40.9387 269.399 41.0634C269.637 41.1881 269.96 41.3354 270.368 41.5054L271.915 42.1684C272.64 42.4631 273.196 42.8484 273.581 43.3244C273.978 43.7891 274.176 44.4011 274.176 45.1604C274.176 45.7611 274.017 46.3107 273.7 46.8094C273.383 47.2967 272.929 47.6877 272.34 47.9824C271.751 48.2657 271.059 48.4074 270.266 48.4074Z" fill="#484848"/>
<path d="M279.617 48.4074C278.925 48.4074 278.279 48.2317 277.679 47.8804C277.078 47.5291 276.596 47.0247 276.234 46.3674C275.882 45.7101 275.707 44.9394 275.707 44.0554C275.707 43.1601 275.882 42.3837 276.234 41.7264C276.596 41.0691 277.072 40.5647 277.662 40.2134C278.262 39.8621 278.914 39.6864 279.617 39.6864C280.319 39.6864 280.965 39.8621 281.555 40.2134C282.155 40.5647 282.631 41.0691 282.983 41.7264C283.345 42.3837 283.527 43.1601 283.527 44.0554C283.527 44.9394 283.345 45.7101 282.983 46.3674C282.631 47.0247 282.155 47.5291 281.555 47.8804C280.954 48.2317 280.308 48.4074 279.617 48.4074ZM279.617 46.9964C280.274 46.9964 280.795 46.7301 281.181 46.1974C281.566 45.6534 281.759 44.9394 281.759 44.0554C281.759 43.1714 281.56 42.4574 281.164 41.9134C280.778 41.3694 280.263 41.0974 279.617 41.0974C278.971 41.0974 278.449 41.3694 278.053 41.9134C277.667 42.4574 277.475 43.1714 277.475 44.0554C277.475 44.9394 277.667 45.6534 278.053 46.1974C278.438 46.7301 278.959 46.9964 279.617 46.9964Z" fill="#484848"/>
<path d="M289.118 48.4074C288.37 48.4074 287.696 48.2374 287.095 47.8974C286.494 47.5461 286.018 47.0417 285.667 46.3844C285.327 45.7271 285.157 44.9507 285.157 44.0554C285.157 43.1601 285.344 42.3837 285.718 41.7264C286.092 41.0691 286.591 40.5647 287.214 40.2134C287.837 39.8621 288.517 39.6864 289.254 39.6864C290.161 39.6864 290.971 40.0037 291.685 40.6384L290.835 41.7604C290.586 41.5451 290.342 41.3807 290.104 41.2674C289.866 41.1541 289.611 41.0974 289.339 41.0974C288.625 41.0974 288.041 41.3694 287.588 41.9134C287.146 42.4574 286.925 43.1714 286.925 44.0554C286.925 44.9394 287.14 45.6534 287.571 46.1974C288.013 46.7301 288.585 46.9964 289.288 46.9964C289.911 46.9964 290.518 46.7414 291.107 46.2314L291.821 47.3704C291.447 47.7104 291.022 47.9711 290.546 48.1524C290.081 48.3224 289.605 48.4074 289.118 48.4074Z" fill="#484848"/>
<path d="M293.708 39.8904H295.425V48.2034H293.708V39.8904ZM294.575 38.3264C294.269 38.3264 294.014 38.2301 293.81 38.0374C293.617 37.8447 293.521 37.5954 293.521 37.2894C293.521 36.9947 293.617 36.7511 293.81 36.5584C294.014 36.3657 294.269 36.2694 294.575 36.2694C294.881 36.2694 295.13 36.3657 295.323 36.5584C295.527 36.7511 295.629 36.9947 295.629 37.2894C295.629 37.5954 295.527 37.8447 295.323 38.0374C295.13 38.2301 294.881 38.3264 294.575 38.3264Z" fill="#484848"/>
<path d="M300.183 48.4074C299.457 48.4074 298.868 48.1921 298.415 47.7614C297.961 47.3194 297.735 46.7301 297.735 45.9934C297.735 45.0981 298.131 44.4124 298.925 43.9364C299.718 43.4491 300.982 43.1091 302.716 42.9164C302.693 41.6924 302.16 41.0804 301.118 41.0804C300.415 41.0804 299.616 41.3637 298.721 41.9304L298.075 40.7744C299.208 40.0491 300.324 39.6864 301.424 39.6864C302.432 39.6864 303.186 39.9924 303.685 40.6044C304.183 41.2051 304.433 42.0721 304.433 43.2054V48.2034H303.022L302.886 47.2514H302.835C301.917 48.0221 301.033 48.4074 300.183 48.4074ZM300.71 47.0474C301.061 47.0474 301.39 46.9681 301.696 46.8094C302.002 46.6507 302.342 46.4014 302.716 46.0614V44.0044C301.514 44.1517 300.659 44.3784 300.149 44.6844C299.65 44.9904 299.401 45.3871 299.401 45.8744C299.401 46.2597 299.52 46.5544 299.758 46.7584C299.996 46.9511 300.313 47.0474 300.71 47.0474Z" fill="#484848"/>
<path d="M308.78 48.4074C308.18 48.4074 307.743 48.2261 307.471 47.8634C307.199 47.5007 307.063 46.9681 307.063 46.2654V36.1504H308.78V46.3674C308.78 46.5827 308.82 46.7414 308.899 46.8434C308.979 46.9454 309.075 46.9964 309.188 46.9964C309.29 46.9964 309.392 46.9851 309.494 46.9624L309.715 48.2544C309.455 48.3564 309.143 48.4074 308.78 48.4074Z" fill="#484848"/>
<path d="M323.908 48.4074C323.081 48.2034 322.202 47.7897 321.273 47.1664C320.332 47.9937 319.233 48.4074 317.975 48.4074C317.284 48.4074 316.672 48.2714 316.139 47.9994C315.618 47.7274 315.21 47.3591 314.915 46.8944C314.632 46.4184 314.49 45.8857 314.49 45.2964C314.49 44.6051 314.677 44.0157 315.051 43.5284C315.436 43.0297 315.963 42.5537 316.632 42.1004C316.156 41.1711 315.918 40.3324 315.918 39.5844C315.918 39.0857 316.031 38.6267 316.258 38.2074C316.485 37.7881 316.802 37.4594 317.21 37.2214C317.618 36.9834 318.088 36.8644 318.621 36.8644C319.346 36.8644 319.919 37.0741 320.338 37.4934C320.757 37.9127 320.967 38.4681 320.967 39.1594C320.967 39.8167 320.752 40.3834 320.321 40.8594C319.902 41.3354 319.295 41.8567 318.502 42.4234C319.261 43.4774 320.151 44.4067 321.171 45.2114C321.84 44.3274 322.333 43.2961 322.65 42.1174H324.231C323.778 43.6474 323.137 44.9507 322.31 46.0274C323.092 46.5261 323.772 46.8491 324.35 46.9964L323.908 48.4074ZM317.38 39.5674C317.38 40.1001 317.539 40.6837 317.856 41.3184C318.423 40.9557 318.853 40.6157 319.148 40.2984C319.454 39.9697 319.607 39.5957 319.607 39.1764C319.607 38.8477 319.528 38.5814 319.369 38.3774C319.21 38.1621 318.967 38.0544 318.638 38.0544C318.264 38.0544 317.958 38.1961 317.72 38.4794C317.493 38.7627 317.38 39.1254 317.38 39.5674ZM316.139 45.1944C316.139 45.7497 316.332 46.2031 316.717 46.5544C317.102 46.8944 317.59 47.0644 318.179 47.0644C318.814 47.0644 319.46 46.8094 320.117 46.2994C319.006 45.3474 318.083 44.3387 317.346 43.2734C316.961 43.5794 316.66 43.8854 316.445 44.1914C316.241 44.4974 316.139 44.8317 316.139 45.1944Z" fill="#484848"/>
<path d="M329.827 37.0684H331.561V46.7414H336.287V48.2034H329.827V37.0684Z" fill="#484848"/>
<path d="M338.261 39.8904H339.978V48.2034H338.261V39.8904ZM339.128 38.3264C338.822 38.3264 338.567 38.2301 338.363 38.0374C338.17 37.8447 338.074 37.5954 338.074 37.2894C338.074 36.9947 338.17 36.7511 338.363 36.5584C338.567 36.3657 338.822 36.2694 339.128 36.2694C339.434 36.2694 339.683 36.3657 339.876 36.5584C340.08 36.7511 340.182 36.9947 340.182 37.2894C340.182 37.5954 340.08 37.8447 339.876 38.0374C339.683 38.2301 339.434 38.3264 339.128 38.3264Z" fill="#484848"/>
<path d="M346.64 48.4074C346.255 48.4074 345.864 48.3167 345.467 48.1354C345.07 47.9427 344.691 47.6764 344.328 47.3364H344.277L344.124 48.2034H342.764V36.1504H344.481V39.3464L344.43 40.7744C344.815 40.4457 345.223 40.1851 345.654 39.9924C346.085 39.7884 346.51 39.6864 346.929 39.6864C347.972 39.6864 348.776 40.0661 349.343 40.8254C349.921 41.5847 350.21 42.6104 350.21 43.9024C350.21 44.8204 350.046 45.6194 349.717 46.2994C349.388 46.9794 348.952 47.5007 348.408 47.8634C347.864 48.2261 347.275 48.4074 346.64 48.4074ZM346.3 46.9794C346.935 46.9794 347.45 46.7131 347.847 46.1804C348.244 45.6364 348.442 44.8884 348.442 43.9364C348.442 42.0551 347.785 41.1144 346.47 41.1144C345.847 41.1144 345.184 41.4544 344.481 42.1344V46.2144C344.787 46.4751 345.093 46.6677 345.399 46.7924C345.716 46.9171 346.017 46.9794 346.3 46.9794Z" fill="#484848"/>
<path d="M352.43 39.8904H353.841L353.977 41.3864H354.028C354.323 40.8537 354.674 40.4401 355.082 40.1454C355.501 39.8394 355.938 39.6864 356.391 39.6864C356.765 39.6864 357.071 39.7431 357.309 39.8564L357.003 41.3524C356.697 41.2617 356.419 41.2164 356.17 41.2164C355.796 41.2164 355.428 41.3637 355.065 41.6584C354.702 41.9417 354.396 42.3951 354.147 43.0184V48.2034H352.43V39.8904Z" fill="#484848"/>
<path d="M360.3 48.4074C359.574 48.4074 358.985 48.1921 358.532 47.7614C358.078 47.3194 357.852 46.7301 357.852 45.9934C357.852 45.0981 358.248 44.4124 359.042 43.9364C359.835 43.4491 361.099 43.1091 362.833 42.9164C362.81 41.6924 362.277 41.0804 361.235 41.0804C360.532 41.0804 359.733 41.3637 358.838 41.9304L358.192 40.7744C359.325 40.0491 360.441 39.6864 361.541 39.6864C362.549 39.6864 363.303 39.9924 363.802 40.6044C364.3 41.2051 364.55 42.0721 364.55 43.2054V48.2034H363.139L363.003 47.2514H362.952C362.034 48.0221 361.15 48.4074 360.3 48.4074ZM360.827 47.0474C361.178 47.0474 361.507 46.9681 361.813 46.8094C362.119 46.6507 362.459 46.4014 362.833 46.0614V44.0044C361.631 44.1517 360.776 44.3784 360.266 44.6844C359.767 44.9904 359.518 45.3871 359.518 45.8744C359.518 46.2597 359.637 46.5544 359.875 46.7584C360.113 46.9511 360.43 47.0474 360.827 47.0474Z" fill="#484848"/>
<path d="M367.18 39.8904H368.591L368.727 41.3864H368.778C369.073 40.8537 369.424 40.4401 369.832 40.1454C370.252 39.8394 370.688 39.6864 371.141 39.6864C371.515 39.6864 371.821 39.7431 372.059 39.8564L371.753 41.3524C371.447 41.2617 371.17 41.2164 370.92 41.2164C370.546 41.2164 370.178 41.3637 369.815 41.6584C369.453 41.9417 369.147 42.3951 368.897 43.0184V48.2034H367.18V39.8904Z" fill="#484848"/>
<path d="M374.215 51.6884C373.841 51.6884 373.496 51.6317 373.178 51.5184L373.501 50.1754C373.762 50.2547 373.966 50.2944 374.113 50.2944C374.929 50.2944 375.513 49.7674 375.864 48.7134L376.034 48.1524L372.736 39.8904H374.487L376.034 44.1914L376.544 45.7384L376.799 46.5374H376.867C376.992 46.1294 377.088 45.7781 377.156 45.4834L377.53 44.1914L378.873 39.8904H380.539L377.479 48.7134C377.128 49.6881 376.703 50.4247 376.204 50.9234C375.706 51.4334 375.043 51.6884 374.215 51.6884Z" fill="#484848"/>
<path d="M270.266 68.4074C269.507 68.4074 268.781 68.2657 268.09 67.9824C267.41 67.6877 266.815 67.2797 266.305 66.7584L267.325 65.5684C267.733 65.9764 268.198 66.2994 268.719 66.5374C269.24 66.7754 269.767 66.8944 270.3 66.8944C270.957 66.8944 271.473 66.7527 271.847 66.4694C272.221 66.1747 272.408 65.7837 272.408 65.2964C272.408 64.9791 272.334 64.7184 272.187 64.5144C272.051 64.2991 271.864 64.1234 271.626 63.9874C271.399 63.8514 271.065 63.6927 270.623 63.5114L269.076 62.8314C267.569 62.2081 266.815 61.2391 266.815 59.9244C266.815 59.3464 266.968 58.8251 267.274 58.3604C267.591 57.8957 268.028 57.5331 268.583 57.2724C269.138 57.0004 269.762 56.8644 270.453 56.8644C271.099 56.8644 271.717 56.9891 272.306 57.2384C272.895 57.4877 273.4 57.8277 273.819 58.2584L272.918 59.3634C272.17 58.7061 271.348 58.3774 270.453 58.3774C269.875 58.3774 269.416 58.5077 269.076 58.7684C268.736 59.0291 268.566 59.3804 268.566 59.8224C268.566 60.1171 268.645 60.3664 268.804 60.5704C268.974 60.7744 269.172 60.9387 269.399 61.0634C269.637 61.1881 269.96 61.3354 270.368 61.5054L271.915 62.1684C272.64 62.4631 273.196 62.8484 273.581 63.3244C273.978 63.7891 274.176 64.4011 274.176 65.1604C274.176 65.7611 274.017 66.3107 273.7 66.8094C273.383 67.2967 272.929 67.6877 272.34 67.9824C271.751 68.2657 271.059 68.4074 270.266 68.4074Z" fill="#484848"/>
<path d="M279.668 68.4074C278.92 68.4074 278.245 68.2374 277.645 67.8974C277.044 67.5461 276.568 67.0417 276.217 66.3844C275.877 65.7271 275.707 64.9507 275.707 64.0554C275.707 63.1601 275.894 62.3837 276.268 61.7264C276.642 61.0691 277.14 60.5647 277.764 60.2134C278.387 59.8621 279.067 59.6864 279.804 59.6864C280.71 59.6864 281.521 60.0037 282.235 60.6384L281.385 61.7604C281.135 61.5451 280.892 61.3807 280.654 61.2674C280.416 61.1541 280.161 61.0974 279.889 61.0974C279.175 61.0974 278.591 61.3694 278.138 61.9134C277.696 62.4574 277.475 63.1714 277.475 64.0554C277.475 64.9394 277.69 65.6534 278.121 66.1974C278.563 66.7301 279.135 66.9964 279.838 66.9964C280.461 66.9964 281.067 66.7414 281.657 66.2314L282.371 67.3704C281.997 67.7104 281.572 67.9711 281.096 68.1524C280.631 68.3224 280.155 68.4074 279.668 68.4074Z" fill="#484848"/>
<path d="M284.257 59.8904H285.974V68.2034H284.257V59.8904ZM285.124 58.3264C284.818 58.3264 284.563 58.2301 284.359 58.0374C284.167 57.8447 284.07 57.5954 284.07 57.2894C284.07 56.9947 284.167 56.7511 284.359 56.5584C284.563 56.3657 284.818 56.2694 285.124 56.2694C285.43 56.2694 285.68 56.3657 285.872 56.5584C286.076 56.7511 286.178 56.9947 286.178 57.2894C286.178 57.5954 286.076 57.8447 285.872 58.0374C285.68 58.2301 285.43 58.3264 285.124 58.3264Z" fill="#484848"/>
<path d="M295.356 63.6134C295.356 63.9307 295.334 64.2254 295.288 64.4974H289.797C289.877 65.3361 290.16 65.9764 290.647 66.4184C291.146 66.8491 291.747 67.0644 292.449 67.0644C293.118 67.0644 293.781 66.8547 294.438 66.4354L295.033 67.5234C294.149 68.1127 293.214 68.4074 292.228 68.4074C291.469 68.4074 290.783 68.2317 290.171 67.8804C289.559 67.5291 289.072 67.0247 288.709 66.3674C288.358 65.7101 288.182 64.9394 288.182 64.0554C288.182 63.1827 288.358 62.4177 288.709 61.7604C289.072 61.0917 289.542 60.5817 290.12 60.2304C290.698 59.8677 291.316 59.6864 291.973 59.6864C293.05 59.6864 293.883 60.0434 294.472 60.7574C295.062 61.4601 295.356 62.4121 295.356 63.6134ZM293.86 63.3074C293.86 62.5821 293.702 62.0211 293.384 61.6244C293.067 61.2277 292.608 61.0294 292.007 61.0294C291.486 61.0294 291.021 61.2221 290.613 61.6074C290.205 61.9927 289.945 62.5594 289.831 63.3074H293.86Z" fill="#484848"/>
<path d="M297.464 59.8904H298.875L299.011 61.0464H299.062C299.504 60.6157 299.94 60.2814 300.371 60.0434C300.813 59.8054 301.294 59.6864 301.816 59.6864C303.516 59.6864 304.366 60.7801 304.366 62.9674V68.2034H302.649V63.1884C302.649 62.4744 302.535 61.9587 302.309 61.6414C302.093 61.3241 301.736 61.1654 301.238 61.1654C300.864 61.1654 300.529 61.2561 300.235 61.4374C299.94 61.6074 299.589 61.8964 299.181 62.3044V68.2034H297.464V59.8904Z" fill="#484848"/>
<path d="M310.43 68.4074C309.682 68.4074 309.007 68.2374 308.407 67.8974C307.806 67.5461 307.33 67.0417 306.979 66.3844C306.639 65.7271 306.469 64.9507 306.469 64.0554C306.469 63.1601 306.656 62.3837 307.03 61.7264C307.404 61.0691 307.902 60.5647 308.526 60.2134C309.149 59.8621 309.829 59.6864 310.566 59.6864C311.472 59.6864 312.283 60.0037 312.997 60.6384L312.147 61.7604C311.897 61.5451 311.654 61.3807 311.416 61.2674C311.178 61.1541 310.923 61.0974 310.651 61.0974C309.937 61.0974 309.353 61.3694 308.9 61.9134C308.458 62.4574 308.237 63.1714 308.237 64.0554C308.237 64.9394 308.452 65.6534 308.883 66.1974C309.325 66.7301 309.897 66.9964 310.6 66.9964C311.223 66.9964 311.829 66.7414 312.419 66.2314L313.133 67.3704C312.759 67.7104 312.334 67.9711 311.858 68.1524C311.393 68.3224 310.917 68.4074 310.43 68.4074Z" fill="#484848"/>
<path d="M321.217 63.6134C321.217 63.9307 321.194 64.2254 321.149 64.4974H315.658C315.737 65.3361 316.021 65.9764 316.508 66.4184C317.007 66.8491 317.607 67.0644 318.31 67.0644C318.979 67.0644 319.642 66.8547 320.299 66.4354L320.894 67.5234C320.01 68.1127 319.075 68.4074 318.089 68.4074C317.33 68.4074 316.644 68.2317 316.032 67.8804C315.42 67.5291 314.933 67.0247 314.57 66.3674C314.219 65.7101 314.043 64.9394 314.043 64.0554C314.043 63.1827 314.219 62.4177 314.57 61.7604C314.933 61.0917 315.403 60.5817 315.981 60.2304C316.559 59.8677 317.177 59.6864 317.834 59.6864C318.911 59.6864 319.744 60.0434 320.333 60.7574C320.922 61.4601 321.217 62.4121 321.217 63.6134ZM319.721 63.3074C319.721 62.5821 319.562 62.0211 319.245 61.6244C318.928 61.2277 318.469 61.0294 317.868 61.0294C317.347 61.0294 316.882 61.2221 316.474 61.6074C316.066 61.9927 315.805 62.5594 315.692 63.3074H319.721Z" fill="#484848"/>
<path d="M325.585 68.4074C325.03 68.4074 324.475 68.2997 323.919 68.0844C323.364 67.8691 322.877 67.5914 322.457 67.2514L323.273 66.1464C323.67 66.4524 324.055 66.6904 324.429 66.8604C324.803 67.0191 325.206 67.0984 325.636 67.0984C326.112 67.0984 326.475 66.9964 326.724 66.7924C326.974 66.5771 327.098 66.3051 327.098 65.9764C327.098 65.6364 326.945 65.3701 326.639 65.1774C326.333 64.9734 325.874 64.7581 325.262 64.5314C324.526 64.2594 323.942 63.9477 323.511 63.5964C323.081 63.2337 322.865 62.7407 322.865 62.1174C322.865 61.4034 323.132 60.8197 323.664 60.3664C324.197 59.9131 324.917 59.6864 325.823 59.6864C326.798 59.6864 327.693 60.0094 328.509 60.6554L327.71 61.7264C327.393 61.4884 327.087 61.3071 326.792 61.1824C326.498 61.0577 326.186 60.9954 325.857 60.9954C325.415 60.9954 325.075 61.0917 324.837 61.2844C324.611 61.4771 324.497 61.7264 324.497 62.0324C324.497 62.2591 324.577 62.4517 324.735 62.6104C324.894 62.7577 325.075 62.8767 325.279 62.9674C325.495 63.0581 325.829 63.1884 326.282 63.3584C326.781 63.5397 327.195 63.7267 327.523 63.9194C327.863 64.1007 328.147 64.3501 328.373 64.6674C328.611 64.9847 328.73 65.3871 328.73 65.8744C328.73 66.3504 328.606 66.7811 328.356 67.1664C328.118 67.5404 327.761 67.8407 327.285 68.0674C326.809 68.2941 326.243 68.4074 325.585 68.4074Z" fill="#484848"/>
<path d="M197.169 179.568H200.535C203.368 179.568 204.785 180.69 204.785 182.934C204.785 184.102 204.4 184.986 203.629 185.586C202.87 186.176 201.861 186.47 200.603 186.47H198.903V190.703H197.169V179.568ZM200.433 185.076C201.328 185.076 201.991 184.901 202.422 184.549C202.853 184.198 203.068 183.66 203.068 182.934C203.068 182.22 202.847 181.716 202.405 181.421C201.974 181.115 201.294 180.962 200.365 180.962H198.903V185.076H200.433Z" fill="#484848"/>
<path d="M206.964 182.39H208.375L208.511 183.886H208.562C208.857 183.354 209.208 182.94 209.616 182.645C210.036 182.339 210.472 182.186 210.925 182.186C211.299 182.186 211.605 182.243 211.843 182.356L211.537 183.852C211.231 183.762 210.954 183.716 210.704 183.716C210.33 183.716 209.962 183.864 209.599 184.158C209.237 184.442 208.931 184.895 208.681 185.518V190.703H206.964V182.39Z" fill="#484848"/>
<path d="M216.459 190.907C215.768 190.907 215.122 190.732 214.521 190.38C213.921 190.029 213.439 189.525 213.076 188.867C212.725 188.21 212.549 187.439 212.549 186.555C212.549 185.66 212.725 184.884 213.076 184.226C213.439 183.569 213.915 183.065 214.504 182.713C215.105 182.362 215.757 182.186 216.459 182.186C217.162 182.186 217.808 182.362 218.397 182.713C218.998 183.065 219.474 183.569 219.825 184.226C220.188 184.884 220.369 185.66 220.369 186.555C220.369 187.439 220.188 188.21 219.825 188.867C219.474 189.525 218.998 190.029 218.397 190.38C217.797 190.732 217.151 190.907 216.459 190.907ZM216.459 189.496C217.117 189.496 217.638 189.23 218.023 188.697C218.409 188.153 218.601 187.439 218.601 186.555C218.601 185.671 218.403 184.957 218.006 184.413C217.621 183.869 217.105 183.597 216.459 183.597C215.813 183.597 215.292 183.869 214.895 184.413C214.51 184.957 214.317 185.671 214.317 186.555C214.317 187.439 214.51 188.153 214.895 188.697C215.281 189.23 215.802 189.496 216.459 189.496Z" fill="#484848"/>
<path d="M225.434 194.443C224.402 194.443 223.569 194.251 222.935 193.865C222.3 193.491 221.983 192.953 221.983 192.25C221.983 191.899 222.085 191.565 222.289 191.247C222.504 190.941 222.804 190.669 223.19 190.431V190.363C222.691 190.046 222.442 189.587 222.442 188.986C222.442 188.68 222.527 188.391 222.697 188.119C222.878 187.847 223.099 187.621 223.36 187.439V187.371C223.054 187.133 222.793 186.822 222.578 186.436C222.374 186.051 222.272 185.626 222.272 185.161C222.272 184.561 222.413 184.034 222.697 183.58C222.991 183.127 223.382 182.781 223.87 182.543C224.368 182.305 224.907 182.186 225.485 182.186C225.915 182.186 226.318 182.254 226.692 182.39H229.633V183.682H228.035C228.205 183.864 228.341 184.09 228.443 184.362C228.545 184.623 228.596 184.906 228.596 185.212C228.596 186.096 228.301 186.793 227.712 187.303C227.122 187.813 226.38 188.068 225.485 188.068C225.077 188.068 224.686 187.983 224.312 187.813C224.164 187.949 224.051 188.085 223.972 188.221C223.892 188.346 223.853 188.505 223.853 188.697C223.853 188.958 223.96 189.162 224.176 189.309C224.391 189.445 224.748 189.513 225.247 189.513H226.794C227.791 189.513 228.533 189.678 229.021 190.006C229.519 190.335 229.769 190.845 229.769 191.536C229.769 192.069 229.587 192.556 229.225 192.998C228.873 193.44 228.369 193.792 227.712 194.052C227.054 194.313 226.295 194.443 225.434 194.443ZM225.485 186.963C225.938 186.963 226.312 186.799 226.607 186.47C226.913 186.142 227.066 185.705 227.066 185.161C227.066 184.617 226.913 184.187 226.607 183.869C226.312 183.552 225.938 183.393 225.485 183.393C225.031 183.393 224.652 183.552 224.346 183.869C224.051 184.187 223.904 184.617 223.904 185.161C223.904 185.705 224.051 186.142 224.346 186.47C224.652 186.799 225.031 186.963 225.485 186.963ZM225.689 193.304C226.153 193.304 226.567 193.236 226.93 193.1C227.304 192.964 227.593 192.777 227.797 192.539C228.001 192.313 228.103 192.069 228.103 191.808C228.103 191.468 227.972 191.23 227.712 191.094C227.462 190.958 227.077 190.89 226.556 190.89H225.281C224.861 190.89 224.493 190.851 224.176 190.771C223.688 191.134 223.445 191.542 223.445 191.995C223.445 192.403 223.643 192.721 224.04 192.947C224.436 193.185 224.986 193.304 225.689 193.304Z" fill="#484848"/>
<path d="M231.464 182.39H232.875L233.011 183.886H233.062C233.356 183.354 233.708 182.94 234.116 182.645C234.535 182.339 234.971 182.186 235.425 182.186C235.799 182.186 236.105 182.243 236.343 182.356L236.037 183.852C235.731 183.762 235.453 183.716 235.204 183.716C234.83 183.716 234.461 183.864 234.099 184.158C233.736 184.442 233.43 184.895 233.181 185.518V190.703H231.464V182.39Z" fill="#484848"/>
<path d="M239.333 190.907C238.608 190.907 238.018 190.692 237.565 190.261C237.112 189.819 236.885 189.23 236.885 188.493C236.885 187.598 237.282 186.912 238.075 186.436C238.868 185.949 240.132 185.609 241.866 185.416C241.843 184.192 241.311 183.58 240.268 183.58C239.565 183.58 238.766 183.864 237.871 184.43L237.225 183.274C238.358 182.549 239.475 182.186 240.574 182.186C241.583 182.186 242.336 182.492 242.835 183.104C243.334 183.705 243.583 184.572 243.583 185.705V190.703H242.172L242.036 189.751H241.985C241.067 190.522 240.183 190.907 239.333 190.907ZM239.86 189.547C240.211 189.547 240.54 189.468 240.846 189.309C241.152 189.151 241.492 188.901 241.866 188.561V186.504C240.665 186.652 239.809 186.878 239.299 187.184C238.8 187.49 238.551 187.887 238.551 188.374C238.551 188.76 238.67 189.054 238.908 189.258C239.146 189.451 239.463 189.547 239.86 189.547Z" fill="#484848"/>
<path d="M246.214 182.39H247.625L247.761 183.546H247.812C248.22 183.127 248.628 182.798 249.036 182.56C249.455 182.311 249.903 182.186 250.379 182.186C251.523 182.186 252.288 182.696 252.674 183.716C253.138 183.218 253.58 182.838 254 182.577C254.43 182.317 254.889 182.186 255.377 182.186C256.227 182.186 256.861 182.47 257.281 183.036C257.711 183.592 257.927 184.402 257.927 185.467V190.703H256.21V185.688C256.21 184.974 256.096 184.459 255.87 184.141C255.654 183.824 255.303 183.665 254.816 183.665C254.249 183.665 253.62 184.045 252.929 184.804V190.703H251.212V185.688C251.212 184.974 251.098 184.459 250.872 184.141C250.656 183.824 250.305 183.665 249.818 183.665C249.251 183.665 248.622 184.045 247.931 184.804V190.703H246.214V182.39Z" fill="#484848"/>
<path d="M201.504 210.907C200.563 210.907 199.719 210.681 198.971 210.227C198.223 209.774 197.634 209.117 197.203 208.255C196.772 207.383 196.557 206.351 196.557 205.161C196.557 203.983 196.778 202.957 197.22 202.084C197.662 201.212 198.263 200.543 199.022 200.078C199.793 199.602 200.648 199.364 201.589 199.364C202.235 199.364 202.824 199.495 203.357 199.755C203.901 200.016 204.36 200.35 204.734 200.758L203.799 201.88C203.153 201.212 202.428 200.877 201.623 200.877C200.977 200.877 200.405 201.053 199.906 201.404C199.419 201.744 199.033 202.232 198.75 202.866C198.478 203.501 198.342 204.249 198.342 205.11C198.342 206.436 198.631 207.485 199.209 208.255C199.798 209.015 200.586 209.394 201.572 209.394C202.501 209.394 203.323 208.998 204.037 208.204L204.972 209.292C204.054 210.369 202.898 210.907 201.504 210.907Z" fill="#484848"/>
<path d="M210.28 210.907C209.588 210.907 208.942 210.732 208.342 210.38C207.741 210.029 207.259 209.525 206.897 208.867C206.545 208.21 206.37 207.439 206.37 206.555C206.37 205.66 206.545 204.884 206.897 204.226C207.259 203.569 207.735 203.065 208.325 202.713C208.925 202.362 209.577 202.186 210.28 202.186C210.982 202.186 211.628 202.362 212.218 202.713C212.818 203.065 213.294 203.569 213.646 204.226C214.008 204.884 214.19 205.66 214.19 206.555C214.19 207.439 214.008 208.21 213.646 208.867C213.294 209.525 212.818 210.029 212.218 210.38C211.617 210.732 210.971 210.907 210.28 210.907ZM210.28 209.496C210.937 209.496 211.458 209.23 211.844 208.697C212.229 208.153 212.422 207.439 212.422 206.555C212.422 205.671 212.223 204.957 211.827 204.413C211.441 203.869 210.926 203.597 210.28 203.597C209.634 203.597 209.112 203.869 208.716 204.413C208.33 204.957 208.138 205.671 208.138 206.555C208.138 207.439 208.33 208.153 208.716 208.697C209.101 209.23 209.622 209.496 210.28 209.496Z" fill="#484848"/>
<path d="M219.73 210.907C219.039 210.907 218.393 210.732 217.792 210.38C217.191 210.029 216.71 209.525 216.347 208.867C215.996 208.21 215.82 207.439 215.82 206.555C215.82 205.66 215.996 204.884 216.347 204.226C216.71 203.569 217.186 203.065 217.775 202.713C218.376 202.362 219.027 202.186 219.73 202.186C220.433 202.186 221.079 202.362 221.668 202.713C222.269 203.065 222.745 203.569 223.096 204.226C223.459 204.884 223.64 205.66 223.64 206.555C223.64 207.439 223.459 208.21 223.096 208.867C222.745 209.525 222.269 210.029 221.668 210.38C221.067 210.732 220.421 210.907 219.73 210.907ZM219.73 209.496C220.387 209.496 220.909 209.23 221.294 208.697C221.679 208.153 221.872 207.439 221.872 206.555C221.872 205.671 221.674 204.957 221.277 204.413C220.892 203.869 220.376 203.597 219.73 203.597C219.084 203.597 218.563 203.869 218.166 204.413C217.781 204.957 217.588 205.671 217.588 206.555C217.588 207.439 217.781 208.153 218.166 208.697C218.551 209.23 219.073 209.496 219.73 209.496Z" fill="#484848"/>
<path d="M225.848 202.39H227.259L227.395 203.886H227.446C227.741 203.354 228.092 202.94 228.5 202.645C228.92 202.339 229.356 202.186 229.809 202.186C230.183 202.186 230.489 202.243 230.727 202.356L230.421 203.852C230.115 203.762 229.838 203.716 229.588 203.716C229.214 203.716 228.846 203.864 228.483 204.158C228.121 204.442 227.815 204.895 227.565 205.518V210.703H225.848V202.39Z" fill="#484848"/>
<path d="M234.884 210.907C233.842 210.907 233.009 210.522 232.385 209.751C231.773 208.981 231.467 207.915 231.467 206.555C231.467 205.683 231.632 204.918 231.96 204.26C232.289 203.592 232.725 203.082 233.269 202.73C233.813 202.368 234.397 202.186 235.02 202.186C235.462 202.186 235.853 202.266 236.193 202.424C236.533 202.572 236.89 202.804 237.264 203.121L237.196 201.744V198.65H238.913V210.703H237.502L237.366 209.768H237.315C236.975 210.108 236.596 210.386 236.176 210.601C235.757 210.805 235.326 210.907 234.884 210.907ZM235.292 209.479C235.644 209.479 235.972 209.4 236.278 209.241C236.584 209.071 236.89 208.811 237.196 208.459V204.379C236.63 203.869 236.018 203.614 235.36 203.614C234.964 203.614 234.601 203.733 234.272 203.971C233.955 204.209 233.7 204.549 233.507 204.991C233.326 205.433 233.235 205.949 233.235 206.538C233.235 207.479 233.411 208.204 233.762 208.714C234.125 209.224 234.635 209.479 235.292 209.479Z" fill="#484848"/>
<path d="M241.694 202.39H243.411V210.703H241.694V202.39ZM242.561 200.826C242.255 200.826 242 200.73 241.796 200.537C241.603 200.345 241.507 200.095 241.507 199.789C241.507 199.495 241.603 199.251 241.796 199.058C242 198.866 242.255 198.769 242.561 198.769C242.867 198.769 243.116 198.866 243.309 199.058C243.513 199.251 243.615 199.495 243.615 199.789C243.615 200.095 243.513 200.345 243.309 200.537C243.116 200.73 242.867 200.826 242.561 200.826Z" fill="#484848"/>
<path d="M246.197 202.39H247.608L247.744 203.546H247.795C248.237 203.116 248.673 202.781 249.104 202.543C249.546 202.305 250.028 202.186 250.549 202.186C252.249 202.186 253.099 203.28 253.099 205.467V210.703H251.382V205.688C251.382 204.974 251.269 204.459 251.042 204.141C250.827 203.824 250.47 203.665 249.971 203.665C249.597 203.665 249.263 203.756 248.968 203.937C248.673 204.107 248.322 204.396 247.914 204.804V210.703H246.197V202.39Z" fill="#484848"/>
<path d="M257.752 210.907C257.027 210.907 256.438 210.692 255.984 210.261C255.531 209.819 255.304 209.23 255.304 208.493C255.304 207.598 255.701 206.912 256.494 206.436C257.288 205.949 258.551 205.609 260.285 205.416C260.263 204.192 259.73 203.58 258.687 203.58C257.985 203.58 257.186 203.864 256.29 204.43L255.644 203.274C256.778 202.549 257.894 202.186 258.993 202.186C260.002 202.186 260.756 202.492 261.254 203.104C261.753 203.705 262.002 204.572 262.002 205.705V210.703H260.591L260.455 209.751H260.404C259.486 210.522 258.602 210.907 257.752 210.907ZM258.279 209.547C258.631 209.547 258.959 209.468 259.265 209.309C259.571 209.151 259.911 208.901 260.285 208.561V206.504C259.084 206.652 258.228 206.878 257.718 207.184C257.22 207.49 256.97 207.887 256.97 208.374C256.97 208.76 257.089 209.054 257.327 209.258C257.565 209.451 257.883 209.547 258.279 209.547Z" fill="#484848"/>
<path d="M267.172 210.907C265.494 210.907 264.656 209.938 264.656 208V203.767H263.449V202.475L264.741 202.39L264.945 200.095H266.373V202.39H268.549V203.767H266.373V208C266.373 208.51 266.469 208.896 266.662 209.156C266.854 209.406 267.166 209.53 267.597 209.53C267.857 209.53 268.158 209.462 268.498 209.326L268.804 210.601C268.192 210.805 267.648 210.907 267.172 210.907Z" fill="#484848"/>
<path d="M270.514 202.39H272.231V210.703H270.514V202.39ZM271.381 200.826C271.075 200.826 270.82 200.73 270.616 200.537C270.423 200.345 270.327 200.095 270.327 199.789C270.327 199.495 270.423 199.251 270.616 199.058C270.82 198.866 271.075 198.769 271.381 198.769C271.687 198.769 271.936 198.866 272.129 199.058C272.333 199.251 272.435 199.495 272.435 199.789C272.435 200.095 272.333 200.345 272.129 200.537C271.936 200.73 271.687 200.826 271.381 200.826Z" fill="#484848"/>
<path d="M278.349 210.907C277.657 210.907 277.011 210.732 276.411 210.38C275.81 210.029 275.328 209.525 274.966 208.867C274.614 208.21 274.439 207.439 274.439 206.555C274.439 205.66 274.614 204.884 274.966 204.226C275.328 203.569 275.804 203.065 276.394 202.713C276.994 202.362 277.646 202.186 278.349 202.186C279.051 202.186 279.697 202.362 280.287 202.713C280.887 203.065 281.363 203.569 281.715 204.226C282.077 204.884 282.259 205.66 282.259 206.555C282.259 207.439 282.077 208.21 281.715 208.867C281.363 209.525 280.887 210.029 280.287 210.38C279.686 210.732 279.04 210.907 278.349 210.907ZM278.349 209.496C279.006 209.496 279.527 209.23 279.913 208.697C280.298 208.153 280.491 207.439 280.491 206.555C280.491 205.671 280.292 204.957 279.896 204.413C279.51 203.869 278.995 203.597 278.349 203.597C277.703 203.597 277.181 203.869 276.785 204.413C276.399 204.957 276.207 205.671 276.207 206.555C276.207 207.439 276.399 208.153 276.785 208.697C277.17 209.23 277.691 209.496 278.349 209.496Z" fill="#484848"/>
<path d="M284.467 202.39H285.878L286.014 203.546H286.065C286.507 203.116 286.943 202.781 287.374 202.543C287.816 202.305 288.298 202.186 288.819 202.186C290.519 202.186 291.369 203.28 291.369 205.467V210.703H289.652V205.688C289.652 204.974 289.539 204.459 289.312 204.141C289.097 203.824 288.74 203.665 288.241 203.665C287.867 203.665 287.533 203.756 287.238 203.937C286.943 204.107 286.592 204.396 286.184 204.804V210.703H284.467V202.39Z" fill="#484848"/>
<circle opacity="0.5" cx="157.101" cy="27.5449" r="24" fill="#81D3C8"/>
<path d="M141.71 21.791H143.444V26.347H148.238V21.791H149.972V32.926H148.238V27.86H143.444V32.926H141.71V21.791Z" fill="#484848"/>
<path d="M159.512 28.336C159.512 28.6534 159.49 28.948 159.444 29.22H153.953C154.033 30.0587 154.316 30.699 154.803 31.141C155.302 31.5717 155.903 31.787 156.605 31.787C157.274 31.787 157.937 31.5774 158.594 31.158L159.189 32.246C158.305 32.8354 157.37 33.13 156.384 33.13C155.625 33.13 154.939 32.9544 154.327 32.603C153.715 32.2517 153.228 31.7474 152.865 31.09C152.514 30.4327 152.338 29.662 152.338 28.778C152.338 27.9054 152.514 27.1404 152.865 26.483C153.228 25.8144 153.698 25.3044 154.276 24.953C154.854 24.5904 155.472 24.409 156.129 24.409C157.206 24.409 158.039 24.766 158.628 25.48C159.218 26.1827 159.512 27.1347 159.512 28.336ZM158.016 28.03C158.016 27.3047 157.858 26.7437 157.54 26.347C157.223 25.9504 156.764 25.752 156.163 25.752C155.642 25.752 155.177 25.9447 154.769 26.33C154.361 26.7154 154.101 27.282 153.987 28.03H158.016Z" fill="#484848"/>
<path d="M163.376 33.13C162.651 33.13 162.061 32.9147 161.608 32.484C161.155 32.042 160.928 31.4527 160.928 30.716C160.928 29.8207 161.325 29.135 162.118 28.659C162.911 28.1717 164.175 27.8317 165.909 27.639C165.886 26.415 165.354 25.803 164.311 25.803C163.608 25.803 162.809 26.0864 161.914 26.653L161.268 25.497C162.401 24.7717 163.518 24.409 164.617 24.409C165.626 24.409 166.379 24.715 166.878 25.327C167.377 25.9277 167.626 26.7947 167.626 27.928V32.926H166.215L166.079 31.974H166.028C165.11 32.7447 164.226 33.13 163.376 33.13ZM163.903 31.77C164.254 31.77 164.583 31.6907 164.889 31.532C165.195 31.3734 165.535 31.124 165.909 30.784V28.727C164.708 28.8744 163.852 29.101 163.342 29.407C162.843 29.713 162.594 30.1097 162.594 30.597C162.594 30.9824 162.713 31.277 162.951 31.481C163.189 31.6737 163.506 31.77 163.903 31.77Z" fill="#484848"/>
<path d="M171.973 33.13C171.373 33.13 170.936 32.9487 170.664 32.586C170.392 32.2234 170.256 31.6907 170.256 30.988V20.873H171.973V31.09C171.973 31.3054 172.013 31.464 172.092 31.566C172.172 31.668 172.268 31.719 172.381 31.719C172.483 31.719 172.585 31.7077 172.687 31.685L172.908 32.977C172.648 33.079 172.336 33.13 171.973 33.13Z" fill="#484848"/>
<path d="M177.697 33.13C176.02 33.13 175.181 32.161 175.181 30.223V25.99H173.974V24.698L175.266 24.613L175.47 22.318H176.898V24.613H179.074V25.99H176.898V30.223C176.898 30.733 176.994 31.1184 177.187 31.379C177.38 31.6284 177.691 31.753 178.122 31.753C178.383 31.753 178.683 31.685 179.023 31.549L179.329 32.824C178.717 33.028 178.173 33.13 177.697 33.13Z" fill="#484848"/>
<path d="M181.039 20.873H182.756V24.069L182.688 25.718C183.119 25.31 183.544 24.9927 183.963 24.766C184.394 24.528 184.87 24.409 185.391 24.409C187.091 24.409 187.941 25.5027 187.941 27.69V32.926H186.224V27.911C186.224 27.197 186.111 26.6814 185.884 26.364C185.669 26.0467 185.312 25.888 184.813 25.888C184.439 25.888 184.105 25.9787 183.81 26.16C183.515 26.33 183.164 26.619 182.756 27.027V32.926H181.039V20.873Z" fill="#484848"/>
<path d="M193.972 33.13C193.224 33.13 192.549 32.96 191.949 32.62C191.348 32.2687 190.872 31.7644 190.521 31.107C190.181 30.4497 190.011 29.6734 190.011 28.778C190.011 27.8827 190.198 27.1064 190.572 26.449C190.946 25.7917 191.444 25.2874 192.068 24.936C192.691 24.5847 193.371 24.409 194.108 24.409C195.014 24.409 195.825 24.7264 196.539 25.361L195.689 26.483C195.439 26.2677 195.196 26.1034 194.958 25.99C194.72 25.8767 194.465 25.82 194.193 25.82C193.479 25.82 192.895 26.092 192.442 26.636C192 27.18 191.779 27.894 191.779 28.778C191.779 29.662 191.994 30.376 192.425 30.92C192.867 31.4527 193.439 31.719 194.142 31.719C194.765 31.719 195.371 31.464 195.961 30.954L196.675 32.093C196.301 32.433 195.876 32.6937 195.4 32.875C194.935 33.045 194.459 33.13 193.972 33.13Z" fill="#484848"/>
<path d="M200.367 33.13C199.642 33.13 199.053 32.9147 198.599 32.484C198.146 32.042 197.919 31.4527 197.919 30.716C197.919 29.8207 198.316 29.135 199.109 28.659C199.903 28.1717 201.166 27.8317 202.9 27.639C202.878 26.415 202.345 25.803 201.302 25.803C200.6 25.803 199.801 26.0864 198.905 26.653L198.259 25.497C199.393 24.7717 200.509 24.409 201.608 24.409C202.617 24.409 203.371 24.715 203.869 25.327C204.368 25.9277 204.617 26.7947 204.617 27.928V32.926H203.206L203.07 31.974H203.019C202.101 32.7447 201.217 33.13 200.367 33.13ZM200.894 31.77C201.246 31.77 201.574 31.6907 201.88 31.532C202.186 31.3734 202.526 31.124 202.9 30.784V28.727C201.699 28.8744 200.843 29.101 200.333 29.407C199.835 29.713 199.585 30.1097 199.585 30.597C199.585 30.9824 199.704 31.277 199.942 31.481C200.18 31.6737 200.498 31.77 200.894 31.77Z" fill="#484848"/>
<path d="M207.248 24.613H208.659L208.795 26.109H208.846C209.141 25.5764 209.492 25.1627 209.9 24.868C210.319 24.562 210.756 24.409 211.209 24.409C211.583 24.409 211.889 24.4657 212.127 24.579L211.821 26.075C211.515 25.9844 211.237 25.939 210.988 25.939C210.614 25.939 210.246 26.0864 209.883 26.381C209.52 26.6644 209.214 27.1177 208.965 27.741V32.926H207.248V24.613Z" fill="#484848"/>
<path d="M220.007 28.336C220.007 28.6534 219.985 28.948 219.939 29.22H214.448C214.528 30.0587 214.811 30.699 215.298 31.141C215.797 31.5717 216.398 31.787 217.1 31.787C217.769 31.787 218.432 31.5774 219.089 31.158L219.684 32.246C218.8 32.8354 217.865 33.13 216.879 33.13C216.12 33.13 215.434 32.9544 214.822 32.603C214.21 32.2517 213.723 31.7474 213.36 31.09C213.009 30.4327 212.833 29.662 212.833 28.778C212.833 27.9054 213.009 27.1404 213.36 26.483C213.723 25.8144 214.193 25.3044 214.771 24.953C215.349 24.5904 215.967 24.409 216.624 24.409C217.701 24.409 218.534 24.766 219.123 25.48C219.713 26.1827 220.007 27.1347 220.007 28.336ZM218.511 28.03C218.511 27.3047 218.353 26.7437 218.035 26.347C217.718 25.9504 217.259 25.752 216.658 25.752C216.137 25.752 215.672 25.9447 215.264 26.33C214.856 26.7154 214.596 27.282 214.482 28.03H218.511Z" fill="#484848"/>
<circle opacity="0.5" cx="273.397" cy="96.4941" r="12" fill="#81D3C8"/>
<path d="M274.488 123.066C273.548 123.066 272.703 122.839 271.955 122.386C271.207 121.932 270.618 121.275 270.187 120.414C269.757 119.541 269.541 118.51 269.541 117.32C269.541 116.141 269.762 115.115 270.204 114.243C270.646 113.37 271.247 112.701 272.006 112.237C272.777 111.761 273.633 111.523 274.573 111.523C275.219 111.523 275.809 111.653 276.341 111.914C276.885 112.174 277.344 112.509 277.718 112.917L276.783 114.039C276.137 113.37 275.412 113.036 274.607 113.036C273.961 113.036 273.389 113.211 272.89 113.563C272.403 113.903 272.018 114.39 271.734 115.025C271.462 115.659 271.326 116.407 271.326 117.269C271.326 118.595 271.615 119.643 272.193 120.414C272.783 121.173 273.57 121.553 274.556 121.553C275.486 121.553 276.307 121.156 277.021 120.363L277.956 121.451C277.038 122.527 275.882 123.066 274.488 123.066Z" fill="#484848"/>
<path d="M279.932 110.809H281.649V114.005L281.581 115.654C282.012 115.246 282.437 114.928 282.856 114.702C283.287 114.464 283.763 114.345 284.284 114.345C285.984 114.345 286.834 115.438 286.834 117.626V122.862H285.117V117.847C285.117 117.133 285.004 116.617 284.777 116.3C284.562 115.982 284.205 115.824 283.706 115.824C283.332 115.824 282.998 115.914 282.703 116.096C282.408 116.266 282.057 116.555 281.649 116.963V122.862H279.932V110.809Z" fill="#484848"/>
<path d="M289.482 114.549H291.199V122.862H289.482V114.549ZM290.349 112.985C290.043 112.985 289.788 112.888 289.584 112.696C289.391 112.503 289.295 112.254 289.295 111.948C289.295 111.653 289.391 111.409 289.584 111.217C289.788 111.024 290.043 110.928 290.349 110.928C290.655 110.928 290.904 111.024 291.097 111.217C291.301 111.409 291.403 111.653 291.403 111.948C291.403 112.254 291.301 112.503 291.097 112.696C290.904 112.888 290.655 112.985 290.349 112.985Z" fill="#484848"/>
<path d="M295.702 123.066C295.101 123.066 294.665 122.884 294.393 122.522C294.121 122.159 293.985 121.626 293.985 120.924V110.809H295.702V121.026C295.702 121.241 295.742 121.4 295.821 121.502C295.9 121.604 295.997 121.655 296.11 121.655C296.212 121.655 296.314 121.643 296.416 121.621L296.637 122.913C296.376 123.015 296.065 123.066 295.702 123.066Z" fill="#484848"/>
<path d="M301.51 123.066C300.468 123.066 299.635 122.68 299.011 121.91C298.399 121.139 298.093 120.074 298.093 118.714C298.093 117.841 298.258 117.076 298.586 116.419C298.915 115.75 299.351 115.24 299.895 114.889C300.439 114.526 301.023 114.345 301.646 114.345C302.088 114.345 302.479 114.424 302.819 114.583C303.159 114.73 303.516 114.962 303.89 115.28L303.822 113.903V110.809H305.539V122.862H304.128L303.992 121.927H303.941C303.601 122.267 303.222 122.544 302.802 122.76C302.383 122.964 301.952 123.066 301.51 123.066ZM301.918 121.638C302.27 121.638 302.598 121.558 302.904 121.4C303.21 121.23 303.516 120.969 303.822 120.618V116.538C303.256 116.028 302.644 115.773 301.986 115.773C301.59 115.773 301.227 115.892 300.898 116.13C300.581 116.368 300.326 116.708 300.133 117.15C299.952 117.592 299.861 118.107 299.861 118.697C299.861 119.637 300.037 120.363 300.388 120.873C300.751 121.383 301.261 121.638 301.918 121.638Z" fill="#484848"/>
<path d="M311.703 123.066C310.955 123.066 310.281 122.896 309.68 122.556C309.079 122.204 308.603 121.7 308.252 121.043C307.912 120.385 307.742 119.609 307.742 118.714C307.742 117.818 307.929 117.042 308.303 116.385C308.677 115.727 309.176 115.223 309.799 114.872C310.422 114.52 311.102 114.345 311.839 114.345C312.746 114.345 313.556 114.662 314.27 115.297L313.42 116.419C313.171 116.203 312.927 116.039 312.689 115.926C312.451 115.812 312.196 115.756 311.924 115.756C311.21 115.756 310.626 116.028 310.173 116.572C309.731 117.116 309.51 117.83 309.51 118.714C309.51 119.598 309.725 120.312 310.156 120.856C310.598 121.388 311.17 121.655 311.873 121.655C312.496 121.655 313.103 121.4 313.692 120.89L314.406 122.029C314.032 122.369 313.607 122.629 313.131 122.811C312.666 122.981 312.19 123.066 311.703 123.066Z" fill="#484848"/>
<path d="M318.099 123.066C317.373 123.066 316.784 122.85 316.331 122.42C315.877 121.978 315.651 121.388 315.651 120.652C315.651 119.756 316.047 119.071 316.841 118.595C317.634 118.107 318.898 117.767 320.632 117.575C320.609 116.351 320.076 115.739 319.034 115.739C318.331 115.739 317.532 116.022 316.637 116.589L315.991 115.433C317.124 114.707 318.24 114.345 319.34 114.345C320.348 114.345 321.102 114.651 321.601 115.263C322.099 115.863 322.349 116.73 322.349 117.864V122.862H320.938L320.802 121.91H320.751C319.833 122.68 318.949 123.066 318.099 123.066ZM318.626 121.706C318.977 121.706 319.306 121.626 319.612 121.468C319.918 121.309 320.258 121.06 320.632 120.72V118.663C319.43 118.81 318.575 119.037 318.065 119.343C317.566 119.649 317.317 120.045 317.317 120.533C317.317 120.918 317.436 121.213 317.674 121.417C317.912 121.609 318.229 121.706 318.626 121.706Z" fill="#484848"/>
<path d="M324.979 114.549H326.39L326.526 116.045H326.577C326.872 115.512 327.223 115.098 327.631 114.804C328.051 114.498 328.487 114.345 328.94 114.345C329.314 114.345 329.62 114.401 329.858 114.515L329.552 116.011C329.246 115.92 328.969 115.875 328.719 115.875C328.345 115.875 327.977 116.022 327.614 116.317C327.252 116.6 326.946 117.053 326.696 117.677V122.862H324.979V114.549Z" fill="#484848"/>
<path d="M337.739 118.272C337.739 118.589 337.716 118.884 337.671 119.156H332.18C332.259 119.994 332.542 120.635 333.03 121.077C333.528 121.507 334.129 121.723 334.832 121.723C335.5 121.723 336.163 121.513 336.821 121.094L337.416 122.182C336.532 122.771 335.597 123.066 334.611 123.066C333.851 123.066 333.166 122.89 332.554 122.539C331.942 122.187 331.454 121.683 331.092 121.026C330.74 120.368 330.565 119.598 330.565 118.714C330.565 117.841 330.74 117.076 331.092 116.419C331.454 115.75 331.925 115.24 332.503 114.889C333.081 114.526 333.698 114.345 334.356 114.345C335.432 114.345 336.265 114.702 336.855 115.416C337.444 116.118 337.739 117.07 337.739 118.272ZM336.243 117.966C336.243 117.24 336.084 116.679 335.767 116.283C335.449 115.886 334.99 115.688 334.39 115.688C333.868 115.688 333.404 115.88 332.996 116.266C332.588 116.651 332.327 117.218 332.214 117.966H336.243Z" fill="#484848"/>
</svg>
