<svg xmlns="http://www.w3.org/2000/svg" fill="none" viewBox="0 0 200 139">
  <ellipse cx="67.438" cy="122.589" fill="url(#paint0_linear)" fill-opacity=".4" filter="url(#filter0_f)" opacity=".7" rx="56.601" ry="5.797"/>
  <ellipse cx="68.839" cy="119.968" fill="#F5F5F5" filter="url(#filter1_f)" rx="39.087" ry="2.475"/>
  <g clip-path="url(#clip0)">
    <path fill="#FF945C" d="M115.288 27.939a60.909 60.909 0 0 0-8.338-10.797l-1.2-1.213-1.256-1.156c-.823-.788-1.727-1.486-2.603-2.221-.44-.363-.91-.69-1.366-1.038l-.69-.513-.347-.256-.358-.24c-.957-.632-1.907-1.291-2.918-1.854-.496-.281-.986-.585-1.49-.861l-1.527-.78-.766-.394-.783-.357-1.572-.715c-.53-.225-1.068-.428-1.603-.642-.535-.214-1.065-.436-1.617-.61-1.093-.364-2.177-.758-3.293-1.047a56.837 56.837 0 0 0-13.597-2.17A55.968 55.968 0 0 0 55.806 2.31l-1.738.394-1.718.473-.846.24-.845.28-1.69.564-1.665.638-.845.321c-.281.116-.546.24-.817.358l-1.633.72c-.535.26-1.065.53-1.6.797l-.812.383c-.264.137-.52.281-.78.433l-1.558.884c-.51.31-1.01.636-1.518.954l-.758.481c-.25.163-.49.34-.738.512l-1.465 1.036c-.478.357-.946.735-1.408 1.1l-.707.563c-.234.186-.456.389-.685.583l-1.369 1.148c-.442.403-.87.822-1.307 1.233l-.65.62c-.217.207-.417.43-.626.644l-1.24 1.297c-.402.442-.788.898-1.182 1.348l-.589.676c-.197.225-.375.464-.563.698l-1.113 1.407c-.364.473-.701.965-1.054 1.447-.352.48-.704.962-1.02 1.469l-.977 1.494c-.324.501-.608 1.022-.915 1.531-.626 1.013-1.155 2.08-1.713 3.13a8.42 8.42 0 0 0-.394.8l-.378.807-.363.819c-.127.281-.25.538-.36.816-.443 1.103-.925 2.193-1.294 3.324-.194.563-.4 1.126-.583 1.689l-.504 1.71-.25.845-.212.867-.414 1.74c-.13.582-.226 1.17-.338 1.756l-.16.88-.08.442-.059.445c-.15 1.185-.338 2.367-.403 3.563-.045.597-.095 1.194-.132 1.79l-.045 1.796-.023.898c0 .298 0 .6.02.898l.048 1.798c.122 2.398.398 4.786.825 7.149l.16.886.08.442.101.44.406 1.755c.124.589.31 1.16.465 1.74.155.58.312 1.17.498 1.733.386 1.126.741 2.283 1.2 3.395.223.563.423 1.125.668 1.671l.732 1.644c.234.563.516 1.084.783 1.618.268.535.53 1.075.823 1.602.597 1.041 1.16 2.102 1.823 3.096a56.823 56.823 0 0 0 4.2 5.843c.788.906 1.54 1.843 2.383 2.699.414.433.816.878 1.242 1.303l1.296 1.25c.425.424.879.816 1.332 1.212.454.397.899.797 1.36 1.18l1.41 1.125c.236.186.467.377.709.563l.732.527c.49.349.975.706 1.468 1.049l1.51.985.758.49.777.456 1.555.912 1.597.844.8.417.817.383 1.637.757c.563.239 1.127.456 1.67.684 1.107.472 2.254.844 3.38 1.235.282.104.564.189.862.282l.868.25c.58.16 1.152.349 1.738.484l1.758.411c.282.065.586.144.882.194l.887.161 1.777.315 1.792.225.994.121c.333.037.665.054 1 .079l2 .141 2.003.039c.335 0 .668.017 1.003 0l1.003-.031a54.202 54.202 0 0 0 7.969-.791l1.972-.366c.65-.143 1.298-.304 1.95-.456.323-.078.65-.149.97-.239l.962-.281.96-.282c.321-.093.642-.183.955-.295l1.893-.648c.631-.213 1.242-.481 1.865-.72l.93-.369c.306-.129.608-.281.912-.408.606-.281 1.22-.54 1.82-.844a57.692 57.692 0 0 0 11.572-7.425 51.207 51.207 0 0 0 9.197-9.969c.425-.636.099-.41-.335.226a49.882 49.882 0 0 1-8.913 9.397c-.408.358-.845.676-1.282 1.005l-1.281.999-1.347.92c-.45.304-.89.619-1.36.895-.927.563-1.84 1.157-2.798 1.664l-1.408.788-1.454.726c-1 .526-2.048.954-3.076 1.424-.515.236-1.05.422-1.574.636-.524.214-1.051.428-1.59.608-1.075.355-2.14.76-3.239 1.053l-1.64.472-1.661.383c-1.102.282-2.228.456-3.347.673-.281.056-.563.095-.845.132l-.845.115c-.563.071-1.126.164-1.69.214l-1.69.141-.845.068-.845.028-1.69.05c-.564 0-1.127-.016-1.69-.022a56.91 56.91 0 0 1-7.057-.605l-1.74-.31c-.581-.107-1.161-.2-1.733-.343-1.147-.282-2.299-.518-3.425-.867-.564-.169-1.127-.318-1.69-.501l-1.671-.563-.845-.281-.82-.33-1.684-.695a58.32 58.32 0 0 1-6.308-3.197c-1.03-.563-2.01-1.236-3.002-1.874l-.372-.242-.36-.259-.72-.515-.72-.501a13.401 13.401 0 0 1-.71-.532c-.924-.738-1.865-1.45-2.74-2.252-.443-.394-.9-.768-1.325-1.176l-1.279-1.227c-.434-.403-.845-.845-1.24-1.267-.394-.422-.819-.844-1.208-1.295-.763-.9-1.56-1.773-2.253-2.721-.36-.467-.73-.929-1.08-1.407L21.987 88.7c-.166-.242-.344-.478-.501-.726l-.474-.746c-.312-.498-.633-.993-.94-1.497a55.573 55.573 0 0 1-7.8-26.845c0-.588-.032-1.176-.037-1.762l.048-1.761.025-.881c.017-.282.042-.586.065-.878l.14-1.754c.049-.582.144-1.162.215-1.745l.115-.87c.037-.28.076-.58.133-.866l.315-1.725c.057-.282.099-.563.166-.862l.203-.844a55.091 55.091 0 0 1 4.795-13.16c.281-.515.532-1.033.81-1.543l.883-1.505.442-.752.476-.729.955-1.458a56.888 56.888 0 0 1 4.318-5.474 55.73 55.73 0 0 1 10.47-9.144c.471-.34.973-.636 1.463-.949.49-.312.977-.63 1.484-.917 1.017-.563 2.011-1.174 3.062-1.689a58.43 58.43 0 0 1 6.4-2.814l1.657-.563.828-.282.845-.244 1.69-.484 1.69-.406.845-.2c.282-.064.564-.11.845-.166l1.721-.315c.564-.098 1.155-.16 1.73-.242.575-.082 1.152-.166 1.735-.203l1.933-.157c.645-.05 1.293-.05 1.938-.076l.969-.031h.969l1.94.034 1.936.126.969.065.963.113 1.927.23 1.913.321c.318.057.64.102.955.17l.949.207c.63.144 1.267.282 1.893.431 1.248.349 2.507.659 3.727 1.092l.92.307c.308.098.615.205.916.326l1.812.704c.304.112.6.248.892.38l.888.397c.591.264 1.186.526 1.755.844l1.732.892 1.69.982c.282.166.564.324.845.501l.812.535.808.535c.282.177.541.354.797.563l1.558 1.15c.262.19.51.395.761.6l.746.614.747.614c.248.205.481.427.721.641l1.428 1.3a64.96 64.96 0 0 1 5.211 5.68c.406.498.786 1.019 1.181 1.525l.588.766.564.79c.366.53.752 1.048 1.104 1.588l1.051 1.63c.371.551.346.439-.023-.15z" opacity=".8"/>
    <path fill="#FF945C" d="M117.399 29.137c-4.003-7.174-9.73-13.354-16.482-18.156L99.39 9.948l-.763-.515-.786-.478-1.572-.957-1.617-.88-.808-.443-.828-.402-1.657-.802-1.69-.724-.845-.36c-.282-.118-.563-.214-.862-.324A55.42 55.42 0 0 0 73.652.686L71.812.52C71.2.49 70.583.472 69.969.447l-.924-.034h-.924l-1.848.031c-2.465.098-4.92.359-7.35.78-1.22.183-2.416.47-3.62.734-.3.062-.6.138-.895.223l-.89.242c-.592.168-1.192.304-1.775.506l-1.755.563c-.282.09-.583.194-.87.304l-.862.32c-1.16.406-2.282.907-3.412 1.386a60.707 60.707 0 0 0-6.524 3.377c-1.067.605-2.076 1.297-3.098 1.97-.513.335-.997.712-1.496 1.067-.498.354-1 .709-1.47 1.103L30.82 14.17c-.48.383-.924.805-1.389 1.208-.935.793-1.791 1.688-2.673 2.533a53.521 53.521 0 0 0-4.789 5.606 55.603 55.603 0 0 0-7.248 13.191 58.586 58.586 0 0 0-2.217 7.205c-.324 1.216-.527 2.455-.769 3.687l-.087.462-.065.467-.132.932-.133.931c-.045.31-.09.622-.112.935-.555 5-.46 10.05.281 15.026.36 2.486.888 4.945 1.578 7.36.377 1.199.726 2.412 1.186 3.583l.326.886c.107.296.217.591.347.878l.74 1.737a57.483 57.483 0 0 0 18.928 23.03c.495.386 1.028.718 1.546 1.073l.78.526c.26.177.522.352.792.509 1.073.651 2.138 1.32 3.256 1.897l.828.451.415.225.425.205 1.69.819.425.206.434.183.868.366.867.366.434.182.443.164a56.76 56.76 0 0 0 23.127 3.681c.707-.045 1.408-.082 2.123-.132l2.116-.234c.707-.062 1.408-.203 2.104-.309l1.05-.169c.35-.054.697-.141 1.043-.211a54.845 54.845 0 0 0 8.17-2.303c.661-.253 1.332-.478 1.971-.757l1.952-.844c.648-.282 1.276-.611 1.916-.918.315-.157.64-.304.952-.472l.93-.51c1.253-.656 2.447-1.407 3.662-2.153 1.168-.796 2.352-1.57 3.461-2.443.564-.425 1.127-.844 1.665-1.309.538-.464 1.09-.897 1.62-1.365l1.558-1.432c.265-.234.51-.487.758-.737l.743-.755a54.82 54.82 0 0 0 5.442-6.473c.206-.281.426-.563.62-.844l.586-.881.583-.881c.096-.147.197-.282.282-.442l.282-.453 1.081-1.816c.338-.619.665-1.243.995-1.863.36-.68.253-.678-.11 0l-.873 1.635c-.31.535-.634 1.062-.953 1.594l-.478.793c-.164.262-.344.515-.513.771l-1.037 1.537c-.363.501-.738.99-1.107 1.486l-.563.74c-.192.242-.392.479-.589.715l-1.186 1.427-1.251 1.368-.625.684-.656.653-1.319 1.303-1.374 1.241c-.231.205-.457.417-.69.616l-.716.589c-.479.388-.952.788-1.437 1.168l-1.484 1.106c-.251.18-.49.374-.746.546l-.767.518c-.512.34-1.017.698-1.538 1.027a58.151 58.151 0 0 1-13.366 6.29l-.882.282-.442.14-.448.121-1.791.482-.448.121-.454.098-.907.197-.907.194-.453.099-.457.076-1.83.298-.457.073-.462.054-.921.104-.921.101a12.39 12.39 0 0 1-.924.082l-1.851.11c-.617.05-1.237.033-1.854.045-.617.011-1.236.025-1.853 0-1.234-.062-2.473-.071-3.702-.214l-1.845-.178-1.834-.264-.915-.132c-.304-.051-.606-.116-.91-.175l-1.817-.357a57.811 57.811 0 0 1-7.112-2.063 56.28 56.28 0 0 1-28.451-22.634 59.999 59.999 0 0 1-3.553-6.383c-.563-1.087-1.014-2.224-1.51-3.341-.236-.563-.439-1.143-.659-1.711-.22-.569-.439-1.143-.617-1.728l-.563-1.745c-.18-.586-.327-1.18-.49-1.77-.347-1.177-.563-2.382-.845-3.575a54.301 54.301 0 0 1-.91-7.284c-.099-1.221-.085-2.446-.096-3.659-.017-.61.037-1.221.054-1.832.017-.61.04-1.221.095-1.832l.175-1.824c.034-.304.05-.608.096-.912l.132-.906.282-1.812.358-1.796a57.142 57.142 0 0 1 4.746-13.819c.254-.563.564-1.095.845-1.635.282-.54.564-1.084.882-1.613.642-1.044 1.24-2.116 1.947-3.118.346-.507.676-1.022 1.033-1.52l1.099-1.472c.358-.498.75-.968 1.14-1.438.392-.47.773-.952 1.178-1.408a57.066 57.066 0 0 1 10.986-9.692 58.555 58.555 0 0 1 6.276-3.747c1.096-.534 2.184-1.089 3.313-1.55l.845-.363c.282-.124.564-.242.845-.344l1.713-.644c.563-.228 1.155-.391 1.735-.586l.87-.281c.282-.096.58-.189.877-.262 1.18-.315 2.355-.658 3.555-.892A56.1 56.1 0 0 1 63.46.835l2.022-.13.504-.03H67.506C68.855.63 70.2.717 71.55.765c.673.042 1.343.115 2.014.174l1.005.093 1 .141 2 .281 1.972.389c.33.067.662.12.99.202l.98.245c.653.17 1.312.313 1.957.504l1.935.588.485.147.476.169.952.343c1.279.43 2.513.982 3.76 1.5.615.281 1.22.58 1.832.867.304.146.61.281.912.442l.893.481a57.1 57.1 0 0 1 12.736 9.229 59.814 59.814 0 0 1 5.276 5.862c.769 1.058 1.574 2.08 2.253 3.175l.533.808c.177.281.357.537.515.816l.975 1.655c.171.324.374.632.605.917.116.06.068-.13-.208-.656z" opacity=".8"/>
    <path fill="#FF945C" d="M117.987 33.154l-.713-1.432c-.253-.47-.518-.932-.777-1.407-.505-.943-1.088-1.838-1.654-2.744-.282-.46-.589-.893-.893-1.332l-.918-1.317-.978-1.272c-.329-.422-.645-.844-1-1.255a57.797 57.797 0 0 0-9.222-8.888 56.207 56.207 0 0 0-10.986-6.53c-.48-.236-.983-.422-1.476-.625l-1.488-.602-1.515-.529c-.507-.169-1.006-.369-1.524-.507l-1.541-.45c-.256-.073-.513-.155-.772-.222l-.78-.186-1.56-.366c-.522-.13-1.051-.205-1.578-.31a58.925 58.925 0 0 0-12.789-.996c-4.29.167-8.545.843-12.676 2.013l-.778.213-.766.25-1.532.502c-.513.163-1.009.374-1.513.563-.504.188-1.008.374-1.504.585a56.686 56.686 0 0 0-5.806 2.815c-.467.267-.946.512-1.408.796l-1.372.844-.685.428-.665.459-1.33.918c-.441.306-.858.647-1.29.97-.43.324-.864.645-1.273.994l-1.233 1.044c-.206.175-.414.346-.614.524l-.592.563-1.18 1.103c-.389.374-.755.768-1.127 1.154l-.563.58c-.19.19-.375.388-.55.593L26.3 21.308c-.175.206-.36.4-.53.611l-.51.62-1.008 1.263c-.324.43-.634.872-.95 1.309-.315.436-.645.864-.926 1.322a57.439 57.439 0 0 0-5.916 11.464 54.048 54.048 0 0 0-3.03 12.457 56.433 56.433 0 0 0 2.59 25.33 53.363 53.363 0 0 0 5.561 11.539 56.498 56.498 0 0 0 3.753 5.204l1.045 1.216c.352.402.687.819 1.062 1.199.74.768 1.453 1.567 2.253 2.288l1.158 1.106 1.206 1.052c.791.718 1.645 1.36 2.478 2.024.412.338.846.642 1.285.951l1.301.929 1.344.87c.45.281.887.591 1.355.844a55.117 55.117 0 0 0 11.628 5.218 55.788 55.788 0 0 0 12.496 2.392c4.253.34 8.531.207 12.755-.394a54.765 54.765 0 0 0 12.31-3.349 55.318 55.318 0 0 0 11.18-6.085 56.85 56.85 0 0 0 5.012-3.94c.397-.355.777-.726 1.166-1.086.389-.36.789-.715 1.149-1.106.733-.772 1.499-1.509 2.181-2.325.543-.62.323-.718-.217-.101l-.524.596c-.178.197-.367.383-.55.563l-1.104 1.14c-.363.386-.766.732-1.146 1.098a36.14 36.14 0 0 1-1.164 1.08 56.125 56.125 0 0 1-5 3.927 54.06 54.06 0 0 1-11.155 6.037 54.208 54.208 0 0 1-24.93 3.701 57.535 57.535 0 0 1-6.295-.87l-.392-.07-.389-.09-.774-.178-1.55-.357-1.53-.434c-.506-.152-1.025-.281-1.523-.453a54.901 54.901 0 0 1-11.566-5.26 57.02 57.02 0 0 1-10.068-7.768l-.564-.563c-.188-.186-.369-.382-.563-.563l-1.099-1.154c-.371-.38-.7-.799-1.053-1.196-.352-.397-.701-.799-1.034-1.213a53.553 53.553 0 0 1-3.715-5.184c-4.58-7.188-7.31-15.48-8.17-23.923a53.47 53.47 0 0 1 .336-12.704 57.416 57.416 0 0 1 9.014-23.594 53.773 53.773 0 0 1 8.307-9.668A56.573 56.573 0 0 1 47.336 6.67c.492-.202.994-.39 1.49-.585.495-.194.988-.402 1.498-.563 1.017-.326 2.017-.7 3.054-.962a54.343 54.343 0 0 1 12.606-2.007 57.796 57.796 0 0 1 12.718.965c8.377 1.537 16.307 5.17 23.082 10.29a56.354 56.354 0 0 1 9.141 8.834c.352.397.659.845.986 1.25.326.405.65.844.966 1.264l.91 1.306.453.653c.152.216.282.447.428.67l.845 1.348.212.337.194.347.392.692c.256.464.526.92.774 1.39l.716 1.422.36.709c.119.228.322.07-.174-.876z"/>
    <path fill="#FF945C" d="M114.347 83.228a62.256 62.256 0 0 1-6.71 9.468 50.937 50.937 0 0 1-8.6 7.939l-.335.251-.35.233-.698.456-.695.468a12.95 12.95 0 0 1-.705.453c-.958.563-1.901 1.173-2.896 1.688a52.977 52.977 0 0 1-6.062 2.815c-1.05.377-2.084.794-3.157 1.103-.533.163-1.062.343-1.598.49l-1.62.422c-.281.068-.537.149-.81.203l-.82.171c-.547.113-1.09.234-1.64.338l-1.653.259-.828.129-.846.09c-.602.062-1.205.136-1.808.192l-1.817.104c-.605.048-1.211.045-1.817.051-.606.005-1.214.028-1.82 0-1.21-.054-2.425-.076-3.63-.214l-.908-.082-.453-.042-.45-.065-1.804-.256a52.951 52.951 0 0 1-7.087-1.644c-1.17-.323-2.301-.762-3.445-1.165-.563-.205-1.127-.458-1.69-.686a21.45 21.45 0 0 1-1.665-.732l-1.64-.785a56.582 56.582 0 0 1-1.594-.864l-.794-.437-.772-.475c-.513-.321-1.031-.628-1.538-.957-.989-.693-2.003-1.346-2.944-2.103l-.718-.563-.358-.281-.346-.282-1.378-1.168a53.975 53.975 0 0 1-9.414-10.897l-.504-.76c-.17-.253-.316-.52-.474-.78l-.935-1.564c-.563-1.075-1.177-2.128-1.69-3.24l-.36-.793-.198-.411-.177-.42-.713-1.688c-.23-.563-.425-1.14-.642-1.709l-.318-.844-.282-.87a50.574 50.574 0 0 1-1.752-7.098l-.282-1.801c-.082-.602-.135-1.208-.203-1.81l-.095-.903-.051-.91c-.031-.604-.073-1.21-.093-1.815 0-1.213-.042-2.426.04-3.639l.039-.909c0-.304.02-.605.056-.906l.17-1.813.041-.453.065-.45.13-.9.13-.901.064-.45.087-.448.35-1.787c.03-.15.056-.299.09-.448l.11-.442.22-.883a52.106 52.106 0 0 1 5.408-13.462c.64-1.03 1.24-2.085 1.95-3.068l.515-.748.256-.375.282-.363 1.104-1.444c.366-.48.777-.928 1.163-1.407l.586-.692c.197-.23.412-.445.617-.667l1.242-1.323 1.305-1.26a52.33 52.33 0 0 1 5.594-4.61l.732-.536.755-.5c.508-.33 1.006-.673 1.516-.994 1.042-.614 2.065-1.261 3.14-1.813a52.52 52.52 0 0 1 27.984-6.23A56.13 56.13 0 0 1 82.15 7.17a49.728 49.728 0 0 1 10.191 3.81 52.75 52.75 0 0 1 16.987 13.51 50.215 50.215 0 0 1 5.997 9.257c1.653 3.304-3.682-7.754-10.741-14.421l-1.347-1.225a10.291 10.291 0 0 0-.69-.59l-.704-.563c-.921-.791-1.921-1.478-2.887-2.204-.499-.34-1.009-.67-1.513-1.005l-.758-.498-.78-.462c-.524-.304-1.037-.624-1.566-.914l-1.606-.845c-.53-.281-1.084-.532-1.63-.788l-.823-.383c-.282-.129-.547-.256-.832-.363l-1.69-.68-.42-.17-.427-.149-.846-.298c-1.126-.425-2.298-.74-3.453-1.086-.282-.093-.583-.158-.876-.231l-.882-.214c-.589-.138-1.169-.304-1.766-.405a52.907 52.907 0 0 0-34.863 4.518 52.839 52.839 0 0 0-24.318 25.365L19.21 37.8c-.116.281-.237.563-.347.844l-.307.845c-.203.562-.417 1.125-.611 1.688l-.53 1.725c-.084.282-.183.563-.259.864l-.22.876c-.143.585-.301 1.165-.436 1.753l-.352 1.77c-.057.282-.124.589-.172.887l-.133.892a52.454 52.454 0 0 0 3.36 28.356 53.043 53.043 0 0 0 17.84 22.451 52.33 52.33 0 0 0 6.133 3.847l.797.434c.265.143.544.264.814.399l1.634.785 1.656.707.846.352.845.309 1.707.617 1.738.532.87.264.882.22 1.763.441 1.772.361.893.174.899.13 1.8.256 1.808.166c2.57.217 5.152.232 7.724.045l.963-.062.958-.107c.637-.079 1.276-.135 1.913-.231l1.899-.315.473-.082.47-.101.941-.203.94-.202c.313-.071.62-.163.93-.245.617-.172 1.24-.324 1.854-.507l1.831-.588.456-.146.451-.169.901-.338.902-.338c.299-.115.591-.25.887-.374.589-.259 1.183-.498 1.764-.768l1.732-.845c.282-.135.563-.281.845-.444l.845-.462.8-.436c.265-.146.521-.312.78-.47l1.558-.954c1.003-.693 2.037-1.348 3-2.108l.735-.563.367-.281.355-.282 1.408-1.174c.468-.396.91-.821 1.366-1.232l.682-.62.651-.65a54.362 54.362 0 0 0 4.87-5.482l1.104-1.455c.355-.493.69-1 1.037-1.498l.518-.748.479-.771c.318-.515.645-1.022.958-1.537.622-1.075.707-1.827.101-.774z"/>
    <path fill="#FF945C" d="M114.767 35.58l-.639-1.332-.705-1.303a50.9 50.9 0 0 0-15.163-17.28c-6.457-4.56-13.989-7.411-21.451-8.655a54.938 54.938 0 0 0-12.394-.664c-.519.014-1.034.073-1.55.124l-1.55.152-1.537.23c-.513.076-1.028.147-1.535.262l-1.53.31c-.256.048-.51.107-.76.177l-.758.194c-.502.135-1.014.245-1.51.403l-1.493.467c-.248.082-.502.15-.747.24l-.735.28-1.473.55-1.442.599-.724.312c-.242.104-.474.228-.71.344l-1.409.698c-.473.233-.924.506-1.386.757l-.69.383-.343.19-.336.21-1.34.844c-.454.267-.877.582-1.313.875-.437.293-.87.588-1.293.9l-1.254.955-.625.478-.603.507-1.214.996-1.16 1.058c-.79.687-1.505 1.452-2.254 2.178-.189.18-.366.372-.54.563l-.528.577c-.346.389-.712.76-1.045 1.163l-.997 1.204c-.163.203-.335.397-.496.605l-.467.625-.938 1.25c-.299.428-.583.864-.876 1.294-.603.845-1.127 1.76-1.662 2.649-.282.439-.51.909-.764 1.365l-.738 1.379-.67 1.407c-.226.47-.454.94-.645 1.427-.397.965-.817 1.922-1.147 2.919l-.524 1.48-.45 1.506a54.364 54.364 0 0 0-1.409 6.042c-.087.51-.146 1.025-.222 1.537l-.107.769c-.04.256-.074.512-.09.77L16.69 54.1c-.022.259-.05.515-.065.774l-.028.777-.059 1.556v2.724l.025.389.096 1.556c.02.52.085 1.036.144 1.554l.172 1.55.25 1.543c.082.515.158 1.03.282 1.536l.324 1.523c.048.256.113.507.18.757l.2.752c.138.5.254 1.007.409 1.502l.47 1.487c.08.247.152.495.24.743l.281.731.544 1.464c.197.481.409.957.608 1.435.2.479.398.963.637 1.424.456.935.893 1.88 1.409 2.787.253.456.49.92.757 1.367l.814 1.335c.138.222.282.447.409.666l.44.648.875 1.303.936 1.255c.312.417.617.845.957 1.239l.992 1.207.248.301.262.282.52.58c.353.382.685.782 1.049 1.156l1.093 1.126.546.563.564.529 1.14 1.064c.39.346.792.672 1.19 1.013.396.34.785.687 1.205.993a49.85 49.85 0 0 0 10.704 6.474c7.707 3.321 16.245 4.874 24.614 4.244 1.051-.048 2.09-.194 3.136-.313.524-.047 1.04-.152 1.557-.236a70.017 70.017 0 0 0 1.555-.265l1.541-.337.772-.166c.256-.062.507-.135.763-.203l1.558-.439c.507-.141 1.003-.318 1.504-.473a53.609 53.609 0 0 0 5.868-2.288l1.409-.695.707-.346c.23-.121.459-.254.69-.377l1.374-.76c.457-.256.893-.546 1.341-.817a53.638 53.638 0 0 0 5.136-3.61l1.205-1.01.603-.505.58-.532 1.155-1.066c.381-.36.738-.746 1.107-1.126a49.488 49.488 0 0 0 7.589-9.924c.228-.376.431-.768.609-1.17.098-.282.107-.409.05-.414-.056-.006-.177.126-.377.377-.278.369-.533.754-.764 1.154a52.829 52.829 0 0 1-8.217 10.472 51.244 51.244 0 0 1-5.07 4.354c-.87.695-1.814 1.295-2.727 1.934-.465.307-.946.588-1.408.884-.462.295-.947.588-1.443.844l-1.47.805c-.496.256-1.003.492-1.504.737l-.752.366c-.251.121-.513.222-.77.335l-1.54.659c-.521.202-1.045.391-1.57.588l-.785.281c-.262.093-.533.172-.797.256l-1.598.507-1.617.431-.808.213c-.282.065-.546.119-.817.178l-1.636.349-1.651.281-.826.135c-.281.04-.563.065-.83.099l-1.663.188c-.563.045-1.112.074-1.667.113l-.845.053c-.282.02-.564 0-.845.02l-1.67.025a52.471 52.471 0 0 1-13.167-1.806 54.075 54.075 0 0 1-12.276-5.12 53.148 53.148 0 0 1-10.642-8.021 50.703 50.703 0 0 1-4.482-4.965c-.668-.892-1.364-1.765-1.972-2.699-.307-.464-.64-.912-.927-1.39l-.867-1.447c-.302-.47-.544-.968-.815-1.455l-.394-.735a10.17 10.17 0 0 1-.377-.74c-.474-1.002-.964-1.995-1.364-3.028a49.62 49.62 0 0 1-2.115-6.26 54.11 54.11 0 0 1-1.778-13.025c0-.563-.022-1.103 0-1.652l.065-1.652c0-.281.017-.563.034-.825l.073-.821.144-1.647a54.002 54.002 0 0 1 3.158-12.8l.63-1.525.316-.763.355-.746.704-1.492c.254-.486.518-.968.778-1.455a52.172 52.172 0 0 1 7.695-10.695 50.592 50.592 0 0 1 4.829-4.52c.845-.723 1.738-1.356 2.617-2.02.445-.327.91-.62 1.363-.932.453-.312.91-.622 1.386-.895l1.408-.844c.476-.282.966-.524 1.448-.786.955-.543 1.972-.973 2.95-1.455.498-.225 1.01-.425 1.512-.639l.758-.315c.25-.107.513-.188.769-.281l1.544-.563c.518-.175 1.045-.324 1.566-.487a52.07 52.07 0 0 1 12.887-2.17 51.464 51.464 0 0 1 6.553.158 52.95 52.95 0 0 1 6.478.968 52.264 52.264 0 0 1 12.347 4.388c.955.526 1.94 1.002 2.865 1.584.467.282.944.563 1.408.845l1.37.906c.228.152.461.281.681.456l.662.487c.44.326.89.641 1.327.973l1.279 1.033c.211.175.431.34.636.521l.614.549c.409.366 2.161 2.006 2.986 2.834a37.884 37.884 0 0 1 3.454 3.94c.879 1.126 2.18 3.133 2.18 3.133.316.447.592.917.873 1.384.282.468.564.93.845 1.408.513.965 1.065 1.908 1.516 2.901.983 1.942 1.065 1.084.614.209z" opacity=".6"/>
    <path fill="#FF945C" d="M117.331 81.095a53.389 53.389 0 0 1-6.62 10.715 52.67 52.67 0 0 1-9.062 8.921c-.826.673-1.71 1.267-2.578 1.886-.428.318-.887.588-1.332.878l-1.35.845a57.251 57.251 0 0 1-5.65 2.96 53.727 53.727 0 0 1-24.846 4.858 53.721 53.721 0 0 1-24.312-7.056 53.18 53.18 0 0 1-10.192-7.534 58.13 58.13 0 0 1-8.146-9.67 56.112 56.112 0 0 1-5.772-11.272c-.203-.49-.358-.994-.53-1.495l-.504-1.503-.428-1.525c-.141-.51-.299-1.013-.403-1.531-.228-1.03-.493-2.055-.654-3.096l-.281-1.56-.198-1.57c-.16-1.09-.214-2.19-.304-3.287-.056-.549-.048-1.1-.067-1.652-.02-.552-.037-1.1-.043-1.652.008-2.207.143-4.412.406-6.603.07-.546.13-1.095.206-1.644l.281-1.63c.164-1.091.445-2.16.682-3.236.11-.54.282-1.067.425-1.599l.454-1.59.53-1.565c.174-.52.349-1.044.563-1.55l.611-1.523c.099-.256.209-.51.327-.757l.343-.749c.234-.498.448-1.004.702-1.491l.763-1.458c.13-.242.251-.487.383-.73l.417-.708.845-1.408c.282-.464.6-.917.902-1.376.301-.459.591-.923.927-1.36.648-.883 1.279-1.78 1.985-2.62.35-.422.68-.86 1.043-1.272l1.093-1.23c.183-.202.36-.413.55-.61l.562-.588 1.15-1.177 1.203-1.126c.4-.377.797-.754 1.222-1.1a56.47 56.47 0 0 1 10.854-7.473l1.47-.762 1.504-.69c.995-.484 2.034-.844 3.057-1.272.512-.205 1.04-.363 1.56-.549l.783-.267c.26-.093.522-.177.79-.248 1.061-.281 2.112-.627 3.19-.844A49.876 49.876 0 0 1 68.64 3.67c4.268.13 8.51.724 12.65 1.767.263.056.522.126.778.202l.775.22c.516.15 1.034.281 1.546.442l1.527.51.764.252c.256.085.501.192.752.282l1.504.58.377.146.37.163.737.327c.49.222.99.425 1.474.661l1.442.723a50.625 50.625 0 0 1 10.648 7.245c.823.687 1.566 1.46 2.341 2.195.197.183.38.377.563.563l.55.585c.36.394.74.772 1.09 1.18l1.039 1.221c.172.206.349.405.518.614l.491.636.983 1.27c.312.433.614.874.924 1.31.633.865 1.18 1.785 1.76 2.686.473.802.682 2.319-1.501-1.056-.257-.433-.564-.844-.845-1.247l-.862-1.238-.933-1.168c-.307-.397-.602-.805-.938-1.182-.656-.76-1.281-1.548-1.986-2.266l-1.031-1.097c-.355-.355-.721-.698-1.081-1.044a50.558 50.558 0 0 0-9.578-7.203 56.974 56.974 0 0 0-10.935-4.891A54.705 54.705 0 0 0 72.865 4.56a51.505 51.505 0 0 0-11.955.175A50.23 50.23 0 0 0 48.7 7.976c-.991.368-1.944.83-2.91 1.26-.487.209-.95.465-1.408.701-.46.236-.944.479-1.409.726a57.84 57.84 0 0 0-5.369 3.35 58.732 58.732 0 0 0-4.972 3.895l-1.174 1.072c-.384.36-.78.706-1.141 1.092-.735.754-1.49 1.489-2.175 2.29a50.377 50.377 0 0 0-7.237 10.35 51.741 51.741 0 0 0-4.467 11.843 57.714 57.714 0 0 0-1.57 12.552A54.391 54.391 0 0 0 16.2 70.003a51.081 51.081 0 0 0 4.417 12.229 54 54 0 0 0 17.116 19.524c.434.332.904.611 1.358.915.453.304.907.593 1.38.875l1.408.83.705.417.723.38 1.448.762c.488.245.986.465 1.48.698.98.482 2 .873 3.008 1.287.501.216 1.02.385 1.535.562l1.546.541 1.575.459c.527.149 1.045.318 1.583.433 1.065.245 2.124.529 3.209.701l1.617.281 1.63.211c2.184.269 4.383.401 6.584.394l1.65-.053c.564-.023 1.102-.025 1.648-.085 1.096-.098 2.195-.168 3.285-.343.543-.079 1.09-.143 1.634-.234l1.62-.306.81-.152.803-.192 1.603-.382c.533-.138 1.057-.302 1.584-.451.526-.149 1.059-.281 1.574-.478 1.037-.358 2.082-.687 3.099-1.109a58.62 58.62 0 0 0 5.989-2.716 56.613 56.613 0 0 0 5.605-3.425c.919-.608 1.778-1.289 2.651-1.97.445-.324.845-.695 1.273-1.047a33.34 33.34 0 0 0 1.251-1.073l1.203-1.125c.2-.189.403-.372.597-.563l.563-.594 1.144-1.185 1.082-1.241a52.817 52.817 0 0 0 7.284-10.951c.972-1.886 1.611-2.384.857-.732z" opacity=".7"/>
  </g>
  <path fill="#282828" d="M52.515 55.471v4.834c0 1.102-.14 2.08-.42 2.935-.262.855-.608 1.538-1.035 2.047-.428.51-.938.93-1.53 1.258-1.002.56-2.153.839-3.452.839-4.456 0-6.684-2.278-6.684-6.832v-5.106c0-1.759-.058-2.96-.173-3.6-.099-.642-.247-1.045-.444-1.21-.378-.312-.978-.468-1.8-.468l-.05-.296h6.635l-.05.296c-.394 0-.715.017-.961.05-.23.032-.444.123-.642.27a1.47 1.47 0 0 0-.444.519c-.082.18-.156.493-.222.937-.082.576-.123 1.743-.123 3.502v5.23c0 2.104.469 3.633 1.406 4.587.954.937 2.228 1.405 3.823 1.405 1.595 0 2.919-.51 3.97-1.529 1.053-1.035 1.58-2.63 1.58-4.784V55.47c0-1.644-.075-2.828-.223-3.552-.148-.723-.394-1.192-.74-1.405-.328-.23-.896-.346-1.701-.346l-.05-.296h6.068l-.05.296c-.805 0-1.38.115-1.726.346-.329.213-.576.682-.74 1.405-.148.724-.222 1.908-.222 3.552zM57.99 63.462c0 1.069.288 1.875.863 2.417.576.526 1.258.79 2.048.79.805 0 1.455-.181 1.948-.543.493-.362.74-.847.74-1.455 0-.625-.214-1.135-.641-1.53a4.822 4.822 0 0 0-1.505-.961c-.592-.247-1.192-.502-1.8-.765a4.203 4.203 0 0 1-1.53-1.16c-.41-.509-.616-1.191-.616-2.046 0-.855.378-1.562 1.135-2.121.772-.576 1.66-.864 2.663-.864 1.43 0 2.549.23 3.355.691 0 .756-.1 1.809-.297 3.157l-.295-.074c0-1.085-.247-1.874-.74-2.368a2.45 2.45 0 0 0-1.8-.74c-.691 0-1.25.181-1.678.543-.411.362-.617.855-.617 1.48 0 .608.206 1.101.617 1.48.427.361.937.666 1.53.912.591.247 1.183.51 1.775.79.608.263 1.118.649 1.53 1.159.427.493.64 1.101.64 1.825 0 1.052-.41 1.866-1.233 2.442-.822.575-1.907.863-3.255.863-1.332 0-2.459-.354-3.38-1.06 0-.823.083-1.793.247-2.911l.296.05zM77.799 60.897h-8.09v.42c0 1.742.37 3.074 1.11 3.995.74.904 1.66 1.356 2.762 1.356 1.644 0 2.828-.657 3.552-1.973l.37.198c-.855 1.66-2.286 2.49-4.292 2.49-1.48 0-2.746-.534-3.798-1.602-1.052-1.07-1.579-2.508-1.579-4.317 0-1.825.46-3.321 1.382-4.489.937-1.167 2.178-1.75 3.724-1.75 1.562 0 2.762.534 3.6 1.603.84 1.052 1.259 2.408 1.259 4.07zm-4.785-5.18c-.954 0-1.71.412-2.27 1.234-.542.806-.87 1.883-.986 3.23H75.9c-.116-2.975-1.077-4.463-2.886-4.463zM88.112 55.101c.41 0 .773.09 1.085.271.312.181.469.428.469.74 0 .313-.099.56-.296.74a.96.96 0 0 1-.666.272c-.247 0-.56-.107-.938-.321a2.24 2.24 0 0 0-1.159-.32c-.641 0-1.167.591-1.578 1.775-.395 1.184-.592 2.557-.592 4.119 0 2.105.107 3.379.32 3.823.066.148.19.288.37.42.181.114.37.18.568.197.197.016.477.024.838.024l.05.296h-5.994l.05-.296c.526 0 .904-.024 1.134-.074.247-.066.452-.271.617-.616.164-.346.255-.773.271-1.283.033-.526.05-1.356.05-2.491v-1.43c0-2.286-.066-3.585-.198-3.898a5.747 5.747 0 0 0-.32-.74.762.762 0 0 0-.444-.37c-.362-.098-.84-.147-1.431-.147l-.05-.272a29.772 29.772 0 0 1 4.169-.296v3.626c.18-1.167.584-2.08 1.208-2.738.642-.674 1.464-1.01 2.467-1.01zM110.658 67.137c-.411 0-.822-.205-1.233-.617a7.336 7.336 0 0 1-1.085-1.578 33.764 33.764 0 0 0-1.11-2.022c-.428-.74-.855-1.43-1.283-2.072a5.889 5.889 0 0 0-1.628-1.628c-.657-.444-1.356-.682-2.096-.715v3.058c0 1.776.049 2.984.148 3.626.115.625.271 1.02.469 1.184.394.312 1.003.468 1.825.468l.049.296h-6.61l.05-.296c.805 0 1.397-.148 1.775-.444.313-.246.493-1.052.543-2.417.033-.542.049-1.348.049-2.417v-6.24c0-1.825-.049-3.034-.148-3.626-.099-.592-.247-.962-.444-1.11-.378-.279-.97-.419-1.776-.419l-.049-.296h5.722c4.144 0 6.215 1.398 6.215 4.193 0 1.2-.427 2.212-1.282 3.034-.839.806-1.858 1.274-3.058 1.406 1.2.707 2.31 2.006 3.329 3.897.395.74.814 1.447 1.258 2.12.97 1.546 2.22 2.32 3.749 2.32l.049.295h-3.428zm-8.435-16.697v7.571h1.554c1.249 0 2.285-.32 3.107-.962.823-.64 1.234-1.594 1.234-2.86 0-2.5-1.431-3.75-4.292-3.75h-1.603zM124.307 60.897h-8.09v.42c0 1.742.37 3.074 1.11 3.995.74.904 1.661 1.356 2.762 1.356 1.645 0 2.829-.657 3.552-1.973l.37.198c-.855 1.66-2.286 2.49-4.292 2.49-1.479 0-2.746-.534-3.798-1.602-1.052-1.07-1.578-2.508-1.578-4.317 0-1.825.46-3.321 1.381-4.489.937-1.167 2.178-1.75 3.724-1.75 1.562 0 2.762.534 3.601 1.603.839 1.052 1.258 2.408 1.258 4.07zm-4.785-5.18c-.954 0-1.71.412-2.269 1.234-.543.806-.871 1.883-.987 3.23h6.142c-.115-2.975-1.077-4.463-2.886-4.463zM127.813 63.462c0 1.069.287 1.875.863 2.417.575.526 1.258.79 2.047.79.806 0 1.455-.181 1.949-.543.493-.362.739-.847.739-1.455 0-.625-.213-1.135-.641-1.53a4.817 4.817 0 0 0-1.504-.961c-.592-.247-1.192-.502-1.801-.765a4.207 4.207 0 0 1-1.529-1.16c-.411-.509-.617-1.191-.617-2.046 0-.855.379-1.562 1.135-2.121.773-.576 1.661-.864 2.664-.864 1.43 0 2.548.23 3.354.691 0 .756-.099 1.809-.296 3.157l-.296-.074c0-1.085-.247-1.874-.74-2.368a2.45 2.45 0 0 0-1.8-.74c-.691 0-1.25.181-1.677.543-.412.362-.617.855-.617 1.48 0 .608.205 1.101.617 1.48.427.361.937.666 1.529.912.592.247 1.184.51 1.776.79.608.263 1.118.649 1.529 1.159.427.493.641 1.101.641 1.825 0 1.052-.411 1.866-1.233 2.442-.822.575-1.908.863-3.256.863-1.332 0-2.458-.354-3.379-1.06 0-.823.082-1.793.247-2.911l.296.05zM147.621 60.897h-8.09v.42c0 1.742.37 3.074 1.11 3.995.74.904 1.661 1.356 2.763 1.356 1.644 0 2.828-.657 3.551-1.973l.37.198c-.855 1.66-2.285 2.49-4.291 2.49-1.48 0-2.746-.534-3.799-1.602-1.052-1.07-1.578-2.508-1.578-4.317 0-1.825.46-3.321 1.381-4.489.937-1.167 2.179-1.75 3.724-1.75 1.562 0 2.763.534 3.601 1.603.839 1.052 1.258 2.408 1.258 4.07zm-4.785-5.18c-.953 0-1.71.412-2.269 1.234-.542.806-.871 1.883-.986 3.23h6.141c-.115-2.975-1.077-4.463-2.886-4.463zM159.513 59.17v2.492c0 1.825.057 3.025.172 3.6.116.56.395.84.839.84.28 0 .65-.116 1.11-.346l.123.247c-.131.098-.304.222-.518.37-.213.131-.649.312-1.307.542a5.742 5.742 0 0 1-1.899.345c-.164-.69-.247-1.792-.247-3.305-.361 1.02-.838 1.85-1.43 2.492-.576.624-1.381.937-2.417.937-1.036 0-1.858-.272-2.467-.814-.592-.56-.888-1.316-.888-2.27 0-2.646 2.401-3.978 7.202-3.995v-.888c0-1.184-.172-2.088-.518-2.713-.345-.625-.986-.937-1.923-.937-.527 0-.954.131-1.283.395-.329.263-.551.55-.666.863-.279.855-.699 1.282-1.258 1.282-.542 0-.814-.304-.814-.912 0-.625.411-1.143 1.234-1.554.822-.411 1.816-.617 2.984-.617 1.167 0 2.121.338 2.861 1.012.74.657 1.11 1.636 1.11 2.935zm-7.054 5.23c0 .64.156 1.175.469 1.603.312.41.805.616 1.479.616.691 0 1.316-.329 1.875-.986a5.489 5.489 0 0 0 1.134-2.22c.214-.822.337-1.67.37-2.54-1.825.016-3.173.353-4.045 1.01-.855.658-1.282 1.497-1.282 2.516zM171.458 55.101c.411 0 .773.09 1.085.271.313.181.469.428.469.74 0 .313-.099.56-.296.74a.96.96 0 0 1-.666.272c-.247 0-.559-.107-.937-.321a2.24 2.24 0 0 0-1.159-.32c-.642 0-1.168.591-1.579 1.775-.394 1.184-.592 2.557-.592 4.119 0 2.105.107 3.379.321 3.823.066.148.189.288.37.42.181.114.37.18.567.197.197.016.477.024.839.024l.049.296h-5.993l.049-.296c.526 0 .904-.024 1.134-.074.247-.066.453-.271.617-.616.164-.346.255-.773.271-1.283.033-.526.05-1.356.05-2.491v-1.43c0-2.286-.066-3.585-.198-3.898a5.843 5.843 0 0 0-.32-.74.764.764 0 0 0-.444-.37c-.362-.098-.839-.147-1.431-.147l-.049-.272a29.775 29.775 0 0 1 4.168-.296v3.626c.181-1.167.584-2.08 1.209-2.738.641-.674 1.463-1.01 2.466-1.01zM179.532 67.384c-1.447 0-2.688-.535-3.724-1.603-1.036-1.07-1.554-2.516-1.554-4.341 0-1.842.469-3.338 1.406-4.49.954-1.15 2.302-1.726 4.045-1.726 1.085 0 2.031.181 2.836.543.806.345 1.209.83 1.209 1.455 0 .56-.304.839-.913.839-.312 0-.575-.124-.789-.37a3.265 3.265 0 0 1-.469-.79c-.098-.295-.304-.567-.616-.813-.313-.247-.724-.37-1.233-.37-1.184 0-2.08.493-2.689 1.48-.608.986-.912 2.343-.912 4.07 0 1.71.361 3.041 1.085 3.995.723.937 1.62 1.405 2.688 1.405 1.628 0 2.787-.657 3.478-1.973l.37.198c-.839 1.66-2.245 2.49-4.218 2.49zM189.699 48.984V59.64c.148-1.184.559-2.211 1.233-3.083.674-.888 1.57-1.332 2.688-1.332 2.516 0 3.774 1.316 3.774 3.947v3.897c0 1.71.107 2.77.321 3.181.23.395.822.592 1.775.592l.05.296h-5.994l.05-.296c.986 0 1.578-.205 1.776-.616.197-.411.295-1.538.295-3.38v-3.428c0-1.134-.18-1.99-.542-2.565-.345-.575-.904-.863-1.677-.863-.757 0-1.39.263-1.899.79-.51.509-.888 1.158-1.135 1.948a15.41 15.41 0 0 0-.715 4.612c0 1.546.098 2.516.296 2.91.214.395.805.592 1.776.592l.049.296h-6.018l.049-.296c.987 0 1.587-.197 1.801-.592.213-.41.32-1.488.32-3.23v-8.214c0-2.466-.115-3.946-.345-4.44a1.395 1.395 0 0 0-.469-.517 1.398 1.398 0 0 0-.666-.272c-.23-.033-.55-.049-.961-.049l-.05-.271a33.613 33.613 0 0 1 4.218-.272z"/>
  <defs>
    <filter id="filter0_f" width="133.202" height="31.595" x=".837" y="106.792" color-interpolation-filters="sRGB" filterUnits="userSpaceOnUse">
      <feFlood flood-opacity="0" result="BackgroundImageFix"/>
      <feBlend in="SourceGraphic" in2="BackgroundImageFix" result="shape"/>
      <feGaussianBlur result="effect1_foregroundBlur" stdDeviation="5"/>
    </filter>
    <filter id="filter1_f" width="86.174" height="12.95" x="25.752" y="113.493" color-interpolation-filters="sRGB" filterUnits="userSpaceOnUse">
      <feFlood flood-opacity="0" result="BackgroundImageFix"/>
      <feBlend in="SourceGraphic" in2="BackgroundImageFix" result="shape"/>
      <feGaussianBlur result="effect1_foregroundBlur" stdDeviation="2"/>
    </filter>
    <linearGradient id="paint0_linear" x1="67.438" x2="67.438" y1="116.792" y2="128.387" gradientUnits="userSpaceOnUse">
      <stop stop-color="#B4B4B4"/>
      <stop offset="1" stop-color="#F2F1EE"/>
    </linearGradient>
    <clipPath id="clip0">
      <path fill="#fff" d="M0 0h107.99v114.323H0z" transform="translate(10.837 .416)"/>
    </clipPath>
  </defs>
</svg>
