<svg xmlns="http://www.w3.org/2000/svg" fill="none" viewBox="0 0 167 139">
  <ellipse cx="67.438" cy="122.954" fill="url(#paint0_linear)" fill-opacity=".4" filter="url(#filter0_f)" opacity=".7" rx="56.601" ry="5.797"/>
  <ellipse cx="68.839" cy="120.333" fill="#F5F5F5" filter="url(#filter1_f)" rx="39.087" ry="2.475"/>
  <g clip-path="url(#clip0)">
    <path fill="#FF945C" d="M115.288 28.304a60.91 60.91 0 0 0-8.338-10.796l-1.2-1.213-1.256-1.157c-.823-.788-1.727-1.486-2.603-2.22-.44-.364-.91-.69-1.366-1.04l-.69-.511-.347-.257-.358-.239c-.957-.633-1.907-1.292-2.918-1.855-.496-.281-.986-.585-1.49-.86l-1.527-.78-.766-.394-.783-.358-1.572-.715c-.53-.225-1.068-.428-1.603-.641-.535-.214-1.065-.437-1.617-.611-1.093-.363-2.177-.757-3.293-1.047a56.838 56.838 0 0 0-13.597-2.17 55.968 55.968 0 0 0-14.158 1.235l-1.738.394-1.718.473-.846.24-.845.28-1.69.564-1.665.639-.845.32c-.281.116-.546.24-.817.358l-1.633.72c-.535.26-1.065.53-1.6.797l-.812.383c-.264.138-.52.281-.78.433l-1.558.884c-.51.31-1.01.636-1.518.954l-.758.481c-.25.163-.49.34-.738.512l-1.465 1.036c-.478.358-.946.735-1.408 1.1l-.707.564c-.234.185-.456.388-.685.582l-1.369 1.149c-.442.402-.87.821-1.307 1.232l-.65.62c-.217.208-.417.43-.626.644l-1.24 1.297c-.402.442-.788.898-1.182 1.349l-.589.675c-.197.225-.375.464-.563.698L23.34 23.46c-.364.473-.701.965-1.054 1.447-.352.481-.704.962-1.02 1.469l-.977 1.494c-.324.501-.608 1.022-.915 1.531-.626 1.014-1.155 2.08-1.713 3.13-.144.262-.282.53-.394.8l-.378.807-.363.82c-.127.28-.25.537-.36.815-.443 1.104-.925 2.193-1.294 3.324-.194.563-.4 1.126-.583 1.689l-.504 1.711-.25.845-.212.866-.414 1.74c-.13.582-.226 1.17-.338 1.756l-.16.88-.08.443-.059.444c-.15 1.185-.338 2.367-.403 3.564-.045.596-.095 1.193-.132 1.79l-.045 1.795-.023.898c0 .298 0 .6.02.898l.048 1.798c.122 2.398.398 4.786.825 7.149l.16.886.08.442.101.44.406 1.756c.124.588.31 1.16.465 1.739.155.58.312 1.17.498 1.734.386 1.125.741 2.282 1.2 3.394.223.563.423 1.126.668 1.672l.732 1.643c.234.563.516 1.084.783 1.619.268.534.53 1.075.823 1.601.597 1.041 1.16 2.102 1.823 3.096a56.823 56.823 0 0 0 4.2 5.843c.788.906 1.54 1.843 2.383 2.699.414.433.816.878 1.242 1.303l1.296 1.25c.425.424.879.816 1.332 1.213.454.396.899.796 1.36 1.179l1.41 1.126c.236.185.467.377.709.562l.732.527c.49.349.975.706 1.468 1.05l1.51.985.758.489.777.456 1.555.912 1.597.845.8.416.817.383 1.637.757c.563.239 1.127.456 1.67.684 1.107.473 2.254.844 3.38 1.235.282.105.564.189.862.282l.868.25c.58.161 1.152.349 1.738.484l1.758.411c.282.065.586.144.882.194l.887.161 1.777.315 1.792.225.994.121c.333.037.665.054 1 .079l2 .141 2.003.039c.335 0 .668.017 1.003 0l1.003-.031a54.202 54.202 0 0 0 7.969-.791l1.972-.365c.65-.144 1.298-.304 1.95-.456.323-.079.65-.15.97-.24l.962-.281.96-.282c.321-.092.642-.182.955-.295l1.893-.647c.631-.214 1.242-.482 1.865-.721l.93-.369c.306-.129.608-.281.912-.408.606-.281 1.22-.54 1.82-.844a57.648 57.648 0 0 0 11.572-7.425 51.203 51.203 0 0 0 9.197-9.968c.425-.636.099-.411-.335.225a49.875 49.875 0 0 1-8.913 9.397c-.408.358-.845.676-1.282 1.005l-1.281.999-1.347.921c-.45.303-.89.619-1.36.895-.927.562-1.84 1.156-2.798 1.663l-1.408.788-1.454.726c-1 .526-2.048.954-3.076 1.424-.515.237-1.05.422-1.574.636-.524.214-1.051.428-1.59.608-1.075.355-2.14.76-3.239 1.053l-1.64.473-1.661.382c-1.102.282-2.228.456-3.347.673-.281.056-.563.096-.845.132l-.845.116c-.563.07-1.126.163-1.69.214l-1.69.14-.845.068-.845.028-1.69.051c-.564 0-1.127-.017-1.69-.023a56.91 56.91 0 0 1-7.057-.605l-1.74-.31c-.581-.107-1.161-.199-1.733-.343-1.147-.281-2.299-.518-3.425-.867-.564-.169-1.127-.318-1.69-.501l-1.671-.563-.845-.281-.82-.329-1.684-.696a58.32 58.32 0 0 1-6.308-3.197c-1.03-.563-2.01-1.235-3.002-1.874l-.372-.242-.36-.259-.72-.515-.72-.501a13.401 13.401 0 0 1-.71-.532c-.924-.738-1.865-1.45-2.74-2.252-.443-.394-.9-.768-1.325-1.176l-1.279-1.227c-.434-.403-.845-.845-1.24-1.267-.394-.422-.819-.844-1.208-1.294-.763-.901-1.56-1.773-2.253-2.722-.36-.467-.73-.929-1.08-1.407l-1.016-1.447c-.166-.242-.344-.478-.501-.726l-.474-.746c-.312-.498-.633-.993-.94-1.497a55.573 55.573 0 0 1-7.8-26.844c0-.589-.032-1.177-.037-1.762l.048-1.762.025-.881c.017-.281.042-.585.065-.878l.14-1.754c.049-.582.144-1.162.215-1.745l.115-.87c.037-.28.076-.579.133-.866l.315-1.725c.057-.282.099-.563.166-.861l.203-.845a55.091 55.091 0 0 1 4.795-13.16c.281-.515.532-1.033.81-1.543l.883-1.505.442-.752.476-.729.955-1.458a56.888 56.888 0 0 1 4.318-5.474 55.733 55.733 0 0 1 10.47-9.144c.471-.34.973-.636 1.463-.948.49-.313.977-.63 1.484-.918 1.017-.563 2.011-1.173 3.062-1.689a58.43 58.43 0 0 1 6.4-2.814l1.657-.563.828-.281.845-.245 1.69-.484 1.69-.406.845-.2c.282-.064.564-.11.845-.165l1.721-.316c.564-.098 1.155-.16 1.73-.242.575-.081 1.152-.166 1.735-.202l1.933-.158c.645-.05 1.293-.05 1.938-.076l.969-.03h.969l1.94.033 1.936.127.969.064.963.113 1.927.23 1.913.321c.318.057.64.102.955.17l.949.208c.63.143 1.267.281 1.893.43 1.248.35 2.507.659 3.727 1.092l.92.307c.308.099.615.205.916.327l1.812.703c.304.113.6.248.892.38l.888.397c.591.264 1.186.526 1.755.844l1.732.892 1.69.983c.282.166.564.323.845.5l.812.535.808.535c.282.177.541.355.797.563l1.558 1.151c.262.189.51.394.761.6l.746.613.747.614c.248.205.481.428.721.641l1.428 1.3a64.962 64.962 0 0 1 5.211 5.68c.406.498.786 1.02 1.181 1.526l.588.765.564.791c.366.53.752 1.047 1.104 1.587l1.051 1.63c.371.552.346.44-.023-.15z" opacity=".8"/>
    <path fill="#FF945C" d="M117.399 29.503c-4.003-7.174-9.73-13.355-16.482-18.156l-1.527-1.033-.763-.515-.786-.479-1.572-.957-1.617-.88-.808-.443-.828-.402-1.657-.802-1.69-.723-.845-.36c-.282-.119-.563-.215-.862-.324a55.42 55.42 0 0 0-14.31-3.378l-1.84-.166c-.613-.03-1.23-.048-1.844-.073l-.924-.034h-.924L66.272.81c-2.465.098-4.92.359-7.35.78-1.22.183-2.416.47-3.62.734-.3.062-.6.138-.895.223l-.89.242c-.592.169-1.192.304-1.775.506l-1.755.563c-.282.09-.583.195-.87.304l-.862.321c-1.16.405-2.282.906-3.412 1.385a60.71 60.71 0 0 0-6.524 3.377c-1.067.605-2.076 1.298-3.098 1.97-.513.335-.997.712-1.496 1.067-.498.355-1 .71-1.47 1.103l-1.434 1.151c-.48.383-.924.805-1.389 1.208-.935.793-1.791 1.688-2.673 2.533a53.521 53.521 0 0 0-4.789 5.606 55.605 55.605 0 0 0-7.248 13.192 58.583 58.583 0 0 0-2.217 7.205c-.324 1.215-.527 2.454-.769 3.686l-.087.462-.065.467-.132.932-.133.931c-.045.31-.09.622-.112.935-.555 5-.46 10.05.281 15.026.36 2.486.888 4.945 1.578 7.36.377 1.199.726 2.412 1.186 3.583l.326.886c.107.296.217.591.347.879l.74 1.736a57.49 57.49 0 0 0 18.928 23.031c.495.385 1.028.717 1.546 1.072l.78.526c.26.178.522.352.792.51 1.073.65 2.138 1.32 3.256 1.897l.828.45.415.225.425.206 1.69.819.425.205.434.183.868.366.867.366.434.183.443.163a56.743 56.743 0 0 0 23.127 3.681c.707-.045 1.408-.081 2.123-.132l2.116-.234c.707-.062 1.408-.202 2.104-.309l1.05-.169c.35-.054.697-.141 1.043-.211a54.962 54.962 0 0 0 8.17-2.302c.661-.254 1.332-.479 1.971-.757l1.952-.845c.648-.281 1.276-.611 1.916-.917.315-.158.64-.304.952-.473l.93-.51c1.253-.655 2.447-1.407 3.662-2.153 1.168-.796 2.352-1.57 3.461-2.443.564-.425 1.127-.844 1.665-1.308.538-.465 1.09-.898 1.62-1.365l1.558-1.433c.265-.233.51-.487.758-.737l.743-.755a54.811 54.811 0 0 0 5.442-6.473c.206-.281.426-.563.62-.844l.586-.881.583-.881c.096-.146.197-.281.282-.442l.282-.453 1.081-1.815c.338-.62.665-1.244.995-1.864.36-.68.253-.678-.11 0l-.873 1.636c-.31.535-.634 1.06-.953 1.593l-.478.793c-.164.262-.344.515-.513.771l-1.037 1.537c-.363.501-.738.99-1.107 1.486l-.563.74c-.192.243-.392.479-.589.715l-1.186 1.427-1.251 1.368-.625.684-.656.653-1.319 1.303-1.374 1.241c-.231.206-.457.417-.69.617l-.716.588c-.479.388-.952.788-1.437 1.168l-1.484 1.106c-.251.18-.49.374-.746.546l-.767.518c-.512.34-1.017.698-1.538 1.027a58.11 58.11 0 0 1-13.366 6.29l-.882.282-.442.141-.448.121-1.791.481-.448.121-.454.098-.907.197-.907.195-.453.098-.457.076-1.83.298-.457.074-.462.053-.921.104-.921.101a12.39 12.39 0 0 1-.924.082l-1.851.11c-.617.051-1.237.034-1.854.045-.617.011-1.236.025-1.853 0-1.234-.062-2.473-.07-3.702-.214l-1.845-.177-1.834-.265-.915-.132c-.304-.051-.606-.116-.91-.175l-1.817-.357a57.811 57.811 0 0 1-7.112-2.063 56.275 56.275 0 0 1-28.451-22.634 60 60 0 0 1-3.553-6.383c-.563-1.087-1.014-2.224-1.51-3.34-.236-.564-.439-1.144-.659-1.712-.22-.569-.439-1.143-.617-1.728l-.563-1.745c-.18-.585-.327-1.18-.49-1.77-.347-1.177-.563-2.381-.845-3.575a54.297 54.297 0 0 1-.91-7.284c-.099-1.221-.085-2.445-.096-3.658-.017-.611.037-1.222.054-1.833.017-.61.04-1.221.095-1.832l.175-1.824c.034-.303.05-.608.096-.911l.132-.907.282-1.812.358-1.796a57.143 57.143 0 0 1 4.746-13.819c.254-.563.564-1.095.845-1.635.282-.54.564-1.084.882-1.613.642-1.044 1.24-2.116 1.947-3.118.346-.507.676-1.022 1.033-1.52l1.099-1.472c.358-.498.75-.968 1.14-1.438.392-.47.773-.951 1.178-1.407a57.07 57.07 0 0 1 10.986-9.693 58.562 58.562 0 0 1 6.276-3.746c1.096-.535 2.184-1.09 3.313-1.551l.845-.363c.282-.124.564-.242.845-.344l1.713-.644c.563-.228 1.155-.391 1.735-.585l.87-.282c.282-.096.58-.188.877-.262 1.18-.315 2.355-.658 3.555-.892 2.394-.529 4.821-.9 7.265-1.112l2.022-.129.504-.03H67.506c1.349-.046 2.695.041 4.045.09.673.041 1.343.115 2.014.174l1.005.093 1 .14 2 .282 1.972.388c.33.068.662.121.99.203l.98.245c.653.168 1.312.312 1.957.503l1.935.589.485.146.476.169.952.343c1.279.43 2.513.982 3.76 1.5.615.282 1.22.58 1.832.867.304.146.61.282.912.442l.893.481a57.1 57.1 0 0 1 12.736 9.229 59.802 59.802 0 0 1 5.276 5.862c.769 1.059 1.574 2.08 2.253 3.175l.533.808c.177.281.357.537.515.816l.975 1.655c.171.325.374.632.605.917.116.06.068-.129-.208-.655z" opacity=".8"/>
    <path fill="#FF945C" d="M117.987 33.52l-.713-1.433c-.253-.47-.518-.932-.777-1.407-.505-.943-1.088-1.838-1.654-2.744-.282-.459-.589-.892-.893-1.331l-.918-1.318-.978-1.272c-.329-.422-.645-.844-1-1.255a57.796 57.796 0 0 0-9.222-8.888 56.202 56.202 0 0 0-10.986-6.53c-.48-.236-.983-.422-1.476-.624l-1.488-.603-1.515-.529c-.507-.169-1.006-.369-1.524-.506l-1.541-.45c-.256-.074-.513-.156-.772-.223l-.78-.186-1.56-.366c-.522-.13-1.051-.205-1.578-.31a58.924 58.924 0 0 0-12.789-.996c-4.29.167-8.545.843-12.676 2.013l-.778.214-.766.25-1.532.501c-.513.163-1.009.374-1.513.563-.504.189-1.008.374-1.504.585a56.686 56.686 0 0 0-5.806 2.815c-.467.267-.946.512-1.408.796l-1.372.845-.685.428-.665.458-1.33.918c-.441.306-.858.647-1.29.97-.43.324-.864.645-1.273.994l-1.233 1.044c-.206.175-.414.347-.614.524l-.592.563-1.18 1.103c-.389.374-.755.768-1.127 1.154l-.563.58c-.19.191-.375.388-.55.594L26.3 21.674c-.175.205-.36.4-.53.61l-.51.62-1.008 1.263c-.324.43-.634.873-.95 1.309-.315.436-.645.864-.926 1.323a57.435 57.435 0 0 0-5.916 11.463 54.05 54.05 0 0 0-3.03 12.457 56.433 56.433 0 0 0 2.59 25.33 53.363 53.363 0 0 0 5.561 11.54 56.485 56.485 0 0 0 3.753 5.203l1.045 1.216c.352.402.687.819 1.062 1.199.74.768 1.453 1.568 2.253 2.288l1.158 1.106 1.206 1.053c.791.717 1.645 1.359 2.478 2.023.412.338.846.642 1.285.952l1.301.928 1.344.87c.45.282.887.591 1.355.844a55.016 55.016 0 0 0 11.628 5.218 55.846 55.846 0 0 0 12.496 2.393c4.253.339 8.531.207 12.755-.394a54.715 54.715 0 0 0 12.31-3.35 55.314 55.314 0 0 0 11.18-6.084 57.084 57.084 0 0 0 5.012-3.94c.397-.355.777-.727 1.166-1.087.389-.36.789-.715 1.149-1.106.733-.771 1.499-1.509 2.181-2.325.543-.619.323-.718-.217-.101l-.524.596c-.178.198-.367.383-.55.563l-1.104 1.14c-.363.386-.766.732-1.146 1.098-.381.366-.767.732-1.164 1.08a55.993 55.993 0 0 1-5 3.927 54.06 54.06 0 0 1-11.155 6.037 54.208 54.208 0 0 1-24.93 3.701 57.535 57.535 0 0 1-6.295-.87l-.392-.07-.389-.09-.774-.178-1.55-.357-1.53-.433c-.506-.152-1.025-.282-1.523-.454a54.851 54.851 0 0 1-11.566-5.26 57 57 0 0 1-10.068-7.768l-.564-.563c-.188-.185-.369-.382-.563-.562l-1.099-1.154c-.371-.38-.7-.8-1.053-1.197a32.53 32.53 0 0 1-1.034-1.212 53.554 53.554 0 0 1-3.715-5.185c-4.58-7.188-7.31-15.48-8.17-23.923a53.472 53.472 0 0 1 .336-12.704 57.416 57.416 0 0 1 9.014-23.594 53.772 53.772 0 0 1 8.307-9.667 56.571 56.571 0 0 1 16.057-10.36c.492-.203.994-.392 1.49-.586.495-.194.988-.402 1.498-.563 1.017-.326 2.017-.7 3.054-.962a54.343 54.343 0 0 1 12.606-2.007 57.796 57.796 0 0 1 12.718.965c8.377 1.537 16.307 5.17 23.082 10.29a56.35 56.35 0 0 1 9.141 8.835c.352.396.659.844.986 1.25.326.405.65.844.966 1.263l.91 1.306.453.653c.152.217.282.447.428.67l.845 1.348.212.337.194.347.392.692c.256.465.526.92.774 1.39l.716 1.422.36.709c.119.228.322.07-.174-.875z"/>
    <path fill="#FF945C" d="M114.347 83.593a62.25 62.25 0 0 1-6.71 9.468 50.975 50.975 0 0 1-8.6 7.94l-.335.25-.35.234-.698.456-.695.467a12.95 12.95 0 0 1-.705.453c-.958.563-1.901 1.174-2.896 1.689a52.8 52.8 0 0 1-6.062 2.814c-1.05.377-2.084.794-3.157 1.103-.533.164-1.062.344-1.598.49l-1.62.422c-.281.068-.537.149-.81.203l-.82.172c-.547.112-1.09.233-1.64.337l-1.653.259-.828.13-.846.09c-.602.062-1.205.135-1.808.191l-1.817.104c-.605.048-1.211.045-1.817.051-.606.006-1.214.028-1.82 0-1.21-.054-2.425-.076-3.63-.214l-.908-.082-.453-.042-.45-.065-1.804-.256a53.103 53.103 0 0 1-7.087-1.643c-1.17-.324-2.301-.763-3.445-1.165-.563-.206-1.127-.459-1.69-.687a21.45 21.45 0 0 1-1.665-.732l-1.64-.785a56.582 56.582 0 0 1-1.594-.864l-.794-.436-.772-.476c-.513-.321-1.031-.628-1.538-.957-.989-.692-2.003-1.345-2.944-2.102l-.718-.563-.358-.282-.346-.281-1.378-1.168a53.975 53.975 0 0 1-9.414-10.898l-.504-.76c-.17-.253-.316-.52-.474-.78l-.935-1.564c-.563-1.075-1.177-2.128-1.69-3.24l-.36-.793-.198-.411-.177-.42-.713-1.688c-.23-.563-.425-1.14-.642-1.709l-.318-.844-.282-.87a50.576 50.576 0 0 1-1.752-7.098l-.282-1.8c-.082-.603-.135-1.208-.203-1.81l-.095-.904-.051-.91c-.031-.604-.073-1.21-.093-1.814 0-1.213-.042-2.426.04-3.64l.039-.909c0-.304.02-.605.056-.906l.17-1.812.041-.453.065-.45.13-.901.13-.901.064-.45.087-.448.35-1.787c.03-.15.056-.298.09-.447l.11-.442.22-.884a52.107 52.107 0 0 1 5.408-13.462c.64-1.03 1.24-2.085 1.95-3.068l.515-.748.256-.374.282-.363 1.104-1.444c.366-.482.777-.93 1.163-1.408l.586-.692c.197-.23.412-.445.617-.667l1.242-1.323 1.305-1.26a52.342 52.342 0 0 1 5.594-4.61l.732-.535.755-.501c.508-.33 1.006-.673 1.516-.994 1.042-.613 2.065-1.26 3.14-1.812A52.52 52.52 0 0 1 71.407 5.88c3.627.203 7.225.757 10.744 1.655a49.725 49.725 0 0 1 10.191 3.811 52.748 52.748 0 0 1 16.987 13.51 50.218 50.218 0 0 1 5.997 9.256c1.653 3.304-3.682-7.754-10.741-14.421l-1.347-1.224a10.35 10.35 0 0 0-.69-.591l-.704-.563c-.921-.791-1.921-1.478-2.887-2.204-.499-.34-1.009-.67-1.513-1.005l-.758-.498-.78-.461c-.524-.304-1.037-.625-1.566-.915l-1.606-.845c-.53-.281-1.084-.531-1.63-.788l-.823-.382c-.282-.13-.547-.256-.832-.363l-1.69-.681-.42-.17-.427-.149-.846-.298c-1.126-.425-2.298-.74-3.453-1.086-.282-.093-.583-.158-.876-.231l-.882-.214c-.589-.138-1.169-.304-1.766-.405a52.907 52.907 0 0 0-34.863 4.519 52.84 52.84 0 0 0-24.318 25.365l-.698 1.663c-.116.282-.237.563-.347.844l-.307.845c-.203.563-.417 1.126-.611 1.688l-.53 1.726c-.084.281-.183.563-.259.864l-.22.875c-.143.585-.301 1.165-.436 1.753l-.352 1.77c-.057.282-.124.589-.172.887l-.133.892a52.454 52.454 0 0 0 3.36 28.356 53.041 53.041 0 0 0 17.84 22.451 52.33 52.33 0 0 0 6.133 3.847l.797.434c.265.143.544.264.814.399l1.634.786 1.656.706.846.352.845.309 1.707.617 1.738.532.87.264.882.22 1.763.442 1.772.36.893.174.899.13 1.8.256 1.808.166c2.57.217 5.152.232 7.724.045l.963-.062.958-.107c.637-.079 1.276-.135 1.913-.231l1.899-.315.473-.081.47-.102.941-.202.94-.203c.313-.07.62-.163.93-.245.617-.171 1.24-.323 1.854-.506l1.831-.589.456-.146.451-.169.901-.338.902-.337c.299-.116.591-.251.887-.375.589-.259 1.183-.498 1.764-.768l1.732-.844c.282-.135.563-.282.845-.445l.845-.462.8-.436c.265-.146.521-.312.78-.47l1.558-.954c1.003-.692 2.037-1.348 3-2.108l.735-.563.367-.281.355-.282 1.408-1.173c.468-.397.91-.822 1.366-1.233l.682-.62.651-.65a54.374 54.374 0 0 0 4.87-5.482l1.104-1.455c.355-.493.69-1 1.037-1.497l.518-.749.479-.771c.318-.515.645-1.022.958-1.537.622-1.075.707-1.826.101-.774z"/>
    <path fill="#FF945C" d="M114.767 35.945l-.639-1.331-.705-1.303A50.899 50.899 0 0 0 98.26 16.03c-6.457-4.56-13.989-7.41-21.451-8.655a54.939 54.939 0 0 0-12.394-.664c-.519.014-1.034.073-1.55.124l-1.55.152-1.537.23c-.513.077-1.028.147-1.535.262l-1.53.31c-.256.048-.51.107-.76.177l-.758.195c-.502.135-1.014.244-1.51.402l-1.493.467c-.248.082-.502.15-.747.24l-.735.28-1.473.55-1.442.6-.724.312c-.242.104-.474.227-.71.343l-1.409.698c-.473.233-.924.506-1.386.757l-.69.383-.343.191-.336.208-1.34.845c-.454.267-.877.582-1.313.875-.437.293-.87.588-1.293.9l-1.254.955-.625.478-.603.507-1.214.996-1.16 1.058c-.79.687-1.505 1.453-2.254 2.179-.189.18-.366.371-.54.563l-.528.577c-.346.388-.712.76-1.045 1.162l-.997 1.205c-.163.202-.335.396-.496.605l-.467.625-.938 1.25c-.299.427-.583.863-.876 1.294-.603.844-1.127 1.759-1.662 2.648-.282.44-.51.91-.764 1.365l-.738 1.38-.67 1.407c-.226.47-.454.94-.645 1.426-.397.966-.817 1.923-1.147 2.919l-.524 1.48-.45 1.506a54.36 54.36 0 0 0-1.409 6.043c-.087.51-.146 1.024-.222 1.536l-.107.769a8.83 8.83 0 0 0-.09.771l-.136 1.548c-.022.259-.05.515-.065.774l-.028.777-.059 1.556V60.296l.025.388.096 1.556c.02.521.085 1.036.144 1.554l.172 1.55.25 1.543c.082.515.158 1.03.282 1.537l.324 1.522c.048.256.113.507.18.757l.2.752c.138.5.254 1.007.409 1.503l.47 1.486c.08.247.152.495.24.743l.281.731.544 1.464c.197.481.409.957.608 1.435.2.479.398.963.637 1.425.456.934.893 1.88 1.409 2.786.253.456.49.92.757 1.368l.814 1.334c.138.222.282.447.409.667l.44.647.875 1.303.936 1.255c.312.417.617.845.957 1.239l.992 1.207.248.301.262.282.52.58c.353.382.685.782 1.049 1.156l1.093 1.126.546.563.564.53 1.14 1.063c.39.346.792.673 1.19 1.013.396.34.785.687 1.205.994a49.861 49.861 0 0 0 10.704 6.473c7.707 3.321 16.245 4.875 24.614 4.244 1.051-.048 2.09-.194 3.136-.312.524-.048 1.04-.152 1.557-.237a76.348 76.348 0 0 0 1.555-.264l1.541-.338.772-.166c.256-.062.507-.135.763-.203l1.558-.439c.507-.14 1.003-.318 1.504-.473a53.609 53.609 0 0 0 5.868-2.288l1.409-.695.707-.346c.23-.121.459-.253.69-.377l1.374-.76c.457-.256.893-.546 1.341-.816a53.735 53.735 0 0 0 5.136-3.611l1.205-1.01.603-.504.58-.532 1.155-1.067c.381-.36.738-.746 1.107-1.126a49.488 49.488 0 0 0 7.589-9.924c.228-.376.431-.767.609-1.17.098-.282.107-.409.05-.414-.056-.006-.177.126-.377.377-.278.369-.533.754-.764 1.154a52.826 52.826 0 0 1-8.217 10.473 51.259 51.259 0 0 1-5.07 4.353c-.87.696-1.814 1.295-2.727 1.934-.465.307-.946.588-1.408.884-.462.295-.947.588-1.443.844l-1.47.805c-.496.256-1.003.493-1.504.737l-.752.366c-.251.121-.513.223-.77.335l-1.54.659c-.521.202-1.045.391-1.57.588l-.785.281c-.262.093-.533.172-.797.257l-1.598.506-1.617.431-.808.214c-.282.064-.546.118-.817.177l-1.636.349-1.651.281-.826.136c-.281.039-.563.064-.83.098l-1.663.189c-.563.045-1.112.073-1.667.112l-.845.054c-.282.019-.564 0-.845.019l-1.67.026a52.472 52.472 0 0 1-13.167-1.807 54.03 54.03 0 0 1-12.276-5.12 53.147 53.147 0 0 1-10.642-8.02 50.68 50.68 0 0 1-4.482-4.966c-.668-.892-1.364-1.764-1.972-2.699-.307-.464-.64-.912-.927-1.39l-.867-1.447c-.302-.47-.544-.968-.815-1.455l-.394-.734a10.15 10.15 0 0 1-.377-.74c-.474-1.002-.964-1.996-1.364-3.029a49.615 49.615 0 0 1-2.115-6.26A54.109 54.109 0 0 1 17.09 59.25c0-.563-.022-1.104 0-1.653l.065-1.652c0-.281.017-.563.034-.824l.073-.822.144-1.647a54 54 0 0 1 3.158-12.8l.63-1.525.316-.763.355-.746.704-1.491c.254-.487.518-.968.778-1.455a52.17 52.17 0 0 1 7.695-10.695 50.592 50.592 0 0 1 4.829-4.52c.845-.724 1.738-1.357 2.617-2.021.445-.327.91-.62 1.363-.932.453-.312.91-.622 1.386-.895l1.408-.844c.476-.282.966-.524 1.448-.785.955-.543 1.972-.974 2.95-1.455.498-.226 1.01-.425 1.512-.64l.758-.314c.25-.107.513-.19.769-.282l1.544-.563c.518-.174 1.045-.324 1.566-.487a52.07 52.07 0 0 1 12.887-2.17 51.466 51.466 0 0 1 6.553.158c2.177.189 4.34.512 6.478.968a52.264 52.264 0 0 1 12.347 4.388c.955.526 1.94 1.002 2.865 1.584.467.282.944.563 1.408.845l1.37.906c.228.152.461.281.681.456l.662.487c.44.326.89.642 1.327.974l1.279 1.033c.211.174.431.34.636.52l.614.549a115.22 115.22 0 0 1 2.986 2.834 37.883 37.883 0 0 1 3.454 3.94c.879 1.126 2.18 3.133 2.18 3.133.316.447.592.917.873 1.385.282.467.564.928.845 1.407.513.965 1.065 1.908 1.516 2.901.983 1.943 1.065 1.084.614.209z" opacity=".6"/>
    <path fill="#FF945C" d="M117.331 81.46a53.388 53.388 0 0 1-6.62 10.715 52.7 52.7 0 0 1-9.062 8.922c-.826.672-1.71 1.266-2.578 1.885-.428.318-.887.589-1.332.878l-1.35.845a57.474 57.474 0 0 1-5.65 2.961 53.739 53.739 0 0 1-49.158-2.198 53.192 53.192 0 0 1-10.192-7.535 58.126 58.126 0 0 1-8.146-9.67A56.11 56.11 0 0 1 17.47 76.99c-.203-.49-.358-.994-.53-1.495l-.504-1.503-.428-1.525c-.141-.51-.299-1.013-.403-1.531-.228-1.03-.493-2.055-.654-3.096l-.281-1.56-.198-1.57c-.16-1.089-.214-2.19-.304-3.287-.056-.549-.048-1.1-.067-1.652-.02-.552-.037-1.1-.043-1.652a57.12 57.12 0 0 1 .406-6.603c.07-.546.13-1.095.206-1.644l.281-1.629c.164-1.092.445-2.161.682-3.237.11-.54.282-1.066.425-1.598l.454-1.59.53-1.565c.174-.521.349-1.044.563-1.551l.611-1.523c.099-.256.209-.51.327-.757l.343-.748c.234-.499.448-1.005.702-1.492l.763-1.458c.13-.242.251-.487.383-.729l.417-.71.845-1.406c.282-.465.6-.918.902-1.377.301-.458.591-.923.927-1.359.648-.884 1.279-1.782 1.985-2.62.35-.422.68-.861 1.043-1.272l1.093-1.23c.183-.203.36-.414.55-.611l.562-.588 1.15-1.177 1.203-1.126c.4-.377.797-.754 1.222-1.1a56.474 56.474 0 0 1 10.854-7.472l1.47-.763 1.504-.69c.995-.484 2.034-.844 3.057-1.272.512-.205 1.04-.363 1.56-.549l.783-.267c.26-.093.522-.177.79-.248 1.061-.281 2.112-.627 3.19-.844a49.876 49.876 0 0 1 12.798-1.28c4.268.131 8.51.724 12.65 1.767.263.056.522.127.778.203l.775.22c.516.148 1.034.28 1.546.441l1.527.51.764.253c.256.084.501.191.752.281l1.504.58.377.146.37.164.737.326c.49.222.99.425 1.474.661l1.442.724a50.632 50.632 0 0 1 10.648 7.244c.823.687 1.566 1.46 2.341 2.195.197.183.38.378.563.563l.55.586c.36.394.74.77 1.09 1.179l1.039 1.221c.172.206.349.406.518.614l.491.636.983 1.27c.312.433.614.875.924 1.31.633.865 1.18 1.785 1.76 2.686.473.802.682 2.319-1.501-1.056-.257-.433-.564-.844-.845-1.246l-.862-1.239-.933-1.168c-.307-.397-.602-.805-.938-1.182-.656-.76-1.281-1.548-1.986-2.265l-1.031-1.098c-.355-.355-.721-.698-1.081-1.044a50.558 50.558 0 0 0-9.578-7.202 56.977 56.977 0 0 0-10.935-4.892 54.705 54.705 0 0 0-11.688-2.496A51.504 51.504 0 0 0 60.91 5.1 50.23 50.23 0 0 0 48.7 8.341c-.991.368-1.944.83-2.91 1.26-.487.209-.95.465-1.408.701-.46.237-.944.479-1.409.726a57.883 57.883 0 0 0-5.369 3.35 58.753 58.753 0 0 0-4.972 3.895l-1.174 1.072c-.384.36-.78.707-1.141 1.092-.735.754-1.49 1.489-2.175 2.291a50.377 50.377 0 0 0-7.237 10.349 51.74 51.74 0 0 0-4.467 11.843 57.714 57.714 0 0 0-1.57 12.553A54.39 54.39 0 0 0 16.2 70.368a51.081 51.081 0 0 0 4.417 12.23 53.998 53.998 0 0 0 17.116 19.523c.434.332.904.611 1.358.915.453.304.907.594 1.38.875l1.408.83.705.417.723.38 1.448.763c.488.244.986.464 1.48.698.98.481 2 .872 3.008 1.286.501.216 1.02.385 1.535.563l1.546.54 1.575.459c.527.149 1.045.318 1.583.433 1.065.245 2.124.529 3.209.701l1.617.281 1.63.212c2.184.269 4.383.4 6.584.394l1.65-.054c.564-.022 1.102-.025 1.648-.084 1.096-.099 2.195-.169 3.285-.344.543-.079 1.09-.143 1.634-.233l1.62-.307.81-.152.803-.191 1.603-.383c.533-.138 1.057-.301 1.584-.451.526-.149 1.059-.281 1.574-.478 1.037-.357 2.082-.687 3.099-1.109a58.403 58.403 0 0 0 5.989-2.716 56.613 56.613 0 0 0 5.605-3.425c.919-.608 1.778-1.289 2.651-1.97.445-.324.845-.695 1.273-1.047.428-.352.845-.704 1.251-1.072l1.203-1.126c.2-.189.403-.372.597-.563l.563-.594 1.144-1.185 1.082-1.241a52.817 52.817 0 0 0 7.284-10.951c.972-1.886 1.611-2.384.857-.732z" opacity=".7"/>
  </g>
  <path fill="#282828" d="M53.008 65.603c-1.89 1.43-4.16 2.146-6.807 2.146-2.63 0-4.752-.847-6.363-2.54-1.612-1.694-2.417-3.807-2.417-6.339 0-2.532.773-4.637 2.318-6.314 1.562-1.694 3.659-2.54 6.29-2.54 1.216 0 2.433.164 3.65.493 1.216.329 2.137.666 2.762 1.011v3.157l-.271-.05c-.411-1.48-1.127-2.523-2.146-3.132-1.003-.608-2.335-.912-3.996-.912-2.104 0-3.707.764-4.81 2.294-1.1 1.512-1.652 3.494-1.652 5.944 0 2.45.584 4.43 1.752 5.944 1.167 1.512 2.803 2.269 4.908 2.269 1.513 0 2.77-.181 3.773-.543 1.02-.378 2.023-.92 3.01-1.628v.74zM55.226 61.682c0-1.727.493-3.174 1.48-4.341.986-1.168 2.326-1.751 4.02-1.751 1.694 0 3.059.583 4.094 1.75 1.036 1.168 1.554 2.615 1.554 4.342 0 1.726-.501 3.173-1.504 4.34-.987 1.151-2.327 1.727-4.02 1.727-1.694 0-3.059-.584-4.095-1.751-1.02-1.168-1.529-2.606-1.529-4.316zm2.836 3.995c.658 1.053 1.587 1.579 2.787 1.579s2.105-.518 2.714-1.554c.624-1.036.937-2.368.937-3.996 0-1.644-.33-2.992-.987-4.045-.658-1.052-1.587-1.578-2.787-1.578-1.184 0-2.088.526-2.713 1.578-.608 1.036-.913 2.368-.913 3.996 0 1.628.321 2.968.962 4.02zM72.817 55.59v4.414c.148-1.183.56-2.211 1.233-3.082.675-.888 1.57-1.332 2.689-1.332 2.515 0 3.773 1.315 3.773 3.946v3.897c0 1.71.107 2.77.32 3.182.231.394.823.591 1.777.591l.05.296h-5.994l.049-.296c.987 0 1.579-.205 1.776-.616.197-.411.296-1.538.296-3.38v-3.428c0-1.134-.181-1.989-.543-2.564-.345-.576-.904-.864-1.677-.864-.756 0-1.39.263-1.9.79-.509.51-.887 1.159-1.134 1.948a15.414 15.414 0 0 0-.715 4.612c0 1.546.099 2.516.296 2.91.214.395.806.592 1.776.592l.05.296H68.92l.05-.296c.986 0 1.586-.197 1.8-.591.214-.412.32-1.489.32-3.231V61.41c0-2.466-.123-3.954-.37-4.464-.082-.18-.23-.345-.443-.493a1.4 1.4 0 0 0-.666-.271c-.23-.033-.551-.05-.962-.05l-.05-.271c1.431-.18 2.837-.271 4.218-.271zM90.153 67.749c-1.447 0-2.688-.534-3.724-1.603s-1.554-2.516-1.554-4.341c0-1.842.469-3.338 1.406-4.489.953-1.15 2.302-1.726 4.045-1.726 1.085 0 2.03.18 2.836.542.806.346 1.209.83 1.209 1.455 0 .56-.305.839-.913.839-.312 0-.575-.123-.79-.37a3.226 3.226 0 0 1-.468-.79c-.099-.295-.304-.566-.616-.813-.313-.247-.724-.37-1.234-.37-1.183 0-2.08.493-2.688 1.48-.608.986-.913 2.343-.913 4.07 0 1.71.362 3.041 1.086 3.995.723.937 1.62 1.406 2.688 1.406 1.628 0 2.787-.658 3.478-1.973l.37.197c-.839 1.66-2.245 2.491-4.218 2.491zM99.999 49.35v13.86c0 1.826.107 2.952.32 3.38.214.41.806.616 1.776.616l.05.296h-6.043l.05-.296c.986 0 1.586-.205 1.8-.616.213-.411.32-1.538.32-3.38v-9.42c0-1.826-.098-2.928-.296-3.306-.065-.115-.189-.23-.37-.345a1.268 1.268 0 0 0-.591-.198 11.258 11.258 0 0 0-.864-.024l-.05-.271A24.658 24.658 0 0 1 100 49.35zM113.288 64.814c.263-.641.452-1.29.567-1.948.132-.658.198-1.365.198-2.122 0-.756-.017-1.389-.05-1.899a9.856 9.856 0 0 0-.172-1.356c-.083-.411-.222-.707-.42-.888-.361-.313-.962-.469-1.8-.469l-.049-.271c1.43-.18 2.836-.271 4.217-.271v6.437c0 1.825.058 3.025.173 3.6.115.56.394.84.838.84.28 0 .65-.116 1.11-.346l.124.247c-.132.099-.305.222-.518.37-.214.131-.65.312-1.308.542-.657.23-1.29.346-1.899.346-.164-.954-.246-2.056-.246-3.305-.757 2.285-2.064 3.428-3.922 3.428-2.516 0-3.774-1.315-3.774-3.946V61.41c0-2.466-.123-3.954-.37-4.464-.082-.18-.23-.345-.444-.493a1.397 1.397 0 0 0-.665-.271 7.216 7.216 0 0 0-.962-.05l-.05-.271a33.632 33.632 0 0 1 4.218-.271v7.966c0 1.135.173 1.99.518 2.565.362.576.912.863 1.652.863.757 0 1.382-.205 1.875-.616.51-.411.896-.93 1.159-1.554zM120.913 63.827c0 1.07.287 1.875.863 2.418.575.526 1.258.789 2.047.789.806 0 1.455-.181 1.948-.543.494-.362.74-.847.74-1.455 0-.625-.213-1.135-.641-1.53a4.819 4.819 0 0 0-1.504-.961c-.592-.247-1.192-.502-1.801-.765a4.207 4.207 0 0 1-1.529-1.159c-.411-.51-.617-1.192-.617-2.047 0-.855.379-1.562 1.135-2.121.773-.576 1.661-.863 2.664-.863 1.43 0 2.548.23 3.354.69 0 .757-.099 1.809-.296 3.157l-.296-.074c0-1.085-.247-1.874-.74-2.367a2.45 2.45 0 0 0-1.8-.74c-.691 0-1.25.18-1.678.542-.411.362-.616.855-.616 1.48 0 .608.205 1.102.616 1.48.428.362.938.666 1.53.912.592.247 1.184.51 1.775.79.609.263 1.119.65 1.53 1.159.427.493.641 1.102.641 1.825 0 1.052-.411 1.866-1.233 2.442-.822.575-1.908.863-3.256.863-1.332 0-2.458-.353-3.379-1.06 0-.823.082-1.793.247-2.91l.296.048zM132.804 52.63a1.352 1.352 0 0 1-.419-.987c0-.378.14-.707.419-.986.28-.28.608-.42.987-.42.378 0 .707.14.986.42.28.28.419.608.419.986 0 .379-.139.707-.419.987-.279.28-.608.42-.986.42a1.35 1.35 0 0 1-.987-.42zm1.924 2.96v7.843c0 1.726.099 2.787.296 3.182.214.394.806.591 1.776.591l.049.296h-6.018l.049-.296c.987 0 1.587-.197 1.801-.591.213-.412.32-1.489.32-3.231v-1.727c0-1.907-.057-3.165-.172-3.774-.099-.624-.247-1.027-.444-1.208-.395-.362-1.003-.543-1.825-.543l-.05-.271a33.632 33.632 0 0 1 4.218-.271zM139.078 61.682c0-1.727.493-3.174 1.48-4.341.987-1.168 2.327-1.751 4.02-1.751 1.694 0 3.059.583 4.095 1.75 1.035 1.168 1.553 2.615 1.553 4.342 0 1.726-.501 3.173-1.504 4.34-.987 1.151-2.327 1.727-4.02 1.727-1.694 0-3.059-.584-4.095-1.751-1.019-1.168-1.529-2.606-1.529-4.316zm2.837 3.995c.657 1.053 1.586 1.579 2.787 1.579 1.2 0 2.104-.518 2.713-1.554.624-1.036.937-2.368.937-3.996 0-1.644-.329-2.992-.987-4.045-.657-1.052-1.586-1.578-2.787-1.578-1.184 0-2.088.526-2.713 1.578-.608 1.036-.912 2.368-.912 3.996 0 1.628.32 2.968.962 4.02zM156.669 55.59v4.414c.148-1.183.559-2.211 1.233-3.082.675-.888 1.571-1.332 2.689-1.332 2.516 0 3.773 1.315 3.773 3.946v3.897c0 1.71.107 2.77.321 3.182.23.394.822.591 1.776.591l.049.296h-5.993l.049-.296c.987 0 1.579-.205 1.776-.616.197-.411.296-1.538.296-3.38v-3.428c0-1.134-.181-1.989-.543-2.564-.345-.576-.904-.864-1.677-.864-.756 0-1.389.263-1.899.79-.51.51-.888 1.159-1.134 1.948a15.412 15.412 0 0 0-.716 4.612c0 1.546.099 2.516.296 2.91.214.395.806.592 1.776.592l.049.296h-6.018l.05-.296c.986 0 1.586-.197 1.8-.591.214-.412.321-1.489.321-3.231V61.41c0-2.466-.124-3.954-.37-4.464-.082-.18-.23-.345-.444-.493a1.397 1.397 0 0 0-.666-.271 7.205 7.205 0 0 0-.962-.05l-.049-.271c1.43-.18 2.836-.271 4.217-.271z"/>
  <defs>
    <filter id="filter0_f" width="133.202" height="31.595" x=".837" y="107.157" color-interpolation-filters="sRGB" filterUnits="userSpaceOnUse">
      <feFlood flood-opacity="0" result="BackgroundImageFix"/>
      <feBlend in="SourceGraphic" in2="BackgroundImageFix" result="shape"/>
      <feGaussianBlur result="effect1_foregroundBlur" stdDeviation="5"/>
    </filter>
    <filter id="filter1_f" width="86.174" height="12.95" x="25.752" y="113.858" color-interpolation-filters="sRGB" filterUnits="userSpaceOnUse">
      <feFlood flood-opacity="0" result="BackgroundImageFix"/>
      <feBlend in="SourceGraphic" in2="BackgroundImageFix" result="shape"/>
      <feGaussianBlur result="effect1_foregroundBlur" stdDeviation="2"/>
    </filter>
    <linearGradient id="paint0_linear" x1="67.438" x2="67.438" y1="117.157" y2="128.752" gradientUnits="userSpaceOnUse">
      <stop stop-color="#B4B4B4"/>
      <stop offset="1" stop-color="#F2F1EE"/>
    </linearGradient>
    <clipPath id="clip0">
      <path fill="#fff" d="M0 0h107.99v114.323H0z" transform="translate(10.837 .781)"/>
    </clipPath>
  </defs>
</svg>
