<svg width="234" height="139" viewBox="0 0 234 139" fill="none" xmlns="http://www.w3.org/2000/svg">
<g opacity="0.7" filter="url(#filter0_f)">
<ellipse cx="67.4376" cy="122.698" rx="56.6009" ry="5.79727" fill="url(#paint0_linear)" fill-opacity="0.4"/>
</g>
<g filter="url(#filter1_f)">
<ellipse cx="68.8386" cy="120.077" rx="39.0869" ry="2.47506" fill="#F5F5F5"/>
</g>
<g clip-path="url(#clip0)">
<g opacity="0.8">
<path opacity="0.8" d="M115.288 28.047C112.922 24.1477 110.125 20.5263 106.95 17.2508L105.75 16.0377L104.494 14.881C103.671 14.0929 102.767 13.395 101.891 12.6604C101.451 12.2973 100.981 11.9708 100.525 11.6219L99.8345 11.1096L99.488 10.8535L99.1302 10.6143C98.1725 9.98103 97.2232 9.32244 96.2119 8.75955C95.7161 8.4781 95.226 8.17414 94.7218 7.89832L93.195 7.11872L92.4288 6.7247L91.6457 6.36726L90.0738 5.65239C89.5443 5.42724 89.0062 5.2246 88.471 5.0107C87.9358 4.7968 87.4062 4.57445 86.8541 4.39996C85.7611 4.03689 84.6766 3.64287 83.5611 3.35298C79.1335 2.08133 74.5676 1.35266 69.9638 1.18303C65.2111 0.991621 60.4534 1.40682 55.806 2.41858L54.0679 2.81261L52.3496 3.28543L51.5045 3.52466L50.6594 3.80611L48.9693 4.369L47.3045 5.00788L46.4594 5.32873C46.1777 5.44413 45.9129 5.56796 45.6425 5.68617L44.0087 6.40667C43.4735 6.6656 42.9439 6.93578 42.4087 7.20315L41.5974 7.58592C41.3326 7.72383 41.0763 7.86737 40.8171 8.01935L39.2594 8.90309C38.7495 9.21268 38.2481 9.53916 37.741 9.85719L36.9833 10.3385C36.7326 10.5017 36.4931 10.679 36.2452 10.8507L34.7804 11.8864C34.3016 12.2438 33.834 12.621 33.372 12.9869L32.6649 13.5498C32.4311 13.7355 32.2086 13.9382 31.9804 14.1324L30.6114 15.2806C30.1691 15.6831 29.741 16.1025 29.3043 16.5134L28.6536 17.1326C28.4367 17.3408 28.2367 17.5632 28.0283 17.7771L26.7888 19.0745C26.386 19.5164 26.0001 19.9723 25.6057 20.4227L25.017 21.0981C24.8198 21.3233 24.6423 21.5625 24.4536 21.7961L23.3409 23.2033C22.9775 23.6762 22.6395 24.1687 22.2874 24.65C21.9353 25.1312 21.5832 25.6125 21.2677 26.1191L20.2902 27.6136C19.9662 28.1146 19.6817 28.6352 19.3747 29.1447C18.7493 30.1579 18.2198 31.2245 17.662 32.2743C17.5183 32.5361 17.3803 32.8035 17.2676 33.0736L16.8902 33.8814L16.5268 34.7004C16.4 34.9818 16.2761 35.238 16.1662 35.5166C15.724 36.6199 15.2423 37.7091 14.8733 38.8405C14.6789 39.4034 14.4732 39.9662 14.2901 40.5291L13.7859 42.2403L13.5352 43.0847L13.3239 43.9515L12.9099 45.6908C12.7803 46.2734 12.6845 46.8617 12.5718 47.4471L12.4113 48.328L12.3324 48.7699L12.2732 49.2146C12.1239 50.3994 11.9352 51.5815 11.8704 52.7777C11.8253 53.3743 11.7746 53.971 11.738 54.5676L11.6929 56.3633L11.6704 57.2611C11.6704 57.5594 11.6704 57.8606 11.6901 58.1589L11.738 59.9573C11.8602 62.3554 12.1359 64.7432 12.5634 67.1061L12.7239 67.9926L12.8028 68.4345L12.9042 68.8735L13.3099 70.6298C13.4338 71.218 13.6197 71.7893 13.7747 72.3691C13.9296 72.9489 14.0873 73.5399 14.2732 74.1028C14.6592 75.2286 15.0141 76.3853 15.4733 77.497C15.6958 78.0599 15.8958 78.6228 16.1409 79.1688L16.8733 80.8125C17.1071 81.3754 17.3888 81.896 17.6564 82.4308C17.924 82.9655 18.1859 83.5059 18.4789 84.0322C19.0761 85.0735 19.6395 86.1346 20.3015 87.1281C21.5766 89.1624 22.9794 91.1139 24.5015 92.9709C25.2902 93.8772 26.0424 94.8144 26.8846 95.67C27.2987 96.1034 27.7015 96.5481 28.1269 96.9731L29.4227 98.2227C29.848 98.6477 30.3015 99.0389 30.7551 99.4357C31.2086 99.8326 31.6537 100.232 32.1156 100.615L33.5241 101.741C33.7607 101.927 33.9917 102.118 34.234 102.304L34.9664 102.83C35.4565 103.179 35.941 103.536 36.434 103.88L37.9439 104.865L38.7016 105.355L39.4791 105.81L41.034 106.722L42.6312 107.567L43.4312 107.983C43.7129 108.115 43.9749 108.239 44.2481 108.366L45.8847 109.123C46.4481 109.362 47.0115 109.579 47.5552 109.807C48.6622 110.28 49.8087 110.651 50.9355 111.043C51.2172 111.147 51.4989 111.231 51.7975 111.324L52.6651 111.574C53.2454 111.735 53.8172 111.923 54.4031 112.059L56.1609 112.469C56.4426 112.534 56.7468 112.613 57.0426 112.664L57.9299 112.824L59.7074 113.139L61.499 113.364L62.4933 113.485C62.8257 113.522 63.1581 113.539 63.4933 113.564L65.4934 113.705L67.4962 113.744C67.8314 113.744 68.1638 113.761 68.499 113.744L69.5018 113.713C72.1741 113.646 74.8377 113.382 77.4709 112.923L79.4428 112.557C80.0935 112.413 80.7414 112.253 81.3921 112.101C81.716 112.022 82.0428 111.952 82.3639 111.862L83.3245 111.58L84.285 111.299C84.6062 111.206 84.9273 111.116 85.24 111.003L87.133 110.356C87.764 110.142 88.3752 109.875 88.9978 109.635L89.9273 109.267C90.2344 109.137 90.5358 108.985 90.84 108.859C91.4457 108.577 92.0598 108.318 92.6598 108.014C96.7997 106.009 100.685 103.517 104.232 100.59C107.726 97.6891 110.819 94.3367 113.429 90.6208C113.854 89.9848 113.528 90.2099 113.094 90.846C110.544 94.3524 107.548 97.5115 104.181 100.243C103.773 100.601 103.336 100.919 102.899 101.248L101.618 102.247L100.271 103.168C99.8204 103.472 99.3809 103.787 98.9105 104.063C97.9838 104.626 97.0711 105.219 96.1133 105.726L94.7049 106.514L93.2513 107.24C92.2513 107.767 91.2034 108.194 90.1752 108.664C89.6597 108.901 89.1245 109.086 88.6006 109.3C88.0766 109.514 87.5499 109.728 87.0118 109.908C85.9358 110.263 84.871 110.668 83.7724 110.961L82.1329 111.434L80.4709 111.817C79.3695 112.098 78.2427 112.272 77.1244 112.489C76.8427 112.545 76.561 112.585 76.2794 112.621L75.4343 112.737C74.8709 112.807 74.3075 112.9 73.7441 112.951L72.054 113.091L71.2089 113.159L70.3638 113.187L68.6737 113.238C68.1103 113.238 67.5469 113.221 66.9835 113.215C64.6211 113.16 62.2644 112.958 59.9271 112.61L58.1863 112.301C57.606 112.194 57.0257 112.101 56.4538 111.957C55.3074 111.676 54.1552 111.439 53.0285 111.09C52.4651 110.922 51.9017 110.772 51.3383 110.589L49.6679 110.027L48.8228 109.745L48.0031 109.416L46.3186 108.721C44.1534 107.783 42.0471 106.716 40.0115 105.523C38.9805 104.96 38.0002 104.288 37.0086 103.649L36.6368 103.407L36.2762 103.148L35.5579 102.633L34.8368 102.132C34.5945 101.96 34.3579 101.789 34.1269 101.6C33.203 100.863 32.2621 100.151 31.3861 99.3485C30.9438 98.9544 30.4874 98.5801 30.0621 98.172L28.7832 96.9449C28.3494 96.5424 27.9381 96.1006 27.5438 95.6784C27.1494 95.2562 26.724 94.8341 26.3353 94.3838C25.5719 93.4831 24.7747 92.6107 24.0818 91.6622C23.7212 91.195 23.3522 90.7334 23.0029 90.255L21.986 88.8083C21.8198 88.5663 21.6423 88.3299 21.4846 88.0822L21.0113 87.3364C20.6986 86.8382 20.3775 86.3429 20.0705 85.8391C15.2252 77.7005 12.5404 68.4605 12.2704 58.9948C12.2704 58.4066 12.2394 57.8183 12.2338 57.2329L12.2817 55.4711L12.307 54.5902C12.3239 54.3087 12.3493 54.0048 12.3718 53.712L12.5127 51.9586C12.5606 51.3761 12.6563 50.7963 12.7268 50.2137L12.8423 49.344C12.8789 49.0626 12.9183 48.7642 12.9746 48.4772L13.2901 46.7519C13.3465 46.4705 13.3887 46.189 13.4563 45.8907L13.6592 45.0463C14.6908 40.4737 16.3019 36.0512 18.4536 31.8859C18.7353 31.3709 18.9859 30.853 19.2648 30.3436L20.1465 28.8379L20.5888 28.0864L21.0648 27.3575L22.0198 25.8996C23.3459 23.9884 24.788 22.1603 26.3381 20.4255C29.4326 16.9527 32.9501 13.8807 36.8086 11.2813C37.2791 10.9408 37.7805 10.6452 38.2706 10.3328C38.7608 10.0204 39.2481 9.70239 39.7551 9.41532C40.772 8.85243 41.7664 8.24169 42.8171 7.72665C44.8923 6.66162 47.0295 5.72178 49.2172 4.91219L50.8735 4.3493L51.7017 4.06785L52.5468 3.823L54.2369 3.33891L55.9271 2.93363L56.7722 2.7338C57.0539 2.66907 57.3355 2.62403 57.6172 2.56774L59.3384 2.25253C59.9018 2.15402 60.4933 2.0921 61.068 2.01049C61.6426 1.92887 62.2201 1.84443 62.8032 1.80784L64.7356 1.65024C65.3807 1.59958 66.0286 1.59957 66.6737 1.57424L67.6427 1.54328C67.9666 1.54328 68.2906 1.54328 68.6117 1.54328L70.5525 1.57706L72.4878 1.70371L73.4568 1.76844L74.4202 1.88102L76.347 2.11181L78.2597 2.43265C78.578 2.48894 78.8991 2.53398 79.2146 2.60152L80.1639 2.80979C80.7949 2.95333 81.4315 3.09124 82.0569 3.2404C83.3048 3.58939 84.5639 3.89899 85.7836 4.33241L86.7048 4.63919C87.0118 4.73769 87.3189 4.84464 87.6203 4.96567L89.4316 5.66928C89.7358 5.78186 90.0316 5.91695 90.3245 6.04923L91.2119 6.44606C91.8034 6.71062 92.3978 6.97237 92.9668 7.2904L94.6992 8.18259L96.3894 9.16483C96.6711 9.33088 96.9528 9.48849 97.2344 9.6658L98.0457 10.2006L98.8542 10.7353C99.1359 10.9126 99.395 11.0899 99.6514 11.2982L101.209 12.4493C101.471 12.6379 101.719 12.8433 101.97 13.0488L102.716 13.6623L103.463 14.2759C103.711 14.4813 103.944 14.7037 104.184 14.9176L105.612 16.2179C107.46 18.0063 109.2 19.9029 110.823 21.8974C111.229 22.3956 111.609 22.9163 112.004 23.4229L112.592 24.1884L113.156 24.9793C113.522 25.5084 113.908 26.0262 114.26 26.5666L115.311 28.1962C115.682 28.7478 115.657 28.6352 115.288 28.047Z" fill="#FF945C"/>
</g>
<g opacity="0.8">
<path opacity="0.8" d="M117.399 29.2458C113.396 22.0718 107.669 15.8912 100.917 11.0898L99.3903 10.0569L98.627 9.54181L97.841 9.06336L96.2692 8.10645L94.6523 7.22552L93.8438 6.78365L93.0157 6.38118L91.3593 5.57906L89.6692 4.85575L88.8241 4.4955C88.5424 4.37729 88.2607 4.2816 87.9621 4.17183C83.3636 2.41557 78.5512 1.27978 73.6521 0.794487L71.8127 0.628435C71.1986 0.597476 70.5817 0.580587 69.9676 0.555256L69.0436 0.521484C68.7366 0.521484 68.4267 0.521484 68.1197 0.521484L66.2718 0.552444C63.8075 0.650649 61.3524 0.911083 58.9224 1.33205C57.7027 1.51499 56.5055 1.80206 55.3027 2.06662C55.0013 2.12854 54.7027 2.20453 54.4069 2.28896L53.5168 2.53101C52.9252 2.69988 52.3252 2.83497 51.7421 3.03761L49.9872 3.6005C49.7055 3.69056 49.4041 3.79469 49.1167 3.90446L48.2547 4.22531C47.0942 4.63059 45.973 5.13157 44.8435 5.61003C42.6025 6.60314 40.4239 7.73099 38.3195 8.98737C37.2518 9.59248 36.2434 10.2848 35.2208 10.9575C34.7082 11.2924 34.2237 11.6695 33.7251 12.0242C33.2265 12.3788 32.7251 12.7334 32.2546 13.1274L30.8208 14.2785C30.3419 14.6613 29.8969 15.0835 29.4321 15.486C28.4968 16.2796 27.6405 17.1746 26.7588 18.019C25.0355 19.7756 23.4354 21.6488 21.97 23.6254C18.9671 27.6741 16.5288 32.1118 14.7221 36.8167C13.8292 39.1684 13.0887 41.575 12.5052 44.0217C12.1812 45.2376 11.9784 46.4759 11.7362 47.7087L11.6488 48.1702L11.584 48.6374L11.4517 49.569L11.3193 50.5006C11.2742 50.8102 11.2291 51.1226 11.2066 51.435C10.6519 56.435 10.7466 61.4856 11.4883 66.4614C11.8487 68.9471 12.3757 71.4059 13.0657 73.8212C13.4432 75.0201 13.7925 76.2332 14.2517 77.404L14.5784 78.2905C14.6855 78.5861 14.7953 78.8816 14.9249 79.1686L15.6658 80.9052C19.8386 90.111 26.3669 98.0549 34.5927 103.936C35.0885 104.321 35.6208 104.654 36.1392 105.008L36.9195 105.534C37.1786 105.712 37.4406 105.886 37.711 106.044C38.7843 106.694 39.8491 107.364 40.9674 107.941L41.7955 108.391L42.2096 108.616L42.635 108.822L44.3251 109.641L44.7505 109.846L45.1843 110.029L46.0519 110.395L46.9195 110.761L47.3533 110.944L47.7956 111.107C55.1642 113.929 63.0411 115.183 70.9225 114.788C71.6296 114.743 72.331 114.707 73.0465 114.656L75.162 114.423C75.869 114.361 76.5705 114.22 77.2662 114.113L78.3169 113.944C78.6662 113.891 79.0127 113.803 79.3592 113.733C82.1377 113.178 84.8689 112.408 87.5283 111.431C88.1903 111.177 88.8607 110.952 89.5001 110.674L91.4523 109.829C92.1001 109.548 92.7283 109.219 93.3678 108.912C93.6833 108.754 94.0072 108.608 94.3199 108.439L95.2495 107.93C96.503 107.274 97.6974 106.522 98.9115 105.777C100.08 104.98 101.264 104.206 102.373 103.334C102.937 102.909 103.5 102.489 104.038 102.025C104.576 101.56 105.128 101.127 105.658 100.66L107.216 99.2273C107.481 98.9937 107.726 98.7404 107.974 98.4899L108.717 97.7356C110.695 95.7208 112.515 93.5567 114.159 91.2624C114.365 90.9809 114.585 90.6995 114.779 90.418L115.365 89.5371L115.948 88.6562C116.044 88.5098 116.145 88.3747 116.23 88.2143L116.512 87.7612L117.593 85.9459C117.931 85.3267 118.258 84.7019 118.588 84.0827C118.948 83.4016 118.841 83.4044 118.478 84.0827L117.605 85.7179C117.295 86.2526 116.971 86.7789 116.652 87.3109L116.174 88.1045C116.01 88.3663 115.83 88.6196 115.661 88.8757L114.624 90.4124C114.261 90.9134 113.886 91.4031 113.517 91.8984L112.954 92.6386C112.762 92.8807 112.562 93.1171 112.365 93.3535L111.179 94.7804L109.928 96.1483L109.303 96.8322L108.647 97.4851L107.328 98.7882L105.954 100.029C105.723 100.235 105.497 100.446 105.264 100.646L104.548 101.234C104.069 101.622 103.596 102.022 103.111 102.402L101.627 103.508C101.376 103.688 101.137 103.882 100.881 104.054L100.114 104.572C99.6016 104.912 99.0974 105.27 98.5763 105.599C94.4069 108.256 89.9151 110.37 85.21 111.89L84.3283 112.171L83.886 112.312L83.4381 112.433L81.6465 112.914L81.1987 113.035L80.7451 113.134L79.8381 113.331L78.931 113.525L78.4775 113.623L78.0212 113.699L76.1902 113.998L75.7338 114.071L75.2718 114.124L74.3507 114.228L73.4296 114.33C73.1225 114.366 72.8155 114.397 72.5056 114.411L70.6549 114.521C70.038 114.572 69.4183 114.555 68.8014 114.566C68.1845 114.577 67.5648 114.591 66.9478 114.566C65.714 114.504 64.4746 114.496 63.2464 114.352L61.4013 114.175L59.5675 113.91L58.652 113.778C58.3478 113.727 58.0464 113.663 57.7421 113.604L55.9252 113.246C53.5126 112.711 51.1368 112.022 48.8125 111.183C37.0833 106.992 27.0771 99.0315 20.3616 88.5492C19.0489 86.4955 17.8627 84.3639 16.8094 82.1661C16.2461 81.0797 15.7953 79.9426 15.2996 78.8253C15.0629 78.2624 14.8601 77.6826 14.6404 77.1141C14.4207 76.5456 14.201 75.9714 14.0235 75.386L13.4601 73.6411C13.2798 73.0556 13.1333 72.4618 12.97 71.8708C12.6235 70.6943 12.4066 69.4897 12.1249 68.2964C11.6576 65.8917 11.3537 63.4582 11.215 61.0126C11.1164 59.7911 11.1305 58.5668 11.1192 57.3538C11.1023 56.7431 11.1559 56.1323 11.1728 55.5216C11.1897 54.9109 11.2122 54.3001 11.2685 53.6894L11.4432 51.8656C11.477 51.5616 11.4939 51.2577 11.539 50.9537L11.6714 50.0475L11.9531 48.235L12.3108 46.4393C13.295 41.6492 14.8902 37.0049 17.0573 32.6204C17.3108 32.0575 17.6207 31.5255 17.9024 30.9852C18.1841 30.4448 18.4658 29.9016 18.7841 29.3725C19.4264 28.3283 20.0235 27.256 20.7306 26.2541C21.0771 25.7475 21.4067 25.2324 21.7644 24.7343L22.863 23.2623C23.2207 22.7641 23.6123 22.2941 24.0039 21.8241C24.3954 21.3541 24.7757 20.8728 25.1813 20.4169C28.4112 16.7276 32.1037 13.4698 36.1673 10.7239C38.1792 9.34579 40.2753 8.09467 42.4434 6.97785C43.5392 6.4431 44.6266 5.88865 45.7561 5.42708L46.6012 5.06402C46.8829 4.94018 47.1646 4.82198 47.4463 4.72066L49.159 4.07614C49.7224 3.84817 50.3139 3.68493 50.8942 3.49073L51.7646 3.20929C52.0463 3.1136 52.3449 3.02072 52.6407 2.94754C53.821 2.63233 54.9956 2.28896 56.1957 2.05536C58.5903 1.52641 61.0171 1.15504 63.4605 0.943653L65.483 0.81419L65.9873 0.783231H66.4943H67.5056C68.8549 0.7382 70.2014 0.825446 71.5507 0.873291C72.2239 0.915508 72.8944 0.988683 73.5648 1.04779L74.5704 1.14066L75.5704 1.28139L77.5705 1.56283L79.5423 1.95123C79.8719 2.01878 80.2043 2.07225 80.5311 2.15387L81.5113 2.39873C82.1649 2.5676 82.824 2.71113 83.4691 2.90251L85.4043 3.49073L85.8888 3.63709L86.3649 3.80596L87.317 4.14932C88.5959 4.57993 89.8297 5.13156 91.0776 5.64942C91.6917 5.93087 92.2973 6.2292 92.9086 6.51627C93.2128 6.66262 93.5199 6.79772 93.8213 6.95814L94.7143 7.43942C99.3653 9.91366 103.651 13.0193 107.45 16.668C109.336 18.504 111.098 20.4624 112.726 22.5305C113.495 23.5888 114.3 24.6104 114.979 25.7052L115.512 26.513C115.689 26.7944 115.869 27.0505 116.027 27.3292L117.002 28.9841C117.173 29.3088 117.376 29.6161 117.607 29.9016C117.723 29.9607 117.675 29.7721 117.399 29.2458Z" fill="#FF945C"/>
</g>
<path d="M117.987 33.2628L117.274 31.8303C117.021 31.3603 116.756 30.8987 116.497 30.423C115.992 29.4802 115.409 28.5852 114.843 27.679C114.561 27.2202 114.254 26.7868 113.95 26.3477L113.032 25.0306L112.054 23.7584C111.725 23.3362 111.409 22.9141 111.054 22.5032C108.319 19.2082 105.226 16.2272 101.832 13.6151C98.4302 11.0281 94.7444 8.83743 90.8457 7.08558C90.3668 6.84917 89.8626 6.66341 89.3696 6.46077L87.8823 5.85847L86.3668 5.32936C85.8597 5.16049 85.3611 4.96066 84.8428 4.82276L83.302 4.37244C83.0456 4.29926 82.7893 4.21765 82.5301 4.1501L81.7498 3.96435L80.1893 3.59846C79.6681 3.469 79.1386 3.39302 78.6118 3.28888C74.3979 2.49237 70.1095 2.15828 65.823 2.29256C61.5327 2.45953 57.2775 3.13504 53.1468 4.3049L52.3693 4.5188L51.6031 4.76928L50.0707 5.27025C49.5581 5.43349 49.0623 5.64458 48.558 5.83314C48.0538 6.02171 47.5496 6.20747 47.0538 6.41856C45.0666 7.24576 43.1283 8.18543 41.2481 9.23301C40.7805 9.50039 40.3016 9.74524 39.8397 10.0295L38.4678 10.8738L37.7833 11.3016L37.1185 11.7604L35.7889 12.6779C35.3467 12.9847 34.9298 13.3252 34.4988 13.6489C34.0678 13.9726 33.634 14.2934 33.2255 14.6424L31.9917 15.6866C31.7861 15.8611 31.5776 16.0327 31.3776 16.21L30.7861 16.7729L29.6058 17.8762C29.217 18.2505 28.8508 18.6446 28.479 19.0301L27.9156 19.6099C27.7269 19.8013 27.541 19.9983 27.3663 20.2038L26.2987 21.4168C26.1241 21.6222 25.9381 21.8164 25.7691 22.0275L25.2593 22.6467L24.2508 23.9104C23.9269 24.341 23.617 24.7829 23.3015 25.2191C22.986 25.6554 22.6564 26.0832 22.3747 26.5419C19.9785 30.1291 17.9942 33.9744 16.4592 38.0052C14.9582 42.0227 13.9407 46.2043 13.4282 50.462C12.3511 58.9924 13.2375 67.6559 16.0198 75.7921C17.4031 79.8475 19.2701 83.7218 21.5804 87.3314C22.7314 89.1356 23.9842 90.873 25.3325 92.5353L26.3776 93.7511C26.7297 94.1536 27.0649 94.5701 27.4396 94.9501C28.1804 95.7184 28.8931 96.5177 29.6931 97.2382L30.8508 98.3443L32.0565 99.3969C32.8481 100.115 33.7016 100.756 34.5354 101.421C34.9467 101.758 35.3805 102.062 35.8199 102.372L37.1213 103.301L38.465 104.17C38.9157 104.452 39.3523 104.761 39.8199 105.015C43.4808 107.198 47.383 108.949 51.4482 110.233C55.5086 111.503 59.7011 112.306 63.9441 112.625C68.1973 112.964 72.475 112.832 76.6991 112.231C80.9191 111.598 85.0505 110.474 89.0091 108.882C92.9577 107.29 96.7093 105.248 100.189 102.797C101.932 101.578 103.605 100.263 105.201 98.8566C105.598 98.5019 105.978 98.1304 106.367 97.7702C106.756 97.4099 107.156 97.0553 107.516 96.6641C108.249 95.8929 109.015 95.1556 109.697 94.3394C110.24 93.7202 110.02 93.6217 109.48 94.238L108.956 94.8347C108.778 95.0317 108.589 95.2175 108.406 95.3976L107.302 96.5375C106.939 96.923 106.536 97.2692 106.156 97.6351C105.775 98.001 105.389 98.3668 104.992 98.7158C103.401 100.118 101.732 101.429 99.9922 102.642C96.5241 105.085 92.7799 107.111 88.8372 108.679C80.9343 111.855 72.3931 113.123 63.9075 112.38C61.7944 112.206 59.6926 111.916 57.6116 111.51L57.2201 111.44L56.8313 111.35L56.0567 111.173L54.5074 110.815L52.9778 110.382C52.4708 110.23 51.9524 110.1 51.4538 109.929C47.4075 108.629 43.526 106.863 39.8875 104.668C36.2522 102.462 32.8754 99.8568 29.8199 96.9005L29.2565 96.3376C29.0677 96.1519 28.8875 95.9549 28.6931 95.7747L27.5945 94.6208C27.2227 94.2409 26.8931 93.8215 26.541 93.4247C26.1888 93.0278 25.8396 92.6254 25.5072 92.2116C24.1667 90.5588 22.926 88.8277 21.7916 87.0274C17.2113 79.8393 14.4817 71.5479 13.6226 63.1045C13.2289 58.8714 13.3414 54.6065 13.9578 50.4001C15.1737 41.9648 18.2528 33.9056 22.9719 26.8065C25.3476 23.2663 28.1362 20.0209 31.279 17.1388C36.0043 12.8005 41.4339 9.29716 47.3355 6.77881C47.8285 6.57616 48.3299 6.38759 48.8256 6.19339C49.3214 5.9992 49.8144 5.79093 50.3242 5.6305C51.3412 5.30403 52.3412 4.92971 53.3778 4.66796C57.4861 3.50621 61.7173 2.83265 65.9835 2.66125C70.2457 2.51282 74.5111 2.83658 78.7019 3.62661C87.0795 5.1633 95.0091 8.79677 101.784 13.9163C105.155 16.5072 108.221 19.4709 110.925 22.7508C111.277 23.1477 111.584 23.5952 111.911 24.0005C112.237 24.4057 112.561 24.8448 112.877 25.2642L113.787 26.5701L114.24 27.223C114.392 27.4397 114.522 27.6705 114.668 27.8929L115.513 29.241L115.725 29.5787L115.919 29.9249L116.311 30.6172C116.567 31.0816 116.837 31.5376 117.085 32.0076L117.801 33.4289L118.161 34.1381C118.28 34.3661 118.483 34.2085 117.987 33.2628Z" fill="#FF945C"/>
<path d="M114.347 83.3363C112.41 86.694 110.164 89.8637 107.637 92.8042C105.085 95.7719 102.2 98.436 99.0373 100.744L98.7021 100.994L98.3528 101.228L97.6542 101.684L96.9585 102.151C96.7275 102.309 96.4937 102.463 96.2542 102.604C95.2965 103.167 94.3528 103.778 93.3584 104.293C91.3992 105.358 89.3745 106.298 87.2964 107.107C86.2457 107.484 85.2119 107.901 84.1386 108.211C83.6062 108.374 83.0767 108.554 82.5414 108.7L80.9217 109.122C80.64 109.19 80.3837 109.272 80.1104 109.325L79.2907 109.497C78.7442 109.609 78.2006 109.73 77.6513 109.834L75.9977 110.093L75.1696 110.223L74.3245 110.313C73.7217 110.375 73.1188 110.448 72.516 110.504L70.6991 110.608C70.0935 110.656 69.4878 110.653 68.8822 110.659C68.2765 110.665 67.6681 110.687 67.0625 110.659C65.8512 110.606 64.6371 110.583 63.4314 110.445L62.5244 110.364L62.0709 110.321L61.6202 110.257L59.8173 110C57.42 109.615 55.052 109.066 52.73 108.357C51.5609 108.033 50.4285 107.594 49.2848 107.192C48.7215 106.986 48.1581 106.733 47.5947 106.505C47.0313 106.277 46.4679 106.046 45.9299 105.773L44.2904 104.988C43.7552 104.707 43.2257 104.425 42.6961 104.124L41.9017 103.688L41.1299 103.212C40.6172 102.891 40.0989 102.584 39.5918 102.255C38.6031 101.563 37.589 100.91 36.6481 100.153L35.9298 99.5898L35.5721 99.3084L35.2256 99.0269L33.8481 97.8589C30.237 94.6628 27.0708 90.9976 24.434 86.9614L23.9297 86.2015C23.7607 85.9481 23.6142 85.6808 23.4565 85.4218L22.5213 83.857C21.9579 82.7819 21.3438 81.7293 20.8311 80.6176L20.4705 79.8239L20.2734 79.413L20.0959 78.9936L19.3832 77.305C19.1522 76.7421 18.9579 76.1651 18.741 75.5966L18.4226 74.7522L18.1409 73.8826C17.3864 71.5619 16.8008 69.1896 16.3888 66.7845L16.1071 64.9833C16.0254 64.381 15.9719 63.7759 15.9043 63.1736L15.8085 62.2701L15.7578 61.3611C15.7269 60.756 15.6846 60.1508 15.6649 59.5457C15.6649 58.3327 15.6226 57.1197 15.7043 55.9066L15.7437 54.9976C15.7437 54.6936 15.7635 54.3925 15.8001 54.0913L15.9691 52.2788L16.0114 51.8257L16.0762 51.3754L16.2057 50.4747L16.3353 49.5741L16.4001 49.1238L16.4874 48.6763L16.8367 46.8891C16.8677 46.74 16.8931 46.5908 16.9269 46.4416L17.0367 45.9998L17.2564 45.116C18.4226 40.3989 20.243 35.8679 22.6649 31.6545C23.3044 30.6244 23.9044 29.569 24.6142 28.5867L25.1297 27.8381L25.3861 27.4637L25.6678 27.1007L26.772 25.6569C27.1382 25.1756 27.5495 24.7281 27.9354 24.2496L28.5213 23.5573C28.7185 23.3265 28.9326 23.1126 29.1382 22.8903L30.3805 21.5675L31.6847 20.3066C33.4406 18.6425 35.3099 17.1021 37.2791 15.6965L38.0115 15.1618L38.7665 14.6608C39.2735 14.3315 39.7721 13.9881 40.282 13.6673C41.3242 13.0537 42.3468 12.4064 43.4228 11.8548C51.991 7.22306 61.6803 5.06549 71.4062 5.62356C75.0326 5.82631 78.6307 6.38055 82.1499 7.27847C85.6765 8.1722 89.0942 9.45011 92.3415 11.0892C98.8799 14.3668 104.664 18.9674 109.328 24.5986C111.661 27.4548 113.672 30.5591 115.325 33.8554C116.978 37.1595 111.643 26.1016 104.584 19.4341L103.237 18.2098C103.018 18.0015 102.784 17.8073 102.547 17.6188L101.843 17.0559C100.922 16.265 99.9219 15.5783 98.9557 14.8522C98.4571 14.5116 97.9472 14.1823 97.443 13.8474L96.6852 13.3492L95.9049 12.8877C95.381 12.5837 94.8683 12.2629 94.3387 11.973L92.7331 11.1286C92.2035 10.8472 91.6486 10.5967 91.1021 10.3406L90.2795 9.95782C89.9978 9.82836 89.733 9.70171 89.4485 9.59476L87.7584 8.91366L87.3387 8.74479L86.9105 8.59563L86.0654 8.2973C84.9386 7.87231 83.7668 7.55709 82.6119 7.21091C82.3302 7.11804 82.0288 7.05331 81.7358 6.98013L80.8541 6.76623C80.2654 6.62832 79.6851 6.46227 79.0879 6.36095C67.2913 3.84954 54.9898 5.44403 44.225 10.8798C33.4603 16.3155 24.8797 25.2657 19.9072 36.2448L19.2086 37.9082C19.0931 38.1896 18.9719 38.4711 18.8621 38.7525L18.555 39.5969C18.3522 40.1598 18.1381 40.7226 17.9438 41.2855L17.4142 43.0108C17.3297 43.2922 17.2311 43.5737 17.155 43.8748L16.9353 44.7501C16.7917 45.3355 16.6339 45.9153 16.4987 46.5035L16.1466 48.2738C16.0902 48.5553 16.0226 48.8621 15.9747 49.1604L15.8423 50.0526C14.3188 59.6331 15.482 69.4481 19.2029 78.4082C22.974 87.3862 29.146 95.1536 37.0425 100.859C38.9953 102.282 41.0443 103.567 43.1749 104.707L43.9721 105.14C44.2369 105.283 44.5158 105.404 44.7862 105.54L46.42 106.325L48.0764 107.031L48.9215 107.383L49.7665 107.693L51.4736 108.309L53.2116 108.841L54.0821 109.105L54.9638 109.325L56.7272 109.767L58.499 110.127L59.392 110.302L60.2906 110.431L62.0906 110.687L63.899 110.853C66.4686 111.07 69.0512 111.085 71.6231 110.898L72.5864 110.836L73.5442 110.729C74.1808 110.651 74.8203 110.594 75.4569 110.499L77.3555 110.183L77.8287 110.102L78.2992 110L79.24 109.798L80.1809 109.595C80.4935 109.525 80.8006 109.432 81.1105 109.35C81.7274 109.179 82.3499 109.027 82.964 108.844L84.795 108.256L85.2513 108.109L85.702 107.94L86.6035 107.603L87.5049 107.265C87.8035 107.149 88.0964 107.014 88.3922 106.891C88.9809 106.632 89.5753 106.392 90.1556 106.122L91.888 105.278C92.1697 105.143 92.4514 104.996 92.7331 104.833L93.5782 104.372L94.3782 103.935C94.6429 103.789 94.8993 103.623 95.1584 103.465L96.7162 102.511C97.719 101.819 98.7528 101.163 99.7162 100.403L100.451 99.8403L100.818 99.5589L101.173 99.2774L102.581 98.1038C103.049 97.707 103.491 97.282 103.947 96.8711L104.629 96.2519L105.28 95.6017C107.025 93.8858 108.652 92.0541 110.15 90.1192L111.254 88.6641C111.609 88.1716 111.944 87.665 112.291 87.1668L112.809 86.4182L113.288 85.647C113.606 85.132 113.933 84.6254 114.246 84.1103C114.868 83.0352 114.953 82.2837 114.347 83.3363Z" fill="#FF945C"/>
<g opacity="0.6">
<path opacity="0.6" d="M114.767 35.688L114.128 34.3567L113.423 33.0536C109.754 26.2136 104.567 20.3027 98.2599 15.7729C91.8035 11.2135 84.271 8.36242 76.809 7.11843C72.7159 6.42952 68.5579 6.2067 64.4145 6.45422C63.8962 6.46829 63.3807 6.52739 62.8652 6.57805L61.3159 6.73003L59.7779 6.96082C59.2652 7.03681 58.7497 7.10717 58.2427 7.22256L56.713 7.53215C56.4567 7.58 56.2032 7.6391 55.9525 7.70946L55.1947 7.90366C54.6933 8.03876 54.1806 8.14852 53.6849 8.30613L52.1919 8.77333C51.944 8.85495 51.6905 8.9225 51.4454 9.01256L50.7102 9.294L49.2369 9.84282L47.7947 10.4423L47.0707 10.7547C46.8285 10.8588 46.5975 10.9827 46.3609 11.0981L44.9524 11.7961C44.4791 12.0297 44.0284 12.3027 43.5665 12.5531L42.8763 12.9359L42.5327 13.1273L42.1975 13.3356L40.8566 14.1799C40.4031 14.4473 39.9805 14.7625 39.5439 15.0552C39.1073 15.3479 38.6735 15.6434 38.2509 15.9558L36.9974 16.9099L36.3721 17.3884L35.7692 17.895L34.5551 18.8913L33.3946 19.9495C32.6058 20.6363 31.8903 21.4018 31.141 22.1279C30.9523 22.308 30.7748 22.4994 30.6002 22.6908L30.0734 23.2678C29.7269 23.6562 29.3607 24.0277 29.0283 24.4302L28.0311 25.6347C27.8678 25.8374 27.6959 26.0316 27.5354 26.2398L27.0677 26.8647L26.1297 28.1143C25.8311 28.5421 25.5466 28.9783 25.2536 29.4089C24.6508 30.2533 24.1269 31.168 23.5917 32.0573C23.31 32.4964 23.0818 32.9664 22.8283 33.4223L22.0902 34.8014L21.4198 36.2086C21.1945 36.6787 20.9663 37.1487 20.7747 37.6356C20.3776 38.6009 19.9578 39.5578 19.6283 40.5542L19.1043 42.0346L18.6536 43.5403C18.0694 45.5261 17.5992 47.5436 17.2451 49.5829C17.1578 50.0924 17.0987 50.6074 17.0226 51.1196L16.9156 51.888C16.8761 52.1441 16.8423 52.4002 16.8254 52.6591L16.6902 54.2071C16.6677 54.466 16.6395 54.7221 16.6254 54.9811L16.5972 55.7579L16.5381 57.3143C16.5381 57.8321 16.5381 58.3528 16.5381 58.8707V59.6503V60.0387L16.5634 60.427L16.6592 61.9834C16.6789 62.5041 16.7437 63.0192 16.8029 63.537L16.9747 65.0878L17.2254 66.6301C17.3071 67.1452 17.3832 67.6602 17.5071 68.1668L17.8311 69.6894C17.8789 69.9455 17.9437 70.196 18.0113 70.4465L18.2113 71.198C18.3494 71.6989 18.4649 72.2055 18.6198 72.7009L19.0902 74.1869C19.1691 74.4346 19.2423 74.6823 19.3297 74.9299L19.6114 75.6617L20.155 77.1252C20.3522 77.6065 20.5635 78.0821 20.7635 78.5606C20.9635 79.0391 21.1607 79.5231 21.4001 79.9847C21.8564 80.9191 22.2931 81.8648 22.8086 82.771C23.0621 83.227 23.2987 83.6913 23.5663 84.1388L24.3804 85.4729C24.5184 85.6952 24.6621 85.9204 24.7889 86.1399L25.2283 86.7872L26.1044 88.0903L27.0396 89.3456C27.3523 89.7621 27.6565 90.1899 27.9973 90.5839L28.9889 91.7913L29.2368 92.0925L29.4988 92.3739L30.0199 92.9537C30.372 93.3365 30.7044 93.7361 31.0678 94.1105L32.1608 95.2362L32.7072 95.7991L33.2706 96.3282L34.4115 97.3921C34.8002 97.7383 35.203 98.0648 35.6002 98.4053C35.9974 98.7459 36.3861 99.092 36.8059 99.3988C40.0877 101.997 43.6842 104.172 47.5102 105.872C55.2173 109.193 63.7554 110.747 72.1244 110.116C73.1752 110.068 74.2146 109.922 75.2597 109.804C75.7836 109.756 76.2991 109.652 76.8174 109.567C77.3358 109.483 77.8541 109.399 78.3724 109.303L79.9132 108.965L80.6851 108.799C80.9414 108.737 81.1921 108.664 81.4485 108.596L83.0062 108.157C83.5133 108.017 84.0091 107.839 84.5105 107.685C86.5095 107.037 88.4687 106.273 90.3781 105.396L91.7866 104.701L92.4936 104.355C92.7246 104.234 92.9528 104.102 93.1838 103.978L94.5584 103.218C95.0148 102.962 95.4514 102.672 95.8993 102.402C97.6801 101.299 99.3948 100.094 101.035 98.7909L102.24 97.7805L102.843 97.2767L103.423 96.7448L104.578 95.6781C104.959 95.3179 105.316 94.9323 105.685 94.5523C108.624 91.5779 111.174 88.2434 113.274 84.6286C113.502 84.2519 113.705 83.8608 113.883 83.4577C113.981 83.1763 113.99 83.0496 113.933 83.044C113.877 83.0384 113.756 83.1707 113.556 83.4211C113.278 83.7901 113.023 84.1754 112.792 84.5751C110.506 88.3979 107.745 91.9167 104.575 95.0477C102.982 96.6075 101.288 98.0619 99.5049 99.4016C98.6345 100.097 97.6908 100.696 96.7782 101.335C96.3134 101.642 95.8317 101.923 95.3697 102.219C94.9077 102.514 94.4232 102.807 93.9274 103.063L92.457 103.868C91.9612 104.124 91.4542 104.361 90.9528 104.606L90.2006 104.971C89.9499 105.092 89.688 105.194 89.4316 105.306L87.8908 105.965C87.3696 106.168 86.8457 106.356 86.3217 106.553L85.5358 106.835C85.2738 106.927 85.0034 107.006 84.7386 107.091L83.1414 107.597L81.5245 108.028L80.7161 108.242C80.4344 108.307 80.1696 108.36 79.8991 108.419L78.2625 108.768L76.6118 109.05L75.7864 109.185C75.5048 109.224 75.2231 109.249 74.9554 109.283L73.2935 109.472C72.7301 109.517 72.1808 109.545 71.6258 109.584L70.7808 109.638C70.4991 109.658 70.2174 109.638 69.9357 109.658L68.2653 109.683C63.8175 109.641 59.3933 109.034 55.099 107.876C50.8114 106.681 46.6881 104.962 42.8228 102.756C38.9525 100.54 35.3769 97.8447 32.1805 94.7353C30.5788 93.1807 29.0816 91.5222 27.6987 89.7706C27.0311 88.8784 26.3353 88.0059 25.7269 87.0715C25.4198 86.6071 25.0875 86.1596 24.8001 85.6812L23.9325 84.2345C23.6311 83.7645 23.3889 83.2664 23.1184 82.7795L22.7241 82.0449C22.5917 81.8028 22.4593 81.558 22.3466 81.3047C21.8733 80.3027 21.3832 79.3092 20.9832 78.2763C20.1397 76.2391 19.433 74.148 18.8677 72.017C17.748 67.7634 17.1511 63.3894 17.0902 58.9917C17.0902 58.4288 17.0677 57.8884 17.0902 57.3396L17.155 55.6875C17.155 55.4061 17.1719 55.1246 17.1888 54.8629L17.262 54.041L17.4057 52.3946C17.9315 48.0151 18.992 43.7164 20.5635 39.5944L21.1945 38.069L21.51 37.3063L21.8649 36.5605L22.5691 35.0688C22.8227 34.5819 23.0874 34.1006 23.3466 33.6137C25.4493 29.7382 28.0352 26.1446 31.0424 22.9188C32.5514 21.3085 34.1643 19.7986 35.8706 18.3988C36.7157 17.6754 37.6087 17.0422 38.4876 16.378C38.9326 16.0515 39.3974 15.7588 39.8509 15.4464C40.3045 15.134 40.7608 14.8244 41.2369 14.5514L42.6453 13.7071C43.1214 13.4256 43.6115 13.1836 44.0932 12.9218C45.0482 12.3786 46.0651 11.948 47.0426 11.4668C47.5412 11.2416 48.0538 11.0418 48.5552 10.8279L49.313 10.5127C49.5637 10.4057 49.8257 10.3241 50.082 10.2312L51.6257 9.66832C52.144 9.49383 52.6708 9.34466 53.1919 9.18142C57.3793 7.91977 61.7093 7.19071 66.0793 7.01147C68.2645 6.92475 70.453 6.97739 72.6315 7.16908C74.8091 7.35779 76.9729 7.68114 79.1104 8.13726C83.394 9.07617 87.5421 10.5503 91.457 12.525C92.4119 13.0513 93.3978 13.5269 94.3218 14.1095C94.7894 14.391 95.2655 14.6724 95.7303 14.9539L97.0993 15.8601C97.3275 16.0121 97.5613 16.1416 97.781 16.3161L98.443 16.803C98.8824 17.1294 99.3331 17.4447 99.7697 17.7768L101.049 18.8097C101.26 18.9842 101.48 19.1502 101.685 19.3304L102.299 19.8792C102.708 20.245 104.46 21.8859 105.285 22.7133C106.526 23.9455 107.68 25.2621 108.739 26.6536C109.618 27.7794 110.919 29.7861 110.919 29.7861C111.235 30.2336 111.511 30.7036 111.792 31.1708C112.074 31.638 112.356 32.0995 112.637 32.578C113.15 33.5434 113.702 34.4862 114.153 35.4797C115.136 37.4217 115.218 36.5633 114.767 35.688Z" fill="#FF945C"/>
</g>
<g opacity="0.7">
<path opacity="0.7" d="M117.331 81.2033C115.555 85.0232 113.333 88.6197 110.711 91.918C108.062 95.2466 105.019 98.2424 101.649 100.84C100.823 101.512 99.9389 102.106 99.0713 102.726C98.6431 103.044 98.1839 103.314 97.7389 103.604L96.3896 104.448C94.5625 105.539 92.676 106.528 90.7388 107.409C82.9627 110.983 74.444 112.649 65.8929 112.267C57.3418 111.884 49.0061 109.465 41.5807 105.211C37.8949 103.114 34.4734 100.585 31.389 97.6764C28.3297 94.7584 25.598 91.5157 23.2425 88.0059C20.8992 84.4781 18.9629 80.6968 17.4706 76.734C17.2678 76.2443 17.1129 75.7405 16.941 75.2395L16.4368 73.7366L16.0086 72.2112C15.8678 71.7017 15.71 71.198 15.6058 70.6801C15.3776 69.65 15.1129 68.6255 14.9523 67.5842L14.6706 66.025L14.4734 64.4545C14.3128 63.3653 14.2593 62.2649 14.1692 61.1672C14.1129 60.6184 14.1213 60.0668 14.1016 59.5151C14.0819 58.9635 14.065 58.4147 14.0593 57.8631C14.0669 55.6562 14.2023 53.4516 14.465 51.2603C14.5354 50.7143 14.5945 50.1655 14.6706 49.6167L14.9523 47.9871C15.1157 46.8951 15.3974 45.8256 15.634 44.7505C15.7439 44.2101 15.9157 43.6838 16.0594 43.1519L16.5129 41.5617L17.0425 39.9969C17.2171 39.4762 17.3918 38.9527 17.6058 38.4461L18.2171 36.9235C18.3157 36.6674 18.4256 36.4141 18.5439 36.1664L18.8875 35.4178C19.1213 34.9196 19.3354 34.413 19.5889 33.9261L20.3523 32.4682C20.4819 32.2262 20.603 31.9813 20.7354 31.7393L21.1523 31.03L21.9974 29.6228C22.2791 29.1584 22.5974 28.7053 22.8988 28.2465C23.2002 27.7878 23.4904 27.3234 23.8256 26.8871C24.4735 26.0034 25.1045 25.1056 25.8115 24.2669C26.1608 23.8447 26.4904 23.4057 26.8538 22.9948L27.9468 21.7648C28.1299 21.5622 28.3073 21.3511 28.4961 21.1541L29.0594 20.5659L30.2088 19.3894L31.4116 18.2637C31.8116 17.8865 32.2088 17.5094 32.6341 17.1632C35.9476 14.2576 39.5903 11.7498 43.4877 9.69082L44.9582 8.92809L46.4624 8.23856C47.4568 7.75447 48.4962 7.39421 49.5188 6.96642C50.0314 6.76096 50.5582 6.60336 51.0793 6.4176L51.8624 6.15023C52.1216 6.05735 52.3836 5.97291 52.6512 5.90255C53.7132 5.62111 54.7639 5.27493 55.8428 5.05822C60.0353 4.08086 64.3368 3.65042 68.64 3.77764C72.9084 3.9093 77.15 4.50191 81.2908 5.54512C81.5528 5.60141 81.812 5.67177 82.0683 5.74776L82.843 5.96729C83.3585 6.11645 83.8768 6.24874 84.3895 6.40916L85.9162 6.91858L86.6796 7.17188C86.936 7.25631 87.181 7.36326 87.4317 7.45332L88.936 8.0331L89.3134 8.17945L89.6825 8.34269L90.4205 8.66917C90.9106 8.89151 91.4092 9.09415 91.8937 9.33056L93.336 10.0539C97.1796 12.0058 100.758 14.4403 103.984 17.2983C104.807 17.985 105.55 18.759 106.325 19.4936C106.522 19.6765 106.705 19.8707 106.888 20.0565L107.438 20.6419C107.798 21.0359 108.178 21.413 108.528 21.8211L109.567 23.0426C109.739 23.248 109.916 23.4479 110.085 23.6562L110.576 24.2922L111.559 25.5615C111.871 25.995 112.173 26.4368 112.483 26.8731C113.116 27.7371 113.663 28.6574 114.243 29.5581C114.716 30.3602 114.925 31.8772 112.742 28.5026C112.485 28.0692 112.178 27.6583 111.897 27.2558L111.035 26.0175L110.102 24.8495C109.795 24.4526 109.5 24.0445 109.164 23.6674C108.508 22.9075 107.883 22.1195 107.178 21.4018L106.147 20.3041C105.792 19.9495 105.426 19.6062 105.066 19.26C102.17 16.4881 98.9553 14.0704 95.4881 12.0578C92.0253 10.0477 88.3599 8.40808 84.5528 7.16625C80.7601 5.90983 76.8408 5.07268 72.8654 4.66982C68.8872 4.26368 64.8751 4.32224 60.9104 4.84432C56.7196 5.40595 52.6167 6.49437 48.699 8.08376C47.7075 8.45245 46.7554 8.91403 45.7892 9.34464C45.3018 9.55291 44.8399 9.80902 44.3807 10.0454C43.9215 10.2818 43.437 10.5239 42.9722 10.7716C41.1227 11.7892 39.3304 12.9073 37.6032 14.1208C35.8772 15.3291 34.2175 16.6294 32.6313 18.016L31.4566 19.0883C31.0735 19.4485 30.6764 19.7947 30.3158 20.1803C29.5806 20.9346 28.8256 21.6691 28.1411 22.4713C25.3041 25.604 22.8728 29.0809 20.9044 32.82C18.936 36.5703 17.4356 40.5478 16.4368 44.6633C15.4554 48.7774 14.9293 52.9868 14.8678 57.2157C14.7962 61.552 15.2435 65.8813 16.2002 70.1116C17.1455 74.3591 18.6298 78.4686 20.6171 82.3404C24.6484 90.1422 30.5234 96.8438 37.7328 101.864C38.1666 102.196 38.637 102.475 39.0905 102.779C39.544 103.083 39.9976 103.373 40.4708 103.654L41.8793 104.485L42.5835 104.901L43.3074 105.281L44.7554 106.044C45.2427 106.289 45.7413 106.508 46.2342 106.742C47.2145 107.223 48.2342 107.614 49.2427 108.028C49.7441 108.245 50.2624 108.414 50.7779 108.591L52.3244 109.131L53.8991 109.59C54.4258 109.739 54.9442 109.908 55.4822 110.023C56.547 110.268 57.6061 110.553 58.6907 110.724L60.3076 111.006L61.9386 111.217C64.1225 111.486 66.3213 111.617 68.5217 111.611L70.1724 111.557C70.7358 111.535 71.2739 111.532 71.8203 111.473C72.9161 111.374 74.0147 111.304 75.1049 111.129C75.6485 111.051 76.195 110.986 76.7387 110.896L78.3584 110.589L79.1697 110.437L79.9725 110.246L81.5753 109.863C82.1077 109.725 82.6317 109.562 83.1585 109.413C83.6852 109.263 84.2176 109.131 84.7331 108.934C85.7698 108.577 86.8148 108.247 87.8317 107.825C89.8773 107.033 91.8768 106.126 93.8205 105.109C95.7538 104.077 97.6255 102.933 99.4262 101.684C100.345 101.076 101.204 100.395 102.077 99.714C102.522 99.3904 102.922 99.0189 103.35 98.6671C103.778 98.3153 104.195 97.9634 104.601 97.5947L105.804 96.469C106.004 96.2804 106.207 96.0974 106.401 95.9061L106.964 95.3122L108.108 94.1273L109.19 92.8862C112.065 89.5532 114.512 85.8744 116.474 81.9351C117.446 80.0494 118.085 79.5513 117.331 81.2033Z" fill="#FF945C"/>
</g>
</g>
<path d="M43.8826 49.9808C48.24 49.9808 50.4186 51.6415 50.4186 54.9629C50.4186 56.4263 49.9007 57.6266 48.8648 58.5639C47.8453 59.5011 46.6286 59.9697 45.2145 59.9697C43.8004 59.9697 42.6001 59.7395 41.6136 59.2791V61.6716C41.6136 63.4309 41.6629 64.6312 41.7615 65.2725C41.8766 65.9138 42.0328 66.3166 42.2302 66.481C42.6083 66.7935 43.2085 66.9497 44.0306 66.9497L44.08 67.2456H37.4207L37.47 66.9497C38.2921 66.9497 38.8923 66.7935 39.2705 66.481C39.6815 66.1358 39.8871 64.5326 39.8871 61.6716V55.5549C39.8871 53.7955 39.8295 52.5952 39.7144 51.9539C39.6158 51.3126 39.4678 50.9098 39.2705 50.7454C38.8923 50.4329 38.2921 50.2767 37.47 50.2767L37.4207 49.9808H43.8826ZM41.6136 50.548V58.6625C42.4686 59.1229 43.4716 59.3531 44.6226 59.3531C45.79 59.3531 46.7272 58.9914 47.4343 58.2679C48.1413 57.528 48.4948 56.4263 48.4948 54.9629C48.4948 53.1378 47.9029 51.921 46.719 51.3126C45.7489 50.8029 44.5815 50.548 43.2167 50.548H41.6136Z" fill="#282828"/>
<path d="M59.9804 55.2096C60.3915 55.2096 60.7532 55.3 61.0656 55.4809C61.378 55.6617 61.5342 55.9084 61.5342 56.2208C61.5342 56.5332 61.4356 56.7798 61.2383 56.9607C61.041 57.1416 60.819 57.232 60.5723 57.232C60.3257 57.232 60.0133 57.1251 59.6351 56.9114C59.2734 56.6976 58.887 56.5907 58.4759 56.5907C57.8346 56.5907 57.3085 57.1827 56.8974 58.3666C56.5028 59.5504 56.3055 60.9234 56.3055 62.4855C56.3055 64.5901 56.4123 65.8644 56.6261 66.3084C56.6919 66.4564 56.8152 66.5961 56.996 66.7277C57.1769 66.8428 57.366 66.9086 57.5633 66.925C57.7606 66.9414 58.0402 66.9497 58.4019 66.9497L58.4512 67.2456H52.4579L52.5072 66.9497C53.0333 66.9497 53.4115 66.925 53.6417 66.8757C53.8884 66.8099 54.0939 66.6044 54.2583 66.2591C54.4228 65.9138 54.5132 65.4863 54.5296 64.9765C54.5625 64.4504 54.579 63.62 54.579 62.4855V61.0549C54.579 58.7694 54.5132 57.4704 54.3817 57.158C54.2666 56.8456 54.1597 56.599 54.061 56.4181C53.9624 56.2372 53.8144 56.1139 53.6171 56.0481C53.2553 55.9495 52.7785 55.9002 52.1865 55.9002L52.1372 55.6288C53.5349 55.4315 54.9243 55.3329 56.3055 55.3329V58.9585C56.4863 57.7911 56.8892 56.8785 57.514 56.2208C58.1553 55.5466 58.9774 55.2096 59.9804 55.2096Z" fill="#282828"/>
<path d="M62.7765 61.4249C62.7765 59.6984 63.2698 58.2515 64.2563 57.084C65.2429 55.9166 66.583 55.3329 68.2766 55.3329C69.9702 55.3329 71.3349 55.9166 72.3708 57.084C73.4067 58.2515 73.9247 59.6984 73.9247 61.4249C73.9247 63.1514 73.4232 64.5984 72.4202 65.7658C71.4336 66.9168 70.0935 67.4923 68.3999 67.4923C66.7063 67.4923 65.3416 66.9086 64.3057 65.7411C63.2862 64.5737 62.7765 63.135 62.7765 61.4249ZM65.6129 65.4205C66.2706 66.4728 67.1996 66.999 68.3999 66.999C69.6002 66.999 70.5046 66.481 71.113 65.4452C71.7378 64.4093 72.0502 63.0774 72.0502 61.4496C72.0502 59.8053 71.7213 58.457 71.0636 57.4047C70.4059 56.3523 69.4769 55.8262 68.2766 55.8262C67.0927 55.8262 66.1884 56.3523 65.5635 57.4047C64.9552 58.4406 64.651 59.7724 64.651 61.4002C64.651 63.0281 64.9716 64.3682 65.6129 65.4205Z" fill="#282828"/>
<path d="M78.1972 52.3732C77.9176 52.0937 77.7779 51.7648 77.7779 51.3866C77.7779 51.0084 77.9176 50.6796 78.1972 50.4001C78.4767 50.1205 78.8055 49.9808 79.1837 49.9808C79.5619 49.9808 79.8908 50.1205 80.1703 50.4001C80.4498 50.6796 80.5896 51.0084 80.5896 51.3866C80.5896 51.7648 80.4498 52.0937 80.1703 52.3732C79.8908 52.6527 79.5619 52.7925 79.1837 52.7925C78.8055 52.7925 78.4767 52.6527 78.1972 52.3732ZM80.121 55.3329V66.4564C80.121 68.7255 79.6359 70.5917 78.6658 72.0551C77.6956 73.5185 76.3227 74.2502 74.5469 74.2502C74.07 74.2502 73.6754 74.1516 73.363 73.9543C73.0506 73.7734 72.8944 73.5103 72.8944 73.165C72.8944 72.8362 73.0095 72.5731 73.2397 72.3758C73.4534 72.1949 73.6918 72.1045 73.9549 72.1045C74.2016 72.1045 74.5551 72.2278 75.0155 72.4744C75.4759 72.7375 75.9116 72.8691 76.3227 72.8691C77.1284 72.8691 77.671 72.4826 77.9505 71.7098C78.2465 70.9535 78.3945 69.712 78.3945 67.9856V61.1536C78.3945 58.6872 78.2711 57.1991 78.0245 56.6894C77.9423 56.5085 77.7943 56.3441 77.5805 56.1961C77.3832 56.0481 77.1613 55.9577 76.9146 55.9248C76.6844 55.8919 76.3638 55.8755 75.9527 55.8755L75.9034 55.6042C77.3339 55.4233 78.7398 55.3329 80.121 55.3329Z" fill="#282828"/>
<path d="M93.8392 61.0056H85.7494V61.4249C85.7494 63.1678 86.1193 64.4997 86.8593 65.4205C87.5992 66.3248 88.52 66.777 89.6216 66.777C91.2659 66.777 92.4498 66.1193 93.1733 64.8039L93.5432 65.0012C92.6882 66.6619 91.2577 67.4923 89.2517 67.4923C87.7718 67.4923 86.5057 66.9579 85.4534 65.8891C84.4011 64.8203 83.8749 63.3816 83.8749 61.5729C83.8749 59.7477 84.3353 58.2515 85.2561 57.084C86.1933 55.9166 87.4348 55.3329 88.9804 55.3329C90.5424 55.3329 91.7428 55.8673 92.5813 56.936C93.4199 57.9884 93.8392 59.3449 93.8392 61.0056ZM89.0544 55.8262C88.1007 55.8262 87.3443 56.2372 86.7853 57.0594C86.2427 57.8651 85.9138 58.9421 85.7987 60.2904H91.9401C91.825 57.3142 90.8631 55.8262 89.0544 55.8262Z" fill="#282828"/>
<path d="M101.834 67.4923C100.387 67.4923 99.1454 66.9579 98.1096 65.8891C97.0737 64.8203 96.5557 63.3734 96.5557 61.5482C96.5557 59.7066 97.0243 58.2104 97.9616 57.0594C98.9152 55.9084 100.264 55.3329 102.006 55.3329C103.092 55.3329 104.037 55.5137 104.843 55.8755C105.649 56.2208 106.051 56.7058 106.051 57.3307C106.051 57.8897 105.747 58.1692 105.139 58.1692C104.826 58.1692 104.563 58.0459 104.35 57.7993C104.152 57.5526 103.996 57.2896 103.881 57.01C103.782 56.7141 103.577 56.4428 103.264 56.1961C102.952 55.9495 102.541 55.8262 102.031 55.8262C100.847 55.8262 99.9511 56.3194 99.3428 57.306C98.7344 58.2926 98.4302 59.6491 98.4302 61.3756C98.4302 63.0856 98.7919 64.4175 99.5154 65.3712C100.239 66.3084 101.135 66.777 102.204 66.777C103.832 66.777 104.991 66.1193 105.681 64.8039L106.051 65.0012C105.213 66.6619 103.807 67.4923 101.834 67.4923Z" fill="#282828"/>
<path d="M111.507 55.5795H114.541V56.1221H111.507V65.5191C111.507 65.8644 111.589 66.144 111.754 66.3577C111.918 66.555 112.132 66.6537 112.395 66.6537C112.987 66.6537 113.686 66.481 114.491 66.1358L114.541 66.4071C113.39 67.1305 112.37 67.4923 111.482 67.4923C110.907 67.4923 110.479 67.3525 110.2 67.073C109.92 66.7935 109.78 66.3084 109.78 65.6178V56.1221H108.301V55.5795C109.189 55.5795 109.805 55.3329 110.15 54.8396C110.512 54.3299 110.784 53.5817 110.964 52.5952L111.507 52.5458V55.5795Z" fill="#282828"/>
<path d="M124.217 62.0168C124.217 63.6118 124.604 64.8286 125.376 65.6671C126.166 66.5057 127.128 66.925 128.262 66.925C129.397 66.925 130.326 66.6537 131.049 66.1111C131.773 65.552 132.134 64.6806 132.134 63.4967C132.134 62.4279 131.567 61.4742 130.433 60.6357C129.939 60.2739 129.389 59.9204 128.78 59.5751C128.172 59.2134 127.563 58.8434 126.955 58.4652C126.347 58.087 125.796 57.6924 125.302 57.2813C124.168 56.3277 123.601 55.2178 123.601 53.9517C123.601 52.6692 124.061 51.6497 124.982 50.8933C125.919 50.137 127.152 49.7588 128.681 49.7588C130.227 49.7588 131.658 50.0959 132.973 50.77C132.973 51.5922 132.85 53.0062 132.603 55.0122L132.233 54.9136C132.233 53.368 131.855 52.217 131.099 51.4606C130.342 50.6878 129.471 50.3014 128.484 50.3014C127.514 50.3014 126.733 50.5891 126.141 51.1646C125.549 51.7237 125.253 52.3896 125.253 53.1624C125.253 53.9352 125.459 54.6012 125.87 55.1602C126.297 55.7028 126.823 56.155 127.448 56.5168C128.09 56.8785 128.78 57.2813 129.52 57.7253C130.26 58.1528 130.942 58.5803 131.567 59.0078C132.208 59.4189 132.735 59.9615 133.146 60.6357C133.573 61.3098 133.787 62.0662 133.787 62.9048C133.787 64.4175 133.244 65.5603 132.159 66.3331C131.09 67.1059 129.8 67.4923 128.287 67.4923C127.448 67.4923 126.585 67.3607 125.697 67.0977C124.826 66.8346 124.11 66.4482 123.551 65.9384C123.551 64.8861 123.65 63.5542 123.847 61.9429L124.217 62.0168Z" fill="#282828"/>
<path d="M145.561 64.5572C145.824 63.916 146.014 63.2665 146.129 62.6088C146.26 61.9511 146.326 61.244 146.326 60.4877C146.326 59.7313 146.31 59.0983 146.277 58.5885C146.244 58.0788 146.186 57.6266 146.104 57.232C146.022 56.8209 145.882 56.525 145.685 56.3441C145.323 56.0317 144.723 55.8755 143.884 55.8755L143.835 55.6042C145.265 55.4233 146.671 55.3329 148.052 55.3329V61.7702C148.052 63.5953 148.11 64.7957 148.225 65.3712C148.34 65.9302 148.62 66.2097 149.064 66.2097C149.343 66.2097 149.713 66.0946 150.174 65.8644L150.297 66.1111C150.165 66.2097 149.993 66.3331 149.779 66.481C149.565 66.6126 149.129 66.7935 148.472 67.0237C147.814 67.2539 147.181 67.369 146.573 67.369C146.408 66.4153 146.326 65.3136 146.326 64.064C145.57 66.3495 144.262 67.4923 142.404 67.4923C139.889 67.4923 138.631 66.1769 138.631 63.546V61.1536C138.631 58.6872 138.507 57.1991 138.261 56.6894C138.179 56.5085 138.031 56.3441 137.817 56.1961C137.62 56.0481 137.398 55.9577 137.151 55.9248C136.921 55.8919 136.6 55.8755 136.189 55.8755L136.14 55.6042C137.57 55.4233 138.976 55.3329 140.357 55.3329V63.2994C140.357 64.4339 140.53 65.2889 140.875 65.8644C141.237 66.4399 141.788 66.7277 142.528 66.7277C143.284 66.7277 143.909 66.5222 144.402 66.1111C144.912 65.7 145.298 65.1821 145.561 64.5572Z" fill="#282828"/>
<path d="M163.57 59.7478C163.718 58.5639 164.096 57.5362 164.704 56.6647C165.329 55.7768 166.192 55.3329 167.294 55.3329C168.396 55.3329 169.251 55.67 169.859 56.3441C170.467 57.0183 170.772 57.9966 170.772 59.2791V63.1761C170.772 64.8861 170.878 65.9467 171.092 66.3577C171.322 66.7524 171.914 66.9497 172.868 66.9497L172.917 67.2456H167.097L167.146 66.9497C168.05 66.9497 168.593 66.7441 168.774 66.3331C168.955 65.922 169.045 64.7957 169.045 62.9541V59.5258C169.045 58.3912 168.881 57.5362 168.552 56.9607C168.239 56.3852 167.73 56.0975 167.023 56.0975C166.316 56.0975 165.732 56.3605 165.271 56.8867C164.811 57.3964 164.466 58.0459 164.236 58.8352C163.792 60.3644 163.57 61.9017 163.57 63.4474C163.57 64.993 163.668 65.9631 163.866 66.3577C164.079 66.7524 164.671 66.9497 165.641 66.9497L165.691 67.2456H159.895L159.944 66.9497C160.848 66.9497 161.391 66.7441 161.572 66.3331C161.753 65.922 161.843 64.7957 161.843 62.9541V59.5258C161.843 58.3912 161.679 57.5362 161.35 56.9607C161.037 56.3852 160.528 56.0975 159.821 56.0975C159.114 56.0975 158.53 56.3605 158.07 56.8867C157.609 57.3964 157.264 58.0459 157.034 58.8352C156.59 60.3644 156.368 61.9017 156.368 63.4474C156.368 64.993 156.466 65.9631 156.664 66.3577C156.877 66.7524 157.469 66.9497 158.439 66.9497L158.489 67.2456H152.471L152.52 66.9497C153.507 66.9497 154.107 66.7524 154.321 66.3577C154.534 65.9467 154.641 64.8697 154.641 63.1267V61.1536C154.641 58.6872 154.518 57.1991 154.271 56.6894C154.189 56.5085 154.041 56.3441 153.827 56.1961C153.63 56.0481 153.408 55.9577 153.161 55.9248C152.931 55.8919 152.611 55.8755 152.199 55.8755L152.15 55.6042C153.581 55.4233 154.987 55.3329 156.368 55.3329V59.7478C156.516 58.5639 156.894 57.5362 157.502 56.6647C158.127 55.7768 158.99 55.3329 160.092 55.3329C162.41 55.3329 163.57 56.8045 163.57 59.7478Z" fill="#282828"/>
<path d="M186.318 59.7478C186.466 58.5639 186.845 57.5362 187.453 56.6647C188.078 55.7768 188.941 55.3329 190.043 55.3329C191.144 55.3329 191.999 55.67 192.608 56.3441C193.216 57.0183 193.52 57.9966 193.52 59.2791V63.1761C193.52 64.8861 193.627 65.9467 193.841 66.3577C194.071 66.7524 194.663 66.9497 195.617 66.9497L195.666 67.2456H189.845L189.895 66.9497C190.799 66.9497 191.342 66.7441 191.523 66.3331C191.703 65.922 191.794 64.7957 191.794 62.9541V59.5258C191.794 58.3912 191.629 57.5362 191.301 56.9607C190.988 56.3852 190.478 56.0975 189.771 56.0975C189.064 56.0975 188.481 56.3605 188.02 56.8867C187.56 57.3964 187.215 58.0459 186.984 58.8352C186.54 60.3644 186.318 61.9017 186.318 63.4474C186.318 64.993 186.417 65.9631 186.614 66.3577C186.828 66.7524 187.42 66.9497 188.39 66.9497L188.44 67.2456H182.643L182.693 66.9497C183.597 66.9497 184.14 66.7441 184.321 66.3331C184.501 65.922 184.592 64.7957 184.592 62.9541V59.5258C184.592 58.3912 184.427 57.5362 184.099 56.9607C183.786 56.3852 183.276 56.0975 182.569 56.0975C181.862 56.0975 181.279 56.3605 180.818 56.8867C180.358 57.3964 180.013 58.0459 179.782 58.8352C179.338 60.3644 179.116 61.9017 179.116 63.4474C179.116 64.993 179.215 65.9631 179.412 66.3577C179.626 66.7524 180.218 66.9497 181.188 66.9497L181.238 67.2456H175.22L175.269 66.9497C176.255 66.9497 176.856 66.7524 177.069 66.3577C177.283 65.9467 177.39 64.8697 177.39 63.1267V61.1536C177.39 58.6872 177.267 57.1991 177.02 56.6894C176.938 56.5085 176.79 56.3441 176.576 56.1961C176.379 56.0481 176.157 55.9577 175.91 55.9248C175.68 55.8919 175.359 55.8755 174.948 55.8755L174.899 55.6042C176.329 55.4233 177.735 55.3329 179.116 55.3329V59.7478C179.264 58.5639 179.643 57.5362 180.251 56.6647C180.876 55.7768 181.739 55.3329 182.841 55.3329C185.159 55.3329 186.318 56.8045 186.318 59.7478Z" fill="#282828"/>
<path d="M207.069 59.2791V61.7702C207.069 63.5953 207.127 64.7957 207.242 65.3712C207.357 65.9302 207.637 66.2097 208.081 66.2097C208.36 66.2097 208.73 66.0946 209.19 65.8644L209.314 66.1111C209.182 66.2097 209.01 66.3331 208.796 66.481C208.582 66.6126 208.146 66.7935 207.489 67.0237C206.831 67.2539 206.198 67.369 205.59 67.369C205.425 66.6784 205.343 65.5767 205.343 64.064C204.981 65.0834 204.504 65.9138 203.912 66.555C203.337 67.1799 202.531 67.4923 201.495 67.4923C200.459 67.4923 199.637 67.221 199.029 66.6784C198.437 66.1193 198.141 65.3629 198.141 64.4093C198.141 61.762 200.542 60.4301 205.343 60.4137V59.5258C205.343 58.3419 205.17 57.4375 204.825 56.8127C204.48 56.1879 203.838 55.8755 202.901 55.8755C202.375 55.8755 201.947 56.007 201.619 56.2701C201.29 56.5332 201.068 56.8209 200.953 57.1334C200.673 57.9884 200.254 58.4159 199.695 58.4159C199.152 58.4159 198.881 58.1117 198.881 57.5033C198.881 56.8785 199.292 56.3605 200.114 55.9495C200.936 55.5384 201.931 55.3329 203.098 55.3329C204.266 55.3329 205.22 55.67 205.959 56.3441C206.699 57.0018 207.069 57.9802 207.069 59.2791ZM200.015 64.5079C200.015 65.1492 200.172 65.6836 200.484 66.1111C200.796 66.5222 201.29 66.7277 201.964 66.7277C202.654 66.7277 203.279 66.3988 203.838 65.7411C204.397 65.067 204.776 64.3271 204.973 63.5214C205.187 62.6992 205.31 61.8524 205.343 60.981C203.518 60.9974 202.169 61.3345 201.298 61.9922C200.443 62.6499 200.015 63.4885 200.015 64.5079Z" fill="#282828"/>
<path d="M219.015 55.2096C219.426 55.2096 219.787 55.3 220.1 55.4809C220.412 55.6617 220.569 55.9084 220.569 56.2208C220.569 56.5332 220.47 56.7798 220.273 56.9607C220.075 57.1416 219.853 57.232 219.607 57.232C219.36 57.232 219.048 57.1251 218.669 56.9114C218.308 56.6976 217.921 56.5907 217.51 56.5907C216.869 56.5907 216.343 57.1827 215.932 58.3666C215.537 59.5504 215.34 60.9234 215.34 62.4855C215.34 64.5901 215.447 65.8644 215.66 66.3084C215.726 66.4564 215.849 66.5961 216.03 66.7277C216.211 66.8428 216.4 66.9086 216.598 66.925C216.795 66.9414 217.074 66.9497 217.436 66.9497L217.486 67.2456H211.492L211.541 66.9497C212.068 66.9497 212.446 66.925 212.676 66.8757C212.923 66.8099 213.128 66.6044 213.293 66.2591C213.457 65.9138 213.547 65.4863 213.564 64.9765C213.597 64.4504 213.613 63.62 213.613 62.4855V61.0549C213.613 58.7694 213.547 57.4704 213.416 57.158C213.301 56.8456 213.194 56.599 213.095 56.4181C212.997 56.2372 212.849 56.1139 212.651 56.0481C212.29 55.9495 211.813 55.9002 211.221 55.9002L211.172 55.6288C212.569 55.4315 213.959 55.3329 215.34 55.3329V58.9585C215.521 57.7911 215.923 56.8785 216.548 56.2208C217.19 55.5466 218.012 55.2096 219.015 55.2096Z" fill="#282828"/>
<path d="M223.457 72.4251C224.28 72.4251 224.962 72.1045 225.505 71.4632C226.064 70.8384 226.631 69.8189 227.206 68.4048L223.531 59.1311C222.989 57.75 222.496 56.862 222.052 56.4674C221.624 56.0728 221.106 55.8755 220.498 55.8755L220.448 55.5795H226.565L226.516 55.8755C225.94 55.8755 225.538 55.9659 225.307 56.1468C225.094 56.3277 224.987 56.6072 224.987 56.9854C224.987 57.7417 225.373 59.09 226.146 61.0303L228.045 65.8151L229.969 59.8957C230.347 58.7119 230.536 57.8157 230.536 57.2073C230.536 56.3194 229.961 55.8755 228.81 55.8755L228.76 55.5795H233.397L233.348 55.8755C232.674 55.8755 232.197 56.0975 231.917 56.5414C231.654 56.9689 231.153 58.309 230.413 60.5617L228.193 67.3196C227.47 69.5394 226.623 71.2494 225.653 72.4498C224.682 73.6501 223.671 74.2502 222.619 74.2502C222.142 74.2502 221.747 74.1516 221.435 73.9543C221.123 73.7734 220.966 73.5103 220.966 73.165C220.966 72.8362 221.065 72.5731 221.262 72.3758C221.476 72.1949 221.698 72.1045 221.928 72.1045C222.175 72.1045 222.446 72.1538 222.742 72.2524C223.038 72.3675 223.277 72.4251 223.457 72.4251Z" fill="#282828"/>
<defs>
<filter id="filter0_f" x="0.83667" y="106.9" width="133.202" height="31.5945" filterUnits="userSpaceOnUse" color-interpolation-filters="sRGB">
<feFlood flood-opacity="0" result="BackgroundImageFix"/>
<feBlend mode="normal" in="SourceGraphic" in2="BackgroundImageFix" result="shape"/>
<feGaussianBlur stdDeviation="5" result="effect1_foregroundBlur"/>
</filter>
<filter id="filter1_f" x="25.7517" y="113.602" width="86.1737" height="12.9501" filterUnits="userSpaceOnUse" color-interpolation-filters="sRGB">
<feFlood flood-opacity="0" result="BackgroundImageFix"/>
<feBlend mode="normal" in="SourceGraphic" in2="BackgroundImageFix" result="shape"/>
<feGaussianBlur stdDeviation="2" result="effect1_foregroundBlur"/>
</filter>
<linearGradient id="paint0_linear" x1="67.4376" y1="116.9" x2="67.4376" y2="128.495" gradientUnits="userSpaceOnUse">
<stop stop-color="#B4B4B4"/>
<stop offset="1" stop-color="#F2F1EE"/>
</linearGradient>
<clipPath id="clip0">
<rect width="107.99" height="114.323" fill="white" transform="translate(10.8367 0.524414)"/>
</clipPath>
</defs>
</svg>
