<svg width="200" height="139" viewBox="0 0 200 139" fill="none" xmlns="http://www.w3.org/2000/svg">
<g opacity="0.7" filter="url(#filter0_f)">
<ellipse cx="67.4376" cy="122.589" rx="56.6009" ry="5.79727" fill="url(#paint0_linear)" fill-opacity="0.4"/>
</g>
<g filter="url(#filter1_f)">
<ellipse cx="68.8386" cy="119.968" rx="39.0869" ry="2.47506" fill="#F5F5F5"/>
</g>
<g clip-path="url(#clip0)">
<g opacity="0.8">
<path opacity="0.8" d="M115.288 27.9386C112.922 24.0393 110.125 20.4179 106.95 17.1424L105.75 15.9293L104.494 14.7726C103.671 13.9845 102.767 13.2866 101.891 12.552C101.451 12.1889 100.981 11.8624 100.525 11.5135L99.8345 11.0012L99.488 10.7451L99.1302 10.5059C98.1725 9.87263 97.2232 9.21404 96.2119 8.65115C95.7161 8.3697 95.226 8.06574 94.7218 7.78993L93.195 7.01032L92.4288 6.6163L91.6457 6.25886L90.0738 5.54399C89.5443 5.31884 89.0062 5.1162 88.471 4.9023C87.9358 4.6884 87.4062 4.46605 86.8541 4.29156C85.7611 3.92849 84.6766 3.53447 83.5611 3.24458C79.1335 1.97293 74.5676 1.24426 69.9638 1.07464C65.2111 0.883223 60.4534 1.29842 55.806 2.31018L54.0679 2.70421L52.3496 3.17704L51.5045 3.41627L50.6594 3.69771L48.9693 4.2606L47.3045 4.89948L46.4594 5.22033C46.1777 5.33573 45.9129 5.45956 45.6425 5.57777L44.0087 6.29827C43.4735 6.5572 42.9439 6.82738 42.4087 7.09475L41.5974 7.47752C41.3326 7.61543 41.0763 7.75897 40.8171 7.91095L39.2594 8.79469C38.7495 9.10428 38.2481 9.43076 37.741 9.74879L36.9833 10.2301C36.7326 10.3933 36.4931 10.5706 36.2452 10.7423L34.7804 11.778C34.3016 12.1355 33.834 12.5126 33.372 12.8785L32.6649 13.4414C32.4311 13.6271 32.2086 13.8298 31.9804 14.024L30.6114 15.1722C30.1691 15.5747 29.741 15.9941 29.3043 16.405L28.6536 17.0242C28.4367 17.2324 28.2367 17.4548 28.0283 17.6687L26.7888 18.9661C26.386 19.408 26.0001 19.8639 25.6057 20.3143L25.017 20.9897C24.8198 21.2149 24.6423 21.4541 24.4536 21.6877L23.3409 23.0949C22.9775 23.5678 22.6395 24.0603 22.2874 24.5416C21.9353 25.0228 21.5832 25.5041 21.2677 26.0107L20.2902 27.5052C19.9662 28.0062 19.6817 28.5268 19.3747 29.0363C18.7493 30.0495 18.2198 31.1161 17.662 32.1659C17.5183 32.4277 17.3803 32.6951 17.2676 32.9652L16.8902 33.773L16.5268 34.592C16.4 34.8734 16.2761 35.1296 16.1662 35.4082C15.724 36.5115 15.2423 37.6007 14.8733 38.7321C14.6789 39.295 14.4732 39.8578 14.2901 40.4207L13.7859 42.1319L13.5352 42.9763L13.3239 43.8431L12.9099 45.5824C12.7803 46.165 12.6845 46.7533 12.5718 47.3387L12.4113 48.2196L12.3324 48.6615L12.2732 49.1062C12.1239 50.291 11.9352 51.4731 11.8704 52.6693C11.8253 53.2659 11.7746 53.8626 11.738 54.4592L11.6929 56.2549L11.6704 57.1527C11.6704 57.451 11.6704 57.7522 11.6901 58.0505L11.738 59.8489C11.8602 62.247 12.1359 64.6348 12.5634 66.9977L12.7239 67.8842L12.8028 68.3261L12.9042 68.7651L13.3099 70.5214C13.4338 71.1096 13.6197 71.6809 13.7747 72.2607C13.9296 72.8405 14.0873 73.4315 14.2732 73.9944C14.6592 75.1202 15.0141 76.2769 15.4733 77.3886C15.6958 77.9515 15.8958 78.5144 16.1409 79.0604L16.8733 80.7041C17.1071 81.267 17.3888 81.7876 17.6564 82.3224C17.924 82.8571 18.1859 83.3975 18.4789 83.9238C19.0761 84.9652 19.6395 86.0262 20.3015 87.0197C21.5766 89.054 22.9794 91.0055 24.5015 92.8625C25.2902 93.7688 26.0424 94.706 26.8846 95.5616C27.2987 95.995 27.7015 96.4397 28.1269 96.8647L29.4227 98.1143C29.848 98.5393 30.3015 98.9305 30.7551 99.3273C31.2086 99.7242 31.6537 100.124 32.1156 100.507L33.5241 101.632C33.7607 101.818 33.9917 102.009 34.234 102.195L34.9664 102.722C35.4565 103.071 35.941 103.428 36.434 103.771L37.9439 104.756L38.7016 105.246L39.4791 105.702L41.034 106.614L42.6312 107.458L43.4312 107.875C43.7129 108.007 43.9749 108.131 44.2481 108.258L45.8847 109.015C46.4481 109.254 47.0115 109.471 47.5552 109.699C48.6622 110.171 49.8087 110.543 50.9355 110.934C51.2172 111.038 51.4989 111.123 51.7975 111.216L52.6651 111.466C53.2454 111.626 53.8172 111.815 54.4031 111.95L56.1609 112.361C56.4426 112.426 56.7468 112.505 57.0426 112.555L57.9299 112.716L59.7074 113.031L61.499 113.256L62.4933 113.377C62.8257 113.414 63.1581 113.431 63.4933 113.456L65.4934 113.597L67.4962 113.636C67.8314 113.636 68.1638 113.653 68.499 113.636L69.5018 113.605C72.1741 113.538 74.8377 113.274 77.4709 112.814L79.4428 112.448C80.0935 112.305 80.7414 112.144 81.3921 111.992C81.716 111.914 82.0428 111.843 82.3639 111.753L83.3245 111.472L84.285 111.19C84.6062 111.097 84.9273 111.007 85.24 110.895L87.133 110.247C87.764 110.034 88.3752 109.766 88.9978 109.527L89.9273 109.158C90.2344 109.029 90.5358 108.877 90.84 108.75C91.4457 108.469 92.0598 108.21 92.6598 107.906C96.7997 105.901 100.685 103.408 104.232 100.481C107.726 97.5807 110.819 94.2283 113.429 90.5124C113.854 89.8764 113.528 90.1015 113.094 90.7376C110.544 94.244 107.548 97.4031 104.181 100.135C103.773 100.493 103.336 100.811 102.899 101.14L101.618 102.139L100.271 103.059C99.8204 103.363 99.3809 103.678 98.9105 103.954C97.9838 104.517 97.0711 105.111 96.1133 105.618L94.7049 106.406L93.2513 107.132C92.2513 107.658 91.2034 108.086 90.1752 108.556C89.6597 108.792 89.1245 108.978 88.6006 109.192C88.0766 109.406 87.5499 109.62 87.0118 109.8C85.9358 110.155 84.871 110.56 83.7724 110.853L82.1329 111.325L80.4709 111.708C79.3695 111.99 78.2427 112.164 77.1244 112.381C76.8427 112.437 76.561 112.476 76.2794 112.513L75.4343 112.628C74.8709 112.699 74.3075 112.792 73.7441 112.842L72.054 112.983L71.2089 113.051L70.3638 113.079L68.6737 113.129C68.1103 113.129 67.5469 113.113 66.9835 113.107C64.6211 113.052 62.2644 112.85 59.9271 112.502L58.1863 112.192C57.606 112.085 57.0257 111.992 56.4538 111.849C55.3074 111.567 54.1552 111.331 53.0285 110.982C52.4651 110.813 51.9017 110.664 51.3383 110.481L49.6679 109.918L48.8228 109.637L48.0031 109.307L46.3186 108.612C44.1534 107.675 42.0471 106.607 40.0115 105.415C38.9805 104.852 38.0002 104.179 37.0086 103.541L36.6368 103.299L36.2762 103.04L35.5579 102.525L34.8368 102.024C34.5945 101.852 34.3579 101.68 34.1269 101.492C33.203 100.754 32.2621 100.042 31.3861 99.2401C30.9438 98.846 30.4874 98.4717 30.0621 98.0636L28.7832 96.8365C28.3494 96.434 27.9381 95.9922 27.5438 95.57C27.1494 95.1478 26.724 94.7257 26.3353 94.2754C25.5719 93.3747 24.7747 92.5023 24.0818 91.5538C23.7212 91.0866 23.3522 90.625 23.0029 90.1466L21.986 88.6999C21.8198 88.4579 21.6423 88.2215 21.4846 87.9738L21.0113 87.228C20.6986 86.7298 20.3775 86.2345 20.0705 85.7307C15.2252 77.5921 12.5404 68.3521 12.2704 58.8864C12.2704 58.2982 12.2394 57.7099 12.2338 57.1245L12.2817 55.3627L12.307 54.4818C12.3239 54.2003 12.3493 53.8964 12.3718 53.6037L12.5127 51.8502C12.5606 51.2677 12.6563 50.6879 12.7268 50.1053L12.8423 49.2356C12.8789 48.9542 12.9183 48.6558 12.9746 48.3688L13.2901 46.6435C13.3465 46.3621 13.3887 46.0806 13.4563 45.7823L13.6592 44.9379C14.6908 40.3653 16.3019 35.9428 18.4536 31.7775C18.7353 31.2625 18.9859 30.7446 19.2648 30.2352L20.1465 28.7295L20.5888 27.978L21.0648 27.2491L22.0198 25.7912C23.3459 23.88 24.788 22.0519 26.3381 20.3171C29.4326 16.8443 32.9501 13.7723 36.8086 11.1729C37.2791 10.8324 37.7805 10.5368 38.2706 10.2244C38.7608 9.91203 39.2481 9.594 39.7551 9.30692C40.772 8.74403 41.7664 8.13329 42.8171 7.61825C44.8923 6.55322 47.0295 5.61338 49.2172 4.80379L50.8735 4.2409L51.7017 3.95945L52.5468 3.7146L54.2369 3.23051L55.9271 2.82523L56.7722 2.6254C57.0539 2.56067 57.3355 2.51563 57.6172 2.45934L59.3384 2.14413C59.9018 2.04562 60.4933 1.98371 61.068 1.90209C61.6426 1.82047 62.2201 1.73603 62.8032 1.69945L64.7356 1.54184C65.3807 1.49118 66.0286 1.49118 66.6737 1.46585L67.6427 1.43489C67.9666 1.43489 68.2906 1.43489 68.6117 1.43489L70.5525 1.46866L72.4878 1.59531L73.4568 1.66004L74.4202 1.77262L76.347 2.00341L78.2597 2.32426C78.578 2.38054 78.8991 2.42558 79.2146 2.49312L80.1639 2.70139C80.7949 2.84493 81.4315 2.98284 82.0569 3.132C83.3048 3.481 84.5639 3.79059 85.7836 4.22401L86.7048 4.53079C87.0118 4.62929 87.3189 4.73625 87.6203 4.85727L89.4316 5.56088C89.7358 5.67346 90.0316 5.80855 90.3245 5.94083L91.2119 6.33766C91.8034 6.60222 92.3978 6.86397 92.9668 7.182L94.6992 8.07419L96.3894 9.05643C96.6711 9.22248 96.9528 9.38009 97.2344 9.5574L98.0457 10.0922L98.8542 10.6269C99.1359 10.8042 99.395 10.9815 99.6514 11.1898L101.209 12.3409C101.471 12.5295 101.719 12.7349 101.97 12.9404L102.716 13.5539L103.463 14.1675C103.711 14.3729 103.944 14.5953 104.184 14.8092L105.612 16.1095C107.46 17.8979 109.2 19.7945 110.823 21.789C111.229 22.2872 111.609 22.8079 112.004 23.3145L112.592 24.08L113.156 24.8709C113.522 25.4 113.908 25.9178 114.26 26.4582L115.311 28.0878C115.682 28.6394 115.657 28.5268 115.288 27.9386Z" fill="#FF945C"/>
</g>
<g opacity="0.8">
<path opacity="0.8" d="M117.399 29.1374C113.396 21.9634 107.669 15.7828 100.917 10.9814L99.3903 9.94847L98.627 9.43341L97.841 8.95496L96.2692 7.99805L94.6523 7.11712L93.8438 6.67525L93.0157 6.27279L91.3593 5.47066L89.6692 4.74735L88.8241 4.3871C88.5424 4.26889 88.2607 4.1732 87.9621 4.06344C83.3636 2.30717 78.5512 1.17138 73.6521 0.686089L71.8127 0.520037C71.1986 0.489078 70.5817 0.472188 69.9676 0.446858L69.0436 0.413086C68.7366 0.413086 68.4267 0.413086 68.1197 0.413086L66.2718 0.444045C63.8075 0.54225 61.3524 0.802684 58.9224 1.22365C57.7027 1.40659 56.5055 1.69367 55.3027 1.95822C55.0013 2.02014 54.7027 2.09613 54.4069 2.18056L53.5168 2.42261C52.9252 2.59148 52.3252 2.72657 51.7421 2.92921L49.9872 3.4921C49.7055 3.58216 49.4041 3.6863 49.1167 3.79606L48.2547 4.11691C47.0942 4.52219 45.973 5.02317 44.8435 5.50163C42.6025 6.49474 40.4239 7.62259 38.3195 8.87898C37.2518 9.48408 36.2434 10.1764 35.2208 10.8491C34.7082 11.184 34.2237 11.5611 33.7251 11.9158C33.2265 12.2704 32.7251 12.625 32.2546 13.019L30.8208 14.1701C30.3419 14.5529 29.8969 14.9751 29.4321 15.3776C28.4968 16.1712 27.6405 17.0662 26.7588 17.9106C25.0355 19.6672 23.4354 21.5404 21.97 23.517C18.9671 27.5657 16.5288 32.0034 14.7221 36.7083C13.8292 39.06 13.0887 41.4666 12.5052 43.9133C12.1812 45.1292 11.9784 46.3675 11.7362 47.6003L11.6488 48.0618L11.584 48.529L11.4517 49.4606L11.3193 50.3922C11.2742 50.7018 11.2291 51.0142 11.2066 51.3266C10.6519 56.3266 10.7466 61.3772 11.4883 66.353C11.8487 68.8387 12.3757 71.2975 13.0657 73.7128C13.4432 74.9117 13.7925 76.1248 14.2517 77.2956L14.5784 78.1821C14.6855 78.4777 14.7953 78.7732 14.9249 79.0603L15.6658 80.7968C19.8386 90.0026 26.3669 97.9465 34.5927 103.827C35.0885 104.213 35.6208 104.545 36.1392 104.9L36.9195 105.426C37.1786 105.603 37.4406 105.778 37.711 105.935C38.7843 106.586 39.8491 107.255 40.9674 107.832L41.7955 108.283L42.2096 108.508L42.635 108.713L44.3251 109.532L44.7505 109.738L45.1843 109.921L46.0519 110.287L46.9195 110.653L47.3533 110.835L47.7956 110.999C55.1642 113.82 63.0411 115.074 70.9225 114.68C71.6296 114.635 72.331 114.598 73.0465 114.548L75.162 114.314C75.869 114.252 76.5705 114.111 77.2662 114.005L78.3169 113.836C78.6662 113.782 79.0127 113.695 79.3592 113.625C82.1377 113.069 84.8689 112.3 87.5283 111.322C88.1903 111.069 88.8607 110.844 89.5001 110.565L91.4523 109.721C92.1001 109.439 92.7283 109.11 93.3678 108.803C93.6833 108.646 94.0072 108.499 94.3199 108.331L95.2495 107.821C96.503 107.165 97.6974 106.414 98.9115 105.668C100.08 104.872 101.264 104.098 102.373 103.225C102.937 102.8 103.5 102.381 104.038 101.916C104.576 101.452 105.128 101.019 105.658 100.551L107.216 99.1189C107.481 98.8853 107.726 98.632 107.974 98.3815L108.717 97.6272C110.695 95.6124 112.515 93.4483 114.159 91.154C114.365 90.8725 114.585 90.5911 114.779 90.3096L115.365 89.4287L115.948 88.5478C116.044 88.4014 116.145 88.2663 116.23 88.1059L116.512 87.6528L117.593 85.8375C117.931 85.2183 118.258 84.5935 118.588 83.9743C118.948 83.2932 118.841 83.296 118.478 83.9743L117.605 85.6095C117.295 86.1442 116.971 86.6705 116.652 87.2025L116.174 87.9961C116.01 88.2579 115.83 88.5112 115.661 88.7673L114.624 90.304C114.261 90.805 113.886 91.2947 113.517 91.79L112.954 92.5302C112.762 92.7723 112.562 93.0087 112.365 93.2451L111.179 94.672L109.928 96.0399L109.303 96.7238L108.647 97.3767L107.328 98.6798L105.954 99.921C105.723 100.126 105.497 100.338 105.264 100.537L104.548 101.126C104.069 101.514 103.596 101.914 103.111 102.294L101.627 103.4C101.376 103.58 101.137 103.774 100.881 103.946L100.114 104.464C99.6016 104.804 99.0974 105.162 98.5763 105.491C94.4069 108.147 89.9151 110.261 85.21 111.781L84.3283 112.063L83.886 112.203L83.4381 112.324L81.6465 112.806L81.1987 112.927L80.7451 113.025L79.8381 113.222L78.931 113.416L78.4775 113.515L78.0212 113.591L76.1902 113.889L75.7338 113.962L75.2718 114.016L74.3507 114.12L73.4296 114.221C73.1225 114.258 72.8155 114.289 72.5056 114.303L70.6549 114.413C70.038 114.463 69.4183 114.446 68.8014 114.458C68.1845 114.469 67.5648 114.483 66.9478 114.458C65.714 114.396 64.4746 114.387 63.2464 114.244L61.4013 114.066L59.5675 113.802L58.652 113.67C58.3478 113.619 58.0464 113.554 57.7421 113.495L55.9252 113.138C53.5126 112.603 51.1368 111.914 48.8125 111.075C37.0833 106.883 27.0771 98.9231 20.3616 88.4408C19.0489 86.3871 17.8627 84.2555 16.8094 82.0577C16.2461 80.9713 15.7953 79.8342 15.2996 78.7169C15.0629 78.154 14.8601 77.5742 14.6404 77.0057C14.4207 76.4372 14.201 75.863 14.0235 75.2776L13.4601 73.5327C13.2798 72.9472 13.1333 72.3534 12.97 71.7624C12.6235 70.5859 12.4066 69.3813 12.1249 68.188C11.6576 65.7833 11.3537 63.3498 11.215 60.9042C11.1164 59.6827 11.1305 58.4584 11.1192 57.2454C11.1023 56.6347 11.1559 56.0239 11.1728 55.4132C11.1897 54.8025 11.2122 54.1917 11.2685 53.581L11.4432 51.7572C11.477 51.4532 11.4939 51.1493 11.539 50.8453L11.6714 49.9391L11.9531 48.1266L12.3108 46.3309C13.295 41.5408 14.8902 36.8965 17.0573 32.512C17.3108 31.9491 17.6207 31.4171 17.9024 30.8768C18.1841 30.3364 18.4658 29.7932 18.7841 29.2641C19.4264 28.2199 20.0235 27.1476 20.7306 26.1457C21.0771 25.6391 21.4067 25.124 21.7644 24.6259L22.863 23.1539C23.2207 22.6557 23.6123 22.1857 24.0039 21.7157C24.3954 21.2457 24.7757 20.7644 25.1813 20.3085C28.4112 16.6192 32.1037 13.3614 36.1673 10.6155C38.1792 9.23739 40.2753 7.98628 42.4434 6.86945C43.5392 6.3347 44.6266 5.78025 45.7561 5.31868L46.6012 4.95562C46.8829 4.83179 47.1646 4.71358 47.4463 4.61226L49.159 3.96775C49.7224 3.73977 50.3139 3.57653 50.8942 3.38233L51.7646 3.10089C52.0463 3.0052 52.3449 2.91232 52.6407 2.83915C53.821 2.52393 54.9956 2.18056 56.1957 1.94696C58.5903 1.41801 61.0171 1.04665 63.4605 0.835254L65.483 0.705792L65.9873 0.674833H66.4943H67.5056C68.8549 0.629801 70.2014 0.717047 71.5507 0.764893C72.2239 0.80711 72.8944 0.880284 73.5648 0.939388L74.5704 1.03227L75.5704 1.17299L77.5705 1.45443L79.5423 1.84283C79.8719 1.91038 80.2043 1.96385 80.5311 2.04547L81.5113 2.29033C82.1649 2.4592 82.824 2.60273 83.4691 2.79411L85.4043 3.38233L85.8888 3.52869L86.3649 3.69756L87.317 4.04092C88.5959 4.47154 89.8297 5.02317 91.0776 5.54103C91.6917 5.82247 92.2973 6.1208 92.9086 6.40787C93.2128 6.55423 93.5199 6.68932 93.8213 6.84975L94.7143 7.33102C99.3653 9.80526 103.651 12.9109 107.45 16.5596C109.336 18.3956 111.098 20.354 112.726 22.4221C113.495 23.4804 114.3 24.502 114.979 25.5968L115.512 26.4046C115.689 26.686 115.869 26.9422 116.027 27.2208L117.002 28.8757C117.173 29.2004 117.376 29.5077 117.607 29.7932C117.723 29.8523 117.675 29.6637 117.399 29.1374Z" fill="#FF945C"/>
</g>
<path d="M117.987 33.1544L117.274 31.7219C117.021 31.2519 116.756 30.7903 116.497 30.3146C115.992 29.3718 115.409 28.4768 114.843 27.5706C114.561 27.1118 114.254 26.6784 113.95 26.2393L113.032 24.9222L112.054 23.65C111.725 23.2278 111.409 22.8057 111.054 22.3948C108.319 19.0998 105.226 16.1188 101.832 13.5067C98.4302 10.9197 94.7444 8.72903 90.8457 6.97718C90.3668 6.74077 89.8626 6.55501 89.3696 6.35237L87.8823 5.75007L86.3668 5.22096C85.8597 5.0521 85.3611 4.85226 84.8428 4.71436L83.302 4.26404C83.0456 4.19087 82.7893 4.10925 82.5301 4.04171L81.7498 3.85595L80.1893 3.49007C79.6681 3.3606 79.1386 3.28462 78.6118 3.18048C74.3979 2.38398 70.1095 2.04989 65.823 2.18416C61.5327 2.35113 57.2775 3.02664 53.1468 4.1965L52.3693 4.4104L51.6031 4.66088L50.0707 5.16185C49.5581 5.32509 49.0623 5.53618 48.558 5.72475C48.0538 5.91331 47.5496 6.09907 47.0538 6.31016C45.0666 7.13736 43.1283 8.07703 41.2481 9.12461C40.7805 9.39199 40.3016 9.63684 39.8397 9.9211L38.4678 10.7654L37.7833 11.1932L37.1185 11.652L35.7889 12.5695C35.3467 12.8763 34.9298 13.2168 34.4988 13.5405C34.0678 13.8642 33.634 14.185 33.2255 14.534L31.9917 15.5782C31.7861 15.7527 31.5776 15.9243 31.3776 16.1016L30.7861 16.6645L29.6058 17.7678C29.217 18.1421 28.8508 18.5362 28.479 18.9217L27.9156 19.5015C27.7269 19.6929 27.541 19.8899 27.3663 20.0954L26.2987 21.3084C26.1241 21.5138 25.9381 21.708 25.7691 21.9191L25.2593 22.5383L24.2508 23.802C23.9269 24.2326 23.617 24.6745 23.3015 25.1107C22.986 25.547 22.6564 25.9748 22.3747 26.4335C19.9785 30.0207 17.9942 33.866 16.4592 37.8968C14.9582 41.9143 13.9407 46.096 13.4282 50.3536C12.3511 58.884 13.2375 67.5475 16.0198 75.6837C17.4031 79.7391 19.2701 83.6134 21.5804 87.223C22.7314 89.0272 23.9842 90.7646 25.3325 92.4269L26.3776 93.6427C26.7297 94.0452 27.0649 94.4617 27.4396 94.8417C28.1804 95.61 28.8931 96.4093 29.6931 97.1298L30.8508 98.2359L32.0565 99.2885C32.8481 100.006 33.7016 100.648 34.5354 101.312C34.9467 101.65 35.3805 101.954 35.8199 102.263L37.1213 103.192L38.465 104.062C38.9157 104.343 39.3523 104.653 39.8199 104.906C43.4808 107.089 47.383 108.84 51.4482 110.124C55.5086 111.395 59.7011 112.198 63.9441 112.516C68.1973 112.856 72.475 112.723 76.6991 112.122C80.9191 111.489 85.0505 110.365 89.0091 108.773C92.9577 107.181 96.7093 105.14 100.189 102.688C101.932 101.47 103.605 100.154 105.201 98.7482C105.598 98.3935 105.978 98.022 106.367 97.6618C106.756 97.3015 107.156 96.9469 107.516 96.5557C108.249 95.7845 109.015 95.0472 109.697 94.231C110.24 93.6118 110.02 93.5133 109.48 94.1296L108.956 94.7263C108.778 94.9233 108.589 95.1091 108.406 95.2892L107.302 96.4291C106.939 96.8146 106.536 97.1608 106.156 97.5267C105.775 97.8926 105.389 98.2584 104.992 98.6074C103.401 100.01 101.732 101.32 99.9922 102.534C96.5241 104.977 92.7799 107.003 88.8372 108.571C80.9343 111.746 72.3931 113.014 63.9075 112.272C61.7944 112.098 59.6926 111.808 57.6116 111.402L57.2201 111.332L56.8313 111.242L56.0567 111.064L54.5074 110.707L52.9778 110.273C52.4708 110.121 51.9524 109.992 51.4538 109.82C47.4075 108.52 43.526 106.755 39.8875 104.56C36.2522 102.354 32.8754 99.7484 29.8199 96.7921L29.2565 96.2292C29.0677 96.0435 28.8875 95.8465 28.6931 95.6663L27.5945 94.5124C27.2227 94.1325 26.8931 93.7131 26.541 93.3163C26.1888 92.9194 25.8396 92.517 25.5072 92.1032C24.1667 90.4504 22.926 88.7193 21.7916 86.919C17.2113 79.7309 14.4817 71.4395 13.6226 62.9961C13.2289 58.763 13.3414 54.4981 13.9578 50.2917C15.1737 41.8564 18.2528 33.7972 22.9719 26.6981C25.3476 23.1579 28.1362 19.9125 31.279 17.0304C36.0043 12.6921 41.4339 9.18876 47.3355 6.67041C47.8285 6.46777 48.3299 6.27919 48.8256 6.085C49.3214 5.8908 49.8144 5.68253 50.3242 5.5221C51.3412 5.19563 52.3412 4.82131 53.3778 4.55956C57.4861 3.39781 61.7173 2.72425 65.9835 2.55286C70.2457 2.40443 74.5111 2.72818 78.7019 3.51821C87.0795 5.05491 95.0091 8.68837 101.784 13.8079C105.155 16.3988 108.221 19.3625 110.925 22.6424C111.277 23.0393 111.584 23.4868 111.911 23.8921C112.237 24.2973 112.561 24.7364 112.877 25.1558L113.787 26.4617L114.24 27.1146C114.392 27.3313 114.522 27.5621 114.668 27.7845L115.513 29.1326L115.725 29.4703L115.919 29.8165L116.311 30.5088C116.567 30.9732 116.837 31.4292 117.085 31.8992L117.801 33.3205L118.161 34.0297C118.28 34.2577 118.483 34.1001 117.987 33.1544Z" fill="#FF945C"/>
<path d="M114.347 83.2279C112.41 86.5856 110.164 89.7553 107.637 92.6958C105.085 95.6635 102.2 98.3276 99.0373 100.635L98.7021 100.886L98.3528 101.119L97.6542 101.575L96.9585 102.043C96.7275 102.2 96.4937 102.355 96.2542 102.496C95.2965 103.059 94.3528 103.669 93.3584 104.184C91.3992 105.249 89.3745 106.189 87.2964 106.999C86.2457 107.376 85.2119 107.793 84.1386 108.102C83.6062 108.265 83.0767 108.445 82.5414 108.592L80.9217 109.014C80.64 109.082 80.3837 109.163 80.1104 109.217L79.2907 109.388C78.7442 109.501 78.2006 109.622 77.6513 109.726L75.9977 109.985L75.1696 110.114L74.3245 110.204C73.7217 110.266 73.1188 110.34 72.516 110.396L70.6991 110.5C70.0935 110.548 69.4878 110.545 68.8822 110.551C68.2765 110.556 67.6681 110.579 67.0625 110.551C65.8512 110.497 64.6371 110.475 63.4314 110.337L62.5244 110.255L62.0709 110.213L61.6202 110.148L59.8173 109.892C57.42 109.507 55.052 108.958 52.73 108.248C51.5609 107.925 50.4285 107.486 49.2848 107.083C48.7215 106.878 48.1581 106.625 47.5947 106.397C47.0313 106.169 46.4679 105.938 45.9299 105.665L44.2904 104.88C43.7552 104.598 43.2257 104.317 42.6961 104.016L41.9017 103.579L41.1299 103.104C40.6172 102.783 40.0989 102.476 39.5918 102.147C38.6031 101.454 37.589 100.801 36.6481 100.044L35.9298 99.4814L35.5721 99.2L35.2256 98.9185L33.8481 97.7505C30.237 94.5544 27.0708 90.8892 24.434 86.853L23.9297 86.0931C23.7607 85.8398 23.6142 85.5724 23.4565 85.3134L22.5213 83.7486C21.9579 82.6735 21.3438 81.6209 20.8311 80.5092L20.4705 79.7155L20.2734 79.3046L20.0959 78.8852L19.3832 77.1966C19.1522 76.6337 18.9579 76.0567 18.741 75.4882L18.4226 74.6438L18.1409 73.7742C17.3864 71.4535 16.8008 69.0813 16.3888 66.6761L16.1071 64.8749C16.0254 64.2726 15.9719 63.6675 15.9043 63.0652L15.8085 62.1617L15.7578 61.2527C15.7269 60.6476 15.6846 60.0424 15.6649 59.4373C15.6649 58.2243 15.6226 57.0113 15.7043 55.7982L15.7437 54.8892C15.7437 54.5852 15.7635 54.2841 15.8001 53.9829L15.9691 52.1704L16.0114 51.7173L16.0762 51.267L16.2057 50.3663L16.3353 49.4657L16.4001 49.0154L16.4874 48.5679L16.8367 46.7807C16.8677 46.6316 16.8931 46.4824 16.9269 46.3332L17.0367 45.8914L17.2564 45.0076C18.4226 40.2905 20.243 35.7595 22.6649 31.5461C23.3044 30.516 23.9044 29.4606 24.6142 28.4783L25.1297 27.7297L25.3861 27.3553L25.6678 26.9923L26.772 25.5485C27.1382 25.0672 27.5495 24.6197 27.9354 24.1412L28.5213 23.4489C28.7185 23.2181 28.9326 23.0042 29.1382 22.7819L30.3805 21.4591L31.6847 20.1982C33.4406 18.5341 35.3099 16.9937 37.2791 15.5881L38.0115 15.0534L38.7665 14.5524C39.2735 14.2231 39.7721 13.8797 40.282 13.5589C41.3242 12.9453 42.3468 12.298 43.4228 11.7464C51.991 7.11467 61.6803 4.95709 71.4062 5.51516C75.0326 5.71791 78.6307 6.27215 82.1499 7.17007C85.6765 8.0638 89.0942 9.34171 92.3415 10.9808C98.8799 14.2584 104.664 18.859 109.328 24.4902C111.661 27.3464 113.672 30.4507 115.325 33.747C116.978 37.0511 111.643 25.9932 104.584 19.3257L103.237 18.1014C103.018 17.8931 102.784 17.6989 102.547 17.5104L101.843 16.9475C100.922 16.1566 99.9219 15.4699 98.9557 14.7438C98.4571 14.4032 97.9472 14.0739 97.443 13.739L96.6852 13.2409L95.9049 12.7793C95.381 12.4753 94.8683 12.1545 94.3387 11.8646L92.7331 11.0202C92.2035 10.7388 91.6486 10.4883 91.1021 10.2322L90.2795 9.84943C89.9978 9.71996 89.733 9.59331 89.4485 9.48636L87.7584 8.80527L87.3387 8.6364L86.9105 8.48723L86.0654 8.1889C84.9386 7.76392 83.7668 7.44869 82.6119 7.10251C82.3302 7.00964 82.0288 6.94491 81.7358 6.87173L80.8541 6.65783C80.2654 6.51993 79.6851 6.35387 79.0879 6.25255C67.2913 3.74114 54.9898 5.33563 44.225 10.7714C33.4603 16.2071 24.8797 25.1573 19.9072 36.1364L19.2086 37.7998C19.0931 38.0812 18.9719 38.3627 18.8621 38.6441L18.555 39.4885C18.3522 40.0514 18.1381 40.6143 17.9438 41.1771L17.4142 42.9024C17.3297 43.1839 17.2311 43.4653 17.155 43.7664L16.9353 44.6417C16.7917 45.2271 16.6339 45.8069 16.4987 46.3951L16.1466 48.1654C16.0902 48.4469 16.0226 48.7537 15.9747 49.052L15.8423 49.9442C14.3188 59.5247 15.482 69.3397 19.2029 78.2998C22.974 87.2778 29.146 95.0452 37.0425 100.751C38.9953 102.173 41.0443 103.459 43.1749 104.598L43.9721 105.032C44.2369 105.175 44.5158 105.296 44.7862 105.431L46.42 106.216L48.0764 106.923L48.9215 107.275L49.7665 107.584L51.4736 108.201L53.2116 108.733L54.0821 108.997L54.9638 109.217L56.7272 109.658L58.499 110.019L59.392 110.193L60.2906 110.323L62.0906 110.579L63.899 110.745C66.4686 110.962 69.0512 110.977 71.6231 110.79L72.5864 110.728L73.5442 110.621C74.1808 110.542 74.8203 110.486 75.4569 110.39L77.3555 110.075L77.8287 109.993L78.2992 109.892L79.24 109.689L80.1809 109.487C80.4935 109.416 80.8006 109.324 81.1105 109.242C81.7274 109.07 82.3499 108.918 82.964 108.735L84.795 108.147L85.2513 108.001L85.702 107.832L86.6035 107.494L87.5049 107.156C87.8035 107.041 88.0964 106.906 88.3922 106.782C88.9809 106.523 89.5753 106.284 90.1556 106.014L91.888 105.169C92.1697 105.034 92.4514 104.888 92.7331 104.725L93.5782 104.263L94.3782 103.827C94.6429 103.681 94.8993 103.515 95.1584 103.357L96.7162 102.403C97.719 101.71 98.7528 101.055 99.7162 100.295L100.451 99.7319L100.818 99.4505L101.173 99.169L102.581 97.9954C103.049 97.5986 103.491 97.1736 103.947 96.7627L104.629 96.1435L105.28 95.4933C107.025 93.7774 108.652 91.9457 110.15 90.0108L111.254 88.5557C111.609 88.0632 111.944 87.5566 112.291 87.0584L112.809 86.3098L113.288 85.5386C113.606 85.0236 113.933 84.517 114.246 84.0019C114.868 82.9268 114.953 82.1753 114.347 83.2279Z" fill="#FF945C"/>
<g opacity="0.6">
<path opacity="0.6" d="M114.767 35.5796L114.128 34.2483L113.423 32.9452C109.754 26.1052 104.567 20.1943 98.2599 15.6645C91.8035 11.1051 84.271 8.25402 76.809 7.01003C72.7159 6.32112 68.5579 6.0983 64.4145 6.34582C63.8962 6.35989 63.3807 6.41899 62.8652 6.46965L61.3159 6.62163L59.7779 6.85242C59.2652 6.92841 58.7497 6.99877 58.2427 7.11416L56.713 7.42375C56.4567 7.4716 56.2032 7.5307 55.9525 7.60106L55.1947 7.79526C54.6933 7.93036 54.1806 8.04012 53.6849 8.19773L52.1919 8.66493C51.944 8.74655 51.6905 8.8141 51.4454 8.90416L50.7102 9.18561L49.2369 9.73442L47.7947 10.3339L47.0707 10.6463C46.8285 10.7504 46.5975 10.8743 46.3609 10.9897L44.9524 11.6877C44.4791 11.9213 44.0284 12.1943 43.5665 12.4447L42.8763 12.8275L42.5327 13.0189L42.1975 13.2272L40.8566 14.0715C40.4031 14.3389 39.9805 14.6541 39.5439 14.9468C39.1073 15.2395 38.6735 15.535 38.2509 15.8474L36.9974 16.8015L36.3721 17.28L35.7692 17.7866L34.5551 18.7829L33.3946 19.8411C32.6058 20.5279 31.8903 21.2934 31.141 22.0195C30.9523 22.1996 30.7748 22.391 30.6002 22.5824L30.0734 23.1594C29.7269 23.5478 29.3607 23.9193 29.0283 24.3218L28.0311 25.5263C27.8678 25.729 27.6959 25.9232 27.5354 26.1314L27.0677 26.7563L26.1297 28.0059C25.8311 28.4337 25.5466 28.8699 25.2536 29.3005C24.6508 30.1449 24.1269 31.0596 23.5917 31.9489C23.31 32.388 23.0818 32.858 22.8283 33.3139L22.0902 34.693L21.4198 36.1002C21.1945 36.5703 20.9663 37.0403 20.7747 37.5272C20.3776 38.4925 19.9578 39.4495 19.6283 40.4458L19.1043 41.9262L18.6536 43.4319C18.0694 45.4177 17.5992 47.4352 17.2451 49.4745C17.1578 49.984 17.0987 50.499 17.0226 51.0112L16.9156 51.7796C16.8761 52.0357 16.8423 52.2918 16.8254 52.5507L16.6902 54.0987C16.6677 54.3576 16.6395 54.6137 16.6254 54.8727L16.5972 55.6495L16.5381 57.2059C16.5381 57.7237 16.5381 58.2444 16.5381 58.7623V59.5419V59.9303L16.5634 60.3186L16.6592 61.875C16.6789 62.3957 16.7437 62.9108 16.8029 63.4286L16.9747 64.9794L17.2254 66.5217C17.3071 67.0368 17.3832 67.5518 17.5071 68.0584L17.8311 69.581C17.8789 69.8371 17.9437 70.0876 18.0113 70.3381L18.2113 71.0896C18.3494 71.5905 18.4649 72.0971 18.6198 72.5925L19.0902 74.0785C19.1691 74.3262 19.2423 74.5739 19.3297 74.8215L19.6114 75.5533L20.155 77.0168C20.3522 77.4981 20.5635 77.9737 20.7635 78.4522C20.9635 78.9307 21.1607 79.4147 21.4001 79.8763C21.8564 80.8107 22.2931 81.7564 22.8086 82.6626C23.0621 83.1186 23.2987 83.5829 23.5663 84.0304L24.3804 85.3645C24.5184 85.5868 24.6621 85.812 24.7889 86.0315L25.2283 86.6788L26.1044 87.9819L27.0396 89.2372C27.3523 89.6537 27.6565 90.0815 27.9973 90.4755L28.9889 91.6829L29.2368 91.9841L29.4988 92.2655L30.0199 92.8453C30.372 93.2281 30.7044 93.6277 31.0678 94.0021L32.1608 95.1279L32.7072 95.6907L33.2706 96.2198L34.4115 97.2837C34.8002 97.6299 35.203 97.9564 35.6002 98.2969C35.9974 98.6375 36.3861 98.9836 36.8059 99.2904C40.0877 101.889 43.6842 104.064 47.5102 105.764C55.2173 109.085 63.7554 110.638 72.1244 110.008C73.1752 109.96 74.2146 109.814 75.2597 109.695C75.7836 109.648 76.2991 109.543 76.8174 109.459C77.3358 109.375 77.8541 109.29 78.3724 109.194L79.9132 108.857L80.6851 108.691C80.9414 108.629 81.1921 108.556 81.4485 108.488L83.0062 108.049C83.5133 107.908 84.0091 107.731 84.5105 107.576C86.5095 106.929 88.4687 106.165 90.3781 105.288L91.7866 104.593L92.4936 104.247C92.7246 104.126 92.9528 103.993 93.1838 103.87L94.5584 103.11C95.0148 102.854 95.4514 102.564 95.8993 102.293C97.6801 101.191 99.3948 99.9853 101.035 98.6825L102.24 97.6721L102.843 97.1683L103.423 96.6364L104.578 95.5697C104.959 95.2095 105.316 94.8239 105.685 94.4439C108.624 91.4695 111.174 88.135 113.274 84.5202C113.502 84.1435 113.705 83.7524 113.883 83.3493C113.981 83.0679 113.99 82.9413 113.933 82.9356C113.877 82.93 113.756 83.0623 113.556 83.3128C113.278 83.6817 113.023 84.067 112.792 84.4667C110.506 88.2895 107.745 91.8083 104.575 94.9393C102.982 96.4991 101.288 97.9535 99.5049 99.2932C98.6345 99.9884 97.6908 100.588 96.7782 101.227C96.3134 101.534 95.8317 101.815 95.3697 102.111C94.9077 102.406 94.4232 102.699 93.9274 102.955L92.457 103.76C91.9612 104.016 91.4542 104.252 90.9528 104.497L90.2006 104.863C89.9499 104.984 89.688 105.085 89.4316 105.198L87.8908 105.857C87.3696 106.059 86.8457 106.248 86.3217 106.445L85.5358 106.726C85.2738 106.819 85.0034 106.898 84.7386 106.982L83.1414 107.489L81.5245 107.92L80.7161 108.133C80.4344 108.198 80.1696 108.252 79.8991 108.311L78.2625 108.66L76.6118 108.941L75.7864 109.076C75.5048 109.116 75.2231 109.141 74.9554 109.175L73.2935 109.363C72.7301 109.408 72.1808 109.437 71.6258 109.476L70.7808 109.529C70.4991 109.549 70.2174 109.529 69.9357 109.549L68.2653 109.574C63.8175 109.533 59.3933 108.925 55.099 107.768C50.8114 106.573 46.6881 104.853 42.8228 102.648C38.9525 100.431 35.3769 97.7363 32.1805 94.6269C30.5788 93.0723 29.0816 91.4138 27.6987 89.6622C27.0311 88.77 26.3353 87.8975 25.7269 86.9631C25.4198 86.4987 25.0875 86.0512 24.8001 85.5728L23.9325 84.1261C23.6311 83.6561 23.3889 83.158 23.1184 82.6711L22.7241 81.9365C22.5917 81.6944 22.4593 81.4496 22.3466 81.1963C21.8733 80.1943 21.3832 79.2008 20.9832 78.1679C20.1397 76.1307 19.433 74.0396 18.8677 71.9086C17.748 67.655 17.1511 63.281 17.0902 58.8833C17.0902 58.3204 17.0677 57.78 17.0902 57.2312L17.155 55.5791C17.155 55.2977 17.1719 55.0162 17.1888 54.7545L17.262 53.9326L17.4057 52.2862C17.9315 47.9067 18.992 43.608 20.5635 39.486L21.1945 37.9606L21.51 37.1979L21.8649 36.4521L22.5691 34.9604C22.8227 34.4735 23.0874 33.9922 23.3466 33.5053C25.4493 29.6298 28.0352 26.0362 31.0424 22.8104C32.5514 21.2001 34.1643 19.6902 35.8706 18.2904C36.7157 17.567 37.6087 16.9338 38.4876 16.2696C38.9326 15.9431 39.3974 15.6504 39.8509 15.338C40.3045 15.0256 40.7608 14.716 41.2369 14.443L42.6453 13.5987C43.1214 13.3172 43.6115 13.0752 44.0932 12.8134C45.0482 12.2702 46.0651 11.8396 47.0426 11.3584C47.5412 11.1332 48.0538 10.9334 48.5552 10.7195L49.313 10.4043C49.5637 10.2973 49.8257 10.2157 50.082 10.1228L51.6257 9.55992C52.144 9.38543 52.6708 9.23626 53.1919 9.07302C57.3793 7.81137 61.7093 7.08231 66.0793 6.90308C68.2645 6.81635 70.453 6.86899 72.6315 7.06069C74.8091 7.24939 76.9729 7.57274 79.1104 8.02886C83.394 8.96777 87.5421 10.442 91.457 12.4166C92.4119 12.9429 93.3978 13.4185 94.3218 14.0011C94.7894 14.2826 95.2655 14.564 95.7303 14.8455L97.0993 15.7517C97.3275 15.9037 97.5613 16.0332 97.781 16.2077L98.443 16.6946C98.8824 17.021 99.3331 17.3363 99.7697 17.6684L101.049 18.7013C101.26 18.8758 101.48 19.0418 101.685 19.222L102.299 19.7708C102.708 20.1367 104.46 21.7775 105.285 22.6049C106.526 23.8371 107.68 25.1537 108.739 26.5452C109.618 27.671 110.919 29.6777 110.919 29.6777C111.235 30.1252 111.511 30.5952 111.792 31.0624C112.074 31.5296 112.356 31.9911 112.637 32.4696C113.15 33.435 113.702 34.3778 114.153 35.3713C115.136 37.3133 115.218 36.4549 114.767 35.5796Z" fill="#FF945C"/>
</g>
<g opacity="0.7">
<path opacity="0.7" d="M117.331 81.0949C115.555 84.9148 113.333 88.5113 110.711 91.8096C108.062 95.1382 105.019 98.134 101.649 100.731C100.823 101.404 99.9389 101.998 99.0713 102.617C98.6431 102.935 98.1839 103.205 97.7389 103.495L96.3896 104.34C94.5625 105.431 92.676 106.419 90.7388 107.3C82.9627 110.875 74.444 112.541 65.8929 112.158C57.3418 111.776 49.0061 109.357 41.5807 105.102C37.8949 103.006 34.4734 100.476 31.389 97.568C28.3297 94.65 25.598 91.4073 23.2425 87.8975C20.8992 84.3697 18.9629 80.5884 17.4706 76.6256C17.2678 76.1359 17.1129 75.6321 16.941 75.1311L16.4368 73.6282L16.0086 72.1028C15.8678 71.5933 15.71 71.0896 15.6058 70.5717C15.3776 69.5416 15.1129 68.5171 14.9523 67.4758L14.6706 65.9166L14.4734 64.3461C14.3128 63.2569 14.2593 62.1565 14.1692 61.0588C14.1129 60.51 14.1213 59.9584 14.1016 59.4067C14.0819 58.8551 14.065 58.3063 14.0593 57.7547C14.0669 55.5478 14.2023 53.3432 14.465 51.1519C14.5354 50.6059 14.5945 50.0571 14.6706 49.5083L14.9523 47.8787C15.1157 46.7867 15.3974 45.7172 15.634 44.6421C15.7439 44.1017 15.9157 43.5754 16.0594 43.0435L16.5129 41.4533L17.0425 39.8885C17.2171 39.3678 17.3918 38.8443 17.6058 38.3377L18.2171 36.8151C18.3157 36.559 18.4256 36.3057 18.5439 36.058L18.8875 35.3094C19.1213 34.8112 19.3354 34.3046 19.5889 33.8177L20.3523 32.3598C20.4819 32.1178 20.603 31.8729 20.7354 31.6309L21.1523 30.9216L21.9974 29.5144C22.2791 29.05 22.5974 28.5969 22.8988 28.1381C23.2002 27.6794 23.4904 27.215 23.8256 26.7787C24.4735 25.895 25.1045 24.9972 25.8115 24.1585C26.1608 23.7363 26.4904 23.2973 26.8538 22.8864L27.9468 21.6564C28.1299 21.4538 28.3073 21.2427 28.4961 21.0457L29.0594 20.4575L30.2088 19.281L31.4116 18.1553C31.8116 17.7781 32.2088 17.401 32.6341 17.0548C35.9476 14.1492 39.5903 11.6414 43.4877 9.58242L44.9582 8.8197L46.4624 8.13016C47.4568 7.64607 48.4962 7.28582 49.5188 6.85802C50.0314 6.65256 50.5582 6.49496 51.0793 6.30921L51.8624 6.04183C52.1216 5.94895 52.3836 5.86452 52.6512 5.79415C53.7132 5.51271 54.7639 5.16653 55.8428 4.94982C60.0353 3.97247 64.3368 3.54203 68.64 3.66924C72.9084 3.80091 77.15 4.39351 81.2908 5.43672C81.5528 5.49301 81.812 5.56337 82.0683 5.63936L82.843 5.85889C83.3585 6.00806 83.8768 6.14034 84.3895 6.30076L85.9162 6.81018L86.6796 7.06348C86.936 7.14791 87.181 7.25486 87.4317 7.34492L88.936 7.9247L89.3134 8.07105L89.6825 8.23429L90.4205 8.56077C90.9106 8.78311 91.4092 8.98575 91.8937 9.22216L93.336 9.94548C97.1796 11.8974 100.758 14.3319 103.984 17.1899C104.807 17.8766 105.55 18.6506 106.325 19.3852C106.522 19.5681 106.705 19.7623 106.888 19.9481L107.438 20.5335C107.798 20.9275 108.178 21.3046 108.528 21.7127L109.567 22.9342C109.739 23.1396 109.916 23.3395 110.085 23.5478L110.576 24.1838L111.559 25.4531C111.871 25.8866 112.173 26.3284 112.483 26.7647C113.116 27.6287 113.663 28.549 114.243 29.4497C114.716 30.2518 114.925 31.7688 112.742 28.3942C112.485 27.9608 112.178 27.5499 111.897 27.1474L111.035 25.9091L110.102 24.7411C109.795 24.3442 109.5 23.9361 109.164 23.559C108.508 22.7991 107.883 22.0111 107.178 21.2934L106.147 20.1957C105.792 19.8411 105.426 19.4978 105.066 19.1516C102.17 16.3797 98.9553 13.962 95.4881 11.9494C92.0253 9.93925 88.3599 8.29968 84.5528 7.05785C80.7601 5.80143 76.8408 4.96428 72.8654 4.56142C68.8872 4.15528 64.8751 4.21385 60.9104 4.73592C56.7196 5.29755 52.6167 6.38598 48.699 7.97536C47.7075 8.34405 46.7554 8.80563 45.7892 9.23624C45.3018 9.44451 44.8399 9.70062 44.3807 9.93704C43.9215 10.1734 43.437 10.4155 42.9722 10.6632C41.1227 11.6808 39.3304 12.7989 37.6032 14.0124C35.8772 15.2207 34.2175 16.521 32.6313 17.9076L31.4566 18.9799C31.0735 19.3401 30.6764 19.6863 30.3158 20.0719C29.5806 20.8262 28.8256 21.5607 28.1411 22.3629C25.3041 25.4956 22.8728 28.9725 20.9044 32.7116C18.936 36.4619 17.4356 40.4394 16.4368 44.5549C15.4554 48.669 14.9293 52.8784 14.8678 57.1073C14.7962 61.4436 15.2435 65.7729 16.2002 70.0032C17.1455 74.2507 18.6298 78.3602 20.6171 82.232C24.6484 90.0338 30.5234 96.7354 37.7328 101.756C38.1666 102.088 38.637 102.367 39.0905 102.671C39.544 102.975 39.9976 103.264 40.4708 103.546L41.8793 104.376L42.5835 104.793L43.3074 105.173L44.7554 105.935C45.2427 106.18 45.7413 106.4 46.2342 106.633C47.2145 107.115 48.2342 107.506 49.2427 107.92C49.7441 108.136 50.2624 108.305 50.7779 108.482L52.3244 109.023L53.8991 109.482C54.4258 109.631 54.9442 109.8 55.4822 109.915C56.547 110.16 57.6061 110.444 58.6907 110.616L60.3076 110.897L61.9386 111.108C64.1225 111.377 66.3213 111.509 68.5217 111.502L70.1724 111.449C70.7358 111.426 71.2739 111.424 71.8203 111.364C72.9161 111.266 74.0147 111.196 75.1049 111.021C75.6485 110.942 76.195 110.878 76.7387 110.787L78.3584 110.481L79.1697 110.329L79.9725 110.137L81.5753 109.755C82.1077 109.617 82.6317 109.453 83.1585 109.304C83.6852 109.155 84.2176 109.023 84.7331 108.826C85.7698 108.468 86.8148 108.139 87.8317 107.717C89.8773 106.924 91.8768 106.018 93.8205 105.001C95.7538 103.969 97.6255 102.825 99.4262 101.576C100.345 100.968 101.204 100.287 102.077 99.6056C102.522 99.282 102.922 98.9105 103.35 98.5587C103.778 98.2069 104.195 97.855 104.601 97.4863L105.804 96.3606C106.004 96.172 106.207 95.989 106.401 95.7977L106.964 95.2038L108.108 94.0189L109.19 92.7778C112.065 89.4448 114.512 85.766 116.474 81.8267C117.446 79.941 118.085 79.4429 117.331 81.0949Z" fill="#FF945C"/>
</g>
</g>
<path d="M52.515 55.471V60.3052C52.515 61.4069 52.3752 62.3852 52.0957 63.2402C51.8326 64.0952 51.4873 64.7776 51.0598 65.2873C50.6323 65.7971 50.1225 66.2164 49.5306 66.5452C48.5276 67.1043 47.3766 67.3838 46.0776 67.3838C41.6216 67.3838 39.3937 65.1065 39.3937 60.5518V55.4464C39.3937 53.687 39.3361 52.4867 39.221 51.8454C39.1224 51.2041 38.9744 50.8013 38.7771 50.6369C38.3989 50.3245 37.7987 50.1683 36.9766 50.1683L36.9272 49.8723H43.5619L43.5126 50.1683C43.1179 50.1683 42.7973 50.1847 42.5507 50.2176C42.3205 50.2505 42.1067 50.3409 41.9094 50.4889C41.7121 50.6369 41.5641 50.8095 41.4654 51.0068C41.3832 51.1877 41.3092 51.5001 41.2435 51.9441C41.1612 52.5196 41.1201 53.687 41.1201 55.4464V60.6752C41.1201 62.7798 41.5888 64.309 42.526 65.2627C43.4797 66.1999 44.754 66.6685 46.3489 66.6685C47.9439 66.6685 49.2675 66.1588 50.3199 65.1394C51.3722 64.1035 51.8984 62.5085 51.8984 60.3545V55.471C51.8984 53.8268 51.8244 52.6429 51.6764 51.9194C51.5284 51.1959 51.2818 50.7273 50.9365 50.5135C50.6076 50.2834 50.0403 50.1683 49.2346 50.1683L49.1853 49.8723H55.2527L55.2033 50.1683C54.3976 50.1683 53.8222 50.2834 53.4769 50.5135C53.148 50.7273 52.9014 51.1959 52.7369 51.9194C52.5889 52.6429 52.515 53.8268 52.515 55.471Z" fill="#282828"/>
<path d="M57.9902 63.4622C57.9902 64.531 58.2779 65.3367 58.8534 65.8793C59.4289 66.4054 60.1113 66.6685 60.9006 66.6685C61.7063 66.6685 62.3557 66.4877 62.849 66.1259C63.3423 65.7642 63.5889 65.2791 63.5889 64.6707C63.5889 64.0459 63.3752 63.5362 62.9477 63.1416C62.5366 62.7469 62.0351 62.4263 61.4432 62.1797C60.8512 61.933 60.2511 61.6782 59.6427 61.4151C59.0507 61.152 58.541 60.7656 58.1135 60.2559C57.7024 59.7461 57.4969 59.0638 57.4969 58.2087C57.4969 57.3537 57.8751 56.6467 58.6315 56.0876C59.4043 55.5121 60.2922 55.2244 61.2952 55.2244C62.7257 55.2244 63.8438 55.4546 64.6495 55.915C64.6495 56.6714 64.5508 57.7237 64.3535 59.072L64.0576 58.998C64.0576 57.9128 63.8109 57.1235 63.3176 56.6302C62.8244 56.137 62.2242 55.8903 61.5172 55.8903C60.8266 55.8903 60.2675 56.0712 59.84 56.4329C59.4289 56.7947 59.2234 57.288 59.2234 57.9128C59.2234 58.5212 59.4289 59.0144 59.84 59.3926C60.2675 59.7544 60.7772 60.0586 61.3692 60.3052C61.9611 60.5518 62.553 60.8149 63.145 61.0944C63.7534 61.3575 64.2631 61.7439 64.6742 62.2537C65.1017 62.7469 65.3154 63.3553 65.3154 64.0788C65.3154 65.1311 64.9044 65.9451 64.0822 66.5205C63.2601 67.096 62.1749 67.3838 60.8266 67.3838C59.4947 67.3838 58.3684 67.0303 57.4476 66.3232C57.4476 65.5011 57.5298 64.531 57.6942 63.4129L57.9902 63.4622Z" fill="#282828"/>
<path d="M77.7987 60.8971H69.7089V61.3164C69.7089 63.0594 70.0789 64.3912 70.8188 65.312C71.5587 66.2164 72.4795 66.6685 73.5812 66.6685C75.2255 66.6685 76.4093 66.0108 77.1328 64.6954L77.5028 64.8927C76.6478 66.5534 75.2172 67.3838 73.2112 67.3838C71.7314 67.3838 70.4653 66.8494 69.4129 65.7806C68.3606 64.7118 67.8344 63.2731 67.8344 61.4644C67.8344 59.6393 68.2948 58.143 69.2156 56.9755C70.1529 55.8081 71.3943 55.2244 72.9399 55.2244C74.502 55.2244 75.7023 55.7588 76.5409 56.8276C77.3794 57.8799 77.7987 59.2364 77.7987 60.8971ZM73.0139 55.7177C72.0602 55.7177 71.3039 56.1287 70.7448 56.9509C70.2022 57.7566 69.8733 58.8336 69.7582 60.1819H75.8996C75.7845 57.2057 74.8226 55.7177 73.0139 55.7177Z" fill="#282828"/>
<path d="M88.1118 55.1011C88.5229 55.1011 88.8846 55.1915 89.197 55.3724C89.5094 55.5532 89.6656 55.7999 89.6656 56.1123C89.6656 56.4247 89.567 56.6714 89.3697 56.8522C89.1724 57.0331 88.9504 57.1235 88.7037 57.1235C88.4571 57.1235 88.1447 57.0166 87.7665 56.8029C87.4048 56.5891 87.0184 56.4823 86.6073 56.4823C85.966 56.4823 85.4399 57.0742 85.0288 58.2581C84.6342 59.442 84.4368 60.8149 84.4368 62.377C84.4368 64.4816 84.5437 65.756 84.7575 66.1999C84.8232 66.3479 84.9466 66.4877 85.1274 66.6192C85.3083 66.7343 85.4974 66.8001 85.6947 66.8165C85.892 66.833 86.1716 66.8412 86.5333 66.8412L86.5826 67.1371H80.5892L80.6386 66.8412C81.1647 66.8412 81.5429 66.8165 81.7731 66.7672C82.0198 66.7014 82.2253 66.4959 82.3897 66.1506C82.5542 65.8053 82.6446 65.3778 82.661 64.8681C82.6939 64.3419 82.7104 63.5115 82.7104 62.377V60.9465C82.7104 58.6609 82.6446 57.3619 82.513 57.0495C82.3979 56.7371 82.2911 56.4905 82.1924 56.3096C82.0938 56.1287 81.9458 56.0054 81.7485 55.9397C81.3867 55.841 80.9099 55.7917 80.3179 55.7917L80.2686 55.5204C81.6662 55.323 83.0557 55.2244 84.4368 55.2244V58.85C84.6177 57.6826 85.0206 56.77 85.6454 56.1123C86.2867 55.4381 87.1088 55.1011 88.1118 55.1011Z" fill="#282828"/>
<path d="M110.658 67.1371C110.247 67.1371 109.836 66.9316 109.425 66.5205C109.03 66.093 108.668 65.5669 108.34 64.942C108.027 64.3172 107.657 63.6431 107.23 62.9196C106.802 62.1797 106.375 61.4891 105.947 60.8478C105.52 60.2065 104.977 59.6639 104.319 59.22C103.662 58.776 102.963 58.5376 102.223 58.5047V61.5631C102.223 63.3389 102.272 64.5474 102.371 65.1887C102.486 65.8135 102.642 66.2081 102.84 66.3726C103.234 66.685 103.843 66.8412 104.665 66.8412L104.714 67.1371H98.104L98.1534 66.8412C98.9591 66.8412 99.551 66.6932 99.9292 66.3972C100.242 66.1506 100.422 65.3449 100.472 63.9801C100.505 63.4375 100.521 62.6318 100.521 61.5631V55.323C100.521 53.4979 100.472 52.2894 100.373 51.6974C100.274 51.1055 100.126 50.7355 99.9292 50.5875C99.551 50.308 98.9591 50.1683 98.1534 50.1683L98.104 49.8723H103.826C107.97 49.8723 110.041 51.2699 110.041 54.0652C110.041 55.2655 109.614 56.2767 108.759 57.0989C107.92 57.9046 106.901 58.3732 105.701 58.5047C106.901 59.2118 108.011 60.5107 109.03 62.4016C109.425 63.1416 109.844 63.8486 110.288 64.5228C111.258 66.0684 112.508 66.8412 114.037 66.8412L114.086 67.1371H110.658ZM102.223 50.4396V58.0114H103.777C105.026 58.0114 106.062 57.6908 106.884 57.0495C107.707 56.4083 108.118 55.4546 108.118 54.1885C108.118 51.6892 106.687 50.4396 103.826 50.4396H102.223Z" fill="#282828"/>
<path d="M124.307 60.8971H116.217V61.3164C116.217 63.0594 116.587 64.3912 117.327 65.312C118.067 66.2164 118.988 66.6685 120.089 66.6685C121.734 66.6685 122.918 66.0108 123.641 64.6954L124.011 64.8927C123.156 66.5534 121.725 67.3838 119.719 67.3838C118.24 67.3838 116.973 66.8494 115.921 65.7806C114.869 64.7118 114.343 63.2731 114.343 61.4644C114.343 59.6393 114.803 58.143 115.724 56.9755C116.661 55.8081 117.902 55.2244 119.448 55.2244C121.01 55.2244 122.21 55.7588 123.049 56.8276C123.888 57.8799 124.307 59.2364 124.307 60.8971ZM119.522 55.7177C118.568 55.7177 117.812 56.1287 117.253 56.9509C116.71 57.7566 116.382 58.8336 116.266 60.1819H122.408C122.293 57.2057 121.331 55.7177 119.522 55.7177Z" fill="#282828"/>
<path d="M127.813 63.4622C127.813 64.531 128.1 65.3367 128.676 65.8793C129.251 66.4054 129.934 66.6685 130.723 66.6685C131.529 66.6685 132.178 66.4877 132.672 66.1259C133.165 65.7642 133.411 65.2791 133.411 64.6707C133.411 64.0459 133.198 63.5362 132.77 63.1416C132.359 62.7469 131.858 62.4263 131.266 62.1797C130.674 61.933 130.074 61.6782 129.465 61.4151C128.873 61.152 128.364 60.7656 127.936 60.2559C127.525 59.7461 127.319 59.0638 127.319 58.2087C127.319 57.3537 127.698 56.6467 128.454 56.0876C129.227 55.5121 130.115 55.2244 131.118 55.2244C132.548 55.2244 133.666 55.4546 134.472 55.915C134.472 56.6714 134.373 57.7237 134.176 59.072L133.88 58.998C133.88 57.9128 133.633 57.1235 133.14 56.6302C132.647 56.137 132.047 55.8903 131.34 55.8903C130.649 55.8903 130.09 56.0712 129.663 56.4329C129.251 56.7947 129.046 57.288 129.046 57.9128C129.046 58.5212 129.251 59.0144 129.663 59.3926C130.09 59.7544 130.6 60.0586 131.192 60.3052C131.784 60.5518 132.376 60.8149 132.968 61.0944C133.576 61.3575 134.086 61.7439 134.497 62.2537C134.924 62.7469 135.138 63.3553 135.138 64.0788C135.138 65.1311 134.727 65.9451 133.905 66.5205C133.083 67.096 131.997 67.3838 130.649 67.3838C129.317 67.3838 128.191 67.0303 127.27 66.3232C127.27 65.5011 127.352 64.531 127.517 63.4129L127.813 63.4622Z" fill="#282828"/>
<path d="M147.621 60.8971H139.531V61.3164C139.531 63.0594 139.901 64.3912 140.641 65.312C141.381 66.2164 142.302 66.6685 143.404 66.6685C145.048 66.6685 146.232 66.0108 146.955 64.6954L147.325 64.8927C146.47 66.5534 145.04 67.3838 143.034 67.3838C141.554 67.3838 140.288 66.8494 139.235 65.7806C138.183 64.7118 137.657 63.2731 137.657 61.4644C137.657 59.6393 138.117 58.143 139.038 56.9755C139.975 55.8081 141.217 55.2244 142.762 55.2244C144.324 55.2244 145.525 55.7588 146.363 56.8276C147.202 57.8799 147.621 59.2364 147.621 60.8971ZM142.836 55.7177C141.883 55.7177 141.126 56.1287 140.567 56.9509C140.025 57.7566 139.696 58.8336 139.581 60.1819H145.722C145.607 57.2057 144.645 55.7177 142.836 55.7177Z" fill="#282828"/>
<path d="M159.513 59.1706V61.6617C159.513 63.4869 159.57 64.6872 159.685 65.2627C159.801 65.8217 160.08 66.1013 160.524 66.1013C160.804 66.1013 161.174 65.9862 161.634 65.756L161.757 66.0026C161.626 66.1013 161.453 66.2246 161.239 66.3726C161.026 66.5041 160.59 66.685 159.932 66.9152C159.274 67.1454 158.641 67.2605 158.033 67.2605C157.869 66.5699 157.786 65.4682 157.786 63.9555C157.425 64.9749 156.948 65.8053 156.356 66.4466C155.78 67.0714 154.975 67.3838 153.939 67.3838C152.903 67.3838 152.081 67.1125 151.472 66.5699C150.88 66.0108 150.584 65.2545 150.584 64.3008C150.584 61.6535 152.985 60.3216 157.786 60.3052V59.4173C157.786 58.2334 157.614 57.3291 157.268 56.7042C156.923 56.0794 156.282 55.767 155.345 55.767C154.818 55.767 154.391 55.8985 154.062 56.1616C153.733 56.4247 153.511 56.7125 153.396 57.0249C153.117 57.8799 152.697 58.3074 152.138 58.3074C151.596 58.3074 151.324 58.0032 151.324 57.3948C151.324 56.77 151.735 56.2521 152.558 55.841C153.38 55.4299 154.374 55.2244 155.542 55.2244C156.709 55.2244 157.663 55.5615 158.403 56.2356C159.143 56.8933 159.513 57.8717 159.513 59.1706ZM152.459 64.3994C152.459 65.0407 152.615 65.5751 152.928 66.0026C153.24 66.4137 153.733 66.6192 154.407 66.6192C155.098 66.6192 155.723 66.2903 156.282 65.6326C156.841 64.9585 157.219 64.2186 157.416 63.4129C157.63 62.5907 157.753 61.7439 157.786 60.8725C155.961 60.8889 154.613 61.226 153.741 61.8837C152.886 62.5414 152.459 63.38 152.459 64.3994Z" fill="#282828"/>
<path d="M171.458 55.1011C171.869 55.1011 172.231 55.1915 172.543 55.3724C172.856 55.5532 173.012 55.7999 173.012 56.1123C173.012 56.4247 172.913 56.6714 172.716 56.8522C172.519 57.0331 172.297 57.1235 172.05 57.1235C171.803 57.1235 171.491 57.0166 171.113 56.8029C170.751 56.5891 170.365 56.4823 169.954 56.4823C169.312 56.4823 168.786 57.0742 168.375 58.2581C167.981 59.442 167.783 60.8149 167.783 62.377C167.783 64.4816 167.89 65.756 168.104 66.1999C168.17 66.3479 168.293 66.4877 168.474 66.6192C168.655 66.7343 168.844 66.8001 169.041 66.8165C169.238 66.833 169.518 66.8412 169.88 66.8412L169.929 67.1371H163.936L163.985 66.8412C164.511 66.8412 164.889 66.8165 165.119 66.7672C165.366 66.7014 165.572 66.4959 165.736 66.1506C165.9 65.8053 165.991 65.3778 166.007 64.8681C166.04 64.3419 166.057 63.5115 166.057 62.377V60.9465C166.057 58.6609 165.991 57.3619 165.859 57.0495C165.744 56.7371 165.637 56.4905 165.539 56.3096C165.44 56.1287 165.292 56.0054 165.095 55.9397C164.733 55.841 164.256 55.7917 163.664 55.7917L163.615 55.5204C165.013 55.323 166.402 55.2244 167.783 55.2244V58.85C167.964 57.6826 168.367 56.77 168.992 56.1123C169.633 55.4381 170.455 55.1011 171.458 55.1011Z" fill="#282828"/>
<path d="M179.532 67.3838C178.085 67.3838 176.844 66.8494 175.808 65.7806C174.772 64.7118 174.254 63.2649 174.254 61.4397C174.254 59.5982 174.723 58.1019 175.66 56.9509C176.614 55.7999 177.962 55.2244 179.705 55.2244C180.79 55.2244 181.736 55.4053 182.541 55.767C183.347 56.1123 183.75 56.5974 183.75 57.2222C183.75 57.7812 183.446 58.0608 182.837 58.0608C182.525 58.0608 182.262 57.9374 182.048 57.6908C181.851 57.4442 181.695 57.1811 181.579 56.9015C181.481 56.6056 181.275 56.3343 180.963 56.0876C180.65 55.841 180.239 55.7177 179.73 55.7177C178.546 55.7177 177.65 56.211 177.041 57.1975C176.433 58.1841 176.129 59.5406 176.129 61.2671C176.129 62.9771 176.49 64.309 177.214 65.2627C177.937 66.1999 178.834 66.6685 179.902 66.6685C181.53 66.6685 182.689 66.0108 183.38 64.6954L183.75 64.8927C182.911 66.5534 181.505 67.3838 179.532 67.3838Z" fill="#282828"/>
<path d="M189.699 48.9844V59.6393C189.847 58.4554 190.258 57.4277 190.932 56.5563C191.606 55.6683 192.502 55.2244 193.62 55.2244C196.136 55.2244 197.394 56.5398 197.394 59.1706V63.0676C197.394 64.7776 197.501 65.8382 197.715 66.2492C197.945 66.6439 198.537 66.8412 199.49 66.8412L199.54 67.1371H193.546L193.596 66.8412C194.582 66.8412 195.174 66.6356 195.372 66.2246C195.569 65.8135 195.667 64.6872 195.667 62.8456V59.4173C195.667 58.2827 195.487 57.4277 195.125 56.8522C194.78 56.2767 194.221 55.989 193.448 55.989C192.691 55.989 192.058 56.2521 191.549 56.7782C191.039 57.288 190.661 57.9374 190.414 58.7267C189.937 60.2559 189.699 61.7933 189.699 63.3389C189.699 64.8845 189.797 65.8546 189.995 66.2492C190.209 66.6439 190.8 66.8412 191.771 66.8412L191.82 67.1371H185.802L185.851 66.8412C186.838 66.8412 187.438 66.6439 187.652 66.2492C187.865 65.8382 187.972 64.7612 187.972 63.0182V54.8051C187.972 52.3387 187.857 50.8588 187.627 50.3656C187.528 50.1683 187.372 49.9956 187.158 49.8476C186.961 49.6996 186.739 49.6092 186.492 49.5763C186.262 49.5434 185.942 49.527 185.531 49.527L185.481 49.2557C186.912 49.0748 188.318 48.9844 189.699 48.9844Z" fill="#282828"/>
<defs>
<filter id="filter0_f" x="0.83667" y="106.792" width="133.202" height="31.5945" filterUnits="userSpaceOnUse" color-interpolation-filters="sRGB">
<feFlood flood-opacity="0" result="BackgroundImageFix"/>
<feBlend mode="normal" in="SourceGraphic" in2="BackgroundImageFix" result="shape"/>
<feGaussianBlur stdDeviation="5" result="effect1_foregroundBlur"/>
</filter>
<filter id="filter1_f" x="25.7517" y="113.493" width="86.1737" height="12.9501" filterUnits="userSpaceOnUse" color-interpolation-filters="sRGB">
<feFlood flood-opacity="0" result="BackgroundImageFix"/>
<feBlend mode="normal" in="SourceGraphic" in2="BackgroundImageFix" result="shape"/>
<feGaussianBlur stdDeviation="2" result="effect1_foregroundBlur"/>
</filter>
<linearGradient id="paint0_linear" x1="67.4376" y1="116.792" x2="67.4376" y2="128.387" gradientUnits="userSpaceOnUse">
<stop stop-color="#B4B4B4"/>
<stop offset="1" stop-color="#F2F1EE"/>
</linearGradient>
<clipPath id="clip0">
<rect width="107.99" height="114.323" fill="white" transform="translate(10.8367 0.416016)"/>
</clipPath>
</defs>
</svg>
