<svg width="261" height="139" viewBox="0 0 261 139" fill="none" xmlns="http://www.w3.org/2000/svg">
<g opacity="0.7" filter="url(#filter0_f)">
<ellipse cx="67.4376" cy="122.5" rx="56.6009" ry="5.79727" fill="url(#paint0_linear)" fill-opacity="0.4"/>
</g>
<g filter="url(#filter1_f)">
<ellipse cx="68.8386" cy="119.879" rx="39.0869" ry="2.47506" fill="#F5F5F5"/>
</g>
<g clip-path="url(#clip0)">
<g opacity="0.8">
<path opacity="0.8" d="M115.288 27.8498C112.922 23.9505 110.125 20.329 106.95 17.0535L105.75 15.8405L104.494 14.6837C103.671 13.8957 102.767 13.1977 101.891 12.4631C101.451 12.1001 100.981 11.7736 100.525 11.4246L99.8345 10.9124L99.488 10.6562L99.1302 10.417C98.1725 9.78376 97.2232 9.12517 96.2119 8.56228C95.7161 8.28084 95.226 7.97687 94.7218 7.70106L93.195 6.92146L92.4288 6.52743L91.6457 6.16999L90.0738 5.45513C89.5443 5.22997 89.0062 5.02733 88.471 4.81343C87.9358 4.59953 87.4062 4.37719 86.8541 4.20269C85.7611 3.83963 84.6766 3.4456 83.5611 3.15571C79.1335 1.88406 74.5676 1.1554 69.9638 0.985769C65.2111 0.794355 60.4534 1.20955 55.806 2.22131L54.0679 2.61534L52.3496 3.08817L51.5045 3.3274L50.6594 3.60884L48.9693 4.17174L47.3045 4.81061L46.4594 5.13147C46.1777 5.24686 45.9129 5.37069 45.6425 5.4889L44.0087 6.2094C43.4735 6.46833 42.9439 6.73851 42.4087 7.00589L41.5974 7.38866C41.3326 7.52657 41.0763 7.67011 40.8171 7.82209L39.2594 8.70582C38.7495 9.01541 38.2481 9.34189 37.741 9.65993L36.9833 10.1412C36.7326 10.3044 36.4931 10.4817 36.2452 10.6534L34.7804 11.6891C34.3016 12.0466 33.834 12.4237 33.372 12.7896L32.6649 13.3525C32.4311 13.5382 32.2086 13.7409 31.9804 13.9351L30.6114 15.0834C30.1691 15.4858 29.741 15.9052 29.3043 16.3161L28.6536 16.9353C28.4367 17.1436 28.2367 17.3659 28.0283 17.5798L26.7888 18.8773C26.386 19.3191 26.0001 19.7751 25.6057 20.2254L25.017 20.9009C24.8198 21.126 24.6423 21.3652 24.4536 21.5988L23.3409 23.0061C22.9775 23.4789 22.6395 23.9714 22.2874 24.4527C21.9353 24.934 21.5832 25.4153 21.2677 25.9219L20.2902 27.4163C19.9662 27.9173 19.6817 28.438 19.3747 28.9474C18.7493 29.9606 18.2198 31.0273 17.662 32.0771C17.5183 32.3388 17.3803 32.6062 17.2676 32.8764L16.8902 33.6841L16.5268 34.5031C16.4 34.7846 16.2761 35.0407 16.1662 35.3193C15.724 36.4226 15.2423 37.5118 14.8733 38.6432C14.6789 39.2061 14.4732 39.769 14.2901 40.3319L13.7859 42.0431L13.5352 42.8874L13.3239 43.7543L12.9099 45.4936C12.7803 46.0762 12.6845 46.6644 12.5718 47.2498L12.4113 48.1307L12.3324 48.5726L12.2732 49.0173C12.1239 50.2022 11.9352 51.3842 11.8704 52.5804C11.8253 53.1771 11.7746 53.7737 11.738 54.3704L11.6929 56.166L11.6704 57.0638C11.6704 57.3621 11.6704 57.6633 11.6901 57.9616L11.738 59.7601C11.8602 62.1581 12.1359 64.5459 12.5634 66.9088L12.7239 67.7953L12.8028 68.2372L12.9042 68.6763L13.3099 70.4325C13.4338 71.0207 13.6197 71.592 13.7747 72.1718C13.9296 72.7516 14.0873 73.3426 14.2732 73.9055C14.6592 75.0313 15.0141 76.188 15.4733 77.2998C15.6958 77.8626 15.8958 78.4255 16.1409 78.9715L16.8733 80.6152C17.1071 81.1781 17.3888 81.6988 17.6564 82.2335C17.924 82.7683 18.1859 83.3086 18.4789 83.8349C19.0761 84.8763 19.6395 85.9373 20.3015 86.9308C21.5766 88.9651 22.9794 90.9166 24.5015 92.7736C25.2902 93.6799 26.0424 94.6171 26.8846 95.4727C27.2987 95.9061 27.7015 96.3508 28.1269 96.7758L29.4227 98.0254C29.848 98.4504 30.3015 98.8416 30.7551 99.2385C31.2086 99.6353 31.6537 100.035 32.1156 100.418L33.5241 101.543C33.7607 101.729 33.9917 101.921 34.234 102.106L34.9664 102.633C35.4565 102.982 35.941 103.339 36.434 103.682L37.9439 104.668L38.7016 105.157L39.4791 105.613L41.034 106.525L42.6312 107.369L43.4312 107.786C43.7129 107.918 43.9749 108.042 44.2481 108.169L45.8847 108.926C46.4481 109.165 47.0115 109.382 47.5552 109.61C48.6622 110.083 49.8087 110.454 50.9355 110.845C51.2172 110.949 51.4989 111.034 51.7975 111.127L52.6651 111.377C53.2454 111.538 53.8172 111.726 54.4031 111.861L56.1609 112.272C56.4426 112.337 56.7468 112.416 57.0426 112.466L57.9299 112.627L59.7074 112.942L61.499 113.167L62.4933 113.288C62.8257 113.325 63.1581 113.342 63.4933 113.367L65.4934 113.508L67.4962 113.547C67.8314 113.547 68.1638 113.564 68.499 113.547L69.5018 113.516C72.1741 113.449 74.8377 113.185 77.4709 112.725L79.4428 112.359C80.0935 112.216 80.7414 112.055 81.3921 111.904C81.716 111.825 82.0428 111.754 82.3639 111.664L83.3245 111.383L84.285 111.101C84.6062 111.008 84.9273 110.918 85.24 110.806L87.133 110.159C87.764 109.945 88.3752 109.677 88.9978 109.438L89.9273 109.069C90.2344 108.94 90.5358 108.788 90.84 108.661C91.4457 108.38 92.0598 108.121 92.6598 107.817C96.7997 105.812 100.685 103.32 104.232 100.392C107.726 97.4918 110.819 94.1394 113.429 90.4236C113.854 89.7875 113.528 90.0127 113.094 90.6487C110.544 94.1551 107.548 97.3142 104.181 100.046C103.773 100.404 103.336 100.722 102.899 101.051L101.618 102.05L100.271 102.97C99.8204 103.274 99.3809 103.59 98.9105 103.865C97.9838 104.428 97.0711 105.022 96.1133 105.529L94.7049 106.317L93.2513 107.043C92.2513 107.569 91.2034 107.997 90.1752 108.467C89.6597 108.703 89.1245 108.889 88.6006 109.103C88.0766 109.317 87.5499 109.531 87.0118 109.711C85.9358 110.066 84.871 110.471 83.7724 110.764L82.1329 111.236L80.4709 111.619C79.3695 111.901 78.2427 112.075 77.1244 112.292C76.8427 112.348 76.561 112.388 76.2794 112.424L75.4343 112.54C74.8709 112.61 74.3075 112.703 73.7441 112.753L72.054 112.894L71.2089 112.962L70.3638 112.99L68.6737 113.041C68.1103 113.041 67.5469 113.024 66.9835 113.018C64.6211 112.963 62.2644 112.761 59.9271 112.413L58.1863 112.103C57.606 111.996 57.0257 111.904 56.4538 111.76C55.3074 111.479 54.1552 111.242 53.0285 110.893C52.4651 110.724 51.9017 110.575 51.3383 110.392L49.6679 109.829L48.8228 109.548L48.0031 109.219L46.3186 108.523C44.1534 107.586 42.0471 106.518 40.0115 105.326C38.9805 104.763 38.0002 104.091 37.0086 103.452L36.6368 103.21L36.2762 102.951L35.5579 102.436L34.8368 101.935C34.5945 101.763 34.3579 101.591 34.1269 101.403C33.203 100.665 32.2621 99.9533 31.3861 99.1512C30.9438 98.7572 30.4874 98.3829 30.0621 97.9748L28.7832 96.7476C28.3494 96.3452 27.9381 95.9033 27.5438 95.4811C27.1494 95.059 26.724 94.6368 26.3353 94.1865C25.5719 93.2859 24.7747 92.4134 24.0818 91.4649C23.7212 90.9977 23.3522 90.5362 23.0029 90.0577L21.986 88.6111C21.8198 88.369 21.6423 88.1326 21.4846 87.8849L21.0113 87.1391C20.6986 86.6409 20.3775 86.1456 20.0705 85.6418C15.2252 77.5032 12.5404 68.2632 12.2704 58.7975C12.2704 58.2093 12.2394 57.6211 12.2338 57.0357L12.2817 55.2738L12.307 54.3929C12.3239 54.1115 12.3493 53.8075 12.3718 53.5148L12.5127 51.7614C12.5606 51.1788 12.6563 50.599 12.7268 50.0164L12.8423 49.1467C12.8789 48.8653 12.9183 48.567 12.9746 48.2799L13.2901 46.5546C13.3465 46.2732 13.3887 45.9917 13.4563 45.6934L13.6592 44.8491C14.6908 40.2765 16.3019 35.854 18.4536 31.6887C18.7353 31.1736 18.9859 30.6558 19.2648 30.1463L20.1465 28.6406L20.5888 27.8892L21.0648 27.1602L22.0198 25.7023C23.3459 23.7911 24.788 21.963 26.3381 20.2282C29.4326 16.7554 32.9501 13.6834 36.8086 11.084C37.2791 10.7435 37.7805 10.448 38.2706 10.1356C38.7608 9.82317 39.2481 9.50513 39.7551 9.21805C40.772 8.65516 41.7664 8.04443 42.8171 7.52938C44.8923 6.46435 47.0295 5.52451 49.2172 4.71492L50.8735 4.15203L51.7017 3.87059L52.5468 3.62573L54.2369 3.14164L55.9271 2.73636L56.7722 2.53654C57.0539 2.47181 57.3355 2.42677 57.6172 2.37048L59.3384 2.05526C59.9018 1.95676 60.4933 1.89484 61.068 1.81322C61.6426 1.7316 62.2201 1.64717 62.8032 1.61058L64.7356 1.45297C65.3807 1.40231 66.0286 1.40231 66.6737 1.37698L67.6427 1.34602C67.9666 1.34602 68.2906 1.34602 68.6117 1.34602L70.5525 1.37979L72.4878 1.50644L73.4568 1.57118L74.4202 1.68375L76.347 1.91454L78.2597 2.23539C78.578 2.29168 78.8991 2.33671 79.2146 2.40426L80.1639 2.61252C80.7949 2.75606 81.4315 2.89397 82.0569 3.04314C83.3048 3.39213 84.5639 3.70172 85.7836 4.13515L86.7048 4.44192C87.0118 4.54043 87.3189 4.64738 87.6203 4.7684L89.4316 5.47201C89.7358 5.58459 90.0316 5.71969 90.3245 5.85197L91.2119 6.2488C91.8034 6.51336 92.3978 6.7751 92.9668 7.09313L94.6992 7.98532L96.3894 8.96756C96.6711 9.13362 96.9528 9.29123 97.2344 9.46854L98.0457 10.0033L98.8542 10.538C99.1359 10.7153 99.395 10.8927 99.6514 11.1009L101.209 12.252C101.471 12.4406 101.719 12.6461 101.97 12.8515L102.716 13.4651L103.463 14.0786C103.711 14.2841 103.944 14.5064 104.184 14.7203L105.612 16.0206C107.46 17.8091 109.2 19.7056 110.823 21.7002C111.229 22.1983 111.609 22.719 112.004 23.2256L112.592 23.9911L113.156 24.782C113.522 25.3111 113.908 25.829 114.26 26.3694L115.311 27.9989C115.682 28.5506 115.657 28.438 115.288 27.8498Z" fill="#FF945C"/>
</g>
<g opacity="0.8">
<path opacity="0.8" d="M117.399 29.0486C113.396 21.8745 107.669 15.694 100.917 10.8925L99.3903 9.8596L98.627 9.34455L97.841 8.8661L96.2692 7.90918L94.6523 7.02826L93.8438 6.58638L93.0157 6.18392L91.3593 5.3818L89.6692 4.65848L88.8241 4.29823C88.5424 4.18002 88.2607 4.08433 87.9621 3.97457C83.3636 2.21831 78.5512 1.08252 73.6521 0.597221L71.8127 0.431169C71.1986 0.40021 70.5817 0.383321 69.9676 0.357991L69.0436 0.324219C68.7366 0.324219 68.4267 0.324219 68.1197 0.324219L66.2718 0.355178C63.8075 0.453383 61.3524 0.713817 58.9224 1.13478C57.7027 1.31772 56.5055 1.6048 55.3027 1.86936C55.0013 1.93127 54.7027 2.00726 54.4069 2.0917L53.5168 2.33374C52.9252 2.50261 52.3252 2.6377 51.7421 2.84034L49.9872 3.40323C49.7055 3.4933 49.4041 3.59743 49.1167 3.70719L48.2547 4.02804C47.0942 4.43333 45.973 4.9343 44.8435 5.41276C42.6025 6.40588 40.4239 7.53372 38.3195 8.79011C37.2518 9.39522 36.2434 10.0876 35.2208 10.7602C34.7082 11.0951 34.2237 11.4723 33.7251 11.8269C33.2265 12.1815 32.7251 12.5361 32.2546 12.9302L30.8208 14.0813C30.3419 14.464 29.8969 14.8862 29.4321 15.2887C28.4968 16.0824 27.6405 16.9774 26.7588 17.8217C25.0355 19.5783 23.4354 21.4515 21.97 23.4281C18.9671 27.4768 16.5288 31.9146 14.7221 36.6194C13.8292 38.9711 13.0887 41.3777 12.5052 43.8245C12.1812 45.0403 11.9784 46.2787 11.7362 47.5114L11.6488 47.973L11.584 48.4402L11.4517 49.3717L11.3193 50.3033C11.2742 50.6129 11.2291 50.9253 11.2066 51.2377C10.6519 56.2377 10.7466 61.2884 11.4883 66.2641C11.8487 68.7499 12.3757 71.2087 13.0657 73.6239C13.4432 74.8229 13.7925 76.0359 14.2517 77.2067L14.5784 78.0933C14.6855 78.3888 14.7953 78.6843 14.9249 78.9714L15.6658 80.7079C19.8386 89.9138 26.3669 97.8577 34.5927 103.739C35.0885 104.124 35.6208 104.456 36.1392 104.811L36.9195 105.337C37.1786 105.515 37.4406 105.689 37.711 105.847C38.7843 106.497 39.8491 107.167 40.9674 107.744L41.7955 108.194L42.2096 108.419L42.635 108.624L44.3251 109.444L44.7505 109.649L45.1843 109.832L46.0519 110.198L46.9195 110.564L47.3533 110.747L47.7956 110.91C55.1642 113.732 63.0411 114.985 70.9225 114.591C71.6296 114.546 72.331 114.51 73.0465 114.459L75.162 114.225C75.869 114.163 76.5705 114.023 77.2662 113.916L78.3169 113.747C78.6662 113.693 79.0127 113.606 79.3592 113.536C82.1377 112.98 84.8689 112.211 87.5283 111.233C88.1903 110.98 88.8607 110.755 89.5001 110.476L91.4523 109.632C92.1001 109.351 92.7283 109.021 93.3678 108.715C93.6833 108.557 94.0072 108.411 94.3199 108.242L95.2495 107.732C96.503 107.077 97.6974 106.325 98.9115 105.579C100.08 104.783 101.264 104.009 102.373 103.136C102.937 102.711 103.5 102.292 104.038 101.828C104.576 101.363 105.128 100.93 105.658 100.463L107.216 99.03C107.481 98.7964 107.726 98.5431 107.974 98.2926L108.717 97.5383C110.695 95.5235 112.515 93.3594 114.159 91.0651C114.365 90.7836 114.585 90.5022 114.779 90.2208L115.365 89.3398L115.948 88.4589C116.044 88.3126 116.145 88.1775 116.23 88.0171L116.512 87.5639L117.593 85.7486C117.931 85.1294 118.258 84.5046 118.588 83.8854C118.948 83.2043 118.841 83.2071 118.478 83.8854L117.605 85.5206C117.295 86.0554 116.971 86.5817 116.652 87.1136L116.174 87.9073C116.01 88.169 115.83 88.4223 115.661 88.6784L114.624 90.2151C114.261 90.7161 113.886 91.2058 113.517 91.7012L112.954 92.4414C112.762 92.6834 112.562 92.9198 112.365 93.1563L111.179 94.5832L109.928 95.951L109.303 96.6349L108.647 97.2879L107.328 98.591L105.954 99.8321C105.723 100.038 105.497 100.249 105.264 100.448L104.548 101.037C104.069 101.425 103.596 101.825 103.111 102.205L101.627 103.311C101.376 103.491 101.137 103.685 100.881 103.857L100.114 104.375C99.6016 104.715 99.0974 105.073 98.5763 105.402C94.4069 108.058 89.9151 110.172 85.21 111.692L84.3283 111.974L83.886 112.114L83.4381 112.235L81.6465 112.717L81.1987 112.838L80.7451 112.936L79.8381 113.133L78.931 113.327L78.4775 113.426L78.0212 113.502L76.1902 113.8L75.7338 113.873L75.2718 113.927L74.3507 114.031L73.4296 114.132C73.1225 114.169 72.8155 114.2 72.5056 114.214L70.6549 114.324C70.038 114.374 69.4183 114.358 68.8014 114.369C68.1845 114.38 67.5648 114.394 66.9478 114.369C65.714 114.307 64.4746 114.298 63.2464 114.155L61.4013 113.978L59.5675 113.713L58.652 113.581C58.3478 113.53 58.0464 113.465 57.7421 113.406L55.9252 113.049C53.5126 112.514 51.1368 111.825 48.8125 110.986C37.0833 106.795 27.0771 98.8343 20.3616 88.352C19.0489 86.2983 17.8627 84.1666 16.8094 81.9688C16.2461 80.8824 15.7953 79.7454 15.2996 78.628C15.0629 78.0651 14.8601 77.4854 14.6404 76.9168C14.4207 76.3483 14.201 75.7742 14.0235 75.1888L13.4601 73.4438C13.2798 72.8584 13.1333 72.2645 12.97 71.6735C12.6235 70.4971 12.4066 69.2925 12.1249 68.0991C11.6576 65.6945 11.3537 63.261 11.215 60.8153C11.1164 59.5939 11.1305 58.3696 11.1192 57.1565C11.1023 56.5458 11.1559 55.9351 11.1728 55.3243C11.1897 54.7136 11.2122 54.1028 11.2685 53.4921L11.4432 51.6683C11.477 51.3644 11.4939 51.0604 11.539 50.7565L11.6714 49.8502L11.9531 48.0377L12.3108 46.2421C13.295 41.4519 14.8902 36.8077 17.0573 32.4231C17.3108 31.8602 17.6207 31.3283 17.9024 30.7879C18.1841 30.2475 18.4658 29.7043 18.7841 29.1752C19.4264 28.131 20.0235 27.0587 20.7306 26.0568C21.0771 25.5502 21.4067 25.0351 21.7644 24.537L22.863 23.065C23.2207 22.5669 23.6123 22.0969 24.0039 21.6268C24.3954 21.1568 24.7757 20.6756 25.1813 20.2196C28.4112 16.5304 32.1037 13.2725 36.1673 10.5266C38.1792 9.14853 40.2753 7.89741 42.4434 6.78058C43.5392 6.24584 44.6266 5.69138 45.7561 5.22981L46.6012 4.86676C46.8829 4.74292 47.1646 4.62471 47.4463 4.52339L49.159 3.87888C49.7224 3.65091 50.3139 3.48766 50.8942 3.29347L51.7646 3.01202C52.0463 2.91633 52.3449 2.82345 52.6407 2.75028C53.821 2.43506 54.9956 2.0917 56.1957 1.8581C58.5903 1.32915 61.0171 0.957778 63.4605 0.746387L65.483 0.616925L65.9873 0.585965H66.4943H67.5056C68.8549 0.540934 70.2014 0.62818 71.5507 0.676026C72.2239 0.718243 72.8944 0.791417 73.5648 0.850521L74.5704 0.943398L75.5704 1.08412L77.5705 1.36557L79.5423 1.75396C79.8719 1.82151 80.2043 1.87498 80.5311 1.9566L81.5113 2.20146C82.1649 2.37033 82.824 2.51386 83.4691 2.70525L85.4043 3.29347L85.8888 3.43982L86.3649 3.60869L87.317 3.95206C88.5959 4.38267 89.8297 4.9343 91.0776 5.45216C91.6917 5.7336 92.2973 6.03193 92.9086 6.31901C93.2128 6.46536 93.5199 6.60045 93.8213 6.76088L94.7143 7.24216C99.3653 9.71639 103.651 12.8221 107.45 16.4708C109.336 18.3067 111.098 20.2652 112.726 22.3333C113.495 23.3915 114.3 24.4132 114.979 25.508L115.512 26.3157C115.689 26.5972 115.869 26.8533 116.027 27.1319L117.002 28.7868C117.173 29.1116 117.376 29.4188 117.607 29.7043C117.723 29.7634 117.675 29.5749 117.399 29.0486Z" fill="#FF945C"/>
</g>
<path d="M117.987 33.0656L117.274 31.633C117.021 31.163 116.756 30.7014 116.497 30.2258C115.992 29.2829 115.409 28.3879 114.843 27.4817C114.561 27.0229 114.254 26.5895 113.95 26.1505L113.032 24.8333L112.054 23.5612C111.725 23.139 111.409 22.7168 111.054 22.3059C108.319 19.0109 105.226 16.03 101.832 13.4178C98.4302 10.8308 94.7444 8.64016 90.8457 6.88831C90.3668 6.6519 89.8626 6.46615 89.3696 6.2635L87.8823 5.66121L86.3668 5.1321C85.8597 4.96323 85.3611 4.7634 84.8428 4.62549L83.302 4.17517C83.0456 4.102 82.7893 4.02039 82.5301 3.95284L81.7498 3.76708L80.1893 3.4012C79.6681 3.27173 79.1386 3.19575 78.6118 3.09162C74.3979 2.29511 70.1095 1.96102 65.823 2.0953C61.5327 2.26226 57.2775 2.93777 53.1468 4.10763L52.3693 4.32153L51.6031 4.57201L50.0707 5.07299C49.5581 5.23623 49.0623 5.44731 48.558 5.63588C48.0538 5.82445 47.5496 6.01021 47.0538 6.22129C45.0666 7.04849 43.1283 7.98817 41.2481 9.03575C40.7805 9.30312 40.3016 9.54797 39.8397 9.83223L38.4678 10.6766L37.7833 11.1044L37.1185 11.5631L35.7889 12.4806C35.3467 12.7874 34.9298 13.128 34.4988 13.4516C34.0678 13.7753 33.634 14.0961 33.2255 14.4451L31.9917 15.4893C31.7861 15.6638 31.5776 15.8355 31.3776 16.0128L30.7861 16.5757L29.6058 17.6789C29.217 18.0533 28.8508 18.4473 28.479 18.8329L27.9156 19.4126C27.7269 19.604 27.541 19.801 27.3663 20.0065L26.2987 21.2195C26.1241 21.425 25.9381 21.6192 25.7691 21.8303L25.2593 22.4494L24.2508 23.7131C23.9269 24.1437 23.617 24.5856 23.3015 25.0219C22.986 25.4581 22.6564 25.8859 22.3747 26.3447C19.9785 29.9318 17.9942 33.7771 16.4592 37.8079C14.9582 41.8255 13.9407 46.0071 13.4282 50.2647C12.3511 58.7951 13.2375 67.4586 16.0198 75.5948C17.4031 79.6502 19.2701 83.5245 21.5804 87.1341C22.7314 88.9383 23.9842 90.6758 25.3325 92.338L26.3776 93.5539C26.7297 93.9563 27.0649 94.3729 27.4396 94.7528C28.1804 95.5212 28.8931 96.3205 29.6931 97.041L30.8508 98.1471L32.0565 99.1997C32.8481 99.9174 33.7016 100.559 34.5354 101.223C34.9467 101.561 35.3805 101.865 35.8199 102.175L37.1213 103.103L38.465 103.973C38.9157 104.254 39.3523 104.564 39.8199 104.817C43.4808 107 47.383 108.752 51.4482 110.035C55.5086 111.306 59.7011 112.109 63.9441 112.428C68.1973 112.767 72.475 112.635 76.6991 112.034C80.9191 111.401 85.0505 110.276 89.0091 108.684C92.9577 107.093 96.7093 105.051 100.189 102.6C101.932 101.381 103.605 100.065 105.201 98.6593C105.598 98.3047 105.978 97.9332 106.367 97.5729C106.756 97.2127 107.156 96.858 107.516 96.4668C108.249 95.6957 109.015 94.9583 109.697 94.1421C110.24 93.5229 110.02 93.4244 109.48 94.0408L108.956 94.6374C108.778 94.8344 108.589 95.0202 108.406 95.2003L107.302 96.3402C106.939 96.7258 106.536 97.0719 106.156 97.4378C105.775 97.8037 105.389 98.1696 104.992 98.5186C103.401 99.9207 101.732 101.232 99.9922 102.445C96.5241 104.888 92.7799 106.914 88.8372 108.482C80.9343 111.657 72.3931 112.925 63.9075 112.183C61.7944 112.009 59.6926 111.719 57.6116 111.313L57.2201 111.243L56.8313 111.153L56.0567 110.975L54.5074 110.618L52.9778 110.184C52.4708 110.033 51.9524 109.903 51.4538 109.731C47.4075 108.431 43.526 106.666 39.8875 104.471C36.2522 102.265 32.8754 99.6595 29.8199 96.7032L29.2565 96.1404C29.0677 95.9546 28.8875 95.7576 28.6931 95.5775L27.5945 94.4235C27.2227 94.0436 26.8931 93.6242 26.541 93.2274C26.1888 92.8306 25.8396 92.4281 25.5072 92.0144C24.1667 90.3616 22.926 88.6304 21.7916 86.8301C17.2113 79.642 14.4817 71.3506 13.6226 62.9073C13.2289 58.6742 13.3414 54.4093 13.9578 50.2028C15.1737 41.7676 18.2528 33.7083 22.9719 26.6092C25.3476 23.069 28.1362 19.8237 31.279 16.9416C36.0043 12.6032 41.4339 9.0999 47.3355 6.58154C47.8285 6.3789 48.3299 6.19033 48.8256 5.99613C49.3214 5.80193 49.8144 5.59366 50.3242 5.43324C51.3412 5.10676 52.3412 4.73244 53.3778 4.4707C57.4861 3.30894 61.7173 2.63538 65.9835 2.46399C70.2457 2.31556 74.5111 2.63932 78.7019 3.42935C87.0795 4.96604 95.0091 8.5995 101.784 13.719C105.155 16.3099 108.221 19.2736 110.925 22.5536C111.277 22.9504 111.584 23.3979 111.911 23.8032C112.237 24.2085 112.561 24.6475 112.877 25.0669L113.787 26.3728L114.24 27.0257C114.392 27.2425 114.522 27.4732 114.668 27.6956L115.513 29.0437L115.725 29.3814L115.919 29.7276L116.311 30.42C116.567 30.8844 116.837 31.3403 117.085 31.8103L117.801 33.2316L118.161 33.9409C118.28 34.1688 118.483 34.0112 117.987 33.0656Z" fill="#FF945C"/>
<path d="M114.347 83.1391C112.41 86.4968 110.164 89.6665 107.637 92.6069C105.085 95.5746 102.2 98.2387 99.0373 100.546L98.7021 100.797L98.3528 101.031L97.6542 101.487L96.9585 101.954C96.7275 102.111 96.4937 102.266 96.2542 102.407C95.2965 102.97 94.3528 103.58 93.3584 104.096C91.3992 105.161 89.3745 106.101 87.2964 106.91C86.2457 107.287 85.2119 107.704 84.1386 108.013C83.6062 108.176 83.0767 108.357 82.5414 108.503L80.9217 108.925C80.64 108.993 80.3837 109.074 80.1104 109.128L79.2907 109.299C78.7442 109.412 78.2006 109.533 77.6513 109.637L75.9977 109.896L75.1696 110.026L74.3245 110.116C73.7217 110.178 73.1188 110.251 72.516 110.307L70.6991 110.411C70.0935 110.459 69.4878 110.456 68.8822 110.462C68.2765 110.467 67.6681 110.49 67.0625 110.462C65.8512 110.408 64.6371 110.386 63.4314 110.248L62.5244 110.166L62.0709 110.124L61.6202 110.059L59.8173 109.803C57.42 109.418 55.052 108.869 52.73 108.16C51.5609 107.836 50.4285 107.397 49.2848 106.994C48.7215 106.789 48.1581 106.536 47.5947 106.308C47.0313 106.08 46.4679 105.849 45.9299 105.576L44.2904 104.791C43.7552 104.509 43.2257 104.228 42.6961 103.927L41.9017 103.49L41.1299 103.015C40.6172 102.694 40.0989 102.387 39.5918 102.058C38.6031 101.365 37.589 100.713 36.6481 99.9554L35.9298 99.3926L35.5721 99.1111L35.2256 98.8297L33.8481 97.6617C30.237 94.4655 27.0708 90.8004 24.434 86.7641L23.9297 86.0042C23.7607 85.7509 23.6142 85.4835 23.4565 85.2246L22.5213 83.6597C21.9579 82.5846 21.3438 81.532 20.8311 80.4203L20.4705 79.6266L20.2734 79.2157L20.0959 78.7964L19.3832 77.1077C19.1522 76.5448 18.9579 75.9678 18.741 75.3993L18.4226 74.555L18.1409 73.6853C17.3864 71.3646 16.8008 68.9924 16.3888 66.5873L16.1071 64.786C16.0254 64.1837 15.9719 63.5786 15.9043 62.9763L15.8085 62.0729L15.7578 61.1638C15.7269 60.5587 15.6846 59.9536 15.6649 59.3485C15.6649 58.1354 15.6226 56.9224 15.7043 55.7094L15.7437 54.8003C15.7437 54.4963 15.7635 54.1952 15.8001 53.8941L15.9691 52.0815L16.0114 51.6284L16.0762 51.1781L16.2057 50.2775L16.3353 49.3769L16.4001 48.9265L16.4874 48.479L16.8367 46.6919C16.8677 46.5427 16.8931 46.3935 16.9269 46.2444L17.0367 45.8025L17.2564 44.9188C18.4226 40.2017 20.243 35.6706 22.6649 31.4572C23.3044 30.4271 23.9044 29.3717 24.6142 28.3894L25.1297 27.6408L25.3861 27.2665L25.6678 26.9034L26.772 25.4596C27.1382 24.9783 27.5495 24.5308 27.9354 24.0524L28.5213 23.36C28.7185 23.1292 28.9326 22.9153 29.1382 22.693L30.3805 21.3702L31.6847 20.1093C33.4406 18.4452 35.3099 16.9049 37.2791 15.4992L38.0115 14.9645L38.7665 14.4635C39.2735 14.1342 39.7721 13.7909 40.282 13.47C41.3242 12.8565 42.3468 12.2091 43.4228 11.6575C51.991 7.0258 61.6803 4.86822 71.4062 5.4263C75.0326 5.62905 78.6307 6.18329 82.1499 7.0812C85.6765 7.97493 89.0942 9.25284 92.3415 10.892C98.8799 14.1696 104.664 18.7701 109.328 24.4014C111.661 27.2576 113.672 30.3619 115.325 33.6581C116.978 36.9623 111.643 25.9043 104.584 19.2368L103.237 18.0125C103.018 17.8043 102.784 17.6101 102.547 17.4215L101.843 16.8586C100.922 16.0678 99.9219 15.381 98.9557 14.6549C98.4571 14.3144 97.9472 13.9851 97.443 13.6501L96.6852 13.152L95.9049 12.6904C95.381 12.3864 94.8683 12.0656 94.3387 11.7757L92.7331 10.9314C92.2035 10.6499 91.6486 10.3994 91.1021 10.1433L90.2795 9.76056C89.9978 9.63109 89.733 9.50444 89.4485 9.39749L87.7584 8.7164L87.3387 8.54753L86.9105 8.39836L86.0654 8.10003C84.9386 7.67505 83.7668 7.35982 82.6119 7.01365C82.3302 6.92077 82.0288 6.85604 81.7358 6.78287L80.8541 6.56897C80.2654 6.43106 79.6851 6.265 79.0879 6.16368C67.2913 3.65227 54.9898 5.24677 44.225 10.6825C33.4603 16.1183 24.8797 25.0684 19.9072 36.0476L19.2086 37.7109C19.0931 37.9924 18.9719 38.2738 18.8621 38.5553L18.555 39.3996C18.3522 39.9625 18.1381 40.5254 17.9438 41.0883L17.4142 42.8135C17.3297 43.095 17.2311 43.3764 17.155 43.6776L16.9353 44.5529C16.7917 45.1383 16.6339 45.7181 16.4987 46.3063L16.1466 48.0766C16.0902 48.358 16.0226 48.6648 15.9747 48.9631L15.8423 49.8553C14.3188 59.4359 15.482 69.2509 19.2029 78.211C22.974 87.1889 29.146 94.9563 37.0425 100.662C38.9953 102.084 41.0443 103.37 43.1749 104.509L43.9721 104.943C44.2369 105.086 44.5158 105.207 44.7862 105.342L46.42 106.128L48.0764 106.834L48.9215 107.186L49.7665 107.495L51.4736 108.112L53.2116 108.644L54.0821 108.908L54.9638 109.128L56.7272 109.57L58.499 109.93L59.392 110.104L60.2906 110.234L62.0906 110.49L63.899 110.656C66.4686 110.873 69.0512 110.888 71.6231 110.701L72.5864 110.639L73.5442 110.532C74.1808 110.453 74.8203 110.397 75.4569 110.301L77.3555 109.986L77.8287 109.905L78.2992 109.803L79.24 109.601L80.1809 109.398C80.4935 109.328 80.8006 109.235 81.1105 109.153C81.7274 108.981 82.3499 108.829 82.964 108.646L84.795 108.058L85.2513 107.912L85.702 107.743L86.6035 107.405L87.5049 107.068C87.8035 106.952 88.0964 106.817 88.3922 106.693C88.9809 106.434 89.5753 106.195 90.1556 105.925L91.888 105.081C92.1697 104.945 92.4514 104.799 92.7331 104.636L93.5782 104.174L94.3782 103.738C94.6429 103.592 94.8993 103.426 95.1584 103.268L96.7162 102.314C97.719 101.622 98.7528 100.966 99.7162 100.206L100.451 99.643L100.818 99.3616L101.173 99.0802L102.581 97.9065C103.049 97.5097 103.491 97.0847 103.947 96.6738L104.629 96.0546L105.28 95.4045C107.025 93.6885 108.652 91.8568 110.15 89.9219L111.254 88.4668C111.609 87.9743 111.944 87.4677 112.291 86.9695L112.809 86.2209L113.288 85.4497C113.606 84.9347 113.933 84.4281 114.246 83.913C114.868 82.8379 114.953 82.0865 114.347 83.1391Z" fill="#FF945C"/>
<g opacity="0.6">
<path opacity="0.6" d="M114.767 35.4907L114.128 34.1595L113.423 32.8564C109.754 26.0163 104.567 20.1054 98.2599 15.5756C91.8035 11.0162 84.271 8.16515 76.809 6.92116C72.7159 6.23225 68.5579 6.00943 64.4145 6.25695C63.8962 6.27102 63.3807 6.33012 62.8652 6.38078L61.3159 6.53276L59.7779 6.76355C59.2652 6.83954 58.7497 6.9099 58.2427 7.02529L56.713 7.33489C56.4567 7.38273 56.2032 7.44184 55.9525 7.5122L55.1947 7.7064C54.6933 7.84149 54.1806 7.95125 53.6849 8.10886L52.1919 8.57606C51.944 8.65768 51.6905 8.72523 51.4454 8.81529L50.7102 9.09674L49.2369 9.64555L47.7947 10.245L47.0707 10.5574C46.8285 10.6616 46.5975 10.7854 46.3609 10.9008L44.9524 11.5988C44.4791 11.8324 44.0284 12.1054 43.5665 12.3559L42.8763 12.7386L42.5327 12.93L42.1975 13.1383L40.8566 13.9826C40.4031 14.25 39.9805 14.5652 39.5439 14.8579C39.1073 15.1506 38.6735 15.4461 38.2509 15.7586L36.9974 16.7127L36.3721 17.1911L35.7692 17.6977L34.5551 18.694L33.3946 19.7523C32.6058 20.439 31.8903 21.2045 31.141 21.9307C30.9523 22.1108 30.7748 22.3022 30.6002 22.4935L30.0734 23.0705C29.7269 23.4589 29.3607 23.8304 29.0283 24.2329L28.0311 25.4375C27.8678 25.6401 27.6959 25.8343 27.5354 26.0426L27.0677 26.6674L26.1297 27.917C25.8311 28.3448 25.5466 28.781 25.2536 29.2117C24.6508 30.056 24.1269 30.9707 23.5917 31.8601C23.31 32.2991 23.0818 32.7691 22.8283 33.2251L22.0902 34.6042L21.4198 36.0114C21.1945 36.4814 20.9663 36.9514 20.7747 37.4383C20.3776 38.4037 19.9578 39.3606 19.6283 40.3569L19.1043 41.8373L18.6536 43.343C18.0694 45.3288 17.5992 47.3463 17.2451 49.3857C17.1578 49.8951 17.0987 50.4101 17.0226 50.9224L16.9156 51.6907C16.8761 51.9468 16.8423 52.203 16.8254 52.4619L16.6902 54.0098C16.6677 54.2688 16.6395 54.5249 16.6254 54.7838L16.5972 55.5606L16.5381 57.117C16.5381 57.6349 16.5381 58.1555 16.5381 58.6734V59.453V59.8414L16.5634 60.2298L16.6592 61.7862C16.6789 62.3069 16.7437 62.8219 16.8029 63.3398L16.9747 64.8905L17.2254 66.4328C17.3071 66.9479 17.3832 67.4629 17.5071 67.9695L17.8311 69.4922C17.8789 69.7483 17.9437 69.9988 18.0113 70.2492L18.2113 71.0007C18.3494 71.5017 18.4649 72.0083 18.6198 72.5036L19.0902 73.9897C19.1691 74.2373 19.2423 74.485 19.3297 74.7327L19.6114 75.4644L20.155 76.9279C20.3522 77.4092 20.5635 77.8849 20.7635 78.3633C20.9635 78.8418 21.1607 79.3259 21.4001 79.7874C21.8564 80.7218 22.2931 81.6675 22.8086 82.5737C23.0621 83.0297 23.2987 83.4941 23.5663 83.9416L24.3804 85.2756C24.5184 85.498 24.6621 85.7231 24.7889 85.9427L25.2283 86.59L26.1044 87.8931L27.0396 89.1483C27.3523 89.5649 27.6565 89.9927 27.9973 90.3867L28.9889 91.5941L29.2368 91.8952L29.4988 92.1767L30.0199 92.7564C30.372 93.1392 30.7044 93.5389 31.0678 93.9132L32.1608 95.039L32.7072 95.6019L33.2706 96.131L34.4115 97.1948C34.8002 97.541 35.203 97.8675 35.6002 98.208C35.9974 98.5486 36.3861 98.8948 36.8059 99.2016C40.0877 101.8 43.6842 103.975 47.5102 105.675C55.2173 108.996 63.7554 110.549 72.1244 109.919C73.1752 109.871 74.2146 109.725 75.2597 109.607C75.7836 109.559 76.2991 109.455 76.8174 109.37C77.3358 109.286 77.8541 109.201 78.3724 109.106L79.9132 108.768L80.6851 108.602C80.9414 108.54 81.1921 108.467 81.4485 108.399L83.0062 107.96C83.5133 107.819 84.0091 107.642 84.5105 107.487C86.5095 106.84 88.4687 106.076 90.3781 105.199L91.7866 104.504L92.4936 104.158C92.7246 104.037 92.9528 103.905 93.1838 103.781L94.5584 103.021C95.0148 102.765 95.4514 102.475 95.8993 102.205C97.6801 101.102 99.3948 99.8964 101.035 98.5936L102.24 97.5832L102.843 97.0795L103.423 96.5475L104.578 95.4808C104.959 95.1206 105.316 94.735 105.685 94.3551C108.624 91.3806 111.174 88.0462 113.274 84.4313C113.502 84.0547 113.705 83.6636 113.883 83.2605C113.981 82.979 113.99 82.8524 113.933 82.8468C113.877 82.8411 113.756 82.9734 113.556 83.2239C113.278 83.5928 113.023 83.9781 112.792 84.3778C110.506 88.2007 107.745 91.7194 104.575 94.8504C102.982 96.4102 101.288 97.8646 99.5049 99.2044C98.6345 99.8995 97.6908 100.499 96.7782 101.138C96.3134 101.445 95.8317 101.726 95.3697 102.022C94.9077 102.317 94.4232 102.61 93.9274 102.866L92.457 103.671C91.9612 103.927 91.4542 104.163 90.9528 104.408L90.2006 104.774C89.9499 104.895 89.688 104.997 89.4316 105.109L87.8908 105.768C87.3696 105.97 86.8457 106.159 86.3217 106.356L85.5358 106.637C85.2738 106.73 85.0034 106.809 84.7386 106.893L83.1414 107.4L81.5245 107.831L80.7161 108.045C80.4344 108.109 80.1696 108.163 79.8991 108.222L78.2625 108.571L76.6118 108.852L75.7864 108.987C75.5048 109.027 75.2231 109.052 74.9554 109.086L73.2935 109.274C72.7301 109.32 72.1808 109.348 71.6258 109.387L70.7808 109.441C70.4991 109.46 70.2174 109.441 69.9357 109.46L68.2653 109.486C63.8175 109.444 59.3933 108.837 55.099 107.679C50.8114 106.484 46.6881 104.765 42.8228 102.559C38.9525 100.342 35.3769 97.6474 32.1805 94.538C30.5788 92.9835 29.0816 91.325 27.6987 89.5733C27.0311 88.6811 26.3353 87.8086 25.7269 86.8742C25.4198 86.4099 25.0875 85.9624 24.8001 85.4839L23.9325 84.0373C23.6311 83.5673 23.3889 83.0691 23.1184 82.5822L22.7241 81.8476C22.5917 81.6056 22.4593 81.3607 22.3466 81.1074C21.8733 80.1055 21.3832 79.112 20.9832 78.0791C20.1397 76.0419 19.433 73.9508 18.8677 71.8197C17.748 67.5662 17.1511 63.1922 17.0902 58.7944C17.0902 58.2315 17.0677 57.6911 17.0902 57.1423L17.155 55.4902C17.155 55.2088 17.1719 54.9273 17.1888 54.6656L17.262 53.8438L17.4057 52.1973C17.9315 47.8178 18.992 43.5191 20.5635 39.3972L21.1945 37.8717L21.51 37.109L21.8649 36.3632L22.5691 34.8715C22.8227 34.3846 23.0874 33.9034 23.3466 33.4165C25.4493 29.5409 28.0352 25.9473 31.0424 22.7215C32.5514 21.1112 34.1643 19.6013 35.8706 18.2015C36.7157 17.4782 37.6087 16.8449 38.4876 16.1807C38.9326 15.8542 39.3974 15.5615 39.8509 15.2491C40.3045 14.9367 40.7608 14.6271 41.2369 14.3541L42.6453 13.5098C43.1214 13.2284 43.6115 12.9863 44.0932 12.7246C45.0482 12.1814 46.0651 11.7508 47.0426 11.2695C47.5412 11.0443 48.0538 10.8445 48.5552 10.6306L49.313 10.3154C49.5637 10.2084 49.8257 10.1268 50.082 10.0339L51.6257 9.47106C52.144 9.29656 52.6708 9.14739 53.1919 8.98415C57.3793 7.72251 61.7093 6.99344 66.0793 6.81421C68.2645 6.72748 70.453 6.78012 72.6315 6.97182C74.8091 7.16053 76.9729 7.48387 79.1104 7.93999C83.394 8.87891 87.5421 10.3531 91.457 12.3277C92.4119 12.854 93.3978 13.3297 94.3218 13.9123C94.7894 14.1937 95.2655 14.4752 95.7303 14.7566L97.0993 15.6629C97.3275 15.8148 97.5613 15.9443 97.781 16.1188L98.443 16.6057C98.8824 16.9322 99.3331 17.2474 99.7697 17.5795L101.049 18.6124C101.26 18.7869 101.48 18.953 101.685 19.1331L102.299 19.6819C102.708 20.0478 104.46 21.6886 105.285 22.5161C106.526 23.7483 107.68 25.0648 108.739 26.4563C109.618 27.5821 110.919 29.5888 110.919 29.5888C111.235 30.0363 111.511 30.5063 111.792 30.9735C112.074 31.4407 112.356 31.9023 112.637 32.3807C113.15 33.3461 113.702 34.2889 114.153 35.2824C115.136 37.2244 115.218 36.366 114.767 35.4907Z" fill="#FF945C"/>
</g>
<g opacity="0.7">
<path opacity="0.7" d="M117.331 81.0061C115.555 84.8259 113.333 88.4224 110.711 91.7207C108.062 95.0494 105.019 98.0451 101.649 100.643C100.823 101.315 99.9389 101.909 99.0713 102.528C98.6431 102.846 98.1839 103.116 97.7389 103.406L96.3896 104.251C94.5625 105.342 92.676 106.33 90.7388 107.211C82.9627 110.786 74.444 112.452 65.8929 112.069C57.3418 111.687 49.0061 109.268 41.5807 105.013C37.8949 102.917 34.4734 100.388 31.389 97.4791C28.3297 94.5611 25.598 91.3185 23.2425 87.8086C20.8992 84.2809 18.9629 80.4995 17.4706 76.5367C17.2678 76.047 17.1129 75.5432 16.941 75.0422L16.4368 73.5393L16.0086 72.0139C15.8678 71.5045 15.71 71.0007 15.6058 70.4828C15.3776 69.4527 15.1129 68.4283 14.9523 67.3869L14.6706 65.8277L14.4734 64.2572C14.3128 63.1681 14.2593 62.0676 14.1692 60.97C14.1129 60.4211 14.1213 59.8695 14.1016 59.3179C14.0819 58.7662 14.065 58.2174 14.0593 57.6658C14.0669 55.4589 14.2023 53.2543 14.465 51.0631C14.5354 50.5171 14.5945 49.9683 14.6706 49.4194L14.9523 47.7899C15.1157 46.6979 15.3974 45.6284 15.634 44.5532C15.7439 44.0129 15.9157 43.4866 16.0594 42.9546L16.5129 41.3645L17.0425 39.7996C17.2171 39.2789 17.3918 38.7555 17.6058 38.2489L18.2171 36.7262C18.3157 36.4701 18.4256 36.2168 18.5439 35.9691L18.8875 35.2205C19.1213 34.7223 19.3354 34.2157 19.5889 33.7288L20.3523 32.2709C20.4819 32.0289 20.603 31.784 20.7354 31.542L21.1523 30.8328L21.9974 29.4255C22.2791 28.9611 22.5974 28.508 22.8988 28.0493C23.2002 27.5905 23.4904 27.1261 23.8256 26.6899C24.4735 25.8061 25.1045 24.9083 25.8115 24.0696C26.1608 23.6474 26.4904 23.2084 26.8538 22.7975L27.9468 21.5676C28.1299 21.3649 28.3073 21.1538 28.4961 20.9568L29.0594 20.3686L30.2088 19.1922L31.4116 18.0664C31.8116 17.6892 32.2088 17.3121 32.6341 16.9659C35.9476 14.0604 39.5903 11.5525 43.4877 9.49355L44.9582 8.73083L46.4624 8.04129C47.4568 7.55721 48.4962 7.19695 49.5188 6.76915C50.0314 6.5637 50.5582 6.40609 51.0793 6.22034L51.8624 5.95296C52.1216 5.86008 52.3836 5.77565 52.6512 5.70529C53.7132 5.42384 54.7639 5.07766 55.8428 4.86095C60.0353 3.8836 64.3368 3.45316 68.64 3.58038C72.9084 3.71204 77.15 4.30464 81.2908 5.34785C81.5528 5.40414 81.812 5.47451 82.0683 5.5505L82.843 5.77002C83.3585 5.91919 83.8768 6.05147 84.3895 6.21189L85.9162 6.72131L86.6796 6.97461C86.936 7.05904 87.181 7.16599 87.4317 7.25606L88.936 7.83583L89.3134 7.98218L89.6825 8.14543L90.4205 8.4719C90.9106 8.69425 91.4092 8.89688 91.8937 9.13329L93.336 9.85661C97.1796 11.8086 100.758 14.2431 103.984 17.101C104.807 17.7878 105.55 18.5617 106.325 19.2963C106.522 19.4792 106.705 19.6734 106.888 19.8592L107.438 20.4446C107.798 20.8386 108.178 21.2158 108.528 21.6239L109.567 22.8453C109.739 23.0508 109.916 23.2506 110.085 23.4589L110.576 24.0949L111.559 25.3643C111.871 25.7977 112.173 26.2396 112.483 26.6758C113.116 27.5398 113.663 28.4602 114.243 29.3608C114.716 30.1629 114.925 31.6799 112.742 28.3054C112.485 27.872 112.178 27.461 111.897 27.0586L111.035 25.8202L110.102 24.6522C109.795 24.2554 109.5 23.8473 109.164 23.4701C108.508 22.7102 107.883 21.9222 107.178 21.2045L106.147 20.1069C105.792 19.7522 105.426 19.4089 105.066 19.0627C102.17 16.2908 98.9553 13.8731 95.4881 11.8605C92.0253 9.85039 88.3599 8.21081 84.5528 6.96898C80.7601 5.71257 76.8408 4.87542 72.8654 4.47255C68.8872 4.06641 64.8751 4.12498 60.9104 4.64706C56.7196 5.20868 52.6167 6.29711 48.699 7.88649C47.7075 8.25519 46.7554 8.71676 45.7892 9.14737C45.3018 9.35564 44.8399 9.61175 44.3807 9.84817C43.9215 10.0846 43.437 10.3266 42.9722 10.5743C41.1227 11.592 39.3304 12.7101 37.6032 13.9235C35.8772 15.1319 34.2175 16.4321 32.6313 17.8187L31.4566 18.891C31.0735 19.2513 30.6764 19.5975 30.3158 19.983C29.5806 20.7373 28.8256 21.4719 28.1411 22.274C25.3041 25.4068 22.8728 28.8836 20.9044 32.6228C18.936 36.3731 17.4356 40.3505 16.4368 44.466C15.4554 48.5801 14.9293 52.7895 14.8678 57.0185C14.7962 61.3548 15.2435 65.6841 16.2002 69.9143C17.1455 74.1618 18.6298 78.2713 20.6171 82.1431C24.6484 89.9449 30.5234 96.6465 37.7328 101.667C38.1666 101.999 38.637 102.278 39.0905 102.582C39.544 102.886 39.9976 103.176 40.4708 103.457L41.8793 104.287L42.5835 104.704L43.3074 105.084L44.7554 105.846C45.2427 106.091 45.7413 106.311 46.2342 106.544C47.2145 107.026 48.2342 107.417 49.2427 107.831C49.7441 108.047 50.2624 108.216 50.7779 108.394L52.3244 108.934L53.8991 109.393C54.4258 109.542 54.9442 109.711 55.4822 109.826C56.547 110.071 57.6061 110.355 58.6907 110.527L60.3076 110.808L61.9386 111.019C64.1225 111.289 66.3213 111.42 68.5217 111.413L70.1724 111.36C70.7358 111.337 71.2739 111.335 71.8203 111.276C72.9161 111.177 74.0147 111.107 75.1049 110.932C75.6485 110.853 76.195 110.789 76.7387 110.699L78.3584 110.392L79.1697 110.24L79.9725 110.048L81.5753 109.666C82.1077 109.528 82.6317 109.365 83.1585 109.215C83.6852 109.066 84.2176 108.934 84.7331 108.737C85.7698 108.379 86.8148 108.05 87.8317 107.628C89.8773 106.836 91.8768 105.929 93.8205 104.912C95.7538 103.88 97.6255 102.736 99.4262 101.487C100.345 100.879 101.204 100.198 102.077 99.5168C102.522 99.1931 102.922 98.8216 103.35 98.4698C103.778 98.118 104.195 97.7662 104.601 97.3975L105.804 96.2717C106.004 96.0831 106.207 95.9002 106.401 95.7088L106.964 95.1149L108.108 93.9301L109.19 92.6889C112.065 89.3559 114.512 85.6771 116.474 81.7378C117.446 79.8522 118.085 79.354 117.331 81.0061Z" fill="#FF945C"/>
</g>
</g>
<path d="M36.5574 49.7834H50.7639V53.335L50.5173 53.2857C50.5173 51.2797 48.5277 50.2767 44.5485 50.2767V61.4742C44.5485 63.9077 44.6883 65.3876 44.9678 65.9137C45.0665 66.111 45.2391 66.2837 45.4858 66.4317C45.7324 66.5797 45.9955 66.6701 46.275 66.703C46.5546 66.7359 46.941 66.7523 47.4342 66.7523L47.4836 67.0483H39.887L39.9364 66.7523C40.4296 66.7523 40.816 66.7441 41.0956 66.7277C41.3915 66.6948 41.6546 66.5961 41.8848 66.4317C42.1315 66.2673 42.3041 66.0946 42.4028 65.9137C42.5179 65.7329 42.6165 65.4122 42.6987 64.9518C42.7809 64.3928 42.8221 63.2336 42.8221 61.4742V50.2767C38.8429 50.2767 36.8533 51.2797 36.8533 53.2857L36.5574 53.335V49.7834Z" fill="#282828"/>
<path d="M56.4723 48.8955V59.5504C56.6203 58.3665 57.0313 57.3389 57.7055 56.4674C58.3796 55.5795 59.2758 55.1355 60.3939 55.1355C62.9096 55.1355 64.1675 56.4509 64.1675 59.0818V62.9787C64.1675 64.6888 64.2744 65.7493 64.4881 66.1604C64.7183 66.555 65.3103 66.7523 66.2639 66.7523L66.3133 67.0483H60.3199L60.3692 66.7523C61.3558 66.7523 61.9477 66.5468 62.145 66.1357C62.3423 65.7246 62.441 64.5983 62.441 62.7567V59.3284C62.441 58.1939 62.2601 57.3389 61.8984 56.7634C61.5531 56.1879 60.994 55.9001 60.2212 55.9001C59.4649 55.9001 58.8318 56.1632 58.3221 56.6894C57.8124 57.1991 57.4342 57.8486 57.1875 58.6378C56.7107 60.167 56.4723 61.7044 56.4723 63.25C56.4723 64.7956 56.5709 65.7658 56.7683 66.1604C56.982 66.555 57.5739 66.7523 58.5441 66.7523L58.5934 67.0483H52.5754L52.6247 66.7523C53.6112 66.7523 54.2114 66.555 54.4252 66.1604C54.6389 65.7493 54.7458 64.6723 54.7458 62.9294V54.7162C54.7458 52.2498 54.6307 50.77 54.4005 50.2767C54.3018 50.0794 54.1456 49.9067 53.9319 49.7588C53.7346 49.6108 53.5126 49.5203 53.266 49.4874C53.0358 49.4546 52.7151 49.4381 52.3041 49.4381L52.2547 49.1668C53.6852 48.9859 55.0911 48.8955 56.4723 48.8955Z" fill="#282828"/>
<path d="M78.4973 60.8083H70.4075V61.2276C70.4075 62.9705 70.7775 64.3023 71.5174 65.2231C72.2573 66.1275 73.1781 66.5797 74.2798 66.5797C75.924 66.5797 77.1079 65.922 77.8314 64.6065L78.2014 64.8039C77.3463 66.4646 75.9158 67.2949 73.9098 67.2949C72.43 67.2949 71.1639 66.7605 70.1115 65.6918C69.0592 64.623 68.533 63.1842 68.533 61.3755C68.533 59.5504 68.9934 58.0541 69.9142 56.8867C70.8515 55.7192 72.0929 55.1355 73.6385 55.1355C75.2006 55.1355 76.4009 55.6699 77.2395 56.7387C78.078 57.791 78.4973 59.1476 78.4973 60.8083ZM73.7125 55.6288C72.7588 55.6288 72.0024 56.0399 71.4434 56.862C70.9008 57.6677 70.5719 58.7447 70.4568 60.093H76.5982C76.4831 57.1169 75.5212 55.6288 73.7125 55.6288Z" fill="#282828"/>
<path d="M99.6379 49.7834V53.335L99.3666 53.2857C99.3666 52.2005 98.7829 51.4441 97.6155 51.0166C96.4645 50.5727 94.7051 50.3507 92.3374 50.3507V58.1199C93.291 58.087 94.0309 58.0377 94.5571 57.9719C95.0997 57.8897 95.5108 57.7335 95.7903 57.5033C96.0699 57.2566 96.2425 56.9936 96.3083 56.714C96.374 56.4345 96.4069 56.007 96.4069 55.4315L96.7029 55.3822V61.3755L96.4069 61.3262C96.4069 60.5698 96.3247 60.0272 96.1603 59.6984C96.0123 59.3695 95.6506 59.1229 95.0751 58.9585C94.516 58.794 93.6034 58.6954 92.3374 58.6625V61.4742C92.3374 63.8091 92.4442 65.1738 92.658 65.5684C92.7566 65.7822 92.8635 65.9877 92.9786 66.185C93.1102 66.3659 93.2992 66.4892 93.5459 66.555C94.0721 66.6865 94.7133 66.7523 95.4697 66.7523L95.519 67.0483H88.1198L88.1691 66.7523C88.9913 66.7523 89.5914 66.5961 89.9696 66.2837C90.3807 65.9384 90.5862 64.3352 90.5862 61.4742V55.3575C90.5862 53.5981 90.5287 52.3978 90.4136 51.7565C90.3149 51.0988 90.1669 50.6878 89.9696 50.5233C89.5914 50.2109 88.9913 50.0547 88.1691 50.0547L88.1198 49.7834H99.6379Z" fill="#282828"/>
<path d="M103.709 52.1758C103.43 51.8963 103.29 51.5675 103.29 51.1893C103.29 50.8111 103.43 50.4822 103.709 50.2027C103.989 49.9232 104.317 49.7834 104.696 49.7834C105.074 49.7834 105.403 49.9232 105.682 50.2027C105.962 50.4822 106.101 50.8111 106.101 51.1893C106.101 51.5675 105.962 51.8963 105.682 52.1758C105.403 52.4554 105.074 52.5951 104.696 52.5951C104.317 52.5951 103.989 52.4554 103.709 52.1758ZM105.633 55.1355V62.9787C105.633 64.7052 105.731 65.7658 105.929 66.1604C106.143 66.555 106.734 66.7523 107.705 66.7523L107.754 67.0483H101.736L101.785 66.7523C102.772 66.7523 103.372 66.555 103.586 66.1604C103.799 65.7493 103.906 64.6723 103.906 62.9294V61.2029C103.906 59.2955 103.849 58.0377 103.734 57.4293C103.635 56.8045 103.487 56.4016 103.29 56.2207C102.895 55.859 102.287 55.6781 101.465 55.6781L101.415 55.4068C102.846 55.226 104.252 55.1355 105.633 55.1355Z" fill="#282828"/>
<path d="M113.954 55.1355V59.5504C114.102 58.3665 114.513 57.3389 115.187 56.4674C115.861 55.5795 116.758 55.1355 117.876 55.1355C120.391 55.1355 121.649 56.4509 121.649 59.0818V62.9787C121.649 64.6888 121.756 65.7493 121.97 66.1604C122.2 66.555 122.792 66.7523 123.746 66.7523L123.795 67.0483H117.802L117.851 66.7523C118.838 66.7523 119.43 66.5468 119.627 66.1357C119.824 65.7246 119.923 64.5983 119.923 62.7567V59.3284C119.923 58.1939 119.742 57.3389 119.38 56.7634C119.035 56.1879 118.476 55.9001 117.703 55.9001C116.947 55.9001 116.314 56.1632 115.804 56.6894C115.294 57.1991 114.916 57.8486 114.669 58.6378C114.192 60.167 113.954 61.7044 113.954 63.25C113.954 64.7956 114.053 65.7658 114.25 66.1604C114.464 66.555 115.056 66.7523 116.026 66.7523L116.075 67.0483H110.057L110.106 66.7523C111.093 66.7523 111.693 66.555 111.907 66.1604C112.121 65.7493 112.228 64.6723 112.228 62.9294V60.9563C112.228 58.4898 112.104 57.0018 111.858 56.4921C111.775 56.3112 111.627 56.1468 111.414 55.9988C111.216 55.8508 110.994 55.7603 110.748 55.7275C110.518 55.6946 110.197 55.6781 109.786 55.6781L109.737 55.4068C111.167 55.226 112.573 55.1355 113.954 55.1355Z" fill="#282828"/>
<path d="M135.187 59.0818V61.5729C135.187 63.398 135.245 64.5983 135.36 65.1738C135.475 65.7329 135.754 66.0124 136.198 66.0124C136.478 66.0124 136.848 65.8973 137.308 65.6671L137.431 65.9137C137.3 66.0124 137.127 66.1357 136.913 66.2837C136.7 66.4152 136.264 66.5961 135.606 66.8263C134.949 67.0565 134.316 67.1716 133.707 67.1716C133.543 66.481 133.46 65.3793 133.46 63.8666C133.099 64.8861 132.622 65.7164 132.03 66.3577C131.454 66.9825 130.649 67.2949 129.613 67.2949C128.577 67.2949 127.755 67.0236 127.146 66.481C126.555 65.922 126.259 65.1656 126.259 64.2119C126.259 61.5646 128.659 60.2328 133.46 60.2163V59.3284C133.46 58.1445 133.288 57.2402 132.943 56.6154C132.597 55.9905 131.956 55.6781 131.019 55.6781C130.493 55.6781 130.065 55.8097 129.736 56.0728C129.407 56.3358 129.185 56.6236 129.07 56.936C128.791 57.791 128.371 58.2185 127.812 58.2185C127.27 58.2185 126.998 57.9143 126.998 57.306C126.998 56.6811 127.41 56.1632 128.232 55.7521C129.054 55.3411 130.049 55.1355 131.216 55.1355C132.383 55.1355 133.337 55.4726 134.077 56.1468C134.817 56.8045 135.187 57.7828 135.187 59.0818ZM128.133 64.3106C128.133 64.9518 128.289 65.4862 128.602 65.9137C128.914 66.3248 129.407 66.5303 130.082 66.5303C130.772 66.5303 131.397 66.2015 131.956 65.5438C132.515 64.8696 132.893 64.1297 133.091 63.324C133.304 62.5019 133.428 61.6551 133.46 60.7836C131.635 60.8 130.287 61.1371 129.416 61.7948C128.561 62.4525 128.133 63.2911 128.133 64.3106Z" fill="#282828"/>
<path d="M143.063 48.8955V62.7567C143.063 64.5819 143.17 65.7082 143.383 66.1357C143.597 66.5468 144.189 66.7523 145.159 66.7523L145.208 67.0483H139.166L139.215 66.7523C140.202 66.7523 140.802 66.5468 141.016 66.1357C141.229 65.7246 141.336 64.5983 141.336 62.7567V53.335C141.336 51.5099 141.238 50.4082 141.04 50.0301C140.974 49.915 140.851 49.7999 140.67 49.6848C140.489 49.5697 140.292 49.5039 140.078 49.4874C139.881 49.471 139.593 49.4628 139.215 49.4628L139.166 49.1915C140.399 48.9942 141.698 48.8955 143.063 48.8955Z" fill="#282828"/>
<path d="M160.791 49.7834C165.149 49.7834 167.327 51.4441 167.327 54.7656C167.327 56.229 166.809 57.4293 165.774 58.3665C164.754 59.3038 163.537 59.7724 162.123 59.7724C160.709 59.7724 159.509 59.5422 158.522 59.0818V61.4742C158.522 63.2336 158.572 64.4339 158.67 65.0752C158.785 65.7164 158.942 66.1193 159.139 66.2837C159.517 66.5961 160.117 66.7523 160.939 66.7523L160.989 67.0483H154.329L154.379 66.7523C155.201 66.7523 155.801 66.5961 156.179 66.2837C156.59 65.9384 156.796 64.3352 156.796 61.4742V55.3575C156.796 53.5981 156.738 52.3978 156.623 51.7565C156.524 51.1153 156.377 50.7124 156.179 50.548C155.801 50.2356 155.201 50.0794 154.379 50.0794L154.329 49.7834H160.791ZM158.522 50.3507V58.4652C159.377 58.9256 160.38 59.1558 161.531 59.1558C162.699 59.1558 163.636 58.794 164.343 58.0706C165.05 57.3306 165.404 56.229 165.404 54.7656C165.404 52.9404 164.812 51.7237 163.628 51.1153C162.658 50.6056 161.49 50.3507 160.125 50.3507H158.522Z" fill="#282828"/>
<path d="M176.889 55.0122C177.3 55.0122 177.662 55.1026 177.974 55.2835C178.287 55.4644 178.443 55.711 178.443 56.0234C178.443 56.3358 178.344 56.5825 178.147 56.7634C177.95 56.9442 177.728 57.0347 177.481 57.0347C177.234 57.0347 176.922 56.9278 176.544 56.714C176.182 56.5003 175.796 56.3934 175.385 56.3934C174.743 56.3934 174.217 56.9853 173.806 58.1692C173.412 59.3531 173.214 60.7261 173.214 62.2881C173.214 64.3928 173.321 65.6671 173.535 66.111C173.601 66.259 173.724 66.3988 173.905 66.5303C174.086 66.6454 174.275 66.7112 174.472 66.7277C174.669 66.7441 174.949 66.7523 175.311 66.7523L175.36 67.0483H169.367L169.416 66.7523C169.942 66.7523 170.32 66.7277 170.55 66.6783C170.797 66.6126 171.003 66.407 171.167 66.0617C171.332 65.7164 171.422 65.2889 171.438 64.7792C171.471 64.253 171.488 63.4227 171.488 62.2881V60.8576C171.488 58.5721 171.422 57.2731 171.29 56.9607C171.175 56.6483 171.068 56.4016 170.97 56.2207C170.871 56.0399 170.723 55.9166 170.526 55.8508C170.164 55.7521 169.687 55.7028 169.095 55.7028L169.046 55.4315C170.444 55.2342 171.833 55.1355 173.214 55.1355V58.7611C173.395 57.5937 173.798 56.6811 174.423 56.0234C175.064 55.3493 175.886 55.0122 176.889 55.0122Z" fill="#282828"/>
<path d="M179.685 61.2276C179.685 59.5011 180.179 58.0541 181.165 56.8867C182.152 55.7192 183.492 55.1355 185.185 55.1355C186.879 55.1355 188.244 55.7192 189.28 56.8867C190.315 58.0541 190.833 59.5011 190.833 61.2276C190.833 62.954 190.332 64.401 189.329 65.5684C188.342 66.7194 187.002 67.2949 185.309 67.2949C183.615 67.2949 182.25 66.7112 181.214 65.5438C180.195 64.3763 179.685 62.9376 179.685 61.2276ZM182.522 65.2231C183.179 66.2755 184.108 66.8016 185.309 66.8016C186.509 66.8016 187.413 66.2837 188.022 65.2478C188.647 64.2119 188.959 62.8801 188.959 61.2522C188.959 59.6079 188.63 58.2596 187.972 57.2073C187.315 56.155 186.386 55.6288 185.185 55.6288C184.001 55.6288 183.097 56.155 182.472 57.2073C181.864 58.2432 181.56 59.5751 181.56 61.2029C181.56 62.8307 181.88 64.1708 182.522 65.2231Z" fill="#282828"/>
<path d="M196.66 55.3822H199.693V55.9248H196.66V65.3218C196.66 65.6671 196.742 65.9466 196.906 66.1604C197.071 66.3577 197.285 66.4563 197.548 66.4563C198.14 66.4563 198.838 66.2837 199.644 65.9384L199.693 66.2097C198.542 66.9332 197.523 67.2949 196.635 67.2949C196.06 67.2949 195.632 67.1552 195.353 66.8756C195.073 66.5961 194.933 66.111 194.933 65.4205V55.9248H193.453V55.3822C194.341 55.3822 194.958 55.1355 195.303 54.6422C195.665 54.1325 195.936 53.3844 196.117 52.3978L196.66 52.3485V55.3822Z" fill="#282828"/>
<path d="M201.675 61.2276C201.675 59.5011 202.168 58.0541 203.155 56.8867C204.141 55.7192 205.481 55.1355 207.175 55.1355C208.869 55.1355 210.233 55.7192 211.269 56.8867C212.305 58.0541 212.823 59.5011 212.823 61.2276C212.823 62.954 212.322 64.401 211.318 65.5684C210.332 66.7194 208.992 67.2949 207.298 67.2949C205.605 67.2949 204.24 66.7112 203.204 65.5438C202.185 64.3763 201.675 62.9376 201.675 61.2276ZM204.511 65.2231C205.169 66.2755 206.098 66.8016 207.298 66.8016C208.499 66.8016 209.403 66.2837 210.011 65.2478C210.636 64.2119 210.949 62.8801 210.949 61.2522C210.949 59.6079 210.62 58.2596 209.962 57.2073C209.304 56.155 208.375 55.6288 207.175 55.6288C205.991 55.6288 205.087 56.155 204.462 57.2073C203.854 58.2432 203.549 59.5751 203.549 61.2029C203.549 62.8307 203.87 64.1708 204.511 65.2231Z" fill="#282828"/>
<path d="M218.649 55.3822H221.683V55.9248H218.649V65.3218C218.649 65.6671 218.732 65.9466 218.896 66.1604C219.06 66.3577 219.274 66.4563 219.537 66.4563C220.129 66.4563 220.828 66.2837 221.634 65.9384L221.683 66.2097C220.532 66.9332 219.513 67.2949 218.625 67.2949C218.049 67.2949 217.622 67.1552 217.342 66.8756C217.063 66.5961 216.923 66.111 216.923 65.4205V55.9248H215.443V55.3822C216.331 55.3822 216.948 55.1355 217.293 54.6422C217.655 54.1325 217.926 53.3844 218.107 52.3978L218.649 52.3485V55.3822Z" fill="#282828"/>
<path d="M225.07 72.2277C225.892 72.2277 226.575 71.9071 227.117 71.2658C227.676 70.641 228.244 69.6216 228.819 68.2075L225.144 58.9338C224.602 57.5526 224.108 56.6647 223.664 56.2701C223.237 55.8754 222.719 55.6781 222.111 55.6781L222.061 55.3822H228.178L228.129 55.6781C227.553 55.6781 227.15 55.7686 226.92 55.9494C226.706 56.1303 226.599 56.4098 226.599 56.788C226.599 57.5444 226.986 58.8927 227.759 60.8329L229.658 65.6178L231.582 59.6984C231.96 58.5145 232.149 57.6184 232.149 57.01C232.149 56.1221 231.573 55.6781 230.422 55.6781L230.373 55.3822H235.01L234.961 55.6781C234.286 55.6781 233.81 55.9001 233.53 56.3441C233.267 56.7716 232.765 58.1117 232.026 60.3643L229.806 67.1223C229.082 69.342 228.236 71.0521 227.265 72.2524C226.295 73.4527 225.284 74.0529 224.232 74.0529C223.755 74.0529 223.36 73.9542 223.048 73.7569C222.735 73.576 222.579 73.313 222.579 72.9677C222.579 72.6388 222.678 72.3757 222.875 72.1784C223.089 71.9975 223.311 71.9071 223.541 71.9071C223.788 71.9071 224.059 71.9564 224.355 72.0551C224.651 72.1702 224.889 72.2277 225.07 72.2277Z" fill="#282828"/>
<path d="M239.943 58.3665C240.222 57.4622 240.666 56.6976 241.275 56.0728C241.899 55.4479 242.73 55.1355 243.766 55.1355C244.818 55.1355 245.698 55.4562 246.405 56.0974C247.687 57.232 248.329 58.9502 248.329 61.2522C248.329 62.9787 247.802 64.4174 246.75 65.5684C245.698 66.7194 244.366 67.2949 242.754 67.2949C241.587 67.2949 240.65 67.0729 239.943 66.629V69.5394C239.943 70.5259 239.951 71.2412 239.967 71.6851C240 72.1291 240.091 72.5073 240.239 72.8197C240.403 73.1485 240.609 73.3459 240.855 73.4116C241.118 73.4774 241.513 73.5103 242.039 73.5103L242.089 73.8062H236.12L236.169 73.5103C237.123 73.5103 237.698 73.2965 237.896 72.869C238.109 72.4579 238.216 71.3481 238.216 69.5394V59.1311C238.216 58.2432 238.2 57.6102 238.167 57.232C238.15 56.8538 238.06 56.5249 237.896 56.2454C237.748 55.9659 237.55 55.8097 237.304 55.7768C237.073 55.7275 236.695 55.7028 236.169 55.7028L236.12 55.4315C237.287 55.2342 238.562 55.1355 239.943 55.1355V58.3665ZM242.434 66.5797C243.947 66.5797 245.007 66.0124 245.615 64.8778C246.175 63.842 246.454 62.6334 246.454 61.2522C246.454 60.019 246.273 58.8762 245.911 57.8239C245.698 57.2484 245.369 56.788 244.925 56.4427C244.481 56.081 243.947 55.9001 243.322 55.9001C242.713 55.9001 242.171 56.1221 241.694 56.566C241.217 56.9936 240.864 57.5279 240.633 58.1692C240.173 59.4517 239.943 60.537 239.943 61.4249V65.2725C240.452 66.1439 241.283 66.5797 242.434 66.5797Z" fill="#282828"/>
<path d="M260.749 60.8083H252.659V61.2276C252.659 62.9705 253.029 64.3023 253.769 65.2231C254.509 66.1275 255.429 66.5797 256.531 66.5797C258.175 66.5797 259.359 65.922 260.083 64.6065L260.453 64.8039C259.598 66.4646 258.167 67.2949 256.161 67.2949C254.681 67.2949 253.415 66.7605 252.363 65.6918C251.31 64.623 250.784 63.1842 250.784 61.3755C250.784 59.5504 251.245 58.0541 252.166 56.8867C253.103 55.7192 254.344 55.1355 255.89 55.1355C257.452 55.1355 258.652 55.6699 259.491 56.7387C260.329 57.791 260.749 59.1476 260.749 60.8083ZM255.964 55.6288C255.01 55.6288 254.254 56.0399 253.695 56.862C253.152 57.6677 252.823 58.7447 252.708 60.093H258.849C258.734 57.1169 257.772 55.6288 255.964 55.6288Z" fill="#282828"/>
<defs>
<filter id="filter0_f" x="0.83667" y="106.703" width="133.202" height="31.5945" filterUnits="userSpaceOnUse" color-interpolation-filters="sRGB">
<feFlood flood-opacity="0" result="BackgroundImageFix"/>
<feBlend mode="normal" in="SourceGraphic" in2="BackgroundImageFix" result="shape"/>
<feGaussianBlur stdDeviation="5" result="effect1_foregroundBlur"/>
</filter>
<filter id="filter1_f" x="25.7517" y="113.404" width="86.1737" height="12.9501" filterUnits="userSpaceOnUse" color-interpolation-filters="sRGB">
<feFlood flood-opacity="0" result="BackgroundImageFix"/>
<feBlend mode="normal" in="SourceGraphic" in2="BackgroundImageFix" result="shape"/>
<feGaussianBlur stdDeviation="2" result="effect1_foregroundBlur"/>
</filter>
<linearGradient id="paint0_linear" x1="67.4376" y1="116.703" x2="67.4376" y2="128.298" gradientUnits="userSpaceOnUse">
<stop stop-color="#B4B4B4"/>
<stop offset="1" stop-color="#F2F1EE"/>
</linearGradient>
<clipPath id="clip0">
<rect width="107.99" height="114.323" fill="white" transform="translate(10.8367 0.327148)"/>
</clipPath>
</defs>
</svg>
