<svg xmlns="http://www.w3.org/2000/svg" fill="none" viewBox="0 0 261 139">
  <ellipse cx="67.438" cy="122.5" fill="url(#paint0_linear)" fill-opacity=".4" filter="url(#filter0_f)" opacity=".7" rx="56.601" ry="5.797"/>
  <ellipse cx="68.839" cy="119.879" fill="#F5F5F5" filter="url(#filter1_f)" rx="39.087" ry="2.475"/>
  <g clip-path="url(#clip0)">
    <path fill="#FF945C" d="M115.288 27.85a60.91 60.91 0 0 0-8.338-10.797l-1.2-1.213-1.256-1.156c-.823-.788-1.727-1.486-2.603-2.22-.44-.364-.91-.69-1.366-1.04l-.69-.512-.347-.256-.358-.239c-.957-.633-1.907-1.292-2.918-1.855-.496-.281-.986-.585-1.49-.86l-1.527-.78-.766-.395-.783-.357-1.572-.715c-.53-.225-1.068-.428-1.603-.642-.535-.213-1.065-.436-1.617-.61-1.093-.363-2.177-.757-3.293-1.047A56.838 56.838 0 0 0 69.964.986 55.968 55.968 0 0 0 55.806 2.22l-1.738.394-1.718.473-.846.24-.845.28-1.69.564-1.665.639-.845.32c-.281.116-.546.24-.817.358l-1.633.72c-.535.26-1.065.53-1.6.797l-.812.383c-.264.138-.52.281-.78.433l-1.558.884c-.51.31-1.01.636-1.518.954l-.758.481c-.25.163-.49.34-.738.512L34.78 11.69c-.478.358-.946.735-1.408 1.1l-.707.563c-.234.186-.456.389-.685.583l-1.369 1.148c-.442.403-.87.822-1.307 1.233l-.65.62c-.217.208-.417.43-.626.644l-1.24 1.297c-.402.442-.788.898-1.182 1.348l-.589.676c-.197.225-.375.464-.563.698l-1.113 1.407c-.364.473-.701.965-1.054 1.447-.352.481-.704.962-1.02 1.469l-.977 1.494c-.324.501-.608 1.022-.915 1.531-.626 1.014-1.155 2.08-1.713 3.13-.144.262-.282.53-.394.8l-.378.807-.363.82c-.127.28-.25.537-.36.815-.443 1.104-.925 2.193-1.294 3.324-.194.563-.4 1.126-.583 1.689l-.504 1.711-.25.844-.212.867-.414 1.74c-.13.582-.226 1.17-.338 1.756l-.16.88-.08.443-.059.444c-.15 1.185-.338 2.367-.403 3.563-.045.597-.095 1.194-.132 1.79l-.045 1.796-.023.898c0 .298 0 .6.02.898l.048 1.798c.122 2.398.398 4.786.825 7.149l.16.886.08.442.101.44.406 1.755c.124.589.31 1.16.465 1.74.155.58.312 1.17.498 1.734.386 1.125.741 2.282 1.2 3.394.223.563.423 1.126.668 1.672l.732 1.643c.234.563.516 1.084.783 1.619.268.534.53 1.075.823 1.6.597 1.042 1.16 2.103 1.823 3.097a56.823 56.823 0 0 0 4.2 5.843c.788.906 1.54 1.843 2.383 2.699.414.433.816.878 1.242 1.303l1.296 1.25c.425.424.879.816 1.332 1.213.454.396.899.796 1.36 1.179l1.41 1.125c.236.186.467.378.709.563l.732.527c.49.349.975.706 1.468 1.049l1.51.986.758.489.777.456 1.555.912 1.597.844.8.417.817.383 1.637.757c.563.239 1.127.456 1.67.684 1.107.473 2.254.844 3.38 1.235.282.104.564.189.862.282l.868.25c.58.161 1.152.349 1.738.484l1.758.411c.282.065.586.144.882.194l.887.161 1.777.315 1.792.225.994.121c.333.037.665.054 1 .079l2 .141 2.003.039c.335 0 .668.017 1.003 0l1.003-.031a54.202 54.202 0 0 0 7.969-.791l1.972-.366c.65-.143 1.298-.304 1.95-.455.323-.079.65-.15.97-.24l.962-.281.96-.282c.321-.093.642-.183.955-.295l1.893-.647c.631-.214 1.242-.482 1.865-.721l.93-.369c.306-.129.608-.281.912-.408.606-.281 1.22-.54 1.82-.844a57.648 57.648 0 0 0 11.572-7.425 51.206 51.206 0 0 0 9.197-9.968c.425-.637.099-.411-.335.225a49.878 49.878 0 0 1-8.913 9.397c-.408.358-.845.676-1.282 1.005l-1.281.999-1.347.92c-.45.304-.89.62-1.36.895-.927.563-1.84 1.157-2.798 1.664l-1.408.788-1.454.726c-1 .526-2.048.954-3.076 1.424-.515.236-1.05.422-1.574.636-.524.214-1.051.428-1.59.608-1.075.355-2.14.76-3.239 1.053l-1.64.472-1.661.383c-1.102.282-2.228.456-3.347.673-.281.056-.563.096-.845.132l-.845.116c-.563.07-1.126.163-1.69.213l-1.69.141-.845.068-.845.028-1.69.051c-.564 0-1.127-.017-1.69-.023a56.91 56.91 0 0 1-7.057-.605l-1.74-.31c-.581-.107-1.161-.199-1.733-.343-1.147-.281-2.299-.518-3.425-.867-.564-.169-1.127-.318-1.69-.501l-1.671-.563-.845-.281-.82-.329-1.684-.696a58.32 58.32 0 0 1-6.308-3.197c-1.03-.563-2.01-1.235-3.002-1.874l-.372-.242-.36-.259-.72-.515-.72-.501a13.401 13.401 0 0 1-.71-.532c-.924-.738-1.865-1.45-2.74-2.252-.443-.394-.9-.768-1.325-1.176l-1.279-1.227c-.434-.403-.845-.845-1.24-1.267-.394-.422-.819-.844-1.208-1.294-.763-.901-1.56-1.774-2.253-2.722-.36-.467-.73-.929-1.08-1.407l-1.016-1.447c-.166-.242-.344-.478-.501-.726l-.474-.746c-.312-.498-.633-.993-.94-1.497a55.573 55.573 0 0 1-7.8-26.844c0-.589-.032-1.177-.037-1.762l.048-1.762.025-.881c.017-.282.042-.586.065-.878l.14-1.754c.049-.582.144-1.162.215-1.745l.115-.87c.037-.28.076-.579.133-.866l.315-1.725c.057-.282.099-.563.166-.862l.203-.844a55.091 55.091 0 0 1 4.795-13.16c.281-.515.532-1.033.81-1.543l.883-1.505.442-.752.476-.729.955-1.458a56.888 56.888 0 0 1 4.318-5.474 55.73 55.73 0 0 1 10.47-9.144c.471-.34.973-.636 1.463-.948.49-.313.977-.63 1.484-.918 1.017-.563 2.011-1.174 3.062-1.689a58.43 58.43 0 0 1 6.4-2.814l1.657-.563.828-.281.845-.245 1.69-.484 1.69-.406.845-.2c.282-.064.564-.11.845-.166l1.721-.315c.564-.098 1.155-.16 1.73-.242.575-.081 1.152-.166 1.735-.202l1.933-.158c.645-.05 1.293-.05 1.938-.076l.969-.031h.969l1.94.034 1.936.126.969.065.963.113 1.927.23 1.913.321c.318.057.64.102.955.17l.949.208c.63.143 1.267.281 1.893.43 1.248.35 2.507.659 3.727 1.092l.92.307c.308.098.615.205.916.326l1.812.704c.304.113.6.248.892.38l.888.397c.591.264 1.186.526 1.755.844l1.732.892 1.69.983c.282.166.564.323.845.5l.812.535.808.535c.282.177.541.355.797.563l1.558 1.151c.262.189.51.394.761.6l.746.613.747.614c.248.205.481.427.721.641l1.428 1.3a64.962 64.962 0 0 1 5.211 5.68c.406.498.786 1.019 1.181 1.526l.588.765.564.791c.366.53.752 1.047 1.104 1.587l1.051 1.63c.371.552.346.439-.023-.15z" opacity=".8"/>
    <path fill="#FF945C" d="M117.399 29.049c-4.003-7.174-9.73-13.355-16.482-18.157L99.39 9.86l-.763-.515-.786-.479-1.572-.957-1.617-.88-.808-.443-.828-.402-1.657-.802-1.69-.724-.845-.36c-.282-.118-.563-.214-.862-.323A55.42 55.42 0 0 0 73.652.597l-1.84-.166c-.613-.03-1.23-.048-1.844-.073l-.924-.034h-.924l-1.848.031c-2.465.098-4.92.359-7.35.78-1.22.183-2.416.47-3.62.734-.3.062-.6.138-.895.223l-.89.242c-.592.169-1.192.304-1.775.506l-1.755.563c-.282.09-.583.194-.87.304l-.862.321c-1.16.405-2.282.906-3.412 1.385A60.709 60.709 0 0 0 38.32 8.79c-1.067.605-2.076 1.298-3.098 1.97-.513.335-.997.712-1.496 1.067-.498.354-1 .71-1.47 1.103l-1.434 1.151c-.48.383-.924.805-1.389 1.208-.935.793-1.791 1.688-2.673 2.533a53.521 53.521 0 0 0-4.789 5.606 55.605 55.605 0 0 0-7.248 13.191 58.583 58.583 0 0 0-2.217 7.206c-.324 1.215-.527 2.454-.769 3.686l-.087.462-.065.467-.132.932-.133.931c-.045.31-.09.622-.112.935-.555 5-.46 10.05.281 15.026.36 2.486.888 4.945 1.578 7.36.377 1.199.726 2.412 1.186 3.583l.326.886c.107.296.217.591.347.878l.74 1.737a57.49 57.49 0 0 0 18.928 23.031c.495.385 1.028.717 1.546 1.072l.78.526c.26.178.522.352.792.51 1.073.65 2.138 1.32 3.256 1.897l.828.45.415.225.425.205 1.69.82.425.205.434.183.868.366.867.366.434.183.443.163a56.743 56.743 0 0 0 23.127 3.681c.707-.045 1.408-.081 2.123-.132l2.116-.234c.707-.062 1.408-.202 2.104-.309l1.05-.169c.35-.054.697-.141 1.043-.211a54.845 54.845 0 0 0 8.17-2.303c.661-.253 1.332-.478 1.971-.757l1.952-.844c.648-.281 1.276-.611 1.916-.917.315-.158.64-.304.952-.473l.93-.51c1.253-.655 2.447-1.407 3.662-2.153 1.168-.796 2.352-1.57 3.461-2.443.564-.425 1.127-.844 1.665-1.308.538-.465 1.09-.898 1.62-1.365l1.558-1.433c.265-.234.51-.487.758-.737l.743-.755a54.82 54.82 0 0 0 5.442-6.473c.206-.281.426-.563.62-.844l.586-.881.583-.881c.096-.146.197-.282.282-.442l.282-.453 1.081-1.815c.338-.62.665-1.244.995-1.864.36-.68.253-.678-.11 0l-.873 1.636c-.31.534-.634 1.06-.953 1.593l-.478.793c-.164.262-.344.515-.513.771l-1.037 1.537c-.363.501-.738.99-1.107 1.486l-.563.74c-.192.242-.392.479-.589.715l-1.186 1.427-1.251 1.368-.625.684-.656.653-1.319 1.303-1.374 1.241c-.231.206-.457.417-.69.616l-.716.589c-.479.388-.952.788-1.437 1.168l-1.484 1.106c-.251.18-.49.374-.746.546l-.767.518c-.512.34-1.017.698-1.538 1.027a58.151 58.151 0 0 1-13.366 6.29l-.882.282-.442.14-.448.121-1.791.482-.448.121-.454.098-.907.197-.907.194-.453.099-.457.076-1.83.298-.457.073-.462.054-.921.104-.921.101a12.39 12.39 0 0 1-.924.082l-1.851.11c-.617.05-1.237.034-1.854.045-.617.011-1.236.025-1.853 0-1.234-.062-2.473-.071-3.702-.214l-1.845-.177-1.834-.265-.915-.132c-.304-.051-.606-.116-.91-.175l-1.817-.357a57.811 57.811 0 0 1-7.112-2.063 56.275 56.275 0 0 1-28.451-22.634 60 60 0 0 1-3.553-6.383c-.563-1.087-1.014-2.224-1.51-3.341-.236-.563-.439-1.143-.659-1.711-.22-.569-.439-1.143-.617-1.728l-.563-1.745c-.18-.586-.327-1.18-.49-1.77-.347-1.177-.563-2.382-.845-3.575a54.297 54.297 0 0 1-.91-7.284c-.099-1.221-.085-2.445-.096-3.658-.017-.611.037-1.222.054-1.833.017-.61.04-1.221.095-1.832l.175-1.824c.034-.304.05-.608.096-.911l.132-.907.282-1.812.358-1.796a57.143 57.143 0 0 1 4.746-13.819c.254-.563.564-1.095.845-1.635.282-.54.564-1.084.882-1.613.642-1.044 1.24-2.116 1.947-3.118.346-.507.676-1.022 1.033-1.52l1.099-1.472c.358-.498.75-.968 1.14-1.438.392-.47.773-.951 1.178-1.407a57.07 57.07 0 0 1 10.986-9.693 58.562 58.562 0 0 1 6.276-3.746c1.096-.535 2.184-1.09 3.313-1.551l.845-.363c.282-.124.564-.242.845-.344l1.713-.644c.563-.228 1.155-.391 1.735-.586l.87-.281c.282-.096.58-.189.877-.262 1.18-.315 2.355-.658 3.555-.892 2.394-.529 4.821-.9 7.265-1.112l2.022-.13.504-.03H67.506c1.349-.045 2.695.042 4.045.09.673.042 1.343.115 2.014.175l1.005.092 1 .141 2 .282 1.972.388c.33.068.662.121.99.203l.98.244c.653.17 1.312.313 1.957.504l1.935.588.485.147.476.169.952.343c1.279.43 2.513.982 3.76 1.5.615.282 1.22.58 1.832.867.304.146.61.281.912.442l.893.481a57.1 57.1 0 0 1 12.736 9.229 59.802 59.802 0 0 1 5.276 5.862c.769 1.059 1.574 2.08 2.253 3.175l.533.808c.177.281.357.537.515.816l.975 1.655c.171.325.374.632.605.917.116.06.068-.13-.208-.655z" opacity=".8"/>
    <path fill="#FF945C" d="M117.987 33.066l-.713-1.433c-.253-.47-.518-.932-.777-1.407-.505-.943-1.088-1.838-1.654-2.744-.282-.46-.589-.892-.893-1.331l-.918-1.318-.978-1.272c-.329-.422-.645-.844-1-1.255a57.801 57.801 0 0 0-9.222-8.888 56.207 56.207 0 0 0-10.986-6.53c-.48-.236-.983-.422-1.476-.625l-1.488-.602-1.515-.529c-.507-.169-1.006-.369-1.524-.507l-1.541-.45c-.256-.073-.513-.155-.772-.222l-.78-.186-1.56-.366c-.522-.13-1.051-.205-1.578-.31a58.924 58.924 0 0 0-12.789-.996c-4.29.167-8.545.843-12.676 2.013l-.778.214-.766.25-1.532.501c-.513.163-1.009.374-1.513.563-.504.188-1.008.374-1.504.585a56.686 56.686 0 0 0-5.806 2.815c-.467.267-.946.512-1.408.796l-1.372.845-.685.427-.665.46-1.33.917c-.441.306-.858.647-1.29.97-.43.324-.864.645-1.273.994l-1.233 1.044c-.206.175-.414.346-.614.524l-.592.563-1.18 1.103c-.389.374-.755.768-1.127 1.154l-.563.58c-.19.191-.375.388-.55.593L26.3 21.22c-.175.206-.36.4-.53.611l-.51.62-1.008 1.263c-.324.43-.634.873-.95 1.309-.315.436-.645.864-.926 1.323a57.435 57.435 0 0 0-5.916 11.463 54.05 54.05 0 0 0-3.03 12.457 56.433 56.433 0 0 0 2.59 25.33 53.363 53.363 0 0 0 5.561 11.54 56.485 56.485 0 0 0 3.753 5.203l1.045 1.216c.352.402.687.819 1.062 1.199.74.768 1.453 1.567 2.253 2.288l1.158 1.106 1.206 1.053c.791.717 1.645 1.359 2.478 2.023.412.338.846.642 1.285.952l1.301.928 1.344.87c.45.281.887.591 1.355.844a55.067 55.067 0 0 0 11.628 5.218 55.846 55.846 0 0 0 12.496 2.393c4.253.339 8.531.207 12.755-.394a54.767 54.767 0 0 0 12.31-3.35 55.314 55.314 0 0 0 11.18-6.084 57.066 57.066 0 0 0 5.012-3.94c.397-.355.777-.727 1.166-1.087.389-.36.789-.715 1.149-1.106.733-.771 1.499-1.509 2.181-2.325.543-.62.323-.718-.217-.101l-.524.596c-.178.197-.367.383-.55.563l-1.104 1.14c-.363.386-.766.732-1.146 1.098-.381.366-.767.732-1.164 1.08a56.03 56.03 0 0 1-5 3.927 54.06 54.06 0 0 1-11.155 6.037 54.208 54.208 0 0 1-24.93 3.701 57.535 57.535 0 0 1-6.295-.87l-.392-.07-.389-.09-.774-.178-1.55-.357-1.53-.434c-.506-.151-1.025-.281-1.523-.453a54.901 54.901 0 0 1-11.566-5.26 57.02 57.02 0 0 1-10.068-7.768l-.564-.563c-.188-.185-.369-.382-.563-.563l-1.099-1.153c-.371-.38-.7-.8-1.053-1.197a32.53 32.53 0 0 1-1.034-1.213 53.554 53.554 0 0 1-3.715-5.184c-4.58-7.188-7.31-15.48-8.17-23.923a53.472 53.472 0 0 1 .336-12.704 57.416 57.416 0 0 1 9.014-23.594 53.772 53.772 0 0 1 8.307-9.667 56.571 56.571 0 0 1 16.057-10.36c.492-.203.994-.392 1.49-.586.495-.194.988-.402 1.498-.563 1.017-.326 2.017-.7 3.054-.962a54.342 54.342 0 0 1 12.606-2.007 57.796 57.796 0 0 1 12.718.965c8.377 1.537 16.307 5.17 23.082 10.29a56.35 56.35 0 0 1 9.141 8.835c.352.396.659.844.986 1.25.326.405.65.844.966 1.263l.91 1.306.453.653c.152.216.282.447.428.67l.845 1.348.212.337.194.347.392.692c.256.464.526.92.774 1.39l.716 1.422.36.709c.119.228.322.07-.174-.875z"/>
    <path fill="#FF945C" d="M114.347 83.14a62.25 62.25 0 0 1-6.71 9.467 50.932 50.932 0 0 1-8.6 7.939l-.335.251-.35.234-.698.456-.695.467a12.95 12.95 0 0 1-.705.453c-.958.563-1.901 1.173-2.896 1.689a52.8 52.8 0 0 1-6.062 2.814c-1.05.377-2.084.794-3.157 1.103-.533.163-1.062.344-1.598.49l-1.62.422c-.281.068-.537.149-.81.203l-.82.171c-.547.113-1.09.234-1.64.338l-1.653.259-.828.13-.846.09c-.602.062-1.205.135-1.808.191l-1.817.104c-.605.048-1.211.045-1.817.051-.606.005-1.214.028-1.82 0-1.21-.054-2.425-.076-3.63-.214l-.908-.082-.453-.042-.45-.065-1.804-.256a53.103 53.103 0 0 1-7.087-1.643c-1.17-.324-2.301-.763-3.445-1.166-.563-.205-1.127-.458-1.69-.686a21.45 21.45 0 0 1-1.665-.732l-1.64-.785a56.582 56.582 0 0 1-1.594-.864l-.794-.437-.772-.475c-.513-.321-1.031-.628-1.538-.957-.989-.693-2.003-1.345-2.944-2.103l-.718-.562-.358-.282-.346-.281-1.378-1.168a53.975 53.975 0 0 1-9.414-10.898l-.504-.76c-.17-.253-.316-.52-.474-.78l-.935-1.564c-.563-1.075-1.177-2.128-1.69-3.24l-.36-.793-.198-.411-.177-.42-.713-1.688c-.23-.563-.425-1.14-.642-1.709l-.318-.844-.282-.87a50.576 50.576 0 0 1-1.752-7.098l-.282-1.801c-.082-.602-.135-1.207-.203-1.81l-.095-.903-.051-.91c-.031-.604-.073-1.21-.093-1.814 0-1.214-.042-2.427.04-3.64l.039-.909c0-.304.02-.605.056-.906l.17-1.813.041-.453.065-.45.13-.9.13-.901.064-.45.087-.448.35-1.787c.03-.15.056-.298.09-.448l.11-.441.22-.884a52.107 52.107 0 0 1 5.408-13.462c.64-1.03 1.24-2.085 1.95-3.068l.515-.748.256-.374.282-.364 1.104-1.443c.366-.482.777-.93 1.163-1.408l.586-.692c.197-.23.412-.445.617-.667l1.242-1.323 1.305-1.26a52.342 52.342 0 0 1 5.594-4.61l.732-.536.755-.5c.508-.33 1.006-.673 1.516-.994 1.042-.614 2.065-1.26 3.14-1.813a52.52 52.52 0 0 1 27.984-6.23c3.627.202 7.225.756 10.744 1.654a49.724 49.724 0 0 1 10.191 3.811 52.748 52.748 0 0 1 16.987 13.51 50.218 50.218 0 0 1 5.997 9.256c1.653 3.304-3.682-7.754-10.741-14.421l-1.347-1.224a10.35 10.35 0 0 0-.69-.591l-.704-.563c-.921-.791-1.921-1.478-2.887-2.204-.499-.34-1.009-.67-1.513-1.005l-.758-.498-.78-.462c-.524-.304-1.037-.624-1.566-.914l-1.606-.845c-.53-.281-1.084-.532-1.63-.788l-.823-.382c-.282-.13-.547-.257-.832-.364l-1.69-.68-.42-.17-.427-.149-.846-.298c-1.126-.425-2.298-.74-3.453-1.086-.282-.093-.583-.158-.876-.231l-.882-.214c-.589-.138-1.169-.304-1.766-.405a52.907 52.907 0 0 0-34.863 4.518 52.84 52.84 0 0 0-24.318 25.366l-.698 1.663c-.116.281-.237.563-.347.844l-.307.845c-.203.563-.417 1.125-.611 1.688l-.53 1.725c-.084.282-.183.563-.259.865l-.22.875c-.143.585-.301 1.165-.436 1.753l-.352 1.77c-.057.282-.124.589-.172.887l-.133.892a52.454 52.454 0 0 0 3.36 28.356 53.042 53.042 0 0 0 17.84 22.451 52.33 52.33 0 0 0 6.133 3.847l.797.434c.265.143.544.264.814.399l1.634.786 1.656.706.846.352.845.309 1.707.617 1.738.532.87.264.882.22 1.763.442 1.772.36.893.174.899.13 1.8.256 1.808.166c2.57.217 5.152.232 7.724.045l.963-.062.958-.107c.637-.079 1.276-.135 1.913-.231l1.899-.315.473-.081.47-.102.941-.202.94-.203c.313-.07.62-.163.93-.245.617-.172 1.24-.324 1.854-.507l1.831-.588.456-.146.451-.169.901-.338.902-.337c.299-.116.591-.251.887-.375.589-.259 1.183-.498 1.764-.768l1.732-.844c.282-.136.563-.282.845-.445l.845-.462.8-.436c.265-.146.521-.312.78-.47l1.558-.954c1.003-.692 2.037-1.348 3-2.108l.735-.563.367-.281.355-.282 1.408-1.174c.468-.396.91-.821 1.366-1.232l.682-.62.651-.65a54.374 54.374 0 0 0 4.87-5.482l1.104-1.455c.355-.493.69-1 1.037-1.498l.518-.748.479-.771c.318-.515.645-1.022.958-1.537.622-1.075.707-1.826.101-.774z"/>
    <path fill="#FF945C" d="M114.767 35.49l-.639-1.33-.705-1.304a50.899 50.899 0 0 0-15.163-17.28c-6.457-4.56-13.989-7.41-21.451-8.655a54.938 54.938 0 0 0-12.394-.664c-.519.014-1.034.073-1.55.124l-1.55.152-1.537.23c-.513.077-1.028.147-1.535.262l-1.53.31c-.256.048-.51.107-.76.177l-.758.194c-.502.135-1.014.245-1.51.403l-1.493.467c-.248.082-.502.15-.747.24l-.735.28-1.473.55-1.442.599-.724.312c-.242.105-.474.228-.71.344l-1.409.698c-.473.233-.924.506-1.386.757l-.69.383-.343.191-.336.208-1.34.845c-.454.267-.877.582-1.313.875-.437.293-.87.588-1.293.9l-1.254.955-.625.478-.603.507-1.214.996-1.16 1.058c-.79.687-1.505 1.453-2.254 2.179-.189.18-.366.371-.54.563l-.528.576c-.346.389-.712.76-1.045 1.163l-.997 1.204c-.163.203-.335.397-.496.606l-.467.624-.938 1.25c-.299.428-.583.864-.876 1.295-.603.844-1.127 1.759-1.662 2.648-.282.44-.51.91-.764 1.365l-.738 1.38-.67 1.406c-.226.47-.454.94-.645 1.427-.397.966-.817 1.923-1.147 2.919l-.524 1.48-.45 1.506a54.36 54.36 0 0 0-1.409 6.043c-.087.51-.146 1.024-.222 1.536l-.107.769a8.83 8.83 0 0 0-.09.77l-.136 1.549c-.022.259-.05.515-.065.774l-.028.777-.059 1.556v2.724l.025.389.096 1.556c.02.52.085 1.036.144 1.554l.172 1.55.25 1.543c.082.515.158 1.03.282 1.536l.324 1.523c.048.256.113.507.18.757l.2.752c.138.5.254 1.007.409 1.503l.47 1.486c.08.247.152.495.24.743l.281.731.544 1.464c.197.481.409.957.608 1.435.2.479.398.963.637 1.424.456.935.893 1.88 1.409 2.787.253.456.49.92.757 1.368l.814 1.334c.138.222.282.447.409.667l.44.647.875 1.303.936 1.255c.312.417.617.845.957 1.239l.992 1.207.248.301.262.282.52.58c.353.382.685.782 1.049 1.156l1.093 1.126.546.563.564.529 1.14 1.064c.39.346.792.673 1.19 1.013.396.34.785.687 1.205.994a49.858 49.858 0 0 0 10.704 6.473c7.707 3.321 16.245 4.874 24.614 4.244 1.051-.048 2.09-.194 3.136-.312.524-.048 1.04-.152 1.557-.237a76.348 76.348 0 0 0 1.555-.264l1.541-.338.772-.166c.256-.062.507-.135.763-.203l1.558-.439c.507-.141 1.003-.318 1.504-.473a53.609 53.609 0 0 0 5.868-2.288l1.409-.695.707-.346c.23-.121.459-.253.69-.377l1.374-.76c.457-.256.893-.546 1.341-.816a53.826 53.826 0 0 0 5.136-3.611l1.205-1.01.603-.505.58-.531 1.155-1.067c.381-.36.738-.746 1.107-1.126a49.488 49.488 0 0 0 7.589-9.924c.228-.376.431-.767.609-1.17.098-.282.107-.409.05-.414-.056-.006-.177.126-.377.377-.278.369-.533.754-.764 1.154a52.826 52.826 0 0 1-8.217 10.472 51.259 51.259 0 0 1-5.07 4.354c-.87.696-1.814 1.295-2.727 1.934-.465.307-.946.588-1.408.884-.462.295-.947.588-1.443.844l-1.47.805c-.496.256-1.003.492-1.504.737l-.752.366c-.251.121-.513.223-.77.335l-1.54.659c-.521.202-1.045.391-1.57.588l-.785.281c-.262.093-.533.172-.797.256l-1.598.507-1.617.431-.808.214c-.282.064-.546.118-.817.177l-1.636.349-1.651.281-.826.135c-.281.04-.563.065-.83.099l-1.663.188c-.563.046-1.112.074-1.667.113l-.845.054c-.282.019-.564 0-.845.019l-1.67.026a52.472 52.472 0 0 1-13.167-1.807 54.03 54.03 0 0 1-12.276-5.12 53.147 53.147 0 0 1-10.642-8.021 50.68 50.68 0 0 1-4.482-4.965c-.668-.892-1.364-1.764-1.972-2.699-.307-.464-.64-.912-.927-1.39l-.867-1.447c-.302-.47-.544-.968-.815-1.455l-.394-.734a10.15 10.15 0 0 1-.377-.74c-.474-1.002-.964-1.996-1.364-3.029a49.615 49.615 0 0 1-2.115-6.26 54.109 54.109 0 0 1-1.778-13.025c0-.563-.022-1.103 0-1.652l.065-1.652c0-.281.017-.563.034-.824l.073-.822.144-1.647a54 54 0 0 1 3.158-12.8l.63-1.525.316-.763.355-.746.704-1.492c.254-.486.518-.968.778-1.455a52.17 52.17 0 0 1 7.695-10.694 50.592 50.592 0 0 1 4.829-4.52c.845-.724 1.738-1.357 2.617-2.021.445-.327.91-.62 1.363-.932.453-.312.91-.622 1.386-.895l1.408-.844c.476-.282.966-.524 1.448-.785.955-.544 1.972-.974 2.95-1.455.498-.226 1.01-.425 1.512-.64l.758-.315c.25-.107.513-.188.769-.281l1.544-.563c.518-.174 1.045-.324 1.566-.487a52.07 52.07 0 0 1 12.887-2.17 51.464 51.464 0 0 1 6.553.158c2.177.189 4.34.512 6.478.968a52.264 52.264 0 0 1 12.347 4.388c.955.526 1.94 1.002 2.865 1.584.467.282.944.563 1.408.845l1.37.906c.228.152.461.281.681.456l.662.487c.44.326.89.641 1.327.973l1.279 1.033c.211.175.431.341.636.521l.614.549a115.22 115.22 0 0 1 2.986 2.834 37.883 37.883 0 0 1 3.454 3.94c.879 1.126 2.18 3.133 2.18 3.133.316.447.592.917.873 1.385.282.467.564.928.845 1.407.513.965 1.065 1.908 1.516 2.901.983 1.942 1.065 1.084.614.209z" opacity=".6"/>
    <path fill="#FF945C" d="M117.331 81.006a53.39 53.39 0 0 1-6.62 10.715 52.705 52.705 0 0 1-9.062 8.922c-.826.672-1.71 1.266-2.578 1.885-.428.318-.887.588-1.332.878l-1.35.845a57.251 57.251 0 0 1-5.65 2.96 53.727 53.727 0 0 1-24.846 4.858 53.721 53.721 0 0 1-24.312-7.056 53.141 53.141 0 0 1-10.192-7.534 58.126 58.126 0 0 1-8.146-9.67 56.11 56.11 0 0 1-5.772-11.272c-.203-.49-.358-.994-.53-1.495l-.504-1.503-.428-1.525c-.141-.51-.299-1.013-.403-1.531-.228-1.03-.493-2.055-.654-3.096l-.281-1.56-.198-1.57c-.16-1.089-.214-2.19-.304-3.287-.056-.549-.048-1.1-.067-1.652-.02-.552-.037-1.1-.043-1.652a57.12 57.12 0 0 1 .406-6.603c.07-.546.13-1.095.206-1.644l.281-1.63c.164-1.091.445-2.16.682-3.236.11-.54.282-1.066.425-1.598l.454-1.59.53-1.565c.174-.521.349-1.044.563-1.551l.611-1.523c.099-.256.209-.51.327-.757l.343-.748c.234-.499.448-1.005.702-1.492l.763-1.458c.13-.242.251-.487.383-.729l.417-.71.845-1.407c.282-.464.6-.917.902-1.376.301-.459.591-.923.927-1.36.648-.883 1.279-1.78 1.985-2.62.35-.422.68-.86 1.043-1.271l1.093-1.23c.183-.203.36-.414.55-.611l.562-.588 1.15-1.177 1.203-1.126c.4-.377.797-.754 1.222-1.1a56.474 56.474 0 0 1 10.854-7.472l1.47-.763 1.504-.69c.995-.484 2.034-.844 3.057-1.272.512-.205 1.04-.363 1.56-.549l.783-.267c.26-.093.522-.177.79-.248 1.061-.281 2.112-.627 3.19-.844A49.876 49.876 0 0 1 68.64 3.58c4.268.131 8.51.724 12.65 1.767.263.056.522.127.778.203l.775.219c.516.15 1.034.281 1.546.442l1.527.51.764.253c.256.084.501.191.752.281l1.504.58.377.146.37.163.737.327c.49.222.99.425 1.474.661l1.442.724a50.631 50.631 0 0 1 10.648 7.244c.823.687 1.566 1.46 2.341 2.195.197.183.38.377.563.563l.55.586c.36.394.74.77 1.09 1.179l1.039 1.221c.172.206.349.406.518.614l.491.636.983 1.27c.312.433.614.875.924 1.31.633.865 1.18 1.785 1.76 2.686.473.802.682 2.319-1.501-1.056-.257-.433-.564-.844-.845-1.246l-.862-1.239-.933-1.168c-.307-.397-.602-.805-.938-1.182-.656-.76-1.281-1.548-1.986-2.265l-1.031-1.098c-.355-.355-.721-.698-1.081-1.044a50.558 50.558 0 0 0-9.578-7.202 56.977 56.977 0 0 0-10.935-4.892 54.707 54.707 0 0 0-11.688-2.496 51.504 51.504 0 0 0-11.955.174A50.23 50.23 0 0 0 48.7 7.887c-.991.368-1.944.83-2.91 1.26-.487.209-.95.465-1.408.701-.46.237-.944.479-1.409.726a57.883 57.883 0 0 0-5.369 3.35 58.753 58.753 0 0 0-4.972 3.895l-1.174 1.072c-.384.36-.78.707-1.141 1.092-.735.754-1.49 1.489-2.175 2.291a50.377 50.377 0 0 0-7.237 10.349 51.74 51.74 0 0 0-4.467 11.843 57.714 57.714 0 0 0-1.57 12.553A54.39 54.39 0 0 0 16.2 69.913a51.081 51.081 0 0 0 4.417 12.23 54 54 0 0 0 17.116 19.523c.434.332.904.611 1.358.915.453.304.907.594 1.38.875l1.408.83.705.417.723.38 1.448.762c.488.245.986.465 1.48.698.98.482 2 .873 3.008 1.287.501.216 1.02.385 1.535.563l1.546.54 1.575.459c.527.149 1.045.318 1.583.433 1.065.245 2.124.529 3.209.701l1.617.281 1.63.211c2.184.27 4.383.401 6.584.394l1.65-.053c.564-.023 1.102-.025 1.648-.084 1.096-.099 2.195-.169 3.285-.344.543-.079 1.09-.143 1.634-.233l1.62-.307.81-.152.803-.192 1.603-.382c.533-.138 1.057-.301 1.584-.451.526-.149 1.059-.281 1.574-.478 1.037-.358 2.082-.687 3.099-1.109a58.403 58.403 0 0 0 5.989-2.716 56.613 56.613 0 0 0 5.605-3.425c.919-.608 1.778-1.289 2.651-1.97.445-.324.845-.695 1.273-1.047.428-.352.845-.704 1.251-1.073l1.203-1.125c.2-.189.403-.372.597-.563l.563-.594 1.144-1.185 1.082-1.241a52.817 52.817 0 0 0 7.284-10.951c.972-1.886 1.611-2.384.857-.732z" opacity=".7"/>
  </g>
  <path fill="#282828" d="M36.557 49.783h14.207v3.552l-.247-.05c0-2.005-1.99-3.008-5.969-3.008v11.197c0 2.434.14 3.914.42 4.44.098.197.271.37.518.518.246.148.51.238.789.271.28.033.666.05 1.16.05l.049.295h-7.597l.05-.296c.493 0 .879-.008 1.159-.024.296-.033.559-.132.789-.296.247-.165.42-.337.518-.518.115-.181.214-.502.296-.962.082-.56.123-1.718.123-3.478V50.277c-3.98 0-5.969 1.003-5.969 3.009l-.296.049v-3.552zM56.472 48.895V59.55c.148-1.183.56-2.211 1.233-3.083.675-.887 1.57-1.331 2.689-1.331 2.516 0 3.774 1.315 3.774 3.946v3.897c0 1.71.106 2.77.32 3.181.23.395.822.592 1.776.592l.05.296H60.32l.05-.296c.986 0 1.578-.205 1.775-.616.197-.411.296-1.538.296-3.38v-3.428c0-1.134-.18-1.99-.543-2.565-.345-.575-.904-.863-1.677-.863-.756 0-1.39.263-1.899.79-.51.51-.888 1.159-1.135 1.948a15.417 15.417 0 0 0-.715 4.612c0 1.546.099 2.516.296 2.91.214.395.806.592 1.776.592l.05.296h-6.019l.05-.296c.986 0 1.586-.197 1.8-.592.214-.41.32-1.488.32-3.23v-8.214c0-2.466-.114-3.946-.344-4.44a1.393 1.393 0 0 0-.47-.517 1.4 1.4 0 0 0-.665-.272c-.23-.032-.55-.049-.962-.049l-.05-.271c1.431-.181 2.837-.272 4.218-.272zM78.497 60.808h-8.09v.42c0 1.742.37 3.074 1.11 3.995.74.904 1.661 1.357 2.763 1.357 1.644 0 2.828-.658 3.551-1.974l.37.198c-.855 1.66-2.285 2.49-4.291 2.49-1.48 0-2.746-.534-3.798-1.602-1.053-1.069-1.579-2.508-1.579-4.316 0-1.826.46-3.322 1.381-4.49.938-1.167 2.179-1.75 3.724-1.75 1.563 0 2.763.534 3.602 1.603.838 1.052 1.257 2.409 1.257 4.07zm-4.784-5.18c-.954 0-1.71.412-2.27 1.234-.542.806-.871 1.883-.986 3.231h6.141c-.115-2.976-1.077-4.464-2.885-4.464zM99.638 49.783v3.552l-.271-.05c0-1.084-.584-1.84-1.752-2.268-1.15-.444-2.91-.666-5.278-.666v7.769c.954-.033 1.694-.082 2.22-.148.543-.082.954-.239 1.233-.469.28-.246.453-.51.518-.789.066-.28.099-.707.099-1.282l.296-.05v5.994l-.296-.05c0-.756-.082-1.299-.247-1.628-.148-.328-.51-.575-1.085-.74-.559-.164-1.472-.263-2.738-.295v2.811c0 2.335.107 3.7.321 4.094.099.214.206.42.32.617.132.18.321.304.568.37.526.131 1.167.197 1.924.197l.049.296h-7.4l.05-.296c.822 0 1.422-.156 1.8-.468.412-.346.617-1.949.617-4.81v-6.116c0-1.76-.057-2.96-.172-3.601-.1-.658-.247-1.07-.444-1.234-.379-.312-.979-.468-1.8-.468l-.05-.272h11.518zM103.709 52.176a1.352 1.352 0 0 1-.419-.987c0-.378.14-.707.419-.986.28-.28.608-.42.987-.42.378 0 .707.14.986.42.28.28.419.608.419.986 0 .379-.139.707-.419.987-.279.28-.608.42-.986.42a1.35 1.35 0 0 1-.987-.42zm1.924 2.96v7.843c0 1.726.098 2.787.296 3.181.214.395.805.592 1.776.592l.049.296h-6.018l.049-.296c.987 0 1.587-.197 1.801-.592.213-.41.32-1.488.32-3.23v-1.727c0-1.908-.057-3.165-.172-3.774-.099-.625-.247-1.027-.444-1.208-.395-.362-1.003-.543-1.825-.543l-.05-.271a33.632 33.632 0 0 1 4.218-.271zM113.954 55.136v4.414c.148-1.183.559-2.211 1.233-3.083.674-.887 1.571-1.331 2.689-1.331 2.515 0 3.773 1.315 3.773 3.946v3.897c0 1.71.107 2.77.321 3.181.23.395.822.592 1.776.592l.049.296h-5.993l.049-.296c.987 0 1.579-.205 1.776-.616.197-.411.296-1.538.296-3.38v-3.428c0-1.134-.181-1.99-.543-2.565-.345-.575-.904-.863-1.677-.863-.756 0-1.389.263-1.899.79-.51.51-.888 1.159-1.135 1.948a15.41 15.41 0 0 0-.715 4.612c0 1.546.099 2.516.296 2.91.214.395.806.592 1.776.592l.049.296h-6.018l.049-.296c.987 0 1.587-.197 1.801-.592.214-.41.321-1.488.321-3.23v-1.974c0-2.466-.124-3.954-.37-4.464-.083-.18-.231-.345-.444-.493a1.405 1.405 0 0 0-.666-.272 7.205 7.205 0 0 0-.962-.049l-.049-.271c1.43-.181 2.836-.271 4.217-.271zM135.187 59.082v2.49c0 1.826.058 3.026.173 3.602.115.559.394.838.838.838.28 0 .65-.115 1.11-.345l.123.247c-.131.098-.304.222-.518.37-.213.131-.649.312-1.307.542-.657.23-1.29.346-1.899.346-.164-.691-.247-1.793-.247-3.305-.361 1.02-.838 1.85-1.43 2.49-.576.626-1.381.938-2.417.938-1.036 0-1.858-.271-2.467-.814-.591-.559-.887-1.315-.887-2.27 0-2.646 2.4-3.978 7.201-3.995v-.888c0-1.184-.172-2.088-.517-2.713-.346-.625-.987-.937-1.924-.937-.526 0-.954.132-1.283.395-.329.263-.551.55-.666.863-.279.855-.699 1.282-1.258 1.282-.542 0-.814-.304-.814-.912 0-.625.412-1.143 1.234-1.554.822-.41 1.817-.617 2.984-.617s2.121.338 2.861 1.012c.74.657 1.11 1.636 1.11 2.935zm-7.054 5.229c0 .64.156 1.175.469 1.603.312.41.805.616 1.48.616.69 0 1.315-.329 1.874-.986a5.504 5.504 0 0 0 1.135-2.22 11.83 11.83 0 0 0 .369-2.54c-1.825.016-3.173.353-4.044 1.01-.855.659-1.283 1.497-1.283 2.517zM143.063 48.895v13.862c0 1.825.107 2.951.32 3.379.214.41.806.616 1.776.616l.049.296h-6.042l.049-.296c.987 0 1.587-.205 1.801-.616.213-.411.32-1.538.32-3.38v-9.421c0-1.825-.098-2.927-.296-3.305-.066-.115-.189-.23-.37-.345a1.268 1.268 0 0 0-.592-.198 11.25 11.25 0 0 0-.863-.024l-.049-.272a24.655 24.655 0 0 1 3.897-.296zM160.791 49.783c4.358 0 6.536 1.661 6.536 4.983 0 1.463-.518 2.663-1.553 3.6-1.02.938-2.237 1.406-3.651 1.406-1.414 0-2.614-.23-3.601-.69v2.392c0 1.76.05 2.96.148 3.601.115.641.272 1.044.469 1.209.378.312.978.468 1.8.468l.05.296h-6.66l.05-.296c.822 0 1.422-.156 1.8-.468.411-.346.617-1.949.617-4.81v-6.116c0-1.76-.058-2.96-.173-3.601-.099-.642-.246-1.045-.444-1.209-.378-.312-.978-.469-1.8-.469l-.05-.296h6.462zm-2.269.568v8.114c.855.46 1.858.69 3.009.69 1.168 0 2.105-.361 2.812-1.084.707-.74 1.061-1.842 1.061-3.305 0-1.826-.592-3.042-1.776-3.65-.97-.51-2.138-.765-3.503-.765h-1.603zM176.889 55.012c.411 0 .773.09 1.085.271.313.181.469.428.469.74 0 .313-.099.56-.296.74a.96.96 0 0 1-.666.272c-.247 0-.559-.107-.937-.321a2.242 2.242 0 0 0-1.159-.32c-.642 0-1.168.591-1.579 1.775-.394 1.184-.592 2.557-.592 4.12 0 2.104.107 3.378.321 3.822.066.148.189.288.37.42.181.114.37.18.567.197.197.016.477.024.839.024l.049.296h-5.993l.049-.296c.526 0 .904-.024 1.134-.074.247-.065.453-.271.617-.616.165-.346.255-.773.271-1.283.033-.526.05-1.356.05-2.49v-1.431c0-2.286-.066-3.585-.198-3.897a5.845 5.845 0 0 0-.32-.74.765.765 0 0 0-.444-.37c-.362-.099-.839-.148-1.431-.148l-.049-.272a29.79 29.79 0 0 1 4.168-.295v3.625c.181-1.167.584-2.08 1.209-2.738.641-.674 1.463-1.01 2.466-1.01zM179.685 61.228c0-1.727.494-3.174 1.48-4.341.987-1.168 2.327-1.752 4.02-1.752 1.694 0 3.059.584 4.095 1.752 1.035 1.167 1.553 2.614 1.553 4.34 0 1.727-.501 3.174-1.504 4.341-.987 1.151-2.327 1.727-4.02 1.727-1.694 0-3.059-.584-4.095-1.751-1.019-1.168-1.529-2.606-1.529-4.316zm2.837 3.995c.657 1.052 1.586 1.579 2.787 1.579 1.2 0 2.104-.518 2.713-1.554.625-1.036.937-2.368.937-3.996 0-1.644-.329-2.992-.987-4.045-.657-1.052-1.586-1.578-2.787-1.578-1.184 0-2.088.526-2.713 1.578-.608 1.036-.912 2.368-.912 3.996 0 1.628.32 2.968.962 4.02zM196.66 55.382h3.033v.543h-3.033v9.397c0 .345.082.625.246.838a.798.798 0 0 0 .642.296c.592 0 1.29-.172 2.096-.518l.049.272c-1.151.723-2.17 1.085-3.058 1.085-.575 0-1.003-.14-1.282-.42-.28-.279-.42-.764-.42-1.454v-9.496h-1.48v-.543c.888 0 1.505-.246 1.85-.74.362-.51.633-1.258.814-2.244l.543-.05v3.034zM201.675 61.228c0-1.727.493-3.174 1.48-4.341.986-1.168 2.326-1.752 4.02-1.752 1.694 0 3.058.584 4.094 1.752 1.036 1.167 1.554 2.614 1.554 4.34 0 1.727-.501 3.174-1.505 4.341-.986 1.151-2.326 1.727-4.02 1.727-1.693 0-3.058-.584-4.094-1.751-1.019-1.168-1.529-2.606-1.529-4.316zm2.836 3.995c.658 1.052 1.587 1.579 2.787 1.579 1.201 0 2.105-.518 2.713-1.554.625-1.036.938-2.368.938-3.996 0-1.644-.329-2.992-.987-4.045-.658-1.052-1.587-1.578-2.787-1.578-1.184 0-2.088.526-2.713 1.578-.608 1.036-.913 2.368-.913 3.996 0 1.628.321 2.968.962 4.02zM218.649 55.382h3.034v.543h-3.034v9.397c0 .345.083.625.247.838a.794.794 0 0 0 .641.296c.592 0 1.291-.172 2.097-.518l.049.272c-1.151.723-2.17 1.085-3.058 1.085-.576 0-1.003-.14-1.283-.42-.279-.279-.419-.764-.419-1.454v-9.496h-1.48v-.543c.888 0 1.505-.246 1.85-.74.362-.51.633-1.258.814-2.244l.542-.05v3.034zM225.07 72.228c.822 0 1.505-.32 2.047-.962.559-.625 1.127-1.644 1.702-3.059l-3.675-9.273c-.542-1.381-1.036-2.27-1.48-2.664-.427-.395-.945-.592-1.553-.592l-.05-.296h6.117l-.049.296c-.576 0-.979.09-1.209.271-.214.181-.321.46-.321.839 0 .756.387 2.105 1.16 4.045l1.899 4.785 1.924-5.92c.378-1.184.567-2.08.567-2.688 0-.888-.576-1.332-1.727-1.332l-.049-.296h4.637l-.049.296c-.675 0-1.151.222-1.431.666-.263.428-.765 1.768-1.504 4.02l-2.22 6.758c-.724 2.22-1.57 3.93-2.541 5.13-.97 1.2-1.981 1.8-3.033 1.8-.477 0-.872-.098-1.184-.295-.313-.181-.469-.444-.469-.79 0-.328.099-.591.296-.789.214-.18.436-.27.666-.27.247 0 .518.048.814.147.296.115.534.173.715.173zM239.943 58.367c.279-.905.723-1.67 1.332-2.294.624-.625 1.455-.938 2.491-.938 1.052 0 1.932.321 2.639.962 1.282 1.135 1.924 2.853 1.924 5.155 0 1.727-.527 3.165-1.579 4.316-1.052 1.151-2.384 1.727-3.996 1.727-1.167 0-2.104-.222-2.811-.666v2.91c0 .987.008 1.702.024 2.146.033.444.124.822.272 1.135.164.329.37.526.616.592.263.065.658.098 1.184.098l.05.296h-5.969l.049-.296c.954 0 1.529-.214 1.727-.641.213-.411.32-1.52.32-3.33V59.131c0-.888-.016-1.52-.049-1.899a2.106 2.106 0 0 0-.271-.987c-.148-.28-.346-.435-.592-.468-.231-.05-.609-.074-1.135-.074l-.049-.272a22.99 22.99 0 0 1 3.823-.295v3.23zm2.491 8.213c1.513 0 2.573-.568 3.181-1.702.56-1.036.839-2.245.839-3.626 0-1.233-.181-2.376-.543-3.428-.213-.576-.542-1.036-.986-1.381-.444-.362-.978-.543-1.603-.543-.609 0-1.151.222-1.628.666-.477.428-.83.962-1.061 1.603-.46 1.283-.69 2.368-.69 3.256v3.847c.509.872 1.34 1.308 2.491 1.308zM260.749 60.808h-8.09v.42c0 1.742.37 3.074 1.11 3.995.74.904 1.66 1.357 2.762 1.357 1.644 0 2.828-.658 3.552-1.974l.37.198c-.855 1.66-2.286 2.49-4.292 2.49-1.48 0-2.746-.534-3.798-1.602-1.053-1.069-1.579-2.508-1.579-4.316 0-1.826.461-3.322 1.382-4.49.937-1.167 2.178-1.75 3.724-1.75 1.562 0 2.762.534 3.601 1.603.838 1.052 1.258 2.409 1.258 4.07zm-4.785-5.18c-.954 0-1.71.412-2.269 1.234-.543.806-.872 1.883-.987 3.231h6.141c-.115-2.976-1.077-4.464-2.885-4.464z"/>
  <defs>
    <filter id="filter0_f" width="133.202" height="31.595" x=".837" y="106.703" color-interpolation-filters="sRGB" filterUnits="userSpaceOnUse">
      <feFlood flood-opacity="0" result="BackgroundImageFix"/>
      <feBlend in="SourceGraphic" in2="BackgroundImageFix" result="shape"/>
      <feGaussianBlur result="effect1_foregroundBlur" stdDeviation="5"/>
    </filter>
    <filter id="filter1_f" width="86.174" height="12.95" x="25.752" y="113.404" color-interpolation-filters="sRGB" filterUnits="userSpaceOnUse">
      <feFlood flood-opacity="0" result="BackgroundImageFix"/>
      <feBlend in="SourceGraphic" in2="BackgroundImageFix" result="shape"/>
      <feGaussianBlur result="effect1_foregroundBlur" stdDeviation="2"/>
    </filter>
    <linearGradient id="paint0_linear" x1="67.438" x2="67.438" y1="116.703" y2="128.298" gradientUnits="userSpaceOnUse">
      <stop stop-color="#B4B4B4"/>
      <stop offset="1" stop-color="#F2F1EE"/>
    </linearGradient>
    <clipPath id="clip0">
      <path fill="#fff" d="M0 0h107.99v114.323H0z" transform="translate(10.837 .327)"/>
    </clipPath>
  </defs>
</svg>
