<svg viewBox="0 0 326 139" fill="none" xmlns="http://www.w3.org/2000/svg">
<g opacity="0.7" filter="url(#filter0_f)">
<ellipse cx="67.4376" cy="122.53" rx="56.6009" ry="5.79727" fill="url(#paint0_linear)" fill-opacity="0.4"/>
</g>
<g filter="url(#filter1_f)">
<ellipse cx="68.8386" cy="119.909" rx="39.0869" ry="2.47506" fill="#F5F5F5"/>
</g>
<g clip-path="url(#clip0)">
<g opacity="0.8">
<path opacity="0.8" d="M115.288 27.879C112.922 23.9798 110.125 20.3583 106.95 17.0828L105.75 15.8698L104.494 14.713C103.671 13.925 102.767 13.227 101.891 12.4924C101.451 12.1294 100.981 11.8029 100.525 11.4539L99.8345 10.9417L99.488 10.6855L99.1302 10.4463C98.1725 9.81306 97.2232 9.15447 96.2119 8.59158C95.7161 8.31013 95.226 8.00617 94.7218 7.73036L93.195 6.95075L92.4288 6.55673L91.6457 6.19929L90.0738 5.48442C89.5443 5.25927 89.0062 5.05663 88.471 4.84273C87.9358 4.62883 87.4062 4.40648 86.8541 4.23199C85.7611 3.86892 84.6766 3.4749 83.5611 3.18501C79.1335 1.91336 74.5676 1.18469 69.9638 1.01507C65.2111 0.823652 60.4534 1.23885 55.806 2.25061L54.0679 2.64464L52.3496 3.11747L51.5045 3.3567L50.6594 3.63814L48.9693 4.20103L47.3045 4.83991L46.4594 5.16076C46.1777 5.27616 45.9129 5.39999 45.6425 5.5182L44.0087 6.2387C43.4735 6.49763 42.9439 6.76781 42.4087 7.03518L41.5974 7.41795C41.3326 7.55586 41.0763 7.6994 40.8171 7.85138L39.2594 8.73512C38.7495 9.04471 38.2481 9.37119 37.741 9.68922L36.9833 10.1705C36.7326 10.3337 36.4931 10.511 36.2452 10.6827L34.7804 11.7184C34.3016 12.0759 33.834 12.453 33.372 12.8189L32.6649 13.3818C32.4311 13.5675 32.2086 13.7702 31.9804 13.9644L30.6114 15.1127C30.1691 15.5151 29.741 15.9345 29.3043 16.3454L28.6536 16.9646C28.4367 17.1729 28.2367 17.3952 28.0283 17.6091L26.7888 18.9066C26.386 19.3484 26.0001 19.8044 25.6057 20.2547L25.017 20.9302C24.8198 21.1553 24.6423 21.3945 24.4536 21.6281L23.3409 23.0354C22.9775 23.5082 22.6395 24.0007 22.2874 24.482C21.9353 24.9633 21.5832 25.4446 21.2677 25.9512L20.2902 27.4456C19.9662 27.9466 19.6817 28.4673 19.3747 28.9767C18.7493 29.9899 18.2198 31.0566 17.662 32.1064C17.5183 32.3681 17.3803 32.6355 17.2676 32.9057L16.8902 33.7134L16.5268 34.5324C16.4 34.8139 16.2761 35.07 16.1662 35.3486C15.724 36.4519 15.2423 37.5411 14.8733 38.6725C14.6789 39.2354 14.4732 39.7983 14.2901 40.3612L13.7859 42.0724L13.5352 42.9167L13.3239 43.7835L12.9099 45.5229C12.7803 46.1055 12.6845 46.6937 12.5718 47.2791L12.4113 48.16L12.3324 48.6019L12.2732 49.0466C12.1239 50.2315 11.9352 51.4135 11.8704 52.6097C11.8253 53.2064 11.7746 53.803 11.738 54.3997L11.6929 56.1953L11.6704 57.0931C11.6704 57.3914 11.6704 57.6926 11.6901 57.9909L11.738 59.7894C11.8602 62.1874 12.1359 64.5752 12.5634 66.9381L12.7239 67.8246L12.8028 68.2665L12.9042 68.7056L13.3099 70.4618C13.4338 71.05 13.6197 71.6213 13.7747 72.2011C13.9296 72.7809 14.0873 73.3719 14.2732 73.9348C14.6592 75.0606 15.0141 76.2173 15.4733 77.3291C15.6958 77.8919 15.8958 78.4548 16.1409 79.0008L16.8733 80.6445C17.1071 81.2074 17.3888 81.7281 17.6564 82.2628C17.924 82.7976 18.1859 83.3379 18.4789 83.8642C19.0761 84.9056 19.6395 85.9666 20.3015 86.9601C21.5766 88.9944 22.9794 90.9459 24.5015 92.8029C25.2902 93.7092 26.0424 94.6464 26.8846 95.502C27.2987 95.9354 27.7015 96.3801 28.1269 96.8051L29.4227 98.0547C29.848 98.4797 30.3015 98.8709 30.7551 99.2677C31.2086 99.6646 31.6537 100.064 32.1156 100.447L33.5241 101.573C33.7607 101.759 33.9917 101.95 34.234 102.136L34.9664 102.662C35.4565 103.011 35.941 103.368 36.434 103.712L37.9439 104.697L38.7016 105.187L39.4791 105.642L41.034 106.554L42.6312 107.399L43.4312 107.815C43.7129 107.948 43.9749 108.071 44.2481 108.198L45.8847 108.955C46.4481 109.194 47.0115 109.411 47.5552 109.639C48.6622 110.112 49.8087 110.483 50.9355 110.875C51.2172 110.979 51.4989 111.063 51.7975 111.156L52.6651 111.406C53.2454 111.567 53.8172 111.755 54.4031 111.891L56.1609 112.301C56.4426 112.366 56.7468 112.445 57.0426 112.496L57.9299 112.656L59.7074 112.971L61.499 113.196L62.4933 113.318C62.8257 113.354 63.1581 113.371 63.4933 113.396L65.4934 113.537L67.4962 113.576C67.8314 113.576 68.1638 113.593 68.499 113.576L69.5018 113.545C72.1741 113.478 74.8377 113.214 77.4709 112.755L79.4428 112.389C80.0935 112.245 80.7414 112.085 81.3921 111.933C81.716 111.854 82.0428 111.784 82.3639 111.694L83.3245 111.412L84.285 111.131C84.6062 111.038 84.9273 110.948 85.24 110.835L87.133 110.188C87.764 109.974 88.3752 109.707 88.9978 109.467L89.9273 109.099C90.2344 108.969 90.5358 108.817 90.84 108.691C91.4457 108.409 92.0598 108.15 92.6598 107.846C96.7997 105.841 100.685 103.349 104.232 100.422C107.726 97.5211 110.819 94.1687 113.429 90.4529C113.854 89.8168 113.528 90.042 113.094 90.678C110.544 94.1844 107.548 97.3435 104.181 100.075C103.773 100.433 103.336 100.751 102.899 101.08L101.618 102.079L100.271 103C99.8204 103.304 99.3809 103.619 98.9105 103.895C97.9838 104.458 97.0711 105.051 96.1133 105.558L94.7049 106.346L93.2513 107.072C92.2513 107.599 91.2034 108.026 90.1752 108.496C89.6597 108.733 89.1245 108.919 88.6006 109.132C88.0766 109.346 87.5499 109.56 87.0118 109.74C85.9358 110.095 84.871 110.5 83.7724 110.793L82.1329 111.266L80.4709 111.649C79.3695 111.93 78.2427 112.104 77.1244 112.321C76.8427 112.377 76.561 112.417 76.2794 112.453L75.4343 112.569C74.8709 112.639 74.3075 112.732 73.7441 112.783L72.054 112.923L71.2089 112.991L70.3638 113.019L68.6737 113.07C68.1103 113.07 67.5469 113.053 66.9835 113.047C64.6211 112.992 62.2644 112.79 59.9271 112.442L58.1863 112.133C57.606 112.026 57.0257 111.933 56.4538 111.789C55.3074 111.508 54.1552 111.271 53.0285 110.922C52.4651 110.754 51.9017 110.604 51.3383 110.421L49.6679 109.859L48.8228 109.577L48.0031 109.248L46.3186 108.553C44.1534 107.615 42.0471 106.548 40.0115 105.355C38.9805 104.793 38.0002 104.12 37.0086 103.481L36.6368 103.239L36.2762 102.98L35.5579 102.465L34.8368 101.964C34.5945 101.792 34.3579 101.621 34.1269 101.432C33.203 100.695 32.2621 99.9826 31.3861 99.1805C30.9438 98.7865 30.4874 98.4122 30.0621 98.0041L28.7832 96.7769C28.3494 96.3745 27.9381 95.9326 27.5438 95.5104C27.1494 95.0883 26.724 94.6661 26.3353 94.2158C25.5719 93.3152 24.7747 92.4427 24.0818 91.4942C23.7212 91.027 23.3522 90.5654 23.0029 90.087L21.986 88.6404C21.8198 88.3983 21.6423 88.1619 21.4846 87.9142L21.0113 87.1684C20.6986 86.6702 20.3775 86.1749 20.0705 85.6711C15.2252 77.5325 12.5404 68.2925 12.2704 58.8268C12.2704 58.2386 12.2394 57.6504 12.2338 57.065L12.2817 55.3031L12.307 54.4222C12.3239 54.1408 12.3493 53.8368 12.3718 53.5441L12.5127 51.7907C12.5606 51.2081 12.6563 50.6283 12.7268 50.0457L12.8423 49.176C12.8789 48.8946 12.9183 48.5963 12.9746 48.3092L13.2901 46.5839C13.3465 46.3025 13.3887 46.021 13.4563 45.7227L13.6592 44.8784C14.6908 40.3058 16.3019 35.8833 18.4536 31.718C18.7353 31.2029 18.9859 30.6851 19.2648 30.1756L20.1465 28.6699L20.5888 27.9185L21.0648 27.1895L22.0198 25.7316C23.3459 23.8204 24.788 21.9923 26.3381 20.2575C29.4326 16.7847 32.9501 13.7127 36.8086 11.1133C37.2791 10.7728 37.7805 10.4773 38.2706 10.1649C38.7608 9.85246 39.2481 9.53443 39.7551 9.24735C40.772 8.68446 41.7664 8.07372 42.8171 7.55868C44.8923 6.49365 47.0295 5.55381 49.2172 4.74422L50.8735 4.18133L51.7017 3.89988L52.5468 3.65503L54.2369 3.17094L55.9271 2.76566L56.7722 2.56583C57.0539 2.5011 57.3355 2.45606 57.6172 2.39977L59.3384 2.08456C59.9018 1.98605 60.4933 1.92414 61.068 1.84252C61.6426 1.7609 62.2201 1.67646 62.8032 1.63988L64.7356 1.48227C65.3807 1.43161 66.0286 1.43161 66.6737 1.40628L67.6427 1.37532C67.9666 1.37532 68.2906 1.37532 68.6117 1.37532L70.5525 1.40909L72.4878 1.53574L73.4568 1.60047L74.4202 1.71305L76.347 1.94384L78.2597 2.26469C78.578 2.32097 78.8991 2.36601 79.2146 2.43355L80.1639 2.64182C80.7949 2.78536 81.4315 2.92327 82.0569 3.07243C83.3048 3.42143 84.5639 3.73102 85.7836 4.16444L86.7048 4.47122C87.0118 4.56972 87.3189 4.67667 87.6203 4.7977L89.4316 5.50131C89.7358 5.61389 90.0316 5.74898 90.3245 5.88126L91.2119 6.27809C91.8034 6.54265 92.3978 6.8044 92.9668 7.12243L94.6992 8.01462L96.3894 8.99686C96.6711 9.16291 96.9528 9.32052 97.2344 9.49783L98.0457 10.0326L98.8542 10.5673C99.1359 10.7446 99.395 10.922 99.6514 11.1302L101.209 12.2813C101.471 12.4699 101.719 12.6754 101.97 12.8808L102.716 13.4944L103.463 14.1079C103.711 14.3134 103.944 14.5357 104.184 14.7496L105.612 16.0499C107.46 17.8383 109.2 19.7349 110.823 21.7295C111.229 22.2276 111.609 22.7483 112.004 23.2549L112.592 24.0204L113.156 24.8113C113.522 25.3404 113.908 25.8583 114.26 26.3987L115.311 28.0282C115.682 28.5799 115.657 28.4673 115.288 27.879Z" fill="#FF945C"/>
</g>
<g opacity="0.8">
<path opacity="0.8" d="M117.399 29.0779C113.396 21.9038 107.669 15.7233 100.917 10.9218L99.3903 9.88889L98.627 9.37384L97.841 8.89539L96.2692 7.93848L94.6523 7.05755L93.8438 6.61568L93.0157 6.21322L91.3593 5.41109L89.6692 4.68778L88.8241 4.32753C88.5424 4.20932 88.2607 4.11363 87.9621 4.00387C83.3636 2.2476 78.5512 1.11181 73.6521 0.626518L71.8127 0.460466C71.1986 0.429507 70.5817 0.412618 69.9676 0.387288L69.0436 0.353516C68.7366 0.353516 68.4267 0.353516 68.1197 0.353516L66.2718 0.384475C63.8075 0.48268 61.3524 0.743114 58.9224 1.16408C57.7027 1.34702 56.5055 1.63409 55.3027 1.89865C55.0013 1.96057 54.7027 2.03656 54.4069 2.12099L53.5168 2.36304C52.9252 2.53191 52.3252 2.667 51.7421 2.86964L49.9872 3.43253C49.7055 3.52259 49.4041 3.62673 49.1167 3.73649L48.2547 4.05734C47.0942 4.46262 45.973 4.9636 44.8435 5.44206C42.6025 6.43517 40.4239 7.56302 38.3195 8.8194C37.2518 9.42451 36.2434 10.1169 35.2208 10.7895C34.7082 11.1244 34.2237 11.5016 33.7251 11.8562C33.2265 12.2108 32.7251 12.5654 32.2546 12.9595L30.8208 14.1106C30.3419 14.4933 29.8969 14.9155 29.4321 15.318C28.4968 16.1117 27.6405 17.0067 26.7588 17.851C25.0355 19.6076 23.4354 21.4808 21.97 23.4574C18.9671 27.5061 16.5288 31.9439 14.7221 36.6487C13.8292 39.0004 13.0887 41.407 12.5052 43.8538C12.1812 45.0696 11.9784 46.308 11.7362 47.5407L11.6488 48.0023L11.584 48.4695L11.4517 49.401L11.3193 50.3326C11.2742 50.6422 11.2291 50.9546 11.2066 51.267C10.6519 56.267 10.7466 61.3177 11.4883 66.2934C11.8487 68.7792 12.3757 71.238 13.0657 73.6532C13.4432 74.8522 13.7925 76.0652 14.2517 77.236L14.5784 78.1226C14.6855 78.4181 14.7953 78.7136 14.9249 79.0007L15.6658 80.7372C19.8386 89.9431 26.3669 97.887 34.5927 103.768C35.0885 104.153 35.6208 104.486 36.1392 104.84L36.9195 105.367C37.1786 105.544 37.4406 105.718 37.711 105.876C38.7843 106.526 39.8491 107.196 40.9674 107.773L41.7955 108.223L42.2096 108.448L42.635 108.654L44.3251 109.473L44.7505 109.678L45.1843 109.861L46.0519 110.227L46.9195 110.593L47.3533 110.776L47.7956 110.939C55.1642 113.761 63.0411 115.015 70.9225 114.62C71.6296 114.575 72.331 114.539 73.0465 114.488L75.162 114.255C75.869 114.193 76.5705 114.052 77.2662 113.945L78.3169 113.776C78.6662 113.723 79.0127 113.635 79.3592 113.565C82.1377 113.01 84.8689 112.24 87.5283 111.263C88.1903 111.009 88.8607 110.784 89.5001 110.506L91.4523 109.661C92.1001 109.38 92.7283 109.051 93.3678 108.744C93.6833 108.586 94.0072 108.44 94.3199 108.271L95.2495 107.762C96.503 107.106 97.6974 106.354 98.9115 105.609C100.08 104.812 101.264 104.038 102.373 103.166C102.937 102.741 103.5 102.321 104.038 101.857C104.576 101.393 105.128 100.959 105.658 100.492L107.216 99.0593C107.481 98.8257 107.726 98.5724 107.974 98.3219L108.717 97.5676C110.695 95.5528 112.515 93.3887 114.159 91.0944C114.365 90.8129 114.585 90.5315 114.779 90.2501L115.365 89.3691L115.948 88.4882C116.044 88.3419 116.145 88.2068 116.23 88.0463L116.512 87.5932L117.593 85.7779C117.931 85.1587 118.258 84.5339 118.588 83.9147C118.948 83.2336 118.841 83.2364 118.478 83.9147L117.605 85.5499C117.295 86.0847 116.971 86.611 116.652 87.1429L116.174 87.9366C116.01 88.1983 115.83 88.4516 115.661 88.7077L114.624 90.2444C114.261 90.7454 113.886 91.2351 113.517 91.7305L112.954 92.4707C112.762 92.7127 112.562 92.9491 112.365 93.1855L111.179 94.6125L109.928 95.9803L109.303 96.6642L108.647 97.3172L107.328 98.6203L105.954 99.8614C105.723 100.067 105.497 100.278 105.264 100.478L104.548 101.066C104.069 101.454 103.596 101.854 103.111 102.234L101.627 103.34C101.376 103.52 101.137 103.714 100.881 103.886L100.114 104.404C99.6016 104.745 99.0974 105.102 98.5763 105.431C94.4069 108.088 89.9151 110.202 85.21 111.722L84.3283 112.003L83.886 112.144L83.4381 112.265L81.6465 112.746L81.1987 112.867L80.7451 112.966L79.8381 113.163L78.931 113.357L78.4775 113.455L78.0212 113.531L76.1902 113.83L75.7338 113.903L75.2718 113.956L74.3507 114.06L73.4296 114.162C73.1225 114.198 72.8155 114.229 72.5056 114.243L70.6549 114.353C70.038 114.404 69.4183 114.387 68.8014 114.398C68.1845 114.409 67.5648 114.423 66.9478 114.398C65.714 114.336 64.4746 114.328 63.2464 114.184L61.4013 114.007L59.5675 113.742L58.652 113.61C58.3478 113.559 58.0464 113.495 57.7421 113.436L55.9252 113.078C53.5126 112.543 51.1368 111.854 48.8125 111.015C37.0833 106.824 27.0771 98.8636 20.3616 88.3813C19.0489 86.3276 17.8627 84.1959 16.8094 81.9981C16.2461 80.9117 15.7953 79.7747 15.2996 78.6573C15.0629 78.0944 14.8601 77.5147 14.6404 76.9461C14.4207 76.3776 14.201 75.8035 14.0235 75.2181L13.4601 73.4731C13.2798 72.8877 13.1333 72.2938 12.97 71.7028C12.6235 70.5264 12.4066 69.3218 12.1249 68.1284C11.6576 65.7238 11.3537 63.2903 11.215 60.8446C11.1164 59.6231 11.1305 58.3989 11.1192 57.1858C11.1023 56.5751 11.1559 55.9644 11.1728 55.3536C11.1897 54.7429 11.2122 54.1321 11.2685 53.5214L11.4432 51.6976C11.477 51.3937 11.4939 51.0897 11.539 50.7858L11.6714 49.8795L11.9531 48.067L12.3108 46.2714C13.295 41.4812 14.8902 36.8369 17.0573 32.4524C17.3108 31.8895 17.6207 31.3576 17.9024 30.8172C18.1841 30.2768 18.4658 29.7336 18.7841 29.2045C19.4264 28.1603 20.0235 27.088 20.7306 26.0861C21.0771 25.5795 21.4067 25.0644 21.7644 24.5663L22.863 23.0943C23.2207 22.5962 23.6123 22.1261 24.0039 21.6561C24.3954 21.1861 24.7757 20.7048 25.1813 20.2489C28.4112 16.5597 32.1037 13.3018 36.1673 10.5559C38.1792 9.17782 40.2753 7.9267 42.4434 6.80988C43.5392 6.27513 44.6266 5.72068 45.7561 5.25911L46.6012 4.89605C46.8829 4.77222 47.1646 4.65401 47.4463 4.55269L49.159 3.90818C49.7224 3.6802 50.3139 3.51696 50.8942 3.32276L51.7646 3.04132C52.0463 2.94563 52.3449 2.85275 52.6407 2.77958C53.821 2.46436 54.9956 2.12099 56.1957 1.88739C58.5903 1.35844 61.0171 0.987075 63.4605 0.775684L65.483 0.646221L65.9873 0.615262H66.4943H67.5056C68.8549 0.570231 70.2014 0.657477 71.5507 0.705323C72.2239 0.747539 72.8944 0.820714 73.5648 0.879818L74.5704 0.972695L75.5704 1.11342L77.5705 1.39486L79.5423 1.78326C79.8719 1.85081 80.2043 1.90428 80.5311 1.9859L81.5113 2.23076C82.1649 2.39963 82.824 2.54316 83.4691 2.73454L85.4043 3.32276L85.8888 3.46912L86.3649 3.63799L87.317 3.98135C88.5959 4.41197 89.8297 4.9636 91.0776 5.48146C91.6917 5.7629 92.2973 6.06123 92.9086 6.3483C93.2128 6.49466 93.5199 6.62975 93.8213 6.79018L94.7143 7.27145C99.3653 9.74569 103.651 12.8514 107.45 16.5C109.336 18.336 111.098 20.2945 112.726 22.3626C113.495 23.4208 114.3 24.4424 114.979 25.5373L115.512 26.345C115.689 26.6265 115.869 26.8826 116.027 27.1612L117.002 28.8161C117.173 29.1408 117.376 29.4481 117.607 29.7336C117.723 29.7927 117.675 29.6042 117.399 29.0779Z" fill="#FF945C"/>
</g>
<path d="M117.987 33.0949L117.274 31.6623C117.021 31.1923 116.756 30.7307 116.497 30.2551C115.992 29.3122 115.409 28.4172 114.843 27.511C114.561 27.0522 114.254 26.6188 113.95 26.1798L113.032 24.8626L112.054 23.5904C111.725 23.1683 111.409 22.7461 111.054 22.3352C108.319 19.0402 105.226 16.0592 101.832 13.4471C98.4302 10.8601 94.7444 8.66946 90.8457 6.91761C90.3668 6.6812 89.8626 6.49544 89.3696 6.2928L87.8823 5.6905L86.3668 5.16139C85.8597 4.99253 85.3611 4.79269 84.8428 4.65479L83.302 4.20447C83.0456 4.1313 82.7893 4.04968 82.5301 3.98214L81.7498 3.79638L80.1893 3.4305C79.6681 3.30103 79.1386 3.22505 78.6118 3.12091C74.3979 2.32441 70.1095 1.99032 65.823 2.12459C61.5327 2.29156 57.2775 2.96707 53.1468 4.13693L52.3693 4.35083L51.6031 4.60131L50.0707 5.10228C49.5581 5.26552 49.0623 5.47661 48.558 5.66518C48.0538 5.85374 47.5496 6.0395 47.0538 6.25059C45.0666 7.07779 43.1283 8.01746 41.2481 9.06504C40.7805 9.33242 40.3016 9.57727 39.8397 9.86153L38.4678 10.7059L37.7833 11.1337L37.1185 11.5924L35.7889 12.5099C35.3467 12.8167 34.9298 13.1573 34.4988 13.4809C34.0678 13.8046 33.634 14.1254 33.2255 14.4744L31.9917 15.5186C31.7861 15.6931 31.5776 15.8648 31.3776 16.0421L30.7861 16.605L29.6058 17.7082C29.217 18.0826 28.8508 18.4766 28.479 18.8622L27.9156 19.4419C27.7269 19.6333 27.541 19.8303 27.3663 20.0358L26.2987 21.2488C26.1241 21.4543 25.9381 21.6485 25.7691 21.8596L25.2593 22.4787L24.2508 23.7424C23.9269 24.173 23.617 24.6149 23.3015 25.0512C22.986 25.4874 22.6564 25.9152 22.3747 26.3739C19.9785 29.9611 17.9942 33.8064 16.4592 37.8372C14.9582 41.8548 13.9407 46.0364 13.4282 50.294C12.3511 58.8244 13.2375 67.4879 16.0198 75.6241C17.4031 79.6795 19.2701 83.5538 21.5804 87.1634C22.7314 88.9676 23.9842 90.7051 25.3325 92.3673L26.3776 93.5832C26.7297 93.9856 27.0649 94.4022 27.4396 94.7821C28.1804 95.5505 28.8931 96.3498 29.6931 97.0703L30.8508 98.1764L32.0565 99.229C32.8481 99.9466 33.7016 100.588 34.5354 101.253C34.9467 101.59 35.3805 101.894 35.8199 102.204L37.1213 103.133L38.465 104.002C38.9157 104.284 39.3523 104.593 39.8199 104.847C43.4808 107.03 47.383 108.781 51.4482 110.065C55.5086 111.335 59.7011 112.138 63.9441 112.457C68.1973 112.796 72.475 112.664 76.6991 112.063C80.9191 111.43 85.0505 110.306 89.0091 108.714C92.9577 107.122 96.7093 105.08 100.189 102.629C101.932 101.41 103.605 100.095 105.201 98.6886C105.598 98.334 105.978 97.9625 106.367 97.6022C106.756 97.242 107.156 96.8873 107.516 96.4961C108.249 95.725 109.015 94.9876 109.697 94.1714C110.24 93.5522 110.02 93.4537 109.48 94.0701L108.956 94.6667C108.778 94.8637 108.589 95.0495 108.406 95.2296L107.302 96.3695C106.939 96.7551 106.536 97.1012 106.156 97.4671C105.775 97.833 105.389 98.1989 104.992 98.5479C103.401 99.95 101.732 101.261 99.9922 102.474C96.5241 104.917 92.7799 106.943 88.8372 108.511C80.9343 111.687 72.3931 112.955 63.9075 112.212C61.7944 112.038 59.6926 111.748 57.6116 111.342L57.2201 111.272L56.8313 111.182L56.0567 111.005L54.5074 110.647L52.9778 110.214C52.4708 110.062 51.9524 109.932 51.4538 109.761C47.4075 108.461 43.526 106.696 39.8875 104.5C36.2522 102.294 32.8754 99.6888 29.8199 96.7325L29.2565 96.1696C29.0677 95.9839 28.8875 95.7869 28.6931 95.6068L27.5945 94.4528C27.2227 94.0729 26.8931 93.6535 26.541 93.2567C26.1888 92.8599 25.8396 92.4574 25.5072 92.0437C24.1667 90.3909 22.926 88.6597 21.7916 86.8594C17.2113 79.6713 14.4817 71.3799 13.6226 62.9366C13.2289 58.7035 13.3414 54.4386 13.9578 50.2321C15.1737 41.7969 18.2528 33.7376 22.9719 26.6385C25.3476 23.0983 28.1362 19.853 31.279 16.9709C36.0043 12.6325 41.4339 9.12919 47.3355 6.61084C47.8285 6.4082 48.3299 6.21962 48.8256 6.02543C49.3214 5.83123 49.8144 5.62296 50.3242 5.46253C51.3412 5.13606 52.3412 4.76174 53.3778 4.49999C57.4861 3.33824 61.7173 2.66468 65.9835 2.49329C70.2457 2.34486 74.5111 2.66861 78.7019 3.45864C87.0795 4.99534 95.0091 8.6288 101.784 13.7483C105.155 16.3392 108.221 19.3029 110.925 22.5829C111.277 22.9797 111.584 23.4272 111.911 23.8325C112.237 24.2378 112.561 24.6768 112.877 25.0962L113.787 26.4021L114.24 27.055C114.392 27.2718 114.522 27.5025 114.668 27.7249L115.513 29.073L115.725 29.4107L115.919 29.7569L116.311 30.4493C116.567 30.9137 116.837 31.3696 117.085 31.8396L117.801 33.2609L118.161 33.9702C118.28 34.1981 118.483 34.0405 117.987 33.0949Z" fill="#FF945C"/>
<path d="M114.347 83.1684C112.41 86.5261 110.164 89.6958 107.637 92.6362C105.085 95.6039 102.2 98.268 99.0373 100.576L98.7021 100.826L98.3528 101.06L97.6542 101.516L96.9585 101.983C96.7275 102.141 96.4937 102.295 96.2542 102.436C95.2965 102.999 94.3528 103.61 93.3584 104.125C91.3992 105.19 89.3745 106.13 87.2964 106.939C86.2457 107.316 85.2119 107.733 84.1386 108.043C83.6062 108.206 83.0767 108.386 82.5414 108.532L80.9217 108.954C80.64 109.022 80.3837 109.104 80.1104 109.157L79.2907 109.329C78.7442 109.441 78.2006 109.562 77.6513 109.666L75.9977 109.925L75.1696 110.055L74.3245 110.145C73.7217 110.207 73.1188 110.28 72.516 110.336L70.6991 110.44C70.0935 110.488 69.4878 110.485 68.8822 110.491C68.2765 110.497 67.6681 110.519 67.0625 110.491C65.8512 110.438 64.6371 110.415 63.4314 110.277L62.5244 110.196L62.0709 110.153L61.6202 110.089L59.8173 109.833C57.42 109.447 55.052 108.898 52.73 108.189C51.5609 107.865 50.4285 107.426 49.2848 107.024C48.7215 106.818 48.1581 106.565 47.5947 106.337C47.0313 106.109 46.4679 105.878 45.9299 105.605L44.2904 104.82C43.7552 104.539 43.2257 104.257 42.6961 103.956L41.9017 103.52L41.1299 103.044C40.6172 102.723 40.0989 102.416 39.5918 102.087C38.6031 101.395 37.589 100.742 36.6481 99.9847L35.9298 99.4219L35.5721 99.1404L35.2256 98.859L33.8481 97.691C30.237 94.4948 27.0708 90.8297 24.434 86.7934L23.9297 86.0335C23.7607 85.7802 23.6142 85.5128 23.4565 85.2539L22.5213 83.689C21.9579 82.6139 21.3438 81.5613 20.8311 80.4496L20.4705 79.6559L20.2734 79.245L20.0959 78.8257L19.3832 77.137C19.1522 76.5741 18.9579 75.9971 18.741 75.4286L18.4226 74.5843L18.1409 73.7146C17.3864 71.3939 16.8008 69.0217 16.3888 66.6165L16.1071 64.8153C16.0254 64.213 15.9719 63.6079 15.9043 63.0056L15.8085 62.1022L15.7578 61.1931C15.7269 60.588 15.6846 59.9829 15.6649 59.3778C15.6649 58.1647 15.6226 56.9517 15.7043 55.7387L15.7437 54.8296C15.7437 54.5256 15.7635 54.2245 15.8001 53.9233L15.9691 52.1108L16.0114 51.6577L16.0762 51.2074L16.2057 50.3068L16.3353 49.4061L16.4001 48.9558L16.4874 48.5083L16.8367 46.7212C16.8677 46.572 16.8931 46.4228 16.9269 46.2737L17.0367 45.8318L17.2564 44.9481C18.4226 40.231 20.243 35.6999 22.6649 31.4865C23.3044 30.4564 23.9044 29.401 24.6142 28.4187L25.1297 27.6701L25.3861 27.2958L25.6678 26.9327L26.772 25.4889C27.1382 25.0076 27.5495 24.5601 27.9354 24.0817L28.5213 23.3893C28.7185 23.1585 28.9326 22.9446 29.1382 22.7223L30.3805 21.3995L31.6847 20.1386C33.4406 18.4745 35.3099 16.9342 37.2791 15.5285L38.0115 14.9938L38.7665 14.4928C39.2735 14.1635 39.7721 13.8202 40.282 13.4993C41.3242 12.8858 42.3468 12.2384 43.4228 11.6868C51.991 7.05509 61.6803 4.89752 71.4062 5.45559C75.0326 5.65834 78.6307 6.21258 82.1499 7.1105C85.6765 8.00423 89.0942 9.28214 92.3415 10.9213C98.8799 14.1989 104.664 18.7994 109.328 24.4307C111.661 27.2869 113.672 30.3912 115.325 33.6874C116.978 36.9916 111.643 25.9336 104.584 19.2661L103.237 18.0418C103.018 17.8336 102.784 17.6394 102.547 17.4508L101.843 16.8879C100.922 16.0971 99.9219 15.4103 98.9557 14.6842C98.4571 14.3437 97.9472 14.0144 97.443 13.6794L96.6852 13.1813L95.9049 12.7197C95.381 12.4157 94.8683 12.0949 94.3387 11.805L92.7331 10.9607C92.2035 10.6792 91.6486 10.4287 91.1021 10.1726L90.2795 9.78986C89.9978 9.66039 89.733 9.53374 89.4485 9.42679L87.7584 8.7457L87.3387 8.57683L86.9105 8.42766L86.0654 8.12933C84.9386 7.70435 83.7668 7.38912 82.6119 7.04294C82.3302 6.95007 82.0288 6.88534 81.7358 6.81216L80.8541 6.59826C80.2654 6.46035 79.6851 6.2943 79.0879 6.19298C67.2913 3.68157 54.9898 5.27606 44.225 10.7118C33.4603 16.1476 24.8797 25.0977 19.9072 36.0769L19.2086 37.7402C19.0931 38.0217 18.9719 38.3031 18.8621 38.5846L18.555 39.4289C18.3522 39.9918 18.1381 40.5547 17.9438 41.1176L17.4142 42.8428C17.3297 43.1243 17.2311 43.4057 17.155 43.7069L16.9353 44.5822C16.7917 45.1676 16.6339 45.7474 16.4987 46.3356L16.1466 48.1059C16.0902 48.3873 16.0226 48.6941 15.9747 48.9924L15.8423 49.8846C14.3188 59.4652 15.482 69.2802 19.2029 78.2403C22.974 87.2182 29.146 94.9856 37.0425 100.691C38.9953 102.114 41.0443 103.399 43.1749 104.539L43.9721 104.972C44.2369 105.116 44.5158 105.237 44.7862 105.372L46.42 106.157L48.0764 106.863L48.9215 107.215L49.7665 107.525L51.4736 108.141L53.2116 108.673L54.0821 108.938L54.9638 109.157L56.7272 109.599L58.499 109.959L59.392 110.134L60.2906 110.263L62.0906 110.519L63.899 110.685C66.4686 110.902 69.0512 110.917 71.6231 110.73L72.5864 110.668L73.5442 110.561C74.1808 110.483 74.8203 110.426 75.4569 110.331L77.3555 110.015L77.8287 109.934L78.2992 109.833L79.24 109.63L80.1809 109.427C80.4935 109.357 80.8006 109.264 81.1105 109.182C81.7274 109.011 82.3499 108.859 82.964 108.676L84.795 108.088L85.2513 107.941L85.702 107.772L86.6035 107.435L87.5049 107.097C87.8035 106.981 88.0964 106.846 88.3922 106.723C88.9809 106.464 89.5753 106.224 90.1556 105.954L91.888 105.11C92.1697 104.975 92.4514 104.828 92.7331 104.665L93.5782 104.204L94.3782 103.767C94.6429 103.621 94.8993 103.455 95.1584 103.297L96.7162 102.343C97.719 101.651 98.7528 100.995 99.7162 100.235L100.451 99.6723L100.818 99.3909L101.173 99.1095L102.581 97.9358C103.049 97.539 103.491 97.114 103.947 96.7031L104.629 96.0839L105.28 95.4338C107.025 93.7178 108.652 91.8861 110.15 89.9512L111.254 88.4961C111.609 88.0036 111.944 87.497 112.291 86.9988L112.809 86.2502L113.288 85.479C113.606 84.964 113.933 84.4574 114.246 83.9423C114.868 82.8672 114.953 82.1158 114.347 83.1684Z" fill="#FF945C"/>
<g opacity="0.6">
<path opacity="0.6" d="M114.767 35.52L114.128 34.1888L113.423 32.8857C109.754 26.0456 104.567 20.1347 98.2599 15.6049C91.8035 11.0455 84.271 8.19445 76.809 6.95046C72.7159 6.26155 68.5579 6.03873 64.4145 6.28625C63.8962 6.30032 63.3807 6.35942 62.8652 6.41008L61.3159 6.56206L59.7779 6.79285C59.2652 6.86884 58.7497 6.9392 58.2427 7.05459L56.713 7.36418C56.4567 7.41203 56.2032 7.47113 55.9525 7.54149L55.1947 7.73569C54.6933 7.87079 54.1806 7.98055 53.6849 8.13816L52.1919 8.60536C51.944 8.68698 51.6905 8.75453 51.4454 8.84459L50.7102 9.12603L49.2369 9.67485L47.7947 10.2743L47.0707 10.5867C46.8285 10.6909 46.5975 10.8147 46.3609 10.9301L44.9524 11.6281C44.4791 11.8617 44.0284 12.1347 43.5665 12.3852L42.8763 12.7679L42.5327 12.9593L42.1975 13.1676L40.8566 14.0119C40.4031 14.2793 39.9805 14.5945 39.5439 14.8872C39.1073 15.1799 38.6735 15.4754 38.2509 15.7878L36.9974 16.742L36.3721 17.2204L35.7692 17.727L34.5551 18.7233L33.3946 19.7816C32.6058 20.4683 31.8903 21.2338 31.141 21.9599C30.9523 22.1401 30.7748 22.3315 30.6002 22.5228L30.0734 23.0998C29.7269 23.4882 29.3607 23.8597 29.0283 24.2622L28.0311 25.4668C27.8678 25.6694 27.6959 25.8636 27.5354 26.0719L27.0677 26.6967L26.1297 27.9463C25.8311 28.3741 25.5466 28.8103 25.2536 29.241C24.6508 30.0853 24.1269 31 23.5917 31.8894C23.31 32.3284 23.0818 32.7984 22.8283 33.2544L22.0902 34.6334L21.4198 36.0407C21.1945 36.5107 20.9663 36.9807 20.7747 37.4676C20.3776 38.433 19.9578 39.3899 19.6283 40.3862L19.1043 41.8666L18.6536 43.3723C18.0694 45.3581 17.5992 47.3756 17.2451 49.415C17.1578 49.9244 17.0987 50.4394 17.0226 50.9517L16.9156 51.72C16.8761 51.9761 16.8423 52.2322 16.8254 52.4912L16.6902 54.0391C16.6677 54.2981 16.6395 54.5542 16.6254 54.8131L16.5972 55.5899L16.5381 57.1463C16.5381 57.6642 16.5381 58.1848 16.5381 58.7027V59.4823V59.8707L16.5634 60.2591L16.6592 61.8155C16.6789 62.3361 16.7437 62.8512 16.8029 63.3691L16.9747 64.9198L17.2254 66.4621C17.3071 66.9772 17.3832 67.4922 17.5071 67.9988L17.8311 69.5215C17.8789 69.7776 17.9437 70.0281 18.0113 70.2785L18.2113 71.03C18.3494 71.531 18.4649 72.0376 18.6198 72.5329L19.0902 74.019C19.1691 74.2666 19.2423 74.5143 19.3297 74.762L19.6114 75.4937L20.155 76.9572C20.3522 77.4385 20.5635 77.9142 20.7635 78.3926C20.9635 78.8711 21.1607 79.3552 21.4001 79.8167C21.8564 80.7511 22.2931 81.6968 22.8086 82.603C23.0621 83.059 23.2987 83.5234 23.5663 83.9709L24.3804 85.3049C24.5184 85.5273 24.6621 85.7524 24.7889 85.972L25.2283 86.6193L26.1044 87.9224L27.0396 89.1776C27.3523 89.5941 27.6565 90.022 27.9973 90.416L28.9889 91.6234L29.2368 91.9245L29.4988 92.206L30.0199 92.7857C30.372 93.1685 30.7044 93.5682 31.0678 93.9425L32.1608 95.0683L32.7072 95.6312L33.2706 96.1603L34.4115 97.2241C34.8002 97.5703 35.203 97.8968 35.6002 98.2373C35.9974 98.5779 36.3861 98.9241 36.8059 99.2309C40.0877 101.829 43.6842 104.004 47.5102 105.704C55.2173 109.025 63.7554 110.579 72.1244 109.948C73.1752 109.9 74.2146 109.754 75.2597 109.636C75.7836 109.588 76.2991 109.484 76.8174 109.399C77.3358 109.315 77.8541 109.231 78.3724 109.135L79.9132 108.797L80.6851 108.631C80.9414 108.569 81.1921 108.496 81.4485 108.428L83.0062 107.989C83.5133 107.849 84.0091 107.671 84.5105 107.517C86.5095 106.869 88.4687 106.105 90.3781 105.228L91.7866 104.533L92.4936 104.187C92.7246 104.066 92.9528 103.934 93.1838 103.81L94.5584 103.05C95.0148 102.794 95.4514 102.504 95.8993 102.234C97.6801 101.131 99.3948 99.9257 101.035 98.6229L102.24 97.6125L102.843 97.1088L103.423 96.5768L104.578 95.5101C104.959 95.1499 105.316 94.7643 105.685 94.3844C108.624 91.4099 111.174 88.0755 113.274 84.4606C113.502 84.084 113.705 83.6929 113.883 83.2898C113.981 83.0083 113.99 82.8817 113.933 82.8761C113.877 82.8704 113.756 83.0027 113.556 83.2532C113.278 83.6221 113.023 84.0074 112.792 84.4071C110.506 88.23 107.745 91.7487 104.575 94.8797C102.982 96.4395 101.288 97.8939 99.5049 99.2337C98.6345 99.9288 97.6908 100.528 96.7782 101.167C96.3134 101.474 95.8317 101.755 95.3697 102.051C94.9077 102.346 94.4232 102.639 93.9274 102.895L92.457 103.7C91.9612 103.956 91.4542 104.193 90.9528 104.438L90.2006 104.803C89.9499 104.924 89.688 105.026 89.4316 105.138L87.8908 105.797C87.3696 106 86.8457 106.188 86.3217 106.385L85.5358 106.667C85.2738 106.76 85.0034 106.838 84.7386 106.923L83.1414 107.429L81.5245 107.86L80.7161 108.074C80.4344 108.139 80.1696 108.192 79.8991 108.251L78.2625 108.6L76.6118 108.882L75.7864 109.017C75.5048 109.056 75.2231 109.081 74.9554 109.115L73.2935 109.304C72.7301 109.349 72.1808 109.377 71.6258 109.416L70.7808 109.47C70.4991 109.49 70.2174 109.47 69.9357 109.49L68.2653 109.515C63.8175 109.473 59.3933 108.866 55.099 107.708C50.8114 106.513 46.6881 104.794 42.8228 102.588C38.9525 100.372 35.3769 97.6767 32.1805 94.5673C30.5788 93.0128 29.0816 91.3543 27.6987 89.6026C27.0311 88.7104 26.3353 87.8379 25.7269 86.9035C25.4198 86.4392 25.0875 85.9917 24.8001 85.5132L23.9325 84.0666C23.6311 83.5965 23.3889 83.0984 23.1184 82.6115L22.7241 81.8769C22.5917 81.6349 22.4593 81.39 22.3466 81.1367C21.8733 80.1348 21.3832 79.1413 20.9832 78.1084C20.1397 76.0711 19.433 73.9801 18.8677 71.849C17.748 67.5955 17.1511 63.2215 17.0902 58.8237C17.0902 58.2608 17.0677 57.7204 17.0902 57.1716L17.155 55.5195C17.155 55.2381 17.1719 54.9566 17.1888 54.6949L17.262 53.8731L17.4057 52.2266C17.9315 47.8471 18.992 43.5484 20.5635 39.4265L21.1945 37.901L21.51 37.1383L21.8649 36.3925L22.5691 34.9008C22.8227 34.4139 23.0874 33.9327 23.3466 33.4458C25.4493 29.5702 28.0352 25.9766 31.0424 22.7508C32.5514 21.1405 34.1643 19.6306 35.8706 18.2308C36.7157 17.5075 37.6087 16.8742 38.4876 16.21C38.9326 15.8835 39.3974 15.5908 39.8509 15.2784C40.3045 14.966 40.7608 14.6564 41.2369 14.3834L42.6453 13.5391C43.1214 13.2577 43.6115 13.0156 44.0932 12.7539C45.0482 12.2107 46.0651 11.7801 47.0426 11.2988C47.5412 11.0736 48.0538 10.8738 48.5552 10.6599L49.313 10.3447C49.5637 10.2377 49.8257 10.1561 50.082 10.0632L51.6257 9.50035C52.144 9.32586 52.6708 9.17669 53.1919 9.01345C57.3793 7.7518 61.7093 7.02274 66.0793 6.84351C68.2645 6.75678 70.453 6.80942 72.6315 7.00112C74.8091 7.18982 76.9729 7.51317 79.1104 7.96929C83.394 8.9082 87.5421 10.3824 91.457 12.357C92.4119 12.8833 93.3978 13.359 94.3218 13.9416C94.7894 14.223 95.2655 14.5045 95.7303 14.7859L97.0993 15.6922C97.3275 15.8441 97.5613 15.9736 97.781 16.1481L98.443 16.635C98.8824 16.9615 99.3331 17.2767 99.7697 17.6088L101.049 18.6417C101.26 18.8162 101.48 18.9823 101.685 19.1624L102.299 19.7112C102.708 20.0771 104.46 21.7179 105.285 22.5454C106.526 23.7776 107.68 25.0941 108.739 26.4856C109.618 27.6114 110.919 29.6181 110.919 29.6181C111.235 30.0656 111.511 30.5356 111.792 31.0028C112.074 31.47 112.356 31.9316 112.637 32.41C113.15 33.3754 113.702 34.3182 114.153 35.3117C115.136 37.2537 115.218 36.3953 114.767 35.52Z" fill="#FF945C"/>
</g>
<g opacity="0.7">
<path opacity="0.7" d="M117.331 81.0354C115.555 84.8552 113.333 88.4517 110.711 91.75C108.062 95.0787 105.019 98.0744 101.649 100.672C100.823 101.344 99.9389 101.938 99.0713 102.558C98.6431 102.876 98.1839 103.146 97.7389 103.436L96.3896 104.28C94.5625 105.371 92.676 106.36 90.7388 107.241C82.9627 110.815 74.444 112.481 65.8929 112.099C57.3418 111.716 49.0061 109.297 41.5807 105.043C37.8949 102.946 34.4734 100.417 31.389 97.5084C28.3297 94.5904 25.598 91.3478 23.2425 87.8379C20.8992 84.3102 18.9629 80.5288 17.4706 76.566C17.2678 76.0763 17.1129 75.5725 16.941 75.0715L16.4368 73.5686L16.0086 72.0432C15.8678 71.5338 15.71 71.03 15.6058 70.5121C15.3776 69.482 15.1129 68.4576 14.9523 67.4162L14.6706 65.857L14.4734 64.2865C14.3128 63.1974 14.2593 62.0969 14.1692 60.9993C14.1129 60.4504 14.1213 59.8988 14.1016 59.3472C14.0819 58.7955 14.065 58.2467 14.0593 57.6951C14.0669 55.4882 14.2023 53.2836 14.465 51.0924C14.5354 50.5464 14.5945 49.9975 14.6706 49.4487L14.9523 47.8192C15.1157 46.7271 15.3974 45.6577 15.634 44.5825C15.7439 44.0422 15.9157 43.5159 16.0594 42.9839L16.5129 41.3938L17.0425 39.8289C17.2171 39.3082 17.3918 38.7848 17.6058 38.2781L18.2171 36.7555C18.3157 36.4994 18.4256 36.2461 18.5439 35.9984L18.8875 35.2498C19.1213 34.7516 19.3354 34.245 19.5889 33.7581L20.3523 32.3002C20.4819 32.0582 20.603 31.8133 20.7354 31.5713L21.1523 30.8621L21.9974 29.4548C22.2791 28.9904 22.5974 28.5373 22.8988 28.0786C23.2002 27.6198 23.4904 27.1554 23.8256 26.7192C24.4735 25.8354 25.1045 24.9376 25.8115 24.0989C26.1608 23.6767 26.4904 23.2377 26.8538 22.8268L27.9468 21.5969C28.1299 21.3942 28.3073 21.1831 28.4961 20.9861L29.0594 20.3979L30.2088 19.2215L31.4116 18.0957C31.8116 17.7185 32.2088 17.3414 32.6341 16.9952C35.9476 14.0897 39.5903 11.5818 43.4877 9.52285L44.9582 8.76013L46.4624 8.07059C47.4568 7.5865 48.4962 7.22625 49.5188 6.79845C50.0314 6.59299 50.5582 6.43539 51.0793 6.24963L51.8624 5.98226C52.1216 5.88938 52.3836 5.80495 52.6512 5.73458C53.7132 5.45314 54.7639 5.10696 55.8428 4.89025C60.0353 3.9129 64.3368 3.48246 68.64 3.60967C72.9084 3.74133 77.15 4.33394 81.2908 5.37715C81.5528 5.43344 81.812 5.5038 82.0683 5.57979L82.843 5.79932C83.3585 5.94849 83.8768 6.08077 84.3895 6.24119L85.9162 6.75061L86.6796 7.00391C86.936 7.08834 87.181 7.19529 87.4317 7.28535L88.936 7.86513L89.3134 8.01148L89.6825 8.17472L90.4205 8.5012C90.9106 8.72354 91.4092 8.92618 91.8937 9.16259L93.336 9.88591C97.1796 11.8379 100.758 14.2724 103.984 17.1303C104.807 17.8171 105.55 18.591 106.325 19.3256C106.522 19.5085 106.705 19.7027 106.888 19.8885L107.438 20.4739C107.798 20.8679 108.178 21.2451 108.528 21.6532L109.567 22.8746C109.739 23.0801 109.916 23.2799 110.085 23.4882L110.576 24.1242L111.559 25.3936C111.871 25.827 112.173 26.2689 112.483 26.7051C113.116 27.5691 113.663 28.4895 114.243 29.3901C114.716 30.1922 114.925 31.7092 112.742 28.3347C112.485 27.9013 112.178 27.4903 111.897 27.0879L111.035 25.8495L110.102 24.6815C109.795 24.2847 109.5 23.8766 109.164 23.4994C108.508 22.7395 107.883 21.9515 107.178 21.2338L106.147 20.1362C105.792 19.7815 105.426 19.4382 105.066 19.092C102.17 16.3201 98.9553 13.9024 95.4881 11.8898C92.0253 9.87968 88.3599 8.24011 84.5528 6.99828C80.7601 5.74186 76.8408 4.90471 72.8654 4.50185C68.8872 4.09571 64.8751 4.15428 60.9104 4.67635C56.7196 5.23798 52.6167 6.32641 48.699 7.91579C47.7075 8.28448 46.7554 8.74606 45.7892 9.17667C45.3018 9.38494 44.8399 9.64105 44.3807 9.87747C43.9215 10.1139 43.437 10.3559 42.9722 10.6036C41.1227 11.6213 39.3304 12.7393 37.6032 13.9528C35.8772 15.1612 34.2175 16.4614 32.6313 17.848L31.4566 18.9203C31.0735 19.2806 30.6764 19.6267 30.3158 20.0123C29.5806 20.7666 28.8256 21.5012 28.1411 22.3033C25.3041 25.4361 22.8728 28.9129 20.9044 32.6521C18.936 36.4023 17.4356 40.3798 16.4368 44.4953C15.4554 48.6094 14.9293 52.8188 14.8678 57.0478C14.7962 61.3841 15.2435 65.7134 16.2002 69.9436C17.1455 74.1911 18.6298 78.3006 20.6171 82.1724C24.6484 89.9742 30.5234 96.6758 37.7328 101.696C38.1666 102.028 38.637 102.307 39.0905 102.611C39.544 102.915 39.9976 103.205 40.4708 103.486L41.8793 104.317L42.5835 104.733L43.3074 105.113L44.7554 105.876C45.2427 106.121 45.7413 106.34 46.2342 106.574C47.2145 107.055 48.2342 107.446 49.2427 107.86C49.7441 108.077 50.2624 108.246 50.7779 108.423L52.3244 108.963L53.8991 109.422C54.4258 109.571 54.9442 109.74 55.4822 109.855C56.547 110.1 57.6061 110.385 58.6907 110.556L60.3076 110.838L61.9386 111.049C64.1225 111.318 66.3213 111.45 68.5217 111.443L70.1724 111.389C70.7358 111.367 71.2739 111.364 71.8203 111.305C72.9161 111.206 74.0147 111.136 75.1049 110.961C75.6485 110.883 76.195 110.818 76.7387 110.728L78.3584 110.421L79.1697 110.269L79.9725 110.078L81.5753 109.695C82.1077 109.557 82.6317 109.394 83.1585 109.245C83.6852 109.096 84.2176 108.963 84.7331 108.766C85.7698 108.409 86.8148 108.079 87.8317 107.657C89.8773 106.865 91.8768 105.958 93.8205 104.941C95.7538 103.909 97.6255 102.765 99.4262 101.516C100.345 100.908 101.204 100.227 102.077 99.5461C102.522 99.2224 102.922 98.8509 103.35 98.4991C103.778 98.1473 104.195 97.7955 104.601 97.4268L105.804 96.301C106.004 96.1124 106.207 95.9295 106.401 95.7381L106.964 95.1442L108.108 93.9594L109.19 92.7182C112.065 89.3852 114.512 85.7064 116.474 81.7671C117.446 79.8815 118.085 79.3833 117.331 81.0354Z" fill="#FF945C"/>
</g>
</g>
<path d="M41.6136 55.3871V61.5038C41.6136 63.2632 41.6629 64.4635 41.7615 65.1048C41.8766 65.746 42.0328 66.1489 42.2302 66.3133C42.6083 66.6257 43.2085 66.7819 44.0306 66.7819L44.08 67.0779H37.4207L37.47 66.7819C37.8811 66.7819 38.2017 66.7655 38.4319 66.7326C38.6621 66.6997 38.8758 66.6093 39.0731 66.4613C39.2869 66.3133 39.4349 66.1489 39.5171 65.968C39.6158 65.7707 39.698 65.45 39.7637 65.0061C39.846 64.4306 39.8871 63.2632 39.8871 61.5038V55.3871C39.8871 53.6771 39.8377 52.485 39.7391 51.8108C39.6404 51.1366 39.4924 50.7174 39.2951 50.5529C38.9005 50.2405 38.2921 50.0843 37.47 50.0843L37.4207 49.813H44.08L44.0306 50.0843C43.2085 50.0843 42.6083 50.2405 42.2302 50.5529C41.8191 50.8982 41.6136 52.5096 41.6136 55.3871Z" fill="#282828"/>
<path d="M50.7668 55.1651V59.58C50.9148 58.3961 51.3259 57.3684 52 56.497C52.6742 55.6091 53.5703 55.1651 54.6884 55.1651C57.2041 55.1651 58.462 56.4805 58.462 59.1114V63.0083C58.462 64.7183 58.5689 65.7789 58.7827 66.19C59.0128 66.5846 59.6048 66.7819 60.5585 66.7819L60.6078 67.0779H54.6144L54.6637 66.7819C55.6503 66.7819 56.2423 66.5764 56.4396 66.1653C56.6369 65.7542 56.7355 64.6279 56.7355 62.7863V59.358C56.7355 58.2235 56.5547 57.3684 56.1929 56.7929C55.8476 56.2175 55.2886 55.9297 54.5158 55.9297C53.7594 55.9297 53.1264 56.1928 52.6166 56.719C52.1069 57.2287 51.7287 57.8782 51.4821 58.6674C51.0052 60.1966 50.7668 61.734 50.7668 63.2796C50.7668 64.8252 50.8655 65.7953 51.0628 66.19C51.2765 66.5846 51.8685 66.7819 52.8386 66.7819L52.8879 67.0779H46.8699L46.9192 66.7819C47.9058 66.7819 48.5059 66.5846 48.7197 66.19C48.9335 65.7789 49.0403 64.7019 49.0403 62.959V60.9858C49.0403 58.5194 48.917 57.0314 48.6704 56.5216C48.5882 56.3408 48.4402 56.1763 48.2264 56.0284C48.0291 55.8804 47.8071 55.7899 47.5605 55.7571C47.3303 55.7242 47.0097 55.7077 46.5986 55.7077L46.5493 55.4364C47.9798 55.2556 49.3856 55.1651 50.7668 55.1651Z" fill="#282828"/>
<path d="M66.8696 55.9544V61.5038C66.8696 63.2632 66.9189 64.4635 67.0176 65.1048C67.1327 65.746 67.2889 66.1489 67.4862 66.3133C67.8644 66.6257 68.4645 66.7819 69.2867 66.7819L69.336 67.0779H62.7014L62.7507 66.7819C63.1453 66.7819 63.4577 66.7655 63.6879 66.7326C63.9346 66.6997 64.1565 66.6093 64.3538 66.4613C64.5512 66.3133 64.6909 66.1489 64.7731 65.968C64.8718 65.7707 64.954 65.45 65.0198 65.0061C65.102 64.4306 65.1431 63.2632 65.1431 61.5038V55.9544H62.874V55.4118H65.1431C65.1431 52.3041 65.735 50.2981 66.9189 49.3937C67.5437 48.9333 68.2919 48.7031 69.1633 48.7031C70.0348 48.7031 70.8652 48.9333 71.6544 49.3937C72.4437 49.8541 72.8383 50.3803 72.8383 50.9722C72.8383 51.2189 72.7396 51.4326 72.5423 51.6135C72.3615 51.7944 72.1148 51.8848 71.8024 51.8848C71.49 51.8848 71.2187 51.7533 70.9885 51.4902C70.7583 51.2271 70.5856 50.9476 70.4705 50.6516C70.3719 50.3392 70.191 50.0514 69.9279 49.7883C69.6649 49.5253 69.336 49.3937 68.9414 49.3937C68.1028 49.3937 67.5437 49.7883 67.2642 50.5776C67.0011 51.3504 66.8696 52.5754 66.8696 54.2525V55.4118H70.1252V55.9544H66.8696Z" fill="#282828"/>
<path d="M72.1094 61.2572C72.1094 59.5307 72.6026 58.0837 73.5892 56.9163C74.5758 55.7488 75.9158 55.1651 77.6095 55.1651C79.3031 55.1651 80.6678 55.7488 81.7037 56.9163C82.7396 58.0837 83.2575 59.5307 83.2575 61.2572C83.2575 62.9836 82.756 64.4306 81.753 65.598C80.7665 66.749 79.4264 67.3245 77.7328 67.3245C76.0392 67.3245 74.6744 66.7408 73.6385 65.5734C72.6191 64.4059 72.1094 62.9672 72.1094 61.2572ZM74.9457 65.2527C75.6034 66.3051 76.5325 66.8312 77.7328 66.8312C78.9331 66.8312 79.8374 66.3133 80.4458 65.2774C81.0706 64.2415 81.3831 62.9096 81.3831 61.2818C81.3831 59.6375 81.0542 58.2892 80.3965 57.2369C79.7388 56.1846 78.8098 55.6584 77.6095 55.6584C76.4256 55.6584 75.5212 56.1846 74.8964 57.2369C74.288 58.2728 73.9838 59.6047 73.9838 61.2325C73.9838 62.8603 74.3045 64.2004 74.9457 65.2527Z" fill="#282828"/>
<path d="M93.3261 55.0418C93.7371 55.0418 94.0989 55.1322 94.4113 55.3131C94.7237 55.494 94.8799 55.7406 94.8799 56.053C94.8799 56.3654 94.7813 56.6121 94.5839 56.7929C94.3866 56.9738 94.1647 57.0643 93.918 57.0643C93.6714 57.0643 93.359 56.9574 92.9808 56.7436C92.619 56.5299 92.2326 56.423 91.8216 56.423C91.1803 56.423 90.6541 57.0149 90.2431 58.1988C89.8484 59.3827 89.6511 60.7556 89.6511 62.3177C89.6511 64.4224 89.758 65.6967 89.9718 66.1406C90.0375 66.2886 90.1608 66.4284 90.3417 66.5599C90.5226 66.675 90.7117 66.7408 90.909 66.7572C91.1063 66.7737 91.3858 66.7819 91.7476 66.7819L91.7969 67.0779H85.8035L85.8528 66.7819C86.379 66.7819 86.7572 66.7572 86.9874 66.7079C87.234 66.6421 87.4396 66.4366 87.604 66.0913C87.7684 65.746 87.8589 65.3185 87.8753 64.8088C87.9082 64.2826 87.9246 63.4523 87.9246 62.3177V60.8872C87.9246 58.6016 87.8589 57.3027 87.7273 56.9903C87.6122 56.6779 87.5053 56.4312 87.4067 56.2503C87.308 56.0695 87.16 55.9461 86.9627 55.8804C86.601 55.7817 86.1242 55.7324 85.5322 55.7324L85.4829 55.4611C86.8805 55.2638 88.2699 55.1651 89.6511 55.1651V58.7907C89.832 57.6233 90.2348 56.7107 90.8597 56.053C91.5009 55.3789 92.3231 55.0418 93.3261 55.0418Z" fill="#282828"/>
<path d="M107.536 59.58C107.684 58.3961 108.062 57.3684 108.67 56.497C109.295 55.6091 110.158 55.1651 111.26 55.1651C112.362 55.1651 113.217 55.5022 113.825 56.1763C114.434 56.8505 114.738 57.8288 114.738 59.1114V63.0083C114.738 64.7183 114.845 65.7789 115.058 66.19C115.289 66.5846 115.881 66.7819 116.834 66.7819L116.884 67.0779H111.063L111.112 66.7819C112.017 66.7819 112.559 66.5764 112.74 66.1653C112.921 65.7542 113.011 64.6279 113.011 62.7863V59.358C113.011 58.2235 112.847 57.3684 112.518 56.7929C112.206 56.2175 111.696 55.9297 110.989 55.9297C110.282 55.9297 109.698 56.1928 109.238 56.719C108.777 57.2287 108.432 57.8782 108.202 58.6674C107.758 60.1966 107.536 61.734 107.536 63.2796C107.536 64.8252 107.635 65.7953 107.832 66.19C108.046 66.5846 108.638 66.7819 109.608 66.7819L109.657 67.0779H103.861L103.91 66.7819C104.815 66.7819 105.357 66.5764 105.538 66.1653C105.719 65.7542 105.809 64.6279 105.809 62.7863V59.358C105.809 58.2235 105.645 57.3684 105.316 56.7929C105.004 56.2175 104.494 55.9297 103.787 55.9297C103.08 55.9297 102.496 56.1928 102.036 56.719C101.575 57.2287 101.23 57.8782 101 58.6674C100.556 60.1966 100.334 61.734 100.334 63.2796C100.334 64.8252 100.433 65.7953 100.63 66.19C100.844 66.5846 101.436 66.7819 102.406 66.7819L102.455 67.0779H96.437L96.4863 66.7819C97.4729 66.7819 98.0731 66.5846 98.2868 66.19C98.5006 65.7789 98.6075 64.7019 98.6075 62.959V60.9858C98.6075 58.5194 98.4841 57.0314 98.2375 56.5216C98.1553 56.3408 98.0073 56.1763 97.7935 56.0284C97.5962 55.8804 97.3743 55.7899 97.1276 55.7571C96.8974 55.7242 96.5768 55.7077 96.1657 55.7077L96.1164 55.4364C97.5469 55.2556 98.9528 55.1651 100.334 55.1651V59.58C100.482 58.3961 100.86 57.3684 101.469 56.497C102.093 55.6091 102.957 55.1651 104.058 55.1651C106.377 55.1651 107.536 56.6367 107.536 59.58Z" fill="#282828"/>
<path d="M128.287 59.1114V61.6024C128.287 63.4276 128.344 64.6279 128.459 65.2034C128.575 65.7625 128.854 66.042 129.298 66.042C129.578 66.042 129.948 65.9269 130.408 65.6967L130.531 65.9433C130.4 66.042 130.227 66.1653 130.013 66.3133C129.8 66.4448 129.364 66.6257 128.706 66.8559C128.048 67.0861 127.415 67.2012 126.807 67.2012C126.643 66.5106 126.56 65.4089 126.56 63.8962C126.199 64.9157 125.722 65.746 125.13 66.3873C124.554 67.0121 123.749 67.3245 122.713 67.3245C121.677 67.3245 120.855 67.0532 120.246 66.5106C119.654 65.9516 119.358 65.1952 119.358 64.2415C119.358 61.5942 121.759 60.2624 126.56 60.2459V59.358C126.56 58.1741 126.388 57.2698 126.042 56.645C125.697 56.0201 125.056 55.7077 124.119 55.7077C123.592 55.7077 123.165 55.8393 122.836 56.1024C122.507 56.3654 122.285 56.6532 122.17 56.9656C121.891 57.8206 121.471 58.2481 120.912 58.2481C120.37 58.2481 120.098 57.9439 120.098 57.3356C120.098 56.7107 120.509 56.1928 121.332 55.7817C122.154 55.3707 123.148 55.1651 124.316 55.1651C125.483 55.1651 126.437 55.5022 127.177 56.1763C127.917 56.8341 128.287 57.8124 128.287 59.1114ZM121.233 64.3402C121.233 64.9814 121.389 65.5158 121.702 65.9433C122.014 66.3544 122.507 66.5599 123.181 66.5599C123.872 66.5599 124.497 66.2311 125.056 65.5734C125.615 64.8992 125.993 64.1593 126.19 63.3536C126.404 62.5315 126.527 61.6847 126.56 60.8132C124.735 60.8296 123.387 61.1667 122.515 61.8244C121.66 62.4821 121.233 63.3207 121.233 64.3402Z" fill="#282828"/>
<path d="M135.99 55.4118H139.024V55.9544H135.99V65.3514C135.99 65.6967 136.072 65.9762 136.237 66.19C136.401 66.3873 136.615 66.4859 136.878 66.4859C137.47 66.4859 138.169 66.3133 138.974 65.968L139.024 66.2393C137.873 66.9628 136.853 67.3245 135.965 67.3245C135.39 67.3245 134.962 67.1848 134.683 66.9052C134.403 66.6257 134.263 66.1406 134.263 65.45V55.9544H132.784V55.4118C133.672 55.4118 134.288 55.1651 134.633 54.6718C134.995 54.1621 135.266 53.414 135.447 52.4274L135.99 52.3781V55.4118Z" fill="#282828"/>
<path d="M143.052 52.2054C142.773 51.9259 142.633 51.597 142.633 51.2189C142.633 50.8407 142.773 50.5118 143.052 50.2323C143.332 49.9528 143.661 49.813 144.039 49.813C144.417 49.813 144.746 49.9528 145.025 50.2323C145.305 50.5118 145.445 50.8407 145.445 51.2189C145.445 51.597 145.305 51.9259 145.025 52.2054C144.746 52.485 144.417 52.6247 144.039 52.6247C143.661 52.6247 143.332 52.485 143.052 52.2054ZM144.976 55.1651V63.0083C144.976 64.7348 145.075 65.7953 145.272 66.19C145.486 66.5846 146.078 66.7819 147.048 66.7819L147.097 67.0779H141.079L141.128 66.7819C142.115 66.7819 142.715 66.5846 142.929 66.19C143.143 65.7789 143.249 64.7019 143.249 62.959V61.2325C143.249 59.3251 143.192 58.0673 143.077 57.4589C142.978 56.8341 142.83 56.4312 142.633 56.2503C142.238 55.8886 141.63 55.7077 140.808 55.7077L140.758 55.4364C142.189 55.2556 143.595 55.1651 144.976 55.1651Z" fill="#282828"/>
<path d="M149.326 61.2572C149.326 59.5307 149.82 58.0837 150.806 56.9163C151.793 55.7488 153.133 55.1651 154.826 55.1651C156.52 55.1651 157.885 55.7488 158.921 56.9163C159.957 58.0837 160.474 59.5307 160.474 61.2572C160.474 62.9836 159.973 64.4306 158.97 65.598C157.983 66.749 156.643 67.3245 154.95 67.3245C153.256 67.3245 151.891 66.7408 150.855 65.5734C149.836 64.4059 149.326 62.9672 149.326 61.2572ZM152.163 65.2527C152.82 66.3051 153.749 66.8312 154.95 66.8312C156.15 66.8312 157.054 66.3133 157.663 65.2774C158.288 64.2415 158.6 62.9096 158.6 61.2818C158.6 59.6375 158.271 58.2892 157.613 57.2369C156.956 56.1846 156.027 55.6584 154.826 55.6584C153.643 55.6584 152.738 56.1846 152.113 57.2369C151.505 58.2728 151.201 59.6047 151.201 61.2325C151.201 62.8603 151.521 64.2004 152.163 65.2527Z" fill="#282828"/>
<path d="M166.917 55.1651V59.58C167.065 58.3961 167.476 57.3684 168.151 56.497C168.825 55.6091 169.721 55.1651 170.839 55.1651C173.355 55.1651 174.613 56.4805 174.613 59.1114V63.0083C174.613 64.7183 174.719 65.7789 174.933 66.19C175.163 66.5846 175.755 66.7819 176.709 66.7819L176.758 67.0779H170.765L170.814 66.7819C171.801 66.7819 172.393 66.5764 172.59 66.1653C172.787 65.7542 172.886 64.6279 172.886 62.7863V59.358C172.886 58.2235 172.705 57.3684 172.343 56.7929C171.998 56.2175 171.439 55.9297 170.666 55.9297C169.91 55.9297 169.277 56.1928 168.767 56.719C168.257 57.2287 167.879 57.8782 167.633 58.6674C167.156 60.1966 166.917 61.734 166.917 63.2796C166.917 64.8252 167.016 65.7953 167.213 66.19C167.427 66.5846 168.019 66.7819 168.989 66.7819L169.038 67.0779H163.02L163.07 66.7819C164.056 66.7819 164.657 66.5846 164.87 66.19C165.084 65.7789 165.191 64.7019 165.191 62.959V60.9858C165.191 58.5194 165.068 57.0314 164.821 56.5216C164.739 56.3408 164.591 56.1763 164.377 56.0284C164.18 55.8804 163.958 55.7899 163.711 55.7571C163.481 55.7242 163.16 55.7077 162.749 55.7077L162.7 55.4364C164.13 55.2556 165.536 55.1651 166.917 55.1651Z" fill="#282828"/>
<path d="M195.574 66.7819C196.199 66.7819 196.635 66.7326 196.881 66.6339C197.144 66.5353 197.276 66.2804 197.276 65.8693C197.276 65.4583 196.84 64.0606 195.969 61.6764H188.446C187.739 63.7647 187.386 65.0801 187.386 65.6227C187.386 66.1489 187.517 66.4777 187.78 66.6093C188.06 66.7244 188.553 66.7819 189.26 66.7819L189.309 67.0779H183.76L183.809 66.7819C184.286 66.7819 184.656 66.7408 184.919 66.6586C185.199 66.5764 185.495 66.3626 185.807 66.0173C186.136 65.6556 186.448 65.1376 186.744 64.4635C187.04 63.7893 187.394 62.8439 187.805 61.6271L190 55.2884C190.773 53.0522 191.159 51.6957 191.159 51.2189C191.159 50.742 191.044 50.4378 190.814 50.3063C190.584 50.1583 190.14 50.0843 189.482 50.0843L189.433 49.813H193.502L197.868 61.6271C198.608 63.5838 199.101 64.8252 199.348 65.3514C199.611 65.8776 199.857 66.2146 200.088 66.3626C200.499 66.6421 201.017 66.7819 201.642 66.7819L201.691 67.0779H195.525L195.574 66.7819ZM192.121 51.1449L188.644 61.0845H195.771L192.121 51.1449Z" fill="#282828"/>
<path d="M209.886 55.0418C210.297 55.0418 210.659 55.1322 210.971 55.3131C211.284 55.494 211.44 55.7406 211.44 56.053C211.44 56.3654 211.341 56.6121 211.144 56.7929C210.947 56.9738 210.725 57.0643 210.478 57.0643C210.231 57.0643 209.919 56.9574 209.541 56.7436C209.179 56.5299 208.793 56.423 208.382 56.423C207.74 56.423 207.214 57.0149 206.803 58.1988C206.408 59.3827 206.211 60.7556 206.211 62.3177C206.211 64.4224 206.318 65.6967 206.532 66.1406C206.598 66.2886 206.721 66.4284 206.902 66.5599C207.083 66.675 207.272 66.7408 207.469 66.7572C207.666 66.7737 207.946 66.7819 208.308 66.7819L208.357 67.0779H202.364L202.413 66.7819C202.939 66.7819 203.317 66.7572 203.547 66.7079C203.794 66.6421 204 66.4366 204.164 66.0913C204.328 65.746 204.419 65.3185 204.435 64.8088C204.468 64.2826 204.485 63.4523 204.485 62.3177V60.8872C204.485 58.6016 204.419 57.3027 204.287 56.9903C204.172 56.6779 204.065 56.4312 203.967 56.2503C203.868 56.0695 203.72 55.9461 203.523 55.8804C203.161 55.7817 202.684 55.7324 202.092 55.7324L202.043 55.4611C203.441 55.2638 204.83 55.1651 206.211 55.1651V58.7907C206.392 57.6233 206.795 56.7107 207.42 56.053C208.061 55.3789 208.883 55.0418 209.886 55.0418Z" fill="#282828"/>
<path d="M217.96 67.3245C216.513 67.3245 215.272 66.7901 214.236 65.7214C213.2 64.6526 212.682 63.2056 212.682 61.3805C212.682 59.5389 213.151 58.0426 214.088 56.8916C215.042 55.7406 216.39 55.1651 218.133 55.1651C219.218 55.1651 220.164 55.346 220.969 55.7077C221.775 56.053 222.178 56.5381 222.178 57.1629C222.178 57.722 221.874 58.0015 221.265 58.0015C220.953 58.0015 220.69 57.8782 220.476 57.6315C220.279 57.3849 220.123 57.1218 220.007 56.8423C219.909 56.5463 219.703 56.275 219.391 56.0284C219.078 55.7817 218.667 55.6584 218.158 55.6584C216.974 55.6584 216.078 56.1517 215.469 57.1382C214.861 58.1248 214.557 59.4813 214.557 61.2078C214.557 62.9179 214.918 64.2497 215.642 65.2034C216.365 66.1406 217.261 66.6093 218.33 66.6093C219.958 66.6093 221.117 65.9516 221.808 64.6361L222.178 64.8334C221.339 66.4942 219.933 67.3245 217.96 67.3245Z" fill="#282828"/>
<path d="M228.127 48.9251V59.58C228.275 58.3961 228.686 57.3684 229.36 56.497C230.034 55.6091 230.93 55.1651 232.048 55.1651C234.564 55.1651 235.822 56.4805 235.822 59.1114V63.0083C235.822 64.7183 235.929 65.7789 236.143 66.19C236.373 66.5846 236.965 66.7819 237.918 66.7819L237.968 67.0779H231.974L232.024 66.7819C233.01 66.7819 233.602 66.5764 233.799 66.1653C233.997 65.7542 234.095 64.6279 234.095 62.7863V59.358C234.095 58.2235 233.915 57.3684 233.553 56.7929C233.208 56.2175 232.648 55.9297 231.876 55.9297C231.119 55.9297 230.486 56.1928 229.977 56.719C229.467 57.2287 229.089 57.8782 228.842 58.6674C228.365 60.1966 228.127 61.734 228.127 63.2796C228.127 64.8252 228.225 65.7953 228.423 66.19C228.636 66.5846 229.228 66.7819 230.199 66.7819L230.248 67.0779H224.23L224.279 66.7819C225.266 66.7819 225.866 66.5846 226.08 66.19C226.293 65.7789 226.4 64.7019 226.4 62.959V54.7458C226.4 52.2794 226.285 50.7996 226.055 50.3063C225.956 50.109 225.8 49.9363 225.586 49.7883C225.389 49.6404 225.167 49.5499 224.92 49.517C224.69 49.4842 224.37 49.4677 223.958 49.4677L223.909 49.1964C225.34 49.0155 226.746 48.9251 228.127 48.9251Z" fill="#282828"/>
<path d="M242.235 52.2054C241.955 51.9259 241.815 51.597 241.815 51.2189C241.815 50.8407 241.955 50.5118 242.235 50.2323C242.514 49.9528 242.843 49.813 243.221 49.813C243.599 49.813 243.928 49.9528 244.208 50.2323C244.487 50.5118 244.627 50.8407 244.627 51.2189C244.627 51.597 244.487 51.9259 244.208 52.2054C243.928 52.485 243.599 52.6247 243.221 52.6247C242.843 52.6247 242.514 52.485 242.235 52.2054ZM244.158 55.1651V63.0083C244.158 64.7348 244.257 65.7953 244.454 66.19C244.668 66.5846 245.26 66.7819 246.23 66.7819L246.279 67.0779H240.261L240.311 66.7819C241.297 66.7819 241.898 66.5846 242.111 66.19C242.325 65.7789 242.432 64.7019 242.432 62.959V61.2325C242.432 59.3251 242.374 58.0673 242.259 57.4589C242.161 56.8341 242.013 56.4312 241.815 56.2503C241.421 55.8886 240.812 55.7077 239.99 55.7077L239.941 55.4364C241.371 55.2556 242.777 55.1651 244.158 55.1651Z" fill="#282828"/>
<path d="M251.863 55.4118H254.897V55.9544H251.863V65.3514C251.863 65.6967 251.945 65.9762 252.11 66.19C252.274 66.3873 252.488 66.4859 252.751 66.4859C253.343 66.4859 254.042 66.3133 254.847 65.968L254.897 66.2393C253.746 66.9628 252.726 67.3245 251.838 67.3245C251.263 67.3245 250.835 67.1848 250.556 66.9052C250.276 66.6257 250.137 66.1406 250.137 65.45V55.9544H248.657V55.4118C249.545 55.4118 250.161 55.1651 250.506 54.6718C250.868 54.1621 251.14 53.414 251.32 52.4274L251.863 52.3781V55.4118Z" fill="#282828"/>
<path d="M266.842 60.8379H258.753V61.2572C258.753 63.0001 259.123 64.3319 259.862 65.2527C260.602 66.1571 261.523 66.6093 262.625 66.6093C264.269 66.6093 265.453 65.9516 266.176 64.6361L266.546 64.8334C265.691 66.4942 264.261 67.3245 262.255 67.3245C260.775 67.3245 259.509 66.7901 258.457 65.7214C257.404 64.6526 256.878 63.2138 256.878 61.4051C256.878 59.58 257.339 58.0837 258.259 56.9163C259.197 55.7488 260.438 55.1651 261.984 55.1651C263.546 55.1651 264.746 55.6995 265.585 56.7683C266.423 57.8206 266.842 59.1771 266.842 60.8379ZM262.058 55.6584C261.104 55.6584 260.348 56.0695 259.788 56.8916C259.246 57.6973 258.917 58.7743 258.802 60.1226H264.943C264.828 57.1465 263.866 55.6584 262.058 55.6584Z" fill="#282828"/>
<path d="M274.837 67.3245C273.39 67.3245 272.149 66.7901 271.113 65.7214C270.077 64.6526 269.559 63.2056 269.559 61.3805C269.559 59.5389 270.028 58.0426 270.965 56.8916C271.918 55.7406 273.267 55.1651 275.01 55.1651C276.095 55.1651 277.04 55.346 277.846 55.7077C278.652 56.053 279.055 56.5381 279.055 57.1629C279.055 57.722 278.75 58.0015 278.142 58.0015C277.83 58.0015 277.567 57.8782 277.353 57.6315C277.155 57.3849 276.999 57.1218 276.884 56.8423C276.786 56.5463 276.58 56.275 276.268 56.0284C275.955 55.7817 275.544 55.6584 275.034 55.6584C273.85 55.6584 272.954 56.1517 272.346 57.1382C271.738 58.1248 271.433 59.4813 271.433 61.2078C271.433 62.9179 271.795 64.2497 272.519 65.2034C273.242 66.1406 274.138 66.6093 275.207 66.6093C276.835 66.6093 277.994 65.9516 278.685 64.6361L279.055 64.8334C278.216 66.4942 276.81 67.3245 274.837 67.3245Z" fill="#282828"/>
<path d="M284.51 55.4118H287.544V55.9544H284.51V65.3514C284.51 65.6967 284.592 65.9762 284.757 66.19C284.921 66.3873 285.135 66.4859 285.398 66.4859C285.99 66.4859 286.689 66.3133 287.495 65.968L287.544 66.2393C286.393 66.9628 285.373 67.3245 284.486 67.3245C283.91 67.3245 283.483 67.1848 283.203 66.9052C282.923 66.6257 282.784 66.1406 282.784 65.45V55.9544H281.304V55.4118C282.192 55.4118 282.808 55.1651 283.154 54.6718C283.515 54.1621 283.787 53.414 283.968 52.4274L284.51 52.3781V55.4118Z" fill="#282828"/>
<path d="M298.454 64.3895C298.717 63.7482 298.906 63.0987 299.021 62.441C299.153 61.7833 299.218 61.0763 299.218 60.3199C299.218 59.5635 299.202 58.9305 299.169 58.4208C299.136 57.9111 299.079 57.4589 298.996 57.0643C298.914 56.6532 298.774 56.3572 298.577 56.1763C298.215 55.8639 297.615 55.7077 296.777 55.7077L296.727 55.4364C298.158 55.2556 299.564 55.1651 300.945 55.1651V61.6024C300.945 63.4276 301.002 64.6279 301.117 65.2034C301.233 65.7625 301.512 66.042 301.956 66.042C302.236 66.042 302.605 65.9269 303.066 65.6967L303.189 65.9433C303.058 66.042 302.885 66.1653 302.671 66.3133C302.458 66.4448 302.022 66.6257 301.364 66.8559C300.706 67.0861 300.073 67.2012 299.465 67.2012C299.3 66.2475 299.218 65.1459 299.218 63.8962C298.462 66.1817 297.155 67.3245 295.297 67.3245C292.781 67.3245 291.523 66.0091 291.523 63.3783V60.9858C291.523 58.5194 291.4 57.0314 291.153 56.5216C291.071 56.3408 290.923 56.1763 290.709 56.0284C290.512 55.8804 290.29 55.7899 290.043 55.7571C289.813 55.7242 289.492 55.7077 289.081 55.7077L289.032 55.4364C290.463 55.2556 291.868 55.1651 293.25 55.1651V63.1316C293.25 64.2662 293.422 65.1212 293.768 65.6967C294.129 66.2722 294.68 66.5599 295.42 66.5599C296.176 66.5599 296.801 66.3544 297.294 65.9433C297.804 65.5323 298.191 65.0143 298.454 64.3895Z" fill="#282828"/>
<path d="M312.886 55.0418C313.297 55.0418 313.658 55.1322 313.971 55.3131C314.283 55.494 314.439 55.7406 314.439 56.053C314.439 56.3654 314.341 56.6121 314.144 56.7929C313.946 56.9738 313.724 57.0643 313.478 57.0643C313.231 57.0643 312.919 56.9574 312.54 56.7436C312.179 56.5299 311.792 56.423 311.381 56.423C310.74 56.423 310.214 57.0149 309.803 58.1988C309.408 59.3827 309.211 60.7556 309.211 62.3177C309.211 64.4224 309.318 65.6967 309.531 66.1406C309.597 66.2886 309.72 66.4284 309.901 66.5599C310.082 66.675 310.271 66.7408 310.469 66.7572C310.666 66.7737 310.945 66.7819 311.307 66.7819L311.356 67.0779H305.363L305.412 66.7819C305.939 66.7819 306.317 66.7572 306.547 66.7079C306.794 66.6421 306.999 66.4366 307.164 66.0913C307.328 65.746 307.418 65.3185 307.435 64.8088C307.468 64.2826 307.484 63.4523 307.484 62.3177V60.8872C307.484 58.6016 307.418 57.3027 307.287 56.9903C307.172 56.6779 307.065 56.4312 306.966 56.2503C306.868 56.0695 306.72 55.9461 306.522 55.8804C306.161 55.7817 305.684 55.7324 305.092 55.7324L305.042 55.4611C306.44 55.2638 307.83 55.1651 309.211 55.1651V58.7907C309.392 57.6233 309.794 56.7107 310.419 56.053C311.061 55.3789 311.883 55.0418 312.886 55.0418Z" fill="#282828"/>
<path d="M325.646 60.8379H317.556V61.2572C317.556 63.0001 317.926 64.3319 318.666 65.2527C319.406 66.1571 320.327 66.6093 321.428 66.6093C323.073 66.6093 324.257 65.9516 324.98 64.6361L325.35 64.8334C324.495 66.4942 323.065 67.3245 321.059 67.3245C319.579 67.3245 318.313 66.7901 317.26 65.7214C316.208 64.6526 315.682 63.2138 315.682 61.4051C315.682 59.58 316.142 58.0837 317.063 56.9163C318 55.7488 319.242 55.1651 320.787 55.1651C322.349 55.1651 323.55 55.6995 324.388 56.7683C325.227 57.8206 325.646 59.1771 325.646 60.8379ZM320.861 55.6584C319.908 55.6584 319.151 56.0695 318.592 56.8916C318.05 57.6973 317.721 58.7743 317.606 60.1226H323.747C323.632 57.1465 322.67 55.6584 320.861 55.6584Z" fill="#282828"/>
<defs>
<filter id="filter0_f" x="0.83667" y="106.732" width="133.202" height="31.5945" filterUnits="userSpaceOnUse" color-interpolation-filters="sRGB">
<feFlood flood-opacity="0" result="BackgroundImageFix"/>
<feBlend mode="normal" in="SourceGraphic" in2="BackgroundImageFix" result="shape"/>
<feGaussianBlur stdDeviation="5" result="effect1_foregroundBlur"/>
</filter>
<filter id="filter1_f" x="25.7517" y="113.434" width="86.1737" height="12.9501" filterUnits="userSpaceOnUse" color-interpolation-filters="sRGB">
<feFlood flood-opacity="0" result="BackgroundImageFix"/>
<feBlend mode="normal" in="SourceGraphic" in2="BackgroundImageFix" result="shape"/>
<feGaussianBlur stdDeviation="2" result="effect1_foregroundBlur"/>
</filter>
<linearGradient id="paint0_linear" x1="67.4376" y1="116.732" x2="67.4376" y2="128.327" gradientUnits="userSpaceOnUse">
<stop stop-color="#B4B4B4"/>
<stop offset="1" stop-color="#F2F1EE"/>
</linearGradient>
<clipPath id="clip0">
<rect width="107.99" height="114.323" fill="white" transform="translate(10.8367 0.356445)"/>
</clipPath>
</defs>
</svg>
