<svg  viewBox="0 0 167 139" fill="none" xmlns="http://www.w3.org/2000/svg">
<g opacity="0.7" filter="url(#filter0_f)">
<ellipse cx="67.4376" cy="122.954" rx="56.6009" ry="5.79727" fill="url(#paint0_linear)" fill-opacity="0.4"/>
</g>
<g filter="url(#filter1_f)">
<ellipse cx="68.8386" cy="120.333" rx="39.0869" ry="2.47506" fill="#F5F5F5"/>
</g>
<g clip-path="url(#clip0)">
<g opacity="0.8">
<path opacity="0.8" d="M115.288 28.3039C112.922 24.4046 110.125 20.7831 106.95 17.5076L105.75 16.2946L104.494 15.1378C103.671 14.3498 102.767 13.6518 101.891 12.9172C101.451 12.5542 100.981 12.2277 100.525 11.8787L99.8345 11.3665L99.488 11.1103L99.1302 10.8711C98.1725 10.2379 97.2232 9.57927 96.2119 9.01638C95.7161 8.73494 95.226 8.43098 94.7218 8.15516L93.195 7.37556L92.4288 6.98154L91.6457 6.62409L90.0738 5.90923C89.5443 5.68407 89.0062 5.48143 88.471 5.26753C87.9358 5.05363 87.4062 4.83129 86.8541 4.65679C85.7611 4.29373 84.6766 3.8997 83.5611 3.60981C79.1335 2.33816 74.5676 1.6095 69.9638 1.43987C65.2111 1.24846 60.4534 1.66365 55.806 2.67541L54.0679 3.06944L52.3496 3.54227L51.5045 3.7815L50.6594 4.06295L48.9693 4.62584L47.3045 5.26472L46.4594 5.58557C46.1777 5.70096 45.9129 5.82479 45.6425 5.943L44.0087 6.6635C43.4735 6.92243 42.9439 7.19262 42.4087 7.45999L41.5974 7.84276C41.3326 7.98067 41.0763 8.12421 40.8171 8.27619L39.2594 9.15992C38.7495 9.46951 38.2481 9.79599 37.741 10.114L36.9833 10.5953C36.7326 10.7585 36.4931 10.9358 36.2452 11.1075L34.7804 12.1432C34.3016 12.5007 33.834 12.8778 33.372 13.2437L32.6649 13.8066C32.4311 13.9923 32.2086 14.195 31.9804 14.3892L30.6114 15.5375C30.1691 15.9399 29.741 16.3593 29.3043 16.7702L28.6536 17.3894C28.4367 17.5977 28.2367 17.82 28.0283 18.0339L26.7888 19.3314C26.386 19.7732 26.0001 20.2292 25.6057 20.6795L25.017 21.355C24.8198 21.5801 24.6423 21.8193 24.4536 22.0529L23.3409 23.4602C22.9775 23.933 22.6395 24.4255 22.2874 24.9068C21.9353 25.3881 21.5832 25.8694 21.2677 26.376L20.2902 27.8704C19.9662 28.3714 19.6817 28.8921 19.3747 29.4015C18.7493 30.4147 18.2198 31.4814 17.662 32.5312C17.5183 32.7929 17.3803 33.0603 17.2676 33.3305L16.8902 34.1382L16.5268 34.9572C16.4 35.2387 16.2761 35.4948 16.1662 35.7734C15.724 36.8767 15.2423 37.9659 14.8733 39.0973C14.6789 39.6602 14.4732 40.2231 14.2901 40.786L13.7859 42.4972L13.5352 43.3415L13.3239 44.2084L12.9099 45.9477C12.7803 46.5303 12.6845 47.1185 12.5718 47.7039L12.4113 48.5848L12.3324 49.0267L12.2732 49.4714C12.1239 50.6563 11.9352 51.8383 11.8704 53.0345C11.8253 53.6312 11.7746 54.2278 11.738 54.8245L11.6929 56.6201L11.6704 57.5179C11.6704 57.8163 11.6704 58.1174 11.6901 58.4157L11.738 60.2142C11.8602 62.6122 12.1359 65 12.5634 67.3629L12.7239 68.2494L12.8028 68.6913L12.9042 69.1304L13.3099 70.8866C13.4338 71.4748 13.6197 72.0461 13.7747 72.6259C13.9296 73.2057 14.0873 73.7967 14.2732 74.3596C14.6592 75.4854 15.0141 76.6421 15.4733 77.7539C15.6958 78.3168 15.8958 78.8796 16.1409 79.4256L16.8733 81.0693C17.1071 81.6322 17.3888 82.1529 17.6564 82.6876C17.924 83.2224 18.1859 83.7627 18.4789 84.289C19.0761 85.3304 19.6395 86.3914 20.3015 87.3849C21.5766 89.4192 22.9794 91.3707 24.5015 93.2277C25.2902 94.134 26.0424 95.0712 26.8846 95.9268C27.2987 96.3602 27.7015 96.8049 28.1269 97.2299L29.4227 98.4795C29.848 98.9045 30.3015 99.2957 30.7551 99.6926C31.2086 100.089 31.6537 100.489 32.1156 100.872L33.5241 101.998C33.7607 102.183 33.9917 102.375 34.234 102.56L34.9664 103.087C35.4565 103.436 35.941 103.793 36.434 104.137L37.9439 105.122L38.7016 105.611L39.4791 106.067L41.034 106.979L42.6312 107.824L43.4312 108.24C43.7129 108.372 43.9749 108.496 44.2481 108.623L45.8847 109.38C46.4481 109.619 47.0115 109.836 47.5552 110.064C48.6622 110.537 49.8087 110.908 50.9355 111.299C51.2172 111.404 51.4989 111.488 51.7975 111.581L52.6651 111.831C53.2454 111.992 53.8172 112.18 54.4031 112.315L56.1609 112.726C56.4426 112.791 56.7468 112.87 57.0426 112.92L57.9299 113.081L59.7074 113.396L61.499 113.621L62.4933 113.742C62.8257 113.779 63.1581 113.796 63.4933 113.821L65.4934 113.962L67.4962 114.001C67.8314 114.001 68.1638 114.018 68.499 114.001L69.5018 113.97C72.1741 113.903 74.8377 113.639 77.4709 113.179L79.4428 112.814C80.0935 112.67 80.7414 112.51 81.3921 112.358C81.716 112.279 82.0428 112.208 82.3639 112.118L83.3245 111.837L84.285 111.555C84.6062 111.463 84.9273 111.373 85.24 111.26L87.133 110.613C87.764 110.399 88.3752 110.131 88.9978 109.892L89.9273 109.523C90.2344 109.394 90.5358 109.242 90.84 109.115C91.4457 108.834 92.0598 108.575 92.6598 108.271C96.7997 106.266 100.685 103.774 104.232 100.846C107.726 97.9459 110.819 94.5935 113.429 90.8777C113.854 90.2416 113.528 90.4668 113.094 91.1028C110.544 94.6092 107.548 97.7683 104.181 100.5C103.773 100.858 103.336 101.176 102.899 101.505L101.618 102.504L100.271 103.425C99.8204 103.728 99.3809 104.044 98.9105 104.32C97.9838 104.882 97.0711 105.476 96.1133 105.983L94.7049 106.771L93.2513 107.497C92.2513 108.023 91.2034 108.451 90.1752 108.921C89.6597 109.158 89.1245 109.343 88.6006 109.557C88.0766 109.771 87.5499 109.985 87.0118 110.165C85.9358 110.52 84.871 110.925 83.7724 111.218L82.1329 111.691L80.4709 112.073C79.3695 112.355 78.2427 112.529 77.1244 112.746C76.8427 112.802 76.561 112.842 76.2794 112.878L75.4343 112.994C74.8709 113.064 74.3075 113.157 73.7441 113.208L72.054 113.348L71.2089 113.416L70.3638 113.444L68.6737 113.495C68.1103 113.495 67.5469 113.478 66.9835 113.472C64.6211 113.417 62.2644 113.215 59.9271 112.867L58.1863 112.557C57.606 112.45 57.0257 112.358 56.4538 112.214C55.3074 111.933 54.1552 111.696 53.0285 111.347C52.4651 111.178 51.9017 111.029 51.3383 110.846L49.6679 110.283L48.8228 110.002L48.0031 109.673L46.3186 108.977C44.1534 108.04 42.0471 106.972 40.0115 105.78C38.9805 105.217 38.0002 104.545 37.0086 103.906L36.6368 103.664L36.2762 103.405L35.5579 102.89L34.8368 102.389C34.5945 102.217 34.3579 102.045 34.1269 101.857C33.203 101.119 32.2621 100.407 31.3861 99.6053C30.9438 99.2113 30.4874 98.837 30.0621 98.4289L28.7832 97.2017C28.3494 96.7993 27.9381 96.3574 27.5438 95.9352C27.1494 95.5131 26.724 95.0909 26.3353 94.6406C25.5719 93.74 24.7747 92.8675 24.0818 91.919C23.7212 91.4518 23.3522 90.9903 23.0029 90.5118L21.986 89.0652C21.8198 88.8231 21.6423 88.5867 21.4846 88.339L21.0113 87.5932C20.6986 87.095 20.3775 86.5997 20.0705 86.0959C15.2252 77.9573 12.5404 68.7173 12.2704 59.2516C12.2704 58.6634 12.2394 58.0752 12.2338 57.4898L12.2817 55.7279L12.307 54.847C12.3239 54.5656 12.3493 54.2616 12.3718 53.9689L12.5127 52.2155C12.5606 51.6329 12.6563 51.0531 12.7268 50.4705L12.8423 49.6009C12.8789 49.3194 12.9183 49.0211 12.9746 48.734L13.2901 47.0087C13.3465 46.7273 13.3887 46.4458 13.4563 46.1475L13.6592 45.3032C14.6908 40.7306 16.3019 36.3081 18.4536 32.1428C18.7353 31.6277 18.9859 31.1099 19.2648 30.6005L20.1465 29.0947L20.5888 28.3433L21.0648 27.6143L22.0198 26.1564C23.3459 24.2452 24.788 22.4171 26.3381 20.6823C29.4326 17.2095 32.9501 14.1376 36.8086 11.5381C37.2791 11.1976 37.7805 10.9021 38.2706 10.5897C38.7608 10.2773 39.2481 9.95923 39.7551 9.67216C40.772 9.10926 41.7664 8.49853 42.8171 7.98348C44.8923 6.91845 47.0295 5.97862 49.2172 5.16903L50.8735 4.60613L51.7017 4.32469L52.5468 4.07983L54.2369 3.59575L55.9271 3.19046L56.7722 2.99064C57.0539 2.92591 57.3355 2.88087 57.6172 2.82458L59.3384 2.50937C59.9018 2.41086 60.4933 2.34894 61.068 2.26732C61.6426 2.1857 62.2201 2.10127 62.8032 2.06468L64.7356 1.90707C65.3807 1.85641 66.0286 1.85641 66.6737 1.83108L67.6427 1.80012C67.9666 1.80012 68.2906 1.80012 68.6117 1.80012L70.5525 1.83389L72.4878 1.96054L73.4568 2.02528L74.4202 2.13785L76.347 2.36864L78.2597 2.68949C78.578 2.74578 78.8991 2.79081 79.2146 2.85836L80.1639 3.06663C80.7949 3.21016 81.4315 3.34807 82.0569 3.49724C83.3048 3.84623 84.5639 4.15582 85.7836 4.58925L86.7048 4.89602C87.0118 4.99453 87.3189 5.10148 87.6203 5.2225L89.4316 5.92612C89.7358 6.03869 90.0316 6.17379 90.3245 6.30607L91.2119 6.7029C91.8034 6.96746 92.3978 7.2292 92.9668 7.54724L94.6992 8.43942L96.3894 9.42167C96.6711 9.58772 96.9528 9.74533 97.2344 9.92264L98.0457 10.4574L98.8542 10.9921C99.1359 11.1694 99.395 11.3468 99.6514 11.555L101.209 12.7061C101.471 12.8947 101.719 13.1002 101.97 13.3056L102.716 13.9192L103.463 14.5327C103.711 14.7382 103.944 14.9605 104.184 15.1744L105.612 16.4747C107.46 18.2632 109.2 20.1597 110.823 22.1543C111.229 22.6524 111.609 23.1731 112.004 23.6797L112.592 24.4452L113.156 25.2361C113.522 25.7652 113.908 26.2831 114.26 26.8235L115.311 28.453C115.682 29.0047 115.657 28.8921 115.288 28.3039Z" fill="#FF945C"/>
</g>
<g opacity="0.8">
<path opacity="0.8" d="M117.399 29.5027C113.396 22.3286 107.669 16.1481 100.917 11.3466L99.3903 10.3137L98.627 9.79865L97.841 9.3202L96.2692 8.36328L94.6523 7.48236L93.8438 7.04049L93.0157 6.63802L91.3593 5.8359L89.6692 5.11258L88.8241 4.75233C88.5424 4.63412 88.2607 4.53843 87.9621 4.42867C83.3636 2.67241 78.5512 1.53662 73.6521 1.05132L71.8127 0.885271C71.1986 0.854312 70.5817 0.837423 69.9676 0.812092L69.0436 0.77832C68.7366 0.77832 68.4267 0.77832 68.1197 0.77832L66.2718 0.80928C63.8075 0.907485 61.3524 1.16792 58.9224 1.58889C57.7027 1.77182 56.5055 2.0589 55.3027 2.32346C55.0013 2.38538 54.7027 2.46136 54.4069 2.5458L53.5168 2.78785C52.9252 2.95671 52.3252 3.0918 51.7421 3.29444L49.9872 3.85734C49.7055 3.9474 49.4041 4.05153 49.1167 4.16129L48.2547 4.48215C47.0942 4.88743 45.973 5.3884 44.8435 5.86686C42.6025 6.85998 40.4239 7.98783 38.3195 9.24421C37.2518 9.84932 36.2434 10.5417 35.2208 11.2143C34.7082 11.5492 34.2237 11.9264 33.7251 12.281C33.2265 12.6356 32.7251 12.9902 32.2546 13.3843L30.8208 14.5354C30.3419 14.9181 29.8969 15.3403 29.4321 15.7428C28.4968 16.5365 27.6405 17.4315 26.7588 18.2758C25.0355 20.0324 23.4354 21.9056 21.97 23.8822C18.9671 27.9309 16.5288 32.3687 14.7221 37.0735C13.8292 39.4252 13.0887 41.8318 12.5052 44.2786C12.1812 45.4944 11.9784 46.7328 11.7362 47.9655L11.6488 48.4271L11.584 48.8943L11.4517 49.8258L11.3193 50.7574C11.2742 51.067 11.2291 51.3794 11.2066 51.6918C10.6519 56.6918 10.7466 61.7425 11.4883 66.7182C11.8487 69.204 12.3757 71.6628 13.0657 74.078C13.4432 75.277 13.7925 76.49 14.2517 77.6608L14.5784 78.5474C14.6855 78.8429 14.7953 79.1384 14.9249 79.4255L15.6658 81.162C19.8386 90.3679 26.3669 98.3118 34.5927 104.193C35.0885 104.578 35.6208 104.91 36.1392 105.265L36.9195 105.791C37.1786 105.969 37.4406 106.143 37.711 106.301C38.7843 106.951 39.8491 107.621 40.9674 108.198L41.7955 108.648L42.2096 108.873L42.635 109.079L44.3251 109.898L44.7505 110.103L45.1843 110.286L46.0519 110.652L46.9195 111.018L47.3533 111.201L47.7956 111.364C55.1642 114.186 63.0411 115.439 70.9225 115.045C71.6296 115 72.331 114.964 73.0465 114.913L75.162 114.679C75.869 114.617 76.5705 114.477 77.2662 114.37L78.3169 114.201C78.6662 114.147 79.0127 114.06 79.3592 113.99C82.1377 113.434 84.8689 112.665 87.5283 111.688C88.1903 111.434 88.8607 111.209 89.5001 110.931L91.4523 110.086C92.1001 109.805 92.7283 109.475 93.3678 109.169C93.6833 109.011 94.0072 108.865 94.3199 108.696L95.2495 108.186C96.503 107.531 97.6974 106.779 98.9115 106.033C100.08 105.237 101.264 104.463 102.373 103.59C102.937 103.165 103.5 102.746 104.038 102.282C104.576 101.817 105.128 101.384 105.658 100.917L107.216 99.4841C107.481 99.2505 107.726 98.9972 107.974 98.7467L108.717 97.9924C110.695 95.9777 112.515 93.8135 114.159 91.5192C114.365 91.2378 114.585 90.9563 114.779 90.6749L115.365 89.794L115.948 88.913C116.044 88.7667 116.145 88.6316 116.23 88.4712L116.512 88.018L117.593 86.2027C117.931 85.5835 118.258 84.9587 118.588 84.3395C118.948 83.6584 118.841 83.6612 118.478 84.3395L117.605 85.9747C117.295 86.5095 116.971 87.0358 116.652 87.5677L116.174 88.3614C116.01 88.6231 115.83 88.8764 115.661 89.1325L114.624 90.6692C114.261 91.1702 113.886 91.6599 113.517 92.1553L112.954 92.8955C112.762 93.1375 112.562 93.3739 112.365 93.6104L111.179 95.0373L109.928 96.4051L109.303 97.089L108.647 97.742L107.328 99.0451L105.954 100.286C105.723 100.492 105.497 100.703 105.264 100.903L104.548 101.491C104.069 101.879 103.596 102.279 103.111 102.659L101.627 103.765C101.376 103.945 101.137 104.139 100.881 104.311L100.114 104.829C99.6016 105.169 99.0974 105.527 98.5763 105.856C94.4069 108.513 89.9151 110.626 85.21 112.146L84.3283 112.428L83.886 112.569L83.4381 112.69L81.6465 113.171L81.1987 113.292L80.7451 113.39L79.8381 113.587L78.931 113.782L78.4775 113.88L78.0212 113.956L76.1902 114.254L75.7338 114.328L75.2718 114.381L74.3507 114.485L73.4296 114.586C73.1225 114.623 72.8155 114.654 72.5056 114.668L70.6549 114.778C70.038 114.829 69.4183 114.812 68.8014 114.823C68.1845 114.834 67.5648 114.848 66.9478 114.823C65.714 114.761 64.4746 114.753 63.2464 114.609L61.4013 114.432L59.5675 114.167L58.652 114.035C58.3478 113.984 58.0464 113.919 57.7421 113.86L55.9252 113.503C53.5126 112.968 51.1368 112.279 48.8125 111.44C37.0833 107.249 27.0771 99.2884 20.3616 88.8061C19.0489 86.7524 17.8627 84.6207 16.8094 82.4229C16.2461 81.3365 15.7953 80.1995 15.2996 79.0821C15.0629 78.5192 14.8601 77.9395 14.6404 77.3709C14.4207 76.8024 14.201 76.2283 14.0235 75.6429L13.4601 73.8979C13.2798 73.3125 13.1333 72.7186 12.97 72.1276C12.6235 70.9512 12.4066 69.7466 12.1249 68.5532C11.6576 66.1486 11.3537 63.7151 11.215 61.2694C11.1164 60.048 11.1305 58.8237 11.1192 57.6106C11.1023 56.9999 11.1559 56.3892 11.1728 55.7784C11.1897 55.1677 11.2122 54.557 11.2685 53.9462L11.4432 52.1224C11.477 51.8185 11.4939 51.5145 11.539 51.2106L11.6714 50.3043L11.9531 48.4918L12.3108 46.6962C13.295 41.906 14.8902 37.2618 17.0573 32.8772C17.3108 32.3143 17.6207 31.7824 17.9024 31.242C18.1841 30.7016 18.4658 30.1584 18.7841 29.6293C19.4264 28.5852 20.0235 27.5128 20.7306 26.5109C21.0771 26.0043 21.4067 25.4892 21.7644 24.9911L22.863 23.5191C23.2207 23.021 23.6123 22.551 24.0039 22.0809C24.3954 21.6109 24.7757 21.1297 25.1813 20.6737C28.4112 16.9845 32.1037 13.7266 36.1673 10.9807C38.1792 9.60263 40.2753 8.35151 42.4434 7.23468C43.5392 6.69994 44.6266 6.14549 45.7561 5.68392L46.6012 5.32086C46.8829 5.19702 47.1646 5.07881 47.4463 4.97749L49.159 4.33298C49.7224 4.10501 50.3139 3.94177 50.8942 3.74757L51.7646 3.46612C52.0463 3.37043 52.3449 3.27756 52.6407 3.20438C53.821 2.88916 54.9956 2.5458 56.1957 2.3122C58.5903 1.78325 61.0171 1.41188 63.4605 1.20049L65.483 1.07103L65.9873 1.04007H66.4943H67.5056C68.8549 0.995036 70.2014 1.08228 71.5507 1.13013C72.2239 1.17234 72.8944 1.24552 73.5648 1.30462L74.5704 1.3975L75.5704 1.53822L77.5705 1.81967L79.5423 2.20806C79.8719 2.27561 80.2043 2.32909 80.5311 2.41071L81.5113 2.65557C82.1649 2.82443 82.824 2.96796 83.4691 3.15935L85.4043 3.74757L85.8888 3.89393L86.3649 4.06279L87.317 4.40616C88.5959 4.83677 89.8297 5.3884 91.0776 5.90626C91.6917 6.18771 92.2973 6.48603 92.9086 6.77311C93.2128 6.91946 93.5199 7.05456 93.8213 7.21498L94.7143 7.69626C99.3653 10.1705 103.651 13.2762 107.45 16.9249C109.336 18.7608 111.098 20.7193 112.726 22.7874C113.495 23.8456 114.3 24.8673 114.979 25.9621L115.512 26.7698C115.689 27.0513 115.869 27.3074 116.027 27.586L117.002 29.2409C117.173 29.5657 117.376 29.8729 117.607 30.1584C117.723 30.2175 117.675 30.029 117.399 29.5027Z" fill="#FF945C"/>
</g>
<path d="M117.987 33.5197L117.274 32.0871C117.021 31.6171 116.756 31.1555 116.497 30.6799C115.992 29.737 115.409 28.842 114.843 27.9358C114.561 27.477 114.254 27.0436 113.95 26.6046L113.032 25.2874L112.054 24.0153C111.725 23.5931 111.409 23.1709 111.054 22.76C108.319 19.465 105.226 16.4841 101.832 13.872C98.4302 11.2849 94.7444 9.09426 90.8457 7.34242C90.3668 7.106 89.8626 6.92025 89.3696 6.71761L87.8823 6.11531L86.3668 5.5862C85.8597 5.41733 85.3611 5.2175 84.8428 5.07959L83.302 4.62928C83.0456 4.5561 82.7893 4.47449 82.5301 4.40694L81.7498 4.22119L80.1893 3.8553C79.6681 3.72584 79.1386 3.64985 78.6118 3.54572C74.3979 2.74921 70.1095 2.41512 65.823 2.5494C61.5327 2.71636 57.2775 3.39187 53.1468 4.56173L52.3693 4.77563L51.6031 5.02612L50.0707 5.52709C49.5581 5.69033 49.0623 5.90141 48.558 6.08998C48.0538 6.27855 47.5496 6.46431 47.0538 6.67539C45.0666 7.50259 43.1283 8.44227 41.2481 9.48985C40.7805 9.75722 40.3016 10.0021 39.8397 10.2863L38.4678 11.1307L37.7833 11.5585L37.1185 12.0172L35.7889 12.9347C35.3467 13.2415 34.9298 13.5821 34.4988 13.9057C34.0678 14.2294 33.634 14.5502 33.2255 14.8992L31.9917 15.9434C31.7861 16.1179 31.5776 16.2896 31.3776 16.4669L30.7861 17.0298L29.6058 18.133C29.217 18.5074 28.8508 18.9014 28.479 19.287L27.9156 19.8667C27.7269 20.0581 27.541 20.2551 27.3663 20.4606L26.2987 21.6736C26.1241 21.8791 25.9381 22.0733 25.7691 22.2844L25.2593 22.9035L24.2508 24.1672C23.9269 24.5978 23.617 25.0397 23.3015 25.476C22.986 25.9122 22.6564 26.34 22.3747 26.7988C19.9785 30.3859 17.9942 34.2312 16.4592 38.262C14.9582 42.2796 13.9407 46.4612 13.4282 50.7188C12.3511 59.2492 13.2375 67.9127 16.0198 76.0489C17.4031 80.1043 19.2701 83.9786 21.5804 87.5882C22.7314 89.3924 23.9842 91.1299 25.3325 92.7921L26.3776 94.008C26.7297 94.4104 27.0649 94.827 27.4396 95.2069C28.1804 95.9753 28.8931 96.7746 29.6931 97.4951L30.8508 98.6012L32.0565 99.6538C32.8481 100.371 33.7016 101.013 34.5354 101.677C34.9467 102.015 35.3805 102.319 35.8199 102.629L37.1213 103.557L38.465 104.427C38.9157 104.709 39.3523 105.018 39.8199 105.271C43.4808 107.455 47.383 109.206 51.4482 110.489C55.5086 111.76 59.7011 112.563 63.9441 112.882C68.1973 113.221 72.475 113.089 76.6991 112.488C80.9191 111.855 85.0505 110.731 89.0091 109.138C92.9577 107.547 96.7093 105.505 100.189 103.054C101.932 101.835 103.605 100.519 105.201 99.1134C105.598 98.7588 105.978 98.3873 106.367 98.027C106.756 97.6668 107.156 97.3121 107.516 96.9209C108.249 96.1498 109.015 95.4124 109.697 94.5962C110.24 93.977 110.02 93.8785 109.48 94.4949L108.956 95.0915C108.778 95.2885 108.589 95.4743 108.406 95.6544L107.302 96.7943C106.939 97.1799 106.536 97.526 106.156 97.8919C105.775 98.2578 105.389 98.6237 104.992 98.9727C103.401 100.375 101.732 101.686 99.9922 102.899C96.5241 105.342 92.7799 107.368 88.8372 108.936C80.9343 112.111 72.3931 113.379 63.9075 112.637C61.7944 112.463 59.6926 112.173 57.6116 111.767L57.2201 111.697L56.8313 111.607L56.0567 111.429L54.5074 111.072L52.9778 110.639C52.4708 110.487 51.9524 110.357 51.4538 110.185C47.4075 108.886 43.526 107.12 39.8875 104.925C36.2522 102.719 32.8754 100.114 29.8199 97.1573L29.2565 96.5945C29.0677 96.4087 28.8875 96.2117 28.6931 96.0316L27.5945 94.8776C27.2227 94.4977 26.8931 94.0783 26.541 93.6815C26.1888 93.2847 25.8396 92.8822 25.5072 92.4685C24.1667 90.8157 22.926 89.0845 21.7916 87.2842C17.2113 80.0961 14.4817 71.8047 13.6226 63.3614C13.2289 59.1283 13.3414 54.8634 13.9578 50.6569C15.1737 42.2217 18.2528 34.1624 22.9719 27.0633C25.3476 23.5231 28.1362 20.2778 31.279 17.3957C36.0043 13.0573 41.4339 9.554 47.3355 7.03564C47.8285 6.833 48.3299 6.64443 48.8256 6.45023C49.3214 6.25603 49.8144 6.04776 50.3242 5.88734C51.3412 5.56086 52.3412 5.18654 53.3778 4.9248C57.4861 3.76304 61.7173 3.08949 65.9835 2.91809C70.2457 2.76966 74.5111 3.09342 78.7019 3.88345C87.0795 5.42014 95.0091 9.0536 101.784 14.1731C105.155 16.764 108.221 19.7277 110.925 23.0077C111.277 23.4045 111.584 23.852 111.911 24.2573C112.237 24.6626 112.561 25.1016 112.877 25.521L113.787 26.8269L114.24 27.4798C114.392 27.6966 114.522 27.9273 114.668 28.1497L115.513 29.4978L115.725 29.8355L115.919 30.1817L116.311 30.8741C116.567 31.3385 116.837 31.7944 117.085 32.2644L117.801 33.6857L118.161 34.395C118.28 34.6229 118.483 34.4653 117.987 33.5197Z" fill="#FF945C"/>
<path d="M114.347 83.5932C112.41 86.9509 110.164 90.1206 107.637 93.061C105.085 96.0287 102.2 98.6928 99.0373 101.001L98.7021 101.251L98.3528 101.485L97.6542 101.941L96.9585 102.408C96.7275 102.565 96.4937 102.72 96.2542 102.861C95.2965 103.424 94.3528 104.035 93.3584 104.55C91.3992 105.615 89.3745 106.555 87.2964 107.364C86.2457 107.741 85.2119 108.158 84.1386 108.467C83.6062 108.631 83.0767 108.811 82.5414 108.957L80.9217 109.379C80.64 109.447 80.3837 109.528 80.1104 109.582L79.2907 109.754C78.7442 109.866 78.2006 109.987 77.6513 110.091L75.9977 110.35L75.1696 110.48L74.3245 110.57C73.7217 110.632 73.1188 110.705 72.516 110.761L70.6991 110.865C70.0935 110.913 69.4878 110.91 68.8822 110.916C68.2765 110.922 67.6681 110.944 67.0625 110.916C65.8512 110.862 64.6371 110.84 63.4314 110.702L62.5244 110.62L62.0709 110.578L61.6202 110.513L59.8173 110.257C57.42 109.872 55.052 109.323 52.73 108.614C51.5609 108.29 50.4285 107.851 49.2848 107.449C48.7215 107.243 48.1581 106.99 47.5947 106.762C47.0313 106.534 46.4679 106.303 45.9299 106.03L44.2904 105.245C43.7552 104.963 43.2257 104.682 42.6961 104.381L41.9017 103.945L41.1299 103.469C40.6172 103.148 40.0989 102.841 39.5918 102.512C38.6031 101.82 37.589 101.167 36.6481 100.41L35.9298 99.8467L35.5721 99.5652L35.2256 99.2838L33.8481 98.1158C30.237 94.9196 27.0708 91.2545 24.434 87.2182L23.9297 86.4583C23.7607 86.205 23.6142 85.9376 23.4565 85.6787L22.5213 84.1138C21.9579 83.0387 21.3438 81.9861 20.8311 80.8744L20.4705 80.0807L20.2734 79.6698L20.0959 79.2505L19.3832 77.5618C19.1522 76.9989 18.9579 76.4219 18.741 75.8534L18.4226 75.0091L18.1409 74.1394C17.3864 71.8187 16.8008 69.4465 16.3888 67.0414L16.1071 65.2401C16.0254 64.6378 15.9719 64.0327 15.9043 63.4304L15.8085 62.527L15.7578 61.6179C15.7269 61.0128 15.6846 60.4077 15.6649 59.8026C15.6649 58.5895 15.6226 57.3765 15.7043 56.1635L15.7437 55.2544C15.7437 54.9504 15.7635 54.6493 15.8001 54.3482L15.9691 52.5356L16.0114 52.0825L16.0762 51.6322L16.2057 50.7316L16.3353 49.831L16.4001 49.3806L16.4874 48.9331L16.8367 47.146C16.8677 46.9968 16.8931 46.8476 16.9269 46.6985L17.0367 46.2566L17.2564 45.3729C18.4226 40.6558 20.243 36.1247 22.6649 31.9113C23.3044 30.8812 23.9044 29.8258 24.6142 28.8435L25.1297 28.0949L25.3861 27.7206L25.6678 27.3575L26.772 25.9137C27.1382 25.4324 27.5495 24.9849 27.9354 24.5065L28.5213 23.8141C28.7185 23.5833 28.9326 23.3694 29.1382 23.1471L30.3805 21.8243L31.6847 20.5634C33.4406 18.8993 35.3099 17.359 37.2791 15.9533L38.0115 15.4186L38.7665 14.9176C39.2735 14.5883 39.7721 14.245 40.282 13.9241C41.3242 13.3106 42.3468 12.6632 43.4228 12.1116C51.991 7.4799 61.6803 5.32232 71.4062 5.8804C75.0326 6.08315 78.6307 6.63739 82.1499 7.5353C85.6765 8.42904 89.0942 9.70694 92.3415 11.3461C98.8799 14.6237 104.664 19.2242 109.328 24.8555C111.661 27.7117 113.672 30.816 115.325 34.1122C116.978 37.4164 111.643 26.3584 104.584 19.6909L103.237 18.4666C103.018 18.2584 102.784 18.0642 102.547 17.8756L101.843 17.3127C100.922 16.5219 99.9219 15.8351 98.9557 15.109C98.4571 14.7685 97.9472 14.4392 97.443 14.1042L96.6852 13.6061L95.9049 13.1445C95.381 12.8405 94.8683 12.5197 94.3387 12.2298L92.7331 11.3855C92.2035 11.104 91.6486 10.8535 91.1021 10.5974L90.2795 10.2147C89.9978 10.0852 89.733 9.95854 89.4485 9.85159L87.7584 9.1705L87.3387 9.00163L86.9105 8.85246L86.0654 8.55413C84.9386 8.12915 83.7668 7.81393 82.6119 7.46775C82.3302 7.37487 82.0288 7.31015 81.7358 7.23697L80.8541 7.02307C80.2654 6.88516 79.6851 6.71911 79.0879 6.61779C67.2913 4.10638 54.9898 5.70087 44.225 11.1366C33.4603 16.5724 24.8797 25.5225 19.9072 36.5017L19.2086 38.165C19.0931 38.4465 18.9719 38.7279 18.8621 39.0094L18.555 39.8537C18.3522 40.4166 18.1381 40.9795 17.9438 41.5424L17.4142 43.2676C17.3297 43.5491 17.2311 43.8305 17.155 44.1317L16.9353 45.007C16.7917 45.5924 16.6339 46.1722 16.4987 46.7604L16.1466 48.5307C16.0902 48.8121 16.0226 49.1189 15.9747 49.4172L15.8423 50.3094C14.3188 59.89 15.482 69.705 19.2029 78.6651C22.974 87.643 29.146 95.4104 37.0425 101.116C38.9953 102.538 41.0443 103.824 43.1749 104.963L43.9721 105.397C44.2369 105.54 44.5158 105.661 44.7862 105.796L46.42 106.582L48.0764 107.288L48.9215 107.64L49.7665 107.949L51.4736 108.566L53.2116 109.098L54.0821 109.362L54.9638 109.582L56.7272 110.024L58.499 110.384L59.392 110.558L60.2906 110.688L62.0906 110.944L63.899 111.11C66.4686 111.327 69.0512 111.342 71.6231 111.155L72.5864 111.093L73.5442 110.986C74.1808 110.907 74.8203 110.851 75.4569 110.755L77.3555 110.44L77.8287 110.359L78.2992 110.257L79.24 110.055L80.1809 109.852C80.4935 109.782 80.8006 109.689 81.1105 109.607C81.7274 109.436 82.3499 109.284 82.964 109.101L84.795 108.512L85.2513 108.366L85.702 108.197L86.6035 107.859L87.5049 107.522C87.8035 107.406 88.0964 107.271 88.3922 107.147C88.9809 106.888 89.5753 106.649 90.1556 106.379L91.888 105.535C92.1697 105.4 92.4514 105.253 92.7331 105.09L93.5782 104.628L94.3782 104.192C94.6429 104.046 94.8993 103.88 95.1584 103.722L96.7162 102.768C97.719 102.076 98.7528 101.42 99.7162 100.66L100.451 100.097L100.818 99.8157L101.173 99.5343L102.581 98.3606C103.049 97.9638 103.491 97.5388 103.947 97.1279L104.629 96.5087L105.28 95.8586C107.025 94.1426 108.652 92.3109 110.15 90.376L111.254 88.9209C111.609 88.4284 111.944 87.9218 112.291 87.4236L112.809 86.675L113.288 85.9038C113.606 85.3888 113.933 84.8822 114.246 84.3671C114.868 83.292 114.953 82.5406 114.347 83.5932Z" fill="#FF945C"/>
<g opacity="0.6">
<path opacity="0.6" d="M114.767 35.9448L114.128 34.6136L113.423 33.3105C109.754 26.4704 104.567 20.5595 98.2599 16.0297C91.8035 11.4703 84.271 8.61925 76.809 7.37526C72.7159 6.68636 68.5579 6.46353 64.4145 6.71105C63.8962 6.72513 63.3807 6.78422 62.8652 6.83488L61.3159 6.98687L59.7779 7.21765C59.2652 7.29364 58.7497 7.364 58.2427 7.4794L56.713 7.78899C56.4567 7.83683 56.2032 7.89594 55.9525 7.9663L55.1947 8.1605C54.6933 8.29559 54.1806 8.40535 53.6849 8.56296L52.1919 9.03016C51.944 9.11178 51.6905 9.17933 51.4454 9.26939L50.7102 9.55084L49.2369 10.0997L47.7947 10.6991L47.0707 11.0115C46.8285 11.1157 46.5975 11.2395 46.3609 11.3549L44.9524 12.0529C44.4791 12.2865 44.0284 12.5595 43.5665 12.81L42.8763 13.1927L42.5327 13.3841L42.1975 13.5924L40.8566 14.4367C40.4031 14.7041 39.9805 15.0193 39.5439 15.312C39.1073 15.6047 38.6735 15.9002 38.2509 16.2127L36.9974 17.1668L36.3721 17.6452L35.7692 18.1518L34.5551 19.1481L33.3946 20.2064C32.6058 20.8931 31.8903 21.6586 31.141 22.3848C30.9523 22.5649 30.7748 22.7563 30.6002 22.9476L30.0734 23.5246C29.7269 23.913 29.3607 24.2845 29.0283 24.687L28.0311 25.8916C27.8678 26.0942 27.6959 26.2884 27.5354 26.4967L27.0677 27.1215L26.1297 28.3711C25.8311 28.7989 25.5466 29.2351 25.2536 29.6658C24.6508 30.5101 24.1269 31.4248 23.5917 32.3142C23.31 32.7532 23.0818 33.2232 22.8283 33.6792L22.0902 35.0583L21.4198 36.4655C21.1945 36.9355 20.9663 37.4055 20.7747 37.8924C20.3776 38.8578 19.9578 39.8147 19.6283 40.811L19.1043 42.2914L18.6536 43.7971C18.0694 45.7829 17.5992 47.8004 17.2451 49.8398C17.1578 50.3492 17.0987 50.8642 17.0226 51.3765L16.9156 52.1448C16.8761 52.4009 16.8423 52.6571 16.8254 52.916L16.6902 54.4639C16.6677 54.7229 16.6395 54.979 16.6254 55.2379L16.5972 56.0147L16.5381 57.5711C16.5381 58.089 16.5381 58.6096 16.5381 59.1275V59.9071V60.2955L16.5634 60.6839L16.6592 62.2403C16.6789 62.761 16.7437 63.276 16.8029 63.7939L16.9747 65.3446L17.2254 66.8869C17.3071 67.402 17.3832 67.917 17.5071 68.4236L17.8311 69.9463C17.8789 70.2024 17.9437 70.4529 18.0113 70.7034L18.2113 71.4548C18.3494 71.9558 18.4649 72.4624 18.6198 72.9577L19.0902 74.4438C19.1691 74.6914 19.2423 74.9391 19.3297 75.1868L19.6114 75.9185L20.155 77.3821C20.3522 77.8633 20.5635 78.339 20.7635 78.8174C20.9635 79.2959 21.1607 79.78 21.4001 80.2415C21.8564 81.1759 22.2931 82.1216 22.8086 83.0278C23.0621 83.4838 23.2987 83.9482 23.5663 84.3957L24.3804 85.7297C24.5184 85.9521 24.6621 86.1772 24.7889 86.3968L25.2283 87.0441L26.1044 88.3472L27.0396 89.6024C27.3523 90.019 27.6565 90.4468 27.9973 90.8408L28.9889 92.0482L29.2368 92.3493L29.4988 92.6308L30.0199 93.2105C30.372 93.5933 30.7044 93.993 31.0678 94.3673L32.1608 95.4931L32.7072 96.056L33.2706 96.5851L34.4115 97.649C34.8002 97.9951 35.203 98.3216 35.6002 98.6621C35.9974 99.0027 36.3861 99.3489 36.8059 99.6557C40.0877 102.254 43.6842 104.429 47.5102 106.129C55.2173 109.45 63.7554 111.004 72.1244 110.373C73.1752 110.325 74.2146 110.179 75.2597 110.061C75.7836 110.013 76.2991 109.909 76.8174 109.824C77.3358 109.74 77.8541 109.655 78.3724 109.56L79.9132 109.222L80.6851 109.056C80.9414 108.994 81.1921 108.921 81.4485 108.853L83.0062 108.414C83.5133 108.274 84.0091 108.096 84.5105 107.941C86.5095 107.294 88.4687 106.53 90.3781 105.653L91.7866 104.958L92.4936 104.612C92.7246 104.491 92.9528 104.359 93.1838 104.235L94.5584 103.475C95.0148 103.219 95.4514 102.929 95.8993 102.659C97.6801 101.556 99.3948 100.351 101.035 99.0477L102.24 98.0373L102.843 97.5336L103.423 97.0016L104.578 95.9349C104.959 95.5747 105.316 95.1891 105.685 94.8092C108.624 91.8347 111.174 88.5003 113.274 84.8854C113.502 84.5088 113.705 84.1177 113.883 83.7146C113.981 83.4331 113.99 83.3065 113.933 83.3009C113.877 83.2952 113.756 83.4275 113.556 83.678C113.278 84.0469 113.023 84.4322 112.792 84.8319C110.506 88.6548 107.745 92.1735 104.575 95.3045C102.982 96.8643 101.288 98.3187 99.5049 99.6585C98.6345 100.354 97.6908 100.953 96.7782 101.592C96.3134 101.899 95.8317 102.18 95.3697 102.476C94.9077 102.771 94.4232 103.064 93.9274 103.32L92.457 104.125C91.9612 104.381 91.4542 104.618 90.9528 104.862L90.2006 105.228C89.9499 105.349 89.688 105.451 89.4316 105.563L87.8908 106.222C87.3696 106.424 86.8457 106.613 86.3217 106.81L85.5358 107.091C85.2738 107.184 85.0034 107.263 84.7386 107.348L83.1414 107.854L81.5245 108.285L80.7161 108.499C80.4344 108.563 80.1696 108.617 79.8991 108.676L78.2625 109.025L76.6118 109.306L75.7864 109.442C75.5048 109.481 75.2231 109.506 74.9554 109.54L73.2935 109.729C72.7301 109.774 72.1808 109.802 71.6258 109.841L70.7808 109.895C70.4991 109.914 70.2174 109.895 69.9357 109.914L68.2653 109.94C63.8175 109.898 59.3933 109.291 55.099 108.133C50.8114 106.938 46.6881 105.219 42.8228 103.013C38.9525 100.796 35.3769 98.1015 32.1805 94.9921C30.5788 93.4376 29.0816 91.7791 27.6987 90.0274C27.0311 89.1352 26.3353 88.2627 25.7269 87.3283C25.4198 86.864 25.0875 86.4165 24.8001 85.938L23.9325 84.4914C23.6311 84.0214 23.3889 83.5232 23.1184 83.0363L22.7241 82.3017C22.5917 82.0597 22.4593 81.8148 22.3466 81.5615C21.8733 80.5596 21.3832 79.5661 20.9832 78.5332C20.1397 76.496 19.433 74.4049 18.8677 72.2738C17.748 68.0203 17.1511 63.6463 17.0902 59.2485C17.0902 58.6856 17.0677 58.1452 17.0902 57.5964L17.155 55.9443C17.155 55.6629 17.1719 55.3815 17.1888 55.1197L17.262 54.2979L17.4057 52.6514C17.9315 48.2719 18.992 43.9732 20.5635 39.8513L21.1945 38.3258L21.51 37.5631L21.8649 36.8173L22.5691 35.3256C22.8227 34.8387 23.0874 34.3575 23.3466 33.8706C25.4493 29.995 28.0352 26.4014 31.0424 23.1756C32.5514 21.5653 34.1643 20.0554 35.8706 18.6556C36.7157 17.9323 37.6087 17.299 38.4876 16.6348C38.9326 16.3083 39.3974 16.0156 39.8509 15.7032C40.3045 15.3908 40.7608 15.0812 41.2369 14.8082L42.6453 13.9639C43.1214 13.6825 43.6115 13.4404 44.0932 13.1787C45.0482 12.6355 46.0651 12.2049 47.0426 11.7236C47.5412 11.4984 48.0538 11.2986 48.5552 11.0847L49.313 10.7695C49.5637 10.6625 49.8257 10.5809 50.082 10.488L51.6257 9.92516C52.144 9.75066 52.6708 9.60149 53.1919 9.43825C57.3793 8.17661 61.7093 7.44754 66.0793 7.26831C68.2645 7.18158 70.453 7.23423 72.6315 7.42592C74.8091 7.61463 76.9729 7.93797 79.1104 8.39409C83.394 9.33301 87.5421 10.8072 91.457 12.7818C92.4119 13.3081 93.3978 13.7838 94.3218 14.3664C94.7894 14.6478 95.2655 14.9293 95.7303 15.2107L97.0993 16.117C97.3275 16.2689 97.5613 16.3984 97.781 16.5729L98.443 17.0598C98.8824 17.3863 99.3331 17.7015 99.7697 18.0336L101.049 19.0665C101.26 19.241 101.48 19.4071 101.685 19.5872L102.299 20.136C102.708 20.5019 104.46 22.1427 105.285 22.9702C106.526 24.2024 107.68 25.5189 108.739 26.9104C109.618 28.0362 110.919 30.0429 110.919 30.0429C111.235 30.4904 111.511 30.9604 111.792 31.4276C112.074 31.8948 112.356 32.3564 112.637 32.8348C113.15 33.8002 113.702 34.743 114.153 35.7365C115.136 37.6785 115.218 36.8201 114.767 35.9448Z" fill="#FF945C"/>
</g>
<g opacity="0.7">
<path opacity="0.7" d="M117.331 81.4602C115.555 85.28 113.333 88.8766 110.711 92.1748C108.062 95.5035 105.019 98.4992 101.649 101.097C100.823 101.769 99.9389 102.363 99.0713 102.982C98.6431 103.3 98.1839 103.571 97.7389 103.86L96.3896 104.705C94.5625 105.796 92.676 106.784 90.7388 107.666C82.9627 111.24 74.444 112.906 65.8929 112.523C57.3418 112.141 49.0061 109.722 41.5807 105.468C37.8949 103.371 34.4734 100.842 31.389 97.9332C28.3297 95.0152 25.598 91.7726 23.2425 88.2627C20.8992 84.735 18.9629 80.9536 17.4706 76.9908C17.2678 76.5011 17.1129 75.9973 16.941 75.4963L16.4368 73.9934L16.0086 72.468C15.8678 71.9586 15.71 71.4548 15.6058 70.9369C15.3776 69.9068 15.1129 68.8824 14.9523 67.841L14.6706 66.2818L14.4734 64.7114C14.3128 63.6222 14.2593 62.5217 14.1692 61.4241C14.1129 60.8752 14.1213 60.3236 14.1016 59.772C14.0819 59.2203 14.065 58.6715 14.0593 58.1199C14.0669 55.913 14.2023 53.7084 14.465 51.5172C14.5354 50.9712 14.5945 50.4224 14.6706 49.8735L14.9523 48.244C15.1157 47.152 15.3974 46.0825 15.634 45.0073C15.7439 44.467 15.9157 43.9407 16.0594 43.4087L16.5129 41.8186L17.0425 40.2537C17.2171 39.733 17.3918 39.2096 17.6058 38.703L18.2171 37.1803C18.3157 36.9242 18.4256 36.6709 18.5439 36.4232L18.8875 35.6746C19.1213 35.1764 19.3354 34.6698 19.5889 34.1829L20.3523 32.7251C20.4819 32.483 20.603 32.2382 20.7354 31.9961L21.1523 31.2869L21.9974 29.8796C22.2791 29.4152 22.5974 28.9621 22.8988 28.5034C23.2002 28.0446 23.4904 27.5802 23.8256 27.144C24.4735 26.2602 25.1045 25.3624 25.8115 24.5237C26.1608 24.1016 26.4904 23.6625 26.8538 23.2516L27.9468 22.0217C28.1299 21.819 28.3073 21.6079 28.4961 21.4109L29.0594 20.8227L30.2088 19.6463L31.4116 18.5205C31.8116 18.1434 32.2088 17.7662 32.6341 17.42C35.9476 14.5145 39.5903 12.0066 43.4877 9.94765L44.9582 9.18493L46.4624 8.49539C47.4568 8.01131 48.4962 7.65105 49.5188 7.22325C50.0314 7.0178 50.5582 6.86019 51.0793 6.67444L51.8624 6.40706C52.1216 6.31419 52.3836 6.22975 52.6512 6.15939C53.7132 5.87794 54.7639 5.53177 55.8428 5.31505C60.0353 4.3377 64.3368 3.90726 68.64 4.03448C72.9084 4.16614 77.15 4.75875 81.2908 5.80196C81.5528 5.85825 81.812 5.92861 82.0683 6.0046L82.843 6.22412C83.3585 6.37329 83.8768 6.50557 84.3895 6.666L85.9162 7.17541L86.6796 7.42871C86.936 7.51315 87.181 7.62009 87.4317 7.71016L88.936 8.28993L89.3134 8.43628L89.6825 8.59953L90.4205 8.926C90.9106 9.14835 91.4092 9.35098 91.8937 9.5874L93.336 10.3107C97.1796 12.2627 100.758 14.6972 103.984 17.5551C104.807 18.2419 105.55 19.0158 106.325 19.7504C106.522 19.9333 106.705 20.1275 106.888 20.3133L107.438 20.8987C107.798 21.2927 108.178 21.6699 108.528 22.078L109.567 23.2994C109.739 23.5049 109.916 23.7047 110.085 23.913L110.576 24.549L111.559 25.8184C111.871 26.2518 112.173 26.6937 112.483 27.1299C113.116 27.9939 113.663 28.9143 114.243 29.8149C114.716 30.617 114.925 32.134 112.742 28.7595C112.485 28.3261 112.178 27.9151 111.897 27.5127L111.035 26.2743L110.102 25.1063C109.795 24.7095 109.5 24.3014 109.164 23.9242C108.508 23.1643 107.883 22.3763 107.178 21.6586L106.147 20.561C105.792 20.2063 105.426 19.863 105.066 19.5168C102.17 16.7449 98.9553 14.3272 95.4881 12.3146C92.0253 10.3045 88.3599 8.66492 84.5528 7.42309C80.7601 6.16667 76.8408 5.32952 72.8654 4.92666C68.8872 4.52051 64.8751 4.57908 60.9104 5.10116C56.7196 5.66278 52.6167 6.75121 48.699 8.34059C47.7075 8.70929 46.7554 9.17086 45.7892 9.60147C45.3018 9.80974 44.8399 10.0659 44.3807 10.3023C43.9215 10.5387 43.437 10.7807 42.9722 11.0284C41.1227 12.0461 39.3304 13.1642 37.6032 14.3776C35.8772 15.586 34.2175 16.8862 32.6313 18.2728L31.4566 19.3451C31.0735 19.7054 30.6764 20.0516 30.3158 20.4371C29.5806 21.1914 28.8256 21.926 28.1411 22.7281C25.3041 25.8609 22.8728 29.3377 20.9044 33.0769C18.936 36.8272 17.4356 40.8046 16.4368 44.9201C15.4554 49.0342 14.9293 53.2436 14.8678 57.4726C14.7962 61.8089 15.2435 66.1382 16.2002 70.3684C17.1455 74.6159 18.6298 78.7254 20.6171 82.5972C24.6484 90.399 30.5234 97.1006 37.7328 102.121C38.1666 102.453 38.637 102.732 39.0905 103.036C39.544 103.34 39.9976 103.63 40.4708 103.911L41.8793 104.741L42.5835 105.158L43.3074 105.538L44.7554 106.301C45.2427 106.545 45.7413 106.765 46.2342 106.999C47.2145 107.48 48.2342 107.871 49.2427 108.285C49.7441 108.501 50.2624 108.67 50.7779 108.848L52.3244 109.388L53.8991 109.847C54.4258 109.996 54.9442 110.165 55.4822 110.28C56.547 110.525 57.6061 110.809 58.6907 110.981L60.3076 111.262L61.9386 111.474C64.1225 111.743 66.3213 111.874 68.5217 111.868L70.1724 111.814C70.7358 111.792 71.2739 111.789 71.8203 111.73C72.9161 111.631 74.0147 111.561 75.1049 111.386C75.6485 111.307 76.195 111.243 76.7387 111.153L78.3584 110.846L79.1697 110.694L79.9725 110.503L81.5753 110.12C82.1077 109.982 82.6317 109.819 83.1585 109.669C83.6852 109.52 84.2176 109.388 84.7331 109.191C85.7698 108.834 86.8148 108.504 87.8317 108.082C89.8773 107.29 91.8768 106.383 93.8205 105.366C95.7538 104.334 97.6255 103.19 99.4262 101.941C100.345 101.333 101.204 100.652 102.077 99.9709C102.522 99.6472 102.922 99.2757 103.35 98.9239C103.778 98.5721 104.195 98.2203 104.601 97.8516L105.804 96.7258C106.004 96.5372 106.207 96.3543 106.401 96.1629L106.964 95.5691L108.108 94.3842L109.19 93.143C112.065 89.81 114.512 86.1312 116.474 82.1919C117.446 80.3063 118.085 79.8081 117.331 81.4602Z" fill="#FF945C"/>
</g>
</g>
<path d="M53.0084 65.6032C51.1174 67.0338 48.8484 67.749 46.2011 67.749C43.5702 67.749 41.4491 66.9022 39.8377 65.2086C38.2263 63.515 37.4207 61.4021 37.4207 58.87C37.4207 56.3378 38.1935 54.2331 39.7391 52.5559C41.3011 50.8623 43.3976 50.0155 46.0284 50.0155C47.2452 50.0155 48.4619 50.18 49.6787 50.5088C50.8955 50.8377 51.8163 51.1748 52.4411 51.5201V54.6771L52.1698 54.6277C51.7587 53.1479 51.0435 52.1038 50.024 51.4954C49.021 50.887 47.6891 50.5828 46.0284 50.5828C43.9238 50.5828 42.3206 51.3474 41.2189 52.8766C40.1173 54.3893 39.5664 56.3707 39.5664 58.8206C39.5664 61.2706 40.1501 63.2519 41.3176 64.7647C42.485 66.2774 44.1211 67.0338 46.2257 67.0338C47.7385 67.0338 48.9963 66.8529 49.9993 66.4912C51.0188 66.113 52.0218 65.5704 53.0084 64.8633V65.6032Z" fill="#282828"/>
<path d="M55.226 61.6817C55.226 59.9552 55.7193 58.5082 56.7059 57.3408C57.6924 56.1733 59.0325 55.5896 60.7261 55.5896C62.4197 55.5896 63.7845 56.1733 64.8203 57.3408C65.8562 58.5082 66.3742 59.9552 66.3742 61.6817C66.3742 63.4081 65.8727 64.8551 64.8697 66.0225C63.8831 67.1735 62.543 67.749 60.8494 67.749C59.1558 67.749 57.7911 67.1653 56.7552 65.9979C55.7357 64.8304 55.226 63.3917 55.226 61.6817ZM58.0624 65.6772C58.7201 66.7296 59.6491 67.2557 60.8494 67.2557C62.0497 67.2557 62.9541 66.7378 63.5625 65.7019C64.1873 64.666 64.4997 63.3342 64.4997 61.7063C64.4997 60.062 64.1709 58.7137 63.5131 57.6614C62.8554 56.6091 61.9264 56.0829 60.7261 56.0829C59.5422 56.0829 58.6379 56.6091 58.0131 57.6614C57.4047 58.6973 57.1005 60.0292 57.1005 61.657C57.1005 63.2848 57.4211 64.6249 58.0624 65.6772Z" fill="#282828"/>
<path d="M72.8171 55.5896V60.0045C72.9651 58.8206 73.3762 57.793 74.0503 56.9215C74.7245 56.0336 75.6206 55.5896 76.7387 55.5896C79.2544 55.5896 80.5123 56.905 80.5123 59.5359V63.4328C80.5123 65.1429 80.6192 66.2034 80.8329 66.6145C81.0631 67.0091 81.6551 67.2064 82.6088 67.2064L82.6581 67.5024H76.6647L76.714 67.2064C77.7006 67.2064 78.2925 67.0009 78.4898 66.5898C78.6872 66.1787 78.7858 65.0524 78.7858 63.2108V59.7825C78.7858 58.648 78.6049 57.793 78.2432 57.2175C77.8979 56.642 77.3389 56.3542 76.566 56.3542C75.8097 56.3542 75.1766 56.6173 74.6669 57.1435C74.1572 57.6532 73.779 58.3027 73.5324 59.0919C73.0555 60.6211 72.8171 62.1585 72.8171 63.7041C72.8171 65.2497 72.9158 66.2199 73.1131 66.6145C73.3268 67.0091 73.9188 67.2064 74.8889 67.2064L74.9382 67.5024H68.9202L68.9695 67.2064C69.9561 67.2064 70.5562 67.0091 70.77 66.6145C70.9837 66.2034 71.0906 65.1264 71.0906 63.3835V61.4104C71.0906 58.9439 70.9673 57.4559 70.7207 56.9462C70.6384 56.7653 70.4905 56.6009 70.2767 56.4529C70.0794 56.3049 69.8574 56.2144 69.6108 56.1816C69.3806 56.1487 69.0599 56.1322 68.6489 56.1322L68.5995 55.8609C70.0301 55.6801 71.4359 55.5896 72.8171 55.5896Z" fill="#282828"/>
<path d="M90.1531 67.749C88.7061 67.749 87.4647 67.2146 86.4288 66.1459C85.3929 65.0771 84.875 63.6301 84.875 61.805C84.875 59.9634 85.3436 58.4671 86.2808 57.3161C87.2345 56.1651 88.5828 55.5896 90.3257 55.5896C91.4109 55.5896 92.3564 55.7705 93.1621 56.1322C93.9678 56.4775 94.3706 56.9626 94.3706 57.5874C94.3706 58.1465 94.0664 58.426 93.4581 58.426C93.1456 58.426 92.8826 58.3027 92.6688 58.056C92.4715 57.8094 92.3153 57.5463 92.2002 57.2668C92.1015 56.9708 91.896 56.6995 91.5836 56.4529C91.2712 56.2062 90.8601 56.0829 90.3504 56.0829C89.1665 56.0829 88.2704 56.5762 87.662 57.5628C87.0536 58.5493 86.7494 59.9058 86.7494 61.6323C86.7494 63.3424 87.1112 64.6742 87.8346 65.6279C88.5581 66.5651 89.4543 67.0338 90.523 67.0338C92.1509 67.0338 93.3101 66.3761 94.0007 65.0606L94.3706 65.258C93.532 66.9187 92.1262 67.749 90.1531 67.749Z" fill="#282828"/>
<path d="M99.9989 49.3496V63.2108C99.9989 65.036 100.106 66.1623 100.319 66.5898C100.533 67.0009 101.125 67.2064 102.095 67.2064L102.145 67.5024H96.1019L96.1513 67.2064C97.1378 67.2064 97.738 67.0009 97.9517 66.5898C98.1655 66.1787 98.2724 65.0524 98.2724 63.2108V53.7891C98.2724 51.964 98.1737 50.8623 97.9764 50.4842C97.9106 50.3691 97.7873 50.254 97.6065 50.1389C97.4256 50.0238 97.2283 49.958 97.0145 49.9415C96.8172 49.9251 96.5295 49.9169 96.1513 49.9169L96.1019 49.6456C97.3351 49.4483 98.6341 49.3496 99.9989 49.3496Z" fill="#282828"/>
<path d="M113.288 64.814C113.551 64.1727 113.74 63.5232 113.855 62.8655C113.987 62.2078 114.053 61.5008 114.053 60.7444C114.053 59.9881 114.036 59.355 114.003 58.8453C113.97 58.3356 113.913 57.8834 113.831 57.4888C113.748 57.0777 113.609 56.7817 113.411 56.6009C113.05 56.2884 112.449 56.1322 111.611 56.1322L111.562 55.8609C112.992 55.6801 114.398 55.5896 115.779 55.5896V62.027C115.779 63.8521 115.837 65.0524 115.952 65.6279C116.067 66.187 116.346 66.4665 116.79 66.4665C117.07 66.4665 117.44 66.3514 117.9 66.1212L118.024 66.3678C117.892 66.4665 117.719 66.5898 117.506 66.7378C117.292 66.8693 116.856 67.0502 116.198 67.2804C115.541 67.5106 114.908 67.6257 114.299 67.6257C114.135 66.672 114.053 65.5704 114.053 64.3207C113.296 66.6063 111.989 67.749 110.131 67.749C107.615 67.749 106.357 66.4336 106.357 63.8028V61.4104C106.357 58.9439 106.234 57.4559 105.987 56.9462C105.905 56.7653 105.757 56.6009 105.543 56.4529C105.346 56.3049 105.124 56.2144 104.878 56.1816C104.647 56.1487 104.327 56.1322 103.916 56.1322L103.866 55.8609C105.297 55.6801 106.703 55.5896 108.084 55.5896V63.5561C108.084 64.6907 108.257 65.5457 108.602 66.1212C108.964 66.6967 109.514 66.9844 110.254 66.9844C111.011 66.9844 111.636 66.7789 112.129 66.3678C112.639 65.9568 113.025 65.4388 113.288 64.814Z" fill="#282828"/>
<path d="M120.913 63.8274C120.913 64.8962 121.2 65.7019 121.776 66.2445C122.351 66.7707 123.034 67.0338 123.823 67.0338C124.629 67.0338 125.278 66.8529 125.771 66.4912C126.265 66.1294 126.511 65.6444 126.511 65.036C126.511 64.4111 126.298 63.9014 125.87 63.5068C125.459 63.1122 124.958 62.7915 124.366 62.5449C123.774 62.2983 123.174 62.0434 122.565 61.7803C121.973 61.5172 121.464 61.1308 121.036 60.6211C120.625 60.1114 120.419 59.429 120.419 58.574C120.419 57.719 120.798 57.0119 121.554 56.4529C122.327 55.8774 123.215 55.5896 124.218 55.5896C125.648 55.5896 126.766 55.8198 127.572 56.2802C127.572 57.0366 127.473 58.0889 127.276 59.4372L126.98 59.3632C126.98 58.278 126.733 57.4888 126.24 56.9955C125.747 56.5022 125.147 56.2556 124.44 56.2556C123.749 56.2556 123.19 56.4364 122.762 56.7982C122.351 57.1599 122.146 57.6532 122.146 58.278C122.146 58.8864 122.351 59.3797 122.762 59.7579C123.19 60.1196 123.7 60.4238 124.292 60.6704C124.884 60.9171 125.476 61.1802 126.067 61.4597C126.676 61.7228 127.186 62.1092 127.597 62.6189C128.024 63.1122 128.238 63.7206 128.238 64.444C128.238 65.4964 127.827 66.3103 127.005 66.8858C126.183 67.4613 125.097 67.749 123.749 67.749C122.417 67.749 121.291 67.3955 120.37 66.6885C120.37 65.8663 120.452 64.8962 120.617 63.7781L120.913 63.8274Z" fill="#282828"/>
<path d="M132.804 52.6299C132.525 52.3504 132.385 52.0216 132.385 51.6434C132.385 51.2652 132.525 50.9363 132.804 50.6568C133.084 50.3773 133.412 50.2375 133.791 50.2375C134.169 50.2375 134.498 50.3773 134.777 50.6568C135.057 50.9363 135.196 51.2652 135.196 51.6434C135.196 52.0216 135.057 52.3504 134.777 52.6299C134.498 52.9095 134.169 53.0492 133.791 53.0492C133.412 53.0492 133.084 52.9095 132.804 52.6299ZM134.728 55.5896V63.4328C134.728 65.1593 134.827 66.2199 135.024 66.6145C135.238 67.0091 135.83 67.2064 136.8 67.2064L136.849 67.5024H130.831L130.88 67.2064C131.867 67.2064 132.467 67.0091 132.681 66.6145C132.894 66.2034 133.001 65.1264 133.001 63.3835V61.657C133.001 59.7496 132.944 58.4918 132.829 57.8834C132.73 57.2586 132.582 56.8557 132.385 56.6748C131.99 56.3131 131.382 56.1322 130.56 56.1322L130.51 55.8609C131.941 55.6801 133.347 55.5896 134.728 55.5896Z" fill="#282828"/>
<path d="M139.078 61.6817C139.078 59.9552 139.571 58.5082 140.558 57.3408C141.545 56.1733 142.885 55.5896 144.578 55.5896C146.272 55.5896 147.637 56.1733 148.673 57.3408C149.708 58.5082 150.226 59.9552 150.226 61.6817C150.226 63.4081 149.725 64.8551 148.722 66.0225C147.735 67.1735 146.395 67.749 144.702 67.749C143.008 67.749 141.643 67.1653 140.607 65.9979C139.588 64.8304 139.078 63.3917 139.078 61.6817ZM141.915 65.6772C142.572 66.7296 143.501 67.2557 144.702 67.2557C145.902 67.2557 146.806 66.7378 147.415 65.7019C148.039 64.666 148.352 63.3342 148.352 61.7063C148.352 60.062 148.023 58.7137 147.365 57.6614C146.708 56.6091 145.779 56.0829 144.578 56.0829C143.394 56.0829 142.49 56.6091 141.865 57.6614C141.257 58.6973 140.953 60.0292 140.953 61.657C140.953 63.2848 141.273 64.6249 141.915 65.6772Z" fill="#282828"/>
<path d="M156.669 55.5896V60.0045C156.817 58.8206 157.228 57.793 157.902 56.9215C158.577 56.0336 159.473 55.5896 160.591 55.5896C163.107 55.5896 164.364 56.905 164.364 59.5359V63.4328C164.364 65.1429 164.471 66.2034 164.685 66.6145C164.915 67.0091 165.507 67.2064 166.461 67.2064L166.51 67.5024H160.517L160.566 67.2064C161.553 67.2064 162.145 67.0009 162.342 66.5898C162.539 66.1787 162.638 65.0524 162.638 63.2108V59.7825C162.638 58.648 162.457 57.793 162.095 57.2175C161.75 56.642 161.191 56.3542 160.418 56.3542C159.662 56.3542 159.029 56.6173 158.519 57.1435C158.009 57.6532 157.631 58.3027 157.385 59.0919C156.908 60.6211 156.669 62.1585 156.669 63.7041C156.669 65.2497 156.768 66.2199 156.965 66.6145C157.179 67.0091 157.771 67.2064 158.741 67.2064L158.79 67.5024H152.772L152.822 67.2064C153.808 67.2064 154.408 67.0091 154.622 66.6145C154.836 66.2034 154.943 65.1264 154.943 63.3835V61.4104C154.943 58.9439 154.819 57.4559 154.573 56.9462C154.491 56.7653 154.343 56.6009 154.129 56.4529C153.932 56.3049 153.71 56.2144 153.463 56.1816C153.233 56.1487 152.912 56.1322 152.501 56.1322L152.452 55.8609C153.882 55.6801 155.288 55.5896 156.669 55.5896Z" fill="#282828"/>
<defs>
<filter id="filter0_f" x="0.83667" y="107.157" width="133.202" height="31.5945" filterUnits="userSpaceOnUse" color-interpolation-filters="sRGB">
<feFlood flood-opacity="0" result="BackgroundImageFix"/>
<feBlend mode="normal" in="SourceGraphic" in2="BackgroundImageFix" result="shape"/>
<feGaussianBlur stdDeviation="5" result="effect1_foregroundBlur"/>
</filter>
<filter id="filter1_f" x="25.7517" y="113.858" width="86.1737" height="12.9501" filterUnits="userSpaceOnUse" color-interpolation-filters="sRGB">
<feFlood flood-opacity="0" result="BackgroundImageFix"/>
<feBlend mode="normal" in="SourceGraphic" in2="BackgroundImageFix" result="shape"/>
<feGaussianBlur stdDeviation="2" result="effect1_foregroundBlur"/>
</filter>
<linearGradient id="paint0_linear" x1="67.4376" y1="117.157" x2="67.4376" y2="128.752" gradientUnits="userSpaceOnUse">
<stop stop-color="#B4B4B4"/>
<stop offset="1" stop-color="#F2F1EE"/>
</linearGradient>
<clipPath id="clip0">
<rect width="107.99" height="114.323" fill="white" transform="translate(10.8367 0.78125)"/>
</clipPath>
</defs>
</svg>
