<svg width="204" height="139" viewBox="0 0 204 139" fill="none" xmlns="http://www.w3.org/2000/svg">
<g opacity="0.7" filter="url(#filter0_f)">
<ellipse cx="67.4376" cy="123.121" rx="56.6009" ry="5.79727" fill="url(#paint0_linear)" fill-opacity="0.4"/>
</g>
<g filter="url(#filter1_f)">
<ellipse cx="68.8386" cy="120.499" rx="39.0869" ry="2.47506" fill="#F5F5F5"/>
</g>
<g clip-path="url(#clip0)">
<g opacity="0.8">
<path opacity="0.8" d="M115.288 28.4699C112.922 24.5706 110.125 20.9491 106.95 17.6736L105.75 16.4606L104.494 15.3038C103.671 14.5158 102.767 13.8178 101.891 13.0832C101.451 12.7202 100.981 12.3937 100.525 12.0447L99.8345 11.5325L99.488 11.2764L99.1302 11.0371C98.1725 10.4039 97.2232 9.74529 96.2119 9.1824C95.7161 8.90095 95.226 8.59699 94.7218 8.32118L93.195 7.54157L92.4288 7.14755L91.6457 6.79011L90.0738 6.07524C89.5443 5.85009 89.0062 5.64745 88.471 5.43355C87.9358 5.21965 87.4062 4.9973 86.8541 4.82281C85.7611 4.45974 84.6766 4.06572 83.5611 3.77583C79.1335 2.50418 74.5676 1.77551 69.9638 1.60589C65.2111 1.41447 60.4534 1.82967 55.806 2.84143L54.0679 3.23546L52.3496 3.70829L51.5045 3.94752L50.6594 4.22896L48.9693 4.79185L47.3045 5.43073L46.4594 5.75158C46.1777 5.86698 45.9129 5.99081 45.6425 6.10902L44.0087 6.82952C43.4735 7.08845 42.9439 7.35863 42.4087 7.626L41.5974 8.00877C41.3326 8.14668 41.0763 8.29022 40.8171 8.4422L39.2594 9.32594C38.7495 9.63553 38.2481 9.96201 37.741 10.28L36.9833 10.7613C36.7326 10.9246 36.4931 11.1019 36.2452 11.2735L34.7804 12.3093C34.3016 12.6667 33.834 13.0438 33.372 13.4097L32.6649 13.9726C32.4311 14.1584 32.2086 14.361 31.9804 14.5552L30.6114 15.7035C30.1691 16.106 29.741 16.5253 29.3043 16.9362L28.6536 17.5554C28.4367 17.7637 28.2367 17.986 28.0283 18.1999L26.7888 19.4974C26.386 19.9393 26.0001 20.3952 25.6057 20.8455L25.017 21.521C24.8198 21.7461 24.6423 21.9854 24.4536 22.219L23.3409 23.6262C22.9775 24.099 22.6395 24.5916 22.2874 25.0728C21.9353 25.5541 21.5832 26.0354 21.2677 26.542L20.2902 28.0364C19.9662 28.5374 19.6817 29.0581 19.3747 29.5675C18.7493 30.5807 18.2198 31.6474 17.662 32.6972C17.5183 32.9589 17.3803 33.2263 17.2676 33.4965L16.8902 34.3042L16.5268 35.1232C16.4 35.4047 16.2761 35.6608 16.1662 35.9394C15.724 37.0427 15.2423 38.1319 14.8733 39.2633C14.6789 39.8262 14.4732 40.3891 14.2901 40.952L13.7859 42.6632L13.5352 43.5075L13.3239 44.3744L12.9099 46.1137C12.7803 46.6963 12.6845 47.2845 12.5718 47.8699L12.4113 48.7509L12.3324 49.1927L12.2732 49.6374C12.1239 50.8223 11.9352 52.0044 11.8704 53.2005C11.8253 53.7972 11.7746 54.3938 11.738 54.9905L11.6929 56.7861L11.6704 57.6839C11.6704 57.9823 11.6704 58.2834 11.6901 58.5817L11.738 60.3802C11.8602 62.7782 12.1359 65.166 12.5634 67.5289L12.7239 68.4155L12.8028 68.8573L12.9042 69.2964L13.3099 71.0526C13.4338 71.6408 13.6197 72.2122 13.7747 72.7919C13.9296 73.3717 14.0873 73.9628 14.2732 74.5256C14.6592 75.6514 15.0141 76.8082 15.4733 77.9199C15.6958 78.4828 15.8958 79.0457 16.1409 79.5917L16.8733 81.2353C17.1071 81.7982 17.3888 82.3189 17.6564 82.8536C17.924 83.3884 18.1859 83.9287 18.4789 84.4551C19.0761 85.4964 19.6395 86.5575 20.3015 87.551C21.5766 89.5852 22.9794 91.5367 24.5015 93.3938C25.2902 94.3 26.0424 95.2372 26.8846 96.0928C27.2987 96.5262 27.7015 96.9709 28.1269 97.3959L29.4227 98.6455C29.848 99.0705 30.3015 99.4617 30.7551 99.8586C31.2086 100.255 31.6537 100.655 32.1156 101.038L33.5241 102.164C33.7607 102.349 33.9917 102.541 34.234 102.726L34.9664 103.253C35.4565 103.602 35.941 103.959 36.434 104.303L37.9439 105.288L38.7016 105.777L39.4791 106.233L41.034 107.145L42.6312 107.99L43.4312 108.406C43.7129 108.538 43.9749 108.662 44.2481 108.789L45.8847 109.546C46.4481 109.785 47.0115 110.002 47.5552 110.23C48.6622 110.703 49.8087 111.074 50.9355 111.465C51.2172 111.57 51.4989 111.654 51.7975 111.747L52.6651 111.997C53.2454 112.158 53.8172 112.346 54.4031 112.481L56.1609 112.892C56.4426 112.957 56.7468 113.036 57.0426 113.087L57.9299 113.247L59.7074 113.562L61.499 113.787L62.4933 113.908C62.8257 113.945 63.1581 113.962 63.4933 113.987L65.4934 114.128L67.4962 114.167C67.8314 114.167 68.1638 114.184 68.499 114.167L69.5018 114.136C72.1741 114.069 74.8377 113.805 77.4709 113.345L79.4428 112.98C80.0935 112.836 80.7414 112.676 81.3921 112.524C81.716 112.445 82.0428 112.374 82.3639 112.284L83.3245 112.003L84.285 111.721C84.6062 111.629 84.9273 111.539 85.24 111.426L87.133 110.779C87.764 110.565 88.3752 110.297 88.9978 110.058L89.9273 109.689C90.2344 109.56 90.5358 109.408 90.84 109.281C91.4457 109 92.0598 108.741 92.6598 108.437C96.7997 106.432 100.685 103.94 104.232 101.012C107.726 98.1119 110.819 94.7595 113.429 91.0437C113.854 90.4076 113.528 90.6328 113.094 91.2688C110.544 94.7752 107.548 97.9343 104.181 100.666C103.773 101.024 103.336 101.342 102.899 101.671L101.618 102.67L100.271 103.591C99.8204 103.895 99.3809 104.21 98.9105 104.486C97.9838 105.048 97.0711 105.642 96.1133 106.149L94.7049 106.937L93.2513 107.663C92.2513 108.189 91.2034 108.617 90.1752 109.087C89.6597 109.324 89.1245 109.509 88.6006 109.723C88.0766 109.937 87.5499 110.151 87.0118 110.331C85.9358 110.686 84.871 111.091 83.7724 111.384L82.1329 111.857L80.4709 112.239C79.3695 112.521 78.2427 112.695 77.1244 112.912C76.8427 112.968 76.561 113.008 76.2794 113.044L75.4343 113.16C74.8709 113.23 74.3075 113.323 73.7441 113.374L72.054 113.514L71.2089 113.582L70.3638 113.61L68.6737 113.661C68.1103 113.661 67.5469 113.644 66.9835 113.638C64.6211 113.583 62.2644 113.381 59.9271 113.033L58.1863 112.723C57.606 112.616 57.0257 112.524 56.4538 112.38C55.3074 112.099 54.1552 111.862 53.0285 111.513C52.4651 111.344 51.9017 111.195 51.3383 111.012L49.6679 110.449L48.8228 110.168L48.0031 109.839L46.3186 109.143C44.1534 108.206 42.0471 107.139 40.0115 105.946C38.9805 105.383 38.0002 104.711 37.0086 104.072L36.6368 103.83L36.2762 103.571L35.5579 103.056L34.8368 102.555C34.5945 102.383 34.3579 102.211 34.1269 102.023C33.203 101.285 32.2621 100.573 31.3861 99.7713C30.9438 99.3773 30.4874 99.003 30.0621 98.5949L28.7832 97.3678C28.3494 96.9653 27.9381 96.5234 27.5438 96.1013C27.1494 95.6791 26.724 95.2569 26.3353 94.8066C25.5719 93.906 24.7747 93.0335 24.0818 92.085C23.7212 91.6178 23.3522 91.1563 23.0029 90.6778L21.986 89.2312C21.8198 88.9891 21.6423 88.7527 21.4846 88.505L21.0113 87.7592C20.6986 87.2611 20.3775 86.7657 20.0705 86.2619C15.2252 78.1234 12.5404 68.8833 12.2704 59.4176C12.2704 58.8294 12.2394 58.2412 12.2338 57.6558L12.2817 55.8939L12.307 55.013C12.3239 54.7316 12.3493 54.4276 12.3718 54.1349L12.5127 52.3815C12.5606 51.7989 12.6563 51.2191 12.7268 50.6365L12.8423 49.7669C12.8789 49.4854 12.9183 49.1871 12.9746 48.9L13.2901 47.1748C13.3465 46.8933 13.3887 46.6119 13.4563 46.3135L13.6592 45.4692C14.6908 40.8966 16.3019 36.4741 18.4536 32.3088C18.7353 31.7937 18.9859 31.2759 19.2648 30.7665L20.1465 29.2607L20.5888 28.5093L21.0648 27.7803L22.0198 26.3224C23.3459 24.4113 24.788 22.5831 26.3381 20.8483C29.4326 17.3755 32.9501 14.3036 36.8086 11.7042C37.2791 11.3636 37.7805 11.0681 38.2706 10.7557C38.7608 10.4433 39.2481 10.1252 39.7551 9.83817C40.772 9.27528 41.7664 8.66454 42.8171 8.1495C44.8923 7.08447 47.0295 6.14463 49.2172 5.33504L50.8735 4.77215L51.7017 4.4907L52.5468 4.24585L54.2369 3.76176L55.9271 3.35648L56.7722 3.15665C57.0539 3.09192 57.3355 3.04688 57.6172 2.99059L59.3384 2.67538C59.9018 2.57687 60.4933 2.51496 61.068 2.43334C61.6426 2.35172 62.2201 2.26728 62.8032 2.2307L64.7356 2.07309C65.3807 2.02243 66.0286 2.02243 66.6737 1.9971L67.6427 1.96614C67.9666 1.96614 68.2906 1.96614 68.6117 1.96614L70.5525 1.99991L72.4878 2.12656L73.4568 2.19129L74.4202 2.30387L76.347 2.53466L78.2597 2.85551C78.578 2.91179 78.8991 2.95683 79.2146 3.02437L80.1639 3.23264C80.7949 3.37618 81.4315 3.51409 82.0569 3.66325C83.3048 4.01225 84.5639 4.32184 85.7836 4.75526L86.7048 5.06204C87.0118 5.16054 87.3189 5.2675 87.6203 5.38852L89.4316 6.09213C89.7358 6.20471 90.0316 6.3398 90.3245 6.47208L91.2119 6.86891C91.8034 7.13347 92.3978 7.39522 92.9668 7.71325L94.6992 8.60544L96.3894 9.58768C96.6711 9.75373 96.9528 9.91134 97.2344 10.0887L98.0457 10.6234L98.8542 11.1582C99.1359 11.3355 99.395 11.5128 99.6514 11.721L101.209 12.8722C101.471 13.0607 101.719 13.2662 101.97 13.4716L102.716 14.0852L103.463 14.6987C103.711 14.9042 103.944 15.1265 104.184 15.3404L105.612 16.6407C107.46 18.4292 109.2 20.3257 110.823 22.3203C111.229 22.8184 111.609 23.3391 112.004 23.8457L112.592 24.6113L113.156 25.4021C113.522 25.9312 113.908 26.4491 114.26 26.9895L115.311 28.619C115.682 29.1707 115.657 29.0581 115.288 28.4699Z" fill="#FF945C"/>
</g>
<g opacity="0.8">
<path opacity="0.8" d="M117.399 29.6687C113.396 22.4946 107.669 16.3141 100.917 11.5126L99.3903 10.4797L98.627 9.96466L97.841 9.48621L96.2692 8.5293L94.6523 7.64837L93.8438 7.2065L93.0157 6.80404L91.3593 6.00191L89.6692 5.2786L88.8241 4.91835C88.5424 4.80014 88.2607 4.70445 87.9621 4.59469C83.3636 2.83842 78.5512 1.70263 73.6521 1.21734L71.8127 1.05129C71.1986 1.02033 70.5817 1.00344 69.9676 0.978108L69.0436 0.944336C68.7366 0.944336 68.4267 0.944336 68.1197 0.944336L66.2718 0.975295C63.8075 1.0735 61.3524 1.33393 58.9224 1.7549C57.7027 1.93784 56.5055 2.22492 55.3027 2.48947C55.0013 2.55139 54.7027 2.62738 54.4069 2.71181L53.5168 2.95386C52.9252 3.12273 52.3252 3.25782 51.7421 3.46046L49.9872 4.02335C49.7055 4.11341 49.4041 4.21755 49.1167 4.32731L48.2547 4.64816C47.0942 5.05344 45.973 5.55442 44.8435 6.03288C42.6025 7.02599 40.4239 8.15384 38.3195 9.41023C37.2518 10.0153 36.2434 10.7077 35.2208 11.3803C34.7082 11.7153 34.2237 12.0924 33.7251 12.447C33.2265 12.8016 32.7251 13.1563 32.2546 13.5503L30.8208 14.7014C30.3419 15.0842 29.8969 15.5063 29.4321 15.9088C28.4968 16.7025 27.6405 17.5975 26.7588 18.4418C25.0355 20.1984 23.4354 22.0716 21.97 24.0482C18.9671 28.0969 16.5288 32.5347 14.7221 37.2396C13.8292 39.5912 13.0887 41.9979 12.5052 44.4446C12.1812 45.6604 11.9784 46.8988 11.7362 48.1315L11.6488 48.5931L11.584 49.0603L11.4517 49.9919L11.3193 50.9235C11.2742 51.233 11.2291 51.5454 11.2066 51.8578C10.6519 56.8578 10.7466 61.9085 11.4883 66.8842C11.8487 69.37 12.3757 71.8288 13.0657 74.244C13.4432 75.443 13.7925 76.656 14.2517 77.8268L14.5784 78.7134C14.6855 79.0089 14.7953 79.3044 14.9249 79.5915L15.6658 81.328C19.8386 90.5339 26.3669 98.4778 34.5927 104.359C35.0885 104.744 35.6208 105.076 36.1392 105.431L36.9195 105.957C37.1786 106.135 37.4406 106.309 37.711 106.467C38.7843 107.117 39.8491 107.787 40.9674 108.364L41.7955 108.814L42.2096 109.039L42.635 109.245L44.3251 110.064L44.7505 110.269L45.1843 110.452L46.0519 110.818L46.9195 111.184L47.3533 111.367L47.7956 111.53C55.1642 114.352 63.0411 115.605 70.9225 115.211C71.6296 115.166 72.331 115.13 73.0465 115.079L75.162 114.845C75.869 114.783 76.5705 114.643 77.2662 114.536L78.3169 114.367C78.6662 114.313 79.0127 114.226 79.3592 114.156C82.1377 113.6 84.8689 112.831 87.5283 111.854C88.1903 111.6 88.8607 111.375 89.5001 111.097L91.4523 110.252C92.1001 109.971 92.7283 109.641 93.3678 109.335C93.6833 109.177 94.0072 109.031 94.3199 108.862L95.2495 108.352C96.503 107.697 97.6974 106.945 98.9115 106.199C100.08 105.403 101.264 104.629 102.373 103.756C102.937 103.331 103.5 102.912 104.038 102.448C104.576 101.983 105.128 101.55 105.658 101.083L107.216 99.6501C107.481 99.4165 107.726 99.1632 107.974 98.9128L108.717 98.1585C110.695 96.1437 112.515 93.9795 114.159 91.6852C114.365 91.4038 114.585 91.1223 114.779 90.8409L115.365 89.96L115.948 89.079C116.044 88.9327 116.145 88.7976 116.23 88.6372L116.512 88.184L117.593 86.3687C117.931 85.7495 118.258 85.1247 118.588 84.5055C118.948 83.8244 118.841 83.8273 118.478 84.5055L117.605 86.1407C117.295 86.6755 116.971 87.2018 116.652 87.7337L116.174 88.5274C116.01 88.7891 115.83 89.0424 115.661 89.2986L114.624 90.8353C114.261 91.3362 113.886 91.8259 113.517 92.3213L112.954 93.0615C112.762 93.3035 112.562 93.54 112.365 93.7764L111.179 95.2033L109.928 96.5711L109.303 97.255L108.647 97.908L107.328 99.2111L105.954 100.452C105.723 100.658 105.497 100.869 105.264 101.069L104.548 101.657C104.069 102.045 103.596 102.445 103.111 102.825L101.627 103.931C101.376 104.111 101.137 104.305 100.881 104.477L100.114 104.995C99.6016 105.335 99.0974 105.693 98.5763 106.022C94.4069 108.679 89.9151 110.792 85.21 112.312L84.3283 112.594L83.886 112.735L83.4381 112.856L81.6465 113.337L81.1987 113.458L80.7451 113.556L79.8381 113.753L78.931 113.948L78.4775 114.046L78.0212 114.122L76.1902 114.42L75.7338 114.494L75.2718 114.547L74.3507 114.651L73.4296 114.753C73.1225 114.789 72.8155 114.82 72.5056 114.834L70.6549 114.944C70.038 114.995 69.4183 114.978 68.8014 114.989C68.1845 115 67.5648 115.014 66.9478 114.989C65.714 114.927 64.4746 114.919 63.2464 114.775L61.4013 114.598L59.5675 114.333L58.652 114.201C58.3478 114.15 58.0464 114.085 57.7421 114.026L55.9252 113.669C53.5126 113.134 51.1368 112.445 48.8125 111.606C37.0833 107.415 27.0771 99.4544 20.3616 88.9721C19.0489 86.9184 17.8627 84.7867 16.8094 82.5889C16.2461 81.5025 15.7953 80.3655 15.2996 79.2481C15.0629 78.6853 14.8601 78.1055 14.6404 77.537C14.4207 76.9684 14.201 76.3943 14.0235 75.8089L13.4601 74.0639C13.2798 73.4785 13.1333 72.8847 12.97 72.2936C12.6235 71.1172 12.4066 69.9126 12.1249 68.7193C11.6576 66.3146 11.3537 63.8811 11.215 61.4354C11.1164 60.214 11.1305 58.9897 11.1192 57.7766C11.1023 57.1659 11.1559 56.5552 11.1728 55.9444C11.1897 55.3337 11.2122 54.723 11.2685 54.1122L11.4432 52.2885C11.477 51.9845 11.4939 51.6805 11.539 51.3766L11.6714 50.4703L11.9531 48.6578L12.3108 46.8622C13.295 42.072 14.8902 37.4278 17.0573 33.0432C17.3108 32.4803 17.6207 31.9484 17.9024 31.408C18.1841 30.8676 18.4658 30.3244 18.7841 29.7953C19.4264 28.7512 20.0235 27.6789 20.7306 26.6769C21.0771 26.1703 21.4067 25.6553 21.7644 25.1571L22.863 23.6851C23.2207 23.187 23.6123 22.717 24.0039 22.247C24.3954 21.7769 24.7757 21.2957 25.1813 20.8397C28.4112 17.1505 32.1037 13.8926 36.1673 11.1467C38.1792 9.76864 40.2753 8.51753 42.4434 7.4007C43.5392 6.86595 44.6266 6.3115 45.7561 5.84993L46.6012 5.48687C46.8829 5.36304 47.1646 5.24483 47.4463 5.14351L49.159 4.499C49.7224 4.27102 50.3139 4.10778 50.8942 3.91358L51.7646 3.63214C52.0463 3.53645 52.3449 3.44357 52.6407 3.3704C53.821 3.05518 54.9956 2.71181 56.1957 2.47821C58.5903 1.94926 61.0171 1.5779 63.4605 1.3665L65.483 1.23704L65.9873 1.20608H66.4943H67.5056C68.8549 1.16105 70.2014 1.2483 71.5507 1.29614C72.2239 1.33836 72.8944 1.41153 73.5648 1.47064L74.5704 1.56352L75.5704 1.70424L77.5705 1.98568L79.5423 2.37408C79.8719 2.44163 80.2043 2.4951 80.5311 2.57672L81.5113 2.82158C82.1649 2.99045 82.824 3.13398 83.4691 3.32536L85.4043 3.91358L85.8888 4.05994L86.3649 4.22881L87.317 4.57217C88.5959 5.00279 89.8297 5.55442 91.0776 6.07228C91.6917 6.35372 92.2973 6.65205 92.9086 6.93912C93.2128 7.08548 93.5199 7.22057 93.8213 7.381L94.7143 7.86227C99.3653 10.3365 103.651 13.4422 107.45 17.0909C109.336 18.9268 111.098 20.8853 112.726 22.9534C113.495 24.0116 114.3 25.0333 114.979 26.1281L115.512 26.9358C115.689 27.2173 115.869 27.4734 116.027 27.752L117.002 29.4069C117.173 29.7317 117.376 30.039 117.607 30.3244C117.723 30.3836 117.675 30.195 117.399 29.6687Z" fill="#FF945C"/>
</g>
<path d="M117.987 33.6857L117.274 32.2531C117.021 31.7831 116.756 31.3215 116.497 30.8459C115.992 29.9031 115.409 29.0081 114.843 28.1018C114.561 27.643 114.254 27.2096 113.95 26.7706L113.032 25.4534L112.054 24.1813C111.725 23.7591 111.409 23.3369 111.054 22.926C108.319 19.6311 105.226 16.6501 101.832 14.038C98.4302 11.451 94.7444 9.26028 90.8457 7.50843C90.3668 7.27202 89.8626 7.08626 89.3696 6.88362L87.8823 6.28132L86.3668 5.75221C85.8597 5.58335 85.3611 5.38351 84.8428 5.24561L83.302 4.79529C83.0456 4.72212 82.7893 4.6405 82.5301 4.57296L81.7498 4.3872L80.1893 4.02132C79.6681 3.89185 79.1386 3.81587 78.6118 3.71173C74.3979 2.91523 70.1095 2.58114 65.823 2.71541C61.5327 2.88238 57.2775 3.55789 53.1468 4.72775L52.3693 4.94165L51.6031 5.19213L50.0707 5.6931C49.5581 5.85634 49.0623 6.06743 48.558 6.256C48.0538 6.44456 47.5496 6.63032 47.0538 6.84141C45.0666 7.66861 43.1283 8.60828 41.2481 9.65586C40.7805 9.92324 40.3016 10.1681 39.8397 10.4524L38.4678 11.2967L37.7833 11.7245L37.1185 12.1832L35.7889 13.1008C35.3467 13.4075 34.9298 13.7481 34.4988 14.0717C34.0678 14.3954 33.634 14.7163 33.2255 15.0652L31.9917 16.1094C31.7861 16.2839 31.5776 16.4556 31.3776 16.6329L30.7861 17.1958L29.6058 18.2991C29.217 18.6734 28.8508 19.0674 28.479 19.453L27.9156 20.0328C27.7269 20.2241 27.541 20.4212 27.3663 20.6266L26.2987 21.8396C26.1241 22.0451 25.9381 22.2393 25.7691 22.4504L25.2593 23.0696L24.2508 24.3333C23.9269 24.7639 23.617 25.2057 23.3015 25.642C22.986 26.0782 22.6564 26.506 22.3747 26.9648C19.9785 30.5519 17.9942 34.3972 16.4592 38.428C14.9582 42.4456 13.9407 46.6272 13.4282 50.8848C12.3511 59.4152 13.2375 68.0787 16.0198 76.2149C17.4031 80.2704 19.2701 84.1447 21.5804 87.7542C22.7314 89.5585 23.9842 91.2959 25.3325 92.9581L26.3776 94.174C26.7297 94.5765 27.0649 94.993 27.4396 95.3729C28.1804 96.1413 28.8931 96.9406 29.6931 97.6611L30.8508 98.7672L32.0565 99.8198C32.8481 100.537 33.7016 101.179 34.5354 101.843C34.9467 102.181 35.3805 102.485 35.8199 102.795L37.1213 103.723L38.465 104.593C38.9157 104.875 39.3523 105.184 39.8199 105.437C43.4808 107.621 47.383 109.372 51.4482 110.655C55.5086 111.926 59.7011 112.729 63.9441 113.048C68.1973 113.387 72.475 113.255 76.6991 112.654C80.9191 112.021 85.0505 110.897 89.0091 109.305C92.9577 107.713 96.7093 105.671 100.189 103.22C101.932 102.001 103.605 100.686 105.201 99.2794C105.598 98.9248 105.978 98.5533 106.367 98.193C106.756 97.8328 107.156 97.4781 107.516 97.0869C108.249 96.3158 109.015 95.5784 109.697 94.7622C110.24 94.143 110.02 94.0445 109.48 94.6609L108.956 95.2575C108.778 95.4546 108.589 95.6403 108.406 95.8204L107.302 96.9603C106.939 97.3459 106.536 97.6921 106.156 98.0579C105.775 98.4238 105.389 98.7897 104.992 99.1387C103.401 100.541 101.732 101.852 99.9922 103.065C96.5241 105.508 92.7799 107.534 88.8372 109.102C80.9343 112.277 72.3931 113.545 63.9075 112.803C61.7944 112.629 59.6926 112.339 57.6116 111.933L57.2201 111.863L56.8313 111.773L56.0567 111.595L54.5074 111.238L52.9778 110.805C52.4708 110.653 51.9524 110.523 51.4538 110.351C47.4075 109.052 43.526 107.286 39.8875 105.091C36.2522 102.885 32.8754 100.28 29.8199 97.3234L29.2565 96.7605C29.0677 96.5747 28.8875 96.3777 28.6931 96.1976L27.5945 95.0437C27.2227 94.6637 26.8931 94.2444 26.541 93.8475C26.1888 93.4507 25.8396 93.0482 25.5072 92.6345C24.1667 90.9817 22.926 89.2505 21.7916 87.4502C17.2113 80.2621 14.4817 71.9707 13.6226 63.5274C13.2289 59.2943 13.3414 55.0294 13.9578 50.8229C15.1737 42.3877 18.2528 34.3284 22.9719 27.2293C25.3476 23.6891 28.1362 20.4438 31.279 17.5617C36.0043 13.2234 41.4339 9.72001 47.3355 7.20166C47.8285 6.99902 48.3299 6.81044 48.8256 6.61625C49.3214 6.42205 49.8144 6.21378 50.3242 6.05335C51.3412 5.72688 52.3412 5.35256 53.3778 5.09081C57.4861 3.92906 61.7173 3.2555 65.9835 3.08411C70.2457 2.93568 74.5111 3.25943 78.7019 4.04946C87.0795 5.58616 95.0091 9.21962 101.784 14.3391C105.155 16.93 108.221 19.8937 110.925 23.1737C111.277 23.5705 111.584 24.018 111.911 24.4233C112.237 24.8286 112.561 25.2676 112.877 25.687L113.787 26.9929L114.24 27.6459C114.392 27.8626 114.522 28.0934 114.668 28.3157L115.513 29.6638L115.725 30.0016L115.919 30.3477L116.311 31.0401C116.567 31.5045 116.837 31.9604 117.085 32.4304L117.801 33.8517L118.161 34.561C118.28 34.789 118.483 34.6313 117.987 33.6857Z" fill="#FF945C"/>
<path d="M114.347 83.7592C112.41 87.1169 110.164 90.2866 107.637 93.227C105.085 96.1947 102.2 98.8588 99.0373 101.167L98.7021 101.417L98.3528 101.651L97.6542 102.107L96.9585 102.574C96.7275 102.731 96.4937 102.886 96.2542 103.027C95.2965 103.59 94.3528 104.201 93.3584 104.716C91.3992 105.781 89.3745 106.721 87.2964 107.53C86.2457 107.907 85.2119 108.324 84.1386 108.633C83.6062 108.797 83.0767 108.977 82.5414 109.123L80.9217 109.545C80.64 109.613 80.3837 109.694 80.1104 109.748L79.2907 109.92C78.7442 110.032 78.2006 110.153 77.6513 110.257L75.9977 110.516L75.1696 110.646L74.3245 110.736C73.7217 110.798 73.1188 110.871 72.516 110.927L70.6991 111.031C70.0935 111.079 69.4878 111.076 68.8822 111.082C68.2765 111.088 67.6681 111.11 67.0625 111.082C65.8512 111.028 64.6371 111.006 63.4314 110.868L62.5244 110.786L62.0709 110.744L61.6202 110.679L59.8173 110.423C57.42 110.038 55.052 109.489 52.73 108.78C51.5609 108.456 50.4285 108.017 49.2848 107.615C48.7215 107.409 48.1581 107.156 47.5947 106.928C47.0313 106.7 46.4679 106.469 45.9299 106.196L44.2904 105.411C43.7552 105.129 43.2257 104.848 42.6961 104.547L41.9017 104.111L41.1299 103.635C40.6172 103.314 40.0989 103.007 39.5918 102.678C38.6031 101.986 37.589 101.333 36.6481 100.576L35.9298 100.013L35.5721 99.7312L35.2256 99.4498L33.8481 98.2818C30.237 95.0856 27.0708 91.4205 24.434 87.3842L23.9297 86.6243C23.7607 86.371 23.6142 86.1036 23.4565 85.8447L22.5213 84.2799C21.9579 83.2047 21.3438 82.1521 20.8311 81.0404L20.4705 80.2468L20.2734 79.8358L20.0959 79.4165L19.3832 77.7278C19.1522 77.1649 18.9579 76.588 18.741 76.0194L18.4226 75.1751L18.1409 74.3054C17.3864 71.9847 16.8008 69.6125 16.3888 67.2074L16.1071 65.4061C16.0254 64.8038 15.9719 64.1987 15.9043 63.5964L15.8085 62.693L15.7578 61.7839C15.7269 61.1788 15.6846 60.5737 15.6649 59.9686C15.6649 58.7556 15.6226 57.5425 15.7043 56.3295L15.7437 55.4204C15.7437 55.1165 15.7635 54.8153 15.8001 54.5142L15.9691 52.7017L16.0114 52.2485L16.0762 51.7982L16.2057 50.8976L16.3353 49.997L16.4001 49.5467L16.4874 49.0992L16.8367 47.312C16.8677 47.1628 16.8931 47.0136 16.9269 46.8645L17.0367 46.4226L17.2564 45.5389C18.4226 40.8218 20.243 36.2907 22.6649 32.0773C23.3044 31.0472 23.9044 29.9918 24.6142 29.0096L25.1297 28.2609L25.3861 27.8866L25.6678 27.5235L26.772 26.0797C27.1382 25.5984 27.5495 25.1509 27.9354 24.6725L28.5213 23.9801C28.7185 23.7493 28.9326 23.5354 29.1382 23.3131L30.3805 21.9903L31.6847 20.7294C33.4406 19.0654 35.3099 17.525 37.2791 16.1194L38.0115 15.5846L38.7665 15.0836C39.2735 14.7543 39.7721 14.411 40.282 14.0901C41.3242 13.4766 42.3468 12.8293 43.4228 12.2776C51.991 7.64592 61.6803 5.48834 71.4062 6.04641C75.0326 6.24916 78.6307 6.8034 82.1499 7.70132C85.6765 8.59505 89.0942 9.87296 92.3415 11.5121C98.8799 14.7897 104.664 19.3902 109.328 25.0215C111.661 27.8777 113.672 30.982 115.325 34.2782C116.978 37.5824 111.643 26.5244 104.584 19.857L103.237 18.6327C103.018 18.4244 102.784 18.2302 102.547 18.0416L101.843 17.4787C100.922 16.6879 99.9219 16.0012 98.9557 15.275C98.4571 14.9345 97.9472 14.6052 97.443 14.2703L96.6852 13.7721L95.9049 13.3105C95.381 13.0066 94.8683 12.6857 94.3387 12.3958L92.7331 11.5515C92.2035 11.27 91.6486 11.0196 91.1021 10.7634L90.2795 10.3807C89.9978 10.2512 89.733 10.1246 89.4485 10.0176L87.7584 9.33652L87.3387 9.16765L86.9105 9.01848L86.0654 8.72015C84.9386 8.29517 83.7668 7.97994 82.6119 7.63376C82.3302 7.54089 82.0288 7.47616 81.7358 7.40298L80.8541 7.18908C80.2654 7.05118 79.6851 6.88512 79.0879 6.7838C67.2913 4.27239 54.9898 5.86688 44.225 11.3026C33.4603 16.7384 24.8797 25.6886 19.9072 36.6677L19.2086 38.331C19.0931 38.6125 18.9719 38.8939 18.8621 39.1754L18.555 40.0197C18.3522 40.5826 18.1381 41.1455 17.9438 41.7084L17.4142 43.4337C17.3297 43.7151 17.2311 43.9965 17.155 44.2977L16.9353 45.173C16.7917 45.7584 16.6339 46.3382 16.4987 46.9264L16.1466 48.6967C16.0902 48.9781 16.0226 49.2849 15.9747 49.5832L15.8423 50.4754C14.3188 60.056 15.482 69.871 19.2029 78.8311C22.974 87.809 29.146 95.5764 37.0425 101.282C38.9953 102.704 41.0443 103.99 43.1749 105.129L43.9721 105.563C44.2369 105.706 44.5158 105.827 44.7862 105.962L46.42 106.748L48.0764 107.454L48.9215 107.806L49.7665 108.115L51.4736 108.732L53.2116 109.264L54.0821 109.528L54.9638 109.748L56.7272 110.19L58.499 110.55L59.392 110.724L60.2906 110.854L62.0906 111.11L63.899 111.276C66.4686 111.493 69.0512 111.508 71.6231 111.321L72.5864 111.259L73.5442 111.152C74.1808 111.073 74.8203 111.017 75.4569 110.922L77.3555 110.606L77.8287 110.525L78.2992 110.423L79.24 110.221L80.1809 110.018C80.4935 109.948 80.8006 109.855 81.1105 109.773C81.7274 109.602 82.3499 109.45 82.964 109.267L84.795 108.678L85.2513 108.532L85.702 108.363L86.6035 108.025L87.5049 107.688C87.8035 107.572 88.0964 107.437 88.3922 107.313C88.9809 107.054 89.5753 106.815 90.1556 106.545L91.888 105.701C92.1697 105.566 92.4514 105.419 92.7331 105.256L93.5782 104.794L94.3782 104.358C94.6429 104.212 94.8993 104.046 95.1584 103.888L96.7162 102.934C97.719 102.242 98.7528 101.586 99.7162 100.826L100.451 100.263L100.818 99.9817L101.173 99.7003L102.581 98.5266C103.049 98.1298 103.491 97.7048 103.947 97.2939L104.629 96.6747L105.28 96.0246C107.025 94.3086 108.652 92.4769 110.15 90.542L111.254 89.087C111.609 88.5944 111.944 88.0878 112.291 87.5897L112.809 86.841L113.288 86.0699C113.606 85.5548 113.933 85.0482 114.246 84.5332C114.868 83.458 114.953 82.7066 114.347 83.7592Z" fill="#FF945C"/>
<g opacity="0.6">
<path opacity="0.6" d="M114.767 36.1108L114.128 34.7796L113.423 33.4765C109.754 26.6365 104.567 20.7255 98.2599 16.1957C91.8035 11.6363 84.271 8.78527 76.809 7.54128C72.7159 6.85237 68.5579 6.62955 64.4145 6.87707C63.8962 6.89114 63.3807 6.95024 62.8652 7.0009L61.3159 7.15288L59.7779 7.38367C59.2652 7.45966 58.7497 7.53002 58.2427 7.64541L56.713 7.955C56.4567 8.00285 56.2032 8.06195 55.9525 8.13231L55.1947 8.32651C54.6933 8.46161 54.1806 8.57137 53.6849 8.72898L52.1919 9.19618C51.944 9.2778 51.6905 9.34535 51.4454 9.43541L50.7102 9.71686L49.2369 10.2657L47.7947 10.8651L47.0707 11.1776C46.8285 11.2817 46.5975 11.4055 46.3609 11.5209L44.9524 12.2189C44.4791 12.4525 44.0284 12.7255 43.5665 12.976L42.8763 13.3588L42.5327 13.5501L42.1975 13.7584L40.8566 14.6027C40.4031 14.8701 39.9805 15.1853 39.5439 15.478C39.1073 15.7708 38.6735 16.0663 38.2509 16.3787L36.9974 17.3328L36.3721 17.8112L35.7692 18.3178L34.5551 19.3141L33.3946 20.3724C32.6058 21.0591 31.8903 21.8246 31.141 22.5508C30.9523 22.7309 30.7748 22.9223 30.6002 23.1137L30.0734 23.6906C29.7269 24.079 29.3607 24.4505 29.0283 24.853L28.0311 26.0576C27.8678 26.2602 27.6959 26.4544 27.5354 26.6627L27.0677 27.2875L26.1297 28.5371C25.8311 28.9649 25.5466 29.4012 25.2536 29.8318C24.6508 30.6761 24.1269 31.5908 23.5917 32.4802C23.31 32.9192 23.0818 33.3892 22.8283 33.8452L22.0902 35.2243L21.4198 36.6315C21.1945 37.1015 20.9663 37.5715 20.7747 38.0584C20.3776 39.0238 19.9578 39.9807 19.6283 40.977L19.1043 42.4574L18.6536 43.9632C18.0694 45.949 17.5992 47.9664 17.2451 50.0058C17.1578 50.5152 17.0987 51.0303 17.0226 51.5425L16.9156 52.3108C16.8761 52.567 16.8423 52.8231 16.8254 53.082L16.6902 54.6299C16.6677 54.8889 16.6395 55.145 16.6254 55.4039L16.5972 56.1807L16.5381 57.7371C16.5381 58.255 16.5381 58.7756 16.5381 59.2935V60.0731V60.4615L16.5634 60.8499L16.6592 62.4063C16.6789 62.927 16.7437 63.442 16.8029 63.9599L16.9747 65.5106L17.2254 67.053C17.3071 67.568 17.3832 68.0831 17.5071 68.5897L17.8311 70.1123C17.8789 70.3684 17.9437 70.6189 18.0113 70.8694L18.2113 71.6208C18.3494 72.1218 18.4649 72.6284 18.6198 73.1237L19.0902 74.6098C19.1691 74.8574 19.2423 75.1051 19.3297 75.3528L19.6114 76.0845L20.155 77.5481C20.3522 78.0293 20.5635 78.505 20.7635 78.9834C20.9635 79.4619 21.1607 79.946 21.4001 80.4076C21.8564 81.342 22.2931 82.2876 22.8086 83.1939C23.0621 83.6498 23.2987 84.1142 23.5663 84.5617L24.3804 85.8957C24.5184 86.1181 24.6621 86.3432 24.7889 86.5628L25.2283 87.2101L26.1044 88.5132L27.0396 89.7684C27.3523 90.185 27.6565 90.6128 27.9973 91.0068L28.9889 92.2142L29.2368 92.5153L29.4988 92.7968L30.0199 93.3766C30.372 93.7593 30.7044 94.159 31.0678 94.5333L32.1608 95.6591L32.7072 96.222L33.2706 96.7511L34.4115 97.815C34.8002 98.1611 35.203 98.4876 35.6002 98.8282C35.9974 99.1687 36.3861 99.5149 36.8059 99.8217C40.0877 102.42 43.6842 104.595 47.5102 106.295C55.2173 109.616 63.7554 111.17 72.1244 110.539C73.1752 110.491 74.2146 110.345 75.2597 110.227C75.7836 110.179 76.2991 110.075 76.8174 109.99C77.3358 109.906 77.8541 109.821 78.3724 109.726L79.9132 109.388L80.6851 109.222C80.9414 109.16 81.1921 109.087 81.4485 109.019L83.0062 108.58C83.5133 108.44 84.0091 108.262 84.5105 108.107C86.5095 107.46 88.4687 106.696 90.3781 105.819L91.7866 105.124L92.4936 104.778C92.7246 104.657 92.9528 104.525 93.1838 104.401L94.5584 103.641C95.0148 103.385 95.4514 103.095 95.8993 102.825C97.6801 101.722 99.3948 100.517 101.035 99.2137L102.24 98.2034L102.843 97.6996L103.423 97.1676L104.578 96.101C104.959 95.7407 105.316 95.3551 105.685 94.9752C108.624 92.0007 111.174 88.6663 113.274 85.0514C113.502 84.6748 113.705 84.2837 113.883 83.8806C113.981 83.5991 113.99 83.4725 113.933 83.4669C113.877 83.4612 113.756 83.5935 113.556 83.844C113.278 84.2129 113.023 84.5983 112.792 84.9979C110.506 88.8208 107.745 92.3395 104.575 95.4705C102.982 97.0303 101.288 98.4847 99.5049 99.8245C98.6345 100.52 97.6908 101.119 96.7782 101.758C96.3134 102.065 95.8317 102.346 95.3697 102.642C94.9077 102.937 94.4232 103.23 93.9274 103.486L92.457 104.291C91.9612 104.547 91.4542 104.784 90.9528 105.028L90.2006 105.394C89.9499 105.515 89.688 105.617 89.4316 105.729L87.8908 106.388C87.3696 106.59 86.8457 106.779 86.3217 106.976L85.5358 107.257C85.2738 107.35 85.0034 107.429 84.7386 107.514L83.1414 108.02L81.5245 108.451L80.7161 108.665C80.4344 108.729 80.1696 108.783 79.8991 108.842L78.2625 109.191L76.6118 109.472L75.7864 109.608C75.5048 109.647 75.2231 109.672 74.9554 109.706L73.2935 109.895C72.7301 109.94 72.1808 109.968 71.6258 110.007L70.7808 110.061C70.4991 110.08 70.2174 110.061 69.9357 110.08L68.2653 110.106C63.8175 110.064 59.3933 109.457 55.099 108.299C50.8114 107.104 46.6881 105.385 42.8228 103.179C38.9525 100.962 35.3769 98.2675 32.1805 95.1581C30.5788 93.6036 29.0816 91.9451 27.6987 90.1934C27.0311 89.3012 26.3353 88.4288 25.7269 87.4944C25.4198 87.03 25.0875 86.5825 24.8001 86.104L23.9325 84.6574C23.6311 84.1874 23.3889 83.6892 23.1184 83.2023L22.7241 82.4677C22.5917 82.2257 22.4593 81.9808 22.3466 81.7275C21.8733 80.7256 21.3832 79.7321 20.9832 78.6992C20.1397 76.662 19.433 74.5709 18.8677 72.4398C17.748 68.1863 17.1511 63.8123 17.0902 59.4145C17.0902 58.8516 17.0677 58.3113 17.0902 57.7624L17.155 56.1104C17.155 55.8289 17.1719 55.5475 17.1888 55.2857L17.262 54.4639L17.4057 52.8174C17.9315 48.4379 18.992 44.1393 20.5635 40.0173L21.1945 38.4919L21.51 37.7291L21.8649 36.9833L22.5691 35.4916C22.8227 35.0047 23.0874 34.5235 23.3466 34.0366C25.4493 30.161 28.0352 26.5674 31.0424 23.3416C32.5514 21.7313 34.1643 20.2214 35.8706 18.8216C36.7157 18.0983 37.6087 17.465 38.4876 16.8008C38.9326 16.4744 39.3974 16.1817 39.8509 15.8693C40.3045 15.5568 40.7608 15.2473 41.2369 14.9743L42.6453 14.1299C43.1214 13.8485 43.6115 13.6064 44.0932 13.3447C45.0482 12.8015 46.0651 12.3709 47.0426 11.8896C47.5412 11.6645 48.0538 11.4646 48.5552 11.2507L49.313 10.9355C49.5637 10.8286 49.8257 10.7469 50.082 10.6541L51.6257 10.0912C52.144 9.91668 52.6708 9.76751 53.1919 9.60427C57.3793 8.34262 61.7093 7.61356 66.0793 7.43433C68.2645 7.3476 70.453 7.40024 72.6315 7.59194C74.8091 7.78064 76.9729 8.10399 79.1104 8.56011C83.394 9.49902 87.5421 10.9732 91.457 12.9478C92.4119 13.4741 93.3978 13.9498 94.3218 14.5324C94.7894 14.8138 95.2655 15.0953 95.7303 15.3767L97.0993 16.283C97.3275 16.435 97.5613 16.5644 97.781 16.7389L98.443 17.2258C98.8824 17.5523 99.3331 17.8675 99.7697 18.1996L101.049 19.2325C101.26 19.407 101.48 19.5731 101.685 19.7532L102.299 20.302C102.708 20.6679 104.46 22.3087 105.285 23.1362C106.526 24.3684 107.68 25.6849 108.739 27.0764C109.618 28.2022 110.919 30.2089 110.919 30.2089C111.235 30.6564 111.511 31.1264 111.792 31.5936C112.074 32.0608 112.356 32.5224 112.637 33.0008C113.15 33.9662 113.702 34.909 114.153 35.9026C115.136 37.8445 115.218 36.9861 114.767 36.1108Z" fill="#FF945C"/>
</g>
<g opacity="0.7">
<path opacity="0.7" d="M117.331 81.6262C115.555 85.446 113.333 89.0426 110.711 92.3408C108.062 95.6695 105.019 98.6653 101.649 101.263C100.823 101.935 99.9389 102.529 99.0713 103.148C98.6431 103.466 98.1839 103.737 97.7389 104.026L96.3896 104.871C94.5625 105.962 92.676 106.95 90.7388 107.832C82.9627 111.406 74.444 113.072 65.8929 112.689C57.3418 112.307 49.0061 109.888 41.5807 105.634C37.8949 103.537 34.4734 101.008 31.389 98.0992C28.3297 95.1813 25.598 91.9386 23.2425 88.4287C20.8992 84.901 18.9629 81.1196 17.4706 77.1568C17.2678 76.6671 17.1129 76.1633 16.941 75.6624L16.4368 74.1594L16.0086 72.634C15.8678 72.1246 15.71 71.6208 15.6058 71.1029C15.3776 70.0729 15.1129 69.0484 14.9523 68.007L14.6706 66.4478L14.4734 64.8774C14.3128 63.7882 14.2593 62.6877 14.1692 61.5901C14.1129 61.0413 14.1213 60.4896 14.1016 59.938C14.0819 59.3864 14.065 58.8375 14.0593 58.2859C14.0669 56.079 14.2023 53.8744 14.465 51.6832C14.5354 51.1372 14.5945 50.5884 14.6706 50.0395L14.9523 48.41C15.1157 47.318 15.3974 46.2485 15.634 45.1734C15.7439 44.633 15.9157 44.1067 16.0594 43.5747L16.5129 41.9846L17.0425 40.4197C17.2171 39.8991 17.3918 39.3756 17.6058 38.869L18.2171 37.3463C18.3157 37.0902 18.4256 36.8369 18.5439 36.5893L18.8875 35.8406C19.1213 35.3425 19.3354 34.8359 19.5889 34.349L20.3523 32.8911C20.4819 32.649 20.603 32.4042 20.7354 32.1621L21.1523 31.4529L21.9974 30.0456C22.2791 29.5813 22.5974 29.1281 22.8988 28.6694C23.2002 28.2106 23.4904 27.7462 23.8256 27.31C24.4735 26.4263 25.1045 25.5284 25.8115 24.6897C26.1608 24.2676 26.4904 23.8285 26.8538 23.4176L27.9468 22.1877C28.1299 21.985 28.3073 21.774 28.4961 21.5769L29.0594 20.9887L30.2088 19.8123L31.4116 18.6865C31.8116 18.3094 32.2088 17.9322 32.6341 17.586C35.9476 14.6805 39.5903 12.1726 43.4877 10.1137L44.9582 9.35095L46.4624 8.66141C47.4568 8.17732 48.4962 7.81707 49.5188 7.38927C50.0314 7.18381 50.5582 7.02621 51.0793 6.84046L51.8624 6.57308C52.1216 6.4802 52.3836 6.39577 52.6512 6.3254C53.7132 6.04396 54.7639 5.69778 55.8428 5.48107C60.0353 4.50372 64.3368 4.07328 68.64 4.20049C72.9084 4.33216 77.15 4.92476 81.2908 5.96797C81.5528 6.02426 81.812 6.09462 82.0683 6.17061L82.843 6.39014C83.3585 6.53931 83.8768 6.67159 84.3895 6.83201L85.9162 7.34143L86.6796 7.59473C86.936 7.67916 87.181 7.78611 87.4317 7.87617L88.936 8.45595L89.3134 8.6023L89.6825 8.76554L90.4205 9.09202C90.9106 9.31436 91.4092 9.517 91.8937 9.75341L93.336 10.4767C97.1796 12.4287 100.758 14.8632 103.984 17.7211C104.807 18.4079 105.55 19.1818 106.325 19.9164C106.522 20.0994 106.705 20.2936 106.888 20.4793L107.438 21.0647C107.798 21.4587 108.178 21.8359 108.528 22.244L109.567 23.4654C109.739 23.6709 109.916 23.8707 110.085 24.079L110.576 24.7151L111.559 25.9844C111.871 26.4178 112.173 26.8597 112.483 27.2959C113.116 28.16 113.663 29.0803 114.243 29.9809C114.716 30.783 114.925 32.3 112.742 28.9255C112.485 28.4921 112.178 28.0812 111.897 27.6787L111.035 26.4403L110.102 25.2723C109.795 24.8755 109.5 24.4674 109.164 24.0903C108.508 23.3304 107.883 22.5423 107.178 21.8246L106.147 20.727C105.792 20.3724 105.426 20.029 105.066 19.6828C102.17 16.911 98.9553 14.4932 95.4881 12.4806C92.0253 10.4705 88.3599 8.83093 84.5528 7.5891C80.7601 6.33268 76.8408 5.49553 72.8654 5.09267C68.8872 4.68653 64.8751 4.7451 60.9104 5.26717C56.7196 5.8288 52.6167 6.91723 48.699 8.50661C47.7075 8.8753 46.7554 9.33688 45.7892 9.76749C45.3018 9.97576 44.8399 10.2319 44.3807 10.4683C43.9215 10.7047 43.437 10.9467 42.9722 11.1944C41.1227 12.2121 39.3304 13.3302 37.6032 14.5436C35.8772 15.752 34.2175 17.0523 32.6313 18.4388L31.4566 19.5111C31.0735 19.8714 30.6764 20.2176 30.3158 20.6031C29.5806 21.3574 28.8256 22.092 28.1411 22.8941C25.3041 26.0269 22.8728 29.5038 20.9044 33.2429C18.936 36.9932 17.4356 40.9706 16.4368 45.0861C15.4554 49.2003 14.9293 53.4097 14.8678 57.6386C14.7962 61.9749 15.2435 66.3042 16.2002 70.5344C17.1455 74.7819 18.6298 78.8915 20.6171 82.7632C24.6484 90.565 30.5234 97.2666 37.7328 102.287C38.1666 102.619 38.637 102.898 39.0905 103.202C39.544 103.506 39.9976 103.796 40.4708 104.077L41.8793 104.907L42.5835 105.324L43.3074 105.704L44.7554 106.467C45.2427 106.711 45.7413 106.931 46.2342 107.165C47.2145 107.646 48.2342 108.037 49.2427 108.451C49.7441 108.667 50.2624 108.836 50.7779 109.014L52.3244 109.554L53.8991 110.013C54.4258 110.162 54.9442 110.331 55.4822 110.446C56.547 110.691 57.6061 110.975 58.6907 111.147L60.3076 111.428L61.9386 111.64C64.1225 111.909 66.3213 112.04 68.5217 112.034L70.1724 111.98C70.7358 111.958 71.2739 111.955 71.8203 111.896C72.9161 111.797 74.0147 111.727 75.1049 111.552C75.6485 111.474 76.195 111.409 76.7387 111.319L78.3584 111.012L79.1697 110.86L79.9725 110.669L81.5753 110.286C82.1077 110.148 82.6317 109.985 83.1585 109.836C83.6852 109.686 84.2176 109.554 84.7331 109.357C85.7698 109 86.8148 108.67 87.8317 108.248C89.8773 107.456 91.8768 106.549 93.8205 105.532C95.7538 104.5 97.6255 103.356 99.4262 102.107C100.345 101.499 101.204 100.818 102.077 100.137C102.522 99.8132 102.922 99.4417 103.35 99.0899C103.778 98.7381 104.195 98.3863 104.601 98.0176L105.804 96.8918C106.004 96.7032 106.207 96.5203 106.401 96.3289L106.964 95.7351L108.108 94.5502L109.19 93.309C112.065 89.976 114.512 86.2972 116.474 82.358C117.446 80.4723 118.085 79.9741 117.331 81.6262Z" fill="#FF945C"/>
</g>
</g>
<path d="M50.2706 62.834C50.2706 64.4783 49.6376 65.695 48.3715 66.4843C47.1219 67.2735 45.4036 67.6682 43.2167 67.6682H37.4207L37.47 67.3722C37.8811 67.3722 38.2017 67.3557 38.4319 67.3229C38.6621 67.29 38.8758 67.1995 39.0731 67.0515C39.2869 66.9036 39.4349 66.7391 39.5171 66.5583C39.6158 66.361 39.698 66.0403 39.7637 65.5964C39.846 65.0209 39.8871 63.8534 39.8871 62.0941V55.9774C39.8871 53.511 39.772 52.0311 39.5418 51.5378C39.4431 51.3405 39.2869 51.1679 39.0731 51.0199C38.8758 50.8719 38.6621 50.7815 38.4319 50.7486C38.2017 50.7157 37.8811 50.6993 37.47 50.6993L37.4207 50.4033H42.9454C44.1622 50.4033 45.3954 50.617 46.645 51.0445C47.3521 51.2747 47.9276 51.6776 48.3715 52.2531C48.8155 52.8121 49.0374 53.4945 49.0374 54.3002C49.0374 55.4019 48.6428 56.2651 47.8536 56.8899C47.0643 57.5148 46.1189 57.9505 45.0172 58.1971C46.2997 58.3287 47.4507 58.7233 48.4702 59.381C49.0128 59.7428 49.4485 60.2196 49.7774 60.8115C50.1062 61.4035 50.2706 62.0776 50.2706 62.834ZM46.8917 54.3002C46.8917 52.0804 45.1323 50.9706 41.6136 50.9706V58.0245H41.8355C45.2063 58.0245 46.8917 56.7831 46.8917 54.3002ZM48.1249 62.834C48.1249 59.9565 46.0778 58.5178 41.9835 58.5178H41.6136V62.464C41.6136 64.2563 41.6629 65.4319 41.7615 65.991C41.8766 66.5336 42.1479 66.9036 42.5755 67.1009C43.3976 67.1009 44.154 67.0022 44.8445 66.8049C45.5516 66.6076 46.1106 66.3692 46.5217 66.0896C46.9492 65.8101 47.3192 65.3908 47.6316 64.8318C47.9604 64.2727 48.1249 63.6068 48.1249 62.834Z" fill="#282828"/>
<path d="M60.5103 55.6321C60.9214 55.6321 61.2831 55.7225 61.5955 55.9034C61.9079 56.0842 62.0641 56.3309 62.0641 56.6433C62.0641 56.9557 61.9655 57.2024 61.7682 57.3832C61.5709 57.5641 61.3489 57.6545 61.1022 57.6545C60.8556 57.6545 60.5432 57.5476 60.165 57.3339C59.8033 57.1201 59.4169 57.0133 59.0058 57.0133C58.3645 57.0133 57.8384 57.6052 57.4273 58.7891C57.0327 59.973 56.8353 61.3459 56.8353 62.908C56.8353 65.0126 56.9422 66.287 57.156 66.7309C57.2217 66.8789 57.3451 67.0187 57.5259 67.1502C57.7068 67.2653 57.8959 67.3311 58.0932 67.3475C58.2905 67.364 58.5701 67.3722 58.9318 67.3722L58.9811 67.6682H52.9877L53.0371 67.3722C53.5632 67.3722 53.9414 67.3475 54.1716 67.2982C54.4183 67.2324 54.6238 67.0269 54.7882 66.6816C54.9527 66.3363 55.0431 65.9088 55.0595 65.3991C55.0924 64.8729 55.1089 64.0425 55.1089 62.908V61.4775C55.1089 59.1919 55.0431 57.8929 54.9115 57.5805C54.7964 57.2681 54.6896 57.0215 54.5909 56.8406C54.4923 56.6597 54.3443 56.5364 54.147 56.4706C53.7852 56.372 53.3084 56.3227 52.7164 56.3227L52.6671 56.0514C54.0647 55.854 55.4542 55.7554 56.8353 55.7554V59.381C57.0162 58.2136 57.4191 57.301 58.0439 56.6433C58.6852 55.9691 59.5073 55.6321 60.5103 55.6321Z" fill="#282828"/>
<path d="M72.7223 59.7016V62.1927C72.7223 64.0179 72.7798 65.2182 72.8949 65.7937C73.01 66.3527 73.2896 66.6323 73.7335 66.6323C74.0131 66.6323 74.383 66.5172 74.8434 66.287L74.9667 66.5336C74.8352 66.6323 74.6625 66.7556 74.4488 66.9036C74.235 67.0351 73.7993 67.216 73.1416 67.4462C72.4839 67.6764 71.8508 67.7915 71.2425 67.7915C71.078 67.1009 70.9958 65.9992 70.9958 64.4865C70.6341 65.5059 70.1572 66.3363 69.5653 66.9776C68.9898 67.6024 68.1841 67.9148 67.1482 67.9148C66.1123 67.9148 65.2902 67.6435 64.6818 67.1009C64.0899 66.5418 63.7939 65.7855 63.7939 64.8318C63.7939 62.1845 66.1945 60.8526 70.9958 60.8362V59.9483C70.9958 58.7644 70.8232 57.8601 70.4779 57.2352C70.1326 56.6104 69.4913 56.298 68.5541 56.298C68.0279 56.298 67.6004 56.4295 67.2715 56.6926C66.9427 56.9557 66.7207 57.2435 66.6056 57.5559C66.3261 58.4109 65.9068 58.8384 65.3477 58.8384C64.8051 58.8384 64.5338 58.5342 64.5338 57.9258C64.5338 57.301 64.9449 56.7831 65.767 56.372C66.5892 55.9609 67.5839 55.7554 68.7514 55.7554C69.9188 55.7554 70.8725 56.0925 71.6124 56.7666C72.3523 57.4243 72.7223 58.4027 72.7223 59.7016ZM65.6684 64.9304C65.6684 65.5717 65.8246 66.1061 66.137 66.5336C66.4494 66.9447 66.9427 67.1502 67.6168 67.1502C68.3074 67.1502 68.9322 66.8213 69.4913 66.1636C70.0504 65.4895 70.4285 64.7496 70.6259 63.9439C70.8396 63.1217 70.9629 62.2749 70.9958 61.4035C69.1707 61.4199 67.8224 61.757 66.9509 62.4147C66.0959 63.0724 65.6684 63.911 65.6684 64.9304Z" fill="#282828"/>
<path d="M81.042 55.7554V60.1703C81.19 58.9864 81.6011 57.9587 82.2752 57.0873C82.9494 56.1993 83.8455 55.7554 84.9636 55.7554C87.4793 55.7554 88.7372 57.0708 88.7372 59.7016V63.5986C88.7372 65.3086 88.8441 66.3692 89.0578 66.7802C89.288 67.1749 89.88 67.3722 90.8336 67.3722L90.883 67.6682H84.8896L84.9389 67.3722C85.9255 67.3722 86.5174 67.1666 86.7147 66.7556C86.9121 66.3445 87.0107 65.2182 87.0107 63.3766V59.9483C87.0107 58.8137 86.8298 57.9587 86.4681 57.3832C86.1228 56.8077 85.5638 56.52 84.7909 56.52C84.0346 56.52 83.4015 56.7831 82.8918 57.3092C82.3821 57.819 82.0039 58.4684 81.7573 59.2577C81.2804 60.7869 81.042 62.3243 81.042 63.8699C81.042 65.4155 81.1407 66.3856 81.338 66.7802C81.5517 67.1749 82.1437 67.3722 83.1138 67.3722L83.1631 67.6682H77.1451L77.1944 67.3722C78.181 67.3722 78.7811 67.1749 78.9949 66.7802C79.2086 66.3692 79.3155 65.2922 79.3155 63.5492V61.5761C79.3155 59.1097 79.1922 57.6216 78.9456 57.1119C78.8633 56.931 78.7154 56.7666 78.5016 56.6186C78.3043 56.4707 78.0823 56.3802 77.8357 56.3473C77.6055 56.3144 77.2848 56.298 76.8738 56.298L76.8244 56.0267C78.255 55.8458 79.6608 55.7554 81.042 55.7554Z" fill="#282828"/>
<path d="M101.436 64.9304C101.173 65.7855 100.721 66.5007 100.08 67.0762C99.455 67.6353 98.6822 67.9148 97.7614 67.9148C96.857 67.9148 96.1007 67.7339 95.4923 67.3722C94.8839 67.0104 94.4153 66.5336 94.0864 65.9417C93.4287 64.8071 93.0999 63.4259 93.0999 61.7981C93.0999 60.1703 93.6589 58.7562 94.777 57.5559C95.8951 56.3556 97.3914 55.7554 99.2659 55.7554C100.088 55.7554 100.836 55.854 101.51 56.0514V53.7083C101.51 52.4751 101.469 51.6447 101.387 51.2172C101.305 50.7732 101.173 50.5019 100.992 50.4033C100.664 50.206 100.146 50.1073 99.4385 50.1073L99.3892 49.836C100.573 49.6387 101.856 49.54 103.237 49.54V62.1927C103.237 64.0179 103.294 65.2182 103.409 65.7937C103.525 66.3527 103.804 66.6323 104.248 66.6323C104.528 66.6323 104.898 66.5172 105.358 66.287L105.481 66.5336C105.35 66.6323 105.177 66.7556 104.963 66.9036C104.75 67.0351 104.314 67.216 103.656 67.4462C102.998 67.6764 102.365 67.7915 101.757 67.7915C101.543 66.9036 101.436 65.9499 101.436 64.9304ZM95.5663 65.3497C95.7636 65.8923 96.0678 66.3281 96.4788 66.6569C96.9063 66.9858 97.4161 67.1502 98.008 67.1502C98.6164 67.1502 99.159 66.9447 99.6358 66.5336C100.129 66.1225 100.499 65.5964 100.746 64.9551C101.255 63.7219 101.51 62.4476 101.51 61.1322V57.3586C100.803 56.7995 100.03 56.52 99.1919 56.52C98.3533 56.52 97.6545 56.7008 97.0954 57.0626C96.5364 57.4243 96.1089 57.9012 95.8129 58.4931C95.2539 59.5948 94.9743 60.7704 94.9743 62.0201C94.9743 63.2204 95.1716 64.3303 95.5663 65.3497Z" fill="#282828"/>
<path d="M118.541 55.9774V62.0941C118.541 63.8534 118.591 65.0538 118.689 65.695C118.805 66.3363 118.961 66.7391 119.158 66.9036C119.536 67.216 120.136 67.3722 120.959 67.3722L121.008 67.6682H114.349L114.398 67.3722C114.809 67.3722 115.13 67.3557 115.36 67.3229C115.59 67.29 115.804 67.1995 116.001 67.0515C116.215 66.9036 116.363 66.7391 116.445 66.5583C116.544 66.361 116.626 66.0403 116.692 65.5964C116.774 65.0209 116.815 63.8534 116.815 62.0941V55.9774C116.815 54.2673 116.766 53.0752 116.667 52.4011C116.568 51.7269 116.42 51.3076 116.223 51.1432C115.828 50.8308 115.22 50.6746 114.398 50.6746L114.349 50.4033H121.008L120.959 50.6746C120.136 50.6746 119.536 50.8308 119.158 51.1432C118.747 51.4885 118.541 53.0999 118.541 55.9774Z" fill="#282828"/>
<path d="M132.06 64.9304C131.797 65.7855 131.345 66.5007 130.704 67.0762C130.079 67.6353 129.306 67.9148 128.385 67.9148C127.481 67.9148 126.725 67.7339 126.116 67.3722C125.508 67.0104 125.039 66.5336 124.71 65.9417C124.053 64.8071 123.724 63.4259 123.724 61.7981C123.724 60.1703 124.283 58.7562 125.401 57.5559C126.519 56.3556 128.015 55.7554 129.89 55.7554C130.712 55.7554 131.46 55.854 132.134 56.0514V53.7083C132.134 52.4751 132.093 51.6447 132.011 51.2172C131.929 50.7732 131.797 50.5019 131.616 50.4033C131.287 50.206 130.77 50.1073 130.062 50.1073L130.013 49.836C131.197 49.6387 132.48 49.54 133.861 49.54V62.1927C133.861 64.0179 133.918 65.2182 134.033 65.7937C134.148 66.3527 134.428 66.6323 134.872 66.6323C135.152 66.6323 135.521 66.5172 135.982 66.287L136.105 66.5336C135.974 66.6323 135.801 66.7556 135.587 66.9036C135.373 67.0351 134.938 67.216 134.28 67.4462C133.622 67.6764 132.989 67.7915 132.381 67.7915C132.167 66.9036 132.06 65.9499 132.06 64.9304ZM126.19 65.3497C126.388 65.8923 126.692 66.3281 127.103 66.6569C127.53 66.9858 128.04 67.1502 128.632 67.1502C129.24 67.1502 129.783 66.9447 130.26 66.5336C130.753 66.1225 131.123 65.5964 131.37 64.9551C131.879 63.7219 132.134 62.4476 132.134 61.1322V57.3586C131.427 56.7995 130.654 56.52 129.816 56.52C128.977 56.52 128.278 56.7008 127.719 57.0626C127.16 57.4243 126.733 57.9012 126.437 58.4931C125.878 59.5948 125.598 60.7704 125.598 62.0201C125.598 63.2204 125.796 64.3303 126.19 65.3497Z" fill="#282828"/>
<path d="M148.031 61.4281H139.941V61.8474C139.941 63.5904 140.311 64.9222 141.051 65.843C141.791 66.7474 142.712 67.1995 143.813 67.1995C145.458 67.1995 146.641 66.5418 147.365 65.2264L147.735 65.4237C146.88 67.0844 145.449 67.9148 143.443 67.9148C141.963 67.9148 140.697 67.3804 139.645 66.3116C138.593 65.2428 138.067 63.8041 138.067 61.9954C138.067 60.1703 138.527 58.674 139.448 57.5065C140.385 56.3391 141.626 55.7554 143.172 55.7554C144.734 55.7554 145.934 56.2898 146.773 57.3586C147.612 58.4109 148.031 59.7674 148.031 61.4281ZM143.246 56.2487C142.292 56.2487 141.536 56.6597 140.977 57.4819C140.434 58.2876 140.105 59.3646 139.99 60.7129H146.132C146.017 57.7367 145.055 56.2487 143.246 56.2487Z" fill="#282828"/>
<path d="M154.718 55.7554V60.1703C154.866 58.9864 155.277 57.9587 155.951 57.0873C156.626 56.1993 157.522 55.7554 158.64 55.7554C161.156 55.7554 162.413 57.0708 162.413 59.7016V63.5986C162.413 65.3086 162.52 66.3692 162.734 66.7802C162.964 67.1749 163.556 67.3722 164.51 67.3722L164.559 67.6682H158.566L158.615 67.3722C159.602 67.3722 160.194 67.1666 160.391 66.7556C160.588 66.3445 160.687 65.2182 160.687 63.3766V59.9483C160.687 58.8137 160.506 57.9587 160.144 57.3832C159.799 56.8077 159.24 56.52 158.467 56.52C157.711 56.52 157.078 56.7831 156.568 57.3092C156.058 57.819 155.68 58.4684 155.434 59.2577C154.957 60.7869 154.718 62.3243 154.718 63.8699C154.718 65.4155 154.817 66.3856 155.014 66.7802C155.228 67.1749 155.82 67.3722 156.79 67.3722L156.839 67.6682H150.821L150.871 67.3722C151.857 67.3722 152.457 67.1749 152.671 66.7802C152.885 66.3692 152.992 65.2922 152.992 63.5492V61.5761C152.992 59.1097 152.868 57.6216 152.622 57.1119C152.54 56.931 152.392 56.7666 152.178 56.6186C151.981 56.4707 151.759 56.3802 151.512 56.3473C151.282 56.3144 150.961 56.298 150.55 56.298L150.501 56.0267C151.931 55.8458 153.337 55.7554 154.718 55.7554Z" fill="#282828"/>
<path d="M170.13 56.002H173.164V56.5446H170.13V65.9417C170.13 66.287 170.213 66.5665 170.377 66.7802C170.542 66.9776 170.755 67.0762 171.018 67.0762C171.61 67.0762 172.309 66.9036 173.115 66.5583L173.164 66.8296C172.013 67.5531 170.994 67.9148 170.106 67.9148C169.53 67.9148 169.103 67.775 168.823 67.4955C168.544 67.216 168.404 66.7309 168.404 66.0403V56.5446H166.924V56.002C167.812 56.002 168.429 55.7554 168.774 55.2621C169.136 54.7524 169.407 54.0042 169.588 53.0177L170.13 52.9683V56.002Z" fill="#282828"/>
<path d="M177.193 52.7957C176.913 52.5162 176.773 52.1873 176.773 51.8091C176.773 51.431 176.913 51.1021 177.193 50.8226C177.472 50.543 177.801 50.4033 178.179 50.4033C178.557 50.4033 178.886 50.543 179.166 50.8226C179.445 51.1021 179.585 51.431 179.585 51.8091C179.585 52.1873 179.445 52.5162 179.166 52.7957C178.886 53.0752 178.557 53.215 178.179 53.215C177.801 53.215 177.472 53.0752 177.193 52.7957ZM179.116 55.7554V63.5986C179.116 65.3251 179.215 66.3856 179.412 66.7802C179.626 67.1749 180.218 67.3722 181.188 67.3722L181.238 67.6682H175.22L175.269 67.3722C176.255 67.3722 176.856 67.1749 177.069 66.7802C177.283 66.3692 177.39 65.2922 177.39 63.5492V61.8228C177.39 59.9154 177.332 58.6575 177.217 58.0492C177.119 57.4243 176.971 57.0215 176.773 56.8406C176.379 56.4789 175.77 56.298 174.948 56.298L174.899 56.0267C176.329 55.8458 177.735 55.7554 179.116 55.7554Z" fill="#282828"/>
<path d="M186.821 56.002H189.855V56.5446H186.821V65.9417C186.821 66.287 186.903 66.5665 187.068 66.7802C187.232 66.9776 187.446 67.0762 187.709 67.0762C188.301 67.0762 189 66.9036 189.805 66.5583L189.855 66.8296C188.704 67.5531 187.684 67.9148 186.796 67.9148C186.221 67.9148 185.793 67.775 185.514 67.4955C185.234 67.216 185.095 66.7309 185.095 66.0403V56.5446H183.615V56.002C184.503 56.002 185.119 55.7554 185.465 55.2621C185.826 54.7524 186.098 54.0042 186.278 53.0177L186.821 52.9683V56.002Z" fill="#282828"/>
<path d="M193.242 72.8476C194.064 72.8476 194.747 72.527 195.289 71.8857C195.848 71.2609 196.416 70.2414 196.991 68.8274L193.316 59.5537C192.773 58.1725 192.28 57.2846 191.836 56.8899C191.409 56.4953 190.891 56.298 190.282 56.298L190.233 56.002H196.35L196.3 56.298C195.725 56.298 195.322 56.3884 195.092 56.5693C194.878 56.7502 194.771 57.0297 194.771 57.4079C194.771 58.1643 195.158 59.5126 195.93 61.4528L197.83 66.2376L199.753 60.3182C200.132 59.1344 200.321 58.2382 200.321 57.6299C200.321 56.742 199.745 56.298 198.594 56.298L198.545 56.002H203.182L203.132 56.298C202.458 56.298 201.981 56.52 201.702 56.9639C201.439 57.3914 200.937 58.7315 200.197 60.9842L197.978 67.7421C197.254 69.9619 196.407 71.672 195.437 72.8723C194.467 74.0726 193.456 74.6728 192.403 74.6728C191.927 74.6728 191.532 74.5741 191.22 74.3768C190.907 74.1959 190.751 73.9328 190.751 73.5875C190.751 73.2587 190.85 72.9956 191.047 72.7983C191.261 72.6174 191.483 72.527 191.713 72.527C191.96 72.527 192.231 72.5763 192.527 72.675C192.823 72.7901 193.061 72.8476 193.242 72.8476Z" fill="#282828"/>
<defs>
<filter id="filter0_f" x="0.83667" y="107.323" width="133.202" height="31.5945" filterUnits="userSpaceOnUse" color-interpolation-filters="sRGB">
<feFlood flood-opacity="0" result="BackgroundImageFix"/>
<feBlend mode="normal" in="SourceGraphic" in2="BackgroundImageFix" result="shape"/>
<feGaussianBlur stdDeviation="5" result="effect1_foregroundBlur"/>
</filter>
<filter id="filter1_f" x="25.7517" y="114.024" width="86.1737" height="12.9501" filterUnits="userSpaceOnUse" color-interpolation-filters="sRGB">
<feFlood flood-opacity="0" result="BackgroundImageFix"/>
<feBlend mode="normal" in="SourceGraphic" in2="BackgroundImageFix" result="shape"/>
<feGaussianBlur stdDeviation="2" result="effect1_foregroundBlur"/>
</filter>
<linearGradient id="paint0_linear" x1="67.4376" y1="117.323" x2="67.4376" y2="128.918" gradientUnits="userSpaceOnUse">
<stop stop-color="#B4B4B4"/>
<stop offset="1" stop-color="#F2F1EE"/>
</linearGradient>
<clipPath id="clip0">
<rect width="107.99" height="114.323" fill="white" transform="translate(10.8367 0.947266)"/>
</clipPath>
</defs>
</svg>
