<svg xmlns="http://www.w3.org/2000/svg" fill="none" viewBox="0 0 204 139">
  <ellipse cx="67.438" cy="123.121" fill="url(#paint0_linear)" fill-opacity=".4" filter="url(#filter0_f)" opacity=".7" rx="56.601" ry="5.797"/>
  <ellipse cx="68.839" cy="120.499" fill="#F5F5F5" filter="url(#filter1_f)" rx="39.087" ry="2.475"/>
  <g clip-path="url(#clip0)">
    <path fill="#FF945C" d="M115.288 28.47a60.91 60.91 0 0 0-8.338-10.796l-1.2-1.213-1.256-1.157c-.823-.788-1.727-1.486-2.603-2.22-.44-.364-.91-.69-1.366-1.04l-.69-.511-.347-.257-.358-.239c-.957-.633-1.907-1.292-2.918-1.855-.496-.281-.986-.585-1.49-.86l-1.527-.78-.766-.394-.783-.358-1.572-.715c-.53-.225-1.068-.428-1.603-.641-.535-.214-1.065-.437-1.617-.611-1.093-.363-2.177-.757-3.293-1.047a56.837 56.837 0 0 0-13.597-2.17A55.968 55.968 0 0 0 55.806 2.84l-1.738.394-1.718.473-.846.24-.845.281-1.69.563-1.665.639-.845.32c-.281.116-.546.24-.817.358l-1.633.72c-.535.26-1.065.53-1.6.797l-.812.383c-.264.138-.52.281-.78.433l-1.558.884c-.51.31-1.01.636-1.518.954l-.758.481c-.25.164-.49.34-.738.513l-1.465 1.035c-.478.358-.946.735-1.408 1.1l-.707.564c-.234.185-.456.388-.685.582l-1.369 1.149c-.442.402-.87.821-1.307 1.232l-.65.62c-.217.208-.417.43-.626.644l-1.24 1.297c-.402.442-.788.898-1.182 1.349l-.589.675c-.197.225-.375.464-.563.698l-1.113 1.407c-.364.473-.701.966-1.054 1.447a23.97 23.97 0 0 0-1.02 1.469l-.977 1.494c-.324.501-.608 1.022-.915 1.531-.626 1.014-1.155 2.08-1.713 3.13-.144.262-.282.53-.394.8l-.378.807-.363.82c-.127.28-.25.537-.36.815-.443 1.104-.925 2.193-1.294 3.324-.194.563-.4 1.126-.583 1.689l-.504 1.711-.25.845-.212.866-.414 1.74c-.13.582-.226 1.17-.338 1.756l-.16.88-.08.443-.059.444c-.15 1.185-.338 2.367-.403 3.563-.045.597-.095 1.194-.132 1.79l-.045 1.796-.023.898c0 .298 0 .6.02.898l.048 1.798c.122 2.398.398 4.786.825 7.149l.16.886.08.442.101.44.406 1.756c.124.588.31 1.16.465 1.739.155.58.312 1.17.498 1.734.386 1.125.741 2.282 1.2 3.394.223.563.423 1.126.668 1.672l.732 1.643c.234.563.516 1.084.783 1.619.268.534.53 1.075.823 1.601.597 1.041 1.16 2.103 1.823 3.096a56.845 56.845 0 0 0 4.2 5.843c.788.906 1.54 1.843 2.383 2.699.414.433.816.878 1.242 1.303l1.296 1.25c.425.424.879.816 1.332 1.213.454.396.899.796 1.36 1.179l1.41 1.126c.236.185.467.377.709.562l.732.527c.49.349.975.706 1.468 1.05l1.51.985.758.489.777.456 1.555.912 1.597.845.8.416.817.383 1.637.757c.563.239 1.127.456 1.67.684 1.107.473 2.254.844 3.38 1.235.282.105.564.189.862.282l.868.25c.58.161 1.152.349 1.738.484l1.758.411c.282.065.586.144.882.195l.887.16 1.777.315 1.792.225.994.121c.333.037.665.054 1 .079l2 .141 2.003.039c.335 0 .668.017 1.003 0l1.003-.031a54.202 54.202 0 0 0 7.969-.791l1.972-.365c.65-.144 1.298-.304 1.95-.456.323-.079.65-.15.97-.24l.962-.281.96-.282c.321-.092.642-.182.955-.295l1.893-.647c.631-.214 1.242-.482 1.865-.721l.93-.369c.306-.129.608-.281.912-.408.606-.281 1.22-.54 1.82-.844a57.648 57.648 0 0 0 11.572-7.425 51.203 51.203 0 0 0 9.197-9.968c.425-.636.099-.411-.335.225a49.875 49.875 0 0 1-8.913 9.397c-.408.358-.845.676-1.282 1.005l-1.281.999-1.347.921c-.45.304-.89.619-1.36.895-.927.562-1.84 1.156-2.798 1.663l-1.408.788-1.454.726c-1 .526-2.048.954-3.076 1.424-.515.237-1.05.422-1.574.636-.524.214-1.051.428-1.59.608-1.075.355-2.14.76-3.239 1.053l-1.64.473-1.661.382c-1.102.282-2.228.456-3.347.673-.281.056-.563.096-.845.132l-.845.116c-.563.07-1.126.163-1.69.214l-1.69.14-.845.068-.845.028-1.69.051c-.564 0-1.127-.017-1.69-.023a56.91 56.91 0 0 1-7.057-.605l-1.74-.31c-.581-.107-1.161-.199-1.733-.343-1.147-.281-2.299-.518-3.425-.867-.564-.169-1.127-.318-1.69-.501l-1.671-.563-.845-.281-.82-.329-1.684-.696a58.14 58.14 0 0 1-6.308-3.197c-1.03-.563-2.01-1.235-3.002-1.874l-.372-.242-.36-.259-.72-.515-.72-.501a13.401 13.401 0 0 1-.71-.532c-.924-.738-1.865-1.45-2.74-2.252-.443-.394-.9-.768-1.325-1.176l-1.279-1.227c-.434-.403-.845-.845-1.24-1.267-.394-.422-.819-.844-1.208-1.294-.763-.901-1.56-1.773-2.253-2.722-.36-.467-.73-.929-1.08-1.407l-1.016-1.447c-.166-.242-.344-.478-.501-.726l-.474-.746c-.312-.498-.633-.993-.94-1.497a55.572 55.572 0 0 1-7.8-26.844c0-.589-.032-1.177-.037-1.762l.048-1.762.025-.881c.017-.281.042-.585.065-.878l.14-1.753c.049-.583.144-1.163.215-1.745l.115-.87c.037-.282.076-.58.133-.867l.315-1.725c.057-.282.099-.563.166-.861l.203-.845a55.091 55.091 0 0 1 4.795-13.16c.281-.515.532-1.033.81-1.542l.883-1.506.442-.752.476-.729.955-1.458a56.9 56.9 0 0 1 4.318-5.474 55.729 55.729 0 0 1 10.47-9.144c.471-.34.973-.636 1.463-.948.49-.313.977-.63 1.484-.918 1.017-.563 2.011-1.173 3.062-1.688a58.43 58.43 0 0 1 6.4-2.815l1.657-.563.828-.281.845-.245 1.69-.484 1.69-.406.845-.2c.282-.064.564-.11.845-.165l1.721-.316c.564-.098 1.155-.16 1.73-.242.575-.081 1.152-.166 1.735-.202l1.933-.158c.645-.05 1.293-.05 1.938-.076l.969-.03h.969l1.94.033 1.936.127.969.064.963.113 1.927.23 1.913.322c.318.056.64.1.955.168l.949.209c.63.143 1.267.281 1.893.43 1.248.35 2.507.659 3.727 1.092l.92.307c.308.099.615.205.916.327l1.812.703c.304.113.6.248.892.38l.888.397c.591.264 1.186.526 1.755.844l1.732.892 1.69.983c.282.166.564.323.845.5l.812.535.808.535c.282.178.541.355.797.563l1.558 1.151c.262.189.51.394.761.6l.746.613.747.614c.248.205.481.428.721.641l1.428 1.3a64.962 64.962 0 0 1 5.211 5.68c.406.498.786 1.02 1.181 1.526l.588.765.564.791c.366.53.752 1.047 1.104 1.587l1.051 1.63c.371.552.346.44-.023-.15z" opacity=".8"/>
    <path fill="#FF945C" d="M117.399 29.669c-4.003-7.174-9.73-13.355-16.482-18.156L99.39 10.48l-.763-.515-.786-.479-1.572-.957-1.617-.88-.808-.442-.828-.403-1.657-.802-1.69-.723-.845-.36c-.282-.119-.563-.215-.862-.324a55.42 55.42 0 0 0-14.31-3.378l-1.84-.166c-.613-.03-1.23-.048-1.844-.073l-.924-.034h-.924l-1.848.031c-2.465.098-4.92.359-7.35.78-1.22.183-2.416.47-3.62.734-.3.062-.6.138-.895.223l-.89.242c-.592.169-1.192.304-1.775.506l-1.755.563c-.282.09-.583.195-.87.304l-.862.321c-1.16.405-2.282.906-3.412 1.385A60.707 60.707 0 0 0 38.32 9.41c-1.067.605-2.076 1.298-3.098 1.97-.513.335-.997.712-1.496 1.067-.498.355-1 .71-1.47 1.103l-1.434 1.151c-.48.383-.924.805-1.389 1.208-.935.793-1.791 1.688-2.673 2.533a53.521 53.521 0 0 0-4.789 5.606 55.604 55.604 0 0 0-7.248 13.192 58.581 58.581 0 0 0-2.217 7.205c-.324 1.215-.527 2.454-.769 3.687l-.087.461-.065.467-.132.932-.133.931c-.045.31-.09.622-.112.935-.555 5-.46 10.05.281 15.026.36 2.486.888 4.945 1.578 7.36.377 1.199.726 2.412 1.186 3.583l.326.886c.107.296.217.591.347.879l.74 1.736a57.49 57.49 0 0 0 18.928 23.031c.495.385 1.028.717 1.546 1.072l.78.526c.26.178.522.352.792.51 1.073.65 2.138 1.32 3.256 1.897l.828.45.415.225.425.206 1.69.819.425.205.434.183.868.366.867.366.434.183.443.163a56.743 56.743 0 0 0 23.127 3.681c.707-.045 1.408-.081 2.123-.132l2.116-.234c.707-.062 1.408-.202 2.104-.309l1.05-.169c.35-.054.697-.141 1.043-.211a54.962 54.962 0 0 0 8.17-2.302c.661-.254 1.332-.479 1.971-.757l1.952-.845c.648-.281 1.276-.611 1.916-.917.315-.158.64-.304.952-.473l.93-.51c1.253-.655 2.447-1.407 3.662-2.153 1.168-.796 2.352-1.57 3.461-2.443.564-.425 1.127-.844 1.665-1.308.538-.465 1.09-.898 1.62-1.365l1.558-1.433c.265-.234.51-.487.758-.737l.743-.754a54.82 54.82 0 0 0 5.442-6.474c.206-.281.426-.563.62-.844l.586-.881.583-.881c.096-.146.197-.281.282-.442l.282-.453 1.081-1.815c.338-.62.665-1.244.995-1.864.36-.68.253-.678-.11 0l-.873 1.636c-.31.534-.634 1.06-.953 1.593l-.478.793c-.164.262-.344.515-.513.772l-1.037 1.536c-.363.501-.738.99-1.107 1.486l-.563.74c-.192.242-.392.479-.589.715l-1.186 1.427-1.251 1.368-.625.684-.656.653-1.319 1.303-1.374 1.241c-.231.206-.457.417-.69.617l-.716.588c-.479.388-.952.788-1.437 1.168l-1.484 1.106c-.251.18-.49.374-.746.546l-.767.518c-.512.34-1.017.698-1.538 1.027a58.11 58.11 0 0 1-13.366 6.29l-.882.282-.442.141-.448.121-1.791.481-.448.121-.454.098-.907.197-.907.195-.453.098-.457.076-1.83.298-.457.074-.462.053-.921.104-.921.102c-.308.036-.615.067-.924.081l-1.851.11c-.617.051-1.237.034-1.854.045-.617.011-1.236.025-1.853 0-1.234-.062-2.473-.07-3.702-.214l-1.845-.177-1.834-.265-.915-.132c-.304-.051-.606-.116-.91-.175l-1.817-.357a57.811 57.811 0 0 1-7.112-2.063 56.275 56.275 0 0 1-28.451-22.634 60 60 0 0 1-3.553-6.383c-.563-1.087-1.014-2.224-1.51-3.34-.236-.564-.439-1.143-.659-1.712-.22-.569-.439-1.143-.617-1.728l-.563-1.745c-.18-.585-.327-1.18-.49-1.77-.347-1.177-.563-2.381-.845-3.575a54.3 54.3 0 0 1-.91-7.284c-.099-1.221-.085-2.445-.096-3.658-.017-.611.037-1.222.054-1.833.017-.61.04-1.221.095-1.832l.175-1.824c.034-.303.05-.607.096-.911l.132-.907.282-1.812.358-1.796a57.143 57.143 0 0 1 4.746-13.819c.254-.563.564-1.095.845-1.635.282-.54.564-1.084.882-1.613.642-1.044 1.24-2.116 1.947-3.118.346-.507.676-1.022 1.033-1.52l1.099-1.472c.358-.498.75-.968 1.14-1.438.392-.47.773-.951 1.178-1.407a57.07 57.07 0 0 1 10.986-9.693A58.563 58.563 0 0 1 42.443 7.4c1.096-.535 2.184-1.09 3.313-1.551l.845-.363c.282-.124.564-.242.845-.343l1.713-.645c.563-.228 1.155-.391 1.735-.585l.87-.282c.282-.096.58-.188.877-.262 1.18-.315 2.355-.658 3.555-.892a56.1 56.1 0 0 1 7.265-1.112l2.022-.129.504-.03H67.506c1.349-.046 2.695.041 4.045.09.673.041 1.343.115 2.014.174l1.005.093 1 .14 2 .282 1.972.388c.33.068.662.121.99.203l.98.245c.653.168 1.312.312 1.957.503l1.935.589.485.146.476.169.952.343c1.279.43 2.513.982 3.76 1.5.615.282 1.22.58 1.832.867.304.146.61.282.912.442l.893.481a57.1 57.1 0 0 1 12.736 9.229 59.802 59.802 0 0 1 5.276 5.862c.769 1.059 1.574 2.08 2.253 3.175l.533.808c.177.281.357.537.515.816l.975 1.655c.171.325.374.632.605.917.116.06.068-.129-.208-.655z" opacity=".8"/>
    <path fill="#FF945C" d="M117.987 33.686l-.713-1.433c-.253-.47-.518-.931-.777-1.407-.505-.943-1.088-1.838-1.654-2.744-.282-.459-.589-.892-.893-1.331l-.918-1.318-.978-1.272c-.329-.422-.645-.844-1-1.255a57.8 57.8 0 0 0-9.222-8.888 56.207 56.207 0 0 0-10.986-6.53c-.48-.236-.983-.422-1.476-.624l-1.488-.603-1.515-.529c-.507-.169-1.006-.368-1.524-.506l-1.541-.45c-.256-.074-.513-.155-.772-.223l-.78-.186-1.56-.366c-.522-.13-1.051-.205-1.578-.31a58.925 58.925 0 0 0-12.789-.996c-4.29.167-8.545.843-12.676 2.013l-.778.214-.766.25-1.532.501c-.513.163-1.009.374-1.513.563-.504.189-1.008.374-1.504.585a56.686 56.686 0 0 0-5.806 2.815c-.467.267-.946.512-1.408.796l-1.372.845-.685.428-.665.458-1.33.918c-.441.306-.858.647-1.29.97-.43.324-.864.645-1.273.994l-1.233 1.044c-.206.175-.414.347-.614.524l-.592.563-1.18 1.103c-.389.374-.755.768-1.127 1.154l-.563.58a10.99 10.99 0 0 0-.55.594L26.3 21.84c-.175.205-.36.4-.53.61l-.51.62-1.008 1.263c-.324.43-.634.873-.95 1.309-.315.436-.645.864-.926 1.323a57.435 57.435 0 0 0-5.916 11.463 54.05 54.05 0 0 0-3.03 12.457 56.433 56.433 0 0 0 2.59 25.33 53.358 53.358 0 0 0 5.561 11.54 56.471 56.471 0 0 0 3.753 5.203l1.045 1.216c.352.402.687.819 1.062 1.199.74.768 1.453 1.568 2.253 2.288l1.158 1.106 1.206 1.053c.791.717 1.645 1.359 2.478 2.023.412.338.846.642 1.285.952l1.301.928 1.344.87c.45.282.887.591 1.355.844a55.016 55.016 0 0 0 11.628 5.218 55.846 55.846 0 0 0 12.496 2.393c4.253.339 8.531.207 12.755-.394a54.765 54.765 0 0 0 12.31-3.349 55.368 55.368 0 0 0 11.18-6.085 56.896 56.896 0 0 0 5.012-3.94c.397-.355.777-.727 1.166-1.087.389-.36.789-.715 1.149-1.106.733-.771 1.499-1.509 2.181-2.325.543-.619.323-.718-.217-.101l-.524.596c-.178.198-.367.383-.55.563l-1.104 1.14c-.363.386-.766.732-1.146 1.098-.381.366-.767.732-1.164 1.08a55.993 55.993 0 0 1-5 3.927 54.06 54.06 0 0 1-11.155 6.037 54.208 54.208 0 0 1-24.93 3.701 57.535 57.535 0 0 1-6.295-.87l-.392-.07-.389-.09-.774-.178-1.55-.357-1.53-.433c-.506-.152-1.025-.282-1.523-.454a54.851 54.851 0 0 1-11.566-5.26 57.004 57.004 0 0 1-10.068-7.768l-.564-.563c-.188-.185-.369-.382-.563-.562l-1.099-1.154c-.371-.38-.7-.8-1.053-1.197a32.53 32.53 0 0 1-1.034-1.212 53.554 53.554 0 0 1-3.715-5.185c-4.58-7.188-7.31-15.48-8.17-23.923a53.472 53.472 0 0 1 .336-12.704 57.416 57.416 0 0 1 9.014-23.594 53.772 53.772 0 0 1 8.307-9.667 56.573 56.573 0 0 1 16.057-10.36c.492-.203.994-.392 1.49-.586.495-.194.988-.402 1.498-.563 1.017-.326 2.017-.7 3.054-.962a54.343 54.343 0 0 1 12.606-2.007 57.796 57.796 0 0 1 12.718.965c8.377 1.537 16.307 5.17 23.082 10.29a56.35 56.35 0 0 1 9.141 8.835c.352.396.659.844.986 1.25.326.405.65.844.966 1.263l.91 1.306.453.653c.152.217.282.447.428.67l.845 1.348.212.338.194.346.392.692c.256.465.526.92.774 1.39l.716 1.422.36.709c.119.228.322.07-.174-.875z"/>
    <path fill="#FF945C" d="M114.347 83.76a62.25 62.25 0 0 1-6.71 9.467 50.975 50.975 0 0 1-8.6 7.94l-.335.25-.35.234-.698.456-.695.467a12.95 12.95 0 0 1-.705.453c-.958.563-1.901 1.174-2.896 1.689a52.8 52.8 0 0 1-6.062 2.814c-1.05.377-2.084.794-3.157 1.103-.533.164-1.062.344-1.598.49l-1.62.422c-.281.068-.537.149-.81.203l-.82.172c-.547.112-1.09.233-1.64.337l-1.653.259-.828.13-.846.09c-.602.062-1.205.135-1.808.191l-1.817.104c-.605.048-1.211.045-1.817.051-.606.006-1.214.028-1.82 0-1.21-.054-2.425-.076-3.63-.214l-.908-.082-.453-.042-.45-.065-1.804-.256a53.103 53.103 0 0 1-7.087-1.643c-1.17-.324-2.301-.763-3.445-1.165-.563-.206-1.127-.459-1.69-.687a21.45 21.45 0 0 1-1.665-.732l-1.64-.785a56.582 56.582 0 0 1-1.594-.864l-.794-.436-.772-.476c-.513-.321-1.031-.628-1.538-.957-.989-.692-2.003-1.345-2.944-2.102l-.718-.563-.358-.282-.346-.281-1.378-1.168a53.975 53.975 0 0 1-9.414-10.898l-.504-.76c-.17-.253-.316-.52-.474-.78l-.935-1.564c-.563-1.075-1.177-2.128-1.69-3.24l-.36-.793-.198-.411-.177-.42-.713-1.688c-.23-.563-.425-1.14-.642-1.709l-.318-.844-.282-.87a50.576 50.576 0 0 1-1.752-7.098l-.282-1.8c-.082-.603-.135-1.208-.203-1.81l-.095-.904-.051-.91c-.031-.604-.073-1.21-.093-1.814 0-1.213-.042-2.427.04-3.64l.039-.909c0-.303.02-.605.056-.906l.17-1.812.041-.453.065-.45.13-.901.13-.901.064-.45.087-.448.35-1.787c.03-.15.056-.298.09-.447l.11-.442.22-.884a52.107 52.107 0 0 1 5.408-13.462c.64-1.03 1.24-2.085 1.95-3.067l.515-.75.256-.373.282-.364 1.104-1.443c.366-.482.777-.93 1.163-1.407l.586-.693c.197-.23.412-.445.617-.667l1.242-1.323 1.305-1.26a52.34 52.34 0 0 1 5.594-4.61l.732-.535.755-.501c.508-.33 1.006-.673 1.516-.994 1.042-.613 2.065-1.26 3.14-1.812a52.52 52.52 0 0 1 27.984-6.232A56.13 56.13 0 0 1 82.15 7.701a49.726 49.726 0 0 1 10.191 3.811 52.748 52.748 0 0 1 16.987 13.51 50.218 50.218 0 0 1 5.997 9.256c1.653 3.304-3.682-7.754-10.741-14.421l-1.347-1.224a10.322 10.322 0 0 0-.69-.591l-.704-.563c-.921-.791-1.921-1.478-2.887-2.204-.499-.34-1.009-.67-1.513-1.005l-.758-.498-.78-.462c-.524-.303-1.037-.624-1.566-.914l-1.606-.845c-.53-.281-1.084-.531-1.63-.788l-.823-.382c-.282-.13-.547-.256-.832-.363l-1.69-.681-.42-.17-.427-.149-.846-.298c-1.126-.425-2.298-.74-3.453-1.086-.282-.093-.583-.158-.876-.231l-.882-.214c-.589-.138-1.169-.304-1.766-.405a52.907 52.907 0 0 0-34.863 4.519 52.84 52.84 0 0 0-24.318 25.365l-.698 1.663c-.116.281-.237.563-.347.844l-.307.845c-.203.563-.417 1.125-.611 1.688l-.53 1.726c-.084.281-.183.563-.259.864l-.22.875c-.143.585-.301 1.165-.436 1.753l-.352 1.77c-.057.282-.124.589-.172.887l-.133.892a52.454 52.454 0 0 0 3.36 28.356 53.041 53.041 0 0 0 17.84 22.451 52.33 52.33 0 0 0 6.133 3.847l.797.434c.265.143.544.264.814.399l1.634.786 1.656.706.846.352.845.309 1.707.617 1.738.532.87.264.882.22 1.763.442 1.772.36.893.174.899.13 1.8.256 1.808.166c2.57.217 5.152.232 7.724.045l.963-.062.958-.107c.637-.079 1.276-.135 1.913-.23l1.899-.316.473-.081.47-.102.941-.202.94-.203c.313-.07.62-.163.93-.245.617-.171 1.24-.323 1.854-.506l1.831-.589.456-.146.451-.169.901-.338.902-.337c.299-.116.591-.251.887-.375.589-.259 1.183-.498 1.764-.768l1.732-.844c.282-.135.563-.282.845-.445l.845-.462.8-.436c.265-.146.521-.312.78-.47l1.558-.954c1.003-.692 2.037-1.348 3-2.108l.735-.563.367-.281.355-.282 1.408-1.173c.468-.397.91-.822 1.366-1.233l.682-.62.651-.65a54.374 54.374 0 0 0 4.87-5.482l1.104-1.455c.355-.493.69-1 1.037-1.497l.518-.749.479-.771c.318-.515.645-1.022.958-1.537.622-1.075.707-1.826.101-.774z"/>
    <path fill="#FF945C" d="M114.767 36.11l-.639-1.33-.705-1.303A50.9 50.9 0 0 0 98.26 16.196c-6.457-4.56-13.989-7.41-21.451-8.655a54.938 54.938 0 0 0-12.394-.664c-.519.014-1.034.073-1.55.124l-1.55.152-1.537.23c-.513.077-1.028.147-1.535.262l-1.53.31c-.256.048-.51.107-.76.177l-.758.195c-.502.135-1.014.244-1.51.402l-1.493.467c-.248.082-.502.15-.747.24l-.735.28-1.473.55-1.442.6-.724.312c-.242.104-.474.227-.71.343l-1.409.698c-.473.234-.924.507-1.386.757l-.69.383-.343.191-.336.208-1.34.845c-.454.267-.877.582-1.313.875-.437.293-.87.588-1.293.9l-1.254.955-.625.478-.603.507-1.214.996-1.16 1.058c-.79.687-1.505 1.453-2.254 2.179-.189.18-.366.371-.54.563l-.528.577c-.346.388-.712.76-1.045 1.162l-.997 1.205c-.163.202-.335.396-.496.605l-.467.625-.938 1.25c-.299.427-.583.863-.876 1.294-.603.844-1.127 1.759-1.662 2.648-.282.44-.51.91-.764 1.365l-.738 1.38-.67 1.407c-.226.47-.454.94-.645 1.426-.397.966-.817 1.923-1.147 2.919l-.524 1.48-.45 1.506a54.359 54.359 0 0 0-1.409 6.043c-.087.51-.146 1.024-.222 1.536l-.107.769c-.04.256-.074.512-.09.771l-.136 1.548c-.022.259-.05.515-.065.774l-.028.777-.059 1.556V60.462l.025.388.096 1.556c.02.521.085 1.036.144 1.554l.172 1.55.25 1.543c.082.515.158 1.03.282 1.537l.324 1.522c.048.256.113.507.18.757l.2.752c.138.5.254 1.007.409 1.503l.47 1.486c.08.247.152.495.24.743l.281.732.544 1.463c.197.481.409.957.608 1.435.2.479.398.963.637 1.425.456.934.893 1.88 1.409 2.786.253.456.49.92.757 1.368l.814 1.334c.138.222.282.447.409.667l.44.647.875 1.303.936 1.255c.312.417.617.845.957 1.239l.992 1.207.248.301.262.282.52.58c.353.382.685.782 1.049 1.156l1.093 1.126.546.563.564.53 1.14 1.063c.39.346.792.673 1.19 1.013.396.34.785.687 1.205.994a49.861 49.861 0 0 0 10.704 6.473c7.707 3.321 16.245 4.875 24.614 4.244 1.051-.048 2.09-.194 3.136-.312.524-.048 1.04-.152 1.557-.237a76.348 76.348 0 0 0 1.555-.264l1.541-.338.772-.166c.256-.062.507-.135.763-.203l1.558-.439c.507-.14 1.003-.318 1.504-.473a53.609 53.609 0 0 0 5.868-2.288l1.409-.695.707-.346c.23-.121.459-.253.69-.377l1.374-.76c.457-.256.893-.546 1.341-.816a53.735 53.735 0 0 0 5.136-3.611l1.205-1.01.603-.504.58-.532 1.155-1.067c.381-.36.738-.746 1.107-1.126a49.488 49.488 0 0 0 7.589-9.924c.228-.376.431-.767.609-1.17.098-.282.107-.409.05-.414-.056-.006-.177.127-.377.377-.278.369-.533.754-.764 1.154a52.826 52.826 0 0 1-8.217 10.472 51.259 51.259 0 0 1-5.07 4.355c-.87.695-1.814 1.294-2.727 1.933-.465.307-.946.588-1.408.884-.462.295-.947.588-1.443.844l-1.47.805c-.496.256-1.003.493-1.504.737l-.752.366c-.251.121-.513.223-.77.335l-1.54.659c-.521.202-1.045.391-1.57.588l-.785.281c-.262.093-.533.172-.797.257l-1.598.506-1.617.431-.808.214c-.282.064-.546.118-.817.177l-1.636.349-1.651.281-.826.136c-.281.039-.563.064-.83.098l-1.663.189c-.563.045-1.112.073-1.667.112l-.845.054c-.282.019-.564 0-.845.019l-1.67.026a52.472 52.472 0 0 1-13.167-1.807 54.03 54.03 0 0 1-12.276-5.12 53.147 53.147 0 0 1-10.642-8.02 50.68 50.68 0 0 1-4.482-4.966c-.668-.892-1.364-1.764-1.972-2.699-.307-.464-.64-.912-.927-1.39l-.867-1.447c-.302-.47-.544-.968-.815-1.455l-.394-.734a10.15 10.15 0 0 1-.377-.74c-.474-1.002-.964-1.996-1.364-3.029a49.615 49.615 0 0 1-2.115-6.26 54.109 54.109 0 0 1-1.778-13.024c0-.563-.022-1.104 0-1.653l.065-1.652c0-.281.017-.563.034-.824l.073-.822.144-1.647a54 54 0 0 1 3.158-12.8l.63-1.525.316-.763.355-.746.704-1.491c.254-.487.518-.968.778-1.455a52.17 52.17 0 0 1 7.695-10.695 50.592 50.592 0 0 1 4.829-4.52c.845-.724 1.738-1.357 2.617-2.021.445-.327.91-.62 1.363-.932.453-.312.91-.622 1.386-.895l1.408-.844c.476-.282.966-.524 1.448-.785.955-.543 1.972-.974 2.95-1.455.498-.226 1.01-.425 1.512-.64l.758-.315c.25-.106.513-.188.769-.28l1.544-.564c.518-.174 1.045-.323 1.566-.487a52.07 52.07 0 0 1 12.887-2.17 51.464 51.464 0 0 1 6.553.158 52.95 52.95 0 0 1 6.478.968 52.264 52.264 0 0 1 12.347 4.388c.955.526 1.94 1.002 2.865 1.584.467.282.944.563 1.408.845l1.37.906c.228.152.461.281.681.456l.662.487c.44.326.89.642 1.327.974l1.279 1.033c.211.174.431.34.636.52l.614.549a115.22 115.22 0 0 1 2.986 2.834 37.883 37.883 0 0 1 3.454 3.94c.879 1.126 2.18 3.133 2.18 3.133.316.447.592.917.873 1.385.282.467.564.928.845 1.407.513.965 1.065 1.908 1.516 2.902.983 1.941 1.065 1.083.614.208z" opacity=".6"/>
    <path fill="#FF945C" d="M117.331 81.626a53.388 53.388 0 0 1-6.62 10.715 52.697 52.697 0 0 1-9.062 8.922c-.826.672-1.71 1.266-2.578 1.885-.428.318-.887.589-1.332.878l-1.35.845a57.474 57.474 0 0 1-5.65 2.961 53.739 53.739 0 0 1-49.158-2.198 53.192 53.192 0 0 1-10.192-7.535 58.122 58.122 0 0 1-8.146-9.67 56.11 56.11 0 0 1-5.772-11.272c-.203-.49-.358-.994-.53-1.495l-.504-1.503-.428-1.525c-.141-.51-.299-1.013-.403-1.531-.228-1.03-.493-2.055-.654-3.096l-.281-1.56-.198-1.57c-.16-1.089-.214-2.19-.304-3.287-.056-.549-.048-1.1-.067-1.652-.02-.552-.037-1.1-.043-1.652a57.12 57.12 0 0 1 .406-6.603c.07-.546.13-1.095.206-1.644l.281-1.629c.164-1.092.445-2.161.682-3.237.11-.54.282-1.066.425-1.598l.454-1.59.53-1.565c.174-.52.349-1.044.563-1.551l.611-1.523c.099-.256.209-.51.327-.757l.343-.748c.234-.498.448-1.005.702-1.492l.763-1.458c.13-.242.251-.487.383-.729l.417-.71.845-1.406c.282-.465.6-.918.902-1.377.301-.458.591-.923.927-1.359.648-.884 1.279-1.782 1.985-2.62.35-.422.68-.862 1.043-1.272l1.093-1.23c.183-.203.36-.414.55-.611l.562-.588 1.15-1.177 1.203-1.126c.4-.377.797-.754 1.222-1.1a56.471 56.471 0 0 1 10.854-7.472l1.47-.763 1.504-.69c.995-.484 2.034-.844 3.057-1.272.512-.205 1.04-.363 1.56-.549l.783-.267c.26-.093.522-.177.79-.248 1.061-.281 2.112-.627 3.19-.844a49.876 49.876 0 0 1 12.798-1.28c4.268.131 8.51.724 12.65 1.767.263.056.522.127.778.203l.775.22c.516.148 1.034.28 1.546.441l1.527.51.764.253c.256.084.501.191.752.281l1.504.58.377.146.37.164.737.326c.49.222.99.425 1.474.661l1.442.724a50.632 50.632 0 0 1 10.648 7.244c.823.687 1.566 1.46 2.341 2.195.197.183.38.378.563.563l.55.586c.36.394.74.77 1.09 1.179l1.039 1.221c.172.206.349.406.518.614l.491.636.983 1.27c.312.433.614.875.924 1.31.633.865 1.18 1.785 1.76 2.686.473.802.682 2.319-1.501-1.056-.257-.433-.564-.844-.845-1.246l-.862-1.239-.933-1.168c-.307-.396-.602-.805-.938-1.182-.656-.76-1.281-1.548-1.986-2.265l-1.031-1.098c-.355-.355-.721-.698-1.081-1.044a50.563 50.563 0 0 0-9.578-7.202 56.977 56.977 0 0 0-10.935-4.892 54.705 54.705 0 0 0-11.688-2.496 51.505 51.505 0 0 0-11.955.174A50.23 50.23 0 0 0 48.7 8.507c-.991.368-1.944.83-2.91 1.26-.487.209-.95.465-1.408.701-.46.237-.944.479-1.409.726a57.883 57.883 0 0 0-5.369 3.35 58.773 58.773 0 0 0-4.972 3.895l-1.174 1.072c-.384.36-.78.707-1.141 1.092-.735.754-1.49 1.489-2.175 2.291a50.38 50.38 0 0 0-7.237 10.349 51.74 51.74 0 0 0-4.467 11.843 57.715 57.715 0 0 0-1.57 12.553A54.39 54.39 0 0 0 16.2 70.534a51.08 51.08 0 0 0 4.417 12.23 53.998 53.998 0 0 0 17.116 19.523c.434.332.904.611 1.358.915.453.304.907.594 1.38.875l1.408.83.705.417.723.38 1.448.763c.488.244.986.464 1.48.698.98.481 2 .872 3.008 1.286.501.216 1.02.385 1.535.563l1.546.54 1.575.459c.527.149 1.045.318 1.583.433 1.065.245 2.124.529 3.209.701l1.617.281 1.63.212c2.184.269 4.383.4 6.584.394l1.65-.054c.564-.022 1.102-.025 1.648-.084 1.096-.099 2.195-.169 3.285-.344.543-.078 1.09-.143 1.634-.233l1.62-.307.81-.152.803-.191 1.603-.383c.533-.138 1.057-.301 1.584-.45.526-.15 1.059-.282 1.574-.479 1.037-.357 2.082-.687 3.099-1.109a58.403 58.403 0 0 0 5.989-2.716 56.613 56.613 0 0 0 5.605-3.425c.919-.608 1.778-1.289 2.651-1.97.445-.324.845-.695 1.273-1.047.428-.352.845-.704 1.251-1.072l1.203-1.126c.2-.189.403-.372.597-.563l.563-.594 1.144-1.185 1.082-1.241a52.819 52.819 0 0 0 7.284-10.951c.972-1.886 1.611-2.384.857-.732z" opacity=".7"/>
  </g>
  <path fill="#282828" d="M50.27 62.834c0 1.644-.632 2.861-1.899 3.65-1.25.79-2.967 1.184-5.154 1.184H37.42l.049-.296c.411 0 .732-.016.962-.05.23-.032.444-.123.641-.27.214-.148.362-.313.444-.494.099-.197.181-.518.247-.962.082-.575.123-1.743.123-3.502v-6.117c0-2.466-.115-3.946-.345-4.44a1.393 1.393 0 0 0-.469-.517 1.382 1.382 0 0 0-.641-.271c-.23-.033-.55-.05-.962-.05l-.05-.296h5.525c1.217 0 2.45.214 3.7.642.707.23 1.283.633 1.726 1.208.444.56.666 1.242.666 2.047 0 1.102-.394 1.965-1.183 2.59-.79.625-1.735 1.06-2.837 1.307 1.283.132 2.434.526 3.453 1.184.543.362.979.839 1.307 1.43.33.593.494 1.267.494 2.023zM46.893 54.3c0-2.22-1.76-3.33-5.278-3.33v7.055h.222c3.37 0 5.056-1.242 5.056-3.725zm1.233 8.534c0-2.878-2.047-4.316-6.142-4.316h-.37v3.946c0 1.792.05 2.968.148 3.527.116.543.387.913.814 1.11.823 0 1.579-.099 2.27-.296.707-.197 1.266-.436 1.677-.715.427-.28.797-.7 1.11-1.258.328-.56.493-1.225.493-1.998zM60.51 55.632c.411 0 .773.09 1.086.271.312.181.468.428.468.74 0 .313-.099.56-.296.74a.96.96 0 0 1-.666.271c-.246 0-.559-.106-.937-.32a2.24 2.24 0 0 0-1.16-.32c-.64 0-1.167.591-1.578 1.775-.394 1.184-.592 2.557-.592 4.119 0 2.105.107 3.379.321 3.823.066.148.19.288.37.42.18.114.37.18.567.197.197.016.477.024.839.024l.05.296h-5.994l.05-.296c.525 0 .903-.025 1.134-.074.246-.066.452-.271.616-.616.165-.346.255-.773.272-1.283.032-.526.049-1.356.049-2.491v-1.43c0-2.286-.066-3.585-.198-3.898a5.747 5.747 0 0 0-.32-.74.763.763 0 0 0-.444-.37c-.362-.098-.839-.147-1.43-.147l-.05-.272a29.772 29.772 0 0 1 4.168-.296v3.626c.181-1.167.584-2.08 1.209-2.738.641-.674 1.463-1.01 2.466-1.01zM72.722 59.702v2.49c0 1.826.058 3.026.173 3.602.115.559.395.838.839.838.28 0 .649-.115 1.11-.345l.123.247c-.132.098-.305.222-.518.37-.214.131-.65.312-1.307.542a5.74 5.74 0 0 1-1.9.346c-.164-.691-.246-1.793-.246-3.305-.362 1.019-.839 1.85-1.43 2.49-.576.625-1.382.938-2.418.938-1.036 0-1.858-.272-2.466-.814-.592-.56-.888-1.316-.888-2.27 0-2.647 2.4-3.978 7.202-3.995v-.888c0-1.184-.173-2.088-.518-2.713-.345-.625-.987-.937-1.924-.937-.526 0-.954.131-1.282.395-.33.263-.551.55-.666.863-.28.855-.7 1.282-1.258 1.282-.543 0-.814-.304-.814-.912 0-.625.41-1.143 1.233-1.554.822-.411 1.817-.617 2.984-.617 1.168 0 2.121.337 2.861 1.012.74.657 1.11 1.636 1.11 2.935zm-7.054 5.228c0 .642.157 1.176.469 1.604.312.41.806.616 1.48.616.69 0 1.315-.329 1.874-.986a5.494 5.494 0 0 0 1.135-2.22c.214-.822.337-1.67.37-2.54-1.825.016-3.174.353-4.045 1.01-.855.658-1.283 1.497-1.283 2.516zM81.042 55.755v4.415c.148-1.184.56-2.211 1.233-3.083.674-.888 1.57-1.332 2.689-1.332 2.515 0 3.773 1.316 3.773 3.947v3.897c0 1.71.107 2.77.32 3.181.231.395.823.592 1.777.592l.049.296H84.89l.049-.296c.987 0 1.578-.205 1.776-.616.197-.412.296-1.538.296-3.38v-3.428c0-1.134-.181-1.99-.543-2.565-.345-.575-.904-.863-1.677-.863-.756 0-1.39.263-1.9.79-.509.509-.887 1.158-1.134 1.948a15.414 15.414 0 0 0-.715 4.612c0 1.545.099 2.516.296 2.91.214.395.806.592 1.776.592l.05.296h-6.019l.05-.296c.986 0 1.586-.197 1.8-.592.214-.41.32-1.488.32-3.23v-1.974c0-2.466-.123-3.954-.37-4.464-.082-.181-.23-.345-.443-.493a1.401 1.401 0 0 0-.666-.272c-.23-.033-.551-.049-.962-.049l-.05-.271a33.6 33.6 0 0 1 4.218-.272zM101.436 64.93a4.668 4.668 0 0 1-1.356 2.146c-.625.56-1.398.839-2.319.839-.904 0-1.66-.181-2.269-.543a3.785 3.785 0 0 1-1.406-1.43c-.657-1.135-.986-2.516-.986-4.144 0-1.628.559-3.042 1.677-4.242 1.118-1.2 2.614-1.8 4.489-1.8.822 0 1.57.098 2.244.295v-2.343c0-1.233-.041-2.063-.123-2.49-.082-.445-.214-.716-.395-.815-.328-.197-.846-.296-1.553-.296l-.05-.271a23.445 23.445 0 0 1 3.848-.296v12.653c0 1.825.057 3.025.172 3.6.116.56.395.84.839.84.28 0 .65-.116 1.11-.346l.123.247c-.131.098-.304.222-.518.37-.213.131-.649.312-1.307.542a5.742 5.742 0 0 1-1.899.346 12.187 12.187 0 0 1-.321-2.862zm-5.87.42a2.9 2.9 0 0 0 .913 1.307c.427.329.937.493 1.529.493.608 0 1.151-.205 1.628-.616a3.78 3.78 0 0 0 1.11-1.579 9.929 9.929 0 0 0 .764-3.823V57.36c-.707-.56-1.48-.839-2.318-.839-.839 0-1.537.18-2.097.543a3.586 3.586 0 0 0-1.282 1.43 7.687 7.687 0 0 0-.839 3.527c0 1.2.198 2.31.592 3.33zM118.541 55.977v6.117c0 1.76.05 2.96.148 3.601.116.641.272 1.044.469 1.209.378.312.978.468 1.801.468l.049.296h-6.659l.049-.296c.411 0 .732-.016.962-.05a1.38 1.38 0 0 0 .641-.27c.214-.148.362-.313.444-.494.099-.197.181-.518.247-.962.082-.575.123-1.743.123-3.502v-6.117c0-1.71-.049-2.902-.148-3.576-.099-.674-.247-1.093-.444-1.258-.395-.312-1.003-.468-1.825-.468l-.049-.272h6.659l-.049.272c-.823 0-1.423.156-1.801.468-.411.346-.617 1.957-.617 4.834zM132.06 64.93a4.668 4.668 0 0 1-1.356 2.146c-.625.56-1.398.839-2.319.839-.904 0-1.66-.181-2.269-.543a3.79 3.79 0 0 1-1.406-1.43c-.657-1.135-.986-2.516-.986-4.144 0-1.628.559-3.042 1.677-4.242 1.118-1.2 2.614-1.8 4.489-1.8.822 0 1.57.098 2.244.295v-2.343c0-1.233-.041-2.063-.123-2.49-.082-.445-.214-.716-.395-.815-.329-.197-.846-.296-1.554-.296l-.049-.271a23.45 23.45 0 0 1 3.848-.296v12.653c0 1.825.057 3.025.172 3.6.115.56.395.84.839.84.28 0 .649-.116 1.11-.346l.123.247c-.131.098-.304.222-.518.37-.214.131-.649.312-1.307.542a5.742 5.742 0 0 1-1.899.346 12.187 12.187 0 0 1-.321-2.862zm-5.87.42c.198.542.502.978.913 1.307.427.329.937.493 1.529.493.608 0 1.151-.205 1.628-.616a3.782 3.782 0 0 0 1.11-1.579 9.929 9.929 0 0 0 .764-3.823V57.36c-.707-.56-1.48-.839-2.318-.839-.839 0-1.538.18-2.097.543a3.585 3.585 0 0 0-1.282 1.43 7.687 7.687 0 0 0-.839 3.527c0 1.2.198 2.31.592 3.33zM148.031 61.428h-8.09v.42c0 1.742.37 3.074 1.11 3.995.74.904 1.661 1.356 2.762 1.356 1.645 0 2.828-.657 3.552-1.973l.37.198c-.855 1.66-2.286 2.49-4.292 2.49-1.48 0-2.746-.534-3.798-1.602-1.052-1.07-1.578-2.508-1.578-4.317 0-1.825.46-3.321 1.381-4.488.937-1.168 2.178-1.752 3.724-1.752 1.562 0 2.762.535 3.601 1.604.839 1.052 1.258 2.408 1.258 4.07zm-4.785-5.18c-.954 0-1.71.412-2.269 1.234-.543.806-.872 1.883-.987 3.23h6.142c-.115-2.975-1.077-4.463-2.886-4.463zM154.718 55.755v4.415c.148-1.184.559-2.211 1.233-3.083.675-.888 1.571-1.332 2.689-1.332 2.516 0 3.773 1.316 3.773 3.947v3.897c0 1.71.107 2.77.321 3.181.23.395.822.592 1.776.592l.049.296h-5.993l.049-.296c.987 0 1.579-.205 1.776-.616.197-.412.296-1.538.296-3.38v-3.428c0-1.134-.181-1.99-.543-2.565-.345-.575-.904-.863-1.677-.863-.756 0-1.389.263-1.899.79-.51.509-.888 1.158-1.134 1.948a15.412 15.412 0 0 0-.716 4.612c0 1.545.099 2.516.296 2.91.214.395.806.592 1.776.592l.049.296h-6.018l.05-.296c.986 0 1.586-.197 1.8-.592.214-.41.321-1.488.321-3.23v-1.974c0-2.466-.124-3.954-.37-4.464-.082-.181-.23-.345-.444-.493a1.399 1.399 0 0 0-.666-.272 7.208 7.208 0 0 0-.962-.049l-.049-.271c1.43-.181 2.836-.272 4.217-.272zM170.13 56.002h3.034v.543h-3.034v9.397c0 .345.083.625.247.838a.796.796 0 0 0 .641.296c.592 0 1.291-.172 2.097-.518l.049.272c-1.151.723-2.17 1.085-3.058 1.085-.576 0-1.003-.14-1.283-.42-.279-.279-.419-.764-.419-1.455v-9.495h-1.48v-.543c.888 0 1.505-.247 1.85-.74.362-.51.633-1.258.814-2.244l.542-.05v3.034zM177.193 52.796c-.28-.28-.42-.609-.42-.987s.14-.707.42-.986c.279-.28.608-.42.986-.42s.707.14.987.42c.279.28.419.608.419.986s-.14.707-.419.987c-.28.28-.609.419-.987.419s-.707-.14-.986-.42zm1.923 2.96v7.843c0 1.726.099 2.787.296 3.181.214.395.806.592 1.776.592l.05.296h-6.018l.049-.296c.986 0 1.587-.197 1.8-.592.214-.41.321-1.488.321-3.23v-1.727c0-1.908-.058-3.166-.173-3.774-.098-.625-.246-1.027-.444-1.208-.394-.362-1.003-.543-1.825-.543l-.049-.271c1.43-.181 2.836-.272 4.217-.272zM186.821 56.002h3.034v.543h-3.034v9.397c0 .345.082.625.247.838a.794.794 0 0 0 .641.296c.592 0 1.291-.172 2.096-.518l.05.272c-1.151.723-2.171 1.085-3.059 1.085-.575 0-1.003-.14-1.282-.42-.28-.279-.419-.764-.419-1.455v-9.495h-1.48v-.543c.888 0 1.504-.247 1.85-.74.361-.51.633-1.258.813-2.244l.543-.05v3.034zM193.242 72.848c.822 0 1.505-.321 2.047-.962.559-.625 1.127-1.645 1.702-3.059l-3.675-9.273c-.543-1.382-1.036-2.27-1.48-2.664-.427-.395-.945-.592-1.554-.592l-.049-.296h6.117l-.05.296c-.575 0-.978.09-1.208.271-.214.181-.321.46-.321.839 0 .756.387 2.105 1.159 4.045l1.9 4.785 1.923-5.92c.379-1.184.568-2.08.568-2.688 0-.888-.576-1.332-1.727-1.332l-.049-.296h4.637l-.05.296c-.674 0-1.151.222-1.43.666-.263.427-.765 1.767-1.505 4.02l-2.219 6.758c-.724 2.22-1.571 3.93-2.541 5.13-.97 1.2-1.981 1.8-3.034 1.8-.476 0-.871-.098-1.183-.295-.313-.181-.469-.444-.469-.79 0-.328.099-.591.296-.789.214-.18.436-.271.666-.271.247 0 .518.05.814.148.296.115.534.173.715.173z"/>
  <defs>
    <filter id="filter0_f" width="133.202" height="31.595" x=".837" y="107.323" color-interpolation-filters="sRGB" filterUnits="userSpaceOnUse">
      <feFlood flood-opacity="0" result="BackgroundImageFix"/>
      <feBlend in="SourceGraphic" in2="BackgroundImageFix" result="shape"/>
      <feGaussianBlur result="effect1_foregroundBlur" stdDeviation="5"/>
    </filter>
    <filter id="filter1_f" width="86.174" height="12.95" x="25.752" y="114.024" color-interpolation-filters="sRGB" filterUnits="userSpaceOnUse">
      <feFlood flood-opacity="0" result="BackgroundImageFix"/>
      <feBlend in="SourceGraphic" in2="BackgroundImageFix" result="shape"/>
      <feGaussianBlur result="effect1_foregroundBlur" stdDeviation="2"/>
    </filter>
    <linearGradient id="paint0_linear" x1="67.438" x2="67.438" y1="117.323" y2="128.918" gradientUnits="userSpaceOnUse">
      <stop stop-color="#B4B4B4"/>
      <stop offset="1" stop-color="#F2F1EE"/>
    </linearGradient>
    <clipPath id="clip0">
      <path fill="#fff" d="M0 0h107.99v114.323H0z" transform="translate(10.837 .947)"/>
    </clipPath>
  </defs>
</svg>
