<svg xmlns="http://www.w3.org/2000/svg" fill="none" viewBox="0 0 234 139">
  <ellipse cx="67.438" cy="122.698" fill="url(#paint0_linear)" fill-opacity=".4" filter="url(#filter0_f)" opacity=".7" rx="56.601" ry="5.797"/>
  <ellipse cx="68.839" cy="120.077" fill="#F5F5F5" filter="url(#filter1_f)" rx="39.087" ry="2.475"/>
  <g clip-path="url(#clip0)">
    <path fill="#FF945C" d="M115.288 28.047a60.909 60.909 0 0 0-8.338-10.796l-1.2-1.213-1.256-1.157c-.823-.788-1.727-1.486-2.603-2.22-.44-.364-.91-.69-1.366-1.04l-.69-.511-.347-.256-.358-.24c-.957-.633-1.907-1.292-2.918-1.854-.496-.282-.986-.586-1.49-.862l-1.527-.78-.766-.393-.783-.358-1.572-.715c-.53-.225-1.068-.427-1.603-.641-.535-.214-1.065-.437-1.617-.611-1.093-.363-2.177-.757-3.293-1.047a56.838 56.838 0 0 0-13.597-2.17 55.968 55.968 0 0 0-14.158 1.236l-1.738.394-1.718.472-.846.24-.845.281-1.69.563-1.665.639-.845.32c-.281.116-.546.24-.817.358l-1.633.72c-.535.26-1.065.53-1.6.797l-.812.383c-.264.138-.52.281-.78.433l-1.558.884c-.51.31-1.01.636-1.518.954l-.758.482c-.25.163-.49.34-.738.512l-1.465 1.035c-.478.358-.946.735-1.408 1.1l-.707.564c-.234.185-.456.388-.685.582l-1.369 1.149c-.442.402-.87.821-1.307 1.232l-.65.62c-.217.208-.417.43-.626.644l-1.24 1.297c-.402.442-.788.898-1.182 1.349l-.589.675c-.197.225-.375.465-.563.698l-1.113 1.407c-.364.473-.701.966-1.054 1.447-.352.481-.704.963-1.02 1.47l-.977 1.494c-.324.5-.608 1.021-.915 1.53-.626 1.014-1.155 2.08-1.713 3.13a8.42 8.42 0 0 0-.394.8l-.378.807-.363.82c-.127.28-.25.537-.36.816-.443 1.103-.925 2.192-1.294 3.323-.194.563-.4 1.126-.583 1.69l-.504 1.71-.25.845-.212.867-.414 1.739c-.13.582-.226 1.17-.338 1.756l-.16.881-.08.442-.059.445c-.15 1.184-.338 2.366-.403 3.563-.045.596-.095 1.193-.132 1.79l-.045 1.795-.023.898c0 .298 0 .6.02.898l.048 1.798c.122 2.398.398 4.786.825 7.15l.16.886.08.442.101.439.406 1.756c.124.588.31 1.16.465 1.74.155.579.312 1.17.498 1.733.386 1.126.741 2.282 1.2 3.394.223.563.423 1.126.668 1.672l.732 1.644c.234.562.516 1.083.783 1.618.268.535.53 1.075.823 1.601.597 1.041 1.16 2.103 1.823 3.096a56.823 56.823 0 0 0 4.2 5.843c.788.906 1.54 1.843 2.383 2.699.414.433.816.878 1.242 1.303l1.296 1.25c.425.425.879.816 1.332 1.213.454.397.899.796 1.36 1.179l1.41 1.126c.236.186.467.377.709.563l.732.526c.49.349.975.706 1.468 1.05l1.51.985.758.49.777.455 1.555.912 1.597.845.8.416.817.383 1.637.757c.563.239 1.127.456 1.67.684 1.107.473 2.254.844 3.38 1.236.282.104.564.188.862.281l.868.25c.58.161 1.152.349 1.738.485l1.758.41c.282.065.586.144.882.195l.887.16 1.777.315 1.792.225.994.121c.333.037.665.054 1 .079l2 .141 2.003.039c.335 0 .668.017 1.003 0l1.003-.031a54.337 54.337 0 0 0 7.969-.79l1.972-.366c.65-.144 1.298-.304 1.95-.456.323-.079.65-.149.97-.239l.962-.282.96-.281c.321-.093.642-.183.955-.296l1.893-.647c.631-.214 1.242-.481 1.865-.721l.93-.368c.306-.13.608-.282.912-.408.606-.282 1.22-.541 1.82-.845a57.687 57.687 0 0 0 11.572-7.424 51.228 51.228 0 0 0 9.197-9.97c.425-.635.099-.41-.335.226a49.868 49.868 0 0 1-8.913 9.397c-.408.358-.845.676-1.282 1.005l-1.281.999-1.347.921c-.45.304-.89.619-1.36.895-.927.563-1.84 1.156-2.798 1.663l-1.408.788-1.454.726c-1 .527-2.048.954-3.076 1.424-.515.237-1.05.422-1.574.636-.524.214-1.051.428-1.59.608-1.075.355-2.14.76-3.239 1.053l-1.64.473-1.661.383c-1.102.281-2.228.455-3.347.672-.281.056-.563.096-.845.132l-.845.116c-.563.07-1.126.163-1.69.214l-1.69.14-.845.068-.845.028-1.69.051c-.564 0-1.127-.017-1.69-.023a56.91 56.91 0 0 1-7.057-.605l-1.74-.309c-.581-.107-1.161-.2-1.733-.344-1.147-.281-2.299-.518-3.425-.867-.564-.168-1.127-.318-1.69-.501l-1.671-.562-.845-.282-.82-.329-1.684-.695a58.328 58.328 0 0 1-6.308-3.198c-1.03-.563-2.01-1.235-3.002-1.874l-.372-.242-.36-.259-.72-.515-.72-.501a12.875 12.875 0 0 1-.71-.532c-.924-.737-1.865-1.449-2.74-2.251-.443-.395-.9-.769-1.325-1.177l-1.279-1.227c-.434-.403-.845-.844-1.24-1.267-.394-.422-.819-.844-1.208-1.294-.763-.9-1.56-1.773-2.253-2.722-.36-.467-.73-.929-1.08-1.407l-1.016-1.447c-.166-.242-.344-.478-.501-.726l-.474-.746c-.312-.498-.633-.993-.94-1.497a55.573 55.573 0 0 1-7.8-26.844c0-.588-.032-1.177-.037-1.762l.048-1.762.025-.88c.017-.282.042-.586.065-.879l.14-1.753c.049-.583.144-1.163.215-1.745l.115-.87c.037-.281.076-.58.133-.867l.315-1.725c.057-.282.099-.563.166-.861l.203-.845a55.091 55.091 0 0 1 4.795-13.16c.281-.515.532-1.033.81-1.542l.883-1.506.442-.752.476-.728.955-1.458a56.888 56.888 0 0 1 4.318-5.474 55.73 55.73 0 0 1 10.47-9.145c.471-.34.973-.636 1.463-.948.49-.313.977-.63 1.484-.918 1.017-.563 2.011-1.173 3.062-1.688a58.43 58.43 0 0 1 6.4-2.815l1.657-.563.828-.281.845-.245 1.69-.484 1.69-.405.845-.2c.282-.065.564-.11.845-.166l1.721-.315c.564-.099 1.155-.16 1.73-.243.575-.081 1.152-.166 1.735-.202l1.933-.158c.645-.05 1.293-.05 1.938-.076l.969-.03h.969l1.94.033 1.936.127.969.064.963.113 1.927.23 1.913.322c.318.056.64.101.955.169l.949.208c.63.143 1.267.281 1.893.43 1.248.35 2.507.659 3.727 1.092l.92.307c.308.099.615.206.916.327l1.812.703c.304.113.6.248.892.38l.888.397c.591.265 1.186.526 1.755.844l1.732.893 1.69.982c.282.166.564.323.845.5l.812.536.808.534c.282.178.541.355.797.563l1.558 1.151c.262.189.51.394.761.6l.746.613.747.614c.248.205.481.428.721.642l1.428 1.3a64.96 64.96 0 0 1 5.211 5.68c.406.498.786 1.018 1.181 1.525l.588.765.564.791c.366.53.752 1.047 1.104 1.588l1.051 1.63c.371.55.346.438-.023-.15z" opacity=".8"/>
    <path fill="#FF945C" d="M117.399 29.246c-4.003-7.174-9.73-13.355-16.482-18.156l-1.527-1.033-.763-.515-.786-.479-1.572-.957-1.617-.88-.808-.442-.828-.403-1.657-.802-1.69-.723-.845-.36c-.282-.119-.563-.214-.862-.324A55.42 55.42 0 0 0 73.652.794l-1.84-.166c-.613-.03-1.23-.047-1.844-.073l-.924-.034h-.924l-1.848.031c-2.465.099-4.92.36-7.35.78-1.22.183-2.416.47-3.62.735-.3.062-.6.138-.895.222l-.89.242c-.592.169-1.192.304-1.775.507l-1.755.563c-.282.09-.583.194-.87.303l-.862.321c-1.16.406-2.282.907-3.412 1.385a60.709 60.709 0 0 0-6.524 3.377c-1.067.605-2.076 1.298-3.098 1.97-.513.335-.997.712-1.496 1.067-.498.355-1 .71-1.47 1.103l-1.434 1.151c-.48.383-.924.806-1.389 1.208-.935.794-1.791 1.689-2.673 2.533a53.521 53.521 0 0 0-4.789 5.606 55.603 55.603 0 0 0-7.248 13.192 58.586 58.586 0 0 0-2.217 7.205c-.324 1.216-.527 2.454-.769 3.687l-.087.461-.065.467-.132.932-.133.932c-.045.31-.09.622-.112.934-.555 5-.46 10.05.281 15.026.36 2.486.888 4.945 1.578 7.36.377 1.2.726 2.412 1.186 3.583l.326.886c.107.296.217.592.347.879l.74 1.736a57.489 57.489 0 0 0 18.928 23.031c.495.385 1.028.718 1.546 1.072l.78.526c.26.178.522.352.792.51 1.073.65 2.138 1.32 3.256 1.897l.828.45.415.225.425.206 1.69.819.425.205.434.183.868.366.867.366.434.183.443.163a56.726 56.726 0 0 0 23.127 3.681c.707-.045 1.408-.081 2.123-.132l2.116-.233c.707-.062 1.408-.203 2.104-.31l1.05-.169c.35-.053.697-.141 1.043-.211a54.842 54.842 0 0 0 8.17-2.302c.661-.254 1.332-.479 1.971-.757l1.952-.845c.648-.281 1.276-.61 1.916-.917.315-.158.64-.304.952-.473l.93-.509c1.253-.656 2.447-1.408 3.662-2.153 1.168-.797 2.352-1.571 3.461-2.443.564-.425 1.127-.845 1.665-1.309.538-.465 1.09-.898 1.62-1.365l1.558-1.433c.265-.233.51-.487.758-.737l.743-.754a54.82 54.82 0 0 0 5.442-6.474c.206-.281.426-.563.62-.844l.586-.88.583-.882c.096-.146.197-.281.282-.442l.282-.453 1.081-1.815c.338-.62.665-1.244.995-1.863.36-.681.253-.679-.11 0l-.873 1.635c-.31.535-.634 1.06-.953 1.593l-.478.793c-.164.262-.344.516-.513.772l-1.037 1.536c-.363.501-.738.991-1.107 1.486l-.563.74c-.192.243-.392.48-.589.715l-1.186 1.427-1.251 1.368-.625.684-.656.653-1.319 1.303-1.374 1.241c-.231.206-.457.417-.69.617l-.716.588c-.479.388-.952.788-1.437 1.168l-1.484 1.106c-.251.18-.49.374-.746.546l-.767.518c-.512.34-1.017.698-1.538 1.027a58.113 58.113 0 0 1-13.366 6.291l-.882.281-.442.141-.448.121-1.791.481-.448.121-.454.099-.907.197-.907.194-.453.098-.457.076-1.83.299-.457.073-.462.053-.921.104-.921.102c-.308.036-.615.067-.924.081l-1.851.11c-.617.051-1.237.034-1.854.045-.617.011-1.236.025-1.853 0-1.234-.062-2.473-.07-3.702-.214l-1.845-.177-1.834-.265-.915-.132c-.304-.051-.606-.115-.91-.174l-1.817-.358a57.811 57.811 0 0 1-7.112-2.063 56.275 56.275 0 0 1-28.451-22.634 59.999 59.999 0 0 1-3.553-6.383c-.563-1.086-1.014-2.223-1.51-3.34-.236-.564-.439-1.143-.659-1.712-.22-.568-.439-1.143-.617-1.728l-.563-1.745c-.18-.585-.327-1.18-.49-1.77-.347-1.177-.563-2.381-.845-3.575a54.301 54.301 0 0 1-.91-7.283c-.099-1.222-.085-2.446-.096-3.66-.017-.61.037-1.22.054-1.831s.04-1.222.095-1.833l.175-1.823c.034-.304.05-.608.096-.912l.132-.907.282-1.812.358-1.796a57.142 57.142 0 0 1 4.746-13.819c.254-.563.564-1.094.845-1.635.282-.54.564-1.083.882-1.613.642-1.044 1.24-2.116 1.947-3.118.346-.507.676-1.022 1.033-1.52l1.099-1.472c.358-.498.75-.968 1.14-1.438.392-.47.773-.951 1.178-1.407a57.066 57.066 0 0 1 10.986-9.693 58.554 58.554 0 0 1 6.276-3.746c1.096-.535 2.184-1.09 3.313-1.55l.845-.364c.282-.124.564-.242.845-.343l1.713-.645c.563-.228 1.155-.391 1.735-.585l.87-.282c.282-.095.58-.188.877-.261 1.18-.316 2.355-.659 3.555-.893 2.394-.529 4.821-.9 7.265-1.111l2.022-.13.504-.03H67.506c1.349-.046 2.695.041 4.045.09.673.042 1.343.115 2.014.174l1.005.093 1 .14 2 .282 1.972.388c.33.068.662.121.99.203l.98.245c.653.169 1.312.312 1.957.504l1.935.588.485.146.476.169.952.343c1.279.43 2.513.983 3.76 1.5.615.282 1.22.58 1.832.867.304.147.61.282.912.442l.893.481a57.1 57.1 0 0 1 12.736 9.229 59.814 59.814 0 0 1 5.276 5.863c.769 1.058 1.574 2.08 2.253 3.174l.533.808c.177.281.357.537.515.816l.975 1.655c.171.325.374.632.605.918.116.059.068-.13-.208-.656z" opacity=".8"/>
    <path fill="#FF945C" d="M117.987 33.263l-.713-1.433c-.253-.47-.518-.931-.777-1.407-.505-.943-1.088-1.838-1.654-2.744-.282-.459-.589-.892-.893-1.331l-.918-1.317-.978-1.273c-.329-.422-.645-.844-1-1.255a57.797 57.797 0 0 0-9.222-8.888 56.207 56.207 0 0 0-10.986-6.53c-.48-.236-.983-.422-1.476-.624l-1.488-.603-1.515-.529c-.507-.169-1.006-.368-1.524-.506l-1.541-.45c-.256-.074-.513-.155-.772-.223l-.78-.186-1.56-.366c-.522-.129-1.051-.205-1.578-.31a58.924 58.924 0 0 0-12.789-.995c-4.29.167-8.545.842-12.676 2.012l-.778.214-.766.25-1.532.501c-.513.163-1.009.375-1.513.563-.504.189-1.008.374-1.504.586a56.686 56.686 0 0 0-5.806 2.814c-.467.267-.946.512-1.408.796l-1.372.845-.685.428-.665.458-1.33.918c-.441.307-.858.647-1.29.97-.43.325-.864.645-1.273.994l-1.233 1.045c-.206.174-.414.346-.614.523l-.592.563-1.18 1.103c-.389.374-.755.769-1.127 1.154l-.563.58c-.19.191-.375.388-.55.594L26.3 21.417c-.175.205-.36.4-.53.61l-.51.62-1.008 1.263c-.324.431-.634.873-.95 1.31-.315.435-.645.863-.926 1.322a57.439 57.439 0 0 0-5.916 11.463 54.047 54.047 0 0 0-3.03 12.457 56.433 56.433 0 0 0 2.59 25.33 53.363 53.363 0 0 0 5.561 11.54 56.498 56.498 0 0 0 3.753 5.203l1.045 1.216c.352.403.687.82 1.062 1.2.74.767 1.453 1.567 2.253 2.287l1.158 1.106 1.206 1.053c.791.718 1.645 1.359 2.478 2.024.412.337.846.641 1.285.951l1.301.929 1.344.869c.45.282.887.591 1.355.845a55.117 55.117 0 0 0 11.628 5.218 55.9 55.9 0 0 0 12.496 2.392c4.253.339 8.531.207 12.755-.394a54.765 54.765 0 0 0 12.31-3.349 55.368 55.368 0 0 0 11.18-6.085 56.931 56.931 0 0 0 5.012-3.94c.397-.355.777-.727 1.166-1.087.389-.36.789-.715 1.149-1.106.733-.771 1.499-1.508 2.181-2.325.543-.619.323-.717-.217-.101l-.524.597c-.178.197-.367.383-.55.563l-1.104 1.14c-.363.385-.766.731-1.146 1.097a36.14 36.14 0 0 1-1.164 1.08 56.01 56.01 0 0 1-5 3.927 54.06 54.06 0 0 1-11.155 6.037 54.182 54.182 0 0 1-24.93 3.701 57.535 57.535 0 0 1-6.295-.87l-.392-.07-.389-.09-.774-.177-1.55-.358-1.53-.433c-.506-.152-1.025-.282-1.523-.453a54.905 54.905 0 0 1-11.566-5.261A57.018 57.018 0 0 1 29.82 96.9l-.564-.562c-.188-.186-.369-.383-.563-.563l-1.099-1.154c-.371-.38-.7-.8-1.053-1.196-.352-.397-.701-.8-1.034-1.213a53.553 53.553 0 0 1-3.715-5.185c-4.58-7.188-7.31-15.48-8.17-23.922a53.47 53.47 0 0 1 .336-12.705 57.416 57.416 0 0 1 9.014-23.593 53.773 53.773 0 0 1 8.307-9.668 56.573 56.573 0 0 1 16.057-10.36c.492-.203.994-.391 1.49-.586.495-.194.988-.402 1.498-.563 1.017-.326 2.017-.7 3.054-.962a54.343 54.343 0 0 1 12.606-2.007 57.796 57.796 0 0 1 12.718.966c8.377 1.536 16.307 5.17 23.082 10.29a56.354 56.354 0 0 1 9.141 8.834c.352.397.659.844.986 1.25.326.405.65.844.966 1.263l.91 1.306.453.653c.152.217.282.448.428.67l.845 1.348.212.338.194.346.392.692c.256.465.526.92.774 1.39l.716 1.422.36.71c.119.227.322.07-.174-.876z"/>
    <path fill="#FF945C" d="M114.347 83.336a62.256 62.256 0 0 1-6.71 9.468 50.965 50.965 0 0 1-8.6 7.94l-.335.25-.35.234-.698.456-.695.467c-.231.158-.465.312-.705.453-.958.563-1.901 1.174-2.896 1.689a52.8 52.8 0 0 1-6.062 2.814c-1.05.377-2.084.794-3.157 1.104-.533.163-1.062.343-1.598.489l-1.62.422c-.281.068-.537.15-.81.203l-.82.172c-.547.112-1.09.233-1.64.337l-1.653.259-.828.13-.846.09c-.602.062-1.205.135-1.808.191l-1.817.104c-.605.048-1.211.045-1.817.051-.606.006-1.214.028-1.82 0-1.21-.053-2.425-.076-3.63-.214l-.908-.081-.453-.043-.45-.064-1.804-.257a53.103 53.103 0 0 1-7.087-1.643c-1.17-.324-2.301-.763-3.445-1.165-.563-.206-1.127-.459-1.69-.687a21.45 21.45 0 0 1-1.665-.732l-1.64-.785a54.126 54.126 0 0 1-1.594-.864l-.794-.436-.772-.476c-.513-.321-1.031-.628-1.538-.957-.989-.692-2.003-1.345-2.944-2.102l-.718-.563-.358-.282-.346-.281-1.378-1.168a53.975 53.975 0 0 1-9.414-10.898l-.504-.76c-.17-.253-.316-.52-.474-.78l-.935-1.564c-.563-1.075-1.177-2.128-1.69-3.24l-.36-.793-.198-.411-.177-.42-.713-1.688c-.23-.563-.425-1.14-.642-1.708l-.318-.845-.282-.87a50.577 50.577 0 0 1-1.752-7.098l-.282-1.8c-.082-.603-.135-1.208-.203-1.81l-.095-.904-.051-.909c-.031-.605-.073-1.21-.093-1.815 0-1.213-.042-2.426.04-3.64l.039-.908c0-.304.02-.605.056-.907l.17-1.812.041-.453.065-.45.13-.901.13-.9.064-.451.087-.448.35-1.787c.03-.149.056-.298.09-.447l.11-.442.22-.884a52.106 52.106 0 0 1 5.408-13.462c.64-1.03 1.24-2.085 1.95-3.067l.515-.749.256-.374.282-.363 1.104-1.444c.366-.481.777-.929 1.163-1.407l.586-.693c.197-.23.412-.444.617-.667l1.242-1.323 1.305-1.26a52.33 52.33 0 0 1 5.594-4.61l.732-.535.755-.501c.508-.33 1.006-.673 1.516-.994 1.042-.613 2.065-1.26 3.14-1.812a52.52 52.52 0 0 1 27.984-6.231A56.13 56.13 0 0 1 82.15 7.278 49.728 49.728 0 0 1 92.34 11.09a52.75 52.75 0 0 1 16.987 13.51 50.215 50.215 0 0 1 5.997 9.256c1.653 3.305-3.682-7.753-10.741-14.42l-1.347-1.225a10.291 10.291 0 0 0-.69-.591l-.704-.563c-.921-.791-1.921-1.478-2.887-2.204-.499-.34-1.009-.67-1.513-1.005l-.758-.498-.78-.461c-.524-.304-1.037-.625-1.566-.915l-1.606-.844c-.53-.282-1.084-.532-1.63-.788l-.823-.383c-.282-.13-.547-.256-.832-.363l-1.69-.681-.42-.17-.427-.148-.846-.299c-1.126-.425-2.298-.74-3.453-1.086-.282-.093-.583-.158-.876-.23l-.882-.215c-.589-.138-1.169-.304-1.766-.405a52.907 52.907 0 0 0-34.863 4.519 52.839 52.839 0 0 0-24.318 25.365l-.698 1.663c-.116.282-.237.563-.347.844l-.307.845c-.203.563-.417 1.126-.611 1.688l-.53 1.726c-.084.281-.183.563-.259.864l-.22.875c-.143.586-.301 1.165-.436 1.754l-.352 1.77c-.057.281-.124.588-.172.886l-.133.893a52.454 52.454 0 0 0 3.36 28.355 53.04 53.04 0 0 0 17.84 22.451 52.337 52.337 0 0 0 6.133 3.848l.797.433c.265.143.544.264.814.4l1.634.785 1.656.706.846.352.845.31 1.707.616 1.738.532.87.264.882.22 1.763.442 1.772.36.893.175.899.129 1.8.256 1.808.166c2.57.217 5.152.232 7.724.045l.963-.062.958-.107c.637-.078 1.276-.135 1.913-.23l1.899-.316.473-.081.47-.102.941-.202.94-.203c.313-.07.62-.163.93-.245.617-.171 1.24-.323 1.854-.506l1.831-.588.456-.147.451-.169.901-.337.902-.338c.299-.116.591-.251.887-.374.589-.259 1.183-.499 1.764-.769l1.732-.844c.282-.135.563-.282.845-.445l.845-.461.8-.437c.265-.146.521-.312.78-.47l1.558-.954c1.003-.692 2.037-1.348 3-2.108l.735-.563.367-.281.355-.282 1.408-1.173c.468-.397.91-.822 1.366-1.233l.682-.62.651-.65a54.362 54.362 0 0 0 4.87-5.482l1.104-1.455c.355-.492.69-.999 1.037-1.497l.518-.749.479-.771c.318-.515.645-1.022.958-1.537.622-1.075.707-1.826.101-.774z"/>
    <path fill="#FF945C" d="M114.767 35.688l-.639-1.331-.705-1.303A50.9 50.9 0 0 0 98.26 15.773c-6.457-4.56-13.989-7.41-21.451-8.655a54.938 54.938 0 0 0-12.394-.664c-.519.014-1.034.073-1.55.124l-1.55.152-1.537.23c-.513.077-1.028.147-1.535.263l-1.53.31c-.256.047-.51.106-.76.176l-.758.195c-.502.135-1.014.245-1.51.402l-1.493.467c-.248.082-.502.15-.747.24l-.735.281-1.473.549-1.442.6-.724.312c-.242.104-.474.228-.71.343l-1.409.698c-.473.234-.924.507-1.386.757l-.69.383-.343.191-.336.209-1.34.844c-.454.267-.877.582-1.313.875-.437.293-.87.588-1.293.9l-1.254.955-.625.478-.603.507-1.214.996-1.16 1.059c-.79.686-1.505 1.452-2.254 2.178-.189.18-.366.371-.54.563l-.528.577c-.346.388-.712.76-1.045 1.162l-.997 1.205c-.163.202-.335.397-.496.605l-.467.625-.938 1.25c-.299.427-.583.863-.876 1.294-.603.844-1.127 1.759-1.662 2.648-.282.44-.51.91-.764 1.365l-.738 1.38-.67 1.407c-.226.47-.454.94-.645 1.427-.397.965-.817 1.922-1.147 2.918l-.524 1.48-.45 1.506a54.364 54.364 0 0 0-1.409 6.043c-.087.51-.146 1.024-.222 1.537l-.107.768c-.04.256-.074.512-.09.771l-.136 1.548c-.022.259-.05.515-.065.774l-.028.777-.059 1.556V60.04l.025.388.096 1.556c.02.521.085 1.036.144 1.554l.172 1.55.25 1.543c.082.515.158 1.03.282 1.537l.324 1.522c.048.257.113.507.18.758l.2.751c.138.5.254 1.008.409 1.503l.47 1.486c.08.248.152.495.24.743l.281.732.544 1.463c.197.481.409.957.608 1.436.2.478.398.962.637 1.424.456.934.893 1.88 1.409 2.786.253.456.49.92.757 1.368l.814 1.334c.138.222.282.447.409.667l.44.647.875 1.303.936 1.256c.312.416.617.844.957 1.238l.992 1.207.248.302.262.28.52.58c.353.383.685.783 1.049 1.157l1.093 1.126.546.563.564.53 1.14 1.063c.39.346.792.673 1.19 1.013.396.34.785.687 1.205.994a49.865 49.865 0 0 0 10.704 6.473c7.707 3.321 16.245 4.875 24.614 4.244 1.051-.048 2.09-.194 3.136-.312.524-.048 1.04-.152 1.557-.237a69.995 69.995 0 0 0 1.555-.264l1.541-.338.772-.166c.256-.062.507-.135.763-.203l1.558-.439c.507-.14 1.003-.318 1.504-.472a53.818 53.818 0 0 0 5.868-2.289l1.409-.695.707-.346c.23-.121.459-.253.69-.377l1.374-.76c.457-.256.893-.546 1.341-.816a53.77 53.77 0 0 0 5.136-3.611l1.205-1.01.603-.504.58-.532 1.155-1.067c.381-.36.738-.746 1.107-1.126a49.488 49.488 0 0 0 7.589-9.923c.228-.377.431-.768.609-1.171.098-.282.107-.408.05-.414-.056-.006-.177.127-.377.377-.278.37-.533.754-.764 1.154a52.829 52.829 0 0 1-8.217 10.473 51.244 51.244 0 0 1-5.07 4.354c-.87.695-1.814 1.294-2.727 1.933-.465.307-.946.588-1.408.884-.462.295-.947.588-1.443.844l-1.47.805c-.496.256-1.003.493-1.504.738l-.752.365c-.251.121-.513.223-.77.335l-1.54.659c-.521.203-1.045.391-1.57.588l-.785.282c-.262.092-.533.171-.797.256l-1.598.506-1.617.431-.808.214c-.282.065-.546.118-.817.177l-1.636.349-1.651.282-.826.135c-.281.039-.563.064-.83.098l-1.663.189c-.563.045-1.112.073-1.667.112l-.845.054c-.282.02-.564 0-.845.02l-1.67.025a52.472 52.472 0 0 1-13.167-1.807 54.03 54.03 0 0 1-12.276-5.12 53.108 53.108 0 0 1-10.642-8.02 50.703 50.703 0 0 1-4.482-4.965c-.668-.893-1.364-1.765-1.972-2.7-.307-.464-.64-.911-.927-1.39l-.867-1.447c-.302-.47-.544-.968-.815-1.454l-.394-.735a10.17 10.17 0 0 1-.377-.74c-.474-1.002-.964-1.996-1.364-3.029a49.62 49.62 0 0 1-2.115-6.259 54.11 54.11 0 0 1-1.778-13.025c0-.563-.022-1.104 0-1.652l.065-1.653c0-.28.017-.562.034-.824l.073-.822.144-1.646a54.002 54.002 0 0 1 3.158-12.8l.63-1.526.316-.763.355-.745.704-1.492c.254-.487.518-.968.778-1.455a52.172 52.172 0 0 1 7.695-10.695 50.592 50.592 0 0 1 4.829-4.52c.845-.724 1.738-1.357 2.617-2.021.445-.326.91-.62 1.363-.932.453-.312.91-.622 1.386-.895l1.408-.844c.476-.281.966-.523 1.448-.785.955-.543 1.972-.974 2.95-1.455.498-.225 1.01-.425 1.512-.64l.758-.314c.25-.107.513-.189.769-.282l1.544-.563c.518-.174 1.045-.323 1.566-.487a52.07 52.07 0 0 1 12.887-2.17 51.468 51.468 0 0 1 6.553.158c2.177.189 4.34.512 6.478.968a52.26 52.26 0 0 1 12.347 4.388c.955.526 1.94 1.002 2.865 1.585.467.281.944.562 1.408.844l1.37.906c.228.152.461.282.681.456l.662.487c.44.326.89.642 1.327.974l1.279 1.033c.211.174.431.34.636.52l.614.55a115.19 115.19 0 0 1 2.986 2.833 37.884 37.884 0 0 1 3.454 3.94c.879 1.126 2.18 3.133 2.18 3.133.316.448.592.918.873 1.385.282.467.564.928.845 1.407.513.965 1.065 1.908 1.516 2.902.983 1.942 1.065 1.083.614.208z" opacity=".6"/>
    <path fill="#FF945C" d="M117.331 81.203a53.389 53.389 0 0 1-6.62 10.715 52.696 52.696 0 0 1-9.062 8.922c-.826.672-1.71 1.266-2.578 1.886-.428.318-.887.588-1.332.878l-1.35.844a57.26 57.26 0 0 1-5.65 2.961 53.746 53.746 0 0 1-49.158-2.198 53.2 53.2 0 0 1-10.192-7.535 58.13 58.13 0 0 1-8.146-9.67 56.112 56.112 0 0 1-5.772-11.272c-.203-.49-.358-.993-.53-1.494l-.504-1.503-.428-1.526c-.141-.51-.299-1.013-.403-1.53-.228-1.031-.493-2.055-.654-3.097l-.281-1.559-.198-1.57c-.16-1.09-.214-2.19-.304-3.288-.056-.549-.048-1.1-.067-1.652-.02-.551-.037-1.1-.043-1.652.008-2.207.143-4.411.406-6.603.07-.546.13-1.094.206-1.643l.281-1.63c.164-1.092.445-2.161.682-3.236.11-.54.282-1.067.425-1.6l.454-1.59.53-1.564c.174-.52.349-1.044.563-1.55l.611-1.524c.099-.256.209-.509.327-.757l.343-.748c.234-.498.448-1.005.702-1.492l.763-1.458c.13-.242.251-.487.383-.729l.417-.709.845-1.407c.282-.465.6-.918.902-1.377.301-.458.591-.923.927-1.359.648-.884 1.279-1.781 1.985-2.62.35-.422.68-.861 1.043-1.272l1.093-1.23c.183-.203.36-.414.55-.61l.562-.59 1.15-1.176 1.203-1.125c.4-.377.797-.755 1.222-1.1A56.47 56.47 0 0 1 43.488 9.69l1.47-.763 1.504-.69c.995-.484 2.034-.844 3.057-1.272.512-.205 1.04-.363 1.56-.548l.783-.268c.26-.093.522-.177.79-.247 1.061-.282 2.112-.628 3.19-.845a49.875 49.875 0 0 1 12.798-1.28c4.268.131 8.51.724 12.65 1.767.263.056.522.127.778.203l.775.22c.516.148 1.034.28 1.546.441l1.527.51.764.253c.256.084.501.191.752.281l1.504.58.377.146.37.164.737.326c.49.223.99.425 1.474.662l1.442.723a50.624 50.624 0 0 1 10.648 7.244c.823.687 1.566 1.461 2.341 2.196.197.183.38.377.563.563l.55.585c.36.394.74.771 1.09 1.18l1.039 1.22c.172.206.349.406.518.614l.491.636.983 1.27c.312.433.614.875.924 1.311.633.864 1.18 1.784 1.76 2.685.473.802.682 2.32-1.501-1.055-.257-.434-.564-.845-.845-1.247l-.862-1.239-.933-1.168c-.307-.396-.602-.805-.938-1.182-.656-.76-1.281-1.548-1.986-2.265l-1.031-1.098c-.355-.354-.721-.698-1.081-1.044a50.558 50.558 0 0 0-9.578-7.202 56.978 56.978 0 0 0-10.935-4.892A54.705 54.705 0 0 0 72.865 4.67a51.504 51.504 0 0 0-11.955.174A50.23 50.23 0 0 0 48.7 8.084c-.991.368-1.944.83-2.91 1.26-.487.209-.95.465-1.408.701-.46.237-.944.479-1.409.727a57.84 57.84 0 0 0-5.369 3.349 58.732 58.732 0 0 0-4.972 3.895l-1.174 1.072c-.384.36-.78.707-1.141 1.092-.735.755-1.49 1.49-2.175 2.291a50.377 50.377 0 0 0-7.237 10.349 51.741 51.741 0 0 0-4.467 11.843 57.714 57.714 0 0 0-1.57 12.553A54.391 54.391 0 0 0 16.2 70.112a51.081 51.081 0 0 0 4.417 12.228 53.996 53.996 0 0 0 17.116 19.524c.434.332.904.611 1.358.915.453.304.907.594 1.38.875l1.408.831.705.416.723.38 1.448.763c.488.245.986.464 1.48.698.98.481 2 .872 3.008 1.286.501.217 1.02.386 1.535.563l1.546.54 1.575.459c.527.149 1.045.318 1.583.433 1.065.245 2.124.53 3.209.701l1.617.282 1.63.211c2.184.269 4.383.4 6.584.394l1.65-.054c.564-.022 1.102-.025 1.648-.084 1.096-.099 2.195-.169 3.285-.344.543-.078 1.09-.143 1.634-.233l1.62-.307.81-.152.803-.191 1.603-.383c.533-.138 1.057-.301 1.584-.45.526-.15 1.059-.282 1.574-.479 1.037-.357 2.082-.687 3.099-1.109a58.403 58.403 0 0 0 5.989-2.716 56.613 56.613 0 0 0 5.605-3.425c.919-.608 1.778-1.289 2.651-1.97.445-.324.845-.695 1.273-1.047a33.34 33.34 0 0 0 1.251-1.072l1.203-1.126c.2-.189.403-.372.597-.563l.563-.594 1.144-1.185 1.082-1.24a52.817 52.817 0 0 0 7.284-10.952c.972-1.886 1.611-2.384.857-.732z" opacity=".7"/>
  </g>
  <path fill="#282828" d="M43.883 49.98c4.357 0 6.536 1.662 6.536 4.983 0 1.463-.518 2.664-1.554 3.6-1.02.938-2.236 1.407-3.65 1.407-1.415 0-2.615-.23-3.601-.69v2.392c0 1.759.049 2.96.148 3.6.115.642.27 1.045.468 1.209.378.313.979.469 1.8.469l.05.296h-6.66l.05-.296c.822 0 1.422-.157 1.8-.469.411-.345.617-1.948.617-4.81v-6.116c0-1.76-.057-2.96-.173-3.601-.098-.641-.246-1.044-.444-1.209-.378-.312-.978-.468-1.8-.468l-.05-.296h6.463zm-2.27.568v8.114c.856.46 1.859.691 3.01.691 1.167 0 2.104-.362 2.811-1.085.707-.74 1.06-1.842 1.06-3.305 0-1.825-.591-3.042-1.775-3.65-.97-.51-2.138-.765-3.502-.765h-1.603zM59.98 55.21c.412 0 .773.09 1.086.27.312.182.468.428.468.74 0 .313-.098.56-.296.74a.96.96 0 0 1-.666.272c-.246 0-.559-.107-.937-.32a2.24 2.24 0 0 0-1.16-.321c-.64 0-1.166.592-1.578 1.776-.394 1.183-.591 2.556-.591 4.119 0 2.104.106 3.378.32 3.822.066.148.19.288.37.42.18.115.37.18.567.197.198.016.477.025.839.025l.05.296h-5.994l.05-.296c.525 0 .903-.025 1.134-.074.246-.066.452-.272.616-.617.165-.345.255-.773.272-1.282.032-.527.049-1.357.049-2.492v-1.43c0-2.286-.066-3.585-.197-3.897a5.745 5.745 0 0 0-.321-.74.763.763 0 0 0-.444-.37c-.362-.099-.838-.148-1.43-.148l-.05-.271a29.789 29.789 0 0 1 4.169-.296v3.626c.18-1.168.583-2.08 1.208-2.738.641-.674 1.463-1.011 2.466-1.011zM62.776 61.425c0-1.727.494-3.173 1.48-4.341.987-1.167 2.327-1.751 4.02-1.751 1.694 0 3.059.584 4.095 1.751 1.036 1.167 1.554 2.614 1.554 4.34 0 1.727-.502 3.174-1.505 4.342-.986 1.15-2.326 1.726-4.02 1.726-1.694 0-3.058-.583-4.094-1.75-1.02-1.168-1.53-2.607-1.53-4.317zm2.837 3.996c.658 1.052 1.587 1.578 2.787 1.578s2.105-.518 2.713-1.554c.625-1.036.937-2.368.937-3.995 0-1.645-.329-2.993-.986-4.045-.658-1.053-1.587-1.579-2.787-1.579-1.184 0-2.089.526-2.713 1.579-.609 1.036-.913 2.367-.913 3.995 0 1.628.32 2.968.962 4.02zM78.197 52.373a1.35 1.35 0 0 1-.42-.986c0-.379.14-.707.42-.987.28-.28.608-.42.987-.42.378 0 .707.14.986.42.28.28.42.608.42.987 0 .378-.14.707-.42.986-.28.28-.608.42-.986.42a1.35 1.35 0 0 1-.987-.42zm1.924 2.96v11.123c0 2.27-.485 4.136-1.455 5.6-.97 1.463-2.343 2.194-4.12 2.194-.476 0-.87-.098-1.183-.296-.312-.18-.469-.444-.469-.789 0-.329.115-.592.346-.79a1.08 1.08 0 0 1 .715-.27c.247 0 .6.123 1.06.37.46.263.897.394 1.308.394.805 0 1.348-.386 1.628-1.16.296-.755.444-1.997.444-3.723v-6.832c0-2.467-.124-3.955-.37-4.465-.083-.18-.23-.345-.445-.493a1.4 1.4 0 0 0-.665-.271c-.23-.033-.551-.05-.962-.05l-.05-.27c1.43-.182 2.837-.272 4.218-.272zM93.84 61.006h-8.09v.419c0 1.743.37 3.075 1.11 3.996.74.904 1.66 1.356 2.762 1.356 1.644 0 2.828-.658 3.551-1.973l.37.197c-.855 1.66-2.285 2.491-4.291 2.491-1.48 0-2.746-.534-3.799-1.603-1.052-1.069-1.578-2.507-1.578-4.316 0-1.825.46-3.322 1.381-4.489.937-1.167 2.179-1.751 3.724-1.751 1.562 0 2.763.534 3.601 1.603.839 1.052 1.258 2.409 1.258 4.07zm-4.786-5.18c-.953 0-1.71.411-2.269 1.233-.542.806-.871 1.883-.986 3.231h6.141c-.115-2.976-1.077-4.464-2.886-4.464zM101.834 67.492c-1.447 0-2.689-.534-3.724-1.603-1.036-1.069-1.554-2.516-1.554-4.34 0-1.842.468-3.339 1.406-4.49.953-1.15 2.302-1.726 4.044-1.726 1.086 0 2.031.18 2.837.543.806.345 1.208.83 1.208 1.455 0 .559-.304.838-.912.838-.313 0-.576-.123-.789-.37a3.203 3.203 0 0 1-.469-.789c-.099-.296-.304-.567-.617-.814-.312-.246-.723-.37-1.233-.37-1.184 0-2.08.493-2.688 1.48-.609.987-.913 2.343-.913 4.07 0 1.71.362 3.042 1.085 3.995.724.937 1.62 1.406 2.689 1.406 1.628 0 2.787-.658 3.477-1.973l.37.197c-.838 1.66-2.244 2.491-4.217 2.491zM111.507 55.58h3.034v.542h-3.034v9.397c0 .345.082.625.247.839a.794.794 0 0 0 .641.296c.592 0 1.291-.173 2.096-.518l.05.271c-1.151.724-2.171 1.085-3.059 1.085-.575 0-1.003-.14-1.282-.419-.28-.28-.42-.765-.42-1.455v-9.496h-1.479v-.542c.888 0 1.504-.247 1.849-.74.362-.51.634-1.258.814-2.245l.543-.05v3.035zM124.217 62.017c0 1.595.387 2.812 1.159 3.65.79.839 1.752 1.258 2.886 1.258 1.135 0 2.064-.271 2.787-.814.724-.559 1.085-1.43 1.085-2.614 0-1.07-.567-2.023-1.701-2.861a16.915 16.915 0 0 0-1.653-1.06 107.88 107.88 0 0 1-1.825-1.11 14.804 14.804 0 0 1-1.653-1.185c-1.134-.953-1.701-2.063-1.701-3.33 0-1.282.46-2.301 1.381-3.058.937-.756 2.17-1.134 3.699-1.134 1.546 0 2.977.337 4.292 1.011 0 .822-.123 2.236-.37 4.242l-.37-.098c0-1.546-.378-2.697-1.134-3.453-.757-.773-1.628-1.16-2.615-1.16-.97 0-1.751.288-2.343.864-.592.559-.888 1.225-.888 1.997 0 .773.206 1.44.617 1.998.427.543.953.995 1.578 1.357.642.361 1.332.764 2.072 1.208.74.428 1.422.855 2.047 1.283a4.987 4.987 0 0 1 1.579 1.628c.427.674.641 1.43.641 2.269 0 1.513-.543 2.655-1.628 3.428-1.069.773-2.359 1.16-3.872 1.16a9.099 9.099 0 0 1-2.59-.395c-.871-.263-1.587-.65-2.146-1.16 0-1.052.099-2.384.296-3.995l.37.074zM145.561 64.557c.263-.641.453-1.29.568-1.948.131-.658.197-1.365.197-2.121 0-.757-.016-1.39-.049-1.9a9.845 9.845 0 0 0-.173-1.356c-.082-.411-.222-.707-.419-.888-.362-.312-.962-.468-1.801-.468l-.049-.272c1.43-.18 2.836-.271 4.217-.271v6.437c0 1.825.058 3.026.173 3.601.115.56.395.839.839.839.279 0 .649-.115 1.11-.346l.123.247c-.132.099-.304.222-.518.37-.214.132-.65.313-1.307.543a5.742 5.742 0 0 1-1.899.345c-.165-.954-.247-2.055-.247-3.305-.756 2.286-2.064 3.428-3.922 3.428-2.515 0-3.773-1.315-3.773-3.946v-2.392c0-2.467-.124-3.955-.37-4.465-.082-.18-.23-.345-.444-.493a1.398 1.398 0 0 0-.666-.271 7.208 7.208 0 0 0-.962-.05l-.049-.27c1.43-.182 2.836-.272 4.217-.272v7.966c0 1.135.173 1.99.518 2.565.362.576.913.864 1.653.864.756 0 1.381-.206 1.874-.617.51-.411.896-.929 1.159-1.554zM163.57 59.748c.148-1.184.526-2.212 1.134-3.083.625-.888 1.488-1.332 2.59-1.332 1.102 0 1.957.337 2.565 1.011.608.674.913 1.653.913 2.935v3.897c0 1.71.106 2.77.32 3.182.23.394.822.592 1.776.592l.049.296h-5.82l.049-.296c.904 0 1.447-.206 1.628-.617.181-.411.271-1.537.271-3.379v-3.428c0-1.135-.164-1.99-.493-2.565-.313-.576-.822-.864-1.529-.864s-1.291.264-1.752.79c-.46.51-.805 1.159-1.035 1.948a16.466 16.466 0 0 0-.666 4.612c0 1.546.098 2.516.296 2.91.213.395.805.593 1.775.593l.05.296h-5.796l.049-.296c.904 0 1.447-.206 1.628-.617.181-.411.271-1.537.271-3.379v-3.428c0-1.135-.164-1.99-.493-2.565-.313-.576-.822-.864-1.529-.864s-1.291.264-1.751.79c-.461.51-.806 1.159-1.036 1.948a16.466 16.466 0 0 0-.666 4.612c0 1.546.098 2.516.296 2.91.213.395.805.593 1.775.593l.05.296h-6.018l.049-.296c.987 0 1.587-.198 1.801-.592.213-.411.32-1.488.32-3.231v-1.973c0-2.467-.123-3.955-.37-4.465-.082-.18-.23-.345-.444-.493a1.398 1.398 0 0 0-.666-.271c-.23-.033-.55-.05-.962-.05l-.049-.27a33.613 33.613 0 0 1 4.218-.272v4.415c.148-1.184.526-2.212 1.134-3.083.625-.888 1.488-1.332 2.59-1.332 2.318 0 3.478 1.471 3.478 4.415zM186.318 59.748c.148-1.184.527-2.212 1.135-3.083.625-.888 1.488-1.332 2.59-1.332 1.101 0 1.956.337 2.565 1.011.608.674.912 1.653.912 2.935v3.897c0 1.71.107 2.77.321 3.182.23.394.822.592 1.776.592l.049.296h-5.821l.05-.296c.904 0 1.447-.206 1.628-.617.18-.411.271-1.537.271-3.379v-3.428c0-1.135-.165-1.99-.493-2.565-.313-.576-.823-.864-1.53-.864-.707 0-1.29.264-1.751.79-.46.51-.805 1.159-1.036 1.948a16.466 16.466 0 0 0-.666 4.612c0 1.546.099 2.516.296 2.91.214.395.806.593 1.776.593l.05.296h-5.797l.05-.296c.904 0 1.447-.206 1.628-.617.18-.411.271-1.537.271-3.379v-3.428c0-1.135-.165-1.99-.493-2.565-.313-.576-.823-.864-1.53-.864-.707 0-1.29.264-1.751.79-.46.51-.805 1.159-1.036 1.948a16.466 16.466 0 0 0-.666 4.612c0 1.546.099 2.516.296 2.91.214.395.806.593 1.776.593l.05.296h-6.018l.049-.296c.986 0 1.587-.198 1.8-.592.214-.411.321-1.488.321-3.231v-1.973c0-2.467-.123-3.955-.37-4.465-.082-.18-.23-.345-.444-.493a1.398 1.398 0 0 0-.666-.271 7.208 7.208 0 0 0-.962-.05l-.049-.27c1.43-.182 2.836-.272 4.217-.272v4.415c.148-1.184.527-2.212 1.135-3.083.625-.888 1.488-1.332 2.59-1.332 2.318 0 3.477 1.471 3.477 4.415zM207.069 59.28v2.49c0 1.825.058 3.026.173 3.601.115.56.395.839.839.839.279 0 .649-.115 1.109-.346l.124.247c-.132.099-.304.222-.518.37-.214.132-.65.313-1.307.543a5.742 5.742 0 0 1-1.899.345c-.165-.69-.247-1.792-.247-3.305-.362 1.02-.839 1.85-1.431 2.491-.575.625-1.381.937-2.417.937-1.036 0-1.858-.271-2.466-.814-.592-.559-.888-1.315-.888-2.269 0-2.647 2.401-3.979 7.202-3.995v-.888c0-1.184-.173-2.089-.518-2.713-.345-.625-.987-.938-1.924-.938-.526 0-.954.132-1.282.395-.329.263-.551.55-.666.863-.28.855-.699 1.283-1.258 1.283-.543 0-.814-.304-.814-.913 0-.624.411-1.142 1.233-1.553.822-.412 1.817-.617 2.984-.617 1.168 0 2.122.337 2.861 1.011.74.658 1.11 1.636 1.11 2.935zm-7.054 5.228c0 .641.157 1.176.469 1.603.312.411.806.617 1.48.617.69 0 1.315-.33 1.874-.987a5.49 5.49 0 0 0 1.135-2.22c.214-.822.337-1.669.37-2.54-1.825.016-3.174.353-4.045 1.011-.855.658-1.283 1.497-1.283 2.516zM219.015 55.21c.411 0 .772.09 1.085.27.312.182.469.428.469.74 0 .313-.099.56-.296.74a.963.963 0 0 1-.666.272c-.247 0-.559-.107-.938-.32a2.238 2.238 0 0 0-1.159-.321c-.641 0-1.167.592-1.578 1.776-.395 1.183-.592 2.556-.592 4.119 0 2.104.107 3.378.32 3.822.066.148.189.288.37.42.181.115.37.18.568.197.197.016.476.025.838.025l.05.296h-5.994l.049-.296c.527 0 .905-.025 1.135-.074.247-.066.452-.272.617-.617.164-.345.254-.773.271-1.282.033-.527.049-1.357.049-2.492v-1.43c0-2.286-.066-3.585-.197-3.897a5.685 5.685 0 0 0-.321-.74.759.759 0 0 0-.444-.37c-.361-.099-.838-.148-1.43-.148l-.049-.271a29.78 29.78 0 0 1 4.168-.296v3.626c.181-1.168.583-2.08 1.208-2.738.642-.674 1.464-1.011 2.467-1.011z"/>
  <path fill="#282828" d="M223.457 72.425c.823 0 1.505-.32 2.048-.962.559-.625 1.126-1.644 1.701-3.058l-3.675-9.274c-.542-1.381-1.035-2.269-1.479-2.664-.428-.394-.946-.591-1.554-.591l-.05-.296h6.117l-.049.296c-.576 0-.978.09-1.209.27-.213.182-.32.461-.32.84 0 .756.386 2.104 1.159 4.044l1.899 4.785 1.924-5.92c.378-1.183.567-2.08.567-2.688 0-.888-.575-1.331-1.726-1.331l-.05-.296h4.637l-.049.296c-.674 0-1.151.221-1.431.665-.263.428-.764 1.768-1.504 4.02l-2.22 6.759c-.723 2.22-1.57 3.93-2.54 5.13-.971 1.2-1.982 1.8-3.034 1.8-.477 0-.872-.098-1.184-.296-.312-.18-.469-.444-.469-.789 0-.329.099-.592.296-.79.214-.18.436-.27.666-.27.247 0 .518.049.814.147.296.116.535.173.715.173z"/>
  <defs>
    <filter id="filter0_f" width="133.202" height="31.595" x=".837" y="106.9" color-interpolation-filters="sRGB" filterUnits="userSpaceOnUse">
      <feFlood flood-opacity="0" result="BackgroundImageFix"/>
      <feBlend in="SourceGraphic" in2="BackgroundImageFix" result="shape"/>
      <feGaussianBlur result="effect1_foregroundBlur" stdDeviation="5"/>
    </filter>
    <filter id="filter1_f" width="86.174" height="12.95" x="25.752" y="113.602" color-interpolation-filters="sRGB" filterUnits="userSpaceOnUse">
      <feFlood flood-opacity="0" result="BackgroundImageFix"/>
      <feBlend in="SourceGraphic" in2="BackgroundImageFix" result="shape"/>
      <feGaussianBlur result="effect1_foregroundBlur" stdDeviation="2"/>
    </filter>
    <linearGradient id="paint0_linear" x1="67.438" x2="67.438" y1="116.9" y2="128.495" gradientUnits="userSpaceOnUse">
      <stop stop-color="#B4B4B4"/>
      <stop offset="1" stop-color="#F2F1EE"/>
    </linearGradient>
    <clipPath id="clip0">
      <path fill="#fff" d="M0 0h107.99v114.323H0z" transform="translate(10.837 .524)"/>
    </clipPath>
  </defs>
</svg>
