<svg width="36" height="44" viewBox="0 0 36 44" fill="none" xmlns="http://www.w3.org/2000/svg">
<g opacity="0.5">
<path fill-rule="evenodd" clip-rule="evenodd" d="M4.85189 17.3301H31.5946C33.9625 17.3301 35.9124 19.2801 35.9124 21.5086V39.6157C35.9124 41.9835 33.9625 43.9335 31.5946 43.9335H4.85189C2.48405 43.9335 0.534058 41.9835 0.534058 39.6157V21.5086C0.534058 19.2801 2.48405 17.3301 4.85189 17.3301ZM18.2233 25.4086C20.3125 25.4086 21.8447 26.9407 21.8447 29.03C21.8447 30.4229 21.1482 31.6764 19.8947 32.2336V34.7407C19.8947 35.7157 19.1982 36.4121 18.2233 36.4121C17.2483 36.4121 16.5518 35.7157 16.5518 34.7407V32.2336C15.2983 31.6764 14.6018 30.4229 14.6018 29.03C14.6018 26.9407 16.134 25.4086 18.2233 25.4086Z" fill="#18A2A2"/>
<path d="M4.99118 19.8633V14.0133C4.99118 6.7705 10.9804 0.78125 18.2233 0.78125C25.4661 0.78125 31.4553 6.7705 31.4553 14.0133V19.8633H28.6696V14.0133C28.6696 8.30264 23.9339 3.56695 18.2233 3.56695C12.5126 3.56695 7.77688 8.30264 7.77688 14.0133V19.8633H4.99118Z" fill="#18A2A2"/>
</g>
</svg>
