<svg width="56" height="61" viewBox="0 0 56 61" fill="none" xmlns="http://www.w3.org/2000/svg">
<g opacity="0.5">
<circle cx="16.1661" cy="9.11246" r="8.28042" fill="#18A2A2"/>
<path fill-rule="evenodd" clip-rule="evenodd" d="M0.230804 33.1571C0.19626 33.7083 0.647239 34.1566 1.19952 34.1566L16.1686 34.1566L23.9065 34.1566C24.5276 33.1934 25.2533 32.2914 26.0762 31.4685C27.4963 30.0485 29.1517 28.9179 30.9508 28.1149C30.1553 26.1688 28.9759 24.3802 27.4605 22.8647C24.4657 19.8699 20.4039 18.1875 16.1686 18.1875C11.9334 18.1875 7.87156 19.87 4.87677 22.8647C2.11843 25.6231 0.473373 29.2866 0.230804 33.1571Z" fill="#18A2A2"/>
<circle cx="39.0551" cy="19.0734" r="8.28042" fill="#18A2A2"/>
<path d="M24.0882 44.1195C23.5359 44.1195 23.0849 43.6712 23.1195 43.12C23.362 39.2495 25.0071 35.586 27.7654 32.8276C30.7602 29.8329 34.822 28.1504 39.0573 28.1504C43.2926 28.1504 47.3544 29.8328 50.3492 32.8276C53.1075 35.586 54.7526 39.2495 54.9952 43.12C55.0297 43.6712 54.5787 44.1195 54.0264 44.1195L39.0573 44.1195L24.0882 44.1195Z" fill="#18A2A2"/>
</g>
</svg>
