<svg width="437" height="172" viewBox="0 0 437 172" fill="none" xmlns="http://www.w3.org/2000/svg">
<path d="M21.6887 14.6427C20.5154 14.6427 19.4687 14.376 18.5487 13.8427C17.6421 13.3093 16.9287 12.536 16.4087 11.5227C15.8887 10.496 15.6287 9.28266 15.6287 7.88266C15.6287 6.49599 15.8954 5.28932 16.4287 4.26266C16.9621 3.22266 17.6887 2.42932 18.6087 1.88266C19.5421 1.33599 20.5887 1.06266 21.7487 1.06266C23.2687 1.06266 24.5621 1.60932 25.6287 2.70266L24.5287 4.02266C24.1554 3.64932 23.7554 3.36266 23.3287 3.16266C22.9021 2.94932 22.3954 2.84266 21.8087 2.84266C20.9954 2.84266 20.2821 3.04266 19.6687 3.44266C19.0554 3.84266 18.5754 4.42266 18.2287 5.18266C17.8954 5.92932 17.7287 6.80932 17.7287 7.82266C17.7287 9.39599 18.0887 10.6293 18.8087 11.5227C19.5287 12.416 20.5554 12.8627 21.8887 12.8627C22.3021 12.8627 22.6954 12.8093 23.0687 12.7027C23.4421 12.5827 23.7421 12.416 23.9687 12.2027V9.12266H21.3687V7.44266H25.8087V13.1027C25.3554 13.5693 24.7687 13.9427 24.0487 14.2227C23.3287 14.5027 22.5421 14.6427 21.6887 14.6427Z" fill="#484848"/>
<path d="M32.9497 14.6427C32.1363 14.6427 31.3763 14.436 30.6697 14.0227C29.963 13.6093 29.3963 13.016 28.9697 12.2427C28.5563 11.4693 28.3497 10.5627 28.3497 9.52266C28.3497 8.46932 28.5563 7.55599 28.9697 6.78266C29.3963 6.00932 29.9563 5.41599 30.6497 5.00266C31.3563 4.58932 32.123 4.38266 32.9497 4.38266C33.7763 4.38266 34.5363 4.58932 35.2297 5.00266C35.9363 5.41599 36.4963 6.00932 36.9097 6.78266C37.3363 7.55599 37.5497 8.46932 37.5497 9.52266C37.5497 10.5627 37.3363 11.4693 36.9097 12.2427C36.4963 13.016 35.9363 13.6093 35.2297 14.0227C34.523 14.436 33.763 14.6427 32.9497 14.6427ZM32.9497 12.9827C33.723 12.9827 34.3363 12.6693 34.7897 12.0427C35.243 11.4027 35.4697 10.5627 35.4697 9.52266C35.4697 8.48266 35.2363 7.64266 34.7697 7.00266C34.3163 6.36266 33.7097 6.04266 32.9497 6.04266C32.1897 6.04266 31.5763 6.36266 31.1097 7.00266C30.6563 7.64266 30.4297 8.48266 30.4297 9.52266C30.4297 10.5627 30.6563 11.4027 31.1097 12.0427C31.563 12.6693 32.1763 12.9827 32.9497 12.9827Z" fill="#484848"/>
<path d="M44.2676 14.6427C43.4543 14.6427 42.6943 14.436 41.9876 14.0227C41.281 13.6093 40.7143 13.016 40.2876 12.2427C39.8743 11.4693 39.6676 10.5627 39.6676 9.52266C39.6676 8.46932 39.8743 7.55599 40.2876 6.78266C40.7143 6.00932 41.2743 5.41599 41.9676 5.00266C42.6743 4.58932 43.441 4.38266 44.2676 4.38266C45.0943 4.38266 45.8543 4.58932 46.5476 5.00266C47.2543 5.41599 47.8143 6.00932 48.2276 6.78266C48.6543 7.55599 48.8676 8.46932 48.8676 9.52266C48.8676 10.5627 48.6543 11.4693 48.2276 12.2427C47.8143 13.016 47.2543 13.6093 46.5476 14.0227C45.841 14.436 45.081 14.6427 44.2676 14.6427ZM44.2676 12.9827C45.041 12.9827 45.6543 12.6693 46.1076 12.0427C46.561 11.4027 46.7876 10.5627 46.7876 9.52266C46.7876 8.48266 46.5543 7.64266 46.0876 7.00266C45.6343 6.36266 45.0276 6.04266 44.2676 6.04266C43.5076 6.04266 42.8943 6.36266 42.4276 7.00266C41.9743 7.64266 41.7476 8.48266 41.7476 9.52266C41.7476 10.5627 41.9743 11.4027 42.4276 12.0427C42.881 12.6693 43.4943 12.9827 44.2676 12.9827Z" fill="#484848"/>
<path d="M55.0256 18.8027C53.8123 18.8027 52.8323 18.576 52.0856 18.1227C51.3389 17.6827 50.9656 17.0493 50.9656 16.2227C50.9656 15.8093 51.0856 15.416 51.3256 15.0427C51.5789 14.6827 51.9323 14.3627 52.3856 14.0827V14.0027C51.7989 13.6293 51.5056 13.0893 51.5056 12.3827C51.5056 12.0227 51.6056 11.6827 51.8056 11.3627C52.0189 11.0427 52.2789 10.776 52.5856 10.5627V10.4827C52.2256 10.2027 51.9189 9.83599 51.6656 9.38266C51.4256 8.92932 51.3056 8.42932 51.3056 7.88266C51.3056 7.17599 51.4723 6.55599 51.8056 6.02266C52.1523 5.48932 52.6123 5.08266 53.1856 4.80266C53.7723 4.52266 54.4056 4.38266 55.0856 4.38266C55.5923 4.38266 56.0656 4.46266 56.5056 4.62266H59.9656V6.14266H58.0856C58.2856 6.35599 58.4456 6.62266 58.5656 6.94266C58.6856 7.24932 58.7456 7.58266 58.7456 7.94266C58.7456 8.98266 58.3989 9.80266 57.7056 10.4027C57.0123 11.0027 56.1389 11.3027 55.0856 11.3027C54.6056 11.3027 54.1456 11.2027 53.7056 11.0027C53.5323 11.1627 53.3989 11.3227 53.3056 11.4827C53.2123 11.6293 53.1656 11.816 53.1656 12.0427C53.1656 12.3493 53.2923 12.5893 53.5456 12.7627C53.7989 12.9227 54.2189 13.0027 54.8056 13.0027H56.6256C57.7989 13.0027 58.6723 13.196 59.2456 13.5827C59.8323 13.9693 60.1256 14.5693 60.1256 15.3827C60.1256 16.0093 59.9123 16.5827 59.4856 17.1027C59.0723 17.6227 58.4789 18.036 57.7056 18.3427C56.9323 18.6493 56.0389 18.8027 55.0256 18.8027ZM55.0856 10.0027C55.6189 10.0027 56.0589 9.80932 56.4056 9.42266C56.7656 9.03599 56.9456 8.52266 56.9456 7.88266C56.9456 7.24266 56.7656 6.73599 56.4056 6.36266C56.0589 5.98932 55.6189 5.80266 55.0856 5.80266C54.5523 5.80266 54.1056 5.98932 53.7456 6.36266C53.3989 6.73599 53.2256 7.24266 53.2256 7.88266C53.2256 8.52266 53.3989 9.03599 53.7456 9.42266C54.1056 9.80932 54.5523 10.0027 55.0856 10.0027ZM55.3256 17.4627C55.8723 17.4627 56.3589 17.3827 56.7856 17.2227C57.2256 17.0627 57.5656 16.8427 57.8056 16.5627C58.0456 16.296 58.1656 16.0093 58.1656 15.7027C58.1656 15.3027 58.0123 15.0227 57.7056 14.8627C57.4123 14.7027 56.9589 14.6227 56.3456 14.6227H54.8456C54.3523 14.6227 53.9189 14.576 53.5456 14.4827C52.9723 14.9093 52.6856 15.3893 52.6856 15.9227C52.6856 16.4027 52.9189 16.776 53.3856 17.0427C53.8523 17.3227 54.4989 17.4627 55.3256 17.4627Z" fill="#484848"/>
<path d="M64.3395 14.6427C63.6328 14.6427 63.1195 14.4293 62.7995 14.0027C62.4795 13.576 62.3195 12.9493 62.3195 12.1227V0.222656H64.3395V12.2427C64.3395 12.496 64.3862 12.6827 64.4795 12.8027C64.5728 12.9227 64.6862 12.9827 64.8195 12.9827C64.9395 12.9827 65.0595 12.9693 65.1795 12.9427L65.4395 14.4627C65.1328 14.5827 64.7662 14.6427 64.3395 14.6427Z" fill="#484848"/>
<path d="M75.7529 9.00266C75.7529 9.37599 75.7263 9.72266 75.6729 10.0427H69.2129C69.3063 11.0293 69.6396 11.7827 70.2129 12.3027C70.7996 12.8093 71.5063 13.0627 72.3329 13.0627C73.1196 13.0627 73.8996 12.816 74.6729 12.3227L75.3729 13.6027C74.3329 14.296 73.2329 14.6427 72.0729 14.6427C71.1796 14.6427 70.3729 14.436 69.6529 14.0227C68.9329 13.6093 68.3596 13.016 67.9329 12.2427C67.5196 11.4693 67.3129 10.5627 67.3129 9.52266C67.3129 8.49599 67.5196 7.59599 67.9329 6.82266C68.3596 6.03599 68.9129 5.43599 69.5929 5.02266C70.2729 4.59599 70.9996 4.38266 71.7729 4.38266C73.0396 4.38266 74.0196 4.80266 74.7129 5.64266C75.4063 6.46932 75.7529 7.58932 75.7529 9.00266ZM73.9929 8.64266C73.9929 7.78932 73.8063 7.12932 73.4329 6.66266C73.0596 6.19599 72.5196 5.96266 71.8129 5.96266C71.1996 5.96266 70.6529 6.18932 70.1729 6.64266C69.6929 7.09599 69.3863 7.76266 69.2529 8.64266H73.9929Z" fill="#484848"/>
<path d="M83.0159 1.30266H86.4159C88.4426 1.30266 89.9959 1.85599 91.0759 2.96266C92.1692 4.06932 92.7159 5.68266 92.7159 7.80266C92.7159 9.92266 92.1759 11.556 91.0959 12.7027C90.0159 13.836 88.4892 14.4027 86.5159 14.4027H83.0159V1.30266ZM86.2759 12.7427C87.6893 12.7427 88.7626 12.3293 89.4959 11.5027C90.2426 10.6627 90.6159 9.42932 90.6159 7.80266C90.6159 6.18932 90.2492 4.98266 89.5159 4.18266C88.7826 3.36932 87.7026 2.96266 86.2759 2.96266H85.0559V12.7427H86.2759Z" fill="#484848"/>
<path d="M95.6578 4.62266H97.3178L97.4778 6.38266H97.5378C97.8844 5.75599 98.2978 5.26932 98.7778 4.92266C99.2711 4.56266 99.7844 4.38266 100.318 4.38266C100.758 4.38266 101.118 4.44932 101.398 4.58266L101.038 6.34266C100.678 6.23599 100.351 6.18266 100.058 6.18266C99.6178 6.18266 99.1844 6.35599 98.7578 6.70266C98.3311 7.03599 97.9711 7.56932 97.6778 8.30266V14.4027H95.6578V4.62266Z" fill="#484848"/>
<path d="M103.304 4.62266H105.324V14.4027H103.304V4.62266ZM104.324 2.78266C103.964 2.78266 103.664 2.66932 103.424 2.44266C103.197 2.21599 103.084 1.92266 103.084 1.56266C103.084 1.21599 103.197 0.929323 103.424 0.702656C103.664 0.47599 103.964 0.362657 104.324 0.362657C104.684 0.362657 104.977 0.47599 105.204 0.702656C105.444 0.929323 105.564 1.21599 105.564 1.56266C105.564 1.92266 105.444 2.21599 105.204 2.44266C104.977 2.66932 104.684 2.78266 104.324 2.78266Z" fill="#484848"/>
<path d="M107.502 4.62266H109.562L111.242 9.90266L112.102 12.8227H112.182L113.042 9.90266L114.722 4.62266H116.682L113.302 14.4027H110.962L107.502 4.62266Z" fill="#484848"/>
<path d="M126.532 9.00266C126.532 9.37599 126.505 9.72266 126.452 10.0427H119.992C120.085 11.0293 120.419 11.7827 120.992 12.3027C121.579 12.8093 122.285 13.0627 123.112 13.0627C123.899 13.0627 124.679 12.816 125.452 12.3227L126.152 13.6027C125.112 14.296 124.012 14.6427 122.852 14.6427C121.959 14.6427 121.152 14.436 120.432 14.0227C119.712 13.6093 119.139 13.016 118.712 12.2427C118.299 11.4693 118.092 10.5627 118.092 9.52266C118.092 8.49599 118.299 7.59599 118.712 6.82266C119.139 6.03599 119.692 5.43599 120.372 5.02266C121.052 4.59599 121.779 4.38266 122.552 4.38266C123.819 4.38266 124.799 4.80266 125.492 5.64266C126.185 6.46932 126.532 7.58932 126.532 9.00266ZM124.772 8.64266C124.772 7.78932 124.585 7.12932 124.212 6.66266C123.839 6.19599 123.299 5.96266 122.592 5.96266C121.979 5.96266 121.432 6.18932 120.952 6.64266C120.472 7.09599 120.165 7.76266 120.032 8.64266H124.772Z" fill="#484848"/>
<rect opacity="0.5" x="149.355" y="2.95605" width="237.556" height="11.5498" rx="5.77492" fill="#81D3C8"/>
<rect x="149.355" y="2.95605" width="218.551" height="11.5498" rx="5.77492" fill="#18A2A2"/>
<path d="M403.878 0.846132C404.731 0.846132 405.498 1.07947 406.178 1.54613C406.871 1.99947 407.411 2.6928 407.798 3.62613C408.198 4.54613 408.398 5.67947 408.398 7.02613C408.398 8.62613 408.171 9.9528 407.718 11.0061C407.278 12.0595 406.685 12.8328 405.938 13.3261C405.191 13.8195 404.365 14.0661 403.458 14.0661C402.165 14.0661 401.078 13.5995 400.198 12.6661L401.298 11.4261C401.551 11.7195 401.858 11.9595 402.218 12.1461C402.591 12.3195 402.971 12.4061 403.358 12.4061C404.278 12.4061 405.025 12.0128 405.598 11.2261C406.171 10.4261 406.478 9.14613 406.518 7.38613C406.145 7.86613 405.698 8.24613 405.178 8.52613C404.658 8.7928 404.151 8.92613 403.658 8.92613C402.525 8.92613 401.625 8.5928 400.958 7.92613C400.305 7.24613 399.978 6.26613 399.978 4.98613C399.978 4.1728 400.151 3.4528 400.498 2.82613C400.858 2.19947 401.331 1.7128 401.918 1.36613C402.518 1.01947 403.171 0.846132 403.878 0.846132ZM404.018 7.44613C404.431 7.44613 404.851 7.31947 405.278 7.06613C405.705 6.79947 406.098 6.39947 406.458 5.86613C406.351 4.71947 406.078 3.85947 405.638 3.28613C405.198 2.69947 404.618 2.40613 403.898 2.40613C403.311 2.40613 402.825 2.63947 402.438 3.10613C402.051 3.5728 401.858 4.19947 401.858 4.98613C401.858 5.7728 402.045 6.37947 402.418 6.80613C402.791 7.2328 403.325 7.44613 404.018 7.44613Z" fill="#484848"/>
<path d="M410.915 12.6461C412.368 11.2195 413.482 10.0861 414.255 9.24613C415.042 8.3928 415.655 7.59947 416.095 6.86613C416.548 6.11947 416.775 5.42613 416.775 4.78613C416.775 4.06613 416.582 3.49947 416.195 3.08613C415.808 2.6728 415.255 2.46613 414.535 2.46613C413.668 2.46613 412.808 2.9528 411.955 3.92613L410.815 2.80613C411.415 2.1528 412.022 1.66613 412.635 1.34613C413.262 1.0128 413.982 0.846132 414.795 0.846132C415.995 0.846132 416.948 1.19947 417.655 1.90613C418.375 2.59947 418.735 3.52613 418.735 4.68613C418.735 5.41947 418.528 6.1728 418.115 6.94613C417.715 7.71947 417.182 8.49947 416.515 9.28613C415.862 10.0595 414.975 11.0395 413.855 12.2261C414.762 12.1461 415.475 12.1061 415.995 12.1061H419.355V13.8261H410.915V12.6461Z" fill="#484848"/>
<path d="M424.752 8.56613C423.832 8.56613 423.092 8.19947 422.532 7.46613C421.972 6.7328 421.692 5.7128 421.692 4.40613C421.692 3.1128 421.972 2.10613 422.532 1.38613C423.092 0.6528 423.832 0.286133 424.752 0.286133C425.672 0.286133 426.412 0.6528 426.972 1.38613C427.532 2.10613 427.812 3.1128 427.812 4.40613C427.812 5.7128 427.532 6.7328 426.972 7.46613C426.412 8.19947 425.672 8.56613 424.752 8.56613ZM432.272 0.486133H433.552L426.372 14.0661H425.092L432.272 0.486133ZM424.752 7.36613C425.232 7.36613 425.612 7.11947 425.892 6.62613C426.186 6.11947 426.332 5.37947 426.332 4.40613C426.332 3.4328 426.186 2.70613 425.892 2.22613C425.612 1.7328 425.232 1.48613 424.752 1.48613C424.272 1.48613 423.886 1.7328 423.592 2.22613C423.312 2.70613 423.172 3.4328 423.172 4.40613C423.172 5.37947 423.312 6.11947 423.592 6.62613C423.886 7.11947 424.272 7.36613 424.752 7.36613ZM433.932 14.0661C433.012 14.0661 432.272 13.6995 431.712 12.9661C431.152 12.2328 430.872 11.2128 430.872 9.90613C430.872 8.6128 431.152 7.60613 431.712 6.88613C432.272 6.1528 433.012 5.78613 433.932 5.78613C434.852 5.78613 435.592 6.1528 436.152 6.88613C436.712 7.60613 436.992 8.6128 436.992 9.90613C436.992 11.2128 436.712 12.2328 436.152 12.9661C435.592 13.6995 434.852 14.0661 433.932 14.0661ZM433.932 12.8661C434.412 12.8661 434.792 12.6195 435.072 12.1261C435.366 11.6195 435.512 10.8795 435.512 9.90613C435.512 8.9328 435.366 8.20613 435.072 7.72613C434.792 7.2328 434.412 6.98613 433.932 6.98613C433.452 6.98613 433.066 7.2328 432.772 7.72613C432.492 8.20613 432.352 8.9328 432.352 9.90613C432.352 10.8795 432.492 11.6195 432.772 12.1261C433.066 12.6195 433.452 12.8661 433.932 12.8661Z" fill="#484848"/>
<path d="M71.8301 42.2594H73.8501V52.0394H71.8301V42.2594ZM72.8501 40.4194C72.4901 40.4194 72.1901 40.306 71.9501 40.0794C71.7234 39.8527 71.6101 39.5594 71.6101 39.1994C71.6101 38.8527 71.7234 38.566 71.9501 38.3394C72.1901 38.1127 72.4901 37.9994 72.8501 37.9994C73.2101 37.9994 73.5034 38.1127 73.7301 38.3394C73.9701 38.566 74.0901 38.8527 74.0901 39.1994C74.0901 39.5594 73.9701 39.8527 73.7301 40.0794C73.5034 40.306 73.2101 40.4194 72.8501 40.4194Z" fill="#484848"/>
<path d="M82.6078 52.2794C81.5011 52.2794 80.5078 52.0127 79.6278 51.4794C78.7478 50.946 78.0544 50.1727 77.5478 49.1594C77.0411 48.1327 76.7878 46.9194 76.7878 45.5194C76.7878 44.1327 77.0478 42.926 77.5678 41.8994C78.0878 40.8727 78.7944 40.086 79.6878 39.5394C80.5944 38.9794 81.6011 38.6994 82.7078 38.6994C83.4678 38.6994 84.1611 38.8527 84.7878 39.1594C85.4278 39.466 85.9678 39.8594 86.4078 40.3394L85.3078 41.6594C84.5478 40.8727 83.6944 40.4794 82.7478 40.4794C81.9878 40.4794 81.3144 40.686 80.7278 41.0994C80.1544 41.4994 79.7011 42.0727 79.3678 42.8194C79.0478 43.566 78.8878 44.446 78.8878 45.4594C78.8878 47.0194 79.2278 48.2527 79.9078 49.1594C80.6011 50.0527 81.5278 50.4994 82.6878 50.4994C83.7811 50.4994 84.7478 50.0327 85.5878 49.0994L86.6878 50.3794C85.6078 51.646 84.2478 52.2794 82.6078 52.2794Z" fill="#484848"/>
<path d="M91.2321 52.2794C90.5255 52.2794 90.0121 52.066 89.6921 51.6394C89.3721 51.2127 89.2121 50.586 89.2121 49.7594V37.8594H91.2321V49.8794C91.2321 50.1327 91.2788 50.3194 91.3721 50.4394C91.4655 50.5594 91.5788 50.6194 91.7121 50.6194C91.8321 50.6194 91.9521 50.606 92.0721 50.5794L92.3321 52.0994C92.0255 52.2194 91.6588 52.2794 91.2321 52.2794Z" fill="#484848"/>
<path d="M98.8056 52.2794C97.9922 52.2794 97.2322 52.0727 96.5256 51.6594C95.8189 51.246 95.2522 50.6527 94.8256 49.8794C94.4122 49.106 94.2056 48.1994 94.2056 47.1594C94.2056 46.106 94.4122 45.1927 94.8256 44.4194C95.2522 43.646 95.8122 43.0527 96.5056 42.6394C97.2122 42.226 97.9789 42.0194 98.8056 42.0194C99.6322 42.0194 100.392 42.226 101.086 42.6394C101.792 43.0527 102.352 43.646 102.766 44.4194C103.192 45.1927 103.406 46.106 103.406 47.1594C103.406 48.1994 103.192 49.106 102.766 49.8794C102.352 50.6527 101.792 51.246 101.086 51.6594C100.379 52.0727 99.6189 52.2794 98.8056 52.2794ZM98.8056 50.6194C99.5789 50.6194 100.192 50.306 100.646 49.6794C101.099 49.0394 101.326 48.1994 101.326 47.1594C101.326 46.1194 101.092 45.2794 100.626 44.6394C100.172 43.9994 99.5656 43.6794 98.8056 43.6794C98.0456 43.6794 97.4322 43.9994 96.9656 44.6394C96.5122 45.2794 96.2856 46.1194 96.2856 47.1594C96.2856 48.1994 96.5122 49.0394 96.9656 49.6794C97.4189 50.306 98.0322 50.6194 98.8056 50.6194Z" fill="#484848"/>
<path d="M109.084 52.2794C107.084 52.2794 106.084 50.9927 106.084 48.4194V42.2594H108.104V48.1594C108.104 48.9994 108.23 49.606 108.484 49.9794C108.75 50.3527 109.177 50.5394 109.764 50.5394C110.217 50.5394 110.617 50.426 110.964 50.1994C111.31 49.9727 111.697 49.5927 112.124 49.0594V42.2594H114.144V52.0394H112.484L112.324 50.5594H112.264C111.784 51.1194 111.29 51.546 110.784 51.8394C110.29 52.1327 109.724 52.2794 109.084 52.2794Z" fill="#484848"/>
<path d="M120.999 52.2794C119.773 52.2794 118.793 51.826 118.059 50.9194C117.339 50.0127 116.979 48.7594 116.979 47.1594C116.979 46.1327 117.173 45.2327 117.559 44.4594C117.946 43.6727 118.459 43.0727 119.099 42.6594C119.739 42.2327 120.426 42.0194 121.159 42.0194C121.679 42.0194 122.139 42.1127 122.539 42.2994C122.939 42.4727 123.359 42.746 123.799 43.1194L123.719 41.4994V37.8594H125.739V52.0394H124.079L123.919 50.9394H123.859C123.459 51.3394 123.013 51.666 122.519 51.9194C122.026 52.1594 121.519 52.2794 120.999 52.2794ZM121.479 50.5994C121.893 50.5994 122.279 50.506 122.639 50.3194C122.999 50.1194 123.359 49.8127 123.719 49.3994V44.5994C123.053 43.9994 122.333 43.6994 121.559 43.6994C121.093 43.6994 120.666 43.8394 120.279 44.1194C119.906 44.3994 119.606 44.7994 119.379 45.3194C119.166 45.8394 119.059 46.446 119.059 47.1394C119.059 48.246 119.266 49.0994 119.679 49.6994C120.106 50.2994 120.706 50.5994 121.479 50.5994Z" fill="#484848"/>
<rect opacity="0.5" x="149.355" y="41.2188" width="237.556" height="11.5498" rx="5.77492" fill="#81D3C8"/>
<rect x="149.355" y="41.2188" width="209.049" height="11.5498" rx="5.77492" fill="#18A2A2"/>
<path d="M404.298 52.6609C403.498 52.6609 402.772 52.5142 402.118 52.2209C401.465 51.9142 400.952 51.4942 400.578 50.9609C400.218 50.4275 400.038 49.8275 400.038 49.1609C400.038 48.4142 400.258 47.7609 400.698 47.2009C401.138 46.6409 401.698 46.1809 402.378 45.8209V45.7409C401.205 44.9142 400.618 43.9275 400.618 42.7809C400.618 42.1142 400.778 41.5342 401.098 41.0409C401.432 40.5342 401.878 40.1409 402.438 39.8609C403.012 39.5809 403.652 39.4409 404.358 39.4409C405.478 39.4409 406.372 39.7609 407.038 40.4009C407.705 41.0275 408.038 41.8475 408.038 42.8609C408.038 43.4609 407.865 44.0275 407.518 44.5609C407.185 45.0809 406.785 45.5075 406.318 45.8409V45.9209C406.998 46.3209 407.532 46.7809 407.918 47.3009C408.318 47.8075 408.518 48.4475 408.518 49.2209C408.518 49.8609 408.338 50.4475 407.978 50.9809C407.632 51.5009 407.138 51.9142 406.498 52.2209C405.858 52.5142 405.125 52.6609 404.298 52.6609ZM405.158 45.3409C405.945 44.5942 406.338 43.8075 406.338 42.9809C406.338 42.3675 406.158 41.8675 405.798 41.4809C405.438 41.0942 404.945 40.9009 404.318 40.9009C403.772 40.9009 403.318 41.0742 402.958 41.4209C402.612 41.7542 402.438 42.2075 402.438 42.7809C402.438 43.4075 402.665 43.9009 403.118 44.2609C403.585 44.6209 404.265 44.9809 405.158 45.3409ZM404.338 51.2009C405.018 51.2009 405.565 51.0142 405.978 50.6409C406.405 50.2675 406.618 49.7742 406.618 49.1609C406.618 48.6942 406.478 48.3009 406.198 47.9809C405.932 47.6609 405.592 47.4009 405.178 47.2009C404.778 46.9875 404.178 46.7209 403.378 46.4009C402.912 46.7342 402.538 47.1209 402.258 47.5609C401.978 47.9875 401.838 48.4542 401.838 48.9609C401.838 49.6142 402.072 50.1542 402.538 50.5809C403.018 50.9942 403.618 51.2009 404.338 51.2009Z" fill="#484848"/>
<path d="M415.216 52.6609C414.416 52.6609 413.689 52.5142 413.036 52.2209C412.382 51.9142 411.869 51.4942 411.496 50.9609C411.136 50.4275 410.956 49.8275 410.956 49.1609C410.956 48.4142 411.176 47.7609 411.616 47.2009C412.056 46.6409 412.616 46.1809 413.296 45.8209V45.7409C412.122 44.9142 411.536 43.9275 411.536 42.7809C411.536 42.1142 411.696 41.5342 412.016 41.0409C412.349 40.5342 412.796 40.1409 413.356 39.8609C413.929 39.5809 414.569 39.4409 415.276 39.4409C416.396 39.4409 417.289 39.7609 417.956 40.4009C418.622 41.0275 418.956 41.8475 418.956 42.8609C418.956 43.4609 418.782 44.0275 418.436 44.5609C418.102 45.0809 417.702 45.5075 417.236 45.8409V45.9209C417.916 46.3209 418.449 46.7809 418.836 47.3009C419.236 47.8075 419.436 48.4475 419.436 49.2209C419.436 49.8609 419.256 50.4475 418.896 50.9809C418.549 51.5009 418.056 51.9142 417.416 52.2209C416.776 52.5142 416.042 52.6609 415.216 52.6609ZM416.076 45.3409C416.862 44.5942 417.256 43.8075 417.256 42.9809C417.256 42.3675 417.076 41.8675 416.716 41.4809C416.356 41.0942 415.862 40.9009 415.236 40.9009C414.689 40.9009 414.236 41.0742 413.876 41.4209C413.529 41.7542 413.356 42.2075 413.356 42.7809C413.356 43.4075 413.582 43.9009 414.036 44.2609C414.502 44.6209 415.182 44.9809 416.076 45.3409ZM415.256 51.2009C415.936 51.2009 416.482 51.0142 416.896 50.6409C417.322 50.2675 417.536 49.7742 417.536 49.1609C417.536 48.6942 417.396 48.3009 417.116 47.9809C416.849 47.6609 416.509 47.4009 416.096 47.2009C415.696 46.9875 415.096 46.7209 414.296 46.4009C413.829 46.7342 413.456 47.1209 413.176 47.5609C412.896 47.9875 412.756 48.4542 412.756 48.9609C412.756 49.6142 412.989 50.1542 413.456 50.5809C413.936 50.9942 414.536 51.2009 415.256 51.2009Z" fill="#484848"/>
<path d="M424.753 47.1609C423.833 47.1609 423.093 46.7942 422.533 46.0609C421.973 45.3275 421.693 44.3075 421.693 43.0009C421.693 41.7075 421.973 40.7009 422.533 39.9809C423.093 39.2475 423.833 38.8809 424.753 38.8809C425.673 38.8809 426.413 39.2475 426.973 39.9809C427.533 40.7009 427.813 41.7075 427.813 43.0009C427.813 44.3075 427.533 45.3275 426.973 46.0609C426.413 46.7942 425.673 47.1609 424.753 47.1609ZM432.273 39.0809H433.553L426.373 52.6609H425.093L432.273 39.0809ZM424.753 45.9609C425.233 45.9609 425.613 45.7142 425.893 45.2209C426.186 44.7142 426.333 43.9742 426.333 43.0009C426.333 42.0275 426.186 41.3009 425.893 40.8209C425.613 40.3275 425.233 40.0809 424.753 40.0809C424.273 40.0809 423.886 40.3275 423.593 40.8209C423.313 41.3009 423.173 42.0275 423.173 43.0009C423.173 43.9742 423.313 44.7142 423.593 45.2209C423.886 45.7142 424.273 45.9609 424.753 45.9609ZM433.933 52.6609C433.013 52.6609 432.273 52.2942 431.713 51.5609C431.153 50.8275 430.873 49.8075 430.873 48.5009C430.873 47.2075 431.153 46.2009 431.713 45.4809C432.273 44.7475 433.013 44.3809 433.933 44.3809C434.853 44.3809 435.593 44.7475 436.153 45.4809C436.713 46.2009 436.993 47.2075 436.993 48.5009C436.993 49.8075 436.713 50.8275 436.153 51.5609C435.593 52.2942 434.853 52.6609 433.933 52.6609ZM433.933 51.4609C434.413 51.4609 434.793 51.2142 435.073 50.7209C435.366 50.2142 435.513 49.4742 435.513 48.5009C435.513 47.5275 435.366 46.8009 435.073 46.3209C434.793 45.8275 434.413 45.5809 433.933 45.5809C433.453 45.5809 433.066 45.8275 432.773 46.3209C432.493 46.8009 432.353 47.5275 432.353 48.5009C432.353 49.4742 432.493 50.2142 432.773 50.7209C433.066 51.2142 433.453 51.4609 433.933 51.4609Z" fill="#484848"/>
<path d="M53.9933 77.4491H57.3933C59.42 77.4491 60.9733 78.0025 62.0533 79.1091C63.1467 80.2158 63.6933 81.8291 63.6933 83.9491C63.6933 86.0691 63.1533 87.7025 62.0733 88.8491C60.9933 89.9825 59.4667 90.5491 57.4933 90.5491H53.9933V77.4491ZM57.2533 88.8891C58.6667 88.8891 59.74 88.4758 60.4733 87.6491C61.22 86.8091 61.5933 85.5758 61.5933 83.9491C61.5933 82.3358 61.2267 81.1291 60.4933 80.3291C59.76 79.5158 58.68 79.1091 57.2533 79.1091H56.0333V88.8891H57.2533Z" fill="#484848"/>
<path d="M66.6352 80.7691H68.2952L68.4552 82.5291H68.5152C68.8619 81.9025 69.2752 81.4158 69.7552 81.0691C70.2486 80.7091 70.7619 80.5291 71.2952 80.5291C71.7352 80.5291 72.0952 80.5958 72.3752 80.7291L72.0152 82.4891C71.6552 82.3825 71.3286 82.3291 71.0352 82.3291C70.5952 82.3291 70.1619 82.5025 69.7352 82.8491C69.3086 83.1825 68.9486 83.7158 68.6552 84.4491V90.5491H66.6352V80.7691Z" fill="#484848"/>
<path d="M78.006 90.7891C77.1927 90.7891 76.4327 90.5825 75.726 90.1691C75.0193 89.7558 74.4527 89.1625 74.026 88.3891C73.6127 87.6158 73.406 86.7091 73.406 85.6691C73.406 84.6158 73.6127 83.7025 74.026 82.9291C74.4527 82.1558 75.0127 81.5625 75.706 81.1491C76.4127 80.7358 77.1793 80.5291 78.006 80.5291C78.8327 80.5291 79.5927 80.7358 80.286 81.1491C80.9927 81.5625 81.5527 82.1558 81.966 82.9291C82.3927 83.7025 82.606 84.6158 82.606 85.6691C82.606 86.7091 82.3927 87.6158 81.966 88.3891C81.5527 89.1625 80.9927 89.7558 80.286 90.1691C79.5793 90.5825 78.8193 90.7891 78.006 90.7891ZM78.006 89.1291C78.7793 89.1291 79.3927 88.8158 79.846 88.1891C80.2993 87.5491 80.526 86.7091 80.526 85.6691C80.526 84.6291 80.2927 83.7891 79.826 83.1491C79.3727 82.5091 78.766 82.1891 78.006 82.1891C77.246 82.1891 76.6327 82.5091 76.166 83.1491C75.7127 83.7891 75.486 84.6291 75.486 85.6691C75.486 86.7091 75.7127 87.5491 76.166 88.1891C76.6193 88.8158 77.2327 89.1291 78.006 89.1291Z" fill="#484848"/>
<path d="M85.404 80.7691H87.064L87.224 81.8491H87.284C88.3373 80.9691 89.344 80.5291 90.304 80.5291C91.5306 80.5291 92.4773 80.9758 93.144 81.8691C93.824 82.7625 94.164 83.9758 94.164 85.5091C94.164 86.5891 93.9706 87.5291 93.584 88.3291C93.1973 89.1158 92.684 89.7225 92.044 90.1491C91.404 90.5758 90.7106 90.7891 89.964 90.7891C89.1106 90.7891 88.244 90.4225 87.364 89.6891L87.424 91.3491V94.5291H85.404V80.7691ZM89.564 89.1091C90.3106 89.1091 90.9173 88.7958 91.384 88.1691C91.8506 87.5291 92.084 86.6491 92.084 85.5291C92.084 83.3158 91.3106 82.2091 89.764 82.2091C89.044 82.2091 88.264 82.6091 87.424 83.4091V88.2091C88.1306 88.8091 88.844 89.1091 89.564 89.1091Z" fill="#484848"/>
<path d="M101.555 90.7891C101.102 90.7891 100.642 90.6825 100.175 90.4691C99.7087 90.2425 99.262 89.9291 98.8354 89.5291H98.7754L98.5954 90.5491H96.9954V76.3691H99.0154V80.1291L98.9554 81.8091C99.4087 81.4225 99.8887 81.1158 100.395 80.8891C100.902 80.6491 101.402 80.5291 101.895 80.5291C103.122 80.5291 104.069 80.9758 104.735 81.8691C105.415 82.7625 105.755 83.9691 105.755 85.4891C105.755 86.5691 105.562 87.5091 105.175 88.3091C104.789 89.1091 104.275 89.7225 103.635 90.1491C102.995 90.5758 102.302 90.7891 101.555 90.7891ZM101.155 89.1091C101.902 89.1091 102.509 88.7958 102.975 88.1691C103.442 87.5291 103.675 86.6491 103.675 85.5291C103.675 83.3158 102.902 82.2091 101.355 82.2091C100.622 82.2091 99.842 82.6091 99.0154 83.4091V88.2091C99.3754 88.5158 99.7354 88.7425 100.095 88.8891C100.469 89.0358 100.822 89.1091 101.155 89.1091Z" fill="#484848"/>
<path d="M112.487 90.7891C111.674 90.7891 110.914 90.5825 110.207 90.1691C109.501 89.7558 108.934 89.1625 108.507 88.3891C108.094 87.6158 107.887 86.7091 107.887 85.6691C107.887 84.6158 108.094 83.7025 108.507 82.9291C108.934 82.1558 109.494 81.5625 110.187 81.1491C110.894 80.7358 111.661 80.5291 112.487 80.5291C113.314 80.5291 114.074 80.7358 114.767 81.1491C115.474 81.5625 116.034 82.1558 116.447 82.9291C116.874 83.7025 117.087 84.6158 117.087 85.6691C117.087 86.7091 116.874 87.6158 116.447 88.3891C116.034 89.1625 115.474 89.7558 114.767 90.1691C114.061 90.5825 113.301 90.7891 112.487 90.7891ZM112.487 89.1291C113.261 89.1291 113.874 88.8158 114.327 88.1891C114.781 87.5491 115.007 86.7091 115.007 85.6691C115.007 84.6291 114.774 83.7891 114.307 83.1491C113.854 82.5091 113.247 82.1891 112.487 82.1891C111.727 82.1891 111.114 82.5091 110.647 83.1491C110.194 83.7891 109.967 84.6291 109.967 85.6691C109.967 86.7091 110.194 87.5491 110.647 88.1891C111.101 88.8158 111.714 89.1291 112.487 89.1291Z" fill="#484848"/>
<path d="M121.375 85.4491L118.455 80.7691H120.635L121.815 82.7491L122.735 84.3891H122.815L123.635 82.7491L124.675 80.7691H126.775L123.855 85.6691L126.995 90.5491H124.815L123.515 88.4691C123.115 87.7491 122.775 87.1691 122.495 86.7291H122.415L121.495 88.4691L120.335 90.5491H118.235L121.375 85.4491Z" fill="#484848"/>
<rect opacity="0.5" x="149.355" y="79.4824" width="237.556" height="11.5498" rx="5.77492" fill="#81D3C8"/>
<rect x="149.355" y="79.4824" width="154.411" height="11.5498" rx="5.77492" fill="#18A2A2"/>
<path d="M404.878 82.7C406.011 82.7 406.905 83.04 407.558 83.72C408.225 84.3867 408.558 85.36 408.558 86.64C408.558 87.4533 408.378 88.1733 408.018 88.8C407.671 89.4267 407.198 89.9133 406.598 90.26C406.011 90.6067 405.365 90.78 404.658 90.78C403.805 90.78 403.031 90.5533 402.338 90.1C401.658 89.6333 401.118 88.94 400.718 88.02C400.331 87.0867 400.138 85.9467 400.138 84.6C400.138 83 400.358 81.6733 400.798 80.62C401.251 79.5667 401.851 78.7933 402.598 78.3C403.345 77.8067 404.171 77.56 405.078 77.56C406.371 77.56 407.458 78.0267 408.338 78.96L407.238 80.2C406.998 79.9067 406.691 79.6733 406.318 79.5C405.945 79.3133 405.565 79.22 405.178 79.22C404.271 79.22 403.525 79.62 402.938 80.42C402.365 81.2067 402.058 82.48 402.018 84.24C402.391 83.7733 402.838 83.4 403.358 83.12C403.878 82.84 404.385 82.7 404.878 82.7ZM404.638 89.22C405.225 89.22 405.711 88.9867 406.098 88.52C406.485 88.0533 406.678 87.4267 406.678 86.64C406.678 85.8533 406.491 85.2467 406.118 84.82C405.745 84.3933 405.211 84.18 404.518 84.18C404.105 84.18 403.685 84.3067 403.258 84.56C402.845 84.8133 402.451 85.2133 402.078 85.76C402.185 86.9067 402.458 87.7733 402.898 88.36C403.351 88.9333 403.931 89.22 404.638 89.22Z" fill="#484848"/>
<path d="M414.895 90.78C413.135 90.78 411.715 90.18 410.635 88.98L411.615 87.68C412.055 88.12 412.529 88.4733 413.035 88.74C413.542 88.9933 414.109 89.12 414.735 89.12C415.469 89.12 416.062 88.9333 416.515 88.56C416.982 88.1733 417.215 87.66 417.215 87.02C417.215 86.2733 416.915 85.7 416.315 85.3C415.729 84.9 414.735 84.7 413.335 84.7V83.2C415.629 83.2 416.775 82.4733 416.775 81.02C416.775 80.4467 416.595 80 416.235 79.68C415.875 79.3467 415.382 79.18 414.755 79.18C413.862 79.18 412.989 79.5933 412.135 80.42L411.075 79.16C412.262 78.0933 413.515 77.56 414.835 77.56C416.035 77.56 416.995 77.8533 417.715 78.44C418.449 79.0267 418.815 79.8333 418.815 80.86C418.815 82.26 418.062 83.2533 416.555 83.84V83.92C417.355 84.12 418.002 84.5 418.495 85.06C419.002 85.6067 419.255 86.2933 419.255 87.12C419.255 87.8667 419.062 88.52 418.675 89.08C418.289 89.6267 417.762 90.0467 417.095 90.34C416.442 90.6333 415.709 90.78 414.895 90.78Z" fill="#484848"/>
<path d="M424.752 85.28C423.832 85.28 423.092 84.9133 422.532 84.18C421.972 83.4467 421.692 82.4267 421.692 81.12C421.692 79.8267 421.972 78.82 422.532 78.1C423.092 77.3667 423.832 77 424.752 77C425.672 77 426.412 77.3667 426.972 78.1C427.532 78.82 427.812 79.8267 427.812 81.12C427.812 82.4267 427.532 83.4467 426.972 84.18C426.412 84.9133 425.672 85.28 424.752 85.28ZM432.272 77.2H433.552L426.372 90.78H425.092L432.272 77.2ZM424.752 84.08C425.232 84.08 425.612 83.8333 425.892 83.34C426.186 82.8333 426.332 82.0933 426.332 81.12C426.332 80.1467 426.186 79.42 425.892 78.94C425.612 78.4467 425.232 78.2 424.752 78.2C424.272 78.2 423.886 78.4467 423.592 78.94C423.312 79.42 423.172 80.1467 423.172 81.12C423.172 82.0933 423.312 82.8333 423.592 83.34C423.886 83.8333 424.272 84.08 424.752 84.08ZM433.933 90.78C433.013 90.78 432.272 90.4133 431.712 89.68C431.152 88.9467 430.872 87.9267 430.872 86.62C430.872 85.3267 431.152 84.32 431.712 83.6C432.272 82.8667 433.013 82.5 433.933 82.5C434.853 82.5 435.592 82.8667 436.152 83.6C436.712 84.32 436.993 85.3267 436.993 86.62C436.993 87.9267 436.712 88.9467 436.152 89.68C435.592 90.4133 434.853 90.78 433.933 90.78ZM433.933 89.58C434.413 89.58 434.793 89.3333 435.073 88.84C435.366 88.3333 435.512 87.5933 435.512 86.62C435.512 85.6467 435.366 84.92 435.073 84.44C434.793 83.9467 434.413 83.7 433.933 83.7C433.453 83.7 433.066 83.9467 432.772 84.44C432.492 84.92 432.353 85.6467 432.353 86.62C432.353 87.5933 432.492 88.3333 432.772 88.84C433.066 89.3333 433.453 89.58 433.933 89.58Z" fill="#484848"/>
<path d="M48.5351 115.217H52.4951C55.8284 115.217 57.4951 116.537 57.4951 119.177C57.4951 120.551 57.0418 121.591 56.1351 122.297C55.2418 122.991 54.0551 123.337 52.5751 123.337H50.5751V128.317H48.5351V115.217ZM52.3751 121.697C53.4284 121.697 54.2084 121.491 54.7151 121.077C55.2218 120.664 55.4751 120.031 55.4751 119.177C55.4751 118.337 55.2151 117.744 54.6951 117.397C54.1884 117.037 53.3884 116.857 52.2951 116.857H50.5751V121.697H52.3751Z" fill="#484848"/>
<path d="M60.259 118.537H62.279V128.317H60.259V118.537ZM61.279 116.697C60.919 116.697 60.619 116.584 60.379 116.357C60.1523 116.131 60.039 115.837 60.039 115.477C60.039 115.131 60.1523 114.844 60.379 114.617C60.619 114.391 60.919 114.277 61.279 114.277C61.639 114.277 61.9323 114.391 62.159 114.617C62.399 114.844 62.519 115.131 62.519 115.477C62.519 115.837 62.399 116.131 62.159 116.357C61.9323 116.584 61.639 116.697 61.279 116.697Z" fill="#484848"/>
<path d="M65.7567 118.537H67.4166L67.5767 119.897H67.6367C68.1567 119.391 68.67 118.997 69.1767 118.717C69.6967 118.437 70.2633 118.297 70.8767 118.297C72.8767 118.297 73.8767 119.584 73.8767 122.157V128.317H71.8567V122.417C71.8567 121.577 71.7233 120.971 71.4566 120.597C71.2033 120.224 70.7833 120.037 70.1967 120.037C69.7567 120.037 69.3633 120.144 69.0167 120.357C68.67 120.557 68.2566 120.897 67.7766 121.377V128.317H65.7567V118.537Z" fill="#484848"/>
<path d="M80.5109 128.557C78.5375 128.557 77.5509 127.417 77.5509 125.137V120.157H76.1309V118.637L77.6509 118.537L77.8909 115.837H79.5709V118.537H82.1309V120.157H79.5709V125.137C79.5709 125.737 79.6842 126.191 79.9109 126.497C80.1375 126.791 80.5042 126.937 81.0109 126.937C81.3175 126.937 81.6709 126.857 82.0709 126.697L82.4309 128.197C81.7109 128.437 81.0709 128.557 80.5109 128.557Z" fill="#484848"/>
<path d="M92.1096 122.917C92.1096 123.291 92.083 123.637 92.0296 123.957H85.5696C85.663 124.944 85.9963 125.697 86.5696 126.217C87.1563 126.724 87.863 126.977 88.6896 126.977C89.4763 126.977 90.2563 126.731 91.0296 126.237L91.7296 127.517C90.6896 128.211 89.5896 128.557 88.4296 128.557C87.5363 128.557 86.7296 128.351 86.0096 127.937C85.2896 127.524 84.7163 126.931 84.2896 126.157C83.8763 125.384 83.6696 124.477 83.6696 123.437C83.6696 122.411 83.8763 121.511 84.2896 120.737C84.7163 119.951 85.2696 119.351 85.9496 118.937C86.6296 118.511 87.3563 118.297 88.1296 118.297C89.3963 118.297 90.3763 118.717 91.0696 119.557C91.763 120.384 92.1096 121.504 92.1096 122.917ZM90.3496 122.557C90.3496 121.704 90.163 121.044 89.7896 120.577C89.4163 120.111 88.8763 119.877 88.1696 119.877C87.5563 119.877 87.0096 120.104 86.5296 120.557C86.0496 121.011 85.743 121.677 85.6096 122.557H90.3496Z" fill="#484848"/>
<path d="M94.7887 118.537H96.4487L96.6087 120.297H96.6687C97.0154 119.671 97.4287 119.184 97.9087 118.837C98.402 118.477 98.9154 118.297 99.4487 118.297C99.8887 118.297 100.249 118.364 100.529 118.497L100.169 120.257C99.8087 120.151 99.482 120.097 99.1887 120.097C98.7487 120.097 98.3154 120.271 97.8887 120.617C97.462 120.951 97.102 121.484 96.8087 122.217V128.317H94.7887V118.537Z" fill="#484848"/>
<path d="M109.999 122.917C109.999 123.291 109.973 123.637 109.919 123.957H103.459C103.553 124.944 103.886 125.697 104.459 126.217C105.046 126.724 105.753 126.977 106.579 126.977C107.366 126.977 108.146 126.731 108.919 126.237L109.619 127.517C108.579 128.211 107.479 128.557 106.319 128.557C105.426 128.557 104.619 128.351 103.899 127.937C103.179 127.524 102.606 126.931 102.179 126.157C101.766 125.384 101.559 124.477 101.559 123.437C101.559 122.411 101.766 121.511 102.179 120.737C102.606 119.951 103.159 119.351 103.839 118.937C104.519 118.511 105.246 118.297 106.019 118.297C107.286 118.297 108.266 118.717 108.959 119.557C109.653 120.384 109.999 121.504 109.999 122.917ZM108.239 122.557C108.239 121.704 108.053 121.044 107.679 120.577C107.306 120.111 106.766 119.877 106.059 119.877C105.446 119.877 104.899 120.104 104.419 120.557C103.939 121.011 103.633 121.677 103.499 122.557H108.239Z" fill="#484848"/>
<path d="M115.339 128.557C114.685 128.557 114.032 128.431 113.379 128.177C112.725 127.924 112.152 127.597 111.659 127.197L112.619 125.897C113.085 126.257 113.539 126.537 113.979 126.737C114.419 126.924 114.892 127.017 115.399 127.017C115.959 127.017 116.385 126.897 116.679 126.657C116.972 126.404 117.119 126.084 117.119 125.697C117.119 125.297 116.939 124.984 116.579 124.757C116.219 124.517 115.679 124.264 114.959 123.997C114.092 123.677 113.405 123.311 112.899 122.897C112.392 122.471 112.139 121.891 112.139 121.157C112.139 120.317 112.452 119.631 113.079 119.097C113.705 118.564 114.552 118.297 115.619 118.297C116.765 118.297 117.819 118.677 118.779 119.437L117.839 120.697C117.465 120.417 117.105 120.204 116.759 120.057C116.412 119.911 116.045 119.837 115.659 119.837C115.139 119.837 114.739 119.951 114.459 120.177C114.192 120.404 114.059 120.697 114.059 121.057C114.059 121.324 114.152 121.551 114.339 121.737C114.525 121.911 114.739 122.051 114.979 122.157C115.232 122.264 115.625 122.417 116.159 122.617C116.745 122.831 117.232 123.051 117.619 123.277C118.019 123.491 118.352 123.784 118.619 124.157C118.899 124.531 119.039 125.004 119.039 125.577C119.039 126.137 118.892 126.644 118.599 127.097C118.319 127.537 117.899 127.891 117.339 128.157C116.779 128.424 116.112 128.557 115.339 128.557Z" fill="#484848"/>
<path d="M124.679 128.557C122.706 128.557 121.719 127.417 121.719 125.137V120.157H120.299V118.637L121.819 118.537L122.059 115.837H123.739V118.537H126.299V120.157H123.739V125.137C123.739 125.737 123.852 126.191 124.079 126.497C124.306 126.791 124.672 126.937 125.179 126.937C125.486 126.937 125.839 126.857 126.239 126.697L126.599 128.197C125.879 128.437 125.239 128.557 124.679 128.557Z" fill="#484848"/>
<rect opacity="0.5" x="149.355" y="117.745" width="237.556" height="11.5498" rx="5.77492" fill="#81D3C8"/>
<rect x="149.355" y="117.745" width="97.3978" height="11.5498" rx="5.77492" fill="#18A2A2"/>
<path d="M408.798 125.279H407.138V128.659H405.238V125.279H399.578V123.919L404.798 115.919H407.138V123.699H408.798V125.279ZM405.238 123.699V120.459C405.238 119.912 405.271 119.059 405.338 117.899H405.258C405.205 117.992 404.985 118.399 404.598 119.119C404.545 119.199 404.485 119.299 404.418 119.419C404.365 119.526 404.298 119.652 404.218 119.799L401.618 123.699H405.238Z" fill="#484848"/>
<path d="M410.915 127.479C412.369 126.052 413.482 124.919 414.255 124.079C415.042 123.226 415.655 122.432 416.095 121.699C416.549 120.952 416.775 120.259 416.775 119.619C416.775 118.899 416.582 118.332 416.195 117.919C415.809 117.506 415.255 117.299 414.535 117.299C413.669 117.299 412.809 117.786 411.955 118.759L410.815 117.639C411.415 116.986 412.022 116.499 412.635 116.179C413.262 115.846 413.982 115.679 414.795 115.679C415.995 115.679 416.949 116.032 417.655 116.739C418.375 117.432 418.735 118.359 418.735 119.519C418.735 120.252 418.529 121.006 418.115 121.779C417.715 122.552 417.182 123.332 416.515 124.119C415.862 124.892 414.975 125.872 413.855 127.059C414.762 126.979 415.475 126.939 415.995 126.939H419.355V128.659H410.915V127.479Z" fill="#484848"/>
<path d="M424.753 123.399C423.833 123.399 423.092 123.032 422.532 122.299C421.972 121.566 421.692 120.546 421.692 119.239C421.692 117.946 421.972 116.939 422.532 116.219C423.092 115.486 423.833 115.119 424.753 115.119C425.673 115.119 426.412 115.486 426.972 116.219C427.533 116.939 427.812 117.946 427.812 119.239C427.812 120.546 427.533 121.566 426.972 122.299C426.412 123.032 425.673 123.399 424.753 123.399ZM432.272 115.319H433.552L426.372 128.899H425.093L432.272 115.319ZM424.753 122.199C425.233 122.199 425.612 121.952 425.892 121.459C426.186 120.952 426.333 120.212 426.333 119.239C426.333 118.266 426.186 117.539 425.892 117.059C425.612 116.566 425.233 116.319 424.753 116.319C424.273 116.319 423.886 116.566 423.593 117.059C423.313 117.539 423.173 118.266 423.173 119.239C423.173 120.212 423.313 120.952 423.593 121.459C423.886 121.952 424.273 122.199 424.753 122.199ZM433.933 128.899C433.013 128.899 432.273 128.532 431.713 127.799C431.153 127.066 430.872 126.046 430.872 124.739C430.872 123.446 431.153 122.439 431.713 121.719C432.273 120.986 433.013 120.619 433.933 120.619C434.853 120.619 435.593 120.986 436.153 121.719C436.713 122.439 436.993 123.446 436.993 124.739C436.993 126.046 436.713 127.066 436.153 127.799C435.593 128.532 434.853 128.899 433.933 128.899ZM433.933 127.699C434.413 127.699 434.793 127.452 435.073 126.959C435.366 126.452 435.513 125.712 435.513 124.739C435.513 123.766 435.366 123.039 435.073 122.559C434.793 122.066 434.413 121.819 433.933 121.819C433.453 121.819 433.066 122.066 432.772 122.559C432.492 123.039 432.353 123.766 432.353 124.739C432.353 125.712 432.492 126.452 432.772 126.959C433.066 127.452 433.453 127.699 433.933 127.699Z" fill="#484848"/>
<path d="M6.50324 167.517C5.3299 167.517 4.28324 167.25 3.36324 166.717C2.45657 166.183 1.74324 165.41 1.22324 164.397C0.703237 163.37 0.443237 162.157 0.443237 160.757C0.443237 159.37 0.709904 158.163 1.24324 157.137C1.77657 156.097 2.50324 155.303 3.42324 154.757C4.35657 154.21 5.40324 153.937 6.56324 153.937C8.08324 153.937 9.37657 154.483 10.4432 155.577L9.34324 156.897C8.9699 156.523 8.5699 156.237 8.14324 156.037C7.71657 155.823 7.2099 155.717 6.62324 155.717C5.8099 155.717 5.09657 155.917 4.48324 156.317C3.8699 156.717 3.3899 157.297 3.04324 158.057C2.7099 158.803 2.54324 159.683 2.54324 160.697C2.54324 162.27 2.90324 163.503 3.62324 164.397C4.34324 165.29 5.3699 165.737 6.70324 165.737C7.11657 165.737 7.5099 165.683 7.88324 165.577C8.25657 165.457 8.55657 165.29 8.78324 165.077V161.997H6.18324V160.317H10.6232V165.977C10.1699 166.443 9.58324 166.817 8.86324 167.097C8.14324 167.377 7.35657 167.517 6.50324 167.517Z" fill="#484848"/>
<path d="M17.7642 167.517C16.9508 167.517 16.1908 167.31 15.4842 166.897C14.7775 166.483 14.2108 165.89 13.7842 165.117C13.3708 164.343 13.1642 163.437 13.1642 162.397C13.1642 161.343 13.3708 160.43 13.7842 159.657C14.2108 158.883 14.7708 158.29 15.4642 157.877C16.1708 157.463 16.9375 157.257 17.7642 157.257C18.5908 157.257 19.3508 157.463 20.0442 157.877C20.7508 158.29 21.3108 158.883 21.7242 159.657C22.1508 160.43 22.3642 161.343 22.3642 162.397C22.3642 163.437 22.1508 164.343 21.7242 165.117C21.3108 165.89 20.7508 166.483 20.0442 166.897C19.3375 167.31 18.5775 167.517 17.7642 167.517ZM17.7642 165.857C18.5375 165.857 19.1508 165.543 19.6042 164.917C20.0575 164.277 20.2842 163.437 20.2842 162.397C20.2842 161.357 20.0508 160.517 19.5842 159.877C19.1308 159.237 18.5242 158.917 17.7642 158.917C17.0042 158.917 16.3908 159.237 15.9242 159.877C15.4708 160.517 15.2442 161.357 15.2442 162.397C15.2442 163.437 15.4708 164.277 15.9242 164.917C16.3775 165.543 16.9908 165.857 17.7642 165.857Z" fill="#484848"/>
<path d="M29.0821 167.517C28.2688 167.517 27.5088 167.31 26.8021 166.897C26.0955 166.483 25.5288 165.89 25.1021 165.117C24.6888 164.343 24.4821 163.437 24.4821 162.397C24.4821 161.343 24.6888 160.43 25.1021 159.657C25.5288 158.883 26.0888 158.29 26.7821 157.877C27.4888 157.463 28.2555 157.257 29.0821 157.257C29.9088 157.257 30.6688 157.463 31.3621 157.877C32.0688 158.29 32.6288 158.883 33.0421 159.657C33.4688 160.43 33.6821 161.343 33.6821 162.397C33.6821 163.437 33.4688 164.343 33.0421 165.117C32.6288 165.89 32.0688 166.483 31.3621 166.897C30.6555 167.31 29.8955 167.517 29.0821 167.517ZM29.0821 165.857C29.8555 165.857 30.4688 165.543 30.9221 164.917C31.3755 164.277 31.6021 163.437 31.6021 162.397C31.6021 161.357 31.3688 160.517 30.9021 159.877C30.4488 159.237 29.8421 158.917 29.0821 158.917C28.3221 158.917 27.7088 159.237 27.2421 159.877C26.7888 160.517 26.5621 161.357 26.5621 162.397C26.5621 163.437 26.7888 164.277 27.2421 164.917C27.6955 165.543 28.3088 165.857 29.0821 165.857Z" fill="#484848"/>
<path d="M39.8401 171.677C38.6268 171.677 37.6468 171.45 36.9001 170.997C36.1534 170.557 35.7801 169.923 35.7801 169.097C35.7801 168.683 35.9001 168.29 36.1401 167.917C36.3934 167.557 36.7468 167.237 37.2001 166.957V166.877C36.6134 166.503 36.3201 165.963 36.3201 165.257C36.3201 164.897 36.4201 164.557 36.6201 164.237C36.8334 163.917 37.0934 163.65 37.4001 163.437V163.357C37.0401 163.077 36.7334 162.71 36.4801 162.257C36.2401 161.803 36.1201 161.303 36.1201 160.757C36.1201 160.05 36.2868 159.43 36.6201 158.897C36.9668 158.363 37.4268 157.957 38.0001 157.677C38.5868 157.397 39.2201 157.257 39.9001 157.257C40.4068 157.257 40.8801 157.337 41.3201 157.497H44.7801V159.017H42.9001C43.1001 159.23 43.2601 159.497 43.3801 159.817C43.5001 160.123 43.5601 160.457 43.5601 160.817C43.5601 161.857 43.2134 162.677 42.5201 163.277C41.8268 163.877 40.9534 164.177 39.9001 164.177C39.4201 164.177 38.9601 164.077 38.5201 163.877C38.3468 164.037 38.2134 164.197 38.1201 164.357C38.0268 164.503 37.9801 164.69 37.9801 164.917C37.9801 165.223 38.1068 165.463 38.3601 165.637C38.6134 165.797 39.0334 165.877 39.6201 165.877H41.4401C42.6134 165.877 43.4868 166.07 44.0601 166.457C44.6468 166.843 44.9401 167.443 44.9401 168.257C44.9401 168.883 44.7268 169.457 44.3001 169.977C43.8868 170.497 43.2934 170.91 42.5201 171.217C41.7468 171.523 40.8534 171.677 39.8401 171.677ZM39.9001 162.877C40.4334 162.877 40.8734 162.683 41.2201 162.297C41.5801 161.91 41.7601 161.397 41.7601 160.757C41.7601 160.117 41.5801 159.61 41.2201 159.237C40.8734 158.863 40.4334 158.677 39.9001 158.677C39.3668 158.677 38.9201 158.863 38.5601 159.237C38.2134 159.61 38.0401 160.117 38.0401 160.757C38.0401 161.397 38.2134 161.91 38.5601 162.297C38.9201 162.683 39.3668 162.877 39.9001 162.877ZM40.1401 170.337C40.6868 170.337 41.1734 170.257 41.6001 170.097C42.0401 169.937 42.3801 169.717 42.6201 169.437C42.8601 169.17 42.9801 168.883 42.9801 168.577C42.9801 168.177 42.8268 167.897 42.5201 167.737C42.2268 167.577 41.7734 167.497 41.1601 167.497H39.6601C39.1668 167.497 38.7334 167.45 38.3601 167.357C37.7868 167.783 37.5001 168.263 37.5001 168.797C37.5001 169.277 37.7334 169.65 38.2001 169.917C38.6668 170.197 39.3134 170.337 40.1401 170.337Z" fill="#484848"/>
<path d="M49.154 167.517C48.4474 167.517 47.934 167.303 47.614 166.877C47.294 166.45 47.134 165.823 47.134 164.997V153.097H49.154V165.117C49.154 165.37 49.2007 165.557 49.294 165.677C49.3874 165.797 49.5007 165.857 49.634 165.857C49.754 165.857 49.874 165.843 49.994 165.817L50.254 167.337C49.9474 167.457 49.5807 167.517 49.154 167.517Z" fill="#484848"/>
<path d="M60.5675 161.877C60.5675 162.25 60.5408 162.597 60.4875 162.917H54.0275C54.1208 163.903 54.4541 164.657 55.0275 165.177C55.6141 165.683 56.3208 165.937 57.1475 165.937C57.9341 165.937 58.7141 165.69 59.4875 165.197L60.1875 166.477C59.1475 167.17 58.0475 167.517 56.8875 167.517C55.9941 167.517 55.1875 167.31 54.4675 166.897C53.7475 166.483 53.1741 165.89 52.7475 165.117C52.3341 164.343 52.1275 163.437 52.1275 162.397C52.1275 161.37 52.3341 160.47 52.7475 159.697C53.1741 158.91 53.7275 158.31 54.4075 157.897C55.0875 157.47 55.8141 157.257 56.5875 157.257C57.8541 157.257 58.8341 157.677 59.5275 158.517C60.2208 159.343 60.5675 160.463 60.5675 161.877ZM58.8075 161.517C58.8075 160.663 58.6208 160.003 58.2475 159.537C57.8741 159.07 57.3341 158.837 56.6275 158.837C56.0141 158.837 55.4675 159.063 54.9875 159.517C54.5075 159.97 54.2008 160.637 54.0675 161.517H58.8075Z" fill="#484848"/>
<path d="M67.8304 154.177H71.7904C75.1238 154.177 76.7904 155.497 76.7904 158.137C76.7904 159.51 76.3371 160.55 75.4304 161.257C74.5371 161.95 73.3504 162.297 71.8704 162.297H69.8704V167.277H67.8304V154.177ZM71.6704 160.657C72.7238 160.657 73.5038 160.45 74.0104 160.037C74.5171 159.623 74.7704 158.99 74.7704 158.137C74.7704 157.297 74.5104 156.703 73.9904 156.357C73.4838 155.997 72.6838 155.817 71.5904 155.817H69.8704V160.657H71.6704Z" fill="#484848"/>
<path d="M79.5543 153.097H81.5743V156.857L81.4943 158.797C82.001 158.317 82.501 157.943 82.9943 157.677C83.501 157.397 84.061 157.257 84.6743 157.257C86.6743 157.257 87.6743 158.543 87.6743 161.117V167.277H85.6543V161.377C85.6543 160.537 85.521 159.93 85.2543 159.557C85.001 159.183 84.581 158.997 83.9943 158.997C83.5543 158.997 83.161 159.103 82.8143 159.317C82.4677 159.517 82.0543 159.857 81.5743 160.337V167.277H79.5543V153.097Z" fill="#484848"/>
<path d="M94.9095 167.517C94.0962 167.517 93.3362 167.31 92.6295 166.897C91.9228 166.483 91.3562 165.89 90.9295 165.117C90.5162 164.343 90.3095 163.437 90.3095 162.397C90.3095 161.343 90.5162 160.43 90.9295 159.657C91.3562 158.883 91.9162 158.29 92.6095 157.877C93.3162 157.463 94.0828 157.257 94.9095 157.257C95.7362 157.257 96.4962 157.463 97.1895 157.877C97.8962 158.29 98.4562 158.883 98.8695 159.657C99.2962 160.43 99.5095 161.343 99.5095 162.397C99.5095 163.437 99.2962 164.343 98.8695 165.117C98.4562 165.89 97.8962 166.483 97.1895 166.897C96.4828 167.31 95.7228 167.517 94.9095 167.517ZM94.9095 165.857C95.6828 165.857 96.2962 165.543 96.7495 164.917C97.2028 164.277 97.4295 163.437 97.4295 162.397C97.4295 161.357 97.1962 160.517 96.7295 159.877C96.2762 159.237 95.6695 158.917 94.9095 158.917C94.1495 158.917 93.5362 159.237 93.0695 159.877C92.6162 160.517 92.3895 161.357 92.3895 162.397C92.3895 163.437 92.6162 164.277 93.0695 164.917C93.5228 165.543 94.1362 165.857 94.9095 165.857Z" fill="#484848"/>
<path d="M105.197 167.517C103.223 167.517 102.237 166.377 102.237 164.097V159.117H100.817V157.597L102.337 157.497L102.577 154.797H104.257V157.497H106.817V159.117H104.257V164.097C104.257 164.697 104.37 165.15 104.597 165.457C104.823 165.75 105.19 165.897 105.697 165.897C106.003 165.897 106.357 165.817 106.757 165.657L107.117 167.157C106.397 167.397 105.757 167.517 105.197 167.517Z" fill="#484848"/>
<path d="M112.956 167.517C112.142 167.517 111.382 167.31 110.676 166.897C109.969 166.483 109.402 165.89 108.976 165.117C108.562 164.343 108.356 163.437 108.356 162.397C108.356 161.343 108.562 160.43 108.976 159.657C109.402 158.883 109.962 158.29 110.656 157.877C111.362 157.463 112.129 157.257 112.956 157.257C113.782 157.257 114.542 157.463 115.236 157.877C115.942 158.29 116.502 158.883 116.916 159.657C117.342 160.43 117.556 161.343 117.556 162.397C117.556 163.437 117.342 164.343 116.916 165.117C116.502 165.89 115.942 166.483 115.236 166.897C114.529 167.31 113.769 167.517 112.956 167.517ZM112.956 165.857C113.729 165.857 114.342 165.543 114.796 164.917C115.249 164.277 115.476 163.437 115.476 162.397C115.476 161.357 115.242 160.517 114.776 159.877C114.322 159.237 113.716 158.917 112.956 158.917C112.196 158.917 111.582 159.237 111.116 159.877C110.662 160.517 110.436 161.357 110.436 162.397C110.436 163.437 110.662 164.277 111.116 164.917C111.569 165.543 112.182 165.857 112.956 165.857Z" fill="#484848"/>
<path d="M122.955 167.517C122.302 167.517 121.648 167.39 120.995 167.137C120.342 166.883 119.768 166.557 119.275 166.157L120.235 164.857C120.702 165.217 121.155 165.497 121.595 165.697C122.035 165.883 122.508 165.977 123.015 165.977C123.575 165.977 124.002 165.857 124.295 165.617C124.588 165.363 124.735 165.043 124.735 164.657C124.735 164.257 124.555 163.943 124.195 163.717C123.835 163.477 123.295 163.223 122.575 162.957C121.708 162.637 121.022 162.27 120.515 161.857C120.008 161.43 119.755 160.85 119.755 160.117C119.755 159.277 120.068 158.59 120.695 158.057C121.322 157.523 122.168 157.257 123.235 157.257C124.382 157.257 125.435 157.637 126.395 158.397L125.455 159.657C125.082 159.377 124.722 159.163 124.375 159.017C124.028 158.87 123.662 158.797 123.275 158.797C122.755 158.797 122.355 158.91 122.075 159.137C121.808 159.363 121.675 159.657 121.675 160.017C121.675 160.283 121.768 160.51 121.955 160.697C122.142 160.87 122.355 161.01 122.595 161.117C122.848 161.223 123.242 161.377 123.775 161.577C124.362 161.79 124.848 162.01 125.235 162.237C125.635 162.45 125.968 162.743 126.235 163.117C126.515 163.49 126.655 163.963 126.655 164.537C126.655 165.097 126.508 165.603 126.215 166.057C125.935 166.497 125.515 166.85 124.955 167.117C124.395 167.383 123.728 167.517 122.955 167.517Z" fill="#484848"/>
<rect opacity="0.5" x="149.355" y="156.009" width="237.556" height="11.5498" rx="5.77492" fill="#81D3C8"/>
<rect x="149.355" y="156.009" width="97.3978" height="11.5498" rx="5.77492" fill="#18A2A2"/>
<path d="M408.798 164.397H407.138V167.777H405.238V164.397H399.578V163.037L404.798 155.037H407.138V162.817H408.798V164.397ZM405.238 162.817V159.577C405.238 159.031 405.272 158.177 405.338 157.017H405.258C405.205 157.111 404.985 157.517 404.598 158.237C404.545 158.317 404.485 158.417 404.418 158.537C404.365 158.644 404.298 158.771 404.218 158.917L401.618 162.817H405.238Z" fill="#484848"/>
<path d="M410.915 166.597C412.369 165.171 413.482 164.037 414.255 163.197C415.042 162.344 415.655 161.551 416.095 160.817C416.549 160.071 416.775 159.377 416.775 158.737C416.775 158.017 416.582 157.451 416.195 157.037C415.809 156.624 415.255 156.417 414.535 156.417C413.669 156.417 412.809 156.904 411.955 157.877L410.815 156.757C411.415 156.104 412.022 155.617 412.635 155.297C413.262 154.964 413.982 154.797 414.795 154.797C415.995 154.797 416.949 155.151 417.655 155.857C418.375 156.551 418.735 157.477 418.735 158.637C418.735 159.371 418.529 160.124 418.115 160.897C417.715 161.671 417.182 162.451 416.515 163.237C415.862 164.011 414.975 164.991 413.855 166.177C414.762 166.097 415.475 166.057 415.995 166.057H419.355V167.777H410.915V166.597Z" fill="#484848"/>
<path d="M424.753 162.517C423.833 162.517 423.093 162.151 422.533 161.417C421.973 160.684 421.693 159.664 421.693 158.357C421.693 157.064 421.973 156.057 422.533 155.337C423.093 154.604 423.833 154.237 424.753 154.237C425.673 154.237 426.413 154.604 426.973 155.337C427.533 156.057 427.813 157.064 427.813 158.357C427.813 159.664 427.533 160.684 426.973 161.417C426.413 162.151 425.673 162.517 424.753 162.517ZM432.273 154.437H433.553L426.373 168.017H425.093L432.273 154.437ZM424.753 161.317C425.233 161.317 425.613 161.071 425.893 160.577C426.186 160.071 426.333 159.331 426.333 158.357C426.333 157.384 426.186 156.657 425.893 156.177C425.613 155.684 425.233 155.437 424.753 155.437C424.273 155.437 423.886 155.684 423.593 156.177C423.313 156.657 423.173 157.384 423.173 158.357C423.173 159.331 423.313 160.071 423.593 160.577C423.886 161.071 424.273 161.317 424.753 161.317ZM433.933 168.017C433.013 168.017 432.273 167.651 431.713 166.917C431.153 166.184 430.873 165.164 430.873 163.857C430.873 162.564 431.153 161.557 431.713 160.837C432.273 160.104 433.013 159.737 433.933 159.737C434.853 159.737 435.593 160.104 436.153 160.837C436.713 161.557 436.993 162.564 436.993 163.857C436.993 165.164 436.713 166.184 436.153 166.917C435.593 167.651 434.853 168.017 433.933 168.017ZM433.933 166.817C434.413 166.817 434.793 166.571 435.073 166.077C435.366 165.571 435.513 164.831 435.513 163.857C435.513 162.884 435.366 162.157 435.073 161.677C434.793 161.184 434.413 160.937 433.933 160.937C433.453 160.937 433.066 161.184 432.773 161.677C432.493 162.157 432.353 162.884 432.353 163.857C432.353 164.831 432.493 165.571 432.773 166.077C433.066 166.571 433.453 166.817 433.933 166.817Z" fill="#484848"/>
</svg>
