<svg width="48" height="45" viewBox="0 0 48 45" fill="none" xmlns="http://www.w3.org/2000/svg">
<path opacity="0.5" d="M47.4109 14.6633C47.4109 14.2976 47.3586 13.9842 47.2542 13.6708L43.4409 2.59683L43.3887 2.49236C43.0231 1.55211 42.1351 0.873047 41.1426 0.873047H7.24157C6.19685 0.873047 5.30884 1.55211 4.99543 2.49236L4.94319 2.59683L1.12998 13.6708C1.02551 13.9842 0.973277 14.2976 0.973277 14.6633V20.6704C0.973277 21.3495 1.18222 22.0285 1.60011 22.5509L1.12998 23.8568C1.02551 24.1702 0.973277 24.4836 0.973277 24.8493V30.8564C0.973277 31.4832 1.18222 32.11 1.49563 32.6324L1.02551 33.9905C0.921041 34.3039 0.868805 34.6174 0.868805 34.983V40.9901C0.868805 42.7661 2.33141 44.2287 4.10742 44.2287H44.0678C45.8438 44.2287 47.3064 42.7661 47.3064 40.9901V34.983C47.3064 34.6174 47.2542 34.3039 47.1497 33.9905L46.7318 32.7891C47.1497 32.2667 47.4109 31.5877 47.4109 30.8564V24.8493C47.4109 24.4836 47.3586 24.1702 47.2542 23.8568L46.784 22.5509C47.1497 22.0285 47.4109 21.4017 47.4109 20.6704V14.6633ZM3.48059 15.708C3.48059 14.6111 4.3686 13.723 5.46555 13.723H42.8664C43.9633 13.723 44.8513 14.6111 44.8513 15.708V19.6257C44.8513 20.7226 43.9633 21.6106 42.8664 21.6106H5.51779C4.42084 21.6106 3.53283 20.7226 3.53283 19.6257V15.708H3.48059ZM44.9035 29.8117C44.9035 30.9086 44.0155 31.7966 42.9186 31.7966H5.51779C4.42084 31.7966 3.53283 30.9086 3.53283 29.8117V25.894C3.53283 24.8493 4.31637 24.0135 5.30884 23.909H43.1798C44.1722 24.0135 44.9558 24.8493 44.9558 25.894V29.8117H44.9035ZM44.7991 39.9454C44.7991 41.0424 43.9111 41.9304 42.8141 41.9304H5.41332C4.31636 41.9304 3.42836 41.0424 3.42836 39.9454V36.0277C3.42836 35.0352 4.10742 34.2517 5.04767 34.0428H43.232C44.12 34.2517 44.8513 35.0352 44.8513 36.0277V39.9454H44.7991Z" fill="#18A2A2"/>
<path opacity="0.5" d="M8.46024 19.6252C9.5572 19.6252 10.393 18.7372 10.393 17.6925C10.393 16.5955 9.50496 15.7598 8.46024 15.7598C7.36329 15.7598 6.52752 16.6478 6.52752 17.6925C6.47529 18.7372 7.36329 19.6252 8.46024 19.6252Z" fill="#18A2A2"/>
<path opacity="0.5" d="M8.46022 25.8418C7.36327 25.8418 6.5275 26.7298 6.5275 27.7745C6.5275 28.8715 7.4155 29.7072 8.46022 29.7072C9.55717 29.7072 10.3929 28.8192 10.3929 27.7745C10.3929 26.6776 9.50493 25.8418 8.46022 25.8418Z" fill="#18A2A2"/>
<path opacity="0.5" d="M8.46022 36.0273C7.36327 36.0273 6.5275 36.9154 6.5275 37.9601C6.5275 39.057 7.4155 39.8928 8.46022 39.8928C9.55717 39.8928 10.3929 39.0048 10.3929 37.9601C10.3929 36.8631 9.50493 36.0273 8.46022 36.0273Z" fill="#18A2A2"/>
</svg>
