<svg width="22" height="62" viewBox="0 0 22 62" fill="none" xmlns="http://www.w3.org/2000/svg">
<g clip-path="url(#clip0)">
<path d="M8.9396 0.469973C7.87099 14.9591 8.02221 29.5136 9.39171 43.9769C9.77065 48.611 10.2572 53.2452 10.8515 57.8793C10.9807 58.9487 14.727 58.9618 14.5462 57.8793C12.5091 41.8055 11.3404 25.6317 11.0453 9.42958C10.9548 4.78675 10.8644 5.12581 10.8902 0.482988C10.8902 -0.0908448 9.15919 -0.156053 9.12044 0.482988L8.9396 0.469973Z" fill="#282828"/>
<path d="M19.778 43.4548L16.7035 50.9277L15.0758 54.8401L14.3652 56.6008L14.0165 57.4876C13.4567 58.0701 13.4567 58.4353 14.0165 58.5831C14.5763 58.7309 14.5763 58.7309 14.0165 58.5831L13.2801 58.1658C12.7892 57.8876 12.3069 57.5963 11.8333 57.292C10.761 56.6138 9.70172 55.8965 8.68117 55.1401C6.51088 53.5099 4.74104 51.5015 2.68702 49.7539C1.39518 48.6845 -0.891337 50.106 0.219643 51.671C2.14052 54.1303 4.42858 56.273 7.00179 58.0223C8.36675 59.0319 9.79506 59.9511 11.2778 60.7741C12.1691 61.2697 13.3705 62.0783 14.4557 61.8957C16.8068 61.4262 17.4011 57.0051 18.0341 55.1662L21.9096 43.9765C22.3876 42.581 20.2948 42.0724 19.7522 43.3766L19.778 43.4548Z" fill="#282828"/>
</g>
<defs>
<clipPath id="clip0">
<rect width="22" height="62" fill="white"/>
</clipPath>
</defs>
</svg>
