<svg width="243" height="101" viewBox="0 0 243 101" fill="none" xmlns="http://www.w3.org/2000/svg">
<path d="M19.7657 50.6709H0.238281V46.2827H43.8568V50.6709H24.1538V100.404H19.7657V50.6709Z" fill="#062456"/>
<path d="M50.4829 100.36V51.2415C54.4469 50.905 58.7327 50.671 61.6581 50.671C65.8605 50.5773 69.9756 51.8787 73.3599 54.3717C74.8606 55.6535 76.0538 57.2563 76.8514 59.0616C77.6489 60.8669 78.0304 62.8283 77.9675 64.8009C77.9255 67.7916 77.0104 70.7049 75.3346 73.1823C73.9686 75.374 72.2079 77.2934 70.1419 78.8431C75.9928 86.5516 78.9183 90.3986 80.2933 91.9052C82.6669 94.6934 86.0376 96.4418 89.684 96.7761L89.5669 100.433C86.9511 100.551 84.3396 100.117 81.9023 99.1603C79.89 98.1801 78.0868 96.819 76.5926 95.1525C74.9104 93.3533 71.356 88.7311 65.6514 80.8324C61.702 80.8324 58.2061 80.73 54.9003 80.496V100.36H50.4829ZM63.7352 76.5758C65.7391 76.5758 67.5822 75.391 69.9079 72.5826C71.3941 70.9042 72.3151 68.8012 72.5408 66.5708C73.0381 62.1826 72.1313 59.579 69.4252 57.5019C67.0038 55.7209 64.0274 54.8601 61.0292 55.0738C59.0837 55.0738 57.4747 55.1762 54.8418 55.3663V76.254C58.3816 76.4881 60.7074 76.5612 63.7352 76.5612V76.5758Z" fill="#062456"/>
<path d="M114.214 100.433C110.99 100.476 107.79 99.8632 104.81 98.631C101.831 97.3988 99.1326 95.5732 96.8807 93.2653C92.3718 88.4985 89.8594 82.1862 89.8594 75.6248C89.8594 69.0634 92.3718 62.7511 96.8807 57.9843C99.1434 55.6921 101.839 53.8721 104.811 52.6299C107.782 51.3877 110.971 50.748 114.192 50.748C117.413 50.748 120.602 51.3877 123.573 52.6299C126.545 53.8721 129.241 55.6921 131.503 57.9843C136.008 62.7503 138.518 69.0596 138.518 75.6175C138.518 82.1754 136.008 88.4847 131.503 93.2507C129.259 95.5572 126.569 97.3833 123.597 98.6179C120.624 99.8526 117.432 100.47 114.214 100.433V100.433ZM114.214 55.1613C111.607 55.049 109.008 55.5154 106.603 56.527C104.198 57.5386 102.046 59.0704 100.303 61.0122C96.7699 65.0199 94.8202 70.1794 94.8202 75.5224C94.8202 80.8654 96.7699 86.0249 100.303 90.0326C102.109 91.8922 104.269 93.3705 106.656 94.38C109.042 95.3895 111.608 95.9097 114.199 95.9097C116.791 95.9097 119.356 95.3895 121.743 94.38C124.13 93.3705 126.29 91.8922 128.095 90.0326C131.633 86.0239 133.585 80.8615 133.585 75.5151C133.585 70.1687 131.633 65.0063 128.095 60.9976C126.363 59.0597 124.221 57.5309 121.826 56.5216C119.43 55.5123 116.84 55.0477 114.243 55.1613H114.214Z" fill="#062456"/>
<path d="M217.234 100.433V50.7002H240.637V55.0884H221.622V71.1784H239.175V75.5665H221.622V96.0447H242.1V100.433H217.234Z" fill="#062456"/>
<path d="M174.302 70.0666L152.362 42.9038L174.302 15.741L196.243 42.9038L174.302 70.0666ZM158.212 42.9038L174.302 62.8407L190.392 42.9038L174.302 22.9522L158.212 42.9038Z" fill="#062456"/>
<path d="M174.302 54.9274L152.362 27.7646L174.302 0.601807L196.243 27.7646L174.302 54.9274ZM158.212 27.7646L174.302 47.7162L190.392 27.7646L174.302 7.81304L158.212 27.7646Z" fill="#062456"/>
<path d="M174.259 100.55L133.99 50.6269H139.812L174.259 93.3239L208.735 50.6123H214.557L174.259 100.55Z" fill="#062456"/>
</svg>
