<svg width="119" height="154" viewBox="0 0 119 154" fill="none" xmlns="http://www.w3.org/2000/svg">
<path d="M1.84866 122.677C2.11532 122.677 2.33932 122.762 2.52066 122.933C2.71266 123.093 2.80866 123.311 2.80866 123.589C2.80866 123.898 2.71799 124.143 2.53666 124.325C2.36599 124.506 2.13666 124.597 1.84866 124.597C1.48599 124.597 1.20332 124.458 1.00066 124.181C0.797988 123.893 0.696655 123.487 0.696655 122.965C0.696655 121.642 1.32065 120.639 2.56866 119.957L2.98466 120.693C2.54732 120.959 2.22199 121.247 2.00866 121.557C1.80599 121.866 1.70466 122.245 1.70466 122.693C1.73666 122.682 1.78466 122.677 1.84866 122.677ZM4.95266 122.677C5.21932 122.677 5.44332 122.762 5.62466 122.933C5.81666 123.093 5.91265 123.311 5.91265 123.589C5.91265 123.898 5.82199 124.143 5.64066 124.325C5.46999 124.506 5.24066 124.597 4.95266 124.597C4.58999 124.597 4.30732 124.458 4.10466 124.181C3.90199 123.893 3.80066 123.487 3.80066 122.965C3.80066 121.642 4.42465 120.639 5.67266 119.957L6.08866 120.693C5.65132 120.959 5.32599 121.247 5.11266 121.557C4.90999 121.866 4.80866 122.245 4.80866 122.693C4.84066 122.682 4.88866 122.677 4.95266 122.677Z" fill="#282828"/>
<path d="M8.82478 120.549H10.4568V131.029H8.82478V120.549Z" fill="#282828"/>
<path d="M16.0665 123.205H17.6985L18.7385 127.461L19.0585 129.061L19.1705 129.685H19.2345C19.4372 128.735 19.6079 127.994 19.7465 127.461L20.8505 123.205H22.3545L23.4745 127.461L23.8745 129.109C23.8959 129.237 23.9385 129.429 24.0025 129.685H24.0665C24.1839 129.119 24.2585 128.746 24.2905 128.565L24.5145 127.461L25.5385 123.205H27.0585L25.0265 131.029H23.0905L22.0825 127.141C21.9652 126.671 21.8479 126.143 21.7305 125.557L21.5865 124.869H21.5225C21.3199 125.903 21.1545 126.666 21.0265 127.157L20.0505 131.029H18.1785L16.0665 123.205Z" fill="#282828"/>
<path d="M30.6999 131.221C30.0172 131.221 29.4626 131.018 29.0359 130.613C28.6092 130.197 28.3959 129.642 28.3959 128.949C28.3959 128.106 28.7692 127.461 29.5159 127.013C30.2626 126.554 31.4519 126.234 33.0839 126.053C33.0626 124.901 32.5612 124.325 31.5799 124.325C30.9186 124.325 30.1666 124.591 29.3239 125.125L28.7159 124.037C29.7826 123.354 30.8332 123.013 31.8679 123.013C32.8172 123.013 33.5266 123.301 33.9959 123.877C34.4652 124.442 34.6999 125.258 34.6999 126.325V131.029H33.3719L33.2439 130.133H33.1959C32.3319 130.858 31.4999 131.221 30.6999 131.221ZM31.1959 129.941C31.5266 129.941 31.8359 129.866 32.1239 129.717C32.4119 129.567 32.7319 129.333 33.0839 129.013V127.077C31.9532 127.215 31.1479 127.429 30.6679 127.717C30.1986 128.005 29.9639 128.378 29.9639 128.837C29.9639 129.199 30.0759 129.477 30.2999 129.669C30.5239 129.85 30.8226 129.941 31.1959 129.941Z" fill="#282828"/>
<path d="M37.3358 123.205H38.6638L38.7918 124.293H38.8398C39.2558 123.887 39.6664 123.573 40.0718 123.349C40.4878 123.125 40.9411 123.013 41.4318 123.013C43.0318 123.013 43.8318 124.042 43.8318 126.101V131.029H42.2158V126.309C42.2158 125.637 42.1091 125.151 41.8958 124.853C41.6931 124.554 41.3571 124.405 40.8878 124.405C40.5358 124.405 40.2211 124.49 39.9438 124.661C39.6664 124.821 39.3358 125.093 38.9518 125.477V131.029H37.3358V123.205Z" fill="#282828"/>
<path d="M49.1392 131.221C47.5605 131.221 46.7712 130.309 46.7712 128.485V124.501H45.6352V123.285L46.8512 123.205L47.0432 121.045H48.3872V123.205H50.4352V124.501H48.3872V128.485C48.3872 128.965 48.4778 129.327 48.6592 129.573C48.8405 129.807 49.1338 129.925 49.5392 129.925C49.7845 129.925 50.0672 129.861 50.3872 129.733L50.6752 130.933C50.0992 131.125 49.5872 131.221 49.1392 131.221Z" fill="#282828"/>
<path d="M58.5917 131.221C57.013 131.221 56.2237 130.309 56.2237 128.485V124.501H55.0877V123.285L56.3037 123.205L56.4957 121.045H57.8397V123.205H59.8877V124.501H57.8397V128.485C57.8397 128.965 57.9303 129.327 58.1117 129.573C58.293 129.807 58.5863 129.925 58.9916 129.925C59.237 129.925 59.5197 129.861 59.8397 129.733L60.1277 130.933C59.5517 131.125 59.0397 131.221 58.5917 131.221Z" fill="#282828"/>
<path d="M64.7987 131.221C64.148 131.221 63.54 131.055 62.9747 130.725C62.4093 130.394 61.956 129.919 61.6147 129.301C61.284 128.682 61.1187 127.957 61.1187 127.125C61.1187 126.282 61.284 125.551 61.6147 124.933C61.956 124.314 62.404 123.839 62.9587 123.509C63.524 123.178 64.1373 123.013 64.7987 123.013C65.46 123.013 66.068 123.178 66.6227 123.509C67.188 123.839 67.636 124.314 67.9667 124.933C68.308 125.551 68.4787 126.282 68.4787 127.125C68.4787 127.957 68.308 128.682 67.9667 129.301C67.636 129.919 67.188 130.394 66.6227 130.725C66.0573 131.055 65.4493 131.221 64.7987 131.221ZM64.7987 129.893C65.4173 129.893 65.908 129.642 66.2707 129.141C66.6333 128.629 66.8147 127.957 66.8147 127.125C66.8147 126.293 66.628 125.621 66.2547 125.109C65.892 124.597 65.4067 124.341 64.7987 124.341C64.1907 124.341 63.7 124.597 63.3267 125.109C62.964 125.621 62.7827 126.293 62.7827 127.125C62.7827 127.957 62.964 128.629 63.3267 129.141C63.6893 129.642 64.18 129.893 64.7987 129.893Z" fill="#282828"/>
<path d="M76.3681 131.221C75.8455 131.221 75.3228 131.119 74.8002 130.917C74.2775 130.714 73.8188 130.453 73.4241 130.133L74.1922 129.093C74.5655 129.381 74.9282 129.605 75.2802 129.765C75.6322 129.914 76.0108 129.989 76.4162 129.989C76.8642 129.989 77.2055 129.893 77.4402 129.701C77.6748 129.498 77.7922 129.242 77.7922 128.933C77.7922 128.613 77.6482 128.362 77.3602 128.181C77.0722 127.989 76.6401 127.786 76.0641 127.573C75.3708 127.317 74.8215 127.023 74.4162 126.693C74.0108 126.351 73.8082 125.887 73.8082 125.301C73.8082 124.629 74.0588 124.079 74.5602 123.653C75.0615 123.226 75.7388 123.013 76.5921 123.013C77.5095 123.013 78.3521 123.317 79.1201 123.925L78.3681 124.933C78.0695 124.709 77.7815 124.538 77.5042 124.421C77.2268 124.303 76.9335 124.245 76.6241 124.245C76.2081 124.245 75.8882 124.335 75.6642 124.517C75.4508 124.698 75.3441 124.933 75.3441 125.221C75.3441 125.434 75.4188 125.615 75.5681 125.765C75.7175 125.903 75.8882 126.015 76.0802 126.101C76.2828 126.186 76.5975 126.309 77.0242 126.469C77.4935 126.639 77.8828 126.815 78.1922 126.997C78.5122 127.167 78.7788 127.402 78.9922 127.701C79.2162 127.999 79.3282 128.378 79.3282 128.837C79.3282 129.285 79.2108 129.69 78.9762 130.053C78.7522 130.405 78.4162 130.687 77.9682 130.901C77.5202 131.114 76.9868 131.221 76.3681 131.221Z" fill="#282828"/>
<path d="M87.5807 126.709C87.5807 127.007 87.5593 127.285 87.5166 127.541H82.3486C82.4233 128.33 82.69 128.933 83.1487 129.349C83.618 129.754 84.1833 129.957 84.8447 129.957C85.474 129.957 86.098 129.759 86.7167 129.365L87.2767 130.389C86.4447 130.943 85.5647 131.221 84.6367 131.221C83.922 131.221 83.2767 131.055 82.7007 130.725C82.1247 130.394 81.666 129.919 81.3246 129.301C80.994 128.682 80.8287 127.957 80.8287 127.125C80.8287 126.303 80.994 125.583 81.3246 124.965C81.666 124.335 82.1086 123.855 82.6526 123.525C83.1966 123.183 83.778 123.013 84.3967 123.013C85.41 123.013 86.194 123.349 86.7487 124.021C87.3033 124.682 87.5807 125.578 87.5807 126.709ZM86.1727 126.421C86.1727 125.738 86.0233 125.21 85.7247 124.837C85.426 124.463 84.994 124.277 84.4286 124.277C83.938 124.277 83.5007 124.458 83.1167 124.821C82.7327 125.183 82.4873 125.717 82.3806 126.421H86.1727Z" fill="#282828"/>
<path d="M91.3768 131.221C90.6941 131.221 90.1395 131.018 89.7128 130.613C89.2861 130.197 89.0728 129.642 89.0728 128.949C89.0728 128.106 89.4461 127.461 90.1928 127.013C90.9394 126.554 92.1288 126.234 93.7608 126.053C93.7395 124.901 93.2381 124.325 92.2568 124.325C91.5955 124.325 90.8434 124.591 90.0008 125.125L89.3928 124.037C90.4595 123.354 91.5101 123.013 92.5448 123.013C93.4941 123.013 94.2035 123.301 94.6728 123.877C95.1421 124.442 95.3768 125.258 95.3768 126.325V131.029H94.0488L93.9208 130.133H93.8728C93.0088 130.858 92.1768 131.221 91.3768 131.221ZM91.8728 129.941C92.2035 129.941 92.5128 129.866 92.8008 129.717C93.0888 129.567 93.4088 129.333 93.7608 129.013V127.077C92.6301 127.215 91.8248 127.429 91.3448 127.717C90.8755 128.005 90.6408 128.378 90.6408 128.837C90.6408 129.199 90.7528 129.477 90.9768 129.669C91.2008 129.85 91.4995 129.941 91.8728 129.941Z" fill="#282828"/>
<path d="M98.0127 123.205H99.3407L99.4687 124.613H99.5167C99.794 124.111 100.125 123.722 100.509 123.445C100.903 123.157 101.314 123.013 101.741 123.013C102.093 123.013 102.381 123.066 102.605 123.173L102.317 124.581C102.029 124.495 101.767 124.453 101.533 124.453C101.181 124.453 100.834 124.591 100.493 124.869C100.151 125.135 99.8633 125.562 99.6287 126.149V131.029H98.0127V123.205Z" fill="#282828"/>
<path d="M107.157 131.221C106.453 131.221 105.819 131.061 105.253 130.741C104.688 130.41 104.24 129.935 103.909 129.317C103.589 128.698 103.429 127.967 103.429 127.125C103.429 126.282 103.605 125.551 103.957 124.933C104.309 124.314 104.779 123.839 105.365 123.509C105.952 123.178 106.592 123.013 107.285 123.013C108.139 123.013 108.901 123.311 109.573 123.909L108.773 124.965C108.539 124.762 108.309 124.607 108.085 124.501C107.861 124.394 107.621 124.341 107.365 124.341C106.693 124.341 106.144 124.597 105.717 125.109C105.301 125.621 105.093 126.293 105.093 127.125C105.093 127.957 105.296 128.629 105.701 129.141C106.117 129.642 106.656 129.893 107.317 129.893C107.904 129.893 108.475 129.653 109.029 129.173L109.701 130.245C109.349 130.565 108.949 130.81 108.501 130.981C108.064 131.141 107.616 131.221 107.157 131.221Z" fill="#282828"/>
<path d="M111.637 119.685H113.253V122.693L113.189 124.245C113.594 123.861 113.994 123.562 114.389 123.349C114.794 123.125 115.242 123.013 115.733 123.013C117.333 123.013 118.133 124.042 118.133 126.101V131.029H116.517V126.309C116.517 125.637 116.41 125.151 116.197 124.853C115.994 124.554 115.658 124.405 115.189 124.405C114.837 124.405 114.522 124.49 114.245 124.661C113.968 124.821 113.637 125.093 113.253 125.477V131.029H111.637V119.685Z" fill="#282828"/>
<path d="M21.78 142.789C21.0867 142.789 20.74 143.258 20.74 144.197V145.205H22.324V146.501H20.74V153.029H19.124V146.501H18.068V145.285L19.124 145.205V144.213C19.124 143.37 19.3267 142.709 19.732 142.229C20.1374 141.738 20.756 141.493 21.588 141.493C22.0574 141.493 22.516 141.583 22.964 141.765L22.644 142.981C22.356 142.853 22.068 142.789 21.78 142.789Z" fill="#282828"/>
<path d="M27.0424 153.221C26.3917 153.221 25.7837 153.055 25.2184 152.725C24.6531 152.394 24.1997 151.919 23.8584 151.301C23.5277 150.682 23.3624 149.957 23.3624 149.125C23.3624 148.282 23.5277 147.551 23.8584 146.933C24.1997 146.314 24.6477 145.839 25.2024 145.509C25.7677 145.178 26.3811 145.013 27.0424 145.013C27.7037 145.013 28.3117 145.178 28.8664 145.509C29.4317 145.839 29.8797 146.314 30.2104 146.933C30.5517 147.551 30.7224 148.282 30.7224 149.125C30.7224 149.957 30.5517 150.682 30.2104 151.301C29.8797 151.919 29.4317 152.394 28.8664 152.725C28.3011 153.055 27.6931 153.221 27.0424 153.221ZM27.0424 151.893C27.6611 151.893 28.1517 151.642 28.5144 151.141C28.8771 150.629 29.0584 149.957 29.0584 149.125C29.0584 148.293 28.8717 147.621 28.4984 147.109C28.1357 146.597 27.6504 146.341 27.0424 146.341C26.4344 146.341 25.9437 146.597 25.5704 147.109C25.2077 147.621 25.0264 148.293 25.0264 149.125C25.0264 149.957 25.2077 150.629 25.5704 151.141C25.9331 151.642 26.4237 151.893 27.0424 151.893Z" fill="#282828"/>
<path d="M32.9608 145.205H34.2888L34.4168 146.613H34.4648C34.7421 146.111 35.0728 145.722 35.4568 145.445C35.8514 145.157 36.2621 145.013 36.6888 145.013C37.0408 145.013 37.3288 145.066 37.5528 145.173L37.2648 146.581C36.9768 146.495 36.7154 146.453 36.4808 146.453C36.1288 146.453 35.7821 146.591 35.4408 146.869C35.0995 147.135 34.8114 147.562 34.5768 148.149V153.029H32.9608V145.205Z" fill="#282828"/>
<path d="M44.4568 153.221C43.7741 153.221 43.2195 153.018 42.7928 152.613C42.3661 152.197 42.1528 151.642 42.1528 150.949C42.1528 150.106 42.5261 149.461 43.2728 149.013C44.0195 148.554 45.2088 148.234 46.8408 148.053C46.8195 146.901 46.3181 146.325 45.3368 146.325C44.6755 146.325 43.9235 146.591 43.0808 147.125L42.4728 146.037C43.5395 145.354 44.5901 145.013 45.6248 145.013C46.5741 145.013 47.2835 145.301 47.7528 145.877C48.2221 146.442 48.4568 147.258 48.4568 148.325V153.029H47.1288L47.0008 152.133H46.9528C46.0888 152.858 45.2568 153.221 44.4568 153.221ZM44.9528 151.941C45.2835 151.941 45.5928 151.866 45.8808 151.717C46.1688 151.567 46.4888 151.333 46.8408 151.013V149.077C45.7101 149.215 44.9048 149.429 44.4248 149.717C43.9555 150.005 43.7208 150.378 43.7208 150.837C43.7208 151.199 43.8328 151.477 44.0568 151.669C44.2808 151.85 44.5795 151.941 44.9528 151.941Z" fill="#282828"/>
<path d="M51.0927 145.205H52.4207L52.5487 146.293H52.5967C53.0127 145.887 53.4233 145.573 53.8287 145.349C54.2447 145.125 54.698 145.013 55.1887 145.013C56.7887 145.013 57.5887 146.042 57.5887 148.101V153.029H55.9727V148.309C55.9727 147.637 55.866 147.151 55.6527 146.853C55.45 146.554 55.114 146.405 54.6447 146.405C54.2927 146.405 53.978 146.49 53.7007 146.661C53.4233 146.821 53.0927 147.093 52.7087 147.477V153.029H51.0927V145.205Z" fill="#282828"/>
<path d="M63.7952 145.205H65.4112V153.029H63.7952V145.205ZM64.6112 143.733C64.3232 143.733 64.0832 143.642 63.8912 143.461C63.7098 143.279 63.6192 143.045 63.6192 142.757C63.6192 142.479 63.7098 142.25 63.8912 142.069C64.0832 141.887 64.3232 141.797 64.6112 141.797C64.8992 141.797 65.1338 141.887 65.3152 142.069C65.5072 142.25 65.6032 142.479 65.6032 142.757C65.6032 143.045 65.5072 143.279 65.3152 143.461C65.1338 143.642 64.8992 143.733 64.6112 143.733Z" fill="#282828"/>
<path d="M70.8173 153.221C69.2386 153.221 68.4493 152.309 68.4493 150.485V146.501H67.3133V145.285L68.5293 145.205L68.7213 143.045H70.0653V145.205H72.1133V146.501H70.0653V150.485C70.0653 150.965 70.1559 151.327 70.3373 151.573C70.5186 151.807 70.812 151.925 71.2173 151.925C71.4626 151.925 71.7453 151.861 72.0653 151.733L72.3533 152.933C71.7773 153.125 71.2653 153.221 70.8173 153.221Z" fill="#282828"/>
<path d="M80.0963 148.709C80.0963 149.007 80.075 149.285 80.0323 149.541H74.8643C74.939 150.33 75.2056 150.933 75.6643 151.349C76.1336 151.754 76.699 151.957 77.3603 151.957C77.9896 151.957 78.6136 151.759 79.2323 151.365L79.7923 152.389C78.9603 152.943 78.0803 153.221 77.1523 153.221C76.4376 153.221 75.7923 153.055 75.2163 152.725C74.6403 152.394 74.1816 151.919 73.8403 151.301C73.5096 150.682 73.3443 149.957 73.3443 149.125C73.3443 148.303 73.5096 147.583 73.8403 146.965C74.1816 146.335 74.6243 145.855 75.1683 145.525C75.7123 145.183 76.2936 145.013 76.9123 145.013C77.9256 145.013 78.7096 145.349 79.2643 146.021C79.8189 146.682 80.0963 147.578 80.0963 148.709ZM78.6883 148.421C78.6883 147.738 78.5389 147.21 78.2403 146.837C77.9416 146.463 77.5096 146.277 76.9443 146.277C76.4536 146.277 76.0163 146.458 75.6323 146.821C75.2483 147.183 75.003 147.717 74.8963 148.421H78.6883Z" fill="#282828"/>
<path d="M82.2395 145.205H83.5675L83.6955 146.293H83.7435C84.1275 145.898 84.5115 145.589 84.8955 145.365C85.2902 145.13 85.7115 145.013 86.1595 145.013C87.2369 145.013 87.9569 145.493 88.3195 146.453C88.7569 145.983 89.1729 145.626 89.5675 145.381C89.9729 145.135 90.4049 145.013 90.8635 145.013C91.6635 145.013 92.2609 145.279 92.6555 145.813C93.0609 146.335 93.2635 147.098 93.2635 148.101V153.029H91.6475V148.309C91.6475 147.637 91.5409 147.151 91.3275 146.853C91.1249 146.554 90.7942 146.405 90.3355 146.405C89.8022 146.405 89.2102 146.762 88.5595 147.477V153.029H86.9435V148.309C86.9435 147.637 86.8369 147.151 86.6235 146.853C86.4209 146.554 86.0902 146.405 85.6315 146.405C85.0982 146.405 84.5062 146.762 83.8555 147.477V153.029H82.2395V145.205Z" fill="#282828"/>
<path d="M96.5816 141.861C96.9443 141.861 97.227 142.005 97.4297 142.293C97.6323 142.57 97.7337 142.97 97.7337 143.493C97.7337 144.815 97.1096 145.818 95.8616 146.501L95.4456 145.765C95.883 145.498 96.203 145.21 96.4057 144.901C96.619 144.591 96.7256 144.213 96.7256 143.765C96.6936 143.775 96.6456 143.781 96.5816 143.781C96.315 143.781 96.0856 143.701 95.8936 143.541C95.7123 143.37 95.6217 143.146 95.6217 142.869C95.6217 142.559 95.707 142.314 95.8777 142.133C96.059 141.951 96.2936 141.861 96.5816 141.861ZM99.6857 141.861C100.048 141.861 100.331 142.005 100.534 142.293C100.736 142.57 100.838 142.97 100.838 143.493C100.838 144.815 100.214 145.818 98.9657 146.501L98.5497 145.765C98.987 145.498 99.307 145.21 99.5097 144.901C99.723 144.591 99.8297 144.213 99.8297 143.765C99.7977 143.775 99.7497 143.781 99.6857 143.781C99.419 143.781 99.1897 143.701 98.9977 143.541C98.8163 143.37 98.7256 143.146 98.7256 142.869C98.7256 142.559 98.811 142.314 98.9817 142.133C99.163 141.951 99.3977 141.861 99.6857 141.861Z" fill="#282828"/>
<mask id="mask0" mask-type="alpha" maskUnits="userSpaceOnUse" x="9" y="0" width="97" height="98">
<path d="M57.3602 97.0288C84.0448 97.0288 105.677 75.3967 105.677 48.7122C105.677 22.0276 84.0448 0.395508 57.3602 0.395508C30.6757 0.395508 9.04358 22.0276 9.04358 48.7122C9.04358 75.3967 30.6757 97.0288 57.3602 97.0288Z" fill="#E9EAE6"/>
</mask>
<g mask="url(#mask0)">
<path d="M78.8656 27.5102V43.5712C78.8656 43.8023 78.8656 44.0335 78.8656 44.2697C78.8656 44.7525 78.8296 45.2302 78.7885 45.7079C78.7885 45.8722 78.7731 46.0434 78.7423 46.2215C78.6755 46.9046 78.5779 47.5723 78.4547 48.24C78.4136 48.4609 78.3725 48.6766 78.3211 48.8923C78.3157 48.9374 78.3071 48.982 78.2954 49.0259C78.2544 49.2468 78.1978 49.4625 78.1465 49.6782C78.1465 49.7963 78.0951 49.9093 78.0694 50.0275C78.0438 50.1456 78.0181 50.2278 77.9872 50.3305C77.8742 50.7619 77.751 51.1882 77.6175 51.6094C77.5558 51.8097 77.489 52.0049 77.4223 52.2052C77.4223 52.2052 77.4223 52.2463 77.4223 52.2669L77.2322 52.7805L77.1706 52.9448C77.109 53.1143 77.0422 53.2838 76.9754 53.4585C76.9087 53.6331 76.811 53.8642 76.7289 54.0645C76.6467 54.2649 76.5748 54.4241 76.4978 54.5782C76.4978 54.609 76.4721 54.6347 76.4618 54.6655C76.3745 54.8555 76.2872 55.0455 76.1998 55.2305C76.1125 55.4154 76.0149 55.6208 75.9122 55.816C75.7222 56.2012 75.5167 56.5864 75.3113 56.9614L75.0237 57.475C74.2137 58.855 73.2985 60.1703 72.286 61.4094C72.1525 61.584 72.0155 61.7552 71.8751 61.923C71.68 62.1593 71.4796 62.3904 71.2793 62.6215C71.079 62.8526 70.9198 63.0222 70.7349 63.2173C70.2212 63.7618 69.7076 64.2805 69.194 64.7582C69.0861 64.8661 68.9783 64.9585 68.8653 65.0612C68.7523 65.164 68.5057 65.3848 68.3208 65.5389C68.1359 65.693 68.0281 65.7855 67.8843 65.9087C67.5042 66.222 67.1241 66.5199 66.7389 66.8024C66.5797 66.9257 66.4153 67.0387 66.2509 67.1517C65.989 67.3417 65.7373 67.5215 65.4497 67.6961C65.3007 67.7989 65.1466 67.8913 64.9977 67.9838C64.4841 68.3176 63.9139 68.6207 63.3746 68.8877L62.9792 69.0829L62.5683 69.273C62.3936 69.3517 62.2224 69.4253 62.0546 69.4938C61.9879 69.524 61.9193 69.5498 61.8492 69.5709C61.6437 69.653 61.4331 69.7352 61.2277 69.802C61.0222 69.8688 60.7141 69.9766 60.447 70.0485C60.2672 70.0999 60.0823 70.1512 59.9026 70.1923H59.8666C59.6868 70.2334 59.5071 70.2745 59.353 70.3105L59.2091 70.3362C59.0602 70.3618 58.9112 70.3875 58.7674 70.4029C58.6236 70.4183 58.3463 70.4594 58.1357 70.4697C58.0639 70.4749 57.9918 70.4749 57.9199 70.4697C57.7504 70.4697 57.5809 70.4697 57.4063 70.4697C57.242 70.4697 57.0707 70.4697 56.8927 70.4697C56.8295 70.4749 56.7659 70.4749 56.7027 70.4697C56.5537 70.4697 56.3996 70.4697 56.2455 70.4286H56.1428L55.5521 70.3362C55.3826 70.3105 55.2131 70.2745 55.0385 70.2283C54.086 70.0068 53.1572 69.6937 52.2649 69.2935C51.4289 68.9224 50.6189 68.4952 49.8406 68.0146C49.4349 67.768 49.0291 67.501 48.6285 67.2236L48.0275 66.7921C47.3975 66.3333 46.776 65.8334 46.1631 65.2924L45.6495 64.8301L45.1359 64.3679C44.725 63.9706 44.3243 63.558 43.934 63.13C43.7799 62.9656 43.6275 62.7944 43.4768 62.6164C43.0557 62.1387 42.6447 61.6508 42.2493 61.1371C42.0952 60.9522 41.9514 60.7622 41.8127 60.5722C41.2785 59.8634 40.7649 59.1255 40.2718 58.3584L39.8969 57.7369C39.7479 57.4904 39.6041 57.2233 39.4654 56.9819C38.9302 56.0239 38.45 55.0362 38.0273 54.0234C37.9656 53.8745 37.8989 53.7256 37.8475 53.5817C37.7962 53.4379 37.6883 53.1965 37.6215 53.0065C37.5154 52.7257 37.4143 52.4466 37.3185 52.1693C37.2209 51.8919 37.1336 51.6043 37.0463 51.3166C36.959 51.029 36.8819 50.7671 36.81 50.4897C36.7381 50.2124 36.6456 49.8939 36.5789 49.5857C36.5789 49.5549 36.5789 49.5241 36.5789 49.4881C36.4796 49.067 36.3905 48.6389 36.3118 48.2041C36.2039 47.634 36.1217 47.0536 36.0601 46.468C36.0344 46.2831 36.019 46.0982 36.0036 45.9133C35.9882 45.7284 35.9676 45.5281 35.9574 45.3329C35.9317 44.9785 35.9163 44.619 35.906 44.2594C35.906 44.0283 35.906 43.7972 35.906 43.5609V27.5102C35.906 21.8115 38.1684 16.3459 42.1961 12.3144C46.2237 8.28291 51.6871 6.0153 57.3858 6.00985V6.00985C58.9869 6.00538 60.5837 6.17763 62.1471 6.52347C66.8991 7.61036 71.1411 10.2787 74.1785 14.0915C77.2158 17.9042 78.8684 22.6355 78.8656 27.5102V27.5102Z" fill="#ECC19C"/>
<path d="M85.3733 103.5H29.3523C29.3446 100.424 29.8461 97.368 30.8366 94.4556C31.0113 93.9419 31.2013 93.4283 31.4068 92.9147C31.6122 92.4011 31.8279 91.9234 32.0591 91.4354C32.9791 89.5022 34.1201 87.6821 35.4593 86.0116C35.7983 85.5955 36.1424 85.1897 36.4865 84.7994C36.6611 84.5991 36.846 84.4039 37.031 84.2087L37.5908 83.6386C38.5355 82.6976 39.5465 81.8256 40.616 81.0294C41.1297 80.6339 41.6895 80.2641 42.2494 79.9046C42.8092 79.545 43.3793 79.2112 43.9597 78.8773C44.1857 78.7541 44.4066 78.6256 44.6326 78.487C45.0692 78.225 45.5057 77.9374 45.9166 77.6292C46.1272 77.4803 46.3275 77.3262 46.5279 77.1669C47.0055 76.7869 47.4626 76.3811 47.8992 75.9548L48.3255 75.5233C48.6234 75.2152 48.9008 74.8967 49.1679 74.568C49.3014 74.4088 49.4298 74.2444 49.5531 74.0801C49.6764 73.9157 49.7996 73.7462 49.9229 73.5664C52.0666 70.5709 53.2147 66.9775 53.205 63.2939H57.2883H61.4846C61.4811 65.9491 62.0758 68.5709 63.2247 70.9646C64.3735 73.3584 66.047 75.4625 68.1206 77.1207C68.3158 77.28 68.511 77.434 68.7062 77.5727C68.9013 77.7114 69.0914 77.8501 69.2917 77.9836L69.415 78.0658C69.605 78.1942 69.795 78.3175 69.9954 78.4356C70.1957 78.5537 70.432 78.6976 70.658 78.8208C70.6933 78.8294 70.7265 78.8451 70.7555 78.867C71.2178 79.1239 71.6801 79.3807 72.1269 79.6734C72.3426 79.807 72.5584 79.9405 72.7689 80.0946C73.2072 80.3788 73.6353 80.6801 74.053 80.9986C75.1197 81.7964 76.1289 82.6683 77.0731 83.6078C79.7081 86.2064 81.7992 89.3038 83.2242 92.7192C84.6493 96.1346 85.3799 99.7997 85.3733 103.5V103.5Z" fill="#ECC19C"/>
<path d="M85.3732 103.526H29.3522C29.3417 100.442 29.8433 97.3764 30.8366 94.4559C31.0112 93.9422 31.2013 93.4286 31.4067 92.915C31.607 92.4014 31.8279 91.9237 32.059 91.4358C32.979 89.5025 34.12 87.6824 35.4592 86.0119C35.7982 85.5958 36.1423 85.1901 36.4865 84.7997C36.6611 84.5994 36.846 84.4042 37.0309 84.2091L37.5908 83.6389C38.5354 82.6979 39.5464 81.8259 40.616 81.0297C41.1296 80.6342 41.6895 80.2644 42.2493 79.9049C42.8092 79.5453 43.3793 79.2063 43.9597 78.8776L44.6325 78.4924C45.2914 78.0939 45.9213 77.6493 46.5176 77.1621C47.9207 78.6018 49.598 79.7458 51.4506 80.5265C53.3031 81.3072 55.2933 81.7089 57.3037 81.7077H57.3447C59.3544 81.7075 61.3438 81.3058 63.1961 80.5261C65.0483 79.7464 66.7261 78.6044 68.1309 77.1673C68.5044 77.478 68.8935 77.7694 69.2968 78.0404L69.4201 78.1226C69.6101 78.251 69.8053 78.3691 70.0005 78.4924C70.1956 78.6157 70.437 78.7492 70.663 78.8725C70.6971 78.8844 70.7298 78.8999 70.7606 78.9187C71.2229 79.1755 71.6852 79.4323 72.132 79.7302C72.3477 79.8638 72.5635 79.9973 72.774 80.1514C73.2106 80.4339 73.6421 80.7369 74.0581 81.0554C77.5633 83.6616 80.4115 87.0502 82.3759 90.9514C84.3403 94.8526 85.3667 99.1586 85.3732 103.526Z" fill="#C7D4E2"/>
<path d="M74.2841 14.2484C73.2338 16.6101 71.8782 18.8238 70.2521 20.833L69.9594 21.1823C66.6151 25.2109 62.2623 28.2806 57.3448 30.0783C56.0308 30.5628 54.6833 30.9508 53.3128 31.2391C52.3883 31.4343 51.4484 31.5866 50.493 31.6962C49.3793 31.8194 48.2596 31.8811 47.1391 31.8811C45.8613 31.882 44.5848 31.7996 43.3177 31.6346C42.1055 31.4841 40.9044 31.2542 39.7223 30.9463C39.0495 30.7768 38.3972 30.5816 37.7449 30.3659C37.0926 30.1502 36.4813 29.9242 35.865 29.6674V27.5102C35.865 21.8115 38.1274 16.3459 42.155 12.3144C46.1827 8.28291 51.6461 6.0153 57.3448 6.00985C58.9459 6.00538 60.5427 6.17763 62.1061 6.52347C66.9211 7.62408 71.2126 10.3437 74.2636 14.2278L74.2841 14.2484Z" fill="#D8D06A"/>
<path d="M78.8656 27.51V31.7423C75.1944 28.9011 72.1647 25.3165 69.9748 21.2233C69.9748 21.2233 69.9748 21.2233 69.9748 21.2233C67.7721 17.1074 66.4744 12.5684 66.1688 7.91016C69.9474 9.60812 73.1555 12.3608 75.4078 15.8376C77.6601 19.3144 78.8607 23.3675 78.8656 27.51V27.51Z" fill="#D8D06A"/>
<path d="M38.3817 29.1642C38.1558 29.5597 37.9503 29.9654 37.7449 30.3866C37.6678 30.551 37.5856 30.7256 37.5086 30.9002C36.5417 32.9848 35.9855 35.2361 35.8701 37.5311C35.8701 37.5876 35.8701 37.6544 35.8701 37.7109V29.421C35.8701 29.1231 35.8701 28.8355 35.8701 28.5479C36.7073 28.7687 37.5445 28.9793 38.3817 29.1642Z" fill="#D8D06A"/>
<path d="M76.354 29.1629C76.6725 29.7228 76.9601 30.2981 77.2323 30.8887C78.229 33.0284 78.7879 35.3457 78.8759 37.7045V29.4198C78.8759 29.127 78.8759 28.8394 78.8759 28.5518C78.0336 28.7675 77.2015 28.978 76.354 29.1629Z" fill="#D8D06A"/>
<path d="M57.3601 55.4146C60.2677 55.4146 62.6248 54.6856 62.6248 53.7864C62.6248 52.8872 60.2677 52.1582 57.3601 52.1582C54.4525 52.1582 52.0955 52.8872 52.0955 53.7864C52.0955 54.6856 54.4525 55.4146 57.3601 55.4146Z" fill="#ECC19C"/>
<path d="M41.9822 80.0947V109.145H39.7377V81.7332C40.0407 81.4918 40.3386 81.2504 40.6468 81.0244C41.109 80.6957 41.5302 80.4132 41.9822 80.0947Z" fill="#435363"/>
<path d="M72.7432 80.0996V103.5V109.145H74.9877V103.5V81.7381L72.7432 80.0996Z" fill="#435363"/>
<path d="M51.2173 78.3174L57.3602 85.6828L63.5032 78.3174H51.2173Z" fill="#141720"/>
<path d="M57.3602 116.187H53.7289L56.3535 82.3906C56.4614 82.8221 58.259 82.8221 58.372 82.3906L60.9966 116.187H57.3602Z" fill="#141720"/>
<path d="M57.3602 78.2815V78.3072L54.7921 82.5908L52.4089 86.5765L45.9629 77.6138C46.1683 77.4648 46.3738 77.3056 46.569 77.1413C47.8665 76.1094 49.0113 74.8989 49.9692 73.5459L57.3345 78.2353L57.3602 78.2815Z" fill="#E7ECF2"/>
<path d="M68.7678 77.6292L62.3167 86.5765L59.9335 82.5857L57.3654 78.3021V78.2661L64.777 73.5459C65.7381 74.8979 66.8844 76.1082 68.1823 77.1413C68.3775 77.3313 68.5726 77.4854 68.7678 77.6292Z" fill="#E7ECF2"/>
<g style="mix-blend-mode:multiply" opacity="0.5">
<path d="M57.3447 6.01077V103.527H29.3522C29.3417 100.443 29.8433 97.3775 30.8366 94.4569C31.0112 93.9433 31.2013 93.4296 31.4067 92.916C31.607 92.4024 31.8279 91.9247 32.059 91.4368C32.979 89.5035 34.12 87.6834 35.4592 86.0129C35.7982 85.5969 36.1423 85.1911 36.4865 84.8007C36.6611 84.6004 36.846 84.4053 37.0309 84.2101L37.5908 83.64C38.2632 82.9707 38.9695 82.3364 39.7069 81.7395C40.0099 81.4981 40.3078 81.2567 40.616 81.0307C41.0526 80.702 41.4994 80.399 41.9514 80.1011L42.2493 79.9059C42.8075 79.5635 43.3776 79.2211 43.9597 78.8787L44.6325 78.4934C45.0691 78.2263 45.5006 77.9387 45.9115 77.6305C46.1169 77.4816 46.3224 77.3224 46.5176 77.158C49.0918 75.1033 51.0472 72.3763 52.1674 69.279C51.3314 68.9079 50.5214 68.4807 49.7431 68.0001C49.3373 67.7587 48.9367 67.4864 48.531 67.2091L47.93 66.7777C47.3 66.3188 46.6785 65.8189 46.0656 65.2779L45.5519 64.8156L45.0383 64.3533C44.6274 63.9561 44.2268 63.5435 43.8364 63.1155C43.6823 62.9512 43.53 62.78 43.3793 62.6019C42.9581 62.1242 42.5472 61.6363 42.1518 61.1227C41.9977 60.9378 41.8538 60.7477 41.7152 60.5577C41.181 59.8489 40.6674 59.111 40.1743 58.344L39.7993 57.7225C39.6504 57.4759 39.5066 57.2088 39.3679 56.9674C38.8326 56.0094 38.3525 55.0217 37.9297 54.009C37.8681 53.86 37.8014 53.711 37.75 53.5672C37.6986 53.4234 37.5908 53.182 37.524 52.992C37.4178 52.7112 37.3168 52.4321 37.2209 52.1548C37.1234 51.8774 37.0361 51.5898 36.9487 51.3022C36.8614 51.0145 36.7844 50.7526 36.7125 50.4752C36.6406 50.1979 36.5481 49.8794 36.4813 49.5713C36.4813 49.5404 36.4813 49.5096 36.4813 49.4788C36.382 49.0576 36.293 48.6296 36.2142 48.1947C36.1064 47.6246 36.0242 47.0442 35.9626 46.4587C35.9369 46.2738 35.9215 46.0889 35.9061 45.904C35.8907 45.7191 35.8701 45.5187 35.8599 45.3236C35.8342 44.9692 35.8187 44.6096 35.8085 44.2501C35.8085 44.019 35.8085 43.7878 35.8085 43.5516V27.5111C35.8085 24.6846 36.3658 21.8858 37.4485 19.2749C38.5313 16.6641 40.1182 14.2923 42.1185 12.2953C44.1188 10.2984 46.4932 8.71542 49.1059 7.63704C51.7186 6.55866 54.5183 6.00605 57.3447 6.01077V6.01077Z" fill="#ECC19C"/>
</g>
</g>
</svg>
