<svg width="78" height="79" viewBox="0 0 78 79" fill="none" xmlns="http://www.w3.org/2000/svg">
<mask id="mask0" mask-type="alpha" maskUnits="userSpaceOnUse" x="0" y="0" width="78" height="79">
<path d="M38.986 78.217C60.5173 78.217 77.9719 60.7624 77.9719 39.2311C77.9719 17.6997 60.5173 0.245117 38.986 0.245117C17.4546 0.245117 0 17.6997 0 39.2311C0 60.7624 17.4546 78.217 38.986 78.217Z" fill="#1C5A7D"/>
</mask>
<g mask="url(#mask0)">
<path d="M61.9831 40.7594V76.9852L16.0802 76.2019V39.9761L61.9831 40.7594Z" fill="#421800"/>
<path d="M56.3384 24.394V35.0781C56.3384 35.2646 56.3384 35.4511 56.3384 35.6418C56.3384 35.8324 56.3384 35.9443 56.3384 36.0976C56.3384 36.251 56.3384 36.3712 56.3135 36.5121C56.2887 36.653 56.3135 36.7069 56.2928 36.8063C56.2721 36.9058 56.2928 36.9224 56.2928 36.9804C56.2928 37.0384 56.2928 37.1959 56.2597 37.3036C56.2597 37.5067 56.2182 37.7181 56.1892 37.9129C56.1892 37.9626 56.1892 38.0165 56.1685 38.0662C56.1478 38.1159 56.1395 38.2693 56.1229 38.3729L56.0441 38.8163C56.0068 39.0194 55.9696 39.2308 55.924 39.4256C55.924 39.4256 55.924 39.4255 55.924 39.4504C55.9261 39.4808 55.9261 39.5112 55.924 39.5416C55.924 39.5416 55.924 39.5416 55.924 39.5665C55.9032 39.6784 55.8784 39.782 55.8535 39.8897C55.8466 39.9376 55.8355 39.9847 55.8204 40.0306C55.8204 40.1094 55.7872 40.184 55.7706 40.2627C55.754 40.3414 55.7499 40.3539 55.7333 40.3953C55.7167 40.4368 55.7126 40.4741 55.7043 40.5072C55.6132 40.8553 55.5137 41.1993 55.4059 41.5392C55.3562 41.7008 55.3023 41.8583 55.2484 42.0199C55.2484 42.0199 55.2484 42.0531 55.2484 42.0697L55.0951 42.4841L55.0454 42.6167C54.9956 42.7535 54.9418 42.8902 54.8879 43.0311C54.834 43.1721 54.7553 43.3585 54.689 43.5202C54.6226 43.6818 54.5646 43.8103 54.5025 43.9346C54.5025 43.9595 54.4817 43.9802 54.4734 44.0051C54.403 44.1584 54.3325 44.3117 54.2621 44.4609C54.1916 44.6101 54.1129 44.7759 54.03 44.9334C53.8767 45.2442 53.7109 45.555 53.5451 45.8576L53.313 46.272C52.6699 47.3829 51.9425 48.4429 51.1372 49.4425C51.0295 49.5834 50.919 49.7215 50.8057 49.8569C50.6482 50.0475 50.4866 50.2382 50.3249 50.4205C50.1633 50.6029 50.0473 50.7314 49.9105 50.8806V50.9013C49.5016 51.3406 49.0872 51.755 48.6672 52.1446C48.5802 52.2316 48.4931 52.3062 48.402 52.3891C48.3108 52.472 48.1118 52.6502 47.9626 52.7745C47.8134 52.8988 47.7264 52.9734 47.6104 53.0729C47.3037 53.3257 46.997 53.5661 46.6862 53.794C46.5577 53.8935 46.4251 53.9847 46.2925 54.0759C46.0811 54.2292 45.878 54.3742 45.646 54.5152C45.5258 54.598 45.4014 54.6726 45.2813 54.7472C44.8668 55.0166 44.4068 55.2611 43.9717 55.4766L43.6525 55.6341L43.321 55.7875C43.1801 55.851 43.0419 55.9104 42.9066 55.9657C42.8527 55.9901 42.7973 56.0108 42.7408 56.0278C42.575 56.0942 42.4051 56.1605 42.2393 56.2143C42.0735 56.2682 41.8249 56.3552 41.6094 56.4133C41.4643 56.4547 41.3151 56.4962 41.1701 56.5293H41.1411C40.996 56.5625 40.8509 56.5956 40.7266 56.6246L40.6106 56.6453C40.4904 56.6661 40.3702 56.6868 40.2542 56.6992C40.1381 56.7117 39.9143 56.7448 39.7444 56.7531C39.6865 56.7573 39.6283 56.7573 39.5703 56.7531C39.4336 56.7531 39.3009 56.7531 39.1559 56.7531C39.0233 56.7531 38.8851 56.7531 38.7415 56.7531C38.6904 56.7573 38.6391 56.7573 38.5881 56.7531C38.4679 56.7531 38.3436 56.7531 38.2193 56.72H38.1364L37.6598 56.6412C37.523 56.6205 37.3863 56.5915 37.2453 56.5542C36.4768 56.3755 35.7273 56.1229 35.0074 55.7999C34.3328 55.5005 33.6793 55.1557 33.0513 54.768C32.7239 54.569 32.3965 54.3535 32.0732 54.1297L31.5883 53.7816C31.0799 53.4114 30.5785 53.008 30.0839 52.5714L29.6695 52.1985L29.255 51.8255C28.9401 51.5229 28.6334 51.2121 28.3391 50.8847C28.3202 50.8677 28.3022 50.8498 28.2852 50.8308C28.1609 50.6982 28.038 50.5601 27.9164 50.4164C27.5766 50.031 27.245 49.6372 26.9259 49.2228C26.8016 49.0736 26.6855 48.9203 26.5736 48.7669C26.1426 48.195 25.7282 47.5996 25.3303 46.9807L25.0278 46.4792C24.9076 46.2803 24.7916 46.0648 24.6797 45.87C24.2478 45.097 23.8603 44.3 23.5192 43.4829C23.4695 43.3627 23.4156 43.2425 23.3742 43.1265C23.3328 43.0104 23.2457 42.8156 23.1918 42.6623C23.1062 42.4357 23.0247 42.2106 22.9473 41.9868C22.8686 41.763 22.7981 41.5309 22.7277 41.2988C22.6572 41.0667 22.595 40.8554 22.537 40.6316C22.479 40.4078 22.4044 40.1508 22.3505 39.9021C22.3505 39.8773 22.3505 39.8524 22.3505 39.8234C22.2704 39.4836 22.1986 39.1382 22.135 38.7873C22.048 38.3273 21.9817 37.859 21.9319 37.3865C21.9112 37.2373 21.8988 37.0881 21.8864 36.9389C21.8739 36.7897 21.8574 36.6281 21.8491 36.4706C21.8284 36.1847 21.8159 35.8946 21.8076 35.6045C21.8076 35.418 21.8076 35.2315 21.8076 35.0408V24.394C21.8083 19.9584 23.508 15.6916 26.5573 12.4704C29.6066 9.24926 33.7738 7.31842 38.2027 7.07471H38.2483H38.6047H39.1393H39.6905H40.105C41.068 7.13378 42.0244 7.27239 42.9646 7.48914C46.7735 8.35669 50.1783 10.4841 52.628 13.5272C55.0776 16.5702 56.4287 20.3508 56.4627 24.2572C56.3384 24.2945 56.3384 24.3442 56.3384 24.394Z" fill="#F0D0B4"/>
<path d="M61.5893 83.4383H16.3869C16.3832 80.9777 16.7836 78.5332 17.5721 76.2023C17.5721 76.1816 17.5721 76.1609 17.5929 76.1401C17.7338 75.7257 17.8871 75.3113 18.0529 74.8968C18.2145 74.4824 18.3927 74.097 18.5792 73.7033C19.3235 72.1387 20.247 70.6659 21.3311 69.3144C21.6046 68.9787 21.8823 68.6513 22.16 68.3363C22.3009 68.1747 22.4501 68.0172 22.5993 67.8597L23.051 67.3997C23.8132 66.6404 24.629 65.9368 25.492 65.2944C25.9064 64.9752 26.3582 64.6768 26.8099 64.3867L26.9881 64.2748C27.1539 64.1671 27.3197 64.0676 27.4896 63.9682C27.6595 63.8687 27.9538 63.6988 28.19 63.5537C28.3723 63.4543 28.5505 63.3506 28.7329 63.2387C29.2667 62.9195 29.7777 62.5636 30.2622 62.1736C31.9463 60.8359 33.3058 59.1343 34.2389 57.1965C35.1719 55.2586 35.6543 53.1347 35.6498 50.9839H38.9446H38.9985H42.314C42.3122 51.8173 42.3829 52.6493 42.5253 53.4705C42.6607 54.2514 42.8617 55.0194 43.1262 55.7665C44.0198 58.278 45.5991 60.4889 47.685 62.1488C47.9879 62.3982 48.3033 62.632 48.63 62.8492L48.7294 62.9155C48.8828 63.0191 49.0361 63.1186 49.1977 63.2139C49.3594 63.3092 49.55 63.4252 49.7323 63.5247C49.7609 63.5316 49.7877 63.5443 49.8111 63.562C50.1841 63.7692 50.5571 63.9764 50.9176 64.2127L51.0047 64.2665C51.1497 64.3577 51.2989 64.4489 51.4191 64.5525C51.7714 64.7763 52.1195 65.025 52.4552 65.2819C52.8696 65.601 53.2841 65.9409 53.6985 66.2931C54.1129 66.6454 54.4983 67.0101 54.8796 67.3872C56.9864 69.4838 58.657 71.9769 59.7952 74.7226C60.9333 77.4683 61.5163 80.4122 61.5106 83.3845L61.5893 83.4383Z" fill="#F0D0B4"/>
<path d="M61.5893 83.4383H16.3869C16.3832 80.9776 16.7836 78.5331 17.5721 76.2022C17.5721 76.1815 17.5721 76.1608 17.5929 76.1401C17.7338 75.7256 17.8871 75.3112 18.0529 74.8968C18.2145 74.4823 18.3927 74.0969 18.5792 73.7032C19.3235 72.1386 20.247 70.6658 21.3311 69.3143C21.6046 68.9786 21.8823 68.6512 22.16 68.3362C22.3009 68.1746 22.4501 68.0171 22.5993 67.8596L23.051 67.3996C23.8132 66.6403 24.629 65.9367 25.492 65.2943C25.9064 64.9752 26.3582 64.6768 26.8099 64.3867L26.9881 64.2748C27.1539 64.167 27.3197 64.0675 27.4896 63.9681C27.6595 63.8686 27.9538 63.6946 28.19 63.5536L28.7329 63.2428C29.2645 62.9213 29.7728 62.5626 30.2539 62.1694C31.386 63.3311 32.7395 64.2542 34.2343 64.8841C35.7291 65.5141 37.3349 65.8381 38.957 65.8372H39.0109C40.6325 65.8375 42.2379 65.5135 43.7325 64.8844C45.2271 64.2552 46.5808 63.3336 47.714 62.1736C48.0154 62.4243 48.3294 62.6595 48.6548 62.8781L48.7543 62.9444C48.9076 63.048 49.0651 63.1434 49.2226 63.2428C49.3801 63.3423 49.5749 63.45 49.7572 63.5495C49.7847 63.5591 49.8111 63.5716 49.836 63.5868C50.2089 63.794 50.5819 64.0012 50.9425 64.2416L51.0295 64.2955C51.1746 64.3867 51.3238 64.4778 51.444 64.5815C51.7962 64.8052 52.1444 65.0539 52.4801 65.3109C52.8945 65.6341 53.3338 65.9698 53.7234 66.3262C54.1129 66.6826 54.5232 67.0432 54.9045 67.4203C57.0113 69.5169 58.6819 72.01 59.82 74.7557C60.9581 77.5014 61.5412 80.4453 61.5355 83.4176L61.5893 83.4383Z" fill="#F49F0A"/>
<path d="M62.0824 70.9219C62.0508 70.9362 62.0173 70.946 61.983 70.951C59.7409 71.5353 50.9051 60.8843 50.8139 49.7194C50.8071 48.8135 50.8597 47.9081 50.9714 47.009C51.2698 44.6011 52.4302 42.2886 53.3917 39.9636C54.1501 38.1194 54.7925 36.271 54.7925 34.3604C54.7925 24.1322 51.8252 27.4642 43.5572 21.9481C41.5596 20.6177 40.1381 19.5278 39.0274 18.6326C35.9564 16.1957 35.1773 15.3171 30.9625 15.3171C25.6038 15.3171 23.4736 24.6253 22.8644 28.6081C22.2096 32.8892 22.2013 39.831 24.8703 46.4288C26.9424 51.5512 26.9424 56.57 22.8644 62.1483C21.3351 64.2205 18.9894 71.3074 16.0801 73.5909C15.1725 74.3037 14.2151 74.5483 13.2039 74.0344C5.25087 69.9646 10.0376 56.9057 12.4248 48.7289C14.9943 39.9304 15.7692 31.0118 17.6342 22.1263C19.7395 12.1218 28.3018 6.02546 31.7623 8.49549C32.9186 6.42332 35.9398 5.64832 39.0274 5.64832C41.1454 5.63471 43.2494 5.99239 45.2439 6.70513C57.8759 11.6079 58.0914 23.3199 58.7628 28.1895C59.3182 32.2137 61.2992 35.9684 61.9913 39.9429C62.1457 40.7839 62.2274 41.6366 62.2358 42.4916C62.2648 47.1416 61.7467 50.283 65.2777 54.158C67.9467 57.1378 65.8994 69.2642 62.0824 70.9219Z" fill="#421800"/>
<g style="mix-blend-mode:multiply" opacity="0.5">
<path d="M39.0274 5.68799V83.4444H16.3868C16.3831 80.9838 16.7835 78.5392 17.5721 76.2084H16.0801V73.6306C15.1725 74.3434 14.2151 74.5879 13.2039 74.074C5.25087 70.0043 10.0376 56.9454 12.4248 48.7686C14.9943 39.9701 15.7692 31.0515 17.6342 22.166C19.7395 12.1615 28.3018 6.06512 31.7623 8.53516C32.9186 6.46298 35.9398 5.68799 39.0274 5.68799Z" fill="#F0D0B4"/>
</g>
</g>
</svg>
