<svg width="79" height="78" viewBox="0 0 79 78" fill="none" xmlns="http://www.w3.org/2000/svg">
<mask id="mask0" mask-type="alpha" maskUnits="userSpaceOnUse" x="0" y="0" width="79" height="78">
<path d="M39.1998 77.9856C60.7312 77.9856 78.1858 60.531 78.1858 38.9996C78.1858 17.4683 60.7312 0.0136719 39.1998 0.0136719C17.6685 0.0136719 0.213867 17.4683 0.213867 38.9996C0.213867 60.531 17.6685 77.9856 39.1998 77.9856Z" fill="#E1854F"/>
</mask>
<g mask="url(#mask0)">
<path d="M61.8032 83.2274H16.6007C16.5972 80.7448 17.0047 78.2787 17.8067 75.9292C17.9476 75.5148 18.101 75.1004 18.2667 74.6859C18.4284 74.2715 18.6066 73.8861 18.7931 73.4923C19.5374 71.9278 20.4609 70.455 21.5449 69.1035C21.8185 68.7678 22.0961 68.4404 22.3738 68.1254C22.5147 67.9638 22.6639 67.8063 22.8131 67.6488L23.2648 67.1888C24.0271 66.4295 24.8428 65.7259 25.7059 65.0834C26.1203 64.7643 26.572 64.4659 27.0238 64.1758C27.2144 64.0515 27.4134 63.9313 27.6081 63.8194L27.948 63.6163L28.0972 63.5334L28.4039 63.3635C28.5862 63.2641 28.7644 63.1605 28.9468 63.0486C29.4805 62.7293 29.9915 62.3734 30.476 61.9835C31.1901 61.4151 31.8479 60.7795 32.4405 60.0853C33.8825 58.4145 34.9092 56.4264 35.4368 54.2832C35.5238 53.9641 35.5902 53.6409 35.6482 53.3135C35.795 52.4802 35.8685 51.6357 35.8678 50.7896H39.1626H39.7552H42.5485C42.5468 51.623 42.6175 52.455 42.7599 53.2762C42.8138 53.6077 42.8884 53.9351 42.9712 54.2625C43.0785 54.7068 43.2085 55.1453 43.3608 55.5763C44.2603 58.0847 45.8385 60.2942 47.9196 61.9586C48.0812 62.0912 48.2429 62.2197 48.4087 62.3399C48.5744 62.4601 48.7112 62.5554 48.8645 62.659L48.964 62.7253C49.1173 62.8289 49.2707 62.9284 49.4323 63.0237C49.5939 63.119 49.7846 63.2351 49.9669 63.3345C49.9954 63.3415 50.0222 63.3542 50.0457 63.3718C50.4187 63.5791 50.7917 63.7862 51.1522 64.0225C51.3263 64.1302 51.5004 64.238 51.6703 64.3623C52.0225 64.5861 52.3707 64.8348 52.7064 65.0917C53.1208 65.4108 53.5352 65.7507 53.9497 66.103C54.3641 66.4552 54.7495 66.8199 55.1308 67.1971C57.25 69.2935 58.9312 71.7903 60.0766 74.5423C61.2221 77.2943 61.809 80.2466 61.8032 83.2274Z" fill="#ECC19C"/>
<path d="M61.8032 83.2274H16.6007C16.5972 80.7447 17.0047 78.2787 17.8067 75.9292C17.9476 75.5147 18.101 75.1003 18.2667 74.6859C18.4284 74.2714 18.6066 73.886 18.7931 73.4923C19.5374 71.9277 20.4609 70.4549 21.5449 69.1034C21.8185 68.7677 22.0961 68.4403 22.3738 68.1253C22.5147 67.9637 22.6639 67.8062 22.8131 67.6487L23.2648 67.1887C24.0271 66.4294 24.8428 65.7258 25.7059 65.0834C26.1203 64.7642 26.572 64.4659 27.0238 64.1758C27.2144 64.0514 27.4134 63.9312 27.6081 63.8193L27.948 63.6163L28.0972 63.5334L28.4039 63.3593L28.9468 63.0485C29.4784 62.727 29.9866 62.3683 30.4677 61.9751C31.5999 63.1368 32.9533 64.0598 34.4481 64.6898C35.9429 65.3197 37.5488 65.6438 39.1709 65.6429H39.204C39.3905 65.6429 39.577 65.6429 39.7635 65.6429C42.8454 65.5064 45.7598 64.2025 47.9155 61.9958C48.2169 62.2466 48.5308 62.4817 48.8562 62.7004L48.9557 62.7667C49.109 62.8703 49.2665 62.9656 49.424 63.0651C49.5815 63.1645 49.7763 63.2723 49.9587 63.3718C49.9861 63.3814 50.0125 63.3939 50.0374 63.4091C50.4104 63.6163 50.7834 63.8235 51.1439 64.0639C51.318 64.1716 51.4921 64.2794 51.662 64.4037C52.0142 64.6275 52.3624 64.8762 52.6981 65.1331C53.1125 65.4564 53.5518 65.7921 53.9414 66.1485C54.3309 66.5049 54.7412 66.8654 55.1225 67.2426C57.2377 69.3329 58.9173 71.822 60.064 74.5658C61.2108 77.3096 61.8019 80.2536 61.8032 83.2274Z" fill="#5AB7B2"/>
<path d="M46.1832 56.2035V58.7979C46.1845 59.1913 46.0628 59.5753 45.835 59.8961C45.6591 60.1523 45.4233 60.3617 45.1482 60.5061C44.873 60.6505 44.5668 60.7257 44.256 60.725H33.8952C33.3836 60.7228 32.8937 60.5186 32.5319 60.1569C32.1702 59.7952 31.966 59.3053 31.9639 58.7937V56.1994C31.9639 55.6872 32.1674 55.1959 32.5295 54.8337C32.8917 54.4716 33.3829 54.2681 33.8952 54.2681H44.256C44.624 54.2663 44.9844 54.373 45.2921 54.5748C45.5663 54.7487 45.7919 54.9893 45.9477 55.2742C46.1036 55.5591 46.1846 55.8788 46.1832 56.2035Z" fill="#5AB7B2"/>
<path d="M48.421 62.3475V68.0046H27.6163V63.8105L27.9562 63.6074L28.1054 63.5245L28.4121 63.3546C28.5944 63.2551 28.7726 63.1515 28.955 63.0396C29.4888 62.7204 29.9997 62.3645 30.4842 61.9745C31.1983 61.4062 31.8562 60.7706 32.4487 60.0764C32.9835 59.4528 33.4619 58.7829 33.8784 58.0747H44.5295C44.9072 58.7192 45.3369 59.3318 45.8142 59.9065C46.4382 60.6693 47.1411 61.3639 47.9113 61.9787C48.0936 62.0906 48.2552 62.2274 48.421 62.3475Z" fill="#5AB7B2"/>
<path d="M62.0721 29.0695C62.0721 38.4192 57.1942 46.5463 50.012 50.6823C47.7805 51.9755 45.3354 52.8584 42.7926 53.2892C41.7981 53.4605 40.7925 53.5589 39.7837 53.5834H39.2077C35.4159 53.587 31.6909 52.586 28.4117 50.6823C21.2336 46.538 16.3474 38.4192 16.3474 29.0654C16.3474 15.8615 26.0701 5.09444 38.2586 4.56396H38.3042H38.6606H39.1953H39.7465H39.7837H40.1692H40.3474H40.5629C52.5649 5.36797 62.0721 16.0231 62.0721 29.0695Z" fill="#141720"/>
<path d="M56.5523 21.891V34.8505C56.5523 35.0369 56.5523 35.2234 56.5523 35.4141C56.5523 35.6047 56.5523 35.7166 56.5523 35.8699C56.5523 36.0233 56.5523 36.1435 56.5274 36.2844C56.5025 36.4253 56.5274 36.4792 56.5067 36.5786C56.486 36.6781 56.5067 36.6947 56.5067 36.7527C56.5067 36.8107 56.5067 36.9682 56.4735 37.076C56.4735 37.279 56.4321 37.4904 56.4031 37.6852C56.4031 37.7349 56.4031 37.7888 56.3824 37.8385C56.3616 37.8882 56.3533 38.0416 56.3368 38.1452L56.2622 38.5886C56.2249 38.7917 56.1834 39.0031 56.142 39.1979C56.142 39.1979 56.142 39.1979 56.142 39.2227C56.1441 39.2531 56.1441 39.2836 56.142 39.3139C56.142 39.3139 56.142 39.3139 56.142 39.3388C56.1213 39.4507 56.0964 39.5543 56.0715 39.662C56.0646 39.7099 56.0535 39.757 56.0384 39.8029C56.0384 39.8817 56.0052 39.9563 55.9886 40.035C55.9721 40.1138 55.9679 40.1262 55.9513 40.1676C55.9348 40.2091 55.9306 40.2464 55.9223 40.2795C55.8311 40.6277 55.7317 40.9716 55.6239 41.3115C55.5742 41.4731 55.5203 41.6306 55.4665 41.7922C55.4665 41.7922 55.4665 41.8254 55.4665 41.842L55.3131 42.2564L55.2634 42.389C55.2136 42.5258 55.1598 42.6626 55.1059 42.8035C55.052 42.9444 54.9733 43.1309 54.907 43.2925C54.8407 43.4541 54.7826 43.5826 54.7205 43.7069C54.7205 43.7318 54.6997 43.7525 54.6915 43.7774C54.621 43.9307 54.5505 44.0841 54.4801 44.2333C54.4096 44.3825 54.3309 44.5482 54.248 44.7057C54.0947 45.0165 53.9289 45.3274 53.7631 45.6299L53.531 46.0444C52.888 47.1553 52.1606 48.2152 51.3553 49.2148C51.2475 49.3557 51.137 49.4938 51.0237 49.6292C50.8662 49.8199 50.7046 50.0105 50.543 50.1928C50.3813 50.3752 50.2653 50.5037 50.1285 50.6529V50.6736C49.7141 51.1129 49.2996 51.5315 48.8852 51.9169C48.7982 52.0039 48.7111 52.0785 48.62 52.1614C48.5288 52.2443 48.3299 52.4225 48.1807 52.5468C48.0315 52.6712 47.9444 52.7458 47.8284 52.8452C47.5217 53.098 47.215 53.3384 46.9042 53.5664C46.7757 53.6658 46.6431 53.757 46.5105 53.8482C46.2991 54.0015 46.0961 54.1466 45.864 54.2875C45.7438 54.3704 45.6195 54.445 45.4993 54.5196L45.4413 54.5527C45.0268 54.8097 44.6124 55.0417 44.1979 55.249L43.8788 55.4065L43.5473 55.5598C43.4064 55.6233 43.2682 55.6827 43.1328 55.738C43.079 55.7624 43.0237 55.7832 42.9671 55.8002C42.8013 55.8665 42.6314 55.9328 42.4656 55.9867C42.2998 56.0405 42.0512 56.1276 41.8357 56.1856C41.6906 56.227 41.5414 56.2685 41.3964 56.3016H41.3673C41.2223 56.3348 41.0772 56.3679 40.9529 56.397L40.8369 56.4177C40.7167 56.4384 40.5965 56.4591 40.4805 56.4716C40.3644 56.484 40.1406 56.5171 39.9707 56.5254C39.9128 56.5296 39.8546 56.5296 39.7966 56.5254C39.6599 56.5254 39.5273 56.5254 39.3822 56.5254C39.2496 56.5254 39.1114 56.5254 38.9678 56.5254C38.9167 56.5297 38.8655 56.5297 38.8144 56.5254C38.6942 56.5254 38.5699 56.5254 38.4456 56.4923H38.3627L37.8861 56.4135C37.7493 56.3928 37.6126 56.3638 37.4717 56.3265C36.7031 56.1478 35.9536 55.8952 35.2337 55.5722C34.5591 55.2728 33.9056 54.9281 33.2776 54.5403L33.1657 54.474C32.8756 54.2958 32.5813 54.1051 32.2954 53.902L31.8105 53.5539C31.3021 53.1837 30.8006 52.7803 30.3061 52.3438L29.8916 51.9708L29.4772 51.5978C29.1622 51.2952 28.8555 50.9844 28.5613 50.657C28.5423 50.6401 28.5243 50.6221 28.5074 50.6032C28.3831 50.4705 28.2601 50.3324 28.1386 50.1887C27.7987 49.8033 27.4672 49.4096 27.1481 48.9951C27.0237 48.8459 26.9077 48.6926 26.7958 48.5392C26.3648 47.9673 25.9503 47.3719 25.5525 46.753L25.25 46.2516C25.1298 46.0527 25.0137 45.8371 24.9018 45.6423C24.4699 44.8693 24.0825 44.0723 23.7414 43.2552C23.6917 43.135 23.6378 43.0148 23.5963 42.8988C23.5549 42.7827 23.4679 42.588 23.414 42.4346C23.3283 42.2081 23.2468 41.9829 23.1695 41.7591C23.0949 41.5353 23.0203 41.3032 22.9498 41.0711C22.8794 40.8391 22.8172 40.6277 22.7592 40.4039C22.7012 40.1801 22.6266 39.9231 22.5727 39.6745C22.5727 39.6496 22.5727 39.6247 22.5727 39.5999C22.4926 39.26 22.4207 38.9147 22.3572 38.5638C22.2701 38.1038 22.2038 37.6354 22.1541 37.163C22.1334 37.0138 22.121 36.8646 22.1085 36.7154C22.0961 36.5662 22.0795 36.4046 22.0712 36.2471C22.0505 35.9611 22.0381 35.671 22.0298 35.3809C22.0298 35.1944 22.0298 35.0079 22.0298 34.8173V21.891C22.0305 17.4555 23.7301 13.1887 26.7794 9.96751C29.8287 6.74634 33.996 4.81549 38.4249 4.57178H38.4704H38.8269H39.3615H39.9127H39.95H40.3354H40.5136L40.8949 4.60079H41.0814H41.2057C41.8745 4.6722 42.5386 4.7815 43.195 4.92819C47.004 5.79574 50.4088 7.92316 52.8584 10.9662C55.308 14.0093 56.6592 17.7899 56.6932 21.6963C56.5523 21.7874 56.5523 21.8372 56.5523 21.891Z" fill="#ECC19C"/>
<path d="M60.4149 28.3109H17.9891C17.9891 15.5421 26.9741 5.12736 38.2509 4.56787H38.2965H38.6529H39.1875H39.7387H39.776H40.1614H40.3397H40.5552H40.7168H40.9033H41.0276C51.9065 5.69099 60.4149 15.8861 60.4149 28.3109Z" fill="#141720"/>
<g style="mix-blend-mode:multiply" opacity="0.5">
<path d="M39.7799 4.55127V83.2277H16.6005C16.597 80.7451 17.0045 78.279 17.8065 75.9295C17.9474 75.5151 18.1008 75.1007 18.2665 74.6862C18.4282 74.2718 18.6064 73.8864 18.7929 73.4927C19.5372 71.9281 20.4607 70.4553 21.5447 69.1038C21.8183 68.7681 22.0959 68.4407 22.3736 68.1257C22.5145 67.9641 22.6637 67.8066 22.8129 67.6491L23.2646 67.1891C24.0269 66.4298 24.8426 65.7262 25.7057 65.0837C26.1201 64.7646 26.5718 64.4663 27.0236 64.1762C27.2142 64.0518 27.4132 63.9316 27.6079 63.8197L27.9478 63.6166L28.097 63.5338L28.4036 63.3597L28.9466 63.0489C29.4782 62.7273 29.9864 62.3686 30.4675 61.9755C31.1816 61.4071 31.8394 60.7715 32.4319 60.0774C32.123 59.7271 31.9521 59.2763 31.9512 58.8092V56.2148C31.9513 55.8674 32.0453 55.5264 32.2233 55.228C32.4014 54.9296 32.6567 54.6849 32.9624 54.5198C32.6723 54.3416 32.3781 54.1509 32.0921 53.9479L31.6072 53.5997C31.0989 53.2295 30.5974 52.8261 30.1028 52.3896L29.6884 52.0166L29.274 51.6436C28.959 51.3411 28.6523 51.0302 28.3581 50.7028C21.18 46.5585 16.2938 38.4397 16.2938 29.0859C16.2938 15.8819 26.0165 5.11491 38.205 4.58443H38.2506H38.6071H39.1417H39.6929L39.7799 4.55127Z" fill="#ECC19C"/>
</g>
</g>
</svg>
