<svg width="111" height="154" viewBox="0 0 111 154" fill="none" xmlns="http://www.w3.org/2000/svg">
<path d="M1.69888 122.712C1.96554 122.712 2.18954 122.797 2.37087 122.968C2.56287 123.128 2.65887 123.347 2.65887 123.624C2.65887 123.933 2.56821 124.179 2.38688 124.36C2.21621 124.541 1.98688 124.632 1.69888 124.632C1.33621 124.632 1.05354 124.493 0.850875 124.216C0.648208 123.928 0.546875 123.523 0.546875 123C0.546875 121.677 1.17087 120.675 2.41887 119.992L2.83488 120.728C2.39754 120.995 2.07221 121.283 1.85888 121.592C1.65621 121.901 1.55488 122.28 1.55488 122.728C1.58688 122.717 1.63488 122.712 1.69888 122.712ZM4.80288 122.712C5.06954 122.712 5.29354 122.797 5.47488 122.968C5.66688 123.128 5.76287 123.347 5.76287 123.624C5.76287 123.933 5.67221 124.179 5.49088 124.36C5.32021 124.541 5.09088 124.632 4.80288 124.632C4.44021 124.632 4.15754 124.493 3.95488 124.216C3.75221 123.928 3.65088 123.523 3.65088 123C3.65088 121.677 4.27487 120.675 5.52287 119.992L5.93888 120.728C5.50154 120.995 5.17621 121.283 4.96288 121.592C4.76021 121.901 4.65887 122.28 4.65887 122.728C4.69087 122.717 4.73888 122.712 4.80288 122.712Z" fill="#282828"/>
<path d="M8.675 120.584H10.307V131.064H8.675V120.584Z" fill="#282828"/>
<path d="M15.9167 123.24H17.5487L18.5887 127.496L18.9087 129.096L19.0207 129.72H19.0848C19.2874 128.771 19.4581 128.029 19.5967 127.496L20.7007 123.24H22.2048L23.3247 127.496L23.7248 129.144C23.7461 129.272 23.7887 129.464 23.8527 129.72H23.9167C24.0341 129.155 24.1088 128.781 24.1408 128.6L24.3647 127.496L25.3887 123.24H26.9087L24.8768 131.064H22.9408L21.9328 127.176C21.8154 126.707 21.6981 126.179 21.5807 125.592L21.4367 124.904H21.3727C21.1701 125.939 21.0048 126.701 20.8768 127.192L19.9007 131.064H18.0287L15.9167 123.24Z" fill="#282828"/>
<path d="M30.5501 131.256C29.8675 131.256 29.3128 131.053 28.8861 130.648C28.4595 130.232 28.2461 129.677 28.2461 128.984C28.2461 128.141 28.6195 127.496 29.3661 127.048C30.1128 126.589 31.3021 126.269 32.9341 126.088C32.9128 124.936 32.4115 124.36 31.4301 124.36C30.7688 124.36 30.0168 124.627 29.1741 125.16L28.5661 124.072C29.6328 123.389 30.6835 123.048 31.7181 123.048C32.6675 123.048 33.3768 123.336 33.8461 123.912C34.3155 124.477 34.5501 125.293 34.5501 126.36V131.064H33.2221L33.0941 130.168H33.0461C32.1821 130.893 31.3501 131.256 30.5501 131.256ZM31.0461 129.976C31.3768 129.976 31.6861 129.901 31.9741 129.752C32.2621 129.603 32.5821 129.368 32.9341 129.048V127.112C31.8035 127.251 30.9981 127.464 30.5181 127.752C30.0488 128.04 29.8141 128.413 29.8141 128.872C29.8141 129.235 29.9261 129.512 30.1501 129.704C30.3741 129.885 30.6728 129.976 31.0461 129.976Z" fill="#282828"/>
<path d="M37.186 123.24H38.514L38.642 124.328H38.69C39.106 123.923 39.5167 123.608 39.922 123.384C40.338 123.16 40.7913 123.048 41.282 123.048C42.882 123.048 43.682 124.077 43.682 126.136V131.064H42.066V126.344C42.066 125.672 41.9593 125.187 41.746 124.888C41.5433 124.589 41.2073 124.44 40.738 124.44C40.386 124.44 40.0713 124.525 39.794 124.696C39.5167 124.856 39.186 125.128 38.802 125.512V131.064H37.186V123.24Z" fill="#282828"/>
<path d="M48.9894 131.256C47.4107 131.256 46.6214 130.344 46.6214 128.52V124.536H45.4854V123.32L46.7014 123.24L46.8934 121.08H48.2374V123.24H50.2854V124.536H48.2374V128.52C48.2374 129 48.328 129.363 48.5094 129.608C48.6907 129.843 48.984 129.96 49.3894 129.96C49.6347 129.96 49.9174 129.896 50.2374 129.768L50.5254 130.968C49.9494 131.16 49.4374 131.256 48.9894 131.256Z" fill="#282828"/>
<path d="M58.4419 131.256C56.8632 131.256 56.0739 130.344 56.0739 128.52V124.536H54.9379V123.32L56.1539 123.24L56.3459 121.08H57.6899V123.24H59.7379V124.536H57.6899V128.52C57.6899 129 57.7805 129.363 57.9619 129.608C58.1432 129.843 58.4365 129.96 58.8419 129.96C59.0872 129.96 59.3699 129.896 59.6899 129.768L59.9779 130.968C59.4019 131.16 58.8899 131.256 58.4419 131.256Z" fill="#282828"/>
<path d="M64.6489 131.256C63.9982 131.256 63.3902 131.091 62.8249 130.76C62.2595 130.429 61.8062 129.955 61.4649 129.336C61.1342 128.717 60.9689 127.992 60.9689 127.16C60.9689 126.317 61.1342 125.587 61.4649 124.968C61.8062 124.349 62.2542 123.875 62.8089 123.544C63.3742 123.213 63.9875 123.048 64.6489 123.048C65.3102 123.048 65.9182 123.213 66.4729 123.544C67.0382 123.875 67.4862 124.349 67.8169 124.968C68.1582 125.587 68.3289 126.317 68.3289 127.16C68.3289 127.992 68.1582 128.717 67.8169 129.336C67.4862 129.955 67.0382 130.429 66.4729 130.76C65.9075 131.091 65.2995 131.256 64.6489 131.256ZM64.6489 129.928C65.2675 129.928 65.7582 129.677 66.1209 129.176C66.4835 128.664 66.6649 127.992 66.6649 127.16C66.6649 126.328 66.4782 125.656 66.1049 125.144C65.7422 124.632 65.2569 124.376 64.6489 124.376C64.0409 124.376 63.5502 124.632 63.1769 125.144C62.8142 125.656 62.6329 126.328 62.6329 127.16C62.6329 127.992 62.8142 128.664 63.1769 129.176C63.5395 129.677 64.0302 129.928 64.6489 129.928Z" fill="#282828"/>
<path d="M75.9464 131.256C75.2637 131.256 74.709 131.053 74.2824 130.648C73.8557 130.232 73.6424 129.677 73.6424 128.984C73.6424 128.141 74.0157 127.496 74.7624 127.048C75.509 126.589 76.6984 126.269 78.3304 126.088C78.309 124.936 77.8077 124.36 76.8264 124.36C76.165 124.36 75.413 124.627 74.5704 125.16L73.9624 124.072C75.029 123.389 76.0797 123.048 77.1144 123.048C78.0637 123.048 78.773 123.336 79.2424 123.912C79.7117 124.477 79.9464 125.293 79.9464 126.36V131.064H78.6184L78.4904 130.168H78.4424C77.5784 130.893 76.7464 131.256 75.9464 131.256ZM76.4424 129.976C76.773 129.976 77.0824 129.901 77.3704 129.752C77.6584 129.603 77.9784 129.368 78.3304 129.048V127.112C77.1997 127.251 76.3944 127.464 75.9144 127.752C75.445 128.04 75.2104 128.413 75.2104 128.872C75.2104 129.235 75.3224 129.512 75.5464 129.704C75.7704 129.885 76.069 129.976 76.4424 129.976Z" fill="#282828"/>
<path d="M85.2862 131.256C84.3049 131.256 83.5209 130.893 82.9342 130.168C82.3582 129.443 82.0703 128.44 82.0703 127.16C82.0703 126.339 82.2249 125.619 82.5342 125C82.8436 124.371 83.2543 123.891 83.7663 123.56C84.2783 123.219 84.8276 123.048 85.4143 123.048C85.8303 123.048 86.1982 123.123 86.5182 123.272C86.8382 123.411 87.1743 123.629 87.5263 123.928L87.4622 122.632V119.72H89.0782V131.064H87.7503L87.6223 130.184H87.5742C87.2542 130.504 86.8969 130.765 86.5023 130.968C86.1076 131.16 85.7022 131.256 85.2862 131.256ZM85.6702 129.912C86.0009 129.912 86.3103 129.837 86.5983 129.688C86.8863 129.528 87.1742 129.283 87.4622 128.952V125.112C86.9289 124.632 86.3529 124.392 85.7343 124.392C85.3609 124.392 85.0196 124.504 84.7103 124.728C84.4116 124.952 84.1716 125.272 83.9902 125.688C83.8196 126.104 83.7343 126.589 83.7343 127.144C83.7343 128.029 83.8996 128.712 84.2302 129.192C84.5716 129.672 85.0516 129.912 85.6702 129.912Z" fill="#282828"/>
<path d="M94.5594 131.256C93.578 131.256 92.794 130.893 92.2074 130.168C91.6314 129.443 91.3434 128.44 91.3434 127.16C91.3434 126.339 91.498 125.619 91.8074 125C92.1167 124.371 92.5274 123.891 93.0394 123.56C93.5514 123.219 94.1007 123.048 94.6874 123.048C95.1034 123.048 95.4714 123.123 95.7914 123.272C96.1114 123.411 96.4474 123.629 96.7994 123.928L96.7354 122.632V119.72H98.3514V131.064H97.0234L96.8954 130.184H96.8474C96.5274 130.504 96.17 130.765 95.7754 130.968C95.3807 131.16 94.9754 131.256 94.5594 131.256ZM94.9434 129.912C95.274 129.912 95.5834 129.837 95.8714 129.688C96.1594 129.528 96.4474 129.283 96.7354 128.952V125.112C96.202 124.632 95.6261 124.392 95.0074 124.392C94.6341 124.392 94.2927 124.504 93.9834 124.728C93.6847 124.952 93.4447 125.272 93.2634 125.688C93.0927 126.104 93.0074 126.589 93.0074 127.144C93.0074 128.029 93.1727 128.712 93.5034 129.192C93.8447 129.672 94.3247 129.912 94.9434 129.912Z" fill="#282828"/>
<path d="M106.508 131.256C105.825 131.256 105.27 131.053 104.844 130.648C104.417 130.232 104.204 129.677 104.204 128.984C104.204 128.141 104.577 127.496 105.324 127.048C106.07 126.589 107.26 126.269 108.892 126.088C108.87 124.936 108.369 124.36 107.388 124.36C106.726 124.36 105.974 124.627 105.132 125.16L104.524 124.072C105.59 123.389 106.641 123.048 107.676 123.048C108.625 123.048 109.334 123.336 109.804 123.912C110.273 124.477 110.508 125.293 110.508 126.36V131.064H109.18L109.052 130.168H109.004C108.14 130.893 107.308 131.256 106.508 131.256ZM107.004 129.976C107.334 129.976 107.644 129.901 107.932 129.752C108.22 129.603 108.54 129.368 108.892 129.048V127.112C107.761 127.251 106.956 127.464 106.476 127.752C106.006 128.04 105.772 128.413 105.772 128.872C105.772 129.235 105.884 129.512 106.108 129.704C106.332 129.885 106.63 129.976 107.004 129.976Z" fill="#282828"/>
<path d="M20.8582 145.24H22.1862L22.3142 146.328H22.3622C22.7782 145.923 23.1889 145.608 23.5942 145.384C24.0102 145.16 24.4635 145.048 24.9542 145.048C26.5542 145.048 27.3542 146.077 27.3542 148.136V153.064H25.7382V148.344C25.7382 147.672 25.6315 147.187 25.4182 146.888C25.2155 146.589 24.8795 146.44 24.4102 146.44C24.0582 146.44 23.7435 146.525 23.4662 146.696C23.1889 146.856 22.8582 147.128 22.4742 147.512V153.064H20.8582V145.24Z" fill="#282828"/>
<path d="M36.2456 148.744C36.2456 149.043 36.2242 149.32 36.1816 149.576H31.0136C31.0882 150.365 31.3549 150.968 31.8136 151.384C32.2829 151.789 32.8482 151.992 33.5096 151.992C34.1389 151.992 34.7629 151.795 35.3816 151.4L35.9416 152.424C35.1096 152.979 34.2296 153.256 33.3016 153.256C32.5869 153.256 31.9416 153.091 31.3656 152.76C30.7896 152.429 30.3309 151.955 29.9896 151.336C29.6589 150.717 29.4936 149.992 29.4936 149.16C29.4936 148.339 29.6589 147.619 29.9896 147C30.3309 146.371 30.7736 145.891 31.3176 145.56C31.8616 145.219 32.4429 145.048 33.0616 145.048C34.0749 145.048 34.8589 145.384 35.4136 146.056C35.9682 146.717 36.2456 147.613 36.2456 148.744ZM34.8376 148.456C34.8376 147.773 34.6882 147.245 34.3896 146.872C34.0909 146.499 33.6589 146.312 33.0936 146.312C32.6029 146.312 32.1656 146.493 31.7816 146.856C31.3976 147.219 31.1522 147.752 31.0456 148.456H34.8376Z" fill="#282828"/>
<path d="M37.5721 145.24H39.2041L40.2441 149.496L40.5641 151.096L40.6761 151.72H40.7401C40.9427 150.771 41.1134 150.029 41.2521 149.496L42.3561 145.24H43.8601L44.9801 149.496L45.3801 151.144C45.4014 151.272 45.4441 151.464 45.5081 151.72H45.5721C45.6894 151.155 45.7641 150.781 45.7961 150.6L46.0201 149.496L47.0441 145.24H48.5641L46.5321 153.064H44.5961L43.5881 149.176C43.4707 148.707 43.3534 148.179 43.2361 147.592L43.0921 146.904H43.0281C42.8254 147.939 42.6601 148.701 42.5321 149.192L41.5561 153.064H39.6841L37.5721 145.24Z" fill="#282828"/>
<path d="M54.0288 145.24H55.3568L55.4848 146.328H55.5328C55.9488 145.923 56.3595 145.608 56.7648 145.384C57.1808 145.16 57.6342 145.048 58.1248 145.048C59.7248 145.048 60.5248 146.077 60.5248 148.136V153.064H58.9088V148.344C58.9088 147.672 58.8021 147.187 58.5888 146.888C58.3861 146.589 58.0501 146.44 57.5808 146.44C57.2288 146.44 56.9141 146.525 56.6368 146.696C56.3595 146.856 56.0288 147.128 55.6448 147.512V153.064H54.0288V145.24Z" fill="#282828"/>
<path d="M66.3442 153.256C65.6935 153.256 65.0855 153.091 64.5202 152.76C63.9549 152.429 63.5015 151.955 63.1602 151.336C62.8295 150.717 62.6642 149.992 62.6642 149.16C62.6642 148.317 62.8295 147.587 63.1602 146.968C63.5015 146.349 63.9495 145.875 64.5042 145.544C65.0695 145.213 65.6829 145.048 66.3442 145.048C67.0055 145.048 67.6135 145.213 68.1682 145.544C68.7335 145.875 69.1815 146.349 69.5122 146.968C69.8535 147.587 70.0242 148.317 70.0242 149.16C70.0242 149.992 69.8535 150.717 69.5122 151.336C69.1815 151.955 68.7335 152.429 68.1682 152.76C67.6029 153.091 66.9949 153.256 66.3442 153.256ZM66.3442 151.928C66.9629 151.928 67.4535 151.677 67.8162 151.176C68.1789 150.664 68.3602 149.992 68.3602 149.16C68.3602 148.328 68.1735 147.656 67.8002 147.144C67.4375 146.632 66.9522 146.376 66.3442 146.376C65.7362 146.376 65.2455 146.632 64.8722 147.144C64.5095 147.656 64.3282 148.328 64.3282 149.16C64.3282 149.992 64.5095 150.664 64.8722 151.176C65.2349 151.677 65.7255 151.928 66.3442 151.928Z" fill="#282828"/>
<path d="M74.5741 153.256C72.9954 153.256 72.2061 152.344 72.2061 150.52V146.536H71.0701V145.32L72.2861 145.24L72.4781 143.08H73.8221V145.24H75.8701V146.536H73.8221V150.52C73.8221 151 73.9127 151.363 74.0941 151.608C74.2754 151.843 74.5687 151.96 74.9741 151.96C75.2194 151.96 75.5021 151.896 75.8221 151.768L76.1101 152.968C75.5341 153.16 75.0221 153.256 74.5741 153.256Z" fill="#282828"/>
<path d="M83.8531 148.744C83.8531 149.043 83.8317 149.32 83.7891 149.576H78.6211C78.6957 150.365 78.9624 150.968 79.4211 151.384C79.8904 151.789 80.4557 151.992 81.1171 151.992C81.7464 151.992 82.3704 151.795 82.9891 151.4L83.5491 152.424C82.7171 152.979 81.8371 153.256 80.9091 153.256C80.1944 153.256 79.5491 153.091 78.9731 152.76C78.3971 152.429 77.9384 151.955 77.5971 151.336C77.2664 150.717 77.1011 149.992 77.1011 149.16C77.1011 148.339 77.2664 147.619 77.5971 147C77.9384 146.371 78.3811 145.891 78.9251 145.56C79.4691 145.219 80.0504 145.048 80.6691 145.048C81.6824 145.048 82.4664 145.384 83.0211 146.056C83.5757 146.717 83.8531 147.613 83.8531 148.744ZM82.4451 148.456C82.4451 147.773 82.2957 147.245 81.9971 146.872C81.6984 146.499 81.2664 146.312 80.7011 146.312C80.2104 146.312 79.7731 146.493 79.3891 146.856C79.0051 147.219 78.7597 147.752 78.6531 148.456H82.4451Z" fill="#282828"/>
<path d="M86.7841 141.896C87.1467 141.896 87.4294 142.04 87.6321 142.328C87.8347 142.605 87.9361 143.005 87.9361 143.528C87.9361 144.851 87.3121 145.853 86.0641 146.536L85.6481 145.8C86.0854 145.533 86.4054 145.245 86.6081 144.936C86.8214 144.627 86.9281 144.248 86.9281 143.8C86.8961 143.811 86.8481 143.816 86.7841 143.816C86.5174 143.816 86.2881 143.736 86.0961 143.576C85.9147 143.405 85.8241 143.181 85.8241 142.904C85.8241 142.595 85.9094 142.349 86.0801 142.168C86.2614 141.987 86.4961 141.896 86.7841 141.896ZM89.8881 141.896C90.2507 141.896 90.5334 142.04 90.7361 142.328C90.9387 142.605 91.0401 143.005 91.0401 143.528C91.0401 144.851 90.4161 145.853 89.1681 146.536L88.7521 145.8C89.1894 145.533 89.5094 145.245 89.7121 144.936C89.9254 144.627 90.0321 144.248 90.0321 143.8C90.0001 143.811 89.9521 143.816 89.8881 143.816C89.6214 143.816 89.3921 143.736 89.2001 143.576C89.0187 143.405 88.9281 143.181 88.9281 142.904C88.9281 142.595 89.0134 142.349 89.1841 142.168C89.3654 141.987 89.6001 141.896 89.8881 141.896Z" fill="#282828"/>
<mask id="mask0" mask-type="alpha" maskUnits="userSpaceOnUse" x="4" y="0" width="98" height="98">
<path d="M53.2888 97.0639C80.0704 97.0639 101.781 75.3531 101.781 48.5715C101.781 21.7899 80.0704 0.0791016 53.2888 0.0791016C26.5072 0.0791016 4.79639 21.7899 4.79639 48.5715C4.79639 75.3531 26.5072 97.0639 53.2888 97.0639Z" fill="#5AB7B2"/>
</mask>
<g mask="url(#mask0)">
<path d="M81.383 101.956H25.1582C25.1523 98.2494 25.8825 94.578 27.3063 91.1552C28.7301 87.7324 30.8192 84.6264 33.4525 82.0172C33.6897 81.7801 33.9319 81.5532 34.1794 81.3213C34.9154 80.6388 35.6881 79.9969 36.4939 79.3985C37.0094 79.0016 37.5764 78.6304 38.1332 78.2696C38.6899 77.9087 39.2621 77.5685 39.8498 77.2386C40.0766 77.1097 40.2983 76.986 40.5251 76.8468C41.1897 76.4528 41.8254 76.0118 42.4272 75.5271C45.0144 73.4683 46.9777 70.7304 48.0977 67.6195V67.6195C48.7857 65.694 49.1345 63.6638 49.1286 61.6191L57.4384 61.6552C57.4318 64.3213 58.0274 66.9544 59.1806 69.3581C60.3338 71.7619 62.015 73.8742 64.0986 75.5374C64.2738 75.6818 64.4543 75.8158 64.6141 75.9498C64.7739 76.0839 65.1295 76.3158 65.3718 76.4653C65.6141 76.6148 65.7584 76.7179 65.9543 76.8365C66.1502 76.955 66.3925 77.0994 66.6193 77.2231H66.6709L66.7172 77.254C67.3668 77.6149 68.006 77.9963 68.6194 78.3984C68.8256 78.5325 69.0318 78.6665 69.2329 78.8108C69.4339 78.9552 69.7484 79.1923 70.0267 79.3933C73.5529 82.0035 76.4174 85.4048 78.3897 89.3236C80.3621 93.2423 81.3874 97.5693 81.383 101.956V101.956Z" fill="#A57561"/>
<path d="M81.383 101.956H25.1582C25.1523 98.2486 25.8825 94.5772 27.3063 91.1545C28.7301 87.7317 30.8192 84.6256 33.4525 82.0164C33.6897 81.7793 33.9319 81.5525 34.1794 81.3205C34.9154 80.6364 35.688 79.9928 36.4939 79.3926C37.0094 79.0008 37.5764 78.6245 38.1332 78.2688C38.6899 77.9131 39.2621 77.5677 39.8498 77.2378C40.0766 77.1089 40.2983 76.9852 40.5251 76.846C41.1897 76.452 41.8254 76.011 42.4272 75.5264C43.8396 76.97 45.526 78.117 47.3876 78.9001C49.2492 79.6832 51.2485 80.0866 53.2681 80.0866C55.2877 80.0866 57.2869 79.6832 59.1485 78.9001C61.0101 78.117 62.6965 76.97 64.1089 75.5264C64.2841 75.6707 64.4645 75.8047 64.6243 75.9388C64.7842 76.0728 65.1399 76.3048 65.3821 76.4543C65.6244 76.6038 65.7688 76.7069 65.9646 76.8254C66.1605 76.944 66.4028 77.0883 66.6296 77.212H66.6812L66.7276 77.2378C67.3771 77.5987 68.0163 77.9801 68.6297 78.3874C68.8359 78.5214 69.0421 78.6554 69.2432 78.7997C69.4442 78.9441 69.7587 79.1812 70.037 79.3823C73.5627 81.9946 76.426 85.3979 78.3967 89.3186C80.3673 93.2392 81.3902 97.5677 81.383 101.956V101.956Z" fill="#EB6D4A"/>
<path d="M31.6948 24.209V41.7976C31.6948 56.7469 44.809 68.8455 53.2734 68.8455C61.7378 68.8455 74.8519 56.7366 74.8519 41.7976V24.209H31.6948Z" fill="#A57561"/>
<path d="M31.6948 39.6798C32.2048 39.6798 32.6938 39.4773 33.0544 39.1167C33.415 38.7561 33.6176 38.267 33.6176 37.7571V25.5244H31.6948V39.6798Z" fill="#141720"/>
<path d="M74.8518 39.6798V25.5244H72.9238V37.7571C72.9238 38.01 72.9737 38.2604 73.0707 38.4941C73.1676 38.7277 73.3097 38.9399 73.4888 39.1185C73.6679 39.2971 73.8805 39.4386 74.1144 39.535C74.3482 39.6313 74.5988 39.6805 74.8518 39.6798V39.6798Z" fill="#141720"/>
<path d="M74.8466 24.9931C74.8466 27.5087 74.6765 28.1169 72.9238 27.9829C72.8516 26.7612 64.0882 25.7663 53.2783 25.7663C42.4685 25.7663 33.6896 26.7612 33.6226 27.9829C31.8648 28.1169 31.6998 27.5087 31.6998 24.9931C31.6998 24.7456 31.6998 24.4776 31.6998 24.2095C31.9679 17.9978 35.4732 6.38379 53.2629 6.38379C71.0525 6.38379 74.5527 17.9978 74.8208 24.2095C74.8414 24.4827 74.8466 24.7456 74.8466 24.9931Z" fill="#141720"/>
<path d="M64.1296 75.4033C62.0467 81.5166 58.2974 86.9265 53.3042 91.0227C48.3107 86.9268 44.5612 81.5169 42.4789 75.4033L42.5613 75.4342C45.5167 78.081 49.3446 79.5446 53.3119 79.5446C57.2793 79.5446 61.1072 78.081 64.0626 75.4342L64.1296 75.4033Z" fill="white"/>
<g style="mix-blend-mode:multiply" opacity="0.5">
<path d="M53.2784 6.3584V101.962H25.1583C25.1514 98.2547 25.8816 94.5834 27.3064 91.1613C28.7312 87.7391 30.8222 84.6344 33.4577 82.0276C34.0196 81.4605 34.6176 80.9192 35.231 80.3986C35.6382 80.0584 36.0609 79.7233 36.4939 79.4037C37.2924 78.8102 38.1218 78.2596 38.9786 77.7541C39.2673 77.5823 39.5577 77.4105 39.8498 77.2386C40.7582 76.7442 41.6208 76.1697 42.4273 75.522C45.0159 73.4604 46.9794 70.7187 48.0977 67.6041C40.3137 64.176 31.6741 53.9177 31.6741 41.7882V24.2099C31.9834 17.9931 35.4887 6.3584 53.2784 6.3584Z" fill="#ECC19C"/>
</g>
</g>
</svg>
