<svg viewBox="0 0 97 97" fill="none" xmlns="http://www.w3.org/2000/svg">
<mask id="mask0" mask-type="alpha" maskUnits="userSpaceOnUse" x="0" y="0" width="97" height="97">
<path d="M48.0436 96.3955C74.5532 96.3955 96.0436 74.9052 96.0436 48.3955C96.0436 21.8858 74.5532 0.395508 48.0436 0.395508C21.5339 0.395508 0.0435791 21.8858 0.0435791 48.3955C0.0435791 74.9052 21.5339 96.3955 48.0436 96.3955Z" fill="#E9EAE6"/>
</mask>
<g mask="url(#mask0)">
<path d="M69.408 27.3324V43.2882C69.408 43.5178 69.408 43.7474 69.408 43.9821C69.408 44.4618 69.3723 44.9363 69.3314 45.4108C69.3314 45.5741 69.3162 45.7442 69.2855 45.9211C69.2192 46.5997 69.1223 47.2631 68.9998 47.9264C68.959 48.1458 68.9181 48.3601 68.8671 48.5744C68.8617 48.6192 68.8532 48.6635 68.8416 48.7071C68.8008 48.9265 68.7446 49.1408 68.6936 49.3551C68.6936 49.4725 68.6426 49.5848 68.6171 49.7021C68.5916 49.8195 68.5661 49.9011 68.5354 50.0032C68.4232 50.4318 68.3007 50.8553 68.1681 51.2737C68.1068 51.4727 68.0405 51.6666 67.9742 51.8656C67.9742 51.8656 67.9742 51.9064 67.9742 51.9268L67.7854 52.4371L67.7241 52.6004C67.6629 52.7688 67.5966 52.9372 67.5302 53.1107C67.4639 53.2841 67.3669 53.5138 67.2853 53.7128C67.2037 53.9118 67.1322 54.0699 67.0557 54.223C67.0557 54.2536 67.0302 54.2791 67.02 54.3097C66.9332 54.4985 66.8465 54.6873 66.7598 54.871C66.673 55.0547 66.5761 55.2588 66.474 55.4527C66.2852 55.8354 66.0811 56.2181 65.877 56.5906L65.5913 57.1009C64.7867 58.4718 63.8774 59.7785 62.8716 61.0094C62.7389 61.1829 62.6029 61.353 62.4634 61.5197C62.2695 61.7544 62.0705 61.984 61.8715 62.2136C61.6725 62.4433 61.5143 62.6117 61.3306 62.8056C60.8203 63.3464 60.3101 63.8618 59.7998 64.3363C59.6927 64.4435 59.5855 64.5353 59.4732 64.6374C59.361 64.7394 59.1161 64.9588 58.9324 65.1119C58.7487 65.265 58.6415 65.3568 58.4987 65.4793C58.1211 65.7906 57.7435 66.0865 57.3608 66.3672C57.2026 66.4896 57.0393 66.6019 56.8761 66.7141C56.6158 66.9029 56.3658 67.0815 56.08 67.255C55.9321 67.357 55.779 67.4489 55.631 67.5407C55.1208 67.8724 54.5544 68.1735 54.0186 68.4388L53.6257 68.6327L53.2175 68.8215C53.044 68.8997 52.8739 68.9729 52.7072 69.0409C52.641 69.0709 52.5728 69.0965 52.5031 69.1175C52.299 69.1991 52.0898 69.2807 51.8857 69.3471C51.6816 69.4134 51.3755 69.5206 51.1101 69.592C50.9315 69.643 50.7479 69.694 50.5693 69.7348H50.5335C50.355 69.7757 50.1764 69.8165 50.0233 69.8522L49.8804 69.8777C49.7324 69.9032 49.5845 69.9288 49.4416 69.9441C49.2987 69.9594 49.0232 70.0002 48.814 70.0104C48.7426 70.0156 48.671 70.0156 48.5996 70.0104C48.4313 70.0104 48.2629 70.0104 48.0894 70.0104C47.9261 70.0104 47.756 70.0104 47.5791 70.0104C47.5163 70.0156 47.4532 70.0156 47.3903 70.0104C47.2424 70.0104 47.0893 70.0104 46.9362 69.9696H46.8342L46.2474 69.8777C46.079 69.8522 45.9106 69.8165 45.7371 69.7706C44.7909 69.5505 43.8681 69.2395 42.9817 68.8419C42.1511 68.4733 41.3465 68.0488 40.5733 67.5714C40.1702 67.3264 39.7671 67.0611 39.3691 66.7856L38.7721 66.3569C38.1461 65.9011 37.5288 65.4045 36.9199 64.867L36.4096 64.4077L35.8993 63.9485C35.4911 63.5539 35.0931 63.144 34.7053 62.7188C34.5522 62.5555 34.4009 62.3854 34.2512 62.2085C33.8328 61.734 33.4246 61.2492 33.0317 60.739C32.8786 60.5553 32.7357 60.3665 32.598 60.1777C32.0673 59.4736 31.557 58.7405 31.0672 57.9785L30.6947 57.3611C30.5467 57.1162 30.4038 56.8508 30.2661 56.611C29.7343 55.6593 29.2573 54.678 28.8373 53.6719C28.7761 53.5239 28.7098 53.376 28.6588 53.2331C28.6077 53.0902 28.5006 52.8504 28.4343 52.6616C28.3288 52.3827 28.2284 52.1054 28.1332 51.8299C28.0362 51.5544 27.9495 51.2686 27.8628 50.9829C27.776 50.6971 27.6995 50.4369 27.628 50.1613C27.5566 49.8858 27.4648 49.5694 27.3984 49.2633C27.3984 49.2327 27.3984 49.2021 27.3984 49.1663C27.2998 48.7479 27.2113 48.3227 27.1331 47.8907C27.0259 47.3243 26.9443 46.7477 26.8831 46.166C26.8575 45.9823 26.8422 45.7986 26.8269 45.615C26.8116 45.4313 26.7912 45.2323 26.781 45.0384C26.7555 44.6863 26.7402 44.3291 26.73 43.9719C26.73 43.7423 26.73 43.5127 26.73 43.278V27.3324C26.73 21.6711 28.9776 16.2413 32.9788 12.2362C36.9801 8.23115 42.4077 5.97839 48.069 5.97298V5.97298C49.6597 5.96854 51.246 6.13967 52.7991 6.48324C57.5199 7.56301 61.7342 10.2139 64.7516 14.0016C67.7691 17.7894 69.4108 22.4896 69.408 27.3324V27.3324Z" fill="#ECC19C"/>
<path d="M75.8731 102.825H20.2192C20.2116 99.7688 20.7098 96.7326 21.6939 93.8392C21.8673 93.329 22.0561 92.8187 22.2602 92.3085C22.4643 91.7982 22.6787 91.3237 22.9083 90.8389C23.8223 88.9183 24.9558 87.1101 26.2862 85.4506C26.623 85.0373 26.9648 84.6341 27.3067 84.2463C27.4802 84.0473 27.6639 83.8535 27.8476 83.6596L28.4038 83.0932C29.3422 82.1583 30.3466 81.2921 31.4092 80.5011C31.9194 80.1082 32.4756 79.7408 33.0318 79.3836C33.588 79.0264 34.1544 78.6948 34.731 78.3631C34.9555 78.2406 35.1749 78.1131 35.3994 77.9753C35.8331 77.7151 36.2668 77.4293 36.675 77.1232C36.8842 76.9752 37.0832 76.8221 37.2822 76.6639C37.7568 76.2863 38.2109 75.8832 38.6446 75.4597L39.0681 75.0311C39.3641 74.7249 39.6396 74.4086 39.905 74.082C40.0376 73.9238 40.1652 73.7605 40.2877 73.5973C40.4101 73.434 40.5326 73.2656 40.655 73.087C42.7847 70.1111 43.9253 66.5412 43.9156 62.8818H47.9722H52.141C52.1375 65.5196 52.7283 68.1242 53.8697 70.5023C55.011 72.8803 56.6734 74.9707 58.7335 76.618C58.9274 76.7762 59.1213 76.9292 59.3152 77.067C59.5091 77.2048 59.6979 77.3426 59.8969 77.4752L60.0194 77.5569C60.2081 77.6844 60.3969 77.8069 60.5959 77.9243C60.7949 78.0416 61.0297 78.1845 61.2542 78.307C61.2893 78.3155 61.3223 78.3311 61.3511 78.3529C61.8103 78.608 62.2696 78.8631 62.7135 79.154C62.9278 79.2866 63.1421 79.4193 63.3514 79.5724C63.7868 79.8547 64.212 80.1541 64.627 80.4705C65.6867 81.263 66.6893 82.1292 67.6273 83.0625C70.245 85.6441 72.3224 88.7212 73.7381 92.1143C75.1539 95.5073 75.8796 99.1483 75.8731 102.825V102.825Z" fill="#ECC19C"/>
<path d="M75.873 102.851H20.2192C20.2087 99.7859 20.707 96.7408 21.6938 93.8394C21.8673 93.3291 22.0561 92.8188 22.2602 92.3086C22.4592 91.7983 22.6786 91.3238 22.9082 90.839C23.8222 88.9184 24.9557 87.1103 26.2861 85.4507C26.6229 85.0374 26.9648 84.6343 27.3067 84.2465C27.4801 84.0475 27.6638 83.8536 27.8475 83.6597L28.4037 83.0933C29.3422 82.1584 30.3465 81.2922 31.4091 80.5012C31.9194 80.1083 32.4756 79.7409 33.0317 79.3837C33.5879 79.0265 34.1543 78.6898 34.7309 78.3632L35.3993 77.9805C36.0539 77.5846 36.6797 77.143 37.272 76.6589C38.6659 78.0892 40.3323 79.2257 42.1727 80.0013C44.0131 80.7769 45.9903 81.1759 47.9874 81.1747H48.0282C50.0247 81.1746 52.0011 80.7754 53.8412 80.0008C55.6813 79.2262 57.3481 78.0918 58.7437 76.664C59.1147 76.9727 59.5013 77.2623 59.902 77.5315L60.0244 77.6131C60.2132 77.7407 60.4071 77.8581 60.601 77.9805C60.7949 78.103 61.0347 78.2356 61.2592 78.3581C61.2931 78.37 61.3256 78.3854 61.3562 78.404C61.8154 78.6592 62.2747 78.9143 62.7186 79.2102C62.9329 79.3429 63.1472 79.4756 63.3564 79.6286C63.7901 79.9093 64.2188 80.2103 64.6321 80.5267C68.1143 83.1158 70.9438 86.4822 72.8954 90.3578C74.8469 94.2335 75.8665 98.5113 75.873 102.851Z" fill="#C7D4E2"/>
<path d="M64.8566 14.1575C63.8131 16.5037 62.4664 18.703 60.851 20.699L60.5602 21.046C57.2378 25.0482 52.9135 28.0978 48.0282 29.8837C46.7229 30.3651 45.3842 30.7505 44.0227 31.0369C43.1042 31.2308 42.1705 31.3822 41.2214 31.491C40.1149 31.6134 39.0026 31.6747 37.8894 31.6747C36.62 31.6756 35.3518 31.5937 34.0931 31.4298C32.8888 31.2803 31.6956 31.0519 30.5213 30.746C29.8528 30.5776 29.2048 30.3837 28.5568 30.1694C27.9087 29.9551 27.3015 29.7306 26.6892 29.4755V27.3324C26.6892 21.6711 28.9368 16.2413 32.938 12.2362C36.9393 8.23115 42.3669 5.97839 48.0282 5.97298C49.6189 5.96854 51.2052 6.13967 52.7583 6.48324C57.5418 7.57663 61.8051 10.2784 64.8361 14.1371L64.8566 14.1575Z" fill="#D8D06A"/>
<path d="M69.408 27.3323V31.5368C65.7609 28.7142 62.751 25.1532 60.5755 21.0867C60.5755 21.0867 60.5755 21.0867 60.5755 21.0867C58.3872 16.9979 57.098 12.4885 56.7944 7.86084C60.5483 9.54768 63.7353 12.2823 65.9729 15.7363C68.2104 19.1904 69.4032 23.2169 69.408 27.3323V27.3323Z" fill="#D8D06A"/>
<path d="M29.1895 28.9756C28.965 29.3685 28.7609 29.7716 28.5568 30.19C28.4803 30.3533 28.3986 30.5268 28.3221 30.7002C27.3616 32.7712 26.8089 35.0077 26.6943 37.2877C26.6943 37.3438 26.6943 37.4101 26.6943 37.4663V29.2307C26.6943 28.9347 26.6943 28.649 26.6943 28.3633C27.5261 28.5827 28.3578 28.7919 29.1895 28.9756Z" fill="#D8D06A"/>
<path d="M66.9128 28.9744C67.2292 29.5305 67.515 30.1021 67.7854 30.6889C68.7756 32.8145 69.3308 35.1166 69.4182 37.46V29.2295C69.4182 28.9386 69.4182 28.6529 69.4182 28.3672C68.5814 28.5815 67.7548 28.7907 66.9128 28.9744Z" fill="#D8D06A"/>
<path d="M48.0435 55.0541C50.932 55.0541 53.2737 54.33 53.2737 53.4366C53.2737 52.5433 50.932 51.8191 48.0435 51.8191C45.155 51.8191 42.8134 52.5433 42.8134 53.4366C42.8134 54.33 45.155 55.0541 48.0435 55.0541Z" fill="#ECC19C"/>
<path d="M32.7663 79.5725V108.433H30.5365V81.2002C30.8376 80.9604 31.1335 80.7206 31.4396 80.4961C31.8989 80.1695 32.3173 79.8889 32.7663 79.5725Z" fill="#435363"/>
<path d="M63.3257 79.5771V102.825V108.432H65.5555V102.825V81.2049L63.3257 79.5771Z" fill="#435363"/>
<path d="M41.9409 77.8066L48.0436 85.1238L54.1463 77.8066H41.9409Z" fill="#141720"/>
<path d="M48.0436 115.428H44.436L47.0434 81.8533C47.1506 82.2819 48.9365 82.2819 49.0488 81.8533L51.6562 115.428H48.0436Z" fill="#141720"/>
<path d="M48.0436 77.771V77.7965L45.4923 82.052L43.1247 86.0117L36.7209 77.1076C36.9251 76.9597 37.1292 76.8015 37.323 76.6382C38.6121 75.6131 39.7493 74.4106 40.701 73.0664L48.0181 77.7251L48.0436 77.771Z" fill="#E7ECF2"/>
<path d="M59.3764 77.123L52.9676 86.0117L50.6 82.0469L48.0487 77.7914V77.7557L55.4117 73.0664C56.3666 74.4095 57.5054 75.6119 58.7947 76.6382C58.9886 76.827 59.1825 76.9801 59.3764 77.123Z" fill="#E7ECF2"/>
<g style="mix-blend-mode:multiply" opacity="0.5">
<path d="M48.0282 5.97391V102.852H20.2192C20.2087 99.7869 20.707 96.7418 21.6938 93.8404C21.8673 93.3301 22.0561 92.8199 22.2602 92.3096C22.4592 91.7994 22.6786 91.3248 22.9082 90.8401C23.8222 88.9195 24.9557 87.1113 26.2861 85.4517C26.6229 85.0384 26.9648 84.6353 27.3067 84.2475C27.4801 84.0485 27.6638 83.8546 27.8475 83.6607L28.4037 83.0944C29.0717 82.4295 29.7734 81.7993 30.506 81.2064C30.807 80.9666 31.103 80.7268 31.4091 80.5022C31.8428 80.1757 32.2868 79.8746 32.7358 79.5787L33.0317 79.3848C33.5862 79.0446 34.1526 78.7044 34.7309 78.3643L35.3993 77.9816C35.8331 77.7162 36.2617 77.4305 36.6699 77.1243C36.874 76.9764 37.0781 76.8182 37.272 76.6549C39.8293 74.6136 41.772 71.9046 42.8849 68.8275C42.0543 68.4589 41.2496 68.0344 40.4764 67.557C40.0733 67.3172 39.6753 67.0467 39.2722 66.7712L38.6752 66.3426C38.0493 65.8867 37.4319 65.3901 36.823 64.8526L36.3127 64.3934L35.8025 63.9341C35.3943 63.5395 34.9962 63.1296 34.6084 62.7044C34.4554 62.5411 34.304 62.3711 34.1543 62.1942C33.7359 61.7196 33.3277 61.2349 32.9348 60.7246C32.7817 60.5409 32.6388 60.3521 32.5011 60.1633C31.9704 59.4592 31.4602 58.7261 30.9703 57.9641L30.5978 57.3467C30.4498 57.1018 30.307 56.8364 30.1692 56.5966C29.6374 55.6449 29.1604 54.6636 28.7405 53.6576C28.6792 53.5096 28.6129 53.3616 28.5619 53.2187C28.5109 53.0758 28.4037 52.836 28.3374 52.6472C28.2319 52.3683 28.1316 52.091 28.0363 51.8155C27.9394 51.54 27.8526 51.2542 27.7659 50.9685C27.6792 50.6827 27.6026 50.4225 27.5312 50.147C27.4597 49.8714 27.3679 49.5551 27.3015 49.2489C27.3015 49.2183 27.3015 49.1877 27.3015 49.1571C27.2029 48.7387 27.1144 48.3134 27.0362 47.8814C26.929 47.315 26.8474 46.7384 26.7862 46.1568C26.7607 45.9731 26.7454 45.7894 26.7301 45.6057C26.7147 45.422 26.6944 45.223 26.6842 45.0291C26.6586 44.677 26.6433 44.3198 26.6331 43.9626C26.6331 43.733 26.6331 43.5034 26.6331 43.2687V27.3333C26.6331 24.5253 27.1868 21.7449 28.2624 19.1511C29.3381 16.5574 30.9146 14.2012 32.9018 12.2173C34.889 10.2334 37.2478 8.66083 39.8434 7.58952C42.439 6.51821 45.2203 5.96921 48.0282 5.97391V5.97391Z" fill="#ECC19C"/>
</g>
</g>
</svg>
