<svg width="112" height="176" viewBox="0 0 112 176" fill="none" xmlns="http://www.w3.org/2000/svg">
<path d="M2.04653 122.785C2.3132 122.785 2.5372 122.871 2.71853 123.041C2.91053 123.201 3.00653 123.42 3.00653 123.697C3.00653 124.007 2.91586 124.252 2.73453 124.433C2.56386 124.615 2.33453 124.705 2.04653 124.705C1.68386 124.705 1.4012 124.567 1.19853 124.289C0.995864 124.001 0.894531 123.596 0.894531 123.073C0.894531 121.751 1.51853 120.748 2.76653 120.065L3.18253 120.801C2.7452 121.068 2.41986 121.356 2.20653 121.665C2.00386 121.975 1.90253 122.353 1.90253 122.801C1.93453 122.791 1.98253 122.785 2.04653 122.785ZM5.15053 122.785C5.4172 122.785 5.6412 122.871 5.82253 123.041C6.01453 123.201 6.11053 123.42 6.11053 123.697C6.11053 124.007 6.01987 124.252 5.83853 124.433C5.66786 124.615 5.43853 124.705 5.15053 124.705C4.78787 124.705 4.5052 124.567 4.30253 124.289C4.09987 124.001 3.99853 123.596 3.99853 123.073C3.99853 121.751 4.62253 120.748 5.87053 120.065L6.28653 120.801C5.8492 121.068 5.52387 121.356 5.31053 121.665C5.10787 121.975 5.00653 122.353 5.00653 122.801C5.03853 122.791 5.08653 122.785 5.15053 122.785Z" fill="#282828"/>
<path d="M9.02266 120.657H10.6547V131.137H9.02266V120.657Z" fill="#282828"/>
<path d="M16.2644 123.313H17.8964L18.9364 127.569L19.2564 129.169L19.3684 129.793H19.4324C19.6351 128.844 19.8057 128.103 19.9444 127.569L21.0484 123.313H22.5524L23.6724 127.569L24.0724 129.217C24.0937 129.345 24.1364 129.537 24.2004 129.793H24.2644C24.3817 129.228 24.4564 128.855 24.4884 128.673L24.7124 127.569L25.7364 123.313H27.2564L25.2244 131.137H23.2884L22.2804 127.249C22.1631 126.78 22.0457 126.252 21.9284 125.665L21.7844 124.977H21.7204C21.5177 126.012 21.3524 126.775 21.2244 127.265L20.2484 131.137H18.3764L16.2644 123.313Z" fill="#282828"/>
<path d="M30.8978 131.329C30.2151 131.329 29.6604 131.127 29.2338 130.721C28.8071 130.305 28.5938 129.751 28.5938 129.057C28.5938 128.215 28.9671 127.569 29.7138 127.121C30.4604 126.663 31.6498 126.343 33.2818 126.161C33.2604 125.009 32.7591 124.433 31.7778 124.433C31.1164 124.433 30.3644 124.7 29.5218 125.233L28.9138 124.145C29.9804 123.463 31.0311 123.121 32.0658 123.121C33.0151 123.121 33.7244 123.409 34.1938 123.985C34.6631 124.551 34.8978 125.367 34.8978 126.433V131.137H33.5698L33.4418 130.241H33.3938C32.5298 130.967 31.6978 131.329 30.8978 131.329ZM31.3938 130.049C31.7244 130.049 32.0338 129.975 32.3218 129.825C32.6098 129.676 32.9298 129.441 33.2818 129.121V127.185C32.1511 127.324 31.3458 127.537 30.8658 127.825C30.3964 128.113 30.1618 128.487 30.1618 128.945C30.1618 129.308 30.2738 129.585 30.4978 129.777C30.7218 129.959 31.0204 130.049 31.3938 130.049Z" fill="#282828"/>
<path d="M37.5337 123.313H38.8617L38.9897 124.401H39.0377C39.4537 123.996 39.8643 123.681 40.2697 123.457C40.6857 123.233 41.139 123.121 41.6297 123.121C43.2297 123.121 44.0297 124.151 44.0297 126.209V131.137H42.4137V126.417C42.4137 125.745 42.307 125.26 42.0937 124.961C41.891 124.663 41.555 124.513 41.0857 124.513C40.7337 124.513 40.419 124.599 40.1417 124.769C39.8643 124.929 39.5337 125.201 39.1497 125.585V131.137H37.5337V123.313Z" fill="#282828"/>
<path d="M49.337 131.329C47.7584 131.329 46.969 130.417 46.969 128.593V124.609H45.833V123.393L47.049 123.313L47.241 121.153H48.585V123.313H50.633V124.609H48.585V128.593C48.585 129.073 48.6757 129.436 48.857 129.681C49.0384 129.916 49.3317 130.033 49.737 130.033C49.9824 130.033 50.265 129.969 50.585 129.841L50.873 131.041C50.297 131.233 49.785 131.329 49.337 131.329Z" fill="#282828"/>
<path d="M58.7895 131.329C57.2109 131.329 56.4215 130.417 56.4215 128.593V124.609H55.2855V123.393L56.5015 123.313L56.6935 121.153H58.0375V123.313H60.0855V124.609H58.0375V128.593C58.0375 129.073 58.1282 129.436 58.3095 129.681C58.4909 129.916 58.7842 130.033 59.1895 130.033C59.4349 130.033 59.7175 129.969 60.0375 129.841L60.3255 131.041C59.7495 131.233 59.2375 131.329 58.7895 131.329Z" fill="#282828"/>
<path d="M64.9965 131.329C64.3459 131.329 63.7379 131.164 63.1725 130.833C62.6072 130.503 62.1539 130.028 61.8125 129.409C61.4819 128.791 61.3165 128.065 61.3165 127.233C61.3165 126.391 61.4819 125.66 61.8125 125.041C62.1539 124.423 62.6019 123.948 63.1565 123.617C63.7219 123.287 64.3352 123.121 64.9965 123.121C65.6579 123.121 66.2659 123.287 66.8205 123.617C67.3859 123.948 67.8339 124.423 68.1645 125.041C68.5059 125.66 68.6765 126.391 68.6765 127.233C68.6765 128.065 68.5059 128.791 68.1645 129.409C67.8339 130.028 67.3859 130.503 66.8205 130.833C66.2552 131.164 65.6472 131.329 64.9965 131.329ZM64.9965 130.001C65.6152 130.001 66.1059 129.751 66.4685 129.249C66.8312 128.737 67.0125 128.065 67.0125 127.233C67.0125 126.401 66.8259 125.729 66.4525 125.217C66.0899 124.705 65.6045 124.449 64.9965 124.449C64.3885 124.449 63.8979 124.705 63.5245 125.217C63.1619 125.729 62.9805 126.401 62.9805 127.233C62.9805 128.065 63.1619 128.737 63.5245 129.249C63.8872 129.751 64.3779 130.001 64.9965 130.001Z" fill="#282828"/>
<path d="M74.438 123.313H75.766L75.894 124.401H75.942C76.326 124.007 76.71 123.697 77.094 123.473C77.4887 123.239 77.91 123.121 78.358 123.121C79.4354 123.121 80.1554 123.601 80.518 124.561C80.9554 124.092 81.3714 123.735 81.766 123.489C82.1714 123.244 82.6034 123.121 83.062 123.121C83.862 123.121 84.4594 123.388 84.854 123.921C85.2594 124.444 85.462 125.207 85.462 126.209V131.137H83.846V126.417C83.846 125.745 83.7394 125.26 83.526 124.961C83.3234 124.663 82.9927 124.513 82.534 124.513C82.0007 124.513 81.4087 124.871 80.758 125.585V131.137H79.142V126.417C79.142 125.745 79.0354 125.26 78.822 124.961C78.6194 124.663 78.2887 124.513 77.83 124.513C77.2967 124.513 76.7047 124.871 76.054 125.585V131.137H74.438V123.313Z" fill="#282828"/>
<path d="M91.2847 131.329C90.634 131.329 90.026 131.164 89.4606 130.833C88.8953 130.503 88.442 130.028 88.1006 129.409C87.77 128.791 87.6047 128.065 87.6047 127.233C87.6047 126.391 87.77 125.66 88.1006 125.041C88.442 124.423 88.89 123.948 89.4447 123.617C90.01 123.287 90.6233 123.121 91.2847 123.121C91.946 123.121 92.554 123.287 93.1087 123.617C93.674 123.948 94.122 124.423 94.4527 125.041C94.794 125.66 94.9646 126.391 94.9646 127.233C94.9646 128.065 94.794 128.791 94.4527 129.409C94.122 130.028 93.674 130.503 93.1087 130.833C92.5433 131.164 91.9353 131.329 91.2847 131.329ZM91.2847 130.001C91.9033 130.001 92.394 129.751 92.7567 129.249C93.1193 128.737 93.3007 128.065 93.3007 127.233C93.3007 126.401 93.114 125.729 92.7406 125.217C92.378 124.705 91.8927 124.449 91.2847 124.449C90.6767 124.449 90.186 124.705 89.8127 125.217C89.45 125.729 89.2686 126.401 89.2686 127.233C89.2686 128.065 89.45 128.737 89.8127 129.249C90.1753 129.751 90.666 130.001 91.2847 130.001Z" fill="#282828"/>
<path d="M96.0849 123.313H97.7329L99.0769 127.537L99.7649 129.873H99.8289L100.517 127.537L101.861 123.313H103.429L100.725 131.137H98.8529L96.0849 123.313Z" fill="#282828"/>
<path d="M111.309 126.817C111.309 127.116 111.288 127.393 111.245 127.649H106.077C106.152 128.439 106.419 129.041 106.877 129.457C107.347 129.863 107.912 130.065 108.573 130.065C109.202 130.065 109.826 129.868 110.445 129.473L111.005 130.497C110.173 131.052 109.293 131.329 108.365 131.329C107.65 131.329 107.005 131.164 106.429 130.833C105.853 130.503 105.394 130.028 105.053 129.409C104.722 128.791 104.557 128.065 104.557 127.233C104.557 126.412 104.722 125.692 105.053 125.073C105.394 124.444 105.837 123.964 106.381 123.633C106.925 123.292 107.506 123.121 108.125 123.121C109.138 123.121 109.922 123.457 110.477 124.129C111.032 124.791 111.309 125.687 111.309 126.817ZM109.901 126.529C109.901 125.847 109.752 125.319 109.453 124.945C109.154 124.572 108.722 124.385 108.157 124.385C107.666 124.385 107.229 124.567 106.845 124.929C106.461 125.292 106.216 125.825 106.109 126.529H109.901Z" fill="#282828"/>
<path d="M5.96866 145.313H7.58466V153.137H5.96866V145.313ZM6.78466 143.841C6.49666 143.841 6.25666 143.751 6.06466 143.569C5.88332 143.388 5.79266 143.153 5.79266 142.865C5.79266 142.588 5.88332 142.359 6.06466 142.177C6.25666 141.996 6.49666 141.905 6.78466 141.905C7.07266 141.905 7.30732 141.996 7.48866 142.177C7.68066 142.359 7.77666 142.588 7.77666 142.865C7.77666 143.153 7.68066 143.388 7.48866 143.569C7.30732 143.751 7.07266 143.841 6.78466 143.841Z" fill="#282828"/>
<path d="M12.9908 153.329C11.4121 153.329 10.6228 152.417 10.6228 150.593V146.609H9.48678V145.393L10.7028 145.313L10.8948 143.153H12.2388V145.313H14.2868V146.609H12.2388V150.593C12.2388 151.073 12.3294 151.436 12.5108 151.681C12.6921 151.916 12.9854 152.033 13.3908 152.033C13.6361 152.033 13.9188 151.969 14.2388 151.841L14.5268 153.041C13.9508 153.233 13.4388 153.329 12.9908 153.329Z" fill="#282828"/>
<path d="M22.2698 148.817C22.2698 149.116 22.2484 149.393 22.2058 149.649H17.0378C17.1124 150.439 17.3791 151.041 17.8378 151.457C18.3071 151.863 18.8724 152.065 19.5338 152.065C20.1631 152.065 20.7871 151.868 21.4058 151.473L21.9658 152.497C21.1338 153.052 20.2538 153.329 19.3258 153.329C18.6111 153.329 17.9658 153.164 17.3898 152.833C16.8138 152.503 16.3551 152.028 16.0138 151.409C15.6831 150.791 15.5178 150.065 15.5178 149.233C15.5178 148.412 15.6831 147.692 16.0138 147.073C16.3551 146.444 16.7978 145.964 17.3418 145.633C17.8858 145.292 18.4671 145.121 19.0858 145.121C20.0991 145.121 20.8831 145.457 21.4378 146.129C21.9924 146.791 22.2698 147.687 22.2698 148.817ZM20.8618 148.529C20.8618 147.847 20.7124 147.319 20.4138 146.945C20.1151 146.572 19.6831 146.385 19.1178 146.385C18.6271 146.385 18.1898 146.567 17.8058 146.929C17.4218 147.292 17.1764 147.825 17.0698 148.529H20.8618Z" fill="#282828"/>
<path d="M24.413 145.313H25.741L25.869 146.401H25.917C26.301 146.007 26.685 145.697 27.069 145.473C27.4637 145.239 27.885 145.121 28.333 145.121C29.4104 145.121 30.1304 145.601 30.493 146.561C30.9304 146.092 31.3464 145.735 31.741 145.489C32.1464 145.244 32.5784 145.121 33.037 145.121C33.837 145.121 34.4344 145.388 34.829 145.921C35.2344 146.444 35.437 147.207 35.437 148.209V153.137H33.821V148.417C33.821 147.745 33.7144 147.26 33.501 146.961C33.2984 146.663 32.9677 146.513 32.509 146.513C31.9757 146.513 31.3837 146.871 30.733 147.585V153.137H29.117V148.417C29.117 147.745 29.0104 147.26 28.797 146.961C28.5944 146.663 28.2637 146.513 27.805 146.513C27.2717 146.513 26.6797 146.871 26.029 147.585V153.137H24.413V145.313Z" fill="#282828"/>
<path d="M40.2517 153.329C39.729 153.329 39.2063 153.228 38.6837 153.025C38.161 152.823 37.7023 152.561 37.3077 152.241L38.0757 151.201C38.449 151.489 38.8117 151.713 39.1637 151.873C39.5157 152.023 39.8943 152.097 40.2997 152.097C40.7477 152.097 41.089 152.001 41.3237 151.809C41.5583 151.607 41.6757 151.351 41.6757 151.041C41.6757 150.721 41.5317 150.471 41.2437 150.289C40.9557 150.097 40.5237 149.895 39.9477 149.681C39.2543 149.425 38.705 149.132 38.2997 148.801C37.8943 148.46 37.6917 147.996 37.6917 147.409C37.6917 146.737 37.9423 146.188 38.4437 145.761C38.945 145.335 39.6223 145.121 40.4757 145.121C41.393 145.121 42.2357 145.425 43.0037 146.033L42.2517 147.041C41.953 146.817 41.665 146.647 41.3877 146.529C41.1103 146.412 40.817 146.353 40.5077 146.353C40.0917 146.353 39.7717 146.444 39.5477 146.625C39.3343 146.807 39.2277 147.041 39.2277 147.329C39.2277 147.543 39.3023 147.724 39.4517 147.873C39.601 148.012 39.7717 148.124 39.9637 148.209C40.1663 148.295 40.481 148.417 40.9077 148.577C41.377 148.748 41.7663 148.924 42.0757 149.105C42.3957 149.276 42.6623 149.511 42.8757 149.809C43.0997 150.108 43.2117 150.487 43.2117 150.945C43.2117 151.393 43.0943 151.799 42.8597 152.161C42.6357 152.513 42.2997 152.796 41.8517 153.009C41.4037 153.223 40.8703 153.329 40.2517 153.329Z" fill="#282828"/>
<path d="M51.4033 153.329C49.8246 153.329 49.0353 152.417 49.0353 150.593V146.609H47.8993V145.393L49.1153 145.313L49.3073 143.153H50.6513V145.313H52.6993V146.609H50.6513V150.593C50.6513 151.073 50.7419 151.436 50.9233 151.681C51.1046 151.916 51.3979 152.033 51.8033 152.033C52.0486 152.033 52.3313 151.969 52.6513 151.841L52.9393 153.041C52.3633 153.233 51.8513 153.329 51.4033 153.329Z" fill="#282828"/>
<path d="M57.6103 153.329C56.9596 153.329 56.3516 153.164 55.7863 152.833C55.2209 152.503 54.7676 152.028 54.4263 151.409C54.0956 150.791 53.9303 150.065 53.9303 149.233C53.9303 148.391 54.0956 147.66 54.4263 147.041C54.7676 146.423 55.2156 145.948 55.7703 145.617C56.3356 145.287 56.9489 145.121 57.6103 145.121C58.2716 145.121 58.8796 145.287 59.4343 145.617C59.9996 145.948 60.4476 146.423 60.7783 147.041C61.1196 147.66 61.2903 148.391 61.2903 149.233C61.2903 150.065 61.1196 150.791 60.7783 151.409C60.4476 152.028 59.9996 152.503 59.4343 152.833C58.869 153.164 58.2609 153.329 57.6103 153.329ZM57.6103 152.001C58.2289 152.001 58.7196 151.751 59.0823 151.249C59.4449 150.737 59.6263 150.065 59.6263 149.233C59.6263 148.401 59.4396 147.729 59.0663 147.217C58.7036 146.705 58.2183 146.449 57.6103 146.449C57.0023 146.449 56.5116 146.705 56.1383 147.217C55.7756 147.729 55.5943 148.401 55.5943 149.233C55.5943 150.065 55.7756 150.737 56.1383 151.249C56.501 151.751 56.9916 152.001 57.6103 152.001Z" fill="#282828"/>
<path d="M68.9078 153.329C68.2251 153.329 67.6705 153.127 67.2438 152.721C66.8171 152.305 66.6038 151.751 66.6038 151.057C66.6038 150.215 66.9771 149.569 67.7238 149.121C68.4705 148.663 69.6598 148.343 71.2918 148.161C71.2704 147.009 70.7691 146.433 69.7878 146.433C69.1264 146.433 68.3745 146.7 67.5318 147.233L66.9238 146.145C67.9904 145.463 69.0411 145.121 70.0758 145.121C71.0251 145.121 71.7344 145.409 72.2038 145.985C72.6731 146.551 72.9078 147.367 72.9078 148.433V153.137H71.5798L71.4518 152.241H71.4038C70.5398 152.967 69.7078 153.329 68.9078 153.329ZM69.4038 152.049C69.7344 152.049 70.0438 151.975 70.3318 151.825C70.6198 151.676 70.9398 151.441 71.2918 151.121V149.185C70.1611 149.324 69.3558 149.537 68.8758 149.825C68.4064 150.113 68.1718 150.487 68.1718 150.945C68.1718 151.308 68.2838 151.585 68.5078 151.777C68.7318 151.959 69.0304 152.049 69.4038 152.049Z" fill="#282828"/>
<path d="M79.0668 145.313H80.3948L80.5228 146.401H80.5708C80.9868 145.996 81.3974 145.681 81.8028 145.457C82.2188 145.233 82.6721 145.121 83.1628 145.121C84.7628 145.121 85.5628 146.151 85.5628 148.209V153.137H83.9468V148.417C83.9468 147.745 83.8401 147.26 83.6268 146.961C83.4241 146.663 83.0881 146.513 82.6188 146.513C82.2668 146.513 81.9521 146.599 81.6748 146.769C81.3974 146.929 81.0668 147.201 80.6828 147.585V153.137H79.0668V145.313Z" fill="#282828"/>
<path d="M94.4541 148.817C94.4541 149.116 94.4328 149.393 94.3902 149.649H89.2222C89.2968 150.439 89.5635 151.041 90.0222 151.457C90.4915 151.863 91.0568 152.065 91.7182 152.065C92.3475 152.065 92.9715 151.868 93.5901 151.473L94.1501 152.497C93.3181 153.052 92.4381 153.329 91.5101 153.329C90.7955 153.329 90.1501 153.164 89.5741 152.833C88.9981 152.503 88.5395 152.028 88.1982 151.409C87.8675 150.791 87.7021 150.065 87.7021 149.233C87.7021 148.412 87.8675 147.692 88.1982 147.073C88.5395 146.444 88.9822 145.964 89.5262 145.633C90.0702 145.292 90.6515 145.121 91.2701 145.121C92.2835 145.121 93.0675 145.457 93.6221 146.129C94.1768 146.791 94.4541 147.687 94.4541 148.817ZM93.0461 148.529C93.0461 147.847 92.8968 147.319 92.5981 146.945C92.2995 146.572 91.8675 146.385 91.3022 146.385C90.8115 146.385 90.3741 146.567 89.9901 146.929C89.6061 147.292 89.3608 147.825 89.2542 148.529H93.0461Z" fill="#282828"/>
<path d="M95.7807 145.313H97.4127L98.4527 149.569L98.7727 151.169L98.8847 151.793H98.9487C99.1513 150.844 99.322 150.103 99.4607 149.569L100.565 145.313H102.069L103.189 149.569L103.589 151.217C103.61 151.345 103.653 151.537 103.717 151.793H103.781C103.898 151.228 103.973 150.855 104.005 150.673L104.229 149.569L105.253 145.313H106.773L104.741 153.137H102.805L101.797 149.249C101.679 148.78 101.562 148.252 101.445 147.665L101.301 146.977H101.237C101.034 148.012 100.869 148.775 100.741 149.265L99.7646 153.137H97.8927L95.7807 145.313Z" fill="#282828"/>
<path d="M26.49 175.329C25.9246 175.329 25.514 175.159 25.258 174.817C25.002 174.476 24.874 173.975 24.874 173.313V163.793H26.49V173.409C26.49 173.612 26.5273 173.761 26.602 173.857C26.6766 173.953 26.7673 174.001 26.874 174.001C26.97 174.001 27.066 173.991 27.162 173.969L27.37 175.185C27.1246 175.281 26.8313 175.329 26.49 175.329Z" fill="#282828"/>
<path d="M32.5487 175.329C31.8981 175.329 31.2901 175.164 30.7247 174.833C30.1594 174.503 29.7061 174.028 29.3647 173.409C29.0341 172.791 28.8687 172.065 28.8687 171.233C28.8687 170.391 29.0341 169.66 29.3647 169.041C29.7061 168.423 30.1541 167.948 30.7087 167.617C31.2741 167.287 31.8874 167.121 32.5487 167.121C33.2101 167.121 33.8181 167.287 34.3727 167.617C34.9381 167.948 35.3861 168.423 35.7167 169.041C36.0581 169.66 36.2287 170.391 36.2287 171.233C36.2287 172.065 36.0581 172.791 35.7167 173.409C35.3861 174.028 34.9381 174.503 34.3727 174.833C33.8074 175.164 33.1994 175.329 32.5487 175.329ZM32.5487 174.001C33.1674 174.001 33.6581 173.751 34.0207 173.249C34.3834 172.737 34.5647 172.065 34.5647 171.233C34.5647 170.401 34.3781 169.729 34.0047 169.217C33.6421 168.705 33.1567 168.449 32.5487 168.449C31.9407 168.449 31.4501 168.705 31.0767 169.217C30.7141 169.729 30.5327 170.401 30.5327 171.233C30.5327 172.065 30.7141 172.737 31.0767 173.249C31.4394 173.751 31.9301 174.001 32.5487 174.001Z" fill="#282828"/>
<path d="M41.6511 175.329C40.9471 175.329 40.3124 175.169 39.7471 174.849C39.1818 174.519 38.7338 174.044 38.4031 173.425C38.0831 172.807 37.9231 172.076 37.9231 171.233C37.9231 170.391 38.0991 169.66 38.4511 169.041C38.8031 168.423 39.2724 167.948 39.8591 167.617C40.4458 167.287 41.0858 167.121 41.7791 167.121C42.6324 167.121 43.3951 167.42 44.0671 168.017L43.2671 169.073C43.0324 168.871 42.8031 168.716 42.5791 168.609C42.3551 168.503 42.1151 168.449 41.8591 168.449C41.1871 168.449 40.6378 168.705 40.2111 169.217C39.7951 169.729 39.5871 170.401 39.5871 171.233C39.5871 172.065 39.7898 172.737 40.1951 173.249C40.6111 173.751 41.1498 174.001 41.8111 174.001C42.3978 174.001 42.9684 173.761 43.5231 173.281L44.1951 174.353C43.8431 174.673 43.4431 174.919 42.9951 175.089C42.5578 175.249 42.1098 175.329 41.6511 175.329Z" fill="#282828"/>
<path d="M47.8306 175.329C47.1479 175.329 46.5933 175.127 46.1666 174.721C45.7399 174.305 45.5266 173.751 45.5266 173.057C45.5266 172.215 45.8999 171.569 46.6466 171.121C47.3933 170.663 48.5826 170.343 50.2146 170.161C50.1933 169.009 49.6919 168.433 48.7106 168.433C48.0493 168.433 47.2973 168.7 46.4546 169.233L45.8466 168.145C46.9133 167.463 47.9639 167.121 48.9986 167.121C49.9479 167.121 50.6573 167.409 51.1266 167.985C51.5959 168.551 51.8306 169.367 51.8306 170.433V175.137H50.5026L50.3746 174.241H50.3266C49.4626 174.967 48.6306 175.329 47.8306 175.329ZM48.3266 174.049C48.6573 174.049 48.9666 173.975 49.2546 173.825C49.5426 173.676 49.8626 173.441 50.2146 173.121V171.185C49.0839 171.324 48.2786 171.537 47.7986 171.825C47.3293 172.113 47.0946 172.487 47.0946 172.945C47.0946 173.308 47.2066 173.585 47.4306 173.777C47.6546 173.959 47.9533 174.049 48.3266 174.049Z" fill="#282828"/>
<path d="M56.8561 175.329C55.2774 175.329 54.4881 174.417 54.4881 172.593V168.609H53.3521V167.393L54.5681 167.313L54.7601 165.153H56.1041V167.313H58.1521V168.609H56.1041V172.593C56.1041 173.073 56.1948 173.436 56.3761 173.681C56.5574 173.916 56.8508 174.033 57.2561 174.033C57.5014 174.033 57.7841 173.969 58.1041 173.841L58.3921 175.041C57.8161 175.233 57.3041 175.329 56.8561 175.329Z" fill="#282828"/>
<path d="M60.1615 167.313H61.7775V175.137H60.1615V167.313ZM60.9775 165.841C60.6895 165.841 60.4495 165.751 60.2575 165.569C60.0761 165.388 59.9855 165.153 59.9855 164.865C59.9855 164.588 60.0761 164.359 60.2575 164.177C60.4495 163.996 60.6895 163.905 60.9775 163.905C61.2655 163.905 61.5001 163.996 61.6815 164.177C61.8735 164.359 61.9695 164.588 61.9695 164.865C61.9695 165.153 61.8735 165.388 61.6815 165.569C61.5001 165.751 61.2655 165.841 60.9775 165.841Z" fill="#282828"/>
<path d="M67.6956 175.329C67.0449 175.329 66.4369 175.164 65.8716 174.833C65.3063 174.503 64.8529 174.028 64.5116 173.409C64.1809 172.791 64.0156 172.065 64.0156 171.233C64.0156 170.391 64.1809 169.66 64.5116 169.041C64.8529 168.423 65.3009 167.948 65.8556 167.617C66.4209 167.287 67.0343 167.121 67.6956 167.121C68.3569 167.121 68.9649 167.287 69.5196 167.617C70.0849 167.948 70.5329 168.423 70.8636 169.041C71.2049 169.66 71.3756 170.391 71.3756 171.233C71.3756 172.065 71.2049 172.791 70.8636 173.409C70.5329 174.028 70.0849 174.503 69.5196 174.833C68.9543 175.164 68.3463 175.329 67.6956 175.329ZM67.6956 174.001C68.3143 174.001 68.8049 173.751 69.1676 173.249C69.5303 172.737 69.7116 172.065 69.7116 171.233C69.7116 170.401 69.5249 169.729 69.1516 169.217C68.7889 168.705 68.3036 168.449 67.6956 168.449C67.0876 168.449 66.5969 168.705 66.2236 169.217C65.8609 169.729 65.6796 170.401 65.6796 171.233C65.6796 172.065 65.8609 172.737 66.2236 173.249C66.5863 173.751 67.0769 174.001 67.6956 174.001Z" fill="#282828"/>
<path d="M73.614 167.313H74.942L75.07 168.401H75.118C75.534 167.996 75.9446 167.681 76.35 167.457C76.766 167.233 77.2193 167.121 77.71 167.121C79.31 167.121 80.11 168.151 80.11 170.209V175.137H78.494V170.417C78.494 169.745 78.3873 169.26 78.174 168.961C77.9713 168.663 77.6353 168.513 77.166 168.513C76.814 168.513 76.4993 168.599 76.222 168.769C75.9446 168.929 75.614 169.201 75.23 169.585V175.137H73.614V167.313Z" fill="#282828"/>
<path d="M83.4249 163.969C83.7875 163.969 84.0702 164.113 84.2728 164.401C84.4755 164.679 84.5768 165.079 84.5768 165.601C84.5768 166.924 83.9528 167.927 82.7048 168.609L82.2888 167.873C82.7262 167.607 83.0462 167.319 83.2488 167.009C83.4622 166.7 83.5688 166.321 83.5688 165.873C83.5368 165.884 83.4889 165.889 83.4249 165.889C83.1582 165.889 82.9288 165.809 82.7368 165.649C82.5555 165.479 82.4648 165.255 82.4648 164.977C82.4648 164.668 82.5502 164.423 82.7208 164.241C82.9022 164.06 83.1369 163.969 83.4249 163.969ZM86.5288 163.969C86.8915 163.969 87.1742 164.113 87.3768 164.401C87.5795 164.679 87.6808 165.079 87.6808 165.601C87.6808 166.924 87.0568 167.927 85.8088 168.609L85.3928 167.873C85.8302 167.607 86.1502 167.319 86.3528 167.009C86.5662 166.7 86.6729 166.321 86.6729 165.873C86.6409 165.884 86.5928 165.889 86.5288 165.889C86.2622 165.889 86.0329 165.809 85.8409 165.649C85.6595 165.479 85.5688 165.255 85.5688 164.977C85.5688 164.668 85.6542 164.423 85.8248 164.241C86.0062 164.06 86.2408 163.969 86.5288 163.969Z" fill="#282828"/>
<mask id="mask0" mask-type="alpha" maskUnits="userSpaceOnUse" x="9" y="0" width="97" height="98">
<path d="M57.1894 97.1372C83.7431 97.1372 105.269 75.6112 105.269 49.0574C105.269 22.5036 83.7431 0.977539 57.1894 0.977539C30.6356 0.977539 9.1095 22.5036 9.1095 49.0574C9.1095 75.6112 30.6356 97.1372 57.1894 97.1372Z" fill="#F3E4B2"/>
</mask>
<g mask="url(#mask0)">
<path d="M78.6048 27.9536V43.936C78.6048 44.166 78.6048 44.396 78.6048 44.6311C78.6048 44.8662 78.6048 45.0042 78.6048 45.1933C78.6048 45.3824 78.6048 45.5306 78.5741 45.7044C78.5434 45.8782 78.5741 45.9446 78.5485 46.0673C78.523 46.1899 78.5485 46.2104 78.5485 46.2819C78.5485 46.3535 78.5485 46.5477 78.5076 46.6806C78.5076 46.931 78.4565 47.1917 78.4208 47.4319C78.4208 47.4933 78.4208 47.5597 78.3952 47.621C78.3697 47.6824 78.3594 47.8715 78.339 47.9993L78.2419 48.5461C78.1959 48.7966 78.1499 49.0572 78.0937 49.2975C78.0937 49.2975 78.0937 49.2975 78.0937 49.3281C78.0962 49.3656 78.0962 49.4031 78.0937 49.4406C78.0937 49.4406 78.0937 49.4406 78.0937 49.4713C78.0681 49.6093 78.0374 49.737 78.0068 49.8699C77.9982 49.9289 77.9845 49.9871 77.9659 50.0437C77.9659 50.1408 77.925 50.2328 77.9045 50.3299C77.8841 50.427 77.879 50.4424 77.8586 50.4935C77.8381 50.5446 77.833 50.5906 77.8228 50.6315C77.7103 51.0608 77.5877 51.485 77.4548 51.9041C77.3934 52.1034 77.327 52.2977 77.2606 52.497C77.2606 52.497 77.2606 52.5379 77.2606 52.5583L77.0714 53.0694L77.0101 53.233C76.9488 53.4017 76.8823 53.5703 76.8159 53.7441C76.7494 53.9179 76.6523 54.1479 76.5706 54.3472C76.4888 54.5465 76.4172 54.705 76.3406 54.8583C76.3406 54.889 76.315 54.9145 76.3048 54.9452C76.2179 55.1343 76.131 55.3234 76.0441 55.5074C75.9572 55.6914 75.8601 55.8959 75.7579 56.0901C75.5688 56.4734 75.3643 56.8567 75.1599 57.2299L74.8737 57.741C74.0806 59.111 73.1835 60.4182 72.1904 61.6509C72.0575 61.8247 71.9212 61.9951 71.7815 62.162C71.5873 62.3971 71.388 62.6271 71.1886 62.8571C70.9893 63.0871 70.8308 63.2558 70.6468 63.45C70.1357 63.9918 69.6246 64.508 69.1135 64.9833C69.0062 65.0907 68.8989 65.1827 68.7864 65.2849C68.674 65.3871 68.4286 65.6069 68.2446 65.7602C68.0606 65.9136 67.9533 66.0056 67.8102 66.1282C67.432 66.44 67.0537 66.7364 66.6704 67.0176C66.512 67.1402 66.3484 67.2527 66.1849 67.3651C65.9242 67.5542 65.6738 67.7331 65.3875 67.9069C65.2393 68.0091 65.086 68.1011 64.9378 68.1931C64.4267 68.5253 63.8593 68.8269 63.3227 69.0926L62.9291 69.2869L62.5202 69.476C62.3465 69.5543 62.1761 69.6276 62.0091 69.6958C61.9428 69.7258 61.8744 69.7515 61.8047 69.7724C61.6002 69.8542 61.3907 69.936 61.1862 70.0024C60.9818 70.0689 60.6751 70.1762 60.4094 70.2478C60.2305 70.2989 60.0465 70.35 59.8676 70.3909H59.8318C59.6529 70.4318 59.474 70.4726 59.3207 70.5084L59.1776 70.534C59.0294 70.5595 58.8811 70.5851 58.738 70.6004C58.5949 70.6158 58.3189 70.6566 58.1094 70.6669C58.0379 70.6721 57.9662 70.6721 57.8947 70.6669C57.7261 70.6669 57.5574 70.6669 57.3836 70.6669C57.2201 70.6669 57.0497 70.6669 56.8725 70.6669C56.8096 70.6721 56.7463 70.6721 56.6834 70.6669C56.5352 70.6669 56.3818 70.6669 56.2285 70.626H56.1263L55.5385 70.5289C55.3699 70.5033 55.2012 70.4675 55.0274 70.4215C54.0796 70.2011 53.1553 69.8896 52.2674 69.4913C51.4355 69.122 50.6295 68.6969 49.855 68.2187C49.4512 67.9733 49.0474 67.7075 48.6488 67.4316L47.8566 67.0431C47.2296 66.5865 46.6112 66.089 46.0012 65.5507L45.4901 65.0907L44.979 64.6307C44.5701 64.2354 44.1715 63.8248 43.783 63.3989C43.6297 63.2354 43.4781 63.065 43.3282 62.8878C42.9091 62.4125 42.5002 61.9269 42.1066 61.4158C41.9533 61.2318 41.8102 61.0427 41.6722 60.8536C41.1406 60.1483 40.6295 59.414 40.1388 58.6507L39.7657 58.0323C39.6175 57.787 39.4744 57.5212 39.3364 57.281C38.8038 56.3277 38.326 55.3447 37.9053 54.337C37.844 54.1888 37.7775 54.0405 37.7264 53.8974C37.6753 53.7543 37.568 53.5141 37.5015 53.325C37.3959 53.0456 37.2954 52.7679 37.2 52.4919C37.1029 52.2159 37.016 51.9297 36.9291 51.6435C36.8422 51.3572 36.7655 51.0966 36.694 50.8206C36.6224 50.5446 36.5304 50.2277 36.464 49.921C36.464 49.8903 36.464 49.8597 36.464 49.8239C36.3652 49.4048 36.2766 48.9789 36.1982 48.5461C36.0909 47.9788 36.0091 47.4013 35.9478 46.8186C35.9222 46.6346 35.9069 46.4506 35.8915 46.2666C35.8762 46.0826 35.8558 45.8833 35.8455 45.689C35.82 45.3364 35.8047 44.9786 35.7944 44.6208C35.7944 44.3908 35.7944 44.1608 35.7944 43.9257V27.9536C35.7944 22.2829 38.0457 16.8441 42.0536 12.8323C46.0615 8.8206 51.4982 6.5641 57.1689 6.55868V6.55868C58.7622 6.55423 60.3512 6.72564 61.9069 7.06979C66.6196 8.13232 70.8342 10.7582 73.865 14.5203C76.8958 18.2823 78.5645 22.9592 78.5997 27.7901C78.6048 27.8259 78.6048 27.8923 78.6048 27.9536Z" fill="#ECC19C"/>
<path d="M85.0856 103.577H29.3391C29.3348 100.515 29.8373 97.4738 30.8265 94.5763C31.0002 94.0652 31.1894 93.554 31.3938 93.0429C31.5931 92.5318 31.8129 92.0565 32.0429 91.571C32.9606 89.6413 34.0995 87.8249 35.4367 86.1583C35.774 85.7443 36.1164 85.3405 36.4589 84.9521C36.6327 84.7528 36.8166 84.5586 37.0006 84.3643L37.5578 83.797C38.4978 82.8606 39.5038 81.9929 40.5682 81.2006C41.0793 80.807 41.6364 80.439 42.1935 80.0813C42.7506 79.7235 43.3179 79.3913 43.8955 79.059C44.1204 78.9364 44.3401 78.8086 44.565 78.6706C45.2318 78.2812 45.8705 77.8457 46.4766 77.3673C48.5538 75.7177 50.2307 73.6193 51.3814 71.2293C52.5322 68.8394 53.1268 66.2199 53.121 63.5674H57.1843H61.36C61.3493 66.2176 61.9388 68.8359 63.0842 71.2258C64.2296 73.6158 65.9012 75.7154 67.9737 77.3673C68.3472 77.6749 68.7362 77.9632 69.1391 78.231L69.2617 78.3128C69.4508 78.4406 69.64 78.5633 69.8393 78.6808C70.0386 78.7984 70.2737 78.9415 70.4986 79.0642C70.5338 79.0727 70.5668 79.0884 70.5957 79.1102C71.0557 79.3657 71.5157 79.6213 71.9604 79.9126C72.175 80.0455 72.3897 80.1784 72.5992 80.3317C73.0337 80.6077 73.463 80.9144 73.877 81.2312C74.3881 81.6248 74.8992 82.0439 75.4103 82.4783C75.9214 82.9128 76.3968 83.3626 76.867 83.8277C79.4762 86.4115 81.5462 89.4878 82.9571 92.878C84.3679 96.2682 85.0914 99.9048 85.0856 103.577V103.577Z" fill="#ECC19C"/>
<path d="M85.0856 103.572H29.334C29.3296 100.51 29.8322 97.4689 30.8213 94.5714C30.9951 94.0602 31.1842 93.5491 31.3887 93.038C31.588 92.5269 31.8078 92.0516 32.0378 91.566C32.9554 89.6364 34.0943 87.82 35.4315 86.1534C35.7688 85.7394 36.1113 85.3356 36.4537 84.9472C36.6275 84.7479 36.8115 84.5536 36.9955 84.3594L37.5526 83.7921C38.4926 82.8556 39.4987 81.9879 40.563 81.1957C41.0741 80.8021 41.6312 80.4341 42.1884 80.0763C42.4797 79.8923 42.7659 79.7135 43.0623 79.5652C43.3588 79.417 43.6143 79.2432 43.8903 79.0899L44.5599 78.7066C45.2155 78.31 45.8423 77.8677 46.4356 77.3828V77.3828C47.8319 78.8155 49.501 79.9538 51.3445 80.7307C53.188 81.5076 55.1684 81.9073 57.1689 81.9061H57.2098C59.2096 81.9059 61.1892 81.5062 63.0324 80.7303C64.8756 79.9544 66.5451 78.818 67.943 77.3879C68.3147 77.6971 68.702 77.9871 69.1033 78.2568L69.2259 78.3386C69.415 78.4664 69.6093 78.5839 69.8035 78.7066C69.9977 78.8292 70.2379 78.9621 70.4628 79.0848C70.4949 79.097 70.5257 79.1124 70.5548 79.1308C70.8001 79.2688 71.0659 79.4119 71.2959 79.555C71.5259 79.6981 71.715 79.8055 71.9195 79.9383C72.1239 80.0712 72.3488 80.2041 72.5584 80.3575C72.9928 80.6335 73.4221 80.9401 73.8361 81.257C74.3472 81.6557 74.889 82.0697 75.3694 82.5092C75.8499 82.9488 76.3559 83.3934 76.8261 83.8585C79.4384 86.4348 81.5135 89.5037 82.9313 92.8876C84.349 96.2715 85.0813 99.9031 85.0856 103.572V103.572Z" fill="#EB6D4A"/>
<path d="M78.6048 43.936C78.6048 44.166 78.6048 44.396 78.6048 44.6311C78.6048 44.8662 78.6048 45.0042 78.6048 45.1933C78.6048 45.3824 78.6048 45.5306 78.5741 45.7044C78.5434 45.8782 78.5741 45.9447 78.5485 46.0673C78.523 46.19 78.5485 46.2104 78.5485 46.282C78.5485 46.3535 78.5485 46.5478 78.5076 46.6806C78.4821 46.9311 78.4565 47.1917 78.4208 47.432C78.4208 47.4933 78.4208 47.5597 78.3952 47.6211C78.3697 47.6824 78.3594 47.8715 78.339 47.9993C78.3186 48.1271 78.2777 48.3775 78.2419 48.5615C78.2061 48.7455 78.1601 48.996 78.109 49.2106C78.1036 49.2555 78.095 49.2999 78.0834 49.3435C78.0834 49.3793 78.0834 49.4151 78.0834 49.456C78.0834 49.4969 78.0834 49.456 78.0834 49.4866C78.0862 49.5087 78.0862 49.531 78.0834 49.5531C78.0579 49.6655 78.0374 49.7728 78.0068 49.8853C77.9982 49.9443 77.9845 50.0024 77.9659 50.0591C77.9459 50.1626 77.9203 50.265 77.8892 50.3657C77.8841 50.4144 77.8738 50.4624 77.8586 50.5088C77.8586 50.5548 77.833 50.6059 77.8228 50.6468C77.7103 51.0762 77.5877 51.5004 77.4548 51.9195C77.3934 52.1188 77.327 52.313 77.2606 52.5124C77.2606 52.5124 77.2606 52.5533 77.2606 52.5737L77.0714 53.0848L77.0101 53.2484C76.9488 53.417 76.8823 53.5857 76.8159 53.7595C76.7494 53.9333 76.6523 54.1632 76.5706 54.3626C76.4888 54.5619 76.4172 54.7204 76.3406 54.8737C76.3406 54.9044 76.315 54.9299 76.3048 54.9606C76.2179 55.1497 76.131 55.3388 76.0441 55.5228C75.9572 55.7068 75.8601 55.9112 75.7579 56.1055C75.5688 56.4888 75.3643 56.8721 75.1599 57.2452L74.8737 57.7563C74.0806 59.1264 73.1835 60.4336 72.1904 61.6663C72.0575 61.8401 71.9212 62.0105 71.7815 62.1774C71.5873 62.4125 71.388 62.6425 71.1886 62.8725C70.9893 63.1025 70.8308 63.2712 70.6468 63.4654C70.1357 64.0072 69.6246 64.5234 69.1135 64.9987C69.0062 65.1061 68.8989 65.1981 68.7864 65.3003C68.674 65.4025 68.4286 65.6223 68.2446 65.7756C68.0606 65.9289 67.9533 66.0209 67.8102 66.1436C67.432 66.4554 67.0537 66.7518 66.6704 67.0329C66.512 67.1556 66.3484 67.268 66.1849 67.3805C65.9242 67.5696 65.6738 67.7485 65.3875 67.9223C65.2393 68.0245 65.086 68.1165 64.9378 68.2085C64.4267 68.5407 63.8593 68.8423 63.3227 69.108L62.9291 69.3023L62.5202 69.4914C62.3465 69.5697 62.1761 69.643 62.0091 69.7111C61.9428 69.7412 61.8744 69.7668 61.8047 69.7878C61.6002 69.8696 61.3907 69.9514 61.1862 70.0178C60.9818 70.0842 60.6751 70.1916 60.4094 70.2631C60.2305 70.3142 60.0465 70.3654 59.8676 70.4062H59.8318C59.6529 70.4471 59.474 70.488 59.3207 70.5238L59.1776 70.5494C59.0294 70.5749 58.8811 70.6005 58.738 70.6158C58.5949 70.6311 58.3189 70.672 58.1094 70.6822C58.0379 70.6874 57.9662 70.6874 57.8947 70.6822C57.7261 70.6822 57.5574 70.6822 57.3836 70.6822C57.2201 70.6822 57.0497 70.6822 56.8725 70.6822C56.8096 70.6875 56.7463 70.6875 56.6834 70.6822C56.5352 70.6822 56.3818 70.6822 56.2285 70.6413H56.1263L55.5385 70.5442C55.3699 70.5187 55.2012 70.4829 55.0274 70.4369C54.0796 70.2165 53.1553 69.905 52.2674 69.5067C51.4355 69.1374 50.6295 68.7122 49.855 68.234C49.4512 67.9938 49.0525 67.7229 48.6488 67.4469L47.8566 67.0432C47.2296 66.5866 46.6112 66.0891 46.0012 65.5507L45.4901 65.0907L44.979 64.6307C44.5701 64.2355 44.1715 63.8249 43.783 63.399C43.6297 63.2354 43.4781 63.065 43.3282 62.8879C42.9091 62.4125 42.5002 61.927 42.1066 61.4159C41.9533 61.2319 41.8102 61.0428 41.6722 60.8536C41.1406 60.1483 40.6295 59.414 40.1388 58.6508L39.7657 58.0323C39.6175 57.787 39.4744 57.5212 39.3364 57.281C38.8038 56.3277 38.326 55.3448 37.9053 54.337C37.844 54.1888 37.7775 54.0406 37.7264 53.8975C37.6753 53.7544 37.568 53.5141 37.5015 53.325C37.3959 53.0456 37.2954 52.7679 37.2 52.4919C37.1029 52.2159 37.016 51.9297 36.9291 51.6435C36.8422 51.3573 36.7655 51.0966 36.694 50.8206C36.6224 50.5446 36.5304 50.2277 36.464 49.9211C36.464 49.8904 36.464 49.8597 36.464 49.8239C36.3652 49.4048 36.2766 48.9789 36.1982 48.5462C36.0909 47.9789 36.0091 47.4013 35.9478 46.8186C35.9222 46.6347 35.9069 46.4506 35.8915 46.2666C35.8762 46.0826 35.8558 45.8833 35.8455 45.6891C35.82 45.3364 35.8047 44.9787 35.7944 44.6209C35.7944 44.3909 35.7944 44.1609 35.7944 43.9258L39.2086 50.6417L45.0761 53.1973L52.0425 53.8566L57.1894 54.3268H57.2201L62.0347 54.7612L72.7679 55.7272L78.6048 43.936Z" fill="#543E36"/>
<path d="M57.2353 47.3091V52.4866V60.4548L36.5662 49.9362C36.5662 49.9055 36.5662 49.8749 36.5662 49.8391C36.4673 49.42 36.3788 48.9941 36.3004 48.5613C36.1931 47.994 36.1113 47.4165 36.0499 46.8338C36.0244 46.6498 36.0091 46.4658 35.9937 46.2818C35.9784 46.0978 35.9579 45.8985 35.9477 45.7042C35.9222 45.3516 35.9068 44.9938 35.8966 44.636C35.8966 44.406 35.8966 44.176 35.8966 43.9409V37.6543C35.8966 37.7412 35.8966 37.8332 35.8966 37.9201C35.9522 39.5762 36.2045 41.2199 36.6479 42.8165C36.9841 44.0574 37.4323 45.2651 37.987 46.4249V46.4249C39.3619 49.2871 41.207 51.2344 42.9039 51.536L43.2259 51.5718C43.9047 51.6487 44.5872 51.6879 45.2703 51.6893C47.9485 51.6893 50.3303 49.5324 51.8278 48.6636H51.8585L52.0834 48.5204L52.1447 48.4847C53.723 47.6704 55.4802 47.2645 57.2558 47.304L57.2353 47.3091Z" fill="#543E36"/>
<path d="M78.6097 37.6543V43.9358C78.6082 45.4786 78.4679 47.0181 78.1906 48.5358C78.0781 49.1338 77.9555 49.7266 77.8072 50.3195L72.9568 57.3268L57.225 60.4446V47.2938H57.2658C59.0413 47.2551 60.7983 47.661 62.3769 48.4744L62.4332 48.5102L62.6631 48.6533H62.6887C64.1914 49.5273 66.568 51.6842 69.2462 51.6842C69.9293 51.6828 70.6118 51.6436 71.2906 51.5666L71.6177 51.5309C73.3095 51.214 75.1597 49.2718 76.5295 46.4198C77.0842 45.26 77.5324 44.0523 77.8686 42.8114C78.3199 41.1921 78.5722 39.5238 78.6199 37.8434C78.6097 37.7821 78.6097 37.7207 78.6097 37.6543Z" fill="#543E36"/>
<path d="M57.2098 55.7267C60.1031 55.7267 62.4486 55.0014 62.4486 54.1065C62.4486 53.2117 60.1031 52.4863 57.2098 52.4863C54.3165 52.4863 51.9709 53.2117 51.9709 54.1065C51.9709 55.0014 54.3165 55.7267 57.2098 55.7267Z" fill="#ECC19C"/>
<path d="M57.2148 6.56348C51.5441 6.5689 46.1074 8.82539 42.0995 12.8371C38.0916 16.8489 35.8403 22.2877 35.8403 27.9584V37.3884C35.8403 37.3884 36.7297 31.7662 39.1216 29.0266C41.7181 26.0571 41.0587 21.544 46.8854 21.544C50.642 21.544 50.8516 22.9291 57.2148 22.9291H57.2455C63.6088 22.9291 63.8184 21.544 67.575 21.544C73.3965 21.544 72.7423 26.0571 75.3387 29.0266C77.7307 31.7611 78.62 37.3884 78.62 37.3884V27.9533C78.6193 25.1433 78.0651 22.3609 76.989 19.765C75.9128 17.1692 74.3359 14.8108 72.3482 12.8245C70.3604 10.8382 68.0009 9.26293 65.4043 8.18866C62.8077 7.11438 60.0249 6.56214 57.2148 6.56348V6.56348Z" fill="#543E36"/>
<g style="mix-blend-mode:multiply" opacity="0.5">
<path d="M57.1944 6.56348V103.582H29.339C29.3346 100.52 29.8372 97.4788 30.8263 94.5812C31.0001 94.0701 31.1892 93.559 31.3937 93.0479C31.593 92.5368 31.8128 92.0615 32.0428 91.5759C32.9605 89.6463 34.0994 87.8299 35.4365 86.1633C35.7739 85.7493 36.1163 85.3455 36.4588 84.9571C36.6325 84.7578 36.8165 84.5636 37.0005 84.3693L37.5576 83.802C38.4977 82.8656 39.5037 81.9979 40.568 81.2056C41.0792 80.812 41.6363 80.444 42.1934 80.0863C42.7505 79.7285 43.3178 79.3911 43.8954 79.064L44.5649 78.6807C45.2205 78.2841 45.8473 77.8418 46.4407 77.3569C49.0058 75.3156 50.9524 72.601 52.0628 69.5166C51.2309 69.1473 50.4249 68.7221 49.6504 68.2439C49.2467 68.0037 48.848 67.7328 48.4442 67.4568L47.8564 67.0428C47.2295 66.5862 46.611 66.0887 46.0011 65.5504L45.49 65.0904L44.9789 64.6304C44.57 64.2351 44.1714 63.8245 43.7829 63.3986C43.6296 63.235 43.478 63.0647 43.328 62.8875C42.9089 62.4122 42.5 61.9266 42.1065 61.4155C41.9531 61.2315 41.81 61.0424 41.672 60.8533C41.1405 60.148 40.6294 59.4137 40.1387 58.6504L39.7656 58.032C39.6174 57.7866 39.4743 57.5209 39.3363 57.2807C38.8036 56.3273 38.3258 55.3444 37.9052 54.3367C37.8438 54.1884 37.7774 54.0402 37.7263 53.8971C37.6752 53.754 37.5678 53.5138 37.5014 53.3247C37.3958 53.0453 37.2953 52.7676 37.1998 52.4916C37.1027 52.2156 37.0159 51.9294 36.929 51.6431C36.8421 51.3569 36.7654 51.0962 36.6939 50.8202C36.6223 50.5442 36.5303 50.2274 36.4639 49.9207C36.4639 49.89 36.4639 49.8594 36.4639 49.8236C36.365 49.4045 36.2765 48.9786 36.1981 48.5458C36.0908 47.9785 36.009 47.4009 35.9476 46.8183C35.9221 46.6343 35.9067 46.4503 35.8914 46.2663C35.8761 46.0823 35.8556 45.8829 35.8454 45.6887C35.8199 45.3361 35.8045 44.9783 35.7943 44.6205C35.7943 44.3905 35.7943 44.1605 35.7943 43.9254V27.9533C35.795 25.1437 36.349 22.3617 37.4249 19.7662C38.5007 17.1707 40.0772 14.8125 42.0644 12.8263C44.0515 10.8401 46.4105 9.2647 49.0065 8.19012C51.6025 7.11554 54.3848 6.56281 57.1944 6.56348V6.56348Z" fill="#ECC19C"/>
</g>
<path d="M71.3316 79.5448L70.7541 80.1326C68.9861 81.9376 66.8757 83.3716 64.5464 84.3506C62.2171 85.3296 59.7159 85.8339 57.1893 85.8339C54.6627 85.8339 52.1614 85.3296 49.8322 84.3506C47.5029 83.3716 45.3925 81.9376 43.6245 80.1326L43.0725 79.5652C43.3434 79.4017 43.6245 79.2432 43.9005 79.0899L44.5701 78.7066C45.2257 78.31 45.8525 77.8677 46.4458 77.3828V77.3828C47.842 78.8155 49.5112 79.9538 51.3547 80.7307C53.1981 81.5076 55.1786 81.9073 57.1791 81.9061H57.22C59.2198 81.9059 61.1994 81.5061 63.0426 80.7303C64.8857 79.9544 66.5553 78.818 67.9532 77.3879V77.3879C68.3249 77.6971 68.7121 77.9871 69.1134 78.2568L69.2361 78.3386C69.4252 78.4664 69.6194 78.5839 69.8136 78.7066C70.0079 78.8292 70.2481 78.9621 70.473 79.0848C70.5051 79.097 70.5359 79.1124 70.565 79.1308C70.8563 79.2535 71.0914 79.4119 71.3316 79.5448Z" fill="#C34628"/>
</g>
</svg>
