<svg viewBox="0 0 97 97" fill="none" xmlns="http://www.w3.org/2000/svg">
<mask id="mask0" mask-type="alpha" maskUnits="userSpaceOnUse" x="0" y="0" width="97" height="97">
<path d="M48.6825 96.9951C75.1922 96.9951 96.6825 75.5048 96.6825 48.9951C96.6825 22.4855 75.1922 0.995117 48.6825 0.995117C22.1728 0.995117 0.682495 22.4855 0.682495 48.9951C0.682495 75.5048 22.1728 96.9951 48.6825 96.9951Z" fill="#E1854F"/>
</mask>
<g mask="url(#mask0)">
<path d="M76.5119 103.45H20.8581C20.8537 100.393 21.3554 97.3567 22.3429 94.464C22.5164 93.9537 22.7052 93.4435 22.9093 92.9332C23.1083 92.423 23.3277 91.9484 23.5573 91.4637C24.4737 89.5374 25.6107 87.724 26.9454 86.06C27.2822 85.6467 27.6241 85.2436 27.966 84.8558C28.1394 84.6568 28.3231 84.4629 28.5068 84.269L29.063 83.7026C30.0015 82.7678 31.0058 81.9015 32.0684 81.1105C32.5787 80.7176 33.1349 80.3503 33.691 79.9931C33.9258 79.84 34.1707 79.692 34.4105 79.5542L34.8289 79.3042L35.0126 79.2022L35.3902 78.993C35.6147 78.8705 35.8341 78.7429 36.0586 78.6052C36.7158 78.2121 37.345 77.7739 37.9415 77.2938C38.8207 76.5941 39.6306 75.8115 40.3601 74.9568C42.1356 72.8996 43.3997 70.4518 44.0493 67.8132C44.1564 67.4203 44.2381 67.0223 44.3095 66.6192C44.4903 65.5933 44.5808 64.5535 44.58 63.5117H48.6365H49.3662H52.8053C52.8032 64.5378 52.8902 65.5622 53.0656 66.5733C53.1319 66.9815 53.2237 67.3846 53.3258 67.7877C53.4578 68.3347 53.6179 68.8746 53.8054 69.4052C54.9129 72.4936 56.8559 75.214 59.4182 77.2632C59.6172 77.4265 59.8163 77.5846 60.0204 77.7326C60.2245 77.8806 60.3929 77.998 60.5816 78.1255L60.7041 78.2072C60.8929 78.3347 61.0817 78.4572 61.2807 78.5746C61.4797 78.6919 61.7144 78.8348 61.9389 78.9572C61.974 78.9658 62.007 78.9814 62.0359 79.0032C62.4951 79.2583 62.9544 79.5134 63.3983 79.8043C63.6126 79.9369 63.8269 80.0696 64.0361 80.2227C64.4698 80.4982 64.8984 80.8044 65.3118 81.1207C65.822 81.5136 66.3323 81.9321 66.8425 82.3658C67.3528 82.7995 67.8273 83.2485 68.2967 83.7129C70.9059 86.294 72.9758 89.3681 74.3861 92.7564C75.7965 96.1447 76.519 99.7796 76.5119 103.45Z" fill="#ECC19C"/>
<path d="M76.5119 103.45H20.8581C20.8537 100.393 21.3554 97.3571 22.3429 94.4644C22.5164 93.9541 22.7052 93.4438 22.9093 92.9336C23.1083 92.4233 23.3277 91.9488 23.5573 91.464C24.4737 89.5377 25.6107 87.7244 26.9454 86.0604C27.2822 85.6471 27.6241 85.244 27.966 84.8562C28.1394 84.6572 28.3231 84.4633 28.5068 84.2694L29.063 83.703C30.0015 82.7681 31.0059 81.9018 32.0684 81.1109C32.5787 80.718 33.1349 80.3506 33.691 79.9934C33.9258 79.8404 34.1707 79.6924 34.4105 79.5546L34.8289 79.3046L35.0126 79.2025L35.3902 78.9882L36.0586 78.6055C36.7132 78.2096 37.339 77.768 37.9313 77.2839V77.2839C39.3252 78.7142 40.9916 79.8507 42.832 80.6263C44.6724 81.4019 46.6495 81.8009 48.6467 81.7997H48.6875C48.9172 81.7997 49.1468 81.7997 49.3764 81.7997C53.1708 81.6317 56.7591 80.0264 59.4132 77.3095V77.3095C59.7842 77.6182 60.1708 77.9077 60.5714 78.1769L60.6939 78.2585C60.8827 78.3861 61.0766 78.5035 61.2705 78.6259C61.4644 78.7484 61.7042 78.8811 61.9287 79.0035C61.9626 79.0154 61.9951 79.0308 62.0257 79.0494C62.4849 79.3046 62.9442 79.5597 63.3881 79.8557C63.6024 79.9883 63.8167 80.121 64.0259 80.2741C64.4596 80.5496 64.8882 80.8558 65.3015 81.1721C65.8118 81.5701 66.3527 81.9834 66.8323 82.4222C67.312 82.8611 67.8171 83.305 68.2865 83.7693C70.8908 86.3429 72.9587 89.4075 74.3706 92.7857C75.7825 96.1639 76.5103 99.7886 76.5119 103.45V103.45Z" fill="#5AB7B2"/>
<path d="M57.2803 70.1761V73.3704C57.282 73.8548 57.1321 74.3276 56.8517 74.7226C56.6351 75.0379 56.3448 75.2957 56.006 75.4736C55.6672 75.6514 55.2902 75.7439 54.9076 75.7431H42.1511C41.5213 75.7404 40.9181 75.489 40.4727 75.0436C40.0274 74.5983 39.776 73.9951 39.7733 73.3653V70.1711C39.7733 69.5404 40.0239 68.9356 40.4698 68.4897C40.9157 68.0437 41.5205 67.7932 42.1511 67.7932H54.9076C55.3607 67.7911 55.8043 67.9224 56.1832 68.1708C56.5208 68.385 56.7986 68.6813 56.9904 69.032C57.1823 69.3827 57.282 69.7764 57.2803 70.1761V70.1761Z" fill="#5AB7B2"/>
<path d="M60.0357 77.7427V84.7077H34.4208V79.5439L34.8392 79.2939L35.0229 79.1918L35.4005 78.9826C35.625 78.8602 35.8444 78.7326 36.0689 78.5948C36.7261 78.2018 37.3553 77.7636 37.9518 77.2835C38.831 76.5837 39.6409 75.8011 40.3704 74.9465C41.0289 74.1786 41.618 73.3539 42.1308 72.4819H55.2444C55.7096 73.2754 56.2386 74.0297 56.8262 74.7373C57.5945 75.6764 58.4599 76.5316 59.4081 77.2886C59.6327 77.4263 59.8316 77.5947 60.0357 77.7427Z" fill="#5AB7B2"/>
<path d="M76.8433 36.7692C76.8433 48.2807 70.8376 58.2868 61.9948 63.3792C59.2474 64.9713 56.2369 66.0583 53.1061 66.5887C51.8818 66.7997 50.6436 66.9208 49.4016 66.951H48.6924C44.0239 66.9554 39.4376 65.723 35.4002 63.3792C26.5625 58.2766 20.5465 48.2807 20.5465 36.7641C20.5465 20.5073 32.5172 7.25079 47.5239 6.59766H47.58H48.0188H48.6771H49.3557H49.4016H49.8762H50.0956H50.3609C65.138 7.58756 76.8433 20.7063 76.8433 36.7692Z" fill="#141720"/>
<path d="M70.0469 27.9318V43.8876C70.0469 44.1172 70.0469 44.3468 70.0469 44.5816C70.0469 44.8163 70.0469 44.954 70.0469 45.1428C70.0469 45.3316 70.0469 45.4796 70.0163 45.6531C69.9856 45.8266 70.0163 45.8929 69.9907 46.0154C69.9652 46.1379 69.9907 46.1583 69.9907 46.2297C69.9907 46.3011 69.9907 46.495 69.9499 46.6277C69.9499 46.8777 69.8989 47.1379 69.8632 47.3778C69.8632 47.439 69.8632 47.5053 69.8377 47.5666C69.8122 47.6278 69.8019 47.8166 69.7815 47.9441L69.6897 48.4901C69.6438 48.7402 69.5927 49.0004 69.5417 49.2402C69.5417 49.2402 69.5417 49.2402 69.5417 49.2708C69.5443 49.3082 69.5443 49.3457 69.5417 49.3831C69.5417 49.3831 69.5417 49.3831 69.5417 49.4137C69.5162 49.5515 69.4856 49.679 69.455 49.8117C69.4465 49.8706 69.4328 49.9287 69.4141 49.9852C69.4141 50.0821 69.3733 50.174 69.3529 50.271C69.3325 50.3679 69.3274 50.3832 69.307 50.4342C69.2866 50.4852 69.2815 50.5312 69.2713 50.572C69.159 51.0006 69.0366 51.4241 68.9039 51.8425C68.8427 52.0415 68.7763 52.2354 68.71 52.4344C68.71 52.4344 68.71 52.4753 68.71 52.4957L68.5212 53.0059L68.46 53.1692C68.3987 53.3376 68.3324 53.506 68.2661 53.6795C68.1997 53.853 68.1028 54.0826 68.0212 54.2816C67.9395 54.4806 67.8681 54.6388 67.7915 54.7918C67.7915 54.8225 67.766 54.848 67.7558 54.8786C67.6691 55.0674 67.5823 55.2562 67.4956 55.4398C67.4088 55.6235 67.3119 55.8276 67.2098 56.0215C67.021 56.4042 66.8169 56.787 66.6128 57.1594L66.3271 57.6697C65.5353 59.0375 64.6397 60.3424 63.6482 61.5732C63.5156 61.7466 63.3795 61.9167 63.24 62.0834C63.0461 62.3181 62.8471 62.5528 62.6481 62.7774C62.4491 63.0019 62.3062 63.1601 62.1379 63.3438V63.3693C61.6276 63.9102 61.1173 64.4255 60.6071 64.9001C60.4999 65.0072 60.3928 65.099 60.2805 65.2011C60.1683 65.3031 59.9233 65.5225 59.7396 65.6756C59.5559 65.8287 59.4488 65.9206 59.3059 66.043C58.9283 66.3543 58.5508 66.6502 58.1681 66.9309C58.0099 67.0533 57.8466 67.1656 57.6833 67.2778C57.4231 67.4666 57.1731 67.6452 56.8873 67.8187C56.7393 67.9208 56.5863 68.0126 56.4383 68.1045L56.3668 68.1453C55.8566 68.4616 55.3463 68.7474 54.8361 69.0025L54.4432 69.1964L54.035 69.3852C53.8615 69.4635 53.6914 69.5366 53.5247 69.6046C53.4584 69.6346 53.3903 69.6602 53.3206 69.6812C53.1165 69.7628 52.9073 69.8445 52.7032 69.9108C52.4991 69.9771 52.1929 70.0843 51.9276 70.1557C51.749 70.2067 51.5653 70.2578 51.3867 70.2986H51.351C51.1724 70.3394 50.9938 70.3802 50.8407 70.4159L50.6979 70.4414C50.5499 70.467 50.4019 70.4925 50.2591 70.5078C50.1162 70.5231 49.8406 70.5639 49.6314 70.5741C49.5601 70.5793 49.4885 70.5793 49.4171 70.5741C49.2487 70.5741 49.0855 70.5741 48.9069 70.5741C48.7436 70.5741 48.5735 70.5741 48.3966 70.5741C48.3338 70.5793 48.2706 70.5793 48.2078 70.5741C48.0598 70.5741 47.9068 70.5741 47.7537 70.5333H47.6516L47.0648 70.4363C46.8965 70.4108 46.7281 70.3751 46.5546 70.3292C45.6083 70.1092 44.6856 69.7982 43.7992 69.4005C42.9686 69.0319 42.164 68.6074 41.3908 68.13L41.253 68.0483C40.8958 67.8289 40.5335 67.5942 40.1815 67.3442L39.5844 66.9156C38.9585 66.4597 38.3411 65.9631 37.7322 65.4256L37.2219 64.9664L36.7117 64.5071C36.3239 64.1347 35.9463 63.752 35.584 63.3488C35.5607 63.328 35.5385 63.3059 35.5177 63.2825C35.3646 63.1193 35.2132 62.9492 35.0636 62.7723C34.6451 62.2977 34.2369 61.813 33.844 61.3027C33.691 61.119 33.5481 60.9302 33.4103 60.7414C32.8797 60.0373 32.3694 59.3042 31.8796 58.5422L31.5071 57.9248C31.3591 57.6799 31.2162 57.4146 31.0784 57.1747C30.5467 56.223 30.0697 55.2417 29.6497 54.2356C29.5885 54.0877 29.5221 53.9397 29.4711 53.7968C29.4201 53.654 29.3129 53.4141 29.2466 53.2253C29.1412 52.9464 29.0408 52.6692 28.9456 52.3936C28.8537 52.1181 28.7619 51.8323 28.6751 51.5466C28.5884 51.2609 28.5119 51.0006 28.4404 50.7251C28.369 50.4495 28.2771 50.1332 28.2108 49.827C28.2108 49.7964 28.2108 49.7658 28.2108 49.7352C28.1121 49.3167 28.0237 48.8915 27.9455 48.4595C27.8383 47.8931 27.7567 47.3165 27.6954 46.7348C27.6699 46.5511 27.6546 46.3675 27.6393 46.1838C27.624 46.0001 27.6036 45.8011 27.5934 45.6072C27.5679 45.2551 27.5526 44.8979 27.5424 44.5407C27.5424 44.3111 27.5424 44.0815 27.5424 43.8468V27.9318C27.5432 22.4707 29.6359 17.2174 33.3902 13.2514C37.1445 9.2855 42.2753 6.90821 47.7282 6.60815H47.7843H48.2231H48.8814H49.56H49.6059H50.0805H50.2999L50.7693 6.64388H50.9989H51.152C51.9754 6.7318 52.7931 6.86637 53.6013 7.04697C58.2909 8.11511 62.4829 10.7344 65.4989 14.4811C68.5149 18.2277 70.1785 22.8825 70.2204 27.692C70.0469 27.8043 70.0469 27.8655 70.0469 27.9318Z" fill="#ECC19C"/>
<path d="M74.8026 35.835H22.5675C22.5675 20.1139 33.6299 7.29114 47.514 6.60229H47.5702H48.009H48.6672H49.3458H49.3918H49.8663H50.0857H50.3511H50.5501H50.7797H50.9327C64.327 7.98509 74.8026 20.5374 74.8026 35.835Z" fill="#141720"/>
<g style="mix-blend-mode:multiply" opacity="0.5">
<path d="M49.3968 6.58301V103.45H20.8581C20.8537 100.394 21.3554 97.3575 22.3429 94.4648C22.5164 93.9546 22.7052 93.4443 22.9093 92.934C23.1083 92.4238 23.3277 91.9492 23.5573 91.4645C24.4737 89.5382 25.6107 87.7248 26.9455 86.0608C27.2822 85.6475 27.6241 85.2444 27.966 84.8566C28.1395 84.6576 28.3232 84.4637 28.5069 84.2698L29.063 83.7034C30.0015 82.7686 31.0059 81.9023 32.0684 81.1113C32.5787 80.7184 33.1349 80.3511 33.6911 79.9939C33.9258 79.8408 34.1707 79.6928 34.4105 79.555L34.8289 79.305L35.0126 79.203L35.3902 78.9887L36.0587 78.606C36.7132 78.2101 37.339 77.7685 37.9313 77.2844V77.2844C38.8105 76.5847 39.6204 75.8021 40.3499 74.9474C39.9695 74.5161 39.7592 73.9611 39.758 73.386V70.1918C39.7582 69.764 39.8739 69.3442 40.0931 68.9768C40.3123 68.6095 40.6267 68.3082 41.0031 68.1048C40.6459 67.8854 40.2836 67.6507 39.9315 67.4007L39.3345 66.9721C38.7086 66.5163 38.0912 66.0196 37.4823 65.4821L36.972 65.0229L36.4618 64.5637C36.074 64.1912 35.6964 63.8085 35.3341 63.4054C26.4964 58.3028 20.4805 48.3068 20.4805 36.7903C20.4805 20.5335 32.4511 7.27697 47.4578 6.62384H47.514H47.9528H48.611H49.2897L49.3968 6.58301Z" fill="#ECC19C"/>
</g>
</g>
</svg>
