<svg  viewBox="0 0 97 97" fill="none" xmlns="http://www.w3.org/2000/svg">
<mask id="mask0" mask-type="alpha" maskUnits="userSpaceOnUse" x="0" y="0" width="97" height="97">
<path d="M48.0436 96.0791C74.5532 96.0791 96.0436 74.5888 96.0436 48.0791C96.0436 21.5694 74.5532 0.0791016 48.0436 0.0791016C21.5339 0.0791016 0.0435791 21.5694 0.0435791 48.0791C0.0435791 74.5888 21.5339 96.0791 48.0436 96.0791Z" fill="#5AB7B2"/>
</mask>
<g mask="url(#mask0)">
<path d="M75.8525 100.922H20.1986C20.1928 97.2527 20.9155 93.6186 22.3249 90.2306C23.7342 86.8425 25.8021 83.768 28.4087 81.1853C28.6434 80.9506 28.8832 80.7261 29.1282 80.4965C29.8568 79.821 30.6216 79.1856 31.4192 78.5932C31.9295 78.2003 32.4908 77.8329 33.0418 77.4757C33.5929 77.1185 34.1593 76.7818 34.741 76.4552C34.9655 76.3276 35.1849 76.2052 35.4094 76.0674C36.0674 75.6774 36.6966 75.2409 37.2923 74.7612C39.8531 72.7232 41.7965 70.0131 42.9051 66.9338V66.9338C43.5862 65.0279 43.9315 63.0183 43.9257 60.9944L52.151 61.0301C52.1445 63.6691 52.734 66.2755 53.8755 68.6548C55.017 71.0341 56.6811 73.125 58.7436 74.7714C58.9171 74.9142 59.0957 75.0469 59.2538 75.1796C59.412 75.3122 59.7641 75.5419 60.0039 75.6898C60.2437 75.8378 60.3866 75.9399 60.5805 76.0572C60.7744 76.1746 61.0142 76.3174 61.2387 76.4399H61.2898L61.3357 76.4705C61.9786 76.8277 62.6113 77.2053 63.2185 77.6033C63.4226 77.736 63.6267 77.8686 63.8257 78.0115C64.0247 78.1544 64.336 78.3891 64.6115 78.5881C68.1019 81.1718 70.9373 84.5385 72.8896 88.4175C74.842 92.2965 75.8568 96.5795 75.8525 100.922V100.922Z" fill="#A57561"/>
<path d="M75.8525 100.921H20.1986C20.1928 97.2518 20.9155 93.6177 22.3249 90.2297C23.7342 86.8416 25.8021 83.7671 28.4087 81.1844C28.6434 80.9497 28.8832 80.7252 29.1282 80.4956C29.8567 79.8184 30.6215 79.1813 31.4192 78.5872C31.9295 78.1994 32.4908 77.8269 33.0418 77.4748C33.5929 77.1228 34.1593 76.7809 34.741 76.4543C34.9655 76.3268 35.1849 76.2043 35.4094 76.0665C36.0674 75.6765 36.6966 75.24 37.2923 74.7603C38.6903 76.1892 40.3596 77.3246 42.2023 78.0998C44.045 78.8749 46.024 79.2742 48.023 79.2742C50.0221 79.2742 52.0011 78.8749 53.8438 78.0998C55.6865 77.3246 57.3558 76.1892 58.7538 74.7603C58.9272 74.9031 59.1058 75.0358 59.264 75.1685C59.4222 75.3011 59.7743 75.5308 60.0141 75.6787C60.2539 75.8267 60.3968 75.9288 60.5907 76.0461C60.7846 76.1635 61.0244 76.3063 61.2489 76.4288H61.2999L61.3459 76.4543C61.9888 76.8115 62.6215 77.1891 63.2287 77.5922C63.4328 77.7249 63.6369 77.8575 63.8359 78.0004C64.0349 78.1433 64.3462 78.378 64.6217 78.577C68.1116 81.1628 70.9459 84.5316 72.8965 88.4124C74.8471 92.2932 75.8596 96.5777 75.8525 100.921V100.921Z" fill="#EB6D4A"/>
<path d="M26.6689 23.9639V41.3739C26.6689 56.1714 39.6499 68.1471 48.0284 68.1471C56.4068 68.1471 69.3878 56.1612 69.3878 41.3739V23.9639H26.6689Z" fill="#A57561"/>
<path d="M26.6689 39.2778C27.1737 39.2778 27.6578 39.0773 28.0148 38.7204C28.3717 38.3634 28.5722 37.8793 28.5722 37.3745V25.2661H26.6689V39.2778Z" fill="#141720"/>
<path d="M69.3876 39.2778V25.2661H67.4792V37.3745C67.4792 37.6249 67.5286 37.8728 67.6246 38.1041C67.7206 38.3353 67.8612 38.5454 68.0385 38.7222C68.2158 38.899 68.4262 39.0391 68.6577 39.1344C68.8892 39.2297 69.1372 39.2785 69.3876 39.2778V39.2778Z" fill="#141720"/>
<path d="M69.3825 24.7401C69.3825 27.2302 69.2141 27.8323 67.4792 27.6996C67.4078 26.4903 58.7333 25.5055 48.0332 25.5055C37.3331 25.5055 28.6434 26.4903 28.5771 27.6996C26.8371 27.8323 26.6738 27.2302 26.6738 24.7401C26.6738 24.4952 26.6738 24.2299 26.6738 23.9646C26.9392 17.8159 30.4089 6.31982 48.0179 6.31982C65.627 6.31982 69.0916 17.8159 69.3569 23.9646C69.3774 24.235 69.3825 24.4952 69.3825 24.7401Z" fill="#141720"/>
<path d="M58.7744 74.6384C56.7127 80.6897 53.0014 86.0446 48.0589 90.0992C43.1161 86.0449 39.4047 80.6899 37.3435 74.6384L37.4251 74.669C40.3505 77.289 44.1395 78.7376 48.0666 78.7376C51.9936 78.7376 55.7827 77.289 58.708 74.669L58.7744 74.6384Z" fill="white"/>
<g style="mix-blend-mode:multiply" opacity="0.5">
<path d="M48.0332 6.29468V100.927H20.1987C20.1919 97.2579 20.9147 93.6239 22.325 90.2365C23.7354 86.849 25.8051 83.7758 28.4138 81.1955C28.97 80.6342 29.5619 80.0984 30.1691 79.5831C30.5722 79.2463 30.9906 78.9146 31.4192 78.5983C32.2096 78.0109 33.0305 77.4658 33.8787 76.9655C34.1644 76.7954 34.4519 76.6253 34.741 76.4552C35.6403 75.9657 36.4941 75.3971 37.2923 74.756C39.8547 72.7154 41.7982 70.0015 42.9052 66.9185C35.2002 63.5252 26.6483 53.3711 26.6483 41.3647V23.9649C26.9545 17.8112 30.4242 6.29468 48.0332 6.29468Z" fill="#ECC19C"/>
</g>
</g>
</svg>
