<svg width="78" height="79" viewBox="0 0 78 79" fill="none" xmlns="http://www.w3.org/2000/svg">
<mask id="mask0" mask-type="alpha" maskUnits="userSpaceOnUse" x="0" y="0" width="78" height="79">
<path d="M39.014 78.217C60.5454 78.217 78 60.7624 78 39.2311C78 17.6997 60.5454 0.245117 39.014 0.245117C17.4827 0.245117 0.0280762 17.6997 0.0280762 39.2311C0.0280762 60.7624 17.4827 78.217 39.014 78.217Z" fill="#5AB7B2"/>
</mask>
<g mask="url(#mask0)">
<path d="M61.6006 82.1498H16.3981C16.3934 79.1695 16.9804 76.2178 18.125 73.466C19.2697 70.7143 20.9493 68.2171 23.0664 66.1194C23.257 65.9288 23.4518 65.7464 23.6507 65.5599C24.2425 65.0113 24.8637 64.4952 25.5115 64.0141C25.926 63.695 26.3818 63.3966 26.8294 63.1065C27.277 62.8164 27.7371 62.5429 28.2095 62.2776C28.3919 62.174 28.5701 62.0745 28.7524 61.9626C29.2868 61.6459 29.7979 61.2913 30.2817 60.9017C32.3616 59.2465 33.9401 57.0453 34.8405 54.5442C35.3936 52.9963 35.6741 51.3641 35.6694 49.7202L42.3501 49.7492C42.3448 51.8926 42.8236 54.0095 43.7507 55.9421C44.6779 57.8746 46.0294 59.5728 47.7046 60.91C47.8455 61.026 47.9905 61.1338 48.119 61.2415C48.2475 61.3493 48.5334 61.5358 48.7282 61.656C48.923 61.7761 49.0391 61.859 49.1965 61.9544C49.354 62.0497 49.5488 62.1657 49.7312 62.2652H49.7726L49.8099 62.29C50.3321 62.5802 50.846 62.8868 51.3392 63.2101C51.5049 63.3178 51.6707 63.4256 51.8323 63.5416C51.994 63.6577 52.2468 63.8483 52.4706 64.01C55.3055 66.1084 57.6084 68.8429 59.1941 71.9935C60.7798 75.144 61.6041 78.6227 61.6006 82.1498Z" fill="#A57561"/>
<path d="M61.6006 82.149H16.3981C16.3934 79.1687 16.9804 76.217 18.125 73.4652C19.2697 70.7135 20.9493 68.2163 23.0664 66.1186C23.257 65.928 23.4518 65.7456 23.6507 65.5591C24.2425 65.0091 24.8636 64.4917 25.5115 64.0091C25.926 63.6942 26.3818 63.3916 26.8294 63.1057C27.277 62.8197 27.7371 62.542 28.2095 62.2768C28.3919 62.1732 28.5701 62.0737 28.7524 61.9618C29.2868 61.6451 29.7979 61.2905 30.2817 60.9009C31.4171 62.0615 32.773 62.9837 34.2696 63.6133C35.7663 64.2428 37.3736 64.5671 38.9973 64.5671C40.621 64.5671 42.2283 64.2428 43.7249 63.6133C45.2216 62.9837 46.5774 62.0615 47.7129 60.9009C47.8538 61.0169 47.9988 61.1247 48.1273 61.2324C48.2558 61.3402 48.5417 61.5267 48.7365 61.6469C48.9313 61.7671 49.0474 61.8499 49.2048 61.9453C49.3623 62.0406 49.5571 62.1566 49.7394 62.2561H49.7809L49.8182 62.2768C50.3404 62.5669 50.8543 62.8736 51.3475 63.201C51.5132 63.3088 51.679 63.4165 51.8406 63.5325C52.0023 63.6486 52.2551 63.8392 52.4789 64.0009C55.3134 66.1011 57.6154 68.8372 59.1997 71.9893C60.784 75.1413 61.6063 78.6212 61.6006 82.149Z" fill="#EB6D4A"/>
<path d="M21.6532 19.6431V33.7836C21.6532 45.8022 32.1965 55.529 39.0015 55.529C45.8065 55.529 56.3498 45.794 56.3498 33.7836V19.6431H21.6532Z" fill="#A57561"/>
<path d="M21.6532 32.0821C22.0632 32.0821 22.4564 31.9192 22.7463 31.6293C23.0362 31.3394 23.1991 30.9462 23.1991 30.5362V20.7017H21.6532V32.0821Z" fill="#141720"/>
<path d="M56.3497 32.0821V20.7017H54.7997V30.5362C54.7997 30.7396 54.8398 30.9409 54.9177 31.1287C54.9957 31.3166 55.1099 31.4872 55.2539 31.6308C55.3979 31.7744 55.5688 31.8881 55.7568 31.9656C55.9449 32.043 56.1463 32.0826 56.3497 32.0821Z" fill="#141720"/>
<path d="M56.3455 20.2741C56.3455 22.2966 56.2087 22.7856 54.7997 22.6778C54.7416 21.6956 47.6962 20.8958 39.0055 20.8958C30.3148 20.8958 23.2569 21.6956 23.2031 22.6778C21.7898 22.7856 21.6572 22.2966 21.6572 20.2741C21.6572 20.0752 21.6572 19.8597 21.6572 19.6442C21.8727 14.6502 24.6909 5.31299 38.9931 5.31299C53.2952 5.31299 56.1093 14.6502 56.3248 19.6442C56.3414 19.8638 56.3455 20.0752 56.3455 20.2741Z" fill="#141720"/>
<path d="M47.7295 60.8022C46.055 65.7171 43.0407 70.0664 39.0264 73.3596C35.0118 70.0667 31.9974 65.7173 30.3232 60.8022L30.3895 60.8271C32.7655 62.955 35.843 64.1317 39.0326 64.1317C42.2222 64.1317 45.2997 62.955 47.6757 60.8271L47.7295 60.8022Z" fill="white"/>
<g style="mix-blend-mode:multiply" opacity="0.5">
<path d="M39.0057 5.29346V82.1547H16.3982C16.3927 79.1745 16.9798 76.2229 18.1253 73.4716C19.2708 70.7203 20.9518 68.2242 23.0707 66.1285C23.5224 65.6726 24.0031 65.2374 24.4963 64.8189C24.8237 64.5453 25.1635 64.2759 25.5117 64.019C26.1536 63.5419 26.8204 63.0992 27.5092 62.6928C27.7413 62.5547 27.9748 62.4165 28.2096 62.2784C28.94 61.8808 29.6335 61.419 30.2818 60.8983C32.363 59.2408 33.9416 57.0366 34.8406 54.5326C28.5826 51.7766 21.6367 43.5293 21.6367 33.7776V19.6454C21.8854 14.6473 24.7035 5.29346 39.0057 5.29346Z" fill="#ECC19C"/>
</g>
</g>
</svg>
