<svg width="119" height="176" viewBox="0 0 119 176" fill="none" xmlns="http://www.w3.org/2000/svg">
<path d="M9.02574 123.298C9.2924 123.298 9.5164 123.384 9.69774 123.554C9.88974 123.714 9.98574 123.933 9.98574 124.21C9.98574 124.52 9.89507 124.765 9.71374 124.946C9.54307 125.128 9.31374 125.218 9.02574 125.218C8.66307 125.218 8.3804 125.08 8.17774 124.802C7.97507 124.514 7.87374 124.109 7.87374 123.586C7.87374 122.264 8.49774 121.261 9.74574 120.578L10.1617 121.314C9.7244 121.581 9.39907 121.869 9.18574 122.178C8.98307 122.488 8.88174 122.866 8.88174 123.314C8.91374 123.304 8.96174 123.298 9.02574 123.298ZM12.1297 123.298C12.3964 123.298 12.6204 123.384 12.8017 123.554C12.9937 123.714 13.0897 123.933 13.0897 124.21C13.0897 124.52 12.9991 124.765 12.8177 124.946C12.6471 125.128 12.4177 125.218 12.1297 125.218C11.7671 125.218 11.4844 125.08 11.2817 124.802C11.0791 124.514 10.9777 124.109 10.9777 123.586C10.9777 122.264 11.6017 121.261 12.8497 120.578L13.2657 121.314C12.8284 121.581 12.5031 121.869 12.2897 122.178C12.0871 122.488 11.9857 122.866 11.9857 123.314C12.0177 123.304 12.0657 123.298 12.1297 123.298Z" fill="#282828"/>
<path d="M16.0019 121.17H17.6339V131.65H16.0019V121.17Z" fill="#282828"/>
<path d="M23.2436 123.826H24.8756L25.9156 128.082L26.2356 129.682L26.3476 130.306H26.4116C26.6143 129.357 26.7849 128.616 26.9236 128.082L28.0276 123.826H29.5316L30.6516 128.082L31.0516 129.73C31.0729 129.858 31.1156 130.05 31.1796 130.306H31.2436C31.3609 129.741 31.4356 129.368 31.4676 129.186L31.6916 128.082L32.7156 123.826H34.2356L32.2036 131.65H30.2676L29.2596 127.762C29.1423 127.293 29.0249 126.765 28.9076 126.178L28.7636 125.49H28.6996C28.4969 126.525 28.3316 127.288 28.2036 127.778L27.2276 131.65H25.3556L23.2436 123.826Z" fill="#282828"/>
<path d="M37.877 131.842C37.1943 131.842 36.6397 131.64 36.213 131.234C35.7863 130.818 35.573 130.264 35.573 129.57C35.573 128.728 35.9463 128.082 36.693 127.634C37.4397 127.176 38.629 126.856 40.261 126.674C40.2397 125.522 39.7383 124.946 38.757 124.946C38.0957 124.946 37.3437 125.213 36.501 125.746L35.893 124.658C36.9597 123.976 38.0103 123.634 39.045 123.634C39.9943 123.634 40.7037 123.922 41.173 124.498C41.6423 125.064 41.877 125.88 41.877 126.946V131.65H40.549L40.421 130.754H40.373C39.509 131.48 38.677 131.842 37.877 131.842ZM38.373 130.562C38.7037 130.562 39.013 130.488 39.301 130.338C39.589 130.189 39.909 129.954 40.261 129.634V127.698C39.1303 127.837 38.325 128.05 37.845 128.338C37.3757 128.626 37.141 129 37.141 129.458C37.141 129.821 37.253 130.098 37.477 130.29C37.701 130.472 37.9997 130.562 38.373 130.562Z" fill="#282828"/>
<path d="M44.5129 123.826H45.8409L45.9689 124.914H46.0169C46.4329 124.509 46.8435 124.194 47.2489 123.97C47.6649 123.746 48.1182 123.634 48.6089 123.634C50.2089 123.634 51.0089 124.664 51.0089 126.722V131.65H49.3929V126.93C49.3929 126.258 49.2862 125.773 49.0729 125.474C48.8702 125.176 48.5342 125.026 48.0649 125.026C47.7129 125.026 47.3982 125.112 47.1209 125.282C46.8435 125.442 46.5129 125.714 46.1289 126.098V131.65H44.5129V123.826Z" fill="#282828"/>
<path d="M56.3162 131.842C54.7376 131.842 53.9482 130.93 53.9482 129.106V125.122H52.8122V123.906L54.0282 123.826L54.2202 121.666H55.5642V123.826H57.6122V125.122H55.5642V129.106C55.5642 129.586 55.6549 129.949 55.8362 130.194C56.0176 130.429 56.3109 130.546 56.7162 130.546C56.9616 130.546 57.2442 130.482 57.5642 130.354L57.8522 131.554C57.2762 131.746 56.7642 131.842 56.3162 131.842Z" fill="#282828"/>
<path d="M65.7687 131.842C64.1901 131.842 63.4007 130.93 63.4007 129.106V125.122H62.2647V123.906L63.4807 123.826L63.6727 121.666H65.0167V123.826H67.0647V125.122H65.0167V129.106C65.0167 129.586 65.1074 129.949 65.2887 130.194C65.4701 130.429 65.7634 130.546 66.1687 130.546C66.4141 130.546 66.6967 130.482 67.0167 130.354L67.3047 131.554C66.7287 131.746 66.2167 131.842 65.7687 131.842Z" fill="#282828"/>
<path d="M71.9757 131.842C71.3251 131.842 70.7171 131.677 70.1517 131.346C69.5864 131.016 69.1331 130.541 68.7917 129.922C68.4611 129.304 68.2957 128.578 68.2957 127.746C68.2957 126.904 68.4611 126.173 68.7917 125.554C69.1331 124.936 69.5811 124.461 70.1357 124.13C70.7011 123.8 71.3144 123.634 71.9757 123.634C72.6371 123.634 73.2451 123.8 73.7997 124.13C74.3651 124.461 74.8131 124.936 75.1437 125.554C75.4851 126.173 75.6557 126.904 75.6557 127.746C75.6557 128.578 75.4851 129.304 75.1437 129.922C74.8131 130.541 74.3651 131.016 73.7997 131.346C73.2344 131.677 72.6264 131.842 71.9757 131.842ZM71.9757 130.514C72.5944 130.514 73.0851 130.264 73.4477 129.762C73.8104 129.25 73.9917 128.578 73.9917 127.746C73.9917 126.914 73.8051 126.242 73.4317 125.73C73.0691 125.218 72.5837 124.962 71.9757 124.962C71.3677 124.962 70.8771 125.218 70.5037 125.73C70.1411 126.242 69.9597 126.914 69.9597 127.746C69.9597 128.578 70.1411 129.25 70.5037 129.762C70.8664 130.264 71.3571 130.514 71.9757 130.514Z" fill="#282828"/>
<path d="M83.5452 131.842C83.0226 131.842 82.4999 131.741 81.9772 131.538C81.4546 131.336 80.9959 131.074 80.6012 130.754L81.3692 129.714C81.7426 130.002 82.1052 130.226 82.4572 130.386C82.8092 130.536 83.1879 130.61 83.5932 130.61C84.0412 130.61 84.3826 130.514 84.6172 130.322C84.8519 130.12 84.9692 129.864 84.9692 129.554C84.9692 129.234 84.8252 128.984 84.5372 128.802C84.2492 128.61 83.8172 128.408 83.2412 128.194C82.5479 127.938 81.9986 127.645 81.5932 127.314C81.1879 126.973 80.9852 126.509 80.9852 125.922C80.9852 125.25 81.2359 124.701 81.7372 124.274C82.2386 123.848 82.9159 123.634 83.7692 123.634C84.6866 123.634 85.5292 123.938 86.2972 124.546L85.5452 125.554C85.2466 125.33 84.9586 125.16 84.6812 125.042C84.4039 124.925 84.1106 124.866 83.8012 124.866C83.3852 124.866 83.0652 124.957 82.8412 125.138C82.6279 125.32 82.5212 125.554 82.5212 125.842C82.5212 126.056 82.5959 126.237 82.7452 126.386C82.8946 126.525 83.0652 126.637 83.2572 126.722C83.4599 126.808 83.7746 126.93 84.2012 127.09C84.6706 127.261 85.0599 127.437 85.3692 127.618C85.6892 127.789 85.9559 128.024 86.1692 128.322C86.3932 128.621 86.5052 129 86.5052 129.458C86.5052 129.906 86.3879 130.312 86.1532 130.674C85.9292 131.026 85.5932 131.309 85.1452 131.522C84.6972 131.736 84.1639 131.842 83.5452 131.842Z" fill="#282828"/>
<path d="M90.4057 131.842C89.7231 131.842 89.1684 131.64 88.7417 131.234C88.3151 130.818 88.1017 130.264 88.1017 129.57C88.1017 128.728 88.4751 128.082 89.2217 127.634C89.9684 127.176 91.1577 126.856 92.7897 126.674C92.7684 125.522 92.2671 124.946 91.2857 124.946C90.6244 124.946 89.8724 125.213 89.0297 125.746L88.4217 124.658C89.4884 123.976 90.5391 123.634 91.5737 123.634C92.5231 123.634 93.2324 123.922 93.7017 124.498C94.1711 125.064 94.4057 125.88 94.4057 126.946V131.65H93.0777L92.9497 130.754H92.9017C92.0377 131.48 91.2057 131.842 90.4057 131.842ZM90.9017 130.562C91.2324 130.562 91.5417 130.488 91.8297 130.338C92.1177 130.189 92.4377 129.954 92.7897 129.634V127.698C91.6591 127.837 90.8537 128.05 90.3737 128.338C89.9044 128.626 89.6697 129 89.6697 129.458C89.6697 129.821 89.7817 130.098 90.0057 130.29C90.2297 130.472 90.5284 130.562 90.9017 130.562Z" fill="#282828"/>
<path d="M96.0016 123.826H97.6496L98.9936 128.05L99.6816 130.386H99.7456L100.434 128.05L101.778 123.826H103.346L100.642 131.65H98.7696L96.0016 123.826Z" fill="#282828"/>
<path d="M111.226 127.33C111.226 127.629 111.205 127.906 111.162 128.162H105.994C106.069 128.952 106.335 129.554 106.794 129.97C107.263 130.376 107.829 130.578 108.49 130.578C109.119 130.578 109.743 130.381 110.362 129.986L110.922 131.01C110.09 131.565 109.21 131.842 108.282 131.842C107.567 131.842 106.922 131.677 106.346 131.346C105.77 131.016 105.311 130.541 104.97 129.922C104.639 129.304 104.474 128.578 104.474 127.746C104.474 126.925 104.639 126.205 104.97 125.586C105.311 124.957 105.754 124.477 106.298 124.146C106.842 123.805 107.423 123.634 108.042 123.634C109.055 123.634 109.839 123.97 110.394 124.642C110.949 125.304 111.226 126.2 111.226 127.33ZM109.818 127.042C109.818 126.36 109.669 125.832 109.37 125.458C109.071 125.085 108.639 124.898 108.074 124.898C107.583 124.898 107.146 125.08 106.762 125.442C106.378 125.805 106.133 126.338 106.026 127.042H109.818Z" fill="#282828"/>
<path d="M4.42905 153.842C3.72505 153.842 3.09038 153.682 2.52505 153.362C1.95972 153.032 1.51172 152.557 1.18105 151.938C0.86105 151.32 0.70105 150.589 0.70105 149.746C0.70105 148.904 0.87705 148.173 1.22905 147.554C1.58105 146.936 2.05038 146.461 2.63705 146.13C3.22372 145.8 3.86372 145.634 4.55705 145.634C5.41038 145.634 6.17305 145.933 6.84505 146.53L6.04505 147.586C5.81038 147.384 5.58105 147.229 5.35705 147.122C5.13305 147.016 4.89305 146.962 4.63705 146.962C3.96505 146.962 3.41572 147.218 2.98905 147.73C2.57305 148.242 2.36505 148.914 2.36505 149.746C2.36505 150.578 2.56772 151.25 2.97305 151.762C3.38905 152.264 3.92772 152.514 4.58905 152.514C5.17572 152.514 5.74638 152.274 6.30105 151.794L6.97305 152.866C6.62105 153.186 6.22105 153.432 5.77305 153.602C5.33572 153.762 4.88772 153.842 4.42905 153.842Z" fill="#282828"/>
<path d="M11.6698 153.842C11.0191 153.842 10.4111 153.677 9.8458 153.346C9.28047 153.016 8.82713 152.541 8.4858 151.922C8.15513 151.304 7.9898 150.578 7.9898 149.746C7.9898 148.904 8.15513 148.173 8.4858 147.554C8.82713 146.936 9.27513 146.461 9.8298 146.13C10.3951 145.8 11.0085 145.634 11.6698 145.634C12.3311 145.634 12.9391 145.8 13.4938 146.13C14.0591 146.461 14.5071 146.936 14.8378 147.554C15.1791 148.173 15.3498 148.904 15.3498 149.746C15.3498 150.578 15.1791 151.304 14.8378 151.922C14.5071 152.541 14.0591 153.016 13.4938 153.346C12.9285 153.677 12.3205 153.842 11.6698 153.842ZM11.6698 152.514C12.2885 152.514 12.7791 152.264 13.1418 151.762C13.5045 151.25 13.6858 150.578 13.6858 149.746C13.6858 148.914 13.4991 148.242 13.1258 147.73C12.7631 147.218 12.2778 146.962 11.6698 146.962C11.0618 146.962 10.5711 147.218 10.1978 147.73C9.83513 148.242 9.6538 148.914 9.6538 149.746C9.6538 150.578 9.83513 151.25 10.1978 151.762C10.5605 152.264 11.0511 152.514 11.6698 152.514Z" fill="#282828"/>
<path d="M17.5882 145.826H18.9162L19.0442 146.914H19.0922C19.5082 146.509 19.9188 146.194 20.3242 145.97C20.7402 145.746 21.1935 145.634 21.6842 145.634C23.2842 145.634 24.0842 146.664 24.0842 148.722V153.65H22.4682V148.93C22.4682 148.258 22.3615 147.773 22.1482 147.474C21.9455 147.176 21.6095 147.026 21.1402 147.026C20.7882 147.026 20.4735 147.112 20.1962 147.282C19.9188 147.442 19.5882 147.714 19.2042 148.098V153.65H17.5882V145.826Z" fill="#282828"/>
<path d="M29.3915 153.842C27.8129 153.842 27.0235 152.93 27.0235 151.106V147.122H25.8876V145.906L27.1035 145.826L27.2955 143.666H28.6395V145.826H30.6875V147.122H28.6395V151.106C28.6395 151.586 28.7302 151.949 28.9115 152.194C29.0929 152.429 29.3862 152.546 29.7915 152.546C30.0369 152.546 30.3195 152.482 30.6395 152.354L30.9276 153.554C30.3516 153.746 29.8395 153.842 29.3915 153.842Z" fill="#282828"/>
<path d="M38.6706 149.33C38.6706 149.629 38.6492 149.906 38.6066 150.162H33.4386C33.5132 150.952 33.7799 151.554 34.2386 151.97C34.7079 152.376 35.2732 152.578 35.9346 152.578C36.5639 152.578 37.1879 152.381 37.8066 151.986L38.3666 153.01C37.5346 153.565 36.6546 153.842 35.7266 153.842C35.0119 153.842 34.3666 153.677 33.7906 153.346C33.2146 153.016 32.7559 152.541 32.4146 151.922C32.0839 151.304 31.9186 150.578 31.9186 149.746C31.9186 148.925 32.0839 148.205 32.4146 147.586C32.7559 146.957 33.1986 146.477 33.7426 146.146C34.2866 145.805 34.8679 145.634 35.4866 145.634C36.4999 145.634 37.2839 145.97 37.8386 146.642C38.3932 147.304 38.6706 148.2 38.6706 149.33ZM37.2626 149.042C37.2626 148.36 37.1132 147.832 36.8146 147.458C36.5159 147.085 36.0839 146.898 35.5186 146.898C35.0279 146.898 34.5906 147.08 34.2066 147.442C33.8226 147.805 33.5772 148.338 33.4706 149.042H37.2626Z" fill="#282828"/>
<path d="M40.8138 145.826H42.1418L42.2698 146.914H42.3178C42.7338 146.509 43.1445 146.194 43.5498 145.97C43.9658 145.746 44.4191 145.634 44.9098 145.634C46.5098 145.634 47.3098 146.664 47.3098 148.722V153.65H45.6938V148.93C45.6938 148.258 45.5871 147.773 45.3738 147.474C45.1711 147.176 44.8351 147.026 44.3658 147.026C44.0138 147.026 43.6991 147.112 43.4218 147.282C43.1445 147.442 42.8138 147.714 42.4298 148.098V153.65H40.8138V145.826Z" fill="#282828"/>
<path d="M52.6172 153.842C51.0385 153.842 50.2492 152.93 50.2492 151.106V147.122H49.1132V145.906L50.3292 145.826L50.5212 143.666H51.8652V145.826H53.9132V147.122H51.8652V151.106C51.8652 151.586 51.9558 151.949 52.1372 152.194C52.3185 152.429 52.6118 152.546 53.0172 152.546C53.2625 152.546 53.5452 152.482 53.8652 152.354L54.1532 153.554C53.5772 153.746 53.0652 153.842 52.6172 153.842Z" fill="#282828"/>
<path d="M62.3737 143.41C61.6803 143.41 61.3337 143.88 61.3337 144.818V145.826H62.9177V147.122H61.3337V153.65H59.7177V147.122H58.6617V145.906L59.7177 145.826V144.834C59.7177 143.992 59.9203 143.33 60.3257 142.85C60.731 142.36 61.3497 142.114 62.1817 142.114C62.651 142.114 63.1097 142.205 63.5577 142.386L63.2377 143.602C62.9497 143.474 62.6617 143.41 62.3737 143.41Z" fill="#282828"/>
<path d="M64.6563 145.826H65.9843L66.1123 147.234H66.1603C66.4376 146.733 66.7683 146.344 67.1523 146.066C67.547 145.778 67.9576 145.634 68.3843 145.634C68.7363 145.634 69.0243 145.688 69.2483 145.794L68.9603 147.202C68.6723 147.117 68.411 147.074 68.1763 147.074C67.8243 147.074 67.4776 147.213 67.1363 147.49C66.795 147.757 66.507 148.184 66.2723 148.77V153.65H64.6563V145.826Z" fill="#282828"/>
<path d="M73.7529 153.842C73.1023 153.842 72.4943 153.677 71.9289 153.346C71.3636 153.016 70.9103 152.541 70.5689 151.922C70.2383 151.304 70.0729 150.578 70.0729 149.746C70.0729 148.904 70.2383 148.173 70.5689 147.554C70.9103 146.936 71.3583 146.461 71.9129 146.13C72.4783 145.8 73.0916 145.634 73.7529 145.634C74.4143 145.634 75.0223 145.8 75.5769 146.13C76.1423 146.461 76.5903 146.936 76.9209 147.554C77.2623 148.173 77.4329 148.904 77.4329 149.746C77.4329 150.578 77.2623 151.304 76.9209 151.922C76.5903 152.541 76.1423 153.016 75.5769 153.346C75.0116 153.677 74.4036 153.842 73.7529 153.842ZM73.7529 152.514C74.3716 152.514 74.8623 152.264 75.2249 151.762C75.5876 151.25 75.7689 150.578 75.7689 149.746C75.7689 148.914 75.5823 148.242 75.2089 147.73C74.8463 147.218 74.3609 146.962 73.7529 146.962C73.1449 146.962 72.6543 147.218 72.2809 147.73C71.9183 148.242 71.7369 148.914 71.7369 149.746C71.7369 150.578 71.9183 151.25 72.2809 151.762C72.6436 152.264 73.1343 152.514 73.7529 152.514Z" fill="#282828"/>
<path d="M79.6713 145.826H80.9993L81.1273 146.914H81.1753C81.5593 146.52 81.9433 146.21 82.3273 145.986C82.722 145.752 83.1433 145.634 83.5913 145.634C84.6686 145.634 85.3886 146.114 85.7513 147.074C86.1886 146.605 86.6046 146.248 86.9993 146.002C87.4046 145.757 87.8366 145.634 88.2953 145.634C89.0953 145.634 89.6926 145.901 90.0873 146.434C90.4926 146.957 90.6953 147.72 90.6953 148.722V153.65H89.0793V148.93C89.0793 148.258 88.9726 147.773 88.7593 147.474C88.5566 147.176 88.226 147.026 87.7673 147.026C87.234 147.026 86.642 147.384 85.9913 148.098V153.65H84.3753V148.93C84.3753 148.258 84.2686 147.773 84.0553 147.474C83.8526 147.176 83.522 147.026 83.0633 147.026C82.53 147.026 81.938 147.384 81.2873 148.098V153.65H79.6713V145.826Z" fill="#282828"/>
<path d="M99.5291 153.842C97.9504 153.842 97.1611 152.93 97.1611 151.106V147.122H96.0251V145.906L97.2411 145.826L97.4331 143.666H98.7771V145.826H100.825V147.122H98.7771V151.106C98.7771 151.586 98.8677 151.949 99.0491 152.194C99.2304 152.429 99.5237 152.546 99.9291 152.546C100.174 152.546 100.457 152.482 100.777 152.354L101.065 153.554C100.489 153.746 99.9771 153.842 99.5291 153.842Z" fill="#282828"/>
<path d="M102.834 142.306H104.45V145.314L104.386 146.866C104.792 146.482 105.192 146.184 105.586 145.97C105.992 145.746 106.44 145.634 106.93 145.634C108.53 145.634 109.33 146.664 109.33 148.722V153.65H107.714V148.93C107.714 148.258 107.608 147.773 107.394 147.474C107.192 147.176 106.856 147.026 106.386 147.026C106.034 147.026 105.72 147.112 105.442 147.282C105.165 147.442 104.834 147.714 104.45 148.098V153.65H102.834V142.306Z" fill="#282828"/>
<path d="M118.191 149.33C118.191 149.629 118.169 149.906 118.127 150.162H112.959C113.033 150.952 113.3 151.554 113.759 151.97C114.228 152.376 114.793 152.578 115.455 152.578C116.084 152.578 116.708 152.381 117.327 151.986L117.887 153.01C117.055 153.565 116.175 153.842 115.247 153.842C114.532 153.842 113.887 153.677 113.311 153.346C112.735 153.016 112.276 152.541 111.935 151.922C111.604 151.304 111.439 150.578 111.439 149.746C111.439 148.925 111.604 148.205 111.935 147.586C112.276 146.957 112.719 146.477 113.263 146.146C113.807 145.805 114.388 145.634 115.007 145.634C116.02 145.634 116.804 145.97 117.359 146.642C117.913 147.304 118.191 148.2 118.191 149.33ZM116.783 149.042C116.783 148.36 116.633 147.832 116.335 147.458C116.036 147.085 115.604 146.898 115.039 146.898C114.548 146.898 114.111 147.08 113.727 147.442C113.343 147.805 113.097 148.338 112.991 149.042H116.783Z" fill="#282828"/>
<path d="M41.7036 167.826H43.3356L44.3756 172.082L44.6956 173.682L44.8076 174.306H44.8716C45.0743 173.357 45.2449 172.616 45.3836 172.082L46.4876 167.826H47.9916L49.1116 172.082L49.5116 173.73C49.5329 173.858 49.5756 174.05 49.6396 174.306H49.7036C49.8209 173.741 49.8956 173.368 49.9276 173.186L50.1516 172.082L51.1756 167.826H52.6956L50.6636 175.65H48.7276L47.7196 171.762C47.6023 171.293 47.4849 170.765 47.3676 170.178L47.2236 169.49H47.1596C46.9569 170.525 46.7916 171.288 46.6636 171.778L45.6876 175.65H43.8156L41.7036 167.826Z" fill="#282828"/>
<path d="M60.7671 171.33C60.7671 171.629 60.7458 171.906 60.7031 172.162H55.5351C55.6098 172.952 55.8764 173.554 56.3351 173.97C56.8044 174.376 57.3698 174.578 58.0311 174.578C58.6604 174.578 59.2844 174.381 59.9031 173.986L60.4631 175.01C59.6311 175.565 58.7511 175.842 57.8231 175.842C57.1084 175.842 56.4631 175.677 55.8871 175.346C55.3111 175.016 54.8524 174.541 54.5111 173.922C54.1804 173.304 54.0151 172.578 54.0151 171.746C54.0151 170.925 54.1804 170.205 54.5111 169.586C54.8524 168.957 55.2951 168.477 55.8391 168.146C56.3831 167.805 56.9644 167.634 57.5831 167.634C58.5964 167.634 59.3804 167.97 59.9351 168.642C60.4898 169.304 60.7671 170.2 60.7671 171.33ZM59.3591 171.042C59.3591 170.36 59.2098 169.832 58.9111 169.458C58.6125 169.085 58.1804 168.898 57.6151 168.898C57.1244 168.898 56.6871 169.08 56.3031 169.442C55.9191 169.805 55.6738 170.338 55.5671 171.042H59.3591Z" fill="#282828"/>
<path d="M66.5584 175.842C66.1957 175.842 65.8277 175.757 65.4544 175.586C65.081 175.405 64.7237 175.154 64.3824 174.834H64.3344L64.1904 175.65H62.9104V164.306H64.5264V167.314L64.4784 168.658C64.841 168.349 65.225 168.104 65.6304 167.922C66.0357 167.73 66.4357 167.634 66.8304 167.634C67.8117 167.634 68.569 167.992 69.1024 168.706C69.6464 169.421 69.9184 170.386 69.9184 171.602C69.9184 172.466 69.7637 173.218 69.4544 173.858C69.145 174.498 68.7344 174.989 68.2224 175.33C67.7104 175.672 67.1557 175.842 66.5584 175.842ZM66.2384 174.498C66.8357 174.498 67.321 174.248 67.6944 173.746C68.0677 173.234 68.2544 172.53 68.2544 171.634C68.2544 169.864 67.6357 168.978 66.3984 168.978C65.8117 168.978 65.1877 169.298 64.5264 169.938V173.778C64.8144 174.024 65.1024 174.205 65.3904 174.322C65.689 174.44 65.9717 174.498 66.2384 174.498Z" fill="#282828"/>
<path d="M72.6431 164.482C73.0058 164.482 73.2884 164.626 73.4911 164.914C73.6938 165.192 73.7951 165.592 73.7951 166.114C73.7951 167.437 73.1711 168.44 71.9231 169.122L71.5071 168.386C71.9444 168.12 72.2644 167.832 72.4671 167.522C72.6804 167.213 72.7871 166.834 72.7871 166.386C72.7551 166.397 72.7071 166.402 72.6431 166.402C72.3764 166.402 72.1471 166.322 71.9551 166.162C71.7738 165.992 71.6831 165.768 71.6831 165.49C71.6831 165.181 71.7684 164.936 71.9391 164.754C72.1204 164.573 72.3551 164.482 72.6431 164.482ZM75.7471 164.482C76.1098 164.482 76.3924 164.626 76.5951 164.914C76.7978 165.192 76.8991 165.592 76.8991 166.114C76.8991 167.437 76.2751 168.44 75.0271 169.122L74.6111 168.386C75.0484 168.12 75.3684 167.832 75.5711 167.522C75.7844 167.213 75.8911 166.834 75.8911 166.386C75.8591 166.397 75.8111 166.402 75.7471 166.402C75.4804 166.402 75.2511 166.322 75.0591 166.162C74.8778 165.992 74.7871 165.768 74.7871 165.49C74.7871 165.181 74.8724 164.936 75.0431 164.754C75.2244 164.573 75.4591 164.482 75.7471 164.482Z" fill="#282828"/>
<mask id="mask0" mask-type="alpha" maskUnits="userSpaceOnUse" x="10" y="0" width="98" height="98">
<path d="M58.6838 97.6503C85.3744 97.6503 107.011 76.0133 107.011 49.3227C107.011 22.6321 85.3744 0.995117 58.6838 0.995117C31.9932 0.995117 10.3562 22.6321 10.3562 49.3227C10.3562 76.0133 31.9932 97.6503 58.6838 97.6503Z" fill="#E1854F"/>
</mask>
<g mask="url(#mask0)">
<path d="M86.7031 104.149H30.6695C30.6651 101.071 31.1702 98.0145 32.1644 95.102C32.3391 94.5883 32.5292 94.0745 32.7347 93.5608C32.935 93.047 33.156 92.5693 33.3871 92.0812C34.3098 90.1418 35.4545 88.316 36.7984 86.6407C37.1375 86.2246 37.4817 85.8187 37.8259 85.4283C38.0005 85.2279 38.1855 85.0327 38.3704 84.8374L38.9304 84.2672C39.8753 83.3259 40.8865 82.4538 41.9563 81.6574C42.4701 81.2618 43.03 80.8919 43.59 80.5323C43.8263 80.3782 44.073 80.2292 44.3144 80.0905L44.7357 79.8388L44.9206 79.736L45.3008 79.5254C45.5268 79.4021 45.7477 79.2736 45.9738 79.1349C46.6355 78.7392 47.2689 78.298 47.8695 77.8146C48.7547 77.1101 49.5701 76.3222 50.3046 75.4617C52.0922 73.3904 53.3649 70.926 54.019 68.2693C54.1268 67.8737 54.209 67.473 54.281 67.0672C54.463 66.0342 54.5541 64.9873 54.5533 63.9385H58.6375H59.3722H62.8348C62.8326 64.9716 62.9203 66.003 63.0968 67.0209C63.1636 67.4319 63.256 67.8378 63.3588 68.2436C63.4917 68.7944 63.6529 69.338 63.8417 69.8722C64.9567 72.9817 66.913 75.7206 69.4928 77.7838C69.6932 77.9482 69.8936 78.1074 70.0991 78.2564C70.3046 78.4054 70.4741 78.5236 70.6642 78.652L70.7875 78.7342C70.9775 78.8627 71.1676 78.986 71.368 79.1041C71.5683 79.2223 71.8046 79.3661 72.0307 79.4894C72.066 79.498 72.0993 79.5138 72.1283 79.5357C72.5907 79.7925 73.0531 80.0494 73.5 80.3422C73.7158 80.4758 73.9316 80.6094 74.1422 80.7635C74.5789 81.0409 75.0104 81.3492 75.4265 81.6677C75.9403 82.0633 76.454 82.4845 76.9678 82.9212C77.4815 83.3579 77.9593 83.81 78.4319 84.2775C81.0588 86.8762 83.1429 89.9713 84.5628 93.3827C85.9828 96.7941 86.7103 100.454 86.7031 104.149Z" fill="#ECC19C"/>
<path d="M86.7031 104.149H30.6695C30.6651 101.072 31.1702 98.0148 32.1644 95.1024C32.3391 94.5886 32.5292 94.0749 32.7347 93.5611C32.935 93.0474 33.156 92.5696 33.3871 92.0816C34.3098 90.1421 35.4545 88.3164 36.7984 86.641C37.1375 86.2249 37.4817 85.8191 37.8259 85.4286C38.0005 85.2283 38.1855 85.033 38.3704 84.8378L38.9304 84.2676C39.8753 83.3263 40.8865 82.4541 41.9563 81.6577C42.4701 81.2622 43.03 80.8923 43.59 80.5327C43.8263 80.3786 44.073 80.2295 44.3144 80.0908L44.7357 79.8391L44.9206 79.7364L45.3008 79.5206L45.9738 79.1353C46.6328 78.7367 47.2628 78.2921 47.8592 77.8047V77.8047C49.2626 79.2447 50.9404 80.3889 52.7934 81.1698C54.6463 81.9507 56.637 82.3525 58.6478 82.3513H58.6889C58.9201 82.3513 59.1512 82.3513 59.3824 82.3513C63.2027 82.1822 66.8155 80.5659 69.4877 77.8304V77.8304C69.8613 78.1412 70.2505 78.4327 70.6539 78.7037L70.7772 78.7859C70.9673 78.9144 71.1625 79.0325 71.3577 79.1558C71.5529 79.2791 71.7944 79.4127 72.0204 79.536C72.0545 79.548 72.0872 79.5634 72.1181 79.5822C72.5804 79.8391 73.0428 80.096 73.4897 80.394C73.7055 80.5275 73.9213 80.6611 74.1319 80.8152C74.5686 81.0927 75.0001 81.4009 75.4163 81.7194C75.93 82.1201 76.4746 82.5362 76.9575 82.9781C77.4404 83.4199 77.949 83.8668 78.4216 84.3343C81.0437 86.9255 83.1257 90.011 84.5472 93.4123C85.9687 96.8135 86.7015 100.463 86.7031 104.149V104.149Z" fill="#5AB7B2"/>
<path d="M67.3403 70.6482V73.8642C67.342 74.3519 67.1911 74.828 66.9088 75.2257C66.6907 75.5432 66.3984 75.8027 66.0573 75.9818C65.7163 76.1608 65.3367 76.254 64.9514 76.2531H52.1079C51.4738 76.2504 50.8664 75.9973 50.4181 75.5489C49.9697 75.1006 49.7166 74.4932 49.7139 73.8591V70.6431C49.7139 70.0082 49.9661 69.3992 50.4151 68.9502C50.8641 68.5013 51.473 68.2491 52.1079 68.2491H64.9514C65.4076 68.2469 65.8543 68.3791 66.2358 68.6292C66.5757 68.8448 66.8553 69.1431 67.0485 69.4962C67.2417 69.8494 67.3421 70.2457 67.3403 70.6482V70.6482Z" fill="#5AB7B2"/>
<path d="M70.1145 78.2664V85.279H44.3247V80.0799L44.746 79.8282L44.9309 79.7254L45.3111 79.5148C45.5372 79.3915 45.7581 79.263 45.9841 79.1243C46.6458 78.7286 47.2792 78.2874 47.8798 77.804C48.765 77.0995 49.5805 76.3116 50.3149 75.4511C50.9779 74.678 51.571 73.8476 52.0873 72.9697H65.2905C65.7588 73.7686 66.2914 74.528 66.8831 75.2405C67.6565 76.186 68.5279 77.047 69.4826 77.8092C69.7087 77.9479 69.909 78.1174 70.1145 78.2664Z" fill="#5AB7B2"/>
<path d="M87.0364 37.0132C87.0364 48.6032 80.9897 58.6777 72.0865 63.8048C69.3203 65.4078 66.2893 66.5022 63.1371 67.0362C61.9045 67.2487 60.6579 67.3706 59.4074 67.401H58.6933C53.993 67.4054 49.3754 66.1646 45.3104 63.8048C36.4124 58.6674 30.3553 48.6032 30.3553 37.0081C30.3553 20.6403 42.4077 7.29333 57.5168 6.63574H57.5734H58.0152H58.6779H59.3612H59.4074H59.8852H60.1061H60.3732C75.2511 7.6324 87.0364 20.8407 87.0364 37.0132Z" fill="#141720"/>
<path d="M80.194 28.1157V44.1804C80.194 44.4116 80.194 44.6427 80.194 44.8791C80.194 45.1154 80.194 45.2541 80.194 45.4442C80.194 45.6342 80.194 45.7832 80.1632 45.9579C80.1324 46.1326 80.1632 46.1994 80.1375 46.3227C80.1118 46.446 80.1375 46.4665 80.1375 46.5384C80.1375 46.6104 80.1375 46.8056 80.0964 46.9392C80.0964 47.1909 80.045 47.4529 80.0091 47.6943C80.0091 47.756 80.0091 47.8228 79.9834 47.8844C79.9577 47.9461 79.9474 48.1362 79.9269 48.2646L79.8344 48.8143C79.7881 49.066 79.7368 49.3281 79.6854 49.5695C79.6854 49.5695 79.6854 49.5695 79.6854 49.6003C79.688 49.638 79.688 49.6757 79.6854 49.7133C79.6854 49.7133 79.6854 49.7133 79.6854 49.7442C79.6597 49.8829 79.6289 50.0113 79.5981 50.1449C79.5895 50.2042 79.5757 50.2626 79.557 50.3196C79.557 50.4172 79.5159 50.5097 79.4953 50.6073C79.4748 50.7049 79.4696 50.7203 79.4491 50.7716C79.4285 50.823 79.4234 50.8693 79.4131 50.9104C79.3001 51.3419 79.1768 51.7683 79.0432 52.1896C78.9816 52.3899 78.9148 52.5852 78.848 52.7855C78.848 52.7855 78.848 52.8266 78.848 52.8472L78.6579 53.3609L78.5963 53.5253C78.5346 53.6949 78.4678 53.8644 78.4011 54.0391C78.3343 54.2137 78.2367 54.4449 78.1545 54.6453C78.0723 54.8456 78.0003 55.0049 77.9233 55.159C77.9233 55.1898 77.8976 55.2155 77.8873 55.2463C77.8 55.4364 77.7126 55.6265 77.6253 55.8114C77.538 55.9964 77.4404 56.2019 77.3376 56.3971C77.1475 56.7824 76.942 57.1677 76.7365 57.5428L76.4489 58.0565C75.6517 59.4336 74.75 60.7475 73.7517 61.9866C73.6181 62.1613 73.4811 62.3325 73.3407 62.5004C73.1455 62.7367 72.9451 62.973 72.7448 63.199C72.5444 63.4251 72.4006 63.5844 72.231 63.7693V63.795C71.7173 64.3396 71.2035 64.8584 70.6898 65.3362C70.5819 65.4441 70.474 65.5366 70.361 65.6393C70.248 65.742 70.0014 65.963 69.8164 66.1171C69.6315 66.2712 69.5236 66.3637 69.3798 66.487C68.9996 66.8004 68.6194 67.0983 68.2341 67.3809C68.0749 67.5042 67.9105 67.6172 67.7461 67.7302C67.4841 67.9203 67.2323 68.1001 66.9446 68.2748C66.7957 68.3775 66.6415 68.47 66.4926 68.5625L66.4206 68.6036C65.9069 68.9221 65.3931 69.2098 64.8794 69.4667L64.4838 69.6619L64.0728 69.852C63.8982 69.9308 63.7269 70.0044 63.5591 70.0729C63.4924 70.1031 63.4237 70.1289 63.3536 70.15C63.1481 70.2322 62.9375 70.3144 62.732 70.3811C62.5265 70.4479 62.2182 70.5558 61.9511 70.6277C61.7713 70.6791 61.5863 70.7305 61.4065 70.7716H61.3705C61.1907 70.8127 61.0109 70.8538 60.8568 70.8897L60.713 70.9154C60.564 70.9411 60.415 70.9668 60.2712 70.9822C60.1273 70.9976 59.8499 71.0387 59.6392 71.049C59.5674 71.0542 59.4953 71.0542 59.4235 71.049C59.2539 71.049 59.0895 71.049 58.9097 71.049C58.7453 71.049 58.5741 71.049 58.396 71.049C58.3327 71.0542 58.2692 71.0542 58.2059 71.049C58.0569 71.049 57.9028 71.049 57.7487 71.0079H57.6459L57.0551 70.9103C56.8856 70.8846 56.7161 70.8487 56.5414 70.8024C55.5887 70.5809 54.6596 70.2678 53.7672 69.8674C52.9309 69.4963 52.1208 69.0689 51.3423 68.5882L51.2036 68.506C50.844 68.2851 50.4793 68.0488 50.1248 67.797L49.5237 67.3655C48.8935 66.9066 48.2719 66.4065 47.6588 65.8653L47.1451 65.403L46.6313 64.9406C46.2409 64.5656 45.8607 64.1803 45.496 63.7744C45.4725 63.7534 45.4502 63.7312 45.4292 63.7077C45.2751 63.5433 45.1226 63.372 44.9719 63.1939C44.5507 62.7161 44.1397 62.2281 43.7441 61.7143C43.59 61.5294 43.4461 61.3393 43.3074 61.1492C42.7731 60.4403 42.2594 59.7022 41.7662 58.935L41.3912 58.3134C41.2422 58.0668 41.0983 57.7996 40.9596 57.5582C40.4243 56.5999 39.944 55.612 39.5212 54.599C39.4595 54.45 39.3927 54.3011 39.3413 54.1572C39.29 54.0134 39.1821 53.7719 39.1153 53.5818C39.0091 53.301 38.9081 53.0218 38.8122 52.7444C38.7197 52.467 38.6272 52.1793 38.5399 51.8916C38.4526 51.6039 38.3755 51.3419 38.3036 51.0645C38.2317 50.7871 38.1392 50.4685 38.0724 50.1603C38.0724 50.1295 38.0724 50.0986 38.0724 50.0678C37.9731 49.6466 37.884 49.2184 37.8053 48.7835C37.6974 48.2132 37.6152 47.6327 37.5535 47.047C37.5278 46.8621 37.5124 46.6772 37.497 46.4922C37.4816 46.3073 37.4611 46.1069 37.4508 45.9117C37.4251 45.5572 37.4097 45.1976 37.3994 44.8379C37.3994 44.6068 37.3994 44.3756 37.3994 44.1393V28.1157C37.4003 22.6173 39.5072 17.3281 43.2871 13.3351C47.0671 9.3421 52.2329 6.94859 57.723 6.64648H57.7795H58.2213H58.8841H59.5673H59.6136H60.0913H60.3122L60.7849 6.68245H61.0161H61.1702C61.9992 6.77097 62.8225 6.90647 63.6362 7.08829C68.3578 8.16372 72.5784 10.8009 75.615 14.5731C78.6516 18.3453 80.3265 23.0319 80.3687 27.8743C80.194 27.9873 80.194 28.0489 80.194 28.1157Z" fill="#ECC19C"/>
<path d="M84.9823 36.0728H32.3906C32.3906 20.2445 43.5285 7.33417 57.5074 6.64062H57.5639H58.0057H58.6685H59.3517H59.398H59.8758H60.0967H60.3638H60.5641H60.7953H60.9495C74.4351 8.03286 84.9823 20.6709 84.9823 36.0728Z" fill="#141720"/>
<g style="mix-blend-mode:multiply" opacity="0.5">
<path d="M59.403 6.62109V104.15H30.6695C30.6651 101.072 31.1703 98.0151 32.1645 95.1027C32.3391 94.5889 32.5292 94.0752 32.7347 93.5614C32.9351 93.0477 33.156 92.5699 33.3872 92.0819C34.3098 90.1424 35.4546 88.3167 36.7984 86.6413C37.1375 86.2252 37.4817 85.8194 37.8259 85.4289C38.0006 85.2286 38.1855 85.0333 38.3705 84.8381L38.9304 84.2679C39.8753 83.3266 40.8865 82.4544 41.9564 81.6581C42.4701 81.2625 43.0301 80.8926 43.5901 80.533C43.8264 80.3789 44.073 80.2299 44.3145 80.0912L44.7357 79.8394L44.9207 79.7367L45.3008 79.5209L45.9738 79.1356C46.6328 78.737 47.2629 78.2924 47.8592 77.805V77.805C48.7444 77.1005 49.5599 76.3126 50.2944 75.4521C49.9114 75.0178 49.6996 74.459 49.6984 73.88V70.664C49.6986 70.2333 49.8151 69.8106 50.0358 69.4408C50.2564 69.0709 50.573 68.7675 50.952 68.5628C50.5924 68.3419 50.2276 68.1056 49.8731 67.8538L49.272 67.4223C48.6418 66.9634 48.0202 66.4633 47.4071 65.9222L46.8934 65.4598L46.3797 64.9974C45.9892 64.6224 45.6091 64.2371 45.2443 63.8313C36.3463 58.6939 30.2893 48.6297 30.2893 37.0345C30.2893 20.6668 42.3417 7.31979 57.4508 6.6622H57.5073H57.9491H58.6118H59.2951L59.403 6.62109Z" fill="#ECC19C"/>
</g>
</g>
</svg>
