<svg width="137" height="153" viewBox="0 0 137 153" fill="none" xmlns="http://www.w3.org/2000/svg">
<path d="M1.6946 121.651C1.96127 121.651 2.18527 121.736 2.3666 121.907C2.5586 122.067 2.6546 122.286 2.6546 122.563C2.6546 122.872 2.56394 123.118 2.3826 123.299C2.21194 123.48 1.9826 123.571 1.6946 123.571C1.33194 123.571 1.04927 123.432 0.846603 123.155C0.643936 122.867 0.542603 122.462 0.542603 121.939C0.542603 120.616 1.1666 119.614 2.4146 118.931L2.8306 119.667C2.39327 119.934 2.06794 120.222 1.8546 120.531C1.65194 120.84 1.5506 121.219 1.5506 121.667C1.5826 121.656 1.6306 121.651 1.6946 121.651ZM4.7986 121.651C5.06527 121.651 5.28927 121.736 5.4706 121.907C5.6626 122.067 5.7586 122.286 5.7586 122.563C5.7586 122.872 5.66794 123.118 5.4866 123.299C5.31594 123.48 5.0866 123.571 4.7986 123.571C4.43594 123.571 4.15327 123.432 3.9506 123.155C3.74794 122.867 3.6466 122.462 3.6466 121.939C3.6466 120.616 4.2706 119.614 5.5186 118.931L5.9346 119.667C5.49727 119.934 5.17194 120.222 4.9586 120.531C4.75594 120.84 4.6546 121.219 4.6546 121.667C4.6866 121.656 4.7346 121.651 4.7986 121.651Z" fill="#282828"/>
<path d="M8.67073 119.523H10.3027V130.003H8.67073V119.523Z" fill="#282828"/>
<path d="M15.9125 122.179H17.5445L18.5845 126.435L18.9045 128.035L19.0165 128.659H19.0805C19.2831 127.71 19.4538 126.968 19.5925 126.435L20.6965 122.179H22.2005L23.3205 126.435L23.7205 128.083C23.7418 128.211 23.7845 128.403 23.8485 128.659H23.9125C24.0298 128.094 24.1045 127.72 24.1365 127.539L24.3605 126.435L25.3845 122.179H26.9045L24.8725 130.003H22.9365L21.9285 126.115C21.8111 125.646 21.6938 125.118 21.5765 124.531L21.4325 123.843H21.3685C21.1658 124.878 21.0005 125.64 20.8725 126.131L19.8965 130.003H18.0245L15.9125 122.179Z" fill="#282828"/>
<path d="M30.5459 130.195C29.8632 130.195 29.3085 129.992 28.8819 129.587C28.4552 129.171 28.2419 128.616 28.2419 127.923C28.2419 127.08 28.6152 126.435 29.3619 125.987C30.1085 125.528 31.2979 125.208 32.9299 125.027C32.9085 123.875 32.4072 123.299 31.4259 123.299C30.7645 123.299 30.0125 123.566 29.1699 124.099L28.5619 123.011C29.6285 122.328 30.6792 121.987 31.7139 121.987C32.6632 121.987 33.3725 122.275 33.8419 122.851C34.3112 123.416 34.5459 124.232 34.5459 125.299V130.003H33.2179L33.0899 129.107H33.0419C32.1779 129.832 31.3459 130.195 30.5459 130.195ZM31.0419 128.915C31.3725 128.915 31.6819 128.84 31.9699 128.691C32.2579 128.542 32.5779 128.307 32.9299 127.987V126.051C31.7992 126.19 30.9939 126.403 30.5139 126.691C30.0445 126.979 29.8099 127.352 29.8099 127.811C29.8099 128.174 29.9219 128.451 30.1459 128.643C30.3699 128.824 30.6685 128.915 31.0419 128.915Z" fill="#282828"/>
<path d="M37.1817 122.179H38.5097L38.6377 123.267H38.6857C39.1017 122.862 39.5124 122.547 39.9177 122.323C40.3337 122.099 40.7871 121.987 41.2777 121.987C42.8777 121.987 43.6777 123.016 43.6777 125.075V130.003H42.0617V125.283C42.0617 124.611 41.9551 124.126 41.7417 123.827C41.5391 123.528 41.2031 123.379 40.7337 123.379C40.3817 123.379 40.0671 123.464 39.7897 123.635C39.5124 123.795 39.1817 124.067 38.7977 124.451V130.003H37.1817V122.179Z" fill="#282828"/>
<path d="M48.9851 130.195C47.4064 130.195 46.6171 129.283 46.6171 127.459V123.475H45.4811V122.259L46.6971 122.179L46.8891 120.019H48.2331V122.179H50.2811V123.475H48.2331V127.459C48.2331 127.939 48.3238 128.302 48.5051 128.547C48.6864 128.782 48.9798 128.899 49.3851 128.899C49.6304 128.899 49.9131 128.835 50.2331 128.707L50.5211 129.907C49.9451 130.099 49.4331 130.195 48.9851 130.195Z" fill="#282828"/>
<path d="M58.4376 130.195C56.8589 130.195 56.0696 129.283 56.0696 127.459V123.475H54.9336V122.259L56.1496 122.179L56.3416 120.019H57.6856V122.179H59.7336V123.475H57.6856V127.459C57.6856 127.939 57.7763 128.302 57.9576 128.547C58.1389 128.782 58.4323 128.899 58.8376 128.899C59.0829 128.899 59.3656 128.835 59.6856 128.707L59.9736 129.907C59.3976 130.099 58.8856 130.195 58.4376 130.195Z" fill="#282828"/>
<path d="M64.6446 130.195C63.9939 130.195 63.3859 130.03 62.8206 129.699C62.2553 129.368 61.8019 128.894 61.4606 128.275C61.1299 127.656 60.9646 126.931 60.9646 126.099C60.9646 125.256 61.1299 124.526 61.4606 123.907C61.8019 123.288 62.2499 122.814 62.8046 122.483C63.3699 122.152 63.9833 121.987 64.6446 121.987C65.3059 121.987 65.9139 122.152 66.4686 122.483C67.0339 122.814 67.4819 123.288 67.8126 123.907C68.1539 124.526 68.3246 125.256 68.3246 126.099C68.3246 126.931 68.1539 127.656 67.8126 128.275C67.4819 128.894 67.0339 129.368 66.4686 129.699C65.9033 130.03 65.2953 130.195 64.6446 130.195ZM64.6446 128.867C65.2633 128.867 65.7539 128.616 66.1166 128.115C66.4793 127.603 66.6606 126.931 66.6606 126.099C66.6606 125.267 66.4739 124.595 66.1006 124.083C65.7379 123.571 65.2526 123.315 64.6446 123.315C64.0366 123.315 63.5459 123.571 63.1726 124.083C62.8099 124.595 62.6286 125.267 62.6286 126.099C62.6286 126.931 62.8099 127.603 63.1726 128.115C63.5353 128.616 64.0259 128.867 64.6446 128.867Z" fill="#282828"/>
<path d="M77.2701 130.195C76.5661 130.195 75.9314 130.035 75.3661 129.715C74.8008 129.384 74.3528 128.91 74.0221 128.291C73.7021 127.672 73.5421 126.942 73.5421 126.099C73.5421 125.256 73.7181 124.526 74.0701 123.907C74.4221 123.288 74.8914 122.814 75.4781 122.483C76.0648 122.152 76.7048 121.987 77.3981 121.987C78.2514 121.987 79.0141 122.286 79.6861 122.883L78.8861 123.939C78.6514 123.736 78.4221 123.582 78.1981 123.475C77.9741 123.368 77.7341 123.315 77.4781 123.315C76.8061 123.315 76.2568 123.571 75.8301 124.083C75.4141 124.595 75.2061 125.267 75.2061 126.099C75.2061 126.931 75.4088 127.603 75.8141 128.115C76.2301 128.616 76.7688 128.867 77.4301 128.867C78.0168 128.867 78.5874 128.627 79.1421 128.147L79.8141 129.219C79.4621 129.539 79.0621 129.784 78.6141 129.955C78.1768 130.115 77.7288 130.195 77.2701 130.195Z" fill="#282828"/>
<path d="M81.7498 122.179H83.0778L83.2058 123.587H83.2538C83.5312 123.086 83.8618 122.696 84.2458 122.419C84.6405 122.131 85.0512 121.987 85.4778 121.987C85.8298 121.987 86.1178 122.04 86.3418 122.147L86.0538 123.555C85.7658 123.47 85.5045 123.427 85.2698 123.427C84.9178 123.427 84.5712 123.566 84.2298 123.843C83.8885 124.11 83.6005 124.536 83.3658 125.123V130.003H81.7498V122.179Z" fill="#282828"/>
<path d="M93.9185 125.683C93.9185 125.982 93.8971 126.259 93.8545 126.515H88.6865C88.7611 127.304 89.0278 127.907 89.4865 128.323C89.9558 128.728 90.5211 128.931 91.1825 128.931C91.8118 128.931 92.4358 128.734 93.0545 128.339L93.6145 129.363C92.7825 129.918 91.9025 130.195 90.9745 130.195C90.2598 130.195 89.6145 130.03 89.0385 129.699C88.4625 129.368 88.0038 128.894 87.6625 128.275C87.3318 127.656 87.1665 126.931 87.1665 126.099C87.1665 125.278 87.3318 124.558 87.6625 123.939C88.0038 123.31 88.4465 122.83 88.9905 122.499C89.5345 122.158 90.1158 121.987 90.7345 121.987C91.7478 121.987 92.5318 122.323 93.0865 122.995C93.6411 123.656 93.9185 124.552 93.9185 125.683ZM92.5105 125.395C92.5105 124.712 92.3611 124.184 92.0625 123.811C91.7638 123.438 91.3318 123.251 90.7665 123.251C90.2758 123.251 89.8385 123.432 89.4545 123.795C89.0705 124.158 88.8251 124.691 88.7185 125.395H92.5105Z" fill="#282828"/>
<path d="M97.7146 130.195C97.0319 130.195 96.4773 129.992 96.0506 129.587C95.6239 129.171 95.4106 128.616 95.4106 127.923C95.4106 127.08 95.7839 126.435 96.5306 125.987C97.2773 125.528 98.4666 125.208 100.099 125.027C100.077 123.875 99.5759 123.299 98.5946 123.299C97.9333 123.299 97.1813 123.566 96.3386 124.099L95.7306 123.011C96.7973 122.328 97.8479 121.987 98.8826 121.987C99.8319 121.987 100.541 122.275 101.011 122.851C101.48 123.416 101.715 124.232 101.715 125.299V130.003H100.387L100.259 129.107H100.211C99.3466 129.832 98.5146 130.195 97.7146 130.195ZM98.2106 128.915C98.5413 128.915 98.8506 128.84 99.1386 128.691C99.4266 128.542 99.7466 128.307 100.099 127.987V126.051C98.9679 126.19 98.1626 126.403 97.6826 126.691C97.2133 126.979 96.9786 127.352 96.9786 127.811C96.9786 128.174 97.0906 128.451 97.3146 128.643C97.5386 128.824 97.8373 128.915 98.2106 128.915Z" fill="#282828"/>
<path d="M106.74 130.195C105.161 130.195 104.372 129.283 104.372 127.459V123.475H103.236V122.259L104.452 122.179L104.644 120.019H105.988V122.179H108.036V123.475H105.988V127.459C105.988 127.939 106.079 128.302 106.26 128.547C106.441 128.782 106.735 128.899 107.14 128.899C107.385 128.899 107.668 128.835 107.988 128.707L108.276 129.907C107.7 130.099 107.188 130.195 106.74 130.195Z" fill="#282828"/>
<path d="M116.019 125.683C116.019 125.982 115.998 126.259 115.955 126.515H110.787C110.862 127.304 111.128 127.907 111.587 128.323C112.056 128.728 112.622 128.931 113.283 128.931C113.912 128.931 114.536 128.734 115.155 128.339L115.715 129.363C114.883 129.918 114.003 130.195 113.075 130.195C112.36 130.195 111.715 130.03 111.139 129.699C110.563 129.368 110.104 128.894 109.763 128.275C109.432 127.656 109.267 126.931 109.267 126.099C109.267 125.278 109.432 124.558 109.763 123.939C110.104 123.31 110.547 122.83 111.091 122.499C111.635 122.158 112.216 121.987 112.835 121.987C113.848 121.987 114.632 122.323 115.187 122.995C115.742 123.656 116.019 124.552 116.019 125.683ZM114.611 125.395C114.611 124.712 114.462 124.184 114.163 123.811C113.864 123.438 113.432 123.251 112.867 123.251C112.376 123.251 111.939 123.432 111.555 123.795C111.171 124.158 110.926 124.691 110.819 125.395H114.611Z" fill="#282828"/>
<path d="M123.541 130.195C122.859 130.195 122.304 129.992 121.877 129.587C121.451 129.171 121.237 128.616 121.237 127.923C121.237 127.08 121.611 126.435 122.357 125.987C123.104 125.528 124.293 125.208 125.925 125.027C125.904 123.875 125.403 123.299 124.421 123.299C123.76 123.299 123.008 123.566 122.165 124.099L121.557 123.011C122.624 122.328 123.675 121.987 124.709 121.987C125.659 121.987 126.368 122.275 126.837 122.851C127.307 123.416 127.541 124.232 127.541 125.299V130.003H126.213L126.085 129.107H126.037C125.173 129.832 124.341 130.195 123.541 130.195ZM124.037 128.915C124.368 128.915 124.677 128.84 124.965 128.691C125.253 128.542 125.573 128.307 125.925 127.987V126.051C124.795 126.19 123.989 126.403 123.509 126.691C123.04 126.979 122.805 127.352 122.805 127.811C122.805 128.174 122.917 128.451 123.141 128.643C123.365 128.824 123.664 128.915 124.037 128.915Z" fill="#282828"/>
<path d="M130.177 122.179H131.505L131.633 123.267H131.681C132.097 122.862 132.508 122.547 132.913 122.323C133.329 122.099 133.783 121.987 134.273 121.987C135.873 121.987 136.673 123.016 136.673 125.075V130.003H135.057V125.283C135.057 124.611 134.951 124.126 134.737 123.827C134.535 123.528 134.199 123.379 133.729 123.379C133.377 123.379 133.063 123.464 132.785 123.635C132.508 123.795 132.177 124.067 131.793 124.451V130.003H130.177V122.179Z" fill="#282828"/>
<path d="M40.1271 152.195C39.4444 152.195 38.8898 151.992 38.4631 151.587C38.0364 151.171 37.8231 150.616 37.8231 149.923C37.8231 149.08 38.1964 148.435 38.9431 147.987C39.6898 147.528 40.8791 147.208 42.5111 147.027C42.4898 145.875 41.9884 145.299 41.0071 145.299C40.3458 145.299 39.5938 145.566 38.7511 146.099L38.1431 145.011C39.2098 144.328 40.2604 143.987 41.2951 143.987C42.2444 143.987 42.9538 144.275 43.4231 144.851C43.8924 145.416 44.1271 146.232 44.1271 147.299V152.003H42.7991L42.6711 151.107H42.6231C41.7591 151.832 40.9271 152.195 40.1271 152.195ZM40.6231 150.915C40.9538 150.915 41.2631 150.84 41.5511 150.691C41.8391 150.542 42.1591 150.307 42.5111 149.987V148.051C41.3804 148.19 40.5751 148.403 40.0951 148.691C39.6258 148.979 39.3911 149.352 39.3911 149.811C39.3911 150.174 39.5031 150.451 39.7271 150.643C39.9511 150.824 40.2498 150.915 40.6231 150.915Z" fill="#282828"/>
<path d="M49.947 152.195C49.243 152.195 48.6083 152.035 48.043 151.715C47.4776 151.384 47.0296 150.91 46.699 150.291C46.379 149.672 46.219 148.942 46.219 148.099C46.219 147.256 46.395 146.526 46.747 145.907C47.099 145.288 47.5683 144.814 48.155 144.483C48.7416 144.152 49.3816 143.987 50.075 143.987C50.9283 143.987 51.691 144.286 52.363 144.883L51.563 145.939C51.3283 145.736 51.099 145.582 50.875 145.475C50.651 145.368 50.411 145.315 50.155 145.315C49.483 145.315 48.9336 145.571 48.507 146.083C48.091 146.595 47.883 147.267 47.883 148.099C47.883 148.931 48.0856 149.603 48.491 150.115C48.907 150.616 49.4456 150.867 50.107 150.867C50.6936 150.867 51.2643 150.627 51.819 150.147L52.491 151.219C52.139 151.539 51.739 151.784 51.291 151.955C50.8536 152.115 50.4056 152.195 49.947 152.195Z" fill="#282828"/>
<path d="M57.2357 152.195C56.5317 152.195 55.8971 152.035 55.3317 151.715C54.7664 151.384 54.3184 150.91 53.9877 150.291C53.6677 149.672 53.5077 148.942 53.5077 148.099C53.5077 147.256 53.6837 146.526 54.0357 145.907C54.3877 145.288 54.8571 144.814 55.4437 144.483C56.0304 144.152 56.6704 143.987 57.3637 143.987C58.2171 143.987 58.9797 144.286 59.6517 144.883L58.8517 145.939C58.6171 145.736 58.3877 145.582 58.1637 145.475C57.9397 145.368 57.6997 145.315 57.4437 145.315C56.7717 145.315 56.2224 145.571 55.7957 146.083C55.3797 146.595 55.1717 147.267 55.1717 148.099C55.1717 148.931 55.3744 149.603 55.7797 150.115C56.1957 150.616 56.7344 150.867 57.3957 150.867C57.9824 150.867 58.5531 150.627 59.1077 150.147L59.7797 151.219C59.4277 151.539 59.0277 151.784 58.5797 151.955C58.1424 152.115 57.6944 152.195 57.2357 152.195Z" fill="#282828"/>
<path d="M64.4765 152.195C63.8258 152.195 63.2178 152.03 62.6525 151.699C62.0871 151.368 61.6338 150.894 61.2925 150.275C60.9618 149.656 60.7965 148.931 60.7965 148.099C60.7965 147.256 60.9618 146.526 61.2925 145.907C61.6338 145.288 62.0818 144.814 62.6365 144.483C63.2018 144.152 63.8151 143.987 64.4765 143.987C65.1378 143.987 65.7458 144.152 66.3005 144.483C66.8658 144.814 67.3138 145.288 67.6445 145.907C67.9858 146.526 68.1565 147.256 68.1565 148.099C68.1565 148.931 67.9858 149.656 67.6445 150.275C67.3138 150.894 66.8658 151.368 66.3005 151.699C65.7351 152.03 65.1271 152.195 64.4765 152.195ZM64.4765 150.867C65.0951 150.867 65.5858 150.616 65.9485 150.115C66.3111 149.603 66.4925 148.931 66.4925 148.099C66.4925 147.267 66.3058 146.595 65.9325 146.083C65.5698 145.571 65.0845 145.315 64.4765 145.315C63.8685 145.315 63.3778 145.571 63.0045 146.083C62.6418 146.595 62.4605 147.267 62.4605 148.099C62.4605 148.931 62.6418 149.603 63.0045 150.115C63.3671 150.616 63.8578 150.867 64.4765 150.867Z" fill="#282828"/>
<path d="M72.6988 152.195C71.0988 152.195 70.2988 151.166 70.2988 149.107V144.179H71.9148V148.899C71.9148 149.571 72.0162 150.056 72.2188 150.355C72.4322 150.654 72.7735 150.803 73.2428 150.803C73.6055 150.803 73.9255 150.712 74.2028 150.531C74.4802 150.35 74.7895 150.046 75.1308 149.619V144.179H76.7468V152.003H75.4188L75.2908 150.819H75.2428C74.8588 151.267 74.4642 151.608 74.0588 151.843C73.6642 152.078 73.2108 152.195 72.6988 152.195Z" fill="#282828"/>
<path d="M79.5273 144.179H80.8553L80.9833 145.267H81.0313C81.4473 144.862 81.858 144.547 82.2633 144.323C82.6793 144.099 83.1327 143.987 83.6233 143.987C85.2233 143.987 86.0233 145.016 86.0233 147.075V152.003H84.4073V147.283C84.4073 146.611 84.3007 146.126 84.0873 145.827C83.8847 145.528 83.5487 145.379 83.0793 145.379C82.7273 145.379 82.4127 145.464 82.1353 145.635C81.858 145.795 81.5273 146.067 81.1433 146.451V152.003H79.5273V144.179Z" fill="#282828"/>
<path d="M91.3307 152.195C89.7521 152.195 88.9627 151.283 88.9627 149.459V145.475H87.8267V144.259L89.0427 144.179L89.2347 142.019H90.5787V144.179H92.6267V145.475H90.5787V149.459C90.5787 149.939 90.6694 150.302 90.8507 150.547C91.032 150.782 91.3254 150.899 91.7307 150.899C91.976 150.899 92.2587 150.835 92.5787 150.707L92.8667 151.907C92.2907 152.099 91.7787 152.195 91.3307 152.195Z" fill="#282828"/>
<path d="M95.5801 140.835C95.9428 140.835 96.2254 140.979 96.4281 141.267C96.6308 141.544 96.7321 141.944 96.7321 142.467C96.7321 143.79 96.1081 144.792 94.8601 145.475L94.4441 144.739C94.8814 144.472 95.2014 144.184 95.4041 143.875C95.6174 143.566 95.7241 143.187 95.7241 142.739C95.6921 142.75 95.6441 142.755 95.5801 142.755C95.3134 142.755 95.0841 142.675 94.8921 142.515C94.7108 142.344 94.6201 142.12 94.6201 141.843C94.6201 141.534 94.7054 141.288 94.8761 141.107C95.0574 140.926 95.2921 140.835 95.5801 140.835ZM98.6841 140.835C99.0468 140.835 99.3294 140.979 99.5321 141.267C99.7348 141.544 99.8361 141.944 99.8361 142.467C99.8361 143.79 99.2121 144.792 97.9641 145.475L97.5481 144.739C97.9854 144.472 98.3054 144.184 98.5081 143.875C98.7214 143.566 98.8281 143.187 98.8281 142.739C98.7961 142.75 98.7481 142.755 98.6841 142.755C98.4174 142.755 98.1881 142.675 97.9961 142.515C97.8148 142.344 97.7241 142.12 97.7241 141.843C97.7241 141.534 97.8094 141.288 97.9801 141.107C98.1614 140.926 98.3961 140.835 98.6841 140.835Z" fill="#282828"/>
<mask id="mask0" mask-type="alpha" maskUnits="userSpaceOnUse" x="22" y="0" width="97" height="97">
<path d="M70.6827 96.4291C97.1925 96.4291 118.683 74.9387 118.683 48.4289C118.683 21.9191 97.1925 0.428711 70.6827 0.428711C44.1729 0.428711 22.6825 21.9191 22.6825 48.4289C22.6825 74.9387 44.1729 96.4291 70.6827 96.4291Z" fill="#1C5A7D"/>
</mask>
<g mask="url(#mask0)">
<path d="M98.9971 50.312V94.9139L42.4807 93.9495V49.3477L98.9971 50.312Z" fill="#421800"/>
<path d="M92.0472 30.1627V43.3172C92.0472 43.5468 92.0472 43.7764 92.0472 44.0111C92.0472 44.2458 92.0472 44.3836 92.0472 44.5724C92.0472 44.7612 92.0472 44.9092 92.0166 45.0827C91.986 45.2561 92.0166 45.3225 91.9911 45.4449C91.9656 45.5674 91.9911 45.5878 91.9911 45.6593C91.9911 45.7307 91.9911 45.9246 91.9503 46.0573C91.9503 46.3073 91.8993 46.5675 91.8636 46.8073C91.8636 46.8686 91.8636 46.9349 91.8381 46.9961C91.8125 47.0574 91.8023 47.2462 91.7819 47.3737L91.6849 47.9197C91.639 48.1697 91.5931 48.43 91.537 48.6698C91.537 48.6698 91.537 48.6698 91.537 48.7004C91.5396 48.7378 91.5396 48.7753 91.537 48.8127C91.537 48.8127 91.537 48.8127 91.537 48.8433C91.5115 48.981 91.4809 49.1086 91.4502 49.2413C91.4417 49.3002 91.4281 49.3582 91.4094 49.4148C91.4094 49.5117 91.3686 49.6036 91.3482 49.7005C91.3278 49.7975 91.3227 49.8128 91.3023 49.8638C91.2818 49.9148 91.2768 49.9607 91.2666 50.0016C91.1543 50.4302 91.0318 50.8537 90.8992 51.2721C90.8379 51.4711 90.7716 51.665 90.7053 51.864C90.7053 51.864 90.7053 51.9048 90.7053 51.9253L90.5165 52.4355L90.4552 52.5988C90.394 52.7672 90.3277 52.9356 90.2613 53.1091C90.195 53.2825 90.0981 53.5122 90.0164 53.7112C89.9348 53.9102 89.8633 54.0683 89.7868 54.2214C89.7868 54.252 89.7613 54.2775 89.7511 54.3082C89.6643 54.497 89.5776 54.6858 89.4908 54.8694C89.4041 55.0531 89.3071 55.2573 89.2051 55.4512C89.0163 55.8338 88.8122 56.2165 88.6081 56.589L88.3223 57.0993C87.5306 58.4671 86.635 59.7721 85.6435 61.0028C85.5108 61.1763 85.3748 61.3464 85.2353 61.513C85.0414 61.7478 84.8424 61.9825 84.6434 62.207C84.4444 62.4315 84.3015 62.5897 84.1331 62.7734V62.7989C83.6296 63.3398 83.1194 63.85 82.6023 64.3297C82.4952 64.4368 82.388 64.5287 82.2758 64.6307C82.1635 64.7328 81.9186 64.9522 81.7349 65.1053C81.5512 65.2583 81.444 65.3502 81.3012 65.4727C80.9236 65.7839 80.546 66.0799 80.1633 66.3605C80.0051 66.483 79.8418 66.5952 79.6785 66.7075C79.4183 66.8963 79.1683 67.0749 78.8825 67.2484C78.7346 67.3504 78.5815 67.4423 78.4335 67.5341C77.9232 67.8658 77.3569 68.1668 76.8211 68.4322L76.4282 68.6261L76.02 68.8149C75.8465 68.8931 75.6764 68.9662 75.5097 69.0343C75.4435 69.0643 75.3753 69.0899 75.3056 69.1108C75.1015 69.1925 74.8923 69.2741 74.6882 69.3404C74.4841 69.4068 74.1779 69.5139 73.9126 69.5854C73.734 69.6364 73.5503 69.6874 73.3717 69.7282H73.336C73.1574 69.769 72.9788 69.8099 72.8257 69.8456L72.6829 69.8711C72.5349 69.8966 72.3869 69.9221 72.244 69.9374C72.1012 69.9527 71.8256 69.9936 71.6164 70.0038C71.5451 70.009 71.4734 70.009 71.4021 70.0038C71.2337 70.0038 71.0704 70.0038 70.8918 70.0038C70.7286 70.0038 70.5585 70.0038 70.3816 70.0038C70.3188 70.009 70.2556 70.009 70.1928 70.0038C70.0448 70.0038 69.8918 70.0038 69.7387 69.963H69.6366L69.0498 69.866C68.8814 69.8405 68.713 69.8048 68.5395 69.7588C67.5933 69.5388 66.6705 69.2278 65.7842 68.8302C64.9536 68.4615 64.1489 68.037 63.3757 67.5596C62.9726 67.3147 62.5695 67.0494 62.1715 66.7738L61.5745 66.3452C60.9486 65.8894 60.3312 65.3927 59.7223 64.8552L59.212 64.396L58.7017 63.9368C58.3139 63.5643 57.9363 63.1816 57.5741 62.7785C57.5507 62.7576 57.5286 62.7355 57.5077 62.7121C57.3546 62.5489 57.2033 62.3788 57.0536 62.2019C56.6352 61.7273 56.227 61.2426 55.8341 60.7324C55.681 60.5487 55.5381 60.3599 55.4003 60.1711C54.8697 59.4669 54.3594 58.7338 53.8696 57.9718L53.4971 57.3544C53.3491 57.1095 53.2062 56.8442 53.0684 56.6043C52.5367 55.6526 52.0597 54.6713 51.6397 53.6652C51.5785 53.5173 51.5122 53.3693 51.4611 53.2264C51.4101 53.0835 51.303 52.8437 51.2366 52.6549C51.1312 52.376 51.0308 52.0987 50.9356 51.8232C50.8386 51.5477 50.7519 51.2619 50.6651 50.9762C50.5784 50.6904 50.5018 50.4302 50.4304 50.1546C50.359 49.8791 50.2671 49.5627 50.2008 49.2566C50.2008 49.226 50.2008 49.1954 50.2008 49.1596C50.1021 48.7412 50.0137 48.316 49.9355 47.884C49.8283 47.3176 49.7467 46.741 49.6854 46.1593C49.6599 45.9756 49.6446 45.7919 49.6293 45.6082C49.614 45.4245 49.5936 45.2255 49.5834 45.0316C49.5579 44.6795 49.5426 44.3224 49.5323 43.9652C49.5323 43.7356 49.5323 43.506 49.5323 43.2712V30.1627C49.5332 24.7015 51.6259 19.4482 55.3802 15.4822C59.1346 11.5162 64.2654 9.13893 69.7182 8.83887H69.7744H70.2132H70.8714H71.5501H72.0604C73.246 8.9116 74.4236 9.08226 75.5811 9.34913C80.2708 10.4173 84.4629 13.0366 87.4789 16.7833C90.4949 20.5299 92.1584 25.1847 92.2003 29.9943C92.0472 30.0402 92.0472 30.1014 92.0472 30.1627Z" fill="#F0D0B4"/>
<path d="M98.5124 102.859H42.8583C42.8538 99.8293 43.3468 96.8195 44.3176 93.9497C44.3176 93.9242 44.3176 93.8987 44.3432 93.8732C44.5166 93.3629 44.7054 92.8527 44.9095 92.3424C45.1085 91.8322 45.328 91.3576 45.5576 90.8729C46.474 88.9466 47.611 87.1332 48.9457 85.4692C49.2825 85.0559 49.6244 84.6528 49.9662 84.265C50.1397 84.066 50.3234 83.8721 50.5071 83.6782L51.0633 83.1118C52.0017 82.1769 53.0061 81.3107 54.0687 80.5197C54.579 80.1268 55.1352 79.7594 55.6913 79.4022L55.9107 79.2644C56.1148 79.1318 56.319 79.0093 56.5282 78.8868C56.7374 78.7644 57.0997 78.5552 57.3905 78.3766C57.615 78.2541 57.8344 78.1265 58.059 77.9888C58.7161 77.5957 59.3453 77.1576 59.9418 76.6774C62.0154 75.0304 63.6892 72.9353 64.838 70.5494C65.9868 68.1635 66.5807 65.5485 66.5752 62.9004H70.6318H70.6981H74.7802C74.778 63.9265 74.8651 64.9509 75.0404 65.962C75.2071 66.9234 75.4546 67.869 75.7803 68.7888C76.8805 71.881 78.8249 74.6032 81.3931 76.6468C81.766 76.9539 82.1543 77.2417 82.5566 77.5091L82.679 77.5908C82.8678 77.7183 83.0566 77.8408 83.2556 77.9582C83.4546 78.0755 83.6893 78.2184 83.9138 78.3409C83.9489 78.3494 83.9819 78.365 84.0108 78.3868C84.47 78.6419 84.9292 78.897 85.3732 79.1879L85.4803 79.2542C85.6589 79.3665 85.8426 79.4787 85.9906 79.6063C86.4243 79.8818 86.8529 80.188 87.2662 80.5044C87.7765 80.8973 88.2868 81.3157 88.797 81.7494C89.3073 82.1831 89.7818 82.6322 90.2513 83.0965C92.8451 85.6778 94.9021 88.7474 96.3033 92.1279C97.7046 95.5085 98.4224 99.1331 98.4154 102.793L98.5124 102.859Z" fill="#F0D0B4"/>
<path d="M98.5124 102.858H42.8583C42.8538 99.8289 43.3468 96.8191 44.3176 93.9493C44.3176 93.9238 44.3176 93.8983 44.3432 93.8728C44.5166 93.3625 44.7054 92.8522 44.9095 92.342C45.1085 91.8317 45.328 91.3572 45.5576 90.8724C46.474 88.9461 47.611 87.1328 48.9457 85.4688C49.2825 85.0554 49.6244 84.6524 49.9662 84.2646C50.1397 84.0656 50.3234 83.8716 50.5071 83.6777L51.0633 83.1114C52.0017 82.1765 53.0061 81.3102 54.0687 80.5192C54.579 80.1263 55.1352 79.759 55.6913 79.4018L55.9107 79.264C56.1148 79.1313 56.319 79.0089 56.5282 78.8864C56.7374 78.7639 57.0997 78.5496 57.3905 78.3761L58.059 77.9934C58.7135 77.5975 59.3392 77.1559 59.9316 76.6719V76.6719C61.3255 78.1021 62.9919 79.2386 64.8323 80.0142C66.6727 80.7898 68.6499 81.1888 70.6471 81.1877H70.7134C72.71 81.1881 74.6865 80.7892 76.5267 80.0146C78.3669 79.2399 80.0336 78.1052 81.4289 76.677V76.677C81.7999 76.9857 82.1865 77.2752 82.5872 77.5444L82.7096 77.6261C82.8984 77.7536 83.0923 77.871 83.2862 77.9934C83.4801 78.1159 83.7199 78.2486 83.9444 78.371C83.9783 78.3829 84.0108 78.3983 84.0414 78.417C84.5006 78.6721 84.9599 78.9272 85.4038 79.2232L85.5109 79.2895C85.6895 79.4018 85.8732 79.514 86.0212 79.6416C86.4549 79.9171 86.8835 80.2233 87.2969 80.5396C87.8071 80.9376 88.348 81.351 88.8276 81.7898C89.3073 82.2286 89.8124 82.6725 90.2819 83.1369C92.8758 85.7182 94.9327 88.7878 96.334 92.1683C97.7352 95.5489 98.4531 99.1735 98.446 102.833L98.5124 102.858Z" fill="#F49F0A"/>
<path d="M99.1197 87.4495C99.0807 87.467 99.0395 87.4791 98.9972 87.4852C96.2367 88.2047 85.3579 75.091 85.2457 61.3446C85.2373 60.2291 85.3021 59.1144 85.4396 58.0074C85.807 55.0428 87.2357 52.1956 88.4195 49.333C89.3533 47.0624 90.1442 44.7866 90.1442 42.4343C90.1442 29.8411 86.4907 33.9436 76.3111 27.152C73.8516 25.5141 72.1014 24.1721 70.7339 23.0699C66.9529 20.0696 65.9936 18.9878 60.8042 18.9878C54.2066 18.9878 51.5838 30.4483 50.8337 35.3519C50.0275 40.6229 50.0173 49.1697 53.3034 57.2931C55.8547 63.5999 55.8547 69.7792 50.8337 76.6473C48.9509 79.1986 46.0628 87.924 42.4808 90.7356C41.3633 91.6132 40.1846 91.9143 38.9396 91.2815C29.1477 86.2708 35.0412 70.1925 37.9803 60.125C41.1439 49.2922 42.0981 38.3114 44.3942 27.3714C46.9864 15.0537 57.5284 7.5478 61.789 10.589C63.2127 8.03765 66.9324 7.08347 70.7339 7.08347C73.3416 7.06671 75.9321 7.50709 78.3878 8.38463C93.9405 14.421 94.2059 28.841 95.0325 34.8365C95.7163 39.7912 98.1553 44.4141 99.0074 49.3075C99.1975 50.343 99.2982 51.3929 99.3085 52.4456C99.3442 58.1707 98.7064 62.0385 103.054 66.8094C106.34 70.4782 103.819 85.4084 99.1197 87.4495Z" fill="#421800"/>
<g style="mix-blend-mode:multiply" opacity="0.5">
<path d="M70.734 7.13086V102.866H42.8585C42.854 99.8363 43.347 96.8266 44.3178 93.9568H42.4809V90.783C41.3634 91.6606 40.1847 91.9616 38.9397 91.3289C29.1478 86.3182 35.0413 70.2399 37.9804 60.1724C41.144 49.3396 42.0982 38.3588 44.3944 27.4188C46.9865 15.1011 57.5285 7.59519 61.7892 10.6363C63.2128 8.08504 66.9326 7.13086 70.734 7.13086Z" fill="#F0D0B4"/>
</g>
</g>
</svg>
