<svg width="121" height="121" viewBox="0 0 121 121" fill="none" xmlns="http://www.w3.org/2000/svg">
<path opacity="0.5" d="M120.531 60.3809C120.531 93.5179 93.6678 120.381 60.5308 120.381C27.3937 120.381 0.530762 93.5179 0.530762 60.3809C0.530762 27.2438 27.3937 0.380859 60.5308 0.380859C93.6678 0.380859 120.531 27.2438 120.531 60.3809ZM12.5308 60.3809C12.5308 86.8905 34.0211 108.381 60.5308 108.381C87.0404 108.381 108.531 86.8905 108.531 60.3809C108.531 33.8712 87.0404 12.3809 60.5308 12.3809C34.0211 12.3809 12.5308 33.8712 12.5308 60.3809Z" fill="#81D3C8"/>
<path d="M114.531 60.3809C117.844 60.3809 120.562 63.0738 120.231 66.3709C119.363 75.019 116.624 83.4006 112.176 90.9228C106.706 100.172 98.853 107.782 89.437 112.959C80.0211 118.135 69.3878 120.689 58.6479 120.351C47.9081 120.014 37.4558 116.799 28.3832 111.042C19.3105 105.285 11.9504 97.1967 7.07173 87.623C2.19306 78.0492 -0.0251185 67.341 0.648933 56.617C1.32298 45.893 4.86453 35.5468 10.9036 26.6593C15.8152 19.431 22.2323 13.3832 29.6875 8.91536C32.5299 7.21194 36.1236 8.52381 37.5348 11.522V11.522C38.9459 14.5203 37.6335 18.0642 34.8346 19.8382C29.305 23.3429 24.5322 27.9538 20.829 33.4036C15.9978 40.5136 13.1645 48.7906 12.6253 57.3698C12.0861 65.949 13.8606 74.5155 17.7635 82.1745C21.6665 89.8335 27.5546 96.3039 34.8127 100.91C42.0708 105.515 50.4326 108.087 59.0245 108.357C67.6164 108.627 76.123 106.584 83.6558 102.443C91.1885 98.3018 97.4709 92.2135 101.847 84.8144C105.201 79.143 107.34 72.861 108.156 66.3654C108.569 63.0775 111.217 60.3809 114.531 60.3809V60.3809Z" fill="#18A2A2"/>
</svg>
