<svg width="43" height="46" viewBox="0 0 43 46" fill="none" xmlns="http://www.w3.org/2000/svg">
<path opacity="0.5" d="M42.9243 4.45116C42.9243 2.45026 41.3021 0.828613 39.3012 0.828613L14.6522 0.830771C12.6513 0.830771 11.0292 2.45296 11.0297 4.45386L11.0302 10.0088H13.3516V6.87501C13.3516 6.2352 13.87 5.71676 14.5098 5.71676H39.4485C40.0883 5.71676 40.6067 6.2352 40.6067 6.87501V39.0383C40.6067 39.6781 40.0883 40.1965 39.4485 40.1965H22.6213V42.0054C22.6213 43.4959 22.0085 44.85 21.0229 45.8286L39.3061 45.827C41.307 45.827 42.9292 44.2048 42.9286 42.2039L42.9243 4.45116ZM26.9792 44.536C26.0761 44.536 25.344 43.804 25.344 42.9009C25.344 41.9978 26.0761 41.2658 26.9792 41.2658C27.8822 41.2658 28.6143 41.9978 28.6143 42.9009C28.6143 43.804 27.8822 44.536 26.9792 44.536ZM17.0097 11.9541H4.57384C2.57024 11.9541 0.930786 13.5936 0.930786 15.5972V42.1753C0.930786 44.1789 2.57024 45.8184 4.57384 45.8184H17.0097C19.0133 45.8184 20.6528 44.1789 20.6528 42.1753C20.6528 40.1717 20.6528 15.5966 20.6528 15.5966C20.6528 13.593 19.0133 11.9541 17.0097 11.9541ZM10.7918 45.0642C9.85688 45.0642 9.09838 44.3062 9.09838 43.3708C9.09838 42.4353 9.85634 41.6774 10.7918 41.6774C11.7267 41.6774 12.4852 42.4353 12.4852 43.3708C12.4852 44.3062 11.7267 45.0642 10.7918 45.0642ZM18.7199 39.9246C18.7199 40.4393 18.2991 40.8601 17.7844 40.8601H3.79916C3.2845 40.8601 2.86371 40.4393 2.86371 39.9246V17.8473C2.86371 17.3327 3.2845 16.9119 3.79916 16.9119H17.7844C18.2991 16.9119 18.7199 17.3327 18.7199 17.8473V39.9246Z" fill="#18A2A2"/>
</svg>
