<svg xmlns="http://www.w3.org/2000/svg" data-name="Layer 1" viewBox="0 0 88.76 117.9">
  <path fill="#282828" d="M79.92 8.98c2.36 5.51 4.84 16.34 5.51 29.14.79 15-1.11 22.57-6.85 35.37-6 13.42-18.93 21-33.15 23-14.38 2.07-28.9-1.44-42.68-5.26v4.33l28.93-11.5a2.25 2.25 0 0 0-1.1-4.3 53.2 53.2 0 0 0-15.92 5c-3.21 1.6-10 4.66-11 8.55-1 3.71 3.78 7.16 5.91 9.53l12.91 14.4c1.9 2.13 5-1 3.13-3.13l-8.6-9.62-4.3-4.81c-1.13-1.27-4.29-3.87-4.13-5.38.17-2.37 8.29-5.73 10.32-6.61a50.69 50.69 0 0 1 12.84-3.58l-1.16-4.35-29 11.5c-2 .78-2.34 3.69 0 4.33 22.34 6.19 48.46 10.81 68.44-4.33 9.52-7.21 14.1-17.9 16.69-29.26a89.47 89.47 0 0 0 .25-36.49c-2.38-12.7-3.1-14.95-8.61-25.19-.53-1-3 .57-2.36 1.58a31.22 31.22 0 0 1 3.93 7.08z"/>
</svg>
