<svg width="168" height="168" viewBox="0 0 168 168" fill="none" xmlns="http://www.w3.org/2000/svg">
<circle cx="83.958" cy="84.1215" r="83.4693" transform="rotate(-90 83.958 84.1215)" fill="#81D3C8"/>
<path d="M68.0654 2.17909C80.1274 -0.160324 92.5572 0.192045 104.467 3.21104C116.377 6.23004 127.474 11.8412 136.965 19.6439C146.457 27.4467 154.108 37.2486 159.374 48.3499C164.639 59.4512 167.389 71.578 167.427 83.8648L83.958 84.1215L68.0654 2.17909Z" fill="#C7F6F0"/>
<path d="M27.5789 101.216H34.5629V102.764H29.4149V106.382H33.7889V107.93H29.4149V113.006H27.5789V101.216Z" fill="#484848"/>
<path d="M43.55 108.146C43.55 108.482 43.526 108.794 43.478 109.082H37.664C37.748 109.97 38.048 110.648 38.564 111.116C39.092 111.572 39.728 111.8 40.472 111.8C41.18 111.8 41.882 111.578 42.578 111.134L43.208 112.286C42.272 112.91 41.282 113.222 40.238 113.222C39.434 113.222 38.708 113.036 38.06 112.664C37.412 112.292 36.896 111.758 36.512 111.062C36.14 110.366 35.954 109.55 35.954 108.614C35.954 107.69 36.14 106.88 36.512 106.184C36.896 105.476 37.394 104.936 38.006 104.564C38.618 104.18 39.272 103.988 39.968 103.988C41.108 103.988 41.99 104.366 42.614 105.122C43.238 105.866 43.55 106.874 43.55 108.146ZM41.966 107.822C41.966 107.054 41.798 106.46 41.462 106.04C41.126 105.62 40.64 105.41 40.004 105.41C39.452 105.41 38.96 105.614 38.528 106.022C38.096 106.43 37.82 107.03 37.7 107.822H41.966Z" fill="#484848"/>
<path d="M45.9611 104.204H47.4551L47.5991 105.428H47.6531C48.0851 104.984 48.5171 104.636 48.9491 104.384C49.3931 104.12 49.8671 103.988 50.3711 103.988C51.5831 103.988 52.3931 104.528 52.8011 105.608C53.2931 105.08 53.7611 104.678 54.2051 104.402C54.6611 104.126 55.1471 103.988 55.6631 103.988C56.5631 103.988 57.2351 104.288 57.6791 104.888C58.1351 105.476 58.3631 106.334 58.3631 107.462V113.006H56.5451V107.696C56.5451 106.94 56.4251 106.394 56.1851 106.058C55.9571 105.722 55.5851 105.554 55.0691 105.554C54.4691 105.554 53.8031 105.956 53.0711 106.76V113.006H51.2531V107.696C51.2531 106.94 51.1331 106.394 50.8931 106.058C50.6651 105.722 50.2931 105.554 49.7771 105.554C49.1771 105.554 48.5111 105.956 47.7791 106.76V113.006H45.9611V104.204Z" fill="#484848"/>
<path d="M63.4736 113.222C62.7056 113.222 62.0816 112.994 61.6016 112.538C61.1216 112.07 60.8816 111.446 60.8816 110.666C60.8816 109.718 61.3016 108.992 62.1416 108.488C62.9816 107.972 64.3196 107.612 66.1556 107.408C66.1316 106.112 65.5676 105.464 64.4636 105.464C63.7196 105.464 62.8736 105.764 61.9256 106.364L61.2416 105.14C62.4416 104.372 63.6236 103.988 64.7876 103.988C65.8556 103.988 66.6536 104.312 67.1816 104.96C67.7096 105.596 67.9736 106.514 67.9736 107.714V113.006H66.4796L66.3356 111.998H66.2816C65.3096 112.814 64.3736 113.222 63.4736 113.222ZM64.0316 111.782C64.4036 111.782 64.7516 111.698 65.0756 111.53C65.3996 111.362 65.7596 111.098 66.1556 110.738V108.56C64.8836 108.716 63.9776 108.956 63.4376 109.28C62.9096 109.604 62.6456 110.024 62.6456 110.54C62.6456 110.948 62.7716 111.26 63.0236 111.476C63.2756 111.68 63.6116 111.782 64.0316 111.782Z" fill="#484848"/>
<path d="M72.7569 113.222C72.1209 113.222 71.6589 113.03 71.3709 112.646C71.0829 112.262 70.9389 111.698 70.9389 110.954V100.244H72.7569V111.062C72.7569 111.29 72.7989 111.458 72.8829 111.566C72.9669 111.674 73.0689 111.728 73.1889 111.728C73.2969 111.728 73.4049 111.716 73.5129 111.692L73.7469 113.06C73.4709 113.168 73.1409 113.222 72.7569 113.222Z" fill="#484848"/>
<path d="M83.029 108.146C83.029 108.482 83.005 108.794 82.957 109.082H77.143C77.227 109.97 77.527 110.648 78.043 111.116C78.571 111.572 79.207 111.8 79.951 111.8C80.659 111.8 81.361 111.578 82.057 111.134L82.687 112.286C81.751 112.91 80.761 113.222 79.717 113.222C78.913 113.222 78.187 113.036 77.539 112.664C76.891 112.292 76.375 111.758 75.991 111.062C75.619 110.366 75.433 109.55 75.433 108.614C75.433 107.69 75.619 106.88 75.991 106.184C76.375 105.476 76.873 104.936 77.485 104.564C78.097 104.18 78.751 103.988 79.447 103.988C80.587 103.988 81.469 104.366 82.093 105.122C82.717 105.866 83.029 106.874 83.029 108.146ZM81.445 107.822C81.445 107.054 81.277 106.46 80.941 106.04C80.605 105.62 80.119 105.41 79.483 105.41C78.931 105.41 78.439 105.614 78.007 106.022C77.575 106.43 77.299 107.03 77.179 107.822H81.445Z" fill="#484848"/>
<path d="M101.563 43.2816H103.687L105.847 49.2756L106.279 50.5896L106.639 51.6516H106.711C106.903 51.0756 107.023 50.7036 107.071 50.5356L107.485 49.2756L109.609 43.2816H111.733V55.0716H110.041V49.2036C110.041 48.5556 110.107 47.4816 110.239 45.9816L110.275 45.5676H110.203L109.267 48.2856L107.197 53.9196H106.063L103.993 48.2856L103.057 45.5676H102.985L103.021 45.9816C103.153 47.4816 103.219 48.5556 103.219 49.2036V55.0716H101.563V43.2816Z" fill="#484848"/>
<path d="M117.12 55.2876C116.352 55.2876 115.728 55.0596 115.248 54.6036C114.768 54.1356 114.528 53.5116 114.528 52.7316C114.528 51.7836 114.948 51.0576 115.788 50.5536C116.628 50.0376 117.966 49.6776 119.802 49.4736C119.778 48.1776 119.214 47.5296 118.11 47.5296C117.366 47.5296 116.52 47.8296 115.572 48.4296L114.888 47.2056C116.088 46.4376 117.27 46.0536 118.434 46.0536C119.502 46.0536 120.3 46.3776 120.828 47.0256C121.356 47.6616 121.62 48.5796 121.62 49.7796V55.0716H120.126L119.982 54.0636H119.928C118.956 54.8796 118.02 55.2876 117.12 55.2876ZM117.678 53.8476C118.05 53.8476 118.398 53.7636 118.722 53.5956C119.046 53.4276 119.406 53.1636 119.802 52.8036V50.6256C118.53 50.7816 117.624 51.0216 117.084 51.3456C116.556 51.6696 116.292 52.0896 116.292 52.6056C116.292 53.0136 116.418 53.3256 116.67 53.5416C116.922 53.7456 117.258 53.8476 117.678 53.8476Z" fill="#484848"/>
<path d="M126.403 55.2876C125.767 55.2876 125.305 55.0956 125.017 54.7116C124.729 54.3276 124.585 53.7636 124.585 53.0196V42.3096H126.403V53.1276C126.403 53.3556 126.445 53.5236 126.529 53.6316C126.613 53.7396 126.715 53.7936 126.835 53.7936C126.943 53.7936 127.051 53.7816 127.159 53.7576L127.393 55.1256C127.117 55.2336 126.787 55.2876 126.403 55.2876Z" fill="#484848"/>
<path d="M136.675 50.2116C136.675 50.5476 136.651 50.8596 136.603 51.1476H130.789C130.873 52.0356 131.173 52.7136 131.689 53.1816C132.217 53.6376 132.853 53.8656 133.597 53.8656C134.305 53.8656 135.007 53.6436 135.703 53.1996L136.333 54.3516C135.397 54.9756 134.407 55.2876 133.363 55.2876C132.559 55.2876 131.833 55.1016 131.185 54.7296C130.537 54.3576 130.021 53.8236 129.637 53.1276C129.265 52.4316 129.079 51.6156 129.079 50.6796C129.079 49.7556 129.265 48.9456 129.637 48.2496C130.021 47.5416 130.519 47.0016 131.131 46.6296C131.743 46.2456 132.397 46.0536 133.093 46.0536C134.233 46.0536 135.115 46.4316 135.739 47.1876C136.363 47.9316 136.675 48.9396 136.675 50.2116ZM135.091 49.8876C135.091 49.1196 134.923 48.5256 134.587 48.1056C134.251 47.6856 133.765 47.4756 133.129 47.4756C132.577 47.4756 132.085 47.6796 131.653 48.0876C131.221 48.4956 130.945 49.0956 130.825 49.8876H135.091Z" fill="#484848"/>
</svg>
