<svg xmlns="http://www.w3.org/2000/svg" viewBox="0 0 100 100">
  <path fill="#ca2127" d="M98.3 50.5C98.3 77.3 76.5 99 49.8 99S1.3 77.3 1.3 50.5 23 2 49.8 2s48.5 21.7 48.5 48.5z"/>
  <path fill="#fff" d="M45.7 18.2c-13.7 1.5-27.3 12-27.8 27-.4 9.2 3.5 16.1 12.7 18 1.1-4.3 1.2-6.7 1.2-6.7s-4-3.9-4.5-6.3c-3.4-19.8 24-33.3 38.3-19.5C75.5 40.3 69 69.8 53 66.8c-15.3-2.9 7.5-26.4-4.7-31-9.9-3.8-15.2 11.5-10.5 19-2.8 13-8.7 25.3-6.3 41.6C39.3 91 42 80.6 44.1 69.8c3.9 2.3 6 4.6 11 5 18.5 1.4 28.9-17.5 26.3-35C79.2 24.3 63 16.4 45.7 18.2z"/>
</svg>
