<svg width="34" height="46" viewBox="0 0 34 46" fill="none" xmlns="http://www.w3.org/2000/svg">
<g opacity="0.5">
<path fill-rule="evenodd" clip-rule="evenodd" d="M4.24552 20.5742H29.6323C31.8801 20.5742 33.7312 22.4253 33.7312 24.5409V41.7299C33.7312 43.9777 31.8801 45.8288 29.6323 45.8288H4.24552C1.99773 45.8288 0.146606 43.9777 0.146606 41.7299V24.5409C0.146606 22.4253 1.99773 20.5742 4.24552 20.5742ZM16.9389 28.2431C18.9223 28.2431 20.3767 29.6976 20.3767 31.6809C20.3767 33.0032 19.7156 34.1932 18.5256 34.7221V37.1021C18.5256 38.0276 17.8645 38.6888 16.9389 38.6888C16.0134 38.6888 15.3522 38.0276 15.3522 37.1021V34.7221C14.1622 34.1932 13.5011 33.0032 13.5011 31.6809C13.5011 29.6976 14.9556 28.2431 16.9389 28.2431Z" fill="#18A2A2"/>
<path d="M4.37769 18.9432V13.3898C4.37769 6.5142 10.0633 0.828613 16.9389 0.828613C23.8145 0.828613 29.5 6.5142 29.5 13.3898V18.9432H26.8556V13.3898C26.8556 7.96865 22.36 3.47307 16.9389 3.47307C11.5177 3.47307 7.02214 7.96865 7.02214 13.3898V18.9432H4.37769Z" fill="#18A2A2"/>
</g>
</svg>
