<svg width="61" height="46" viewBox="0 0 61 46" fill="none" xmlns="http://www.w3.org/2000/svg">
<g opacity="0.5">
<path fill-rule="evenodd" clip-rule="evenodd" d="M25.2868 35.6574C25.3574 35.6574 25.4228 35.62 25.4592 35.5595C27.6784 31.8761 31.3664 29.1785 35.7136 28.2763C35.843 28.2494 35.9138 28.1076 35.8533 27.99C33.2479 22.921 27.9668 19.4551 21.8729 19.4551H16.6711C7.99201 19.4551 0.961548 26.4855 0.961548 35.1646C0.961548 35.4368 1.18214 35.6574 1.45425 35.6574H25.2868Z" fill="#18A2A2"/>
<path d="M42.655 27.7932C47.4383 27.7932 51.3158 23.9157 51.3158 19.1325C51.3158 14.3492 47.4383 10.4717 42.655 10.4717C37.8718 10.4717 33.9943 14.3492 33.9943 19.1325C33.9943 23.9157 37.8718 27.7932 42.655 27.7932Z" fill="#18A2A2"/>
<path d="M60.9415 44.964C60.9415 45.2361 60.7209 45.4567 60.4488 45.4567H24.8133C24.5411 45.4567 24.3206 45.2361 24.3206 44.964V44.964C24.3206 36.2849 31.351 29.2544 40.0301 29.2544H45.2319C53.911 29.2544 60.9415 36.2849 60.9415 44.964V44.964Z" fill="#18A2A2"/>
<path d="M19.1787 17.7781C23.9619 17.7781 27.8395 13.9005 27.8395 9.11732C27.8395 4.33411 23.9619 0.456543 19.1787 0.456543C14.3955 0.456543 10.5179 4.33411 10.5179 9.11732C10.5179 13.9005 14.3955 17.7781 19.1787 17.7781Z" fill="#18A2A2"/>
</g>
</svg>
