<svg width="49" height="46" viewBox="0 0 49 46" fill="none" xmlns="http://www.w3.org/2000/svg">
<path opacity="0.5" d="M48.5587 15.1926C48.5587 14.8131 48.5045 14.4878 48.396 14.1625L44.4382 2.66855L44.384 2.56012C44.0045 1.58421 43.0828 0.879395 42.0527 0.879395H6.86592C5.78158 0.879395 4.8599 1.58421 4.5346 2.56012L4.48038 2.66855L0.522549 14.1625C0.414115 14.4878 0.359899 14.8131 0.359899 15.1926V21.4276C0.359899 22.1324 0.576766 22.8372 1.0105 23.3794L0.522549 24.7348C0.414115 25.0601 0.359899 25.3854 0.359899 25.7649V31.9999C0.359899 32.6505 0.576766 33.3011 0.902067 33.8433L0.414116 35.2529C0.305682 35.5782 0.251465 35.9035 0.251465 36.283V42.518C0.251465 44.3613 1.76954 45.8794 3.61291 45.8794H45.0888C46.9322 45.8794 48.4503 44.3613 48.4503 42.518V36.283C48.4503 35.9035 48.396 35.5782 48.2876 35.2529L47.8539 34.0059C48.2876 33.4637 48.5587 32.7589 48.5587 31.9999V25.7649C48.5587 25.3854 48.5045 25.0601 48.396 24.7348L47.9081 23.3794C48.2876 22.8372 48.5587 22.1866 48.5587 21.4276V15.1926V15.1926ZM2.96231 16.277C2.96231 15.1384 3.88399 14.2167 5.02255 14.2167H43.8418C44.9804 14.2167 45.9021 15.1384 45.9021 16.277V20.3433C45.9021 21.4818 44.9804 22.4035 43.8418 22.4035H5.07677C3.93821 22.4035 3.01652 21.4818 3.01652 20.3433V16.277H2.96231ZM45.9563 30.9155C45.9563 32.0541 45.0346 32.9758 43.896 32.9758H5.07677C3.93821 32.9758 3.01652 32.0541 3.01652 30.9155V26.8493C3.01652 25.7649 3.82978 24.8975 4.8599 24.789H44.1671C45.1972 24.8975 46.0105 25.7649 46.0105 26.8493V30.9155H45.9563ZM45.8478 41.4336C45.8478 42.5722 44.9262 43.4939 43.7876 43.4939H4.96833C3.82978 43.4939 2.90809 42.5722 2.90809 41.4336V37.3673C2.90809 36.3372 3.61291 35.524 4.58881 35.3071H44.2213C45.143 35.524 45.9021 36.3372 45.9021 37.3673V41.4336H45.8478Z" fill="#18A2A2"/>
<path opacity="0.5" d="M8.13074 20.3426C9.26929 20.3426 10.1368 19.4209 10.1368 18.3366C10.1368 17.198 9.21507 16.3306 8.13074 16.3306C6.99218 16.3306 6.12471 17.2523 6.12471 18.3366C6.0705 19.4209 6.99218 20.3426 8.13074 20.3426Z" fill="#18A2A2"/>
<path opacity="0.5" d="M8.13078 26.7949C6.99223 26.7949 6.12476 27.7166 6.12476 28.8009C6.12476 29.9395 7.04644 30.807 8.13078 30.807C9.26933 30.807 10.1368 29.8853 10.1368 28.8009C10.1368 27.6624 9.21512 26.7949 8.13078 26.7949Z" fill="#18A2A2"/>
<path opacity="0.5" d="M8.13078 37.3672C6.99223 37.3672 6.12476 38.2889 6.12476 39.3732C6.12476 40.5118 7.04644 41.3792 8.13078 41.3792C9.26933 41.3792 10.1368 40.4575 10.1368 39.3732C10.1368 38.2347 9.21512 37.3672 8.13078 37.3672Z" fill="#18A2A2"/>
</svg>
