<svg viewBox="0 0 97 97" fill="none" xmlns="http://www.w3.org/2000/svg">
<mask id="mask0" mask-type="alpha" maskUnits="userSpaceOnUse" x="0" y="0" width="97" height="97">
<path d="M48.6825 96.9775C75.1922 96.9775 96.6825 75.4872 96.6825 48.9775C96.6825 22.4679 75.1922 0.977539 48.6825 0.977539C22.1728 0.977539 0.682495 22.4679 0.682495 48.9775C0.682495 75.4872 22.1728 96.9775 48.6825 96.9775Z" fill="#F3E4B2"/>
</mask>
<g mask="url(#mask0)">
<path d="M70.0623 27.9088V43.8646C70.0623 44.0942 70.0623 44.3238 70.0623 44.5586C70.0623 44.7933 70.0623 44.931 70.0623 45.1198C70.0623 45.3086 70.0623 45.4566 70.0317 45.6301C70.0011 45.8036 70.0317 45.8699 70.0062 45.9924C69.9807 46.1148 70.0062 46.1352 70.0062 46.2067C70.0062 46.2781 70.0062 46.472 69.9654 46.6047C69.9654 46.8547 69.9144 47.1149 69.8787 47.3548C69.8787 47.416 69.8787 47.4823 69.8531 47.5436C69.8276 47.6048 69.8174 47.7936 69.797 47.9212L69.7001 48.4671C69.6542 48.7171 69.6082 48.9774 69.5521 49.2172C69.5521 49.2172 69.5521 49.2172 69.5521 49.2478C69.5546 49.2852 69.5546 49.3227 69.5521 49.3601C69.5521 49.3601 69.5521 49.3601 69.5521 49.3907C69.5266 49.5285 69.496 49.656 69.4653 49.7887C69.4568 49.8476 69.4432 49.9057 69.4245 49.9622C69.4245 50.0591 69.3837 50.151 69.3633 50.2479C69.3429 50.3449 69.3378 50.3602 69.3174 50.4112C69.297 50.4622 69.2919 50.5082 69.2817 50.549C69.1694 50.9776 69.0469 51.4011 68.9143 51.8195C68.853 52.0185 68.7867 52.2124 68.7204 52.4114C68.7204 52.4114 68.7204 52.4522 68.7204 52.4727L68.5316 52.9829L68.4703 53.1462C68.4091 53.3146 68.3428 53.483 68.2764 53.6565C68.2101 53.8299 68.1132 54.0596 68.0315 54.2586C67.9499 54.4576 67.8784 54.6157 67.8019 54.7688C67.8019 54.7994 67.7764 54.8249 67.7662 54.8556C67.6794 55.0444 67.5927 55.2332 67.506 55.4169C67.4192 55.6005 67.3223 55.8046 67.2202 55.9985C67.0314 56.3812 66.8273 56.7639 66.6232 57.1364L66.3375 57.6467C65.5457 59.0145 64.6501 60.3194 63.6586 61.5502C63.5259 61.7236 63.3899 61.8937 63.2504 62.0604C63.0565 62.2951 62.8575 62.5247 62.6585 62.7544C62.4595 62.984 62.3013 63.1524 62.1176 63.3463C61.6074 63.8871 61.0971 64.4025 60.5869 64.877C60.4797 64.9842 60.3726 65.076 60.2603 65.1781C60.148 65.2801 59.9031 65.4996 59.7194 65.6526C59.5357 65.8057 59.4286 65.8976 59.2857 66.02C58.9081 66.3313 58.5305 66.6272 58.1478 66.9079C57.9896 67.0303 57.8264 67.1426 57.6631 67.2548C57.4028 67.4436 57.1528 67.6222 56.8671 67.7957C56.7191 67.8978 56.566 67.9896 56.418 68.0815C55.9078 68.4131 55.3414 68.7142 54.8056 68.9795L54.4127 69.1734L54.0045 69.3622C53.831 69.4404 53.661 69.5136 53.4943 69.5816C53.428 69.6116 53.3598 69.6372 53.2902 69.6582C53.0861 69.7398 52.8769 69.8214 52.6728 69.8878C52.4687 69.9541 52.1625 70.0613 51.8972 70.1327C51.7186 70.1837 51.5349 70.2348 51.3563 70.2756H51.3206C51.142 70.3164 50.9634 70.3572 50.8103 70.3929L50.6675 70.4184C50.5195 70.444 50.3715 70.4695 50.2286 70.4848C50.0857 70.5001 49.8102 70.5409 49.601 70.5511C49.5297 70.5563 49.458 70.5563 49.3867 70.5511C49.2183 70.5511 49.0499 70.5511 48.8764 70.5511C48.7132 70.5511 48.5431 70.5511 48.3662 70.5511C48.3034 70.5563 48.2402 70.5563 48.1774 70.5511C48.0294 70.5511 47.8763 70.5511 47.7233 70.5103H47.6212L47.0344 70.4133C46.866 70.3878 46.6976 70.3521 46.5242 70.3062C45.5779 70.0861 44.6552 69.7751 43.7687 69.3775C42.9382 69.0089 42.1335 68.5844 41.3603 68.107C40.9572 67.862 40.5541 67.5967 40.1561 67.3212L39.3652 66.9334C38.7393 66.4775 38.1219 65.9809 37.513 65.4434L37.0027 64.9842L36.4925 64.5249C36.0843 64.1303 35.6863 63.7205 35.2985 63.2952C35.1454 63.132 34.994 62.9619 34.8443 62.785C34.4259 62.3104 34.0177 61.8257 33.6248 61.3154C33.4717 61.1317 33.3289 60.9429 33.1911 60.7541C32.6604 60.05 32.1502 59.3169 31.6603 58.5549L31.2878 57.9375C31.1399 57.6926 30.997 57.4273 30.8592 57.1874C30.3274 56.2357 29.8504 55.2544 29.4305 54.2484C29.3693 54.1004 29.3029 53.9524 29.2519 53.8095C29.2009 53.6667 29.0937 53.4268 29.0274 53.238C28.9219 52.9591 28.8216 52.6819 28.7263 52.4063C28.6294 52.1308 28.5426 51.845 28.4559 51.5593C28.3692 51.2736 28.2926 51.0133 28.2212 50.7378C28.1497 50.4622 28.0579 50.1459 27.9916 49.8397C27.9916 49.8091 27.9916 49.7785 27.9916 49.7428C27.8929 49.3244 27.8045 48.8991 27.7262 48.4671C27.6191 47.9007 27.5374 47.3242 27.4762 46.7425C27.4507 46.5588 27.4354 46.3751 27.4201 46.1914C27.4048 46.0077 27.3844 45.8087 27.3741 45.6148C27.3486 45.2627 27.3333 44.9055 27.3231 44.5483C27.3231 44.3187 27.3231 44.0891 27.3231 43.8544V27.9088C27.3231 22.2475 29.5707 16.8177 33.5719 12.8126C37.5732 8.80757 43.0008 6.55481 48.6621 6.5494V6.5494C50.2528 6.54496 51.8391 6.71608 53.3922 7.05966C58.0971 8.12043 62.3047 10.7419 65.3304 14.4978C68.3562 18.2536 70.0222 22.9227 70.0573 27.7455C70.0624 27.7813 70.0623 27.8476 70.0623 27.9088Z" fill="#ECC19C"/>
<path d="M76.5325 103.406H20.8786C20.8742 100.35 21.3759 97.3135 22.3634 94.4208C22.5369 93.9105 22.7257 93.4002 22.9298 92.89C23.1288 92.3797 23.3482 91.9052 23.5778 91.4204C24.494 89.494 25.631 87.6806 26.966 86.0168C27.3027 85.6035 27.6446 85.2004 27.9865 84.8126C28.16 84.6136 28.3437 84.4197 28.5274 84.2258L29.0835 83.6594C30.022 82.7245 31.0264 81.8583 32.0889 81.0673C32.5992 80.6744 33.1554 80.307 33.7116 79.9498C34.2678 79.5926 34.8341 79.261 35.4107 78.9293C35.6352 78.8068 35.8547 78.6793 36.0792 78.5415C36.7448 78.1527 37.3825 77.718 37.9875 77.2404C40.0613 75.5935 41.7354 73.4986 42.8843 71.1126C44.0331 68.7266 44.6268 66.1115 44.6209 63.4634H48.6774H52.8462C52.8356 66.1092 53.4241 68.7231 54.5676 71.1091C55.7111 73.4951 57.3799 75.5912 59.449 77.2404C59.8218 77.5474 60.2102 77.8353 60.6124 78.1027L60.7349 78.1843C60.9236 78.3119 61.1124 78.4344 61.3114 78.5517C61.5104 78.6691 61.7452 78.812 61.9697 78.9344C62.0048 78.943 62.0378 78.9586 62.0666 78.9803C62.5259 79.2355 62.9851 79.4906 63.429 79.7814C63.6433 79.9141 63.8576 80.0468 64.0668 80.1998C64.5005 80.4754 64.9292 80.7815 65.3425 81.0979C65.8527 81.4908 66.363 81.9092 66.8732 82.3429C67.3835 82.7767 67.8581 83.2257 68.3275 83.69C70.9323 86.2696 72.9989 89.3407 74.4074 92.7253C75.8159 96.1099 76.5382 99.7405 76.5325 103.406V103.406Z" fill="#ECC19C"/>
<path d="M76.5324 103.402H20.8734C20.8691 100.345 21.3708 97.3086 22.3583 94.4159C22.5318 93.9056 22.7206 93.3953 22.9247 92.8851C23.1237 92.3748 23.3431 91.9003 23.5727 91.4155C24.4888 89.4891 25.6259 87.6757 26.9608 86.0119C27.2976 85.5986 27.6395 85.1955 27.9813 84.8077C28.1548 84.6087 28.3385 84.4148 28.5222 84.2209L29.0784 83.6545C30.0168 82.7196 31.0212 81.8533 32.0838 81.0624C32.5941 80.6695 33.1503 80.3021 33.7064 79.9449C33.9973 79.7612 34.283 79.5826 34.579 79.4347C34.8749 79.2867 35.13 79.1132 35.4056 78.9601L36.074 78.5774C36.7286 78.1815 37.3543 77.7399 37.9467 77.2559V77.2559C39.3406 78.6861 41.007 79.8226 42.8474 80.5982C44.6878 81.3738 46.6649 81.7728 48.6621 81.7716H48.7029C50.6994 81.7715 52.6757 81.3723 54.5159 80.5977C56.356 79.8232 58.0228 78.6887 59.4183 77.261C59.7894 77.5696 60.176 77.8592 60.5766 78.1284L60.6991 78.21C60.8879 78.3376 61.0818 78.455 61.2757 78.5774C61.4696 78.6999 61.7094 78.8326 61.9339 78.955C61.966 78.9672 61.9968 78.9826 62.0258 79.0009C62.2707 79.1387 62.536 79.2816 62.7656 79.4245C62.9953 79.5673 63.1841 79.6745 63.3882 79.8072C63.5923 79.9398 63.8168 80.0725 64.026 80.2256C64.4597 80.5011 64.8883 80.8073 65.3016 81.1236C65.8119 81.5216 66.3528 81.9349 66.8324 82.3738C67.3121 82.8126 67.8172 83.2565 68.2866 83.7208C70.8946 86.2928 72.9663 89.3566 74.3817 92.7349C75.7971 96.1131 76.5281 99.7387 76.5324 103.402V103.402Z" fill="#EB6D4A"/>
<path d="M70.0623 43.8647C70.0623 44.0943 70.0623 44.3239 70.0623 44.5587C70.0623 44.7934 70.0623 44.9311 70.0623 45.1199C70.0623 45.3087 70.0623 45.4567 70.0317 45.6302C70.0011 45.8037 70.0317 45.87 70.0062 45.9925C69.9807 46.1149 70.0062 46.1353 70.0062 46.2068C70.0062 46.2782 70.0062 46.4721 69.9654 46.6048C69.9399 46.8548 69.9144 47.115 69.8787 47.3549C69.8787 47.4161 69.8787 47.4824 69.8531 47.5436C69.8276 47.6049 69.8174 47.7937 69.797 47.9213C69.7766 48.0488 69.7358 48.2988 69.7001 48.4825C69.6644 48.6662 69.6184 48.9163 69.5674 49.1306C69.562 49.1753 69.5535 49.2197 69.5419 49.2632C69.5419 49.299 69.5419 49.3347 69.5419 49.3755C69.5419 49.4163 69.5419 49.3755 69.5419 49.4061C69.5447 49.4281 69.5447 49.4504 69.5419 49.4724C69.5164 49.5847 69.496 49.6918 69.4653 49.8041C69.4568 49.863 69.4432 49.9211 69.4245 49.9776C69.4046 50.081 69.3791 50.1832 69.348 50.2838C69.3429 50.3323 69.3326 50.3802 69.3174 50.4266C69.3174 50.4725 69.2919 50.5236 69.2817 50.5644C69.1694 50.993 69.0469 51.4165 68.9143 51.8349C68.853 52.0339 68.7867 52.2278 68.7204 52.4268C68.7204 52.4268 68.7204 52.4676 68.7204 52.4881L68.5316 52.9983L68.4703 53.1616C68.4091 53.33 68.3428 53.4984 68.2764 53.6719C68.2101 53.8453 68.1132 54.075 68.0315 54.274C67.9499 54.473 67.8784 54.6311 67.8019 54.7842C67.8019 54.8148 67.7764 54.8404 67.7662 54.871C67.6794 55.0598 67.5927 55.2486 67.506 55.4323C67.4192 55.6159 67.3223 55.82 67.2202 56.0139C67.0314 56.3966 66.8273 56.7793 66.6232 57.1518L66.3375 57.6621C65.5457 59.0299 64.6501 60.3348 63.6586 61.5656C63.5259 61.739 63.3899 61.9091 63.2504 62.0758C63.0565 62.3105 62.8575 62.5402 62.6585 62.7698C62.4595 62.9994 62.3013 63.1678 62.1176 63.3617C61.6074 63.9025 61.0971 64.4179 60.5869 64.8924C60.4797 64.9996 60.3726 65.0914 60.2603 65.1935C60.148 65.2956 59.9031 65.515 59.7194 65.668C59.5357 65.8211 59.4286 65.913 59.2857 66.0354C58.9081 66.3467 58.5305 66.6426 58.1478 66.9233C57.9896 67.0457 57.8264 67.158 57.6631 67.2702C57.4028 67.459 57.1528 67.6376 56.8671 67.8111C56.7191 67.9132 56.566 68.005 56.418 68.0969C55.9078 68.4285 55.3414 68.7296 54.8056 68.9949L54.4127 69.1888L54.0045 69.3776C53.831 69.4558 53.661 69.529 53.4943 69.597C53.428 69.627 53.3598 69.6526 53.2902 69.6736C53.0861 69.7552 52.8769 69.8368 52.6728 69.9032C52.4687 69.9695 52.1625 70.0767 51.8972 70.1481C51.7186 70.1991 51.5349 70.2502 51.3563 70.291H51.3206C51.142 70.3318 50.9634 70.3726 50.8103 70.4083L50.6675 70.4338C50.5195 70.4594 50.3715 70.4849 50.2286 70.5002C50.0857 70.5155 49.8102 70.5563 49.601 70.5665C49.5297 70.5717 49.458 70.5717 49.3867 70.5665C49.2183 70.5665 49.0499 70.5665 48.8764 70.5665C48.7132 70.5665 48.5431 70.5665 48.3662 70.5665C48.3034 70.5717 48.2402 70.5717 48.1774 70.5665C48.0294 70.5665 47.8763 70.5665 47.7233 70.5257H47.6212L47.0344 70.4287C46.866 70.4032 46.6976 70.3675 46.5242 70.3216C45.5779 70.1015 44.6552 69.7905 43.7687 69.3929C42.9382 69.0243 42.1335 68.5998 41.3603 68.1224C40.9572 67.8826 40.5592 67.6121 40.1561 67.3366L39.3652 66.9335C38.7393 66.4776 38.1219 65.981 37.513 65.4435L37.0027 64.9843L36.4925 64.525C36.0843 64.1304 35.6863 63.7206 35.2985 63.2953C35.1454 63.1321 34.994 62.962 34.8443 62.7851C34.4259 62.3105 34.0177 61.8258 33.6248 61.3155C33.4717 61.1318 33.3289 60.943 33.1911 60.7542C32.6604 60.0501 32.1502 59.317 31.6603 58.555L31.2878 57.9376C31.1399 57.6927 30.997 57.4274 30.8592 57.1875C30.3274 56.2358 29.8504 55.2545 29.4305 54.2485C29.3693 54.1005 29.3029 53.9525 29.2519 53.8096C29.2009 53.6667 29.0937 53.4269 29.0274 53.2381C28.9219 52.9592 28.8216 52.682 28.7263 52.4064C28.6294 52.1309 28.5426 51.8451 28.4559 51.5594C28.3692 51.2737 28.2926 51.0134 28.2212 50.7379C28.1497 50.4623 28.0579 50.146 27.9916 49.8398C27.9916 49.8092 27.9916 49.7786 27.9916 49.7429C27.8929 49.3245 27.8045 48.8992 27.7262 48.4672C27.6191 47.9008 27.5374 47.3243 27.4762 46.7426C27.4507 46.5589 27.4354 46.3752 27.4201 46.1915C27.4048 46.0078 27.3844 45.8088 27.3741 45.6149C27.3486 45.2628 27.3333 44.9056 27.3231 44.5484C27.3231 44.3188 27.3231 44.0892 27.3231 43.8545L30.7316 50.5593L36.5894 53.1106L43.5442 53.7688L48.6825 54.2383H48.7132L53.5198 54.672L64.2352 55.6364L70.0623 43.8647Z" fill="#543E36"/>
<path d="M48.7284 47.2322V52.4011V60.356L28.0936 49.8549C28.0936 49.8243 28.0936 49.7937 28.0936 49.758C27.995 49.3395 27.9065 48.9143 27.8283 48.4823C27.7211 47.9159 27.6395 47.3393 27.5782 46.7576C27.5527 46.5739 27.5374 46.3902 27.5221 46.2065C27.5068 46.0229 27.4864 45.8239 27.4762 45.63C27.4507 45.2779 27.4354 44.9207 27.4252 44.5635C27.4252 44.3339 27.4252 44.1043 27.4252 43.8696V37.5934C27.4252 37.6801 27.4252 37.772 27.4252 37.8587C27.4807 39.5121 27.7325 41.153 28.1753 42.747C28.5108 43.9858 28.9583 45.1916 29.5121 46.3494V46.3494C30.8847 49.2069 32.7268 51.151 34.4208 51.452L34.7423 51.4877C35.4199 51.5645 36.1013 51.6037 36.7833 51.6051C39.4571 51.6051 41.8349 49.4518 43.3299 48.5844H43.3605L43.5851 48.4415L43.6463 48.4058C45.222 47.5928 46.9763 47.1876 48.7489 47.2271L48.7284 47.2322Z" fill="#543E36"/>
<path d="M70.0672 37.5934V43.8645C70.0657 45.4047 69.9257 46.9417 69.6488 48.4568C69.5365 49.0538 69.4141 49.6457 69.2661 50.2376L64.4238 57.2332L48.718 60.3458V47.2169H48.7588C50.5313 47.1782 52.2854 47.5834 53.8614 48.3956L53.9176 48.4313L54.1471 48.5742H54.1727C55.6728 49.4467 58.0455 51.6 60.7193 51.6C61.4013 51.5986 62.0827 51.5594 62.7603 51.4826L63.0869 51.4469C64.7758 51.1306 66.623 49.1916 67.9905 46.3443C68.5443 45.1865 68.9917 43.9807 69.3273 42.7419C69.7779 41.1253 70.0298 39.4598 70.0774 37.7822C70.0672 37.721 70.0672 37.6597 70.0672 37.5934Z" fill="#543E36"/>
<path d="M48.7029 55.6358C51.5915 55.6358 53.9331 54.9116 53.9331 54.0183C53.9331 53.125 51.5915 52.4008 48.7029 52.4008C45.8144 52.4008 43.4728 53.125 43.4728 54.0183C43.4728 54.9116 45.8144 55.6358 48.7029 55.6358Z" fill="#ECC19C"/>
<path d="M48.7079 6.5542C43.0466 6.55961 37.619 8.81235 33.6177 12.8174C29.6165 16.8225 27.3689 22.2523 27.3689 27.9136V37.3279C27.3689 37.3279 28.2568 31.715 30.6448 28.9801C33.2369 26.0155 32.5786 21.5099 38.3956 21.5099C42.146 21.5099 42.3552 22.8927 48.7079 22.8927H48.7385C55.0912 22.8927 55.3005 21.5099 59.0508 21.5099C64.8627 21.5099 64.2096 26.0155 66.8017 28.9801C69.1897 31.7099 70.0775 37.3279 70.0775 37.3279V27.9085C70.0769 25.1031 69.5236 22.3253 68.4492 19.7338C67.3749 17.1423 65.8005 14.7878 63.8161 12.8048C61.8317 10.8218 59.476 9.24917 56.8837 8.17668C54.2915 7.10419 51.5133 6.55286 48.7079 6.5542V6.5542Z" fill="#543E36"/>
<g style="mix-blend-mode:multiply" opacity="0.5">
<path d="M48.6875 6.5542V103.411H20.8784C20.8741 100.355 21.3758 97.3185 22.3633 94.4258C22.5368 93.9155 22.7256 93.4053 22.9297 92.895C23.1287 92.3847 23.3481 91.9102 23.5777 91.4255C24.4939 89.499 25.6309 87.6857 26.9658 86.0218C27.3026 85.6085 27.6445 85.2054 27.9864 84.8176C28.1598 84.6186 28.3435 84.4247 28.5272 84.2308L29.0834 83.6644C30.0219 82.7296 31.0263 81.8633 32.0888 81.0723C32.5991 80.6794 33.1553 80.312 33.7115 79.9549C34.2676 79.5977 34.834 79.2609 35.4106 78.9343L36.079 78.5517C36.7336 78.1557 37.3594 77.7141 37.9517 77.2301C40.5125 75.1922 42.4559 72.482 43.5645 69.4027C42.734 69.0341 41.9293 68.6096 41.1561 68.1322C40.753 67.8923 40.355 67.6219 39.9519 67.3464L39.3651 66.9331C38.7392 66.4772 38.1218 65.9806 37.5129 65.4431L37.0026 64.9839L36.4924 64.5246C36.0841 64.13 35.6861 63.7201 35.2984 63.2949C35.1453 63.1316 34.9939 62.9616 34.8442 62.7847C34.4258 62.3101 34.0176 61.8254 33.6247 61.3151C33.4716 61.1314 33.3288 60.9426 33.191 60.7538C32.6603 60.0497 32.1501 59.3166 31.6602 58.5546L31.2877 57.9372C31.1398 57.6923 30.9969 57.427 30.8591 57.1871C30.3273 56.2354 29.8503 55.2541 29.4304 54.248C29.3692 54.1001 29.3028 53.9521 29.2518 53.8092C29.2008 53.6663 29.0936 53.4265 29.0273 53.2377C28.9218 52.9588 28.8215 52.6815 28.7262 52.406C28.6293 52.1305 28.5425 51.8447 28.4558 51.559C28.369 51.2732 28.2925 51.013 28.2211 50.7375C28.1496 50.4619 28.0578 50.1456 27.9914 49.8394C27.9914 49.8088 27.9914 49.7782 27.9914 49.7425C27.8928 49.324 27.8044 48.8988 27.7261 48.4668C27.619 47.9004 27.5373 47.3238 27.4761 46.7421C27.4506 46.5585 27.4353 46.3748 27.42 46.1911C27.4047 46.0074 27.3842 45.8084 27.374 45.6145C27.3485 45.2624 27.3332 44.9052 27.323 44.548C27.323 44.3184 27.323 44.0888 27.323 43.8541V27.9085C27.3237 25.1036 27.8768 22.3262 28.9509 19.735C30.0249 17.1438 31.5988 14.7896 33.5826 12.8066C35.5665 10.8237 37.9216 9.25093 40.5133 8.17814C43.105 7.10535 45.8826 6.55353 48.6875 6.5542V6.5542Z" fill="#ECC19C"/>
</g>
<path d="M62.8013 79.4143L62.2247 80.0011C60.4596 81.8031 58.3527 83.2347 56.0273 84.2121C53.702 85.1894 51.2049 85.6929 48.6824 85.6929C46.16 85.6929 43.6629 85.1894 41.3375 84.2121C39.0122 83.2347 36.9052 81.8031 35.1402 80.0011L34.5891 79.4347C34.8595 79.2714 35.1402 79.1132 35.4157 78.9601L36.0842 78.5774C36.7387 78.1815 37.3645 77.7399 37.9568 77.2559V77.2559C39.3507 78.6861 41.0171 79.8226 42.8575 80.5982C44.6979 81.3738 46.6751 81.7728 48.6722 81.7716H48.7131C50.7096 81.7715 52.6859 81.3723 54.526 80.5977C56.3661 79.8231 58.0329 78.6887 59.4285 77.261V77.261C59.7996 77.5696 60.1862 77.8592 60.5868 78.1284L60.7092 78.21C60.898 78.3376 61.0919 78.455 61.2858 78.5774C61.4797 78.6999 61.7195 78.8326 61.9441 78.955C61.9761 78.9672 62.0069 78.9826 62.0359 79.0009C62.3267 79.1234 62.5615 79.2816 62.8013 79.4143Z" fill="#C34628"/>
</g>
</svg>
