<svg width="53" height="69" viewBox="0 0 53 69" fill="none" xmlns="http://www.w3.org/2000/svg">
<path d="M3.2845 33.6921H6.3245C7.4445 33.6921 8.31917 33.9054 8.9485 34.3321C9.5885 34.7481 9.9085 35.3934 9.9085 36.2681C9.9085 36.8014 9.76983 37.2761 9.4925 37.6921C9.21517 38.0974 8.83117 38.3801 8.3405 38.5401V38.6041C9.0125 38.7321 9.5405 39.0148 9.9245 39.4521C10.3192 39.8788 10.5165 40.4388 10.5165 41.1321C10.5165 42.1348 10.1592 42.8974 9.4445 43.4201C8.7405 43.9428 7.7805 44.2041 6.5645 44.2041H3.2845V33.6921ZM6.0845 38.2041C7.85517 38.2041 8.7405 37.6068 8.7405 36.4121C8.7405 35.7828 8.52717 35.3294 8.1005 35.0521C7.67383 34.7748 7.02317 34.6361 6.1485 34.6361H4.4685V38.2041H6.0845ZM6.3725 43.2601C7.3325 43.2601 8.0685 43.0841 8.5805 42.7321C9.0925 42.3694 9.3485 41.8254 9.3485 41.1001C9.3485 39.7774 8.3565 39.1161 6.3725 39.1161H4.4685V43.2601H6.3725ZM14.2919 44.3961C13.6305 44.3961 13.0865 44.2041 12.6599 43.8201C12.2332 43.4361 12.0199 42.8974 12.0199 42.2041C12.0199 41.3614 12.4039 40.7161 13.1719 40.2681C13.9399 39.8094 15.1665 39.4894 16.8519 39.3081C16.8519 38.7001 16.7239 38.2041 16.4679 37.8201C16.2225 37.4254 15.7959 37.2281 15.1879 37.2281C14.4519 37.2281 13.6679 37.5108 12.8359 38.0761L12.3719 37.2761C13.3959 36.5934 14.3985 36.2521 15.3799 36.2521C16.2759 36.2521 16.9372 36.5348 17.3639 37.1001C17.7905 37.6548 18.0039 38.4228 18.0039 39.4041V44.2041H17.0439L16.9479 43.2601H16.8999C15.9825 44.0174 15.1132 44.3961 14.2919 44.3961ZM14.5959 43.4521C14.9692 43.4521 15.3319 43.3668 15.6839 43.1961C16.0465 43.0148 16.4359 42.7374 16.8519 42.3641V40.0921C15.5185 40.2521 14.5692 40.4974 14.0039 40.8281C13.4492 41.1588 13.1719 41.5961 13.1719 42.1401C13.1719 42.5774 13.3052 42.9081 13.5719 43.1321C13.8385 43.3454 14.1799 43.4521 14.5959 43.4521ZM23.5555 44.3961C22.8728 44.3961 22.2542 44.2361 21.6995 43.9161C21.1555 43.5854 20.7235 43.1161 20.4035 42.5081C20.0942 41.9001 19.9395 41.1748 19.9395 40.3321C19.9395 39.5001 20.1048 38.7748 20.4355 38.1561C20.7768 37.5374 21.2302 37.0681 21.7955 36.7481C22.3608 36.4174 22.9742 36.2521 23.6355 36.2521C24.4782 36.2521 25.2302 36.5614 25.8915 37.1801L25.2835 37.9481C25.0275 37.7134 24.7715 37.5374 24.5155 37.4201C24.2595 37.2921 23.9822 37.2281 23.6835 37.2281C23.2035 37.2281 22.7715 37.3614 22.3875 37.6281C22.0035 37.8841 21.6995 38.2468 21.4755 38.7161C21.2622 39.1854 21.1555 39.7241 21.1555 40.3321C21.1555 41.2601 21.3848 42.0068 21.8435 42.5721C22.3022 43.1374 22.9048 43.4201 23.6515 43.4201C24.3235 43.4201 24.9528 43.1534 25.5395 42.6201L26.0515 43.4041C25.6995 43.7134 25.3102 43.9588 24.8835 44.1401C24.4568 44.3108 24.0142 44.3961 23.5555 44.3961ZM27.8131 32.7801H28.9491V40.6841H28.9971L32.4371 36.4441H33.7331L31.1411 39.5481L34.0851 44.2041H32.8211L30.4691 40.3641L28.9491 42.1561V44.2041H27.8131V32.7801ZM41.1651 44.3961C40.3971 44.3961 39.8478 44.1774 39.5171 43.7401C39.1865 43.3028 39.0211 42.6788 39.0211 41.8681V37.4041H37.8531V36.5241L39.0691 36.4441L39.2131 34.2521H40.1891V36.4441H42.3171V37.4041H40.1891V41.9001C40.1891 42.4121 40.2798 42.7961 40.4611 43.0521C40.6531 43.3081 40.9731 43.4361 41.4211 43.4361C41.6451 43.4361 41.9438 43.3668 42.3171 43.2281L42.5571 44.1081C41.9811 44.3001 41.5171 44.3961 41.1651 44.3961ZM46.8669 44.3961C46.2269 44.3961 45.6349 44.2361 45.0909 43.9161C44.5469 43.5854 44.1095 43.1161 43.7789 42.5081C43.4589 41.8894 43.2989 41.1641 43.2989 40.3321C43.2989 39.5001 43.4589 38.7748 43.7789 38.1561C44.1095 37.5374 44.5469 37.0681 45.0909 36.7481C45.6349 36.4174 46.2269 36.2521 46.8669 36.2521C47.5069 36.2521 48.0989 36.4174 48.6429 36.7481C49.1869 37.0681 49.6189 37.5374 49.9389 38.1561C50.2695 38.7748 50.4349 39.5001 50.4349 40.3321C50.4349 41.1641 50.2695 41.8894 49.9389 42.5081C49.6189 43.1161 49.1869 43.5854 48.6429 43.9161C48.0989 44.2361 47.5069 44.3961 46.8669 44.3961ZM46.8669 43.4201C47.3255 43.4201 47.7309 43.2921 48.0829 43.0361C48.4455 42.7801 48.7282 42.4174 48.9309 41.9481C49.1335 41.4788 49.2349 40.9401 49.2349 40.3321C49.2349 39.7241 49.1335 39.1854 48.9309 38.7161C48.7282 38.2468 48.4455 37.8841 48.0829 37.6281C47.7309 37.3614 47.3255 37.2281 46.8669 37.2281C46.4082 37.2281 45.9975 37.3614 45.6349 37.6281C45.2829 37.8841 45.0055 38.2468 44.8029 38.7161C44.6109 39.1854 44.5149 39.7241 44.5149 40.3321C44.5149 41.2601 44.7335 42.0068 45.1709 42.5721C45.6082 43.1374 46.1735 43.4201 46.8669 43.4201ZM18.9308 62.3961C18.1628 62.3961 17.6134 62.1774 17.2828 61.7401C16.9521 61.3028 16.7868 60.6788 16.7868 59.8681V55.4041H15.6188V54.5241L16.8348 54.4441L16.9788 52.2521H17.9548V54.4441H20.0828V55.4041H17.9548V59.9001C17.9548 60.4121 18.0454 60.7961 18.2268 61.0521C18.4188 61.3081 18.7388 61.4361 19.1868 61.4361C19.4108 61.4361 19.7094 61.3668 20.0828 61.2281L20.3228 62.1081C19.7468 62.3001 19.2828 62.3961 18.9308 62.3961ZM24.6325 62.3961C23.9925 62.3961 23.4005 62.2361 22.8565 61.9161C22.3125 61.5854 21.8752 61.1161 21.5445 60.5081C21.2245 59.8894 21.0645 59.1641 21.0645 58.3321C21.0645 57.5001 21.2245 56.7748 21.5445 56.1561C21.8752 55.5374 22.3125 55.0681 22.8565 54.7481C23.4005 54.4174 23.9925 54.2521 24.6325 54.2521C25.2725 54.2521 25.8645 54.4174 26.4085 54.7481C26.9525 55.0681 27.3845 55.5374 27.7045 56.1561C28.0352 56.7748 28.2005 57.5001 28.2005 58.3321C28.2005 59.1641 28.0352 59.8894 27.7045 60.5081C27.3845 61.1161 26.9525 61.5854 26.4085 61.9161C25.8645 62.2361 25.2725 62.3961 24.6325 62.3961ZM24.6325 61.4201C25.0912 61.4201 25.4965 61.2921 25.8485 61.0361C26.2112 60.7801 26.4938 60.4174 26.6965 59.9481C26.8992 59.4788 27.0005 58.9401 27.0005 58.3321C27.0005 57.7241 26.8992 57.1854 26.6965 56.7161C26.4938 56.2468 26.2112 55.8841 25.8485 55.6281C25.4965 55.3614 25.0912 55.2281 24.6325 55.2281C24.1738 55.2281 23.7632 55.3614 23.4005 55.6281C23.0485 55.8841 22.7712 56.2468 22.5685 56.7161C22.3765 57.1854 22.2805 57.7241 22.2805 58.3321C22.2805 59.2601 22.4992 60.0068 22.9365 60.5721C23.3738 61.1374 23.9392 61.4201 24.6325 61.4201ZM30.3131 54.4441H31.2731L31.3691 55.3721H31.4171C32.3238 54.6254 33.1611 54.2521 33.9291 54.2521C34.9211 54.2521 35.6785 54.6094 36.2011 55.3241C36.7345 56.0281 37.0011 56.9881 37.0011 58.2041C37.0011 59.0574 36.8465 59.8041 36.5371 60.4441C36.2278 61.0734 35.8171 61.5588 35.3051 61.9001C34.7931 62.2308 34.2385 62.3961 33.6411 62.3961C32.9478 62.3961 32.2118 62.0921 31.4331 61.4841L31.4651 62.8601V65.5321H30.3131V54.4441ZM33.4491 61.4041C33.8971 61.4041 34.2971 61.2761 34.6491 61.0201C35.0118 60.7534 35.2945 60.3801 35.4971 59.9001C35.6998 59.4201 35.8011 58.8601 35.8011 58.2201C35.8011 57.2921 35.6251 56.5668 35.2731 56.0441C34.9318 55.5108 34.3931 55.2441 33.6571 55.2441C33.0065 55.2441 32.2758 55.6174 31.4651 56.3641V60.5561C31.8171 60.8548 32.1638 61.0734 32.5051 61.2121C32.8465 61.3401 33.1611 61.4041 33.4491 61.4041Z" fill="#484848"/>
<path d="M25.8295 1.56402C26.2103 1.21988 26.7897 1.21988 27.1705 1.56402L48.099 20.4792C48.9497 21.2481 48.0478 22.6108 47.0076 22.1282L26.9209 12.8079C26.654 12.684 26.346 12.684 26.0791 12.8079L5.99239 22.1282C4.95223 22.6108 4.05025 21.2481 4.90097 20.4792L25.8295 1.56402Z" fill="#484848"/>
</svg>
