<svg viewBox="0 0 199 75" fill="none" xmlns="http://www.w3.org/2000/svg">
<path d="M81.9481 9.60783C82.0576 11.1901 81.75 12.6403 80.9193 14.5326C80.0886 16.4248 79.2457 18.3788 77.4416 21.3437C76.0348 23.6576 73.7733 26.9634 72.2871 28.9069C70.4433 31.3191 68.8104 32.7977 66.3578 35.3733C63.0365 38.8619 57.3747 43.0252 56.1698 43.9265C53.4513 45.9583 47.8275 49.4938 45.7853 50.5813C43.7431 51.6688 43.3544 51.8778 43.3544 51.8778C43.3544 51.8778 42.4904 54.309 42.0872 55.8867C41.6109 57.7352 41.3246 58.8991 41.2946 60.5014C41.2513 63.0003 43.1956 64.6759 44.669 65.1127C46.2043 65.5719 48.0295 65.5615 50.2966 64.8825C52.5637 64.2035 54.5169 63.0374 56.6012 61.4723C57.7709 60.5752 58.8658 59.5773 59.8744 58.4891C60.5898 57.7555 61.2541 56.9699 61.8622 56.1384C62.3757 55.3957 62.8414 54.9004 63.2965 54.2669C63.5548 53.9082 65.4599 51.3056 65.9841 50.6996C66.5084 50.0935 67.8931 48.5585 68.7467 47.6728C69.2756 47.1218 69.6264 46.7496 70.1638 46.2068C70.4707 45.8978 70.9417 45.3872 71.2668 45.1026C71.4482 44.9443 72.8099 44.0098 73.3047 43.8132C73.7996 43.6166 74.3405 43.404 74.8283 43.4524C75.1977 43.4925 75.5779 43.921 75.8375 44.2705C76.2851 44.6778 76.0024 45.4917 75.8774 45.7487C75.406 46.7158 74.6783 47.0756 74.8721 47.6715C75.0271 48.1494 75.1845 48.1304 75.1401 48.2857C75.0351 48.647 74.5274 49.3088 74.1729 49.9762C73.8183 50.6436 72.8685 51.8661 72.5097 52.81C72.1509 53.7539 71.7696 55.0889 72.1876 56.3606C72.4633 57.1973 73.8309 57.0808 74.5627 56.6431C76.0499 55.7589 77.4059 54.6555 78.5887 53.3672C79.5457 52.3468 80.1597 51.6662 80.8316 50.8029C81.5035 49.9396 82.2661 48.8142 83.121 47.6801C83.2133 47.5572 83.5662 47.7933 83.8868 47.9306C84.6573 48.2628 84.4269 48.8029 84.0167 49.328C83.0848 50.5249 82.2096 52.3505 82.0775 52.9932C81.9453 53.636 82.0341 54.3681 82.5409 54.427C83.0477 54.486 84.3109 53.5911 85.9084 51.8463C87.8793 49.701 89.0752 47.8705 89.5782 47.9152C89.9728 48.0755 90.6504 48.4289 90.7885 48.7151C90.8997 48.9435 90.6325 49.2986 90.3686 49.5914C90.1288 49.8629 89.9892 50.2139 89.9745 50.5822C89.9598 50.9505 90.0709 51.3123 90.2882 51.6035C90.7905 52.3095 91.6202 52.5465 92.959 51.8155C94.2977 51.0845 94.7308 50.4122 95.9398 49.2078C96.6564 48.4941 98.577 46.2755 98.8788 45.9771C99.0836 45.7747 99.3932 45.3298 99.6813 45.0338C99.9694 44.7377 99.9384 43.9949 99.8579 43.8401C99.7774 43.6854 100.207 43.3507 100.863 43.5495C101.307 43.7027 101.774 43.7699 102.241 43.7479C102.845 43.7124 104.172 44.0422 105.197 44.5704C106.221 45.0985 106.655 45.5926 106.568 46.2754C106.48 46.9583 106.174 47.2877 105.74 47.6941C105.306 48.1006 103.038 49.6409 102.35 51.4492C102.133 52.0198 101.862 53.0157 102.052 53.6207C102.269 54.3118 102.925 54.1652 103.572 53.882C104.042 53.6777 104.651 53.1501 105.027 52.7762C105.839 51.9695 106.782 50.9029 107.645 49.9365C108.507 48.9701 110.309 47.0323 111.936 45.6363C112.809 44.8878 113.79 44.269 114.735 43.6091C115.596 43.0131 116.118 43.0635 116.69 43.9017C117.031 44.4028 117.284 44.9625 117.437 45.5551C117.596 46.1802 117.217 46.6618 116.675 46.89C116.084 47.1389 116.194 46.4667 115.988 46.2125C115.91 46.0879 115.847 45.9534 115.801 45.8125C114.226 46.4048 110.502 50.1186 110.629 50.4152C110.756 50.7117 111.162 50.915 111.759 50.6993C112.602 50.3962 113.75 49.3289 114.489 48.8635C115.229 48.3981 115.495 48.1164 116.296 47.6514C117.002 47.2419 117.387 46.9452 117.641 46.594C118.231 45.7885 118.935 46.7437 119.274 47.3246C119.412 47.5592 119.163 48.0733 119.026 48.4344C118.89 48.7954 118.635 49.1372 118.492 49.5104C118.197 50.2751 118.359 51.1803 119.073 51.9813C119.787 52.7823 122.22 54.2281 125.156 54.74C128.225 55.2833 131.343 55.4748 134.452 55.3109C136.866 55.1844 142.027 54.1018 144.505 53.5459C146.982 52.9901 152.842 51.0567 155.041 50.3722C156.381 49.9555 162.303 47.9772 165.806 46.8771C169.31 45.777 172.244 44.6221 176.486 44.9623C180.728 45.3025 182.825 46.8603 183.216 46.9985C183.216 46.9985 182.858 47.4969 182.791 47.5712C182.313 47.4514 180.185 46.2858 176.884 46.028C172.906 45.7172 170.325 46.6235 167.21 47.5975C164.73 48.3737 162.026 49.5496 158.389 50.8718C155.075 52.0767 150.951 53.7007 148.101 54.5868C145.252 55.4729 141.199 56.1849 139.139 56.4663C136.544 56.7919 133.932 56.9373 131.318 56.9013C128.827 56.8435 125.22 56.1163 123.605 55.5572C121.496 54.8273 119.85 53.9178 118.711 52.8515C118.04 52.2234 116.798 50.249 116.913 49.4959C116.285 49.8192 115.708 50.0735 115.171 50.4006C114.105 51.0504 113.081 51.7746 112 52.4063C111.332 52.793 110.506 53.1471 110.003 53.1869C109.813 53.205 109.622 53.1696 109.449 53.0846C109.277 52.9996 109.13 52.868 109.024 52.7036C108.746 52.2686 108.697 51.9421 108.498 51.4819C107.009 53.1314 105.573 54.64 104.282 55.1658C102.99 55.6916 102.205 55.4306 101.599 54.9203C101.133 54.5276 101.004 54.0308 100.931 53.3481C100.819 52.119 101.056 50.8827 101.611 49.7916C102.224 48.5762 103.101 47.5043 103.833 46.3506C104.306 45.679 103.315 45.5045 102.375 45.3456C101.703 45.2317 101.174 45.3091 100.664 45.8722C99.8052 46.8247 97.3168 49.3952 96.4829 50.3054C95.6091 51.2884 95.021 51.8782 93.7285 52.701C92.8924 53.2312 91.4545 53.425 90.6606 53.2494C89.9173 53.0845 88.9693 52.048 88.7304 50.8883C88.4667 51.2342 87.9378 51.815 87.5882 52.2216C86.6517 53.3057 85.3609 54.8024 84.4987 55.3139C83.6365 55.8254 82.273 56.5409 81.3185 55.8808C80.4478 55.2833 80.2818 54.084 80.5799 53.0366C79.8984 53.7148 78.8703 54.7405 78.1447 55.3709C77.1083 56.271 76.1122 57.1484 74.9449 57.8236C73.4035 58.7165 72.3938 58.6942 71.6715 58.1366C71.0938 57.6874 70.8033 57.1562 70.6717 56.1278C70.5539 55.2079 70.6394 53.748 70.6394 53.748C70.6394 53.748 68.65 56.3238 67.8723 57.0277C67.0464 57.7618 66.0899 58.6305 65.4517 58.8907C64.8136 59.151 63.7983 59.0361 63.5973 58.5461C63.3522 57.9346 63.3086 57.2559 63.4733 56.616C63.5575 56.3081 61.3347 58.7204 60.7286 59.3373C59.8542 60.2141 58.9343 61.0405 57.9729 61.8126C56.9774 62.5947 56.288 63.2787 54.4703 64.3886C51.1794 66.3796 50.2546 66.7952 46.9324 66.8662C44.181 66.9247 42.1597 65.8481 41.4108 65.1123C39.6328 63.365 39.1797 60.5841 39.571 57.8505C39.7969 56.0387 40.2093 54.2574 40.801 52.5371C36.8967 53.8752 30.4575 56.005 27.7834 56.587C21.5434 57.9466 17.052 58.616 11.1626 57.9729C8.12068 57.641 0.481848 55.1677 0.490176 55.0118C0.509163 54.6565 0.754595 54.3705 0.961879 54.4606C1.27056 54.5957 10.0229 57.485 15.6442 57.1199C21.2656 56.7549 25.4839 55.9587 28.6165 55.0717C32.2943 54.0332 35.8498 52.8048 37.3794 52.3584C38.585 52.0074 41.1541 51.1379 41.1541 51.1379C41.1541 51.1379 43.1667 46.578 43.9426 44.8108C44.7184 43.0436 47.6665 37.8122 50.6702 33.3407C52.9009 30.0206 54.7376 27.5986 56.0366 25.81C57.3356 24.0214 60.6029 19.9091 61.6332 18.7851C62.6635 17.661 67.5454 12.3005 69.062 10.9997C70.5786 9.69896 73.9818 6.6482 75.8319 5.91856C77.0611 5.43606 77.439 5.11862 79.048 5.35531C80.7898 5.61061 81.8299 7.93443 81.9481 9.60783ZM80.024 7.95058C79.3953 7.16074 78.5753 6.91018 77.066 7.62353C75.2142 8.49846 74.3321 9.24176 72.6199 10.797C69.5183 13.6485 66.5569 16.6605 63.747 19.8216C61.0256 22.893 55.6735 29.8476 53.1673 33.7897C49.9548 38.8463 44.2119 49.146 43.8635 50.2609C44.5164 50.0062 44.9428 49.7682 46.0665 49.1483C47.1902 48.5284 49.9629 46.9155 51.5205 45.9188C53.078 44.9222 58.4332 40.9788 59.4018 40.1654C62.1311 37.8731 62.6222 37.6623 65.6163 34.5832C68.3225 31.794 70.0633 29.8167 71.9175 27.3769C74.0678 24.5478 76.4645 20.7682 77.0119 19.8415C77.8737 18.381 79.7329 14.9753 80.3469 13.3645C80.961 11.7537 81.4081 9.69235 80.024 7.95058ZM73.4151 47.1824C73.227 46.9855 72.8835 46.9954 72.3332 47.2998C71.436 47.7746 70.5895 48.3467 69.8082 49.0067C68.7057 49.9327 67.625 51.5213 66.9654 52.465C66.3122 53.4076 65.7657 54.4252 65.3367 55.4978C65.1761 55.9685 65.4333 56.5055 65.8137 56.4243C66.6884 56.2402 67.3655 55.3366 68.7754 53.7811C70.2944 52.0974 73.6003 47.376 73.4151 47.1824Z" fill="#282828"/>
<path d="M62.8813 59.8924H64.2051V64.8655H69.8759V59.8924H71.1997V71.6454H69.8759V66.0283H64.2051V71.6454H62.8813V59.8924Z" fill="#282828"/>
<path d="M79.4722 71.8601C78.208 71.8601 77.2003 71.4725 76.449 70.6973C75.6976 69.9102 75.322 68.6401 75.322 66.887V59.8924H76.6457V66.887C76.6457 68.2465 76.9022 69.2244 77.415 69.8207C77.9278 70.4051 78.6135 70.6973 79.4722 70.6973C80.3547 70.6973 81.0583 70.4051 81.5831 69.8207C82.1078 69.2244 82.3702 68.2465 82.3702 66.887V59.8924H83.6403V66.887C83.6403 68.6401 83.2587 69.9102 82.4954 70.6973C81.7441 71.4725 80.7363 71.8601 79.4722 71.8601Z" fill="#282828"/>
<path d="M87.7651 59.8924H89.1247L93.5611 67.5131L94.8491 69.9281H94.9207L94.867 69.141C94.8551 68.9502 94.8312 68.5506 94.7954 67.9424C94.7597 67.3223 94.7418 66.7617 94.7418 66.2609V59.8924H95.994V71.6454H94.6344L90.198 64.0247L88.91 61.6097H88.8384L88.8921 62.4684C88.9756 63.506 89.0173 64.4183 89.0173 65.2054V71.6454H87.7651V59.8924Z" fill="#282828"/>
<path d="M100.172 59.8924H103.052C104.841 59.8924 106.201 60.3993 107.131 61.413C108.073 62.4267 108.544 63.8637 108.544 65.7242C108.544 67.5846 108.073 69.0396 107.131 70.0891C106.201 71.1266 104.859 71.6454 103.106 71.6454H100.172V59.8924ZM102.945 70.5542C104.352 70.5542 105.408 70.1368 106.111 69.302C106.827 68.4552 107.184 67.2626 107.184 65.7242C107.184 64.2096 106.827 63.0408 106.111 62.218C105.408 61.3951 104.352 60.9836 102.945 60.9836H101.496V70.5542H102.945Z" fill="#282828"/>
<path d="M112.037 59.8924H118.71V61.0194H113.361V64.9013H117.869V66.0104H113.361V70.5184H118.889V71.6454H112.037V59.8924Z" fill="#282828"/>
<path d="M128.771 71.6454L125.855 66.565H123.637V71.6454H122.313V59.8924H125.909C128.604 59.8924 129.952 60.9777 129.952 63.1482C129.952 64.0426 129.707 64.7701 129.218 65.3306C128.741 65.8911 128.073 66.2609 127.215 66.4397L130.274 71.6454H128.771ZM123.637 65.4916H125.694C126.648 65.4916 127.376 65.2949 127.876 64.9013C128.377 64.5077 128.628 63.9234 128.628 63.1482C128.628 62.373 128.383 61.8184 127.894 61.4845C127.405 61.1387 126.672 60.9657 125.694 60.9657H123.637V65.4916Z" fill="#282828"/>
<path d="M136.245 71.8601C135.434 71.8601 134.677 71.705 133.973 71.395C133.281 71.0849 132.679 70.6556 132.166 70.107L132.971 69.1946C133.401 69.6597 133.902 70.0294 134.474 70.3037C135.046 70.5661 135.643 70.6973 136.263 70.6973C137.062 70.6973 137.688 70.5124 138.141 70.1427C138.606 69.773 138.839 69.2781 138.839 68.658C138.839 68.2644 138.755 67.9364 138.588 67.6741C138.422 67.4117 138.207 67.203 137.944 67.048C137.682 66.8929 137.312 66.7081 136.835 66.4934L135.136 65.7421C134.444 65.4439 133.872 65.0623 133.419 64.5972C132.977 64.1321 132.757 63.5119 132.757 62.7367C132.757 62.1524 132.912 61.6276 133.222 61.1625C133.532 60.6974 133.961 60.3337 134.51 60.0713C135.07 59.8089 135.69 59.6777 136.37 59.6777C137.05 59.6777 137.682 59.8089 138.266 60.0713C138.863 60.3337 139.37 60.6855 139.787 61.1267L139.071 61.9675C138.296 61.2162 137.396 60.8405 136.37 60.8405C135.679 60.8405 135.124 61.0075 134.707 61.3414C134.289 61.6753 134.08 62.1166 134.08 62.6652C134.08 63.0349 134.176 63.345 134.367 63.5954C134.557 63.8458 134.778 64.0426 135.029 64.1857C135.279 64.3289 135.619 64.4958 136.048 64.6866L137.748 65.438C138.523 65.76 139.119 66.1595 139.537 66.6365C139.966 67.1136 140.181 67.7576 140.181 68.5685C140.181 69.1887 140.02 69.7492 139.698 70.2501C139.376 70.751 138.916 71.1445 138.32 71.4307C137.724 71.717 137.032 71.8601 136.245 71.8601Z" fill="#282828"/>
<path d="M143.423 59.8924H145.051L147.359 66.3324L148.218 68.819H148.289C148.373 68.5924 148.486 68.2525 148.629 67.7993C148.82 67.2269 148.987 66.7379 149.13 66.3324L151.402 59.8924H153.048V71.6454H151.813V64.8476C151.813 64.1321 151.867 62.9991 151.974 61.4487H151.903L150.972 64.1142L148.683 70.429H147.752L145.445 64.1142L144.515 61.4487H144.443L144.479 61.896C144.574 63.1601 144.622 64.144 144.622 64.8476V71.6454H143.423V59.8924Z" fill="#282828"/>
<path d="M162.559 67.9424H158.176L156.978 71.6454H155.636L159.661 59.8924H161.128L165.135 71.6454H163.74L162.559 67.9424ZM162.219 66.887L161.611 64.9907C161.134 63.5 160.729 62.1703 160.395 61.0015H160.323C159.93 62.4446 159.53 63.7743 159.125 64.9907L158.516 66.887H162.219Z" fill="#282828"/>
<path d="M174.206 71.6454L171.29 66.565H169.072V71.6454H167.748V59.8924H171.344C174.039 59.8924 175.387 60.9777 175.387 63.1482C175.387 64.0426 175.142 64.7701 174.653 65.3306C174.176 65.8911 173.508 66.2609 172.65 66.4397L175.709 71.6454H174.206ZM169.072 65.4916H171.129C172.083 65.4916 172.811 65.2949 173.312 64.9013C173.812 64.5077 174.063 63.9234 174.063 63.1482C174.063 62.373 173.818 61.8184 173.329 61.4845C172.84 61.1387 172.107 60.9657 171.129 60.9657H169.072V65.4916Z" fill="#282828"/>
<path d="M183.087 71.8601C182.109 71.8601 181.233 71.6156 180.458 71.1266C179.694 70.6377 179.092 69.934 178.651 69.0157C178.222 68.0974 178.007 67.0181 178.007 65.7779C178.007 64.5495 178.228 63.4761 178.669 62.5578C179.11 61.6276 179.724 60.918 180.511 60.4291C181.299 59.9282 182.187 59.6777 183.177 59.6777C183.833 59.6777 184.435 59.8149 184.984 60.0892C185.532 60.3635 185.991 60.7034 186.361 61.1088L185.628 61.9854C184.948 61.2221 184.137 60.8405 183.195 60.8405C182.431 60.8405 181.764 61.0433 181.191 61.4487C180.619 61.8423 180.172 62.4088 179.85 63.1482C179.539 63.8757 179.384 64.7403 179.384 65.7421C179.384 66.7439 179.533 67.6204 179.832 68.3717C180.142 69.1112 180.577 69.6836 181.138 70.0891C181.71 70.4946 182.378 70.6973 183.141 70.6973C183.69 70.6973 184.185 70.584 184.626 70.3574C185.079 70.1308 185.514 69.7909 185.932 69.3377L186.665 70.1606C186.188 70.7212 185.657 71.1445 185.073 71.4307C184.489 71.717 183.827 71.8601 183.087 71.8601Z" fill="#282828"/>
<path d="M189.802 59.8924H191.126V65.9567H191.161L196.26 59.8924H197.762L194.059 64.3467L198.317 71.6454H196.832L193.236 65.3664L191.126 67.853V71.6454H189.802V59.8924Z" fill="#282828"/>
</svg>
