<svg  viewBox="0 0 21 18" fill="none" xmlns="http://www.w3.org/2000/svg">
<path d="M3.97 7.91476C3.97 8.80143 4.50667 9.38476 5.58 9.66476C7.82 10.1781 8.94 11.4381 8.94 13.4448C8.94 14.5181 8.56667 15.4048 7.82 16.1048C7.12 16.8048 6.18667 17.1548 5.02 17.1548C3.9 17.1548 2.89667 16.6881 2.01 15.7548C1.17 14.7748 0.75 13.3048 0.75 11.3448C0.75 9.3381 1.31 7.35477 2.43 5.39477C3.59667 3.43476 5.25333 1.75476 7.4 0.354763L8.45 1.68476C5.46333 3.64476 3.97 5.72143 3.97 7.91476ZM15.59 7.91476C15.59 8.80143 16.1267 9.38476 17.2 9.66476C19.44 10.1781 20.56 11.4381 20.56 13.4448C20.56 14.5181 20.1867 15.4048 19.44 16.1048C18.74 16.8048 17.8067 17.1548 16.64 17.1548C15.52 17.1548 14.5167 16.6881 13.63 15.7548C12.79 14.7748 12.37 13.3048 12.37 11.3448C12.37 9.3381 12.93 7.35477 14.05 5.39477C15.2167 3.43476 16.8733 1.75476 19.02 0.354763L20.07 1.68476C17.0833 3.64476 15.59 5.72143 15.59 7.91476Z" fill="#FDFDFD"/>
</svg>
