<svg width="26" height="23" viewBox="0 0 26 23" fill="none" xmlns="http://www.w3.org/2000/svg">
<path d="M4.39 10.2721C4.39 11.4121 5.08 12.1621 6.46 12.5221C9.34 13.1821 10.78 14.8021 10.78 17.3821C10.78 18.7621 10.3 19.9021 9.34 20.8021C8.44 21.7021 7.24 22.1521 5.74 22.1521C4.3 22.1521 3.01 21.5521 1.87 20.3521C0.79 19.0921 0.25 17.2021 0.25 14.6821C0.25 12.1021 0.97 9.55211 2.41 7.03211C3.91 4.51211 6.04 2.3521 8.8 0.552106L10.15 2.26211C6.31 4.78211 4.39 7.45211 4.39 10.2721ZM19.33 10.2721C19.33 11.4121 20.02 12.1621 21.4 12.5221C24.28 13.1821 25.72 14.8021 25.72 17.3821C25.72 18.7621 25.24 19.9021 24.28 20.8021C23.38 21.7021 22.18 22.1521 20.68 22.1521C19.24 22.1521 17.95 21.5521 16.81 20.3521C15.73 19.0921 15.19 17.2021 15.19 14.6821C15.19 12.1021 15.91 9.55211 17.35 7.03211C18.85 4.51211 20.98 2.3521 23.74 0.552106L25.09 2.26211C21.25 4.78211 19.33 7.45211 19.33 10.2721Z" fill="#282828"/>
</svg>
