<svg width="58" height="47" viewBox="0 0 58 47" fill="none" xmlns="http://www.w3.org/2000/svg">
<path d="M37.5713 18.6367H40.7067V30.6185H54.1383V18.6367H57.2738V46.9534H54.1383V33.42H40.7067V46.9534H37.5713V18.6367Z" fill="#282828"/>
<path fill-rule="evenodd" clip-rule="evenodd" d="M52.7535 6.48501C53.3403 5.08831 53.4391 4.17395 53.3322 3.0198C53.2198 1.79926 52.9645 1.43909 52.4898 1.02359C52.0647 0.651456 51.8537 0.557546 51.4782 0.390443L51.4781 0.39038C51.4343 0.370921 51.3884 0.350468 51.3396 0.328468C50.8717 0.117503 49.6168 -0.100609 48.7112 0.272901C47.4936 0.777394 45.3847 2.6567 44.1604 3.74776L44.1604 3.74778C44.0143 3.87793 43.8809 3.99686 43.763 4.1009C42.7315 5.01148 39.5816 8.55248 38.5559 9.70551L38.3687 9.91588C37.6212 10.7547 35.2597 13.8151 34.3234 15.144C34.1234 15.4279 33.9057 15.7332 33.6712 16.062L33.671 16.0623L33.6709 16.0625C32.8077 17.273 31.7185 18.8004 30.4573 20.7378C28.2975 24.0561 26.1912 27.9286 25.6432 29.233C25.0951 30.5374 23.6731 33.9034 23.6731 33.9034C23.6731 33.9034 22.9183 34.2455 22.4997 34.3774C22.387 34.413 22.1619 34.49 21.8682 34.5905L21.8677 34.5907L21.8675 34.5907C21.07 34.8637 19.7673 35.3096 18.836 35.5676C18.3067 35.7142 17.82 35.8852 17.2615 36.0815L17.2615 36.0815L17.2613 36.0815C16.4751 36.3578 15.5465 36.6841 14.1559 37.0629C13.9153 37.1284 13.6667 37.1991 13.4076 37.2728C11.5967 37.7882 9.26693 38.4512 5.47978 38.5025C3.26699 38.3864 1.43863 37.3945 0.687953 36.9873C0.508551 36.89 0.390701 36.8261 0.343865 36.8155C0.304385 36.859 0.292018 36.8656 0.290847 36.8593C0.310892 36.8209 0.310306 36.8178 0.305002 36.8258C0.299698 36.8338 0.289677 36.853 0.290847 36.8593C0.267765 36.9035 0.217326 36.9944 0.115234 37.1687C0.178809 37.2061 0.253794 37.251 0.33865 37.3018L0.339203 37.3022L0.339219 37.3022C1.05755 37.7325 2.48228 38.586 3.68101 38.8647C5.02175 39.1763 6.35675 39.3205 7.72255 39.1764C7.91934 39.1557 8.11748 39.1364 8.31964 39.1168L8.32016 39.1167L8.32051 39.1167H8.32057L8.32072 39.1167C9.5213 38.9999 10.8637 38.8694 12.9069 38.3318C15.2949 37.7036 20.4214 36.2078 23.3974 35.1097C22.9985 36.3157 22.7334 37.5638 22.6072 38.8303C22.3605 40.8343 22.7418 42.8583 24.0909 44.1046C24.6592 44.6294 26.1852 45.4822 28.2217 45.2918C30.8511 45.0455 31.4042 44.7245 33.1493 43.7118C33.3424 43.5997 33.5502 43.4792 33.777 43.3493C34.7695 42.7812 35.2882 42.3214 35.7767 41.8884C35.9602 41.7257 36.1395 41.5669 36.338 41.4074C36.4524 41.3155 36.6115 41.1694 36.7994 40.9875V39.8964C36.3281 40.3528 35.8343 40.7847 35.3197 41.1904C33.7963 42.3695 32.3605 43.2547 30.687 43.7895C29.0135 44.3243 27.6576 44.363 26.5094 44.0538C25.4076 43.7598 23.9361 42.5687 23.9281 40.7422C23.9246 39.571 24.1186 38.7158 24.4428 37.357C24.717 36.1975 25.3198 34.4064 25.3198 34.4064C25.3198 34.4064 25.6053 34.2471 27.1051 33.4177C28.605 32.5882 32.7266 29.9091 34.7137 28.3782L34.8811 28.2494C35.2752 27.9467 35.9849 27.4014 36.8395 26.716V25.7458C35.7382 26.6387 32.3656 29.1918 31.318 29.8833C30.1746 30.638 28.1435 31.8695 27.3186 32.3417L27.2556 32.3777C26.4773 32.8231 26.1682 33.0001 25.6996 33.1922C25.9406 32.3716 30.0419 24.7484 32.3475 20.999C34.1461 18.0761 38.0109 12.9034 39.9834 10.613C42.0203 8.25539 44.1722 6.00418 46.4308 3.86788C47.679 2.70238 48.6563 1.97404 50.0182 1.30318C51.1349 0.753023 51.4339 1.07243 51.8874 1.65843L51.8863 1.6584C52.8511 2.90883 52.6427 4.41874 52.2123 5.60612C51.782 6.79351 50.4554 9.31351 49.8386 10.3953C49.4468 11.0818 47.7268 13.8841 46.1747 15.9879C44.8362 17.8021 43.5746 19.2765 41.6088 21.3606L41.4761 21.5006V22.6495C41.7103 22.4153 41.9347 22.1832 42.1458 21.9551C42.618 21.445 43.0486 20.9922 43.4514 20.5688L43.4515 20.5687C44.5675 19.3955 45.4691 18.4476 46.4472 17.1294C47.2313 16.0732 48.5537 14.0082 49.4251 12.6473C49.7463 12.1458 50.0062 11.74 50.1553 11.5154C50.7094 10.6815 52.1668 7.88171 52.7535 6.48501ZM37.5691 39.1076V40.2126C38.3705 39.3848 39.2856 38.3928 39.6719 37.9741C39.7542 37.8848 39.8125 37.8216 39.8406 37.7916C39.9035 37.5514 39.9661 37.2981 40.0234 37.0659L40.0237 37.0646L40.0239 37.0638L40.024 37.0635L40.025 37.0592C40.0514 36.9523 40.0767 36.8499 40.1004 36.7555C40.0323 36.8263 39.7622 37.0673 39.4229 37.3701L39.4219 37.371L39.4218 37.3711L39.4217 37.3712L39.4209 37.3719C38.8223 37.9062 38.0092 38.6319 37.7082 38.9551C37.6621 39.0062 37.6157 39.057 37.5691 39.1076ZM40.7065 23.3947C39.7047 24.3367 38.6016 25.2782 37.6091 26.092V25.0922C37.8453 24.8911 38.0567 24.7129 38.2523 24.548C39.1173 23.8189 39.6749 23.349 40.7065 22.299V23.3947Z" fill="#282828"/>
</svg>
