<svg width="26" height="23" viewBox="0 0 26 23" fill="none" xmlns="http://www.w3.org/2000/svg">
<path d="M21.5741 12.6884C21.5741 11.5484 20.8841 10.7984 19.5041 10.4384C16.6241 9.77843 15.1841 8.15843 15.1841 5.57843C15.1841 4.19843 15.6341 3.05843 16.5341 2.15844C17.4941 1.25844 18.6941 0.808437 20.1341 0.808437C21.6341 0.808437 22.9241 1.43844 24.0041 2.69843C25.1441 3.89843 25.7141 5.78843 25.7141 8.36844C25.7141 10.8884 24.9641 13.4084 23.4641 15.9284C22.0241 18.4484 19.9241 20.6084 17.1641 22.4084L15.8141 20.6984C19.6541 18.1784 21.5741 15.5084 21.5741 12.6884ZM6.63414 12.6884C6.63414 11.5484 5.94414 10.7984 4.56414 10.4384C1.68414 9.77843 0.244141 8.15843 0.244141 5.57843C0.244141 4.19843 0.694141 3.05843 1.59414 2.15844C2.55414 1.25844 3.75414 0.808437 5.19414 0.808437C6.69414 0.808437 7.98414 1.43844 9.06414 2.69843C10.2041 3.89843 10.7741 5.78843 10.7741 8.36844C10.7741 10.8884 10.0241 13.4084 8.52414 15.9284C7.08414 18.4484 4.98414 20.6084 2.22414 22.4084L0.874141 20.6984C4.71414 18.1784 6.63414 15.5084 6.63414 12.6884Z" fill="#282828"/>
</svg>
