<svg width="21" height="18" viewBox="0 0 21 18" fill="none" xmlns="http://www.w3.org/2000/svg">
<path d="M17.0022 9.44441C17.0022 8.55774 16.4656 7.97441 15.3922 7.69441C13.1522 7.18108 12.0322 5.92108 12.0322 3.91441C12.0322 2.84108 12.3822 1.95441 13.0822 1.25441C13.8289 0.554413 14.7622 0.204413 15.8822 0.204413C17.0489 0.204413 18.0522 0.694413 18.8922 1.67441C19.7789 2.60774 20.2222 4.07774 20.2222 6.08441C20.2222 8.04441 19.6389 10.0044 18.4722 11.9644C17.3522 13.9244 15.7189 15.6044 13.5722 17.0044L12.5222 15.6744C15.5089 13.7144 17.0022 11.6377 17.0022 9.44441ZM5.38225 9.44441C5.38225 8.55774 4.84558 7.97441 3.77225 7.69441C1.53225 7.18108 0.412247 5.92108 0.412247 3.91441C0.412247 2.84108 0.762247 1.95441 1.46225 1.25441C2.20891 0.554413 3.14225 0.204413 4.26225 0.204413C5.42891 0.204413 6.43225 0.694413 7.27225 1.67441C8.15891 2.60774 8.60225 4.07774 8.60225 6.08441C8.60225 8.04441 8.01891 10.0044 6.85225 11.9644C5.73225 13.9244 4.09891 15.6044 1.95225 17.0044L0.902247 15.6744C3.88891 13.7144 5.38225 11.6377 5.38225 9.44441Z" fill="#FDFDFD"/>
</svg>
