<svg viewBox="0 0 305 139" fill="none" xmlns="http://www.w3.org/2000/svg">
<g opacity="0.7" filter="url(#filter0_f)">
<ellipse cx="66.7665" cy="122.485" rx="56.6021" ry="5.79738" fill="url(#paint0_linear)" fill-opacity="0.4"/>
</g>
<g filter="url(#filter1_f)">
<ellipse cx="68.1676" cy="119.865" rx="39.0876" ry="2.47511" fill="#F5F5F5"/>
</g>
<g clip-path="url(#clip0)">
<g opacity="0.8">
<path opacity="0.8" d="M114.618 27.8327C112.252 23.9333 109.455 20.3118 106.28 17.0362L105.08 15.8232L103.823 14.6664C103.001 13.8784 102.097 13.1804 101.22 12.4458C100.781 12.0827 100.311 11.7562 99.8543 11.4072L99.1641 10.895L98.8176 10.6389L98.4599 10.3996C97.5021 9.76636 96.5528 9.10776 95.5415 8.54485C95.0457 8.2634 94.5555 7.95944 94.0513 7.68361L92.5245 6.904L91.7583 6.50997L90.9751 6.15252L89.4033 5.43764C88.8737 5.21248 88.3356 5.00983 87.8004 4.79593C87.2652 4.58203 86.7356 4.35968 86.1835 4.18518C85.0905 3.82211 84.0059 3.42807 82.8904 3.13818C78.4628 1.8665 73.8967 1.13782 69.2929 0.968192C64.5401 0.776774 59.7823 1.19198 55.1347 2.20376L53.3966 2.5978L51.6783 3.07063L50.8332 3.30987L49.9881 3.59132L48.2979 4.15422L46.6331 4.79311L45.788 5.11397C45.5063 5.22937 45.2415 5.3532 44.9711 5.47141L43.3372 6.19193C42.802 6.45086 42.2724 6.72105 41.7372 6.98843L40.9259 7.37121C40.6611 7.50912 40.4047 7.65266 40.1456 7.80465L38.5878 8.6884C38.0779 8.99799 37.5765 9.32448 37.0694 9.64252L36.3117 10.1238C36.061 10.287 35.8215 10.4644 35.5736 10.636L34.1088 11.6718C33.6299 12.0292 33.1623 12.4064 32.7003 12.7723L31.9932 13.3352C31.7594 13.5209 31.5369 13.7236 31.3087 13.9178L29.9397 15.0661C29.4974 15.4686 29.0692 15.8879 28.6326 16.2988L27.9819 16.918C27.7649 17.1263 27.5649 17.3487 27.3565 17.5626L26.117 18.8601C25.7142 19.3019 25.3283 19.7579 24.9339 20.2082L24.3451 20.8837C24.148 21.1088 23.9705 21.3481 23.7817 21.5817L22.669 22.9889C22.3056 23.4618 21.9676 23.9543 21.6155 24.4356C21.2634 24.9169 20.9112 25.3982 20.5957 25.9048L19.6182 27.3993C19.2943 27.9003 19.0098 28.4209 18.7027 28.9304C18.0774 29.9436 17.5478 31.0103 16.99 32.0601C16.8463 32.3219 16.7083 32.5892 16.5956 32.8594L16.2181 33.6672L15.8548 34.4862C15.728 34.7677 15.604 35.0238 15.4942 35.3024C15.0519 36.4057 14.5702 37.4949 14.2012 38.6264C14.0068 39.1893 13.8012 39.7522 13.6181 40.3151L13.1138 42.0263L12.8631 42.8707L12.6519 43.7375L12.2378 45.4769C12.1082 46.0595 12.0124 46.6477 11.8997 47.2332L11.7392 48.1141L11.6603 48.556L11.6011 49.0007C11.4518 50.1856 11.2631 51.3677 11.1983 52.5638C11.1532 53.1605 11.1025 53.7572 11.0659 54.3539L11.0208 56.1495L10.9983 57.0474C10.9983 57.3457 10.9983 57.6468 11.018 57.9452L11.0659 59.7437C11.1881 62.1418 11.4638 64.5296 11.8913 66.8925L12.0518 67.7791L12.1307 68.221L12.2321 68.66L12.6378 70.4163C12.7617 71.0045 12.9476 71.5759 13.1026 72.1557C13.2575 72.7354 13.4153 73.3265 13.6012 73.8894C13.9871 75.0152 14.342 76.172 14.8012 77.2837C15.0238 77.8466 15.2238 78.4095 15.4688 78.9555L16.2012 80.5992C16.4351 81.1621 16.7168 81.6828 16.9844 82.2175C17.252 82.7523 17.514 83.2927 17.8069 83.819C18.4041 84.8604 18.9675 85.9214 19.6295 86.915C20.9047 88.9493 22.3075 90.9008 23.8296 92.7579C24.6184 93.6642 25.3705 94.6014 26.2128 95.457C26.6269 95.8904 27.0297 96.3351 27.4551 96.7601L28.7509 98.0098C29.1763 98.4348 29.6298 98.826 30.0833 99.2228C30.5369 99.6197 30.9819 100.019 31.4439 100.402L32.8524 101.528C33.089 101.714 33.32 101.905 33.5623 102.091L34.2947 102.617C34.7849 102.966 35.2694 103.324 35.7623 103.667L37.2723 104.652L38.03 105.142L38.8075 105.598L40.3625 106.51L41.9597 107.354L42.7597 107.771C43.0414 107.903 43.3034 108.027 43.5766 108.153L45.2133 108.91C45.7767 109.15 46.3401 109.366 46.8838 109.594C47.9909 110.067 49.1374 110.439 50.2642 110.83C50.5459 110.934 50.8276 111.018 51.1262 111.111L51.9938 111.362C52.5741 111.522 53.1459 111.711 53.7319 111.846L55.4897 112.257C55.7714 112.322 56.0756 112.4 56.3714 112.451L57.2587 112.611L59.0362 112.927L60.8278 113.152L61.8222 113.273C62.1546 113.309 62.487 113.326 62.8223 113.352L64.8223 113.492L66.8252 113.532C67.1604 113.532 67.4928 113.549 67.828 113.532L68.8309 113.501C71.5032 113.434 74.1668 113.169 76.8001 112.71L78.772 112.344C79.4227 112.201 80.0706 112.04 80.7213 111.888C81.0453 111.809 81.3721 111.739 81.6932 111.649L82.6538 111.367L83.6144 111.086C83.9355 110.993 84.2566 110.903 84.5693 110.79L86.4624 110.143C87.0934 109.929 87.7046 109.662 88.3272 109.423L89.2568 109.054C89.5638 108.924 89.8653 108.772 90.1695 108.646C90.7751 108.364 91.3892 108.105 91.9893 107.801C96.1293 105.797 100.014 103.304 103.561 100.377C107.056 97.4761 110.149 94.1237 112.759 90.4078C113.184 89.7717 112.857 89.9969 112.424 90.6329C109.874 94.1394 106.878 97.2986 103.511 100.031C103.102 100.388 102.666 100.706 102.229 101.035L100.947 102.035L99.6007 102.955C99.15 103.259 98.7106 103.574 98.2401 103.85C97.3134 104.413 96.4007 105.007 95.4429 105.513L94.0344 106.301L92.5808 107.027C91.5808 107.554 90.5329 107.982 89.5047 108.452C88.9892 108.688 88.4539 108.874 87.93 109.088C87.406 109.302 86.8793 109.515 86.3412 109.696C85.2651 110.05 84.2003 110.456 83.1017 110.748L81.4622 111.221L79.8002 111.604C78.6988 111.885 77.572 112.06 76.4536 112.277C76.1719 112.333 75.8902 112.372 75.6085 112.409L74.7634 112.524C74.2 112.595 73.6366 112.687 73.0732 112.738L71.3831 112.879L70.538 112.946L69.6929 112.975L68.0027 113.025C67.4393 113.025 66.8759 113.008 66.3125 113.003C63.95 112.948 61.5933 112.746 59.256 112.398L57.5151 112.088C56.9348 111.981 56.3545 111.888 55.7826 111.745C54.6361 111.463 53.484 111.227 52.3572 110.878C51.7938 110.709 51.2304 110.56 50.667 110.377L48.9965 109.814L48.1514 109.532L47.3317 109.203L45.6471 108.508C43.4819 107.571 41.3756 106.503 39.3399 105.311C38.3089 104.748 37.3286 104.075 36.337 103.436L35.9652 103.194L35.6046 102.935L34.8863 102.42L34.1651 101.919C33.9229 101.747 33.6862 101.576 33.4552 101.387C32.5313 100.65 31.5904 99.9377 30.7143 99.1356C30.2721 98.7415 29.8157 98.3672 29.3903 97.9591L28.1114 96.732C27.6776 96.3295 27.2663 95.8876 26.872 95.4654C26.4776 95.0433 26.0522 94.6211 25.6635 94.1708C24.9001 93.2701 24.1029 92.3976 23.4099 91.4491C23.0493 90.9819 22.6803 90.5204 22.331 90.0419L21.3141 88.5952C21.1479 88.3532 20.9704 88.1168 20.8126 87.8691L20.3394 87.1232C20.0267 86.6251 19.7056 86.1297 19.3985 85.6259C14.5531 77.4872 11.8683 68.247 11.5983 58.7811C11.5983 58.1929 11.5673 57.6046 11.5617 57.0192L11.6096 55.2573L11.6349 54.3764C11.6518 54.0949 11.6772 53.791 11.6997 53.4983L11.8406 51.7448C11.8885 51.1622 11.9842 50.5824 12.0547 49.9998L12.1702 49.1301C12.2068 48.8487 12.2462 48.5503 12.3026 48.2633L12.6181 46.538C12.6744 46.2565 12.7166 45.9751 12.7843 45.6767L12.9871 44.8324C14.0187 40.2597 15.6299 35.8371 17.7816 31.6717C18.0633 31.1567 18.314 30.6388 18.5929 30.1294L19.4746 28.6236L19.9168 27.8721L20.3929 27.1432L21.3479 25.6852C22.674 23.774 24.1162 21.9458 25.6663 20.211C28.7608 16.7381 32.2784 13.6661 36.137 11.0667C36.6074 10.7261 37.1089 10.4306 37.599 10.1182C38.0892 9.80576 38.5765 9.48772 39.0836 9.20064C40.1005 8.63774 41.0949 8.02699 42.1456 7.51193C44.2208 6.44688 46.3581 5.50703 48.5458 4.69742L50.2022 4.13452L51.0304 3.85307L51.8755 3.60821L53.5657 3.12411L55.2558 2.71882L56.1009 2.51899C56.3826 2.45426 56.6643 2.40922 56.946 2.35293L58.6672 2.03771C59.2306 1.9392 59.8222 1.87728 60.3968 1.79566C60.9715 1.71404 61.549 1.6296 62.1321 1.59301L64.0645 1.4354C64.7096 1.38474 65.3575 1.38474 66.0026 1.35941L66.9717 1.32845C67.2956 1.32845 67.6196 1.32845 67.9407 1.32845L69.8816 1.36222L71.8169 1.48887L72.7859 1.55361L73.7493 1.66619L75.6761 1.89698L77.5889 2.21784C77.9072 2.27413 78.2283 2.31916 78.5438 2.38671L79.4931 2.59498C80.1241 2.73852 80.7608 2.87643 81.3862 3.0256C82.6341 3.3746 83.8933 3.6842 85.113 4.11763L86.0342 4.42441C86.3412 4.52292 86.6483 4.62987 86.9497 4.7509L88.761 5.45453C89.0652 5.56711 89.361 5.7022 89.654 5.83449L90.5413 6.23133C91.1329 6.49589 91.7273 6.75764 92.2963 7.07568L94.0288 7.96788L95.7189 8.95015C96.0006 9.1162 96.2823 9.27381 96.564 9.45113L97.3753 9.98589L98.1838 10.5206C98.4655 10.698 98.7247 10.8753 98.981 11.0836L100.539 12.2347C100.801 12.4233 101.049 12.6287 101.299 12.8342L102.046 13.4477L102.792 14.0613C103.04 14.2668 103.274 14.4891 103.514 14.703L104.942 16.0033C106.79 17.7918 108.53 19.6884 110.153 21.683C110.559 22.1812 110.939 22.7019 111.333 23.2085L111.922 23.974L112.486 24.7649C112.852 25.294 113.238 25.8119 113.59 26.3523L114.641 27.9819C115.012 28.5335 114.987 28.4209 114.618 27.8327Z" fill="#FF945C"/>
</g>
<g opacity="0.8">
<path opacity="0.8" d="M116.729 29.0316C112.726 21.8574 106.999 15.6767 100.247 10.8751L98.7202 9.84221L97.9568 9.32715L97.1709 8.84869L95.599 7.89176L93.9821 7.01081L93.1736 6.56893L92.3454 6.16646L90.689 5.36432L88.9989 4.64099L88.1538 4.28073C87.8721 4.16252 87.5904 4.06683 87.2918 3.95706C82.6931 2.20077 77.8806 1.06495 72.9815 0.579649L71.142 0.413593C70.5279 0.382634 69.911 0.365744 69.2969 0.340413L68.3729 0.306641C68.0659 0.306641 67.756 0.306641 67.449 0.306641L65.601 0.3376C63.1367 0.435807 60.6815 0.696247 58.2515 1.11722C57.0318 1.30016 55.8346 1.58725 54.6317 1.85181C54.3303 1.91373 54.0317 1.98972 53.7359 2.07415L52.8457 2.31621C52.2542 2.48508 51.6542 2.62017 51.071 2.82282L49.3161 3.38572C49.0344 3.47578 48.7329 3.57992 48.4456 3.68968L47.5836 4.01054C46.423 4.41583 45.3019 4.91682 44.1723 5.39528C41.9313 6.38842 39.7526 7.51629 37.6481 8.7727C36.5805 9.37782 35.572 10.0702 34.5495 10.7429C34.0368 11.0778 33.5522 11.4549 33.0536 11.8096C32.555 12.1642 32.0536 12.5188 31.5832 12.9128L30.1493 14.064C29.6704 14.4468 29.2254 14.8689 28.7606 15.2714C27.8253 16.0651 26.969 16.9601 26.0873 17.8045C24.3639 19.5611 22.7638 21.4344 21.2984 23.411C18.2954 27.4598 15.857 31.8976 14.0503 36.6026C13.1573 38.9543 12.4168 41.361 11.8333 43.8077C11.5094 45.0236 11.3066 46.262 11.0643 47.4948L10.977 47.9563L10.9122 48.4235L10.7798 49.3551L10.6474 50.2868C10.6023 50.5964 10.5572 50.9088 10.5347 51.2212C9.98007 56.2213 10.0747 61.272 10.8164 66.2479C11.1768 68.7337 11.7039 71.1925 12.3939 73.6078C12.7714 74.8068 13.1207 76.0198 13.5799 77.1907L13.9066 78.0773C14.0137 78.3728 14.1235 78.6683 14.2531 78.9554L14.994 80.6919C19.1669 89.898 25.6954 97.842 33.9213 103.723C34.4171 104.109 34.9495 104.441 35.4678 104.795L36.2481 105.322C36.5073 105.499 36.7692 105.674 37.0397 105.831C38.1129 106.481 39.1778 107.151 40.2961 107.728L41.1243 108.178L41.5384 108.404L41.9637 108.609L43.6539 109.428L44.0793 109.634L44.5131 109.817L45.3807 110.182L46.2484 110.548L46.6822 110.731L47.1245 110.894C54.4932 113.716 62.3703 114.97 70.2518 114.576C70.9589 114.531 71.6603 114.494 72.3759 114.444L74.4914 114.21C75.1985 114.148 75.8999 114.007 76.5957 113.9L77.6464 113.731C77.9957 113.678 78.3422 113.591 78.6887 113.52C81.4672 112.965 84.1985 112.195 86.8579 111.218C87.5199 110.965 88.1904 110.74 88.8298 110.461L90.782 109.617C91.4299 109.335 92.0581 109.006 92.6975 108.699C93.013 108.542 93.337 108.395 93.6497 108.226L94.5793 107.717C95.8328 107.061 97.0272 106.31 98.2414 105.564C99.4104 104.767 100.594 103.993 101.703 103.121C102.267 102.696 102.83 102.276 103.368 101.812C103.906 101.348 104.458 100.914 104.988 100.447L106.546 99.0144C106.811 98.7808 107.056 98.5275 107.304 98.277L108.047 97.5227C110.025 95.5079 111.845 93.3437 113.49 91.0493C113.695 90.7679 113.915 90.4864 114.109 90.205L114.695 89.3241L115.278 88.4431C115.374 88.2968 115.476 88.1617 115.56 88.0012L115.842 87.5481L116.924 85.7327C117.262 85.1135 117.588 84.4887 117.918 83.8695C118.279 83.1884 118.171 83.1912 117.808 83.8695L116.935 85.5048C116.625 86.0395 116.301 86.5658 115.983 87.0978L115.504 87.8915C115.34 88.1532 115.16 88.4065 114.991 88.6626L113.954 90.1994C113.591 90.7003 113.216 91.1901 112.847 91.6854L112.284 92.4256C112.092 92.6677 111.892 92.9041 111.695 93.1405L110.509 94.5675L109.259 95.9353L108.633 96.6193L107.977 97.2722L106.658 98.5754L105.284 99.8165C105.053 100.022 104.827 100.233 104.594 100.433L103.878 101.021C103.399 101.41 102.926 101.809 102.441 102.189L100.957 103.295C100.706 103.475 100.467 103.67 100.21 103.841L99.4442 104.359C98.9315 104.7 98.4273 105.057 97.9061 105.386C93.7367 108.043 89.2448 110.157 84.5396 111.677L83.6579 111.958L83.2156 112.099L82.7677 112.22L80.9761 112.701L80.5282 112.822L80.0747 112.921L79.1676 113.118L78.2605 113.312L77.807 113.411L77.3506 113.487L75.5196 113.785L75.0633 113.858L74.6013 113.912L73.6801 114.016L72.759 114.117C72.4519 114.154 72.1449 114.185 71.835 114.199L69.9842 114.308C69.3673 114.359 68.7476 114.342 68.1307 114.354C67.5138 114.365 66.894 114.379 66.2771 114.354C65.0433 114.292 63.8038 114.283 62.5756 114.14L60.7305 113.962L58.8966 113.698L57.9811 113.565C57.6769 113.515 57.3754 113.45 57.0712 113.391L55.2543 113.034C52.8416 112.498 50.4658 111.809 48.1414 110.97C36.412 106.779 26.4056 98.8187 19.6899 88.3362C18.3772 86.2824 17.1909 84.1507 16.1377 81.9528C15.5743 80.8664 15.1236 79.7294 14.6278 78.612C14.3912 78.0491 14.1883 77.4693 13.9686 76.9008C13.7489 76.3323 13.5292 75.7581 13.3517 75.1727L12.7883 73.4277C12.608 72.8423 12.4615 72.2484 12.2981 71.6574C11.9516 70.4809 11.7347 69.2763 11.453 68.0829C10.9858 65.6782 10.6818 63.2447 10.5432 60.799C10.4446 59.5775 10.4586 58.3531 10.4474 57.1401C10.4305 56.5293 10.484 55.9186 10.5009 55.3078C10.5178 54.6971 10.5403 54.0863 10.5967 53.4756L10.7713 51.6518C10.8051 51.3478 10.822 51.0439 10.8671 50.7399L10.9995 49.8336L11.2812 48.0211L11.639 46.2254C12.6231 41.4351 14.2184 36.7908 16.3856 32.4062C16.6391 31.8433 16.949 31.3113 17.2307 30.7709C17.5124 30.2305 17.7941 29.6873 18.1124 29.1582C18.7547 28.114 19.3518 27.0417 20.0589 26.0397C20.4054 25.5331 20.735 25.0181 21.0928 24.5199L22.1914 23.0479C22.5491 22.5497 22.9407 22.0797 23.3322 21.6097C23.7238 21.1397 24.1041 20.6584 24.5097 20.2024C27.7397 16.5131 31.4322 13.2552 35.496 10.5092C37.5079 9.13112 39.604 7.87998 41.7722 6.76313C42.868 6.22838 43.9554 5.67391 45.085 5.21233L45.9301 4.84927C46.2118 4.72543 46.4935 4.60722 46.7751 4.5059L48.4879 3.86137C49.0513 3.6334 49.6428 3.47015 50.2231 3.27595L51.0936 2.9945C51.3753 2.8988 51.6739 2.80593 51.9697 2.73275C53.15 2.41752 54.3247 2.07415 55.5247 1.84055C57.9194 1.31159 60.3463 0.940213 62.7897 0.728818L64.8123 0.599352L65.3165 0.568393H65.8236H66.8348C68.1842 0.52336 69.5307 0.610608 70.88 0.658455C71.5533 0.700672 72.2237 0.773848 72.8942 0.832953L73.8998 0.925833L74.8999 1.06656L76.8999 1.34801L78.8718 1.73641C79.2014 1.80396 79.5338 1.85744 79.8606 1.93906L80.8409 2.18392C81.4944 2.3528 82.1536 2.49633 82.7987 2.68772L84.7339 3.27595L85.2185 3.42231L85.6945 3.59118L86.6467 3.93455C87.9256 4.36517 89.1594 4.91681 90.4073 5.43468C91.0214 5.71613 91.6271 6.01447 92.2384 6.30155C92.5426 6.4479 92.8497 6.583 93.1511 6.74343L94.0441 7.22472C98.6952 9.699 102.981 12.8047 106.78 16.4535C108.666 18.2895 110.428 20.248 112.056 22.3161C112.825 23.3744 113.631 24.3961 114.309 25.4909L114.842 26.2987C115.019 26.5801 115.2 26.8362 115.357 27.1149L116.332 28.7698C116.504 29.0945 116.706 29.4018 116.938 29.6873C117.053 29.7464 117.005 29.5579 116.729 29.0316Z" fill="#FF945C"/>
</g>
<path d="M117.317 33.0486L116.604 31.616C116.351 31.146 116.086 30.6844 115.827 30.2088C115.322 29.2659 114.739 28.3709 114.173 27.4646C113.891 27.0059 113.584 26.5724 113.28 26.1334L112.362 24.8162L111.384 23.544C111.055 23.1218 110.739 22.6997 110.384 22.2887C107.649 18.9937 104.556 16.0127 101.161 13.4005C97.7598 10.8134 94.0739 8.62271 90.1751 6.87083C89.6963 6.63441 89.192 6.44866 88.699 6.24601L87.2117 5.6437L85.6961 5.11458C85.1891 4.94571 84.6905 4.74587 84.1722 4.60796L82.6313 4.15764C82.3749 4.08446 82.1186 4.00285 81.8594 3.9353L81.0791 3.74954L79.5185 3.38365C78.9974 3.25418 78.4678 3.1782 77.941 3.07406C73.727 2.27754 69.4385 1.94344 65.1519 2.07772C60.8616 2.24469 56.6063 2.92021 52.4755 4.09009L51.698 4.304L50.9318 4.55449L49.3994 5.05547C48.8867 5.21871 48.3909 5.4298 47.8866 5.61837C47.3824 5.80694 46.8782 5.99271 46.3824 6.20379C44.3952 7.03101 42.4568 7.97071 40.5766 9.01831C40.109 9.28569 39.6301 9.53054 39.1681 9.81481L37.7962 10.6592L37.1117 11.087L36.4469 11.5457L35.1173 12.4633C34.675 12.7701 34.2581 13.1106 33.8271 13.4343C33.3961 13.7579 32.9623 14.0788 32.5538 14.4278L31.32 15.472C31.1143 15.6465 30.9059 15.8182 30.7059 15.9955L30.1143 16.5584L28.934 17.6617C28.5452 18.036 28.179 18.43 27.8072 18.8156L27.2438 19.3954C27.0551 19.5868 26.8691 19.7838 26.6945 19.9893L25.6269 21.2023C25.4522 21.4078 25.2663 21.602 25.0973 21.8131L24.5874 22.4323L23.5789 23.696C23.255 24.1266 22.9451 24.5685 22.6296 25.0047C22.3141 25.441 21.9845 25.8688 21.7028 26.3276C19.3065 29.9148 17.3221 33.7602 15.7871 37.7911C14.2861 41.8087 13.2686 45.9904 12.7561 50.2481C11.679 58.7787 12.5654 67.4423 15.3477 75.5787C16.7311 79.6342 18.5981 83.5086 20.9084 87.1182C22.0595 88.9225 23.3123 90.66 24.6606 92.3222L25.7057 93.5381C26.0578 93.9406 26.3931 94.3571 26.7677 94.7371C27.5086 95.5055 28.2213 96.3048 29.0213 97.0253L30.1791 98.1314L31.3848 99.184C32.1763 99.9017 33.0299 100.543 33.8637 101.208C34.275 101.545 34.7088 101.849 35.1482 102.159L36.4497 103.088L37.7934 103.957C38.2441 104.239 38.6807 104.548 39.1484 104.802C42.8093 106.985 46.7116 108.736 50.7768 110.02C54.8373 111.291 59.03 112.093 63.273 112.412C67.5263 112.751 71.8041 112.619 76.0283 112.018C80.2483 111.385 84.3798 110.261 88.3385 108.669C92.2872 107.077 96.0389 105.035 99.5191 102.584C101.262 101.365 102.935 100.05 104.53 98.6436C104.928 98.289 105.308 97.9175 105.697 97.5573C106.085 97.197 106.485 96.8424 106.846 96.4511C107.578 95.68 108.345 94.9426 109.026 94.1264C109.57 93.5072 109.35 93.4086 108.809 94.025L108.285 94.6217C108.108 94.8187 107.919 95.0045 107.736 95.1846L106.632 96.3245C106.269 96.7101 105.866 97.0563 105.485 97.4221C105.105 97.788 104.719 98.1539 104.322 98.5029C102.731 99.9051 101.062 101.216 99.3219 102.429C95.8536 104.872 92.1094 106.899 88.1666 108.466C80.2636 111.642 71.7221 112.91 63.2364 112.167C61.1233 111.994 59.0214 111.703 56.9404 111.298L56.5489 111.227L56.1601 111.137L55.3854 110.96L53.8361 110.603L52.3065 110.169C51.7994 110.017 51.2811 109.888 50.7825 109.716C46.7361 108.416 42.8545 106.651 39.216 104.456C35.5806 102.249 32.2036 99.6439 29.1481 96.6876L28.5847 96.1247C28.3959 95.9389 28.2157 95.7419 28.0213 95.5618L26.9227 94.4078C26.5508 94.0279 26.2212 93.6085 25.8691 93.2116C25.517 92.8148 25.1677 92.4123 24.8353 91.9986C23.4948 90.3458 22.254 88.6146 21.1197 86.8142C16.5393 79.626 13.8096 71.3344 12.9504 62.8909C12.5568 58.6577 12.6693 54.3927 13.2857 50.1862C14.5016 41.7508 17.5808 33.6914 22.3 26.5921C24.6757 23.0519 27.4644 19.8064 30.6073 16.9243C35.3326 12.5859 40.7624 9.08246 46.6641 6.56405C47.157 6.36141 47.6584 6.17283 48.1542 5.97863C48.65 5.78443 49.143 5.57615 49.6529 5.41573C50.6698 5.08924 51.6698 4.71492 52.7065 4.45317C56.8149 3.29139 61.0461 2.61782 65.3125 2.44642C69.5747 2.29799 73.8403 2.62175 78.0311 3.41179C86.4088 4.94852 94.3386 8.58205 101.113 13.7017C104.484 16.2926 107.551 19.2564 110.255 22.5364C110.607 22.9333 110.914 23.3808 111.241 23.7861C111.567 24.1913 111.891 24.6304 112.207 25.0498L113.117 26.3557L113.57 27.0087C113.722 27.2254 113.852 27.4562 113.998 27.6785L114.843 29.0267L115.055 29.3644L115.249 29.7106L115.641 30.403C115.897 30.8674 116.167 31.3233 116.415 31.7933L117.131 33.2147L117.491 33.9239C117.61 34.1519 117.813 33.9943 117.317 33.0486Z" fill="#FF945C"/>
<path d="M113.677 83.124C111.74 86.4818 109.494 89.6515 106.967 92.592C104.415 95.5598 101.529 98.224 98.3668 100.532L98.0316 100.782L97.6823 101.016L96.9837 101.472L96.2879 101.939C96.0569 102.097 95.8231 102.251 95.5836 102.392C94.6259 102.955 93.6822 103.566 92.6878 104.081C90.7285 105.146 88.7038 106.086 86.6256 106.895C85.5749 107.273 84.5411 107.689 83.4678 107.999C82.9354 108.162 82.4058 108.342 81.8706 108.488L80.2508 108.911C79.9691 108.978 79.7127 109.06 79.4395 109.113L78.6198 109.285C78.0733 109.398 77.5296 109.519 76.9803 109.623L75.3267 109.882L74.4985 110.011L73.6534 110.101C73.0506 110.163 72.4478 110.236 71.8449 110.293L70.028 110.397C69.4223 110.445 68.8167 110.442 68.211 110.447C67.6054 110.453 66.9969 110.475 66.3913 110.447C65.18 110.394 63.9658 110.371 62.7602 110.233L61.8531 110.152L61.3996 110.11L60.9489 110.045L59.146 109.789C56.7486 109.404 54.3805 108.854 52.0585 108.145C50.8894 107.821 49.757 107.382 48.6133 106.98C48.0499 106.774 47.4865 106.521 46.9231 106.293C46.3597 106.065 45.7963 105.834 45.2583 105.561L43.6188 104.776C43.0836 104.495 42.554 104.213 42.0244 103.912L41.23 103.476L40.4582 103C39.9455 102.679 39.4271 102.372 38.9201 102.043C37.9313 101.351 36.9172 100.698 35.9763 99.9407L35.258 99.3778L34.9002 99.0964L34.5538 98.8149L33.1762 97.6469C29.5651 94.4507 26.3988 90.7855 23.7619 86.7491L23.2577 85.9892C23.0887 85.7359 22.9422 85.4685 22.7844 85.2096L21.8492 83.6447C21.2858 82.5696 20.6717 81.5169 20.159 80.4052L19.7984 79.6115L19.6012 79.2006L19.4238 78.7812L18.7111 77.0925C18.4801 76.5296 18.2857 75.9526 18.0688 75.3841L17.7505 74.5398L17.4688 73.6701C16.7142 71.3493 16.1286 68.9771 15.7166 66.5719L15.4349 64.7706C15.3532 64.1683 15.2997 63.5632 15.2321 62.9609L15.1363 62.0574L15.0856 61.1483C15.0546 60.5432 15.0124 59.9381 14.9926 59.3329C14.9926 58.1199 14.9504 56.9068 15.0321 55.6938L15.0715 54.7847C15.0715 54.4807 15.0912 54.1796 15.1279 53.8784L15.2969 52.0659L15.3391 51.6127L15.4039 51.1624L15.5335 50.2618L15.6631 49.3611L15.7279 48.9108L15.8152 48.4633L16.1645 46.6761C16.1955 46.5269 16.2208 46.3777 16.2546 46.2286L16.3645 45.7867L16.5842 44.9029C17.7504 40.1858 19.5709 35.6546 21.9928 31.4411C22.6323 30.411 23.2323 29.3556 23.9422 28.3733L24.4577 27.6247L24.714 27.2503L24.9957 26.8872L26.1 25.4434C26.4662 24.9621 26.8775 24.5146 27.2634 24.0361L27.8493 23.3438C28.0465 23.113 28.2606 22.8991 28.4663 22.6767L29.7085 21.3539L31.0128 20.093C32.7687 18.4289 34.6381 16.8885 36.6073 15.4828L37.3398 14.9481L38.0947 14.4471C38.6018 14.1178 39.1004 13.7744 39.6102 13.4536C40.6525 12.84 41.6751 12.1927 42.7512 11.641C51.3195 7.00924 61.009 4.85162 70.735 5.4097C74.3615 5.61246 77.9598 6.16671 81.479 7.06464C85.0056 7.95839 88.4234 9.23633 91.6708 10.8755C98.2093 14.1531 103.994 18.7538 108.657 24.3851C110.99 27.2414 113.002 30.3458 114.655 33.6421C116.308 36.9463 110.973 25.8881 103.913 19.2205L102.567 17.9962C102.347 17.7879 102.113 17.5937 101.877 17.4052L101.173 16.8423C100.251 16.0514 99.2513 15.3646 98.2851 14.6385C97.7865 14.2979 97.2766 13.9686 96.7724 13.6337L96.0146 13.1355L95.2343 12.674C94.7103 12.37 94.1977 12.0491 93.6681 11.7592L92.0624 10.9149C91.5328 10.6334 90.9779 10.383 90.4314 10.1268L89.6088 9.74405C89.3271 9.61458 89.0623 9.48793 88.7778 9.38098L87.0876 8.69987L86.6679 8.531L86.2397 8.38183L85.3946 8.08349C84.2678 7.6585 83.0959 7.34327 81.941 6.99709C81.6593 6.90421 81.3579 6.83948 81.0649 6.7663L80.1832 6.5524C79.5944 6.41448 79.0141 6.24843 78.4169 6.14711C66.6201 3.63565 54.3183 5.23017 43.5534 10.666C32.7884 16.1019 24.2076 25.0522 19.235 36.0316L18.5364 37.695C18.4209 37.9764 18.2998 38.2579 18.1899 38.5393L17.8829 39.3837C17.68 39.9466 17.466 40.5095 17.2716 41.0724L16.742 42.7977C16.6575 43.0791 16.5589 43.3606 16.4828 43.6617L16.2631 44.5371C16.1194 45.1225 15.9617 45.7023 15.8265 46.2905L15.4744 48.0608C15.418 48.3423 15.3504 48.6491 15.3025 48.9474L15.1701 49.8396C13.6465 59.4203 14.8098 69.2355 18.5308 78.1958C22.3019 87.1739 28.474 94.9415 36.3707 100.647C38.3235 102.07 40.3726 103.355 42.5033 104.495L43.3005 104.928C43.5653 105.072 43.8442 105.193 44.1146 105.328L45.7484 106.113L47.4048 106.819L48.2499 107.171L49.095 107.481L50.8021 108.097L52.5402 108.629L53.4106 108.894L54.2923 109.113L56.0558 109.555L57.8276 109.915L58.7206 110.09L59.6192 110.219L61.4193 110.475L63.2278 110.642C65.7974 110.859 68.38 110.874 70.952 110.687L71.9154 110.625L72.8731 110.518C73.5098 110.439 74.1492 110.383 74.7859 110.287L76.6845 109.972L77.1578 109.89L77.6282 109.789L78.5691 109.586L79.5099 109.383C79.8226 109.313 80.1297 109.22 80.4395 109.139C81.0565 108.967 81.679 108.815 82.2931 108.632L84.1241 108.044L84.5805 107.897L85.0312 107.728L85.9326 107.391L86.8341 107.053C87.1327 106.938 87.4256 106.803 87.7214 106.679C88.3102 106.42 88.9046 106.181 89.4849 105.91L91.2173 105.066C91.499 104.931 91.7807 104.785 92.0624 104.621L92.9075 104.16L93.7075 103.723C93.9723 103.577 94.2287 103.411 94.4878 103.253L96.0456 102.299C97.0484 101.607 98.0823 100.951 99.0457 100.191L99.7809 99.6283L100.147 99.3469L100.502 99.0654L101.911 97.8918C102.378 97.4949 102.82 97.0699 103.277 96.659L103.958 96.0398L104.609 95.3897C106.354 93.6737 107.982 91.8419 109.48 89.907L110.584 88.4519C110.939 87.9594 111.274 87.4527 111.621 86.9546L112.139 86.2059L112.618 85.4347C112.936 84.9197 113.263 84.4131 113.576 83.898C114.198 82.8229 114.283 82.0714 113.677 83.124Z" fill="#FF945C"/>
<g opacity="0.6">
<path opacity="0.6" d="M114.097 35.4737L113.457 34.1424L112.753 32.8393C109.083 25.9992 103.897 20.0881 97.5894 15.5582C91.1329 10.9987 83.6002 8.14761 76.1381 6.9036C72.0449 6.21468 67.8868 5.99185 63.7434 6.23938C63.225 6.25345 62.7095 6.31255 62.194 6.36321L60.6447 6.51519L59.1066 6.74599C58.5939 6.82198 58.0784 6.89234 57.5714 7.00773L56.0417 7.31733C55.7854 7.36518 55.5319 7.42428 55.2812 7.49465L54.5234 7.68885C54.022 7.82395 53.5093 7.93371 53.0135 8.09132L51.5205 8.55853C51.2726 8.64015 51.0191 8.7077 50.774 8.79777L50.0387 9.07922L48.5655 9.62804L47.1232 10.2275L46.3992 10.54C46.157 10.6441 45.926 10.7679 45.6893 10.8833L44.2808 11.5813C43.8076 11.8149 43.3569 12.0879 42.8949 12.3384L42.2047 12.7212L41.8611 12.9126L41.5258 13.1209L40.185 13.9652C39.7314 14.2326 39.3089 14.5478 38.8723 14.8405C38.4356 15.1332 38.0018 15.4288 37.5793 15.7412L36.3257 16.6953L35.7003 17.1738L35.0975 17.6804L33.8834 18.6767L32.7228 19.735C31.934 20.4217 31.2185 21.1872 30.4692 21.9134C30.2805 22.0935 30.103 22.2849 29.9283 22.4763L29.4016 23.0533C29.0551 23.4417 28.6889 23.8132 28.3565 24.2157L27.3593 25.4203C27.1959 25.6229 27.024 25.8171 26.8635 26.0254L26.3958 26.6502L25.4578 27.8999C25.1592 28.3277 24.8747 28.7639 24.5817 29.1945C23.9789 30.0389 23.4549 30.9536 22.9197 31.843C22.638 32.2821 22.4098 32.7521 22.1563 33.208L21.4182 34.5871L20.7478 35.9944C20.5224 36.4644 20.2943 36.9344 20.1027 37.4214C19.7055 38.3867 19.2858 39.3437 18.9562 40.34L18.4322 41.8204L17.9815 43.3262C17.3973 45.312 16.9271 47.3296 16.573 49.369C16.4857 49.8784 16.4266 50.3934 16.3505 50.9057L16.2434 51.6741C16.204 51.9302 16.1702 52.1863 16.1533 52.4452L16.0181 53.9932C15.9956 54.2521 15.9674 54.5083 15.9533 54.7672L15.9251 55.544L15.866 57.1004C15.866 57.6183 15.866 58.139 15.866 58.6569V59.4365V59.8249L15.8913 60.2133L15.9871 61.7697C16.0068 62.2904 16.0716 62.8054 16.1308 63.3233L16.3026 64.8741L16.5533 66.4165C16.635 66.9315 16.7111 67.4466 16.835 67.9532L17.159 69.4758C17.2069 69.732 17.2717 69.9825 17.3393 70.2329L17.5393 70.9844C17.6773 71.4854 17.7928 71.992 17.9477 72.4874L18.4181 73.9734C18.497 74.2211 18.5703 74.4688 18.6576 74.7165L18.9393 75.4482L19.483 76.9118C19.6802 77.3931 19.8914 77.8687 20.0914 78.3472C20.2914 78.8257 20.4886 79.3098 20.7281 79.7713C21.1844 80.7057 21.6211 81.6514 22.1366 82.5577C22.3901 83.0136 22.6267 83.478 22.8943 83.9255L23.7084 85.2596C23.8465 85.482 23.9901 85.7071 24.1169 85.9267L24.5564 86.574L25.4324 87.8771L26.3677 89.1324C26.6804 89.5489 26.9846 89.9767 27.3254 90.3708L28.317 91.5782L28.5649 91.8794L28.8269 92.1608L29.348 92.7406C29.7002 93.1234 30.0326 93.523 30.396 93.8974L31.4889 95.0232L32.0354 95.5861L32.5988 96.1152L33.7397 97.1791C34.1284 97.5253 34.5313 97.8517 34.9285 98.1923C35.3257 98.5329 35.7144 98.8791 36.1341 99.1858C39.4161 101.784 43.0126 103.959 46.8387 105.659C54.5459 108.98 63.0842 110.534 71.4534 109.904C72.5042 109.856 73.5436 109.709 74.5887 109.591C75.1127 109.543 75.6282 109.439 76.1465 109.355C76.6649 109.27 77.1832 109.186 77.7015 109.09L79.2424 108.752L80.0142 108.586C80.2706 108.524 80.5213 108.451 80.7776 108.384L82.3354 107.945C82.8425 107.804 83.3383 107.627 83.8397 107.472C85.8387 106.824 87.798 106.06 89.7075 105.184L91.1159 104.488L91.823 104.142C92.054 104.021 92.2822 103.889 92.5132 103.765L93.8879 103.005C94.3442 102.749 94.7808 102.459 95.2287 102.189C97.0096 101.086 98.7243 99.8807 100.364 98.5779L101.57 97.5675L102.173 97.0637L102.753 96.5317L103.908 95.465C104.288 95.1048 104.646 94.7192 105.015 94.3392C107.954 91.3647 110.504 88.0302 112.604 84.4153C112.832 84.0387 113.035 83.6475 113.212 83.2444C113.311 82.963 113.319 82.8363 113.263 82.8307C113.207 82.8251 113.086 82.9573 112.886 83.2078C112.608 83.5767 112.353 83.9621 112.122 84.3618C109.836 88.1847 107.075 91.7035 103.905 94.8346C102.311 96.3944 100.617 97.8488 98.8345 99.1886C97.964 99.8838 97.0203 100.483 96.1076 101.122C95.6428 101.429 95.1611 101.71 94.6992 102.006C94.2372 102.302 93.7526 102.594 93.2569 102.85L91.7864 103.655C91.2906 103.911 90.7836 104.148 90.2821 104.393L89.53 104.759C89.2793 104.88 89.0173 104.981 88.761 105.093L87.2201 105.752C86.6989 105.955 86.175 106.143 85.651 106.34L84.8651 106.622C84.6031 106.715 84.3327 106.793 84.0679 106.878L82.4706 107.385L80.8537 107.815L80.0452 108.029C79.7635 108.094 79.4987 108.147 79.2283 108.206L77.5916 108.555L75.9409 108.837L75.1155 108.972C74.8338 109.011 74.5521 109.037 74.2845 109.07L72.6225 109.259C72.0591 109.304 71.5098 109.332 70.9548 109.372L70.1097 109.425C69.828 109.445 69.5463 109.425 69.2646 109.445L67.5942 109.47C63.1464 109.428 58.722 108.821 54.4276 107.663C50.14 106.469 46.0166 104.749 42.1512 102.544C38.2808 100.327 34.7052 97.6316 31.5087 94.5222C29.907 92.9676 28.4098 91.3091 27.0268 89.5574C26.3592 88.6652 25.6634 87.7927 25.055 86.8583C24.7479 86.3939 24.4155 85.9464 24.1282 85.4679L23.2605 84.0212C22.9591 83.5512 22.7169 83.053 22.4464 82.5661L22.0521 81.8315C21.9197 81.5895 21.7873 81.3446 21.6746 81.0913C21.2013 80.0894 20.7112 79.0958 20.3112 78.0629C19.4677 76.0257 18.7609 73.9345 18.1956 71.8034C17.0759 67.5498 16.479 63.1757 16.4181 58.7779C16.4181 58.215 16.3956 57.6746 16.4181 57.1258L16.4829 55.4736C16.4829 55.1922 16.4998 54.9107 16.5167 54.649L16.5899 53.8272L16.7336 52.1807C17.2594 47.8011 18.3199 43.5023 19.8914 39.3803L20.5224 37.8548L20.8379 37.0921L21.1929 36.3462L21.8971 34.8545C22.1507 34.3676 22.4155 33.8863 22.6746 33.3994C24.7774 29.5238 27.3633 25.9301 30.3706 22.7043C31.8796 21.0939 33.4925 19.584 35.1989 18.1842C36.044 17.4608 36.937 16.8276 37.8159 16.1633C38.261 15.8369 38.7258 15.5441 39.1793 15.2317C39.6328 14.9193 40.0892 14.6097 40.5652 14.3367L41.9737 13.4924C42.4498 13.2109 42.94 12.9689 43.4217 12.7071C44.3766 12.1639 45.3936 11.7333 46.371 11.252C46.8697 11.0269 47.3823 10.827 47.8838 10.6131L48.6415 10.2979C48.8922 10.1909 49.1542 10.1093 49.4106 10.0164L50.9543 9.45354C51.4726 9.27905 51.9994 9.12987 52.5205 8.96663C56.708 7.70496 61.0381 6.97588 65.4082 6.79664C67.5934 6.70992 69.782 6.76256 71.9605 6.95426C74.1381 7.14297 76.3019 7.46632 78.4395 7.92245C82.7232 8.86138 86.8714 10.3356 90.7864 12.3103C91.7413 12.8366 92.7273 13.3122 93.6512 13.8948C94.1188 14.1763 94.5949 14.4577 95.0597 14.7392L96.4288 15.6455C96.657 15.7975 96.8908 15.9269 97.1105 16.1014L97.7725 16.5883C98.2119 16.9148 98.6626 17.23 99.0993 17.5622L100.378 18.5951C100.589 18.7696 100.809 18.9356 101.015 19.1158L101.629 19.6646C102.037 20.0305 103.79 21.6713 104.615 22.4988C105.856 23.731 107.01 25.0476 108.069 26.4391C108.947 27.5649 110.249 29.5717 110.249 29.5717C110.564 30.0192 110.84 30.4892 111.122 30.9564C111.404 31.4236 111.686 31.8852 111.967 32.3637C112.48 33.3291 113.032 34.2719 113.483 35.2654C114.466 37.2075 114.548 36.349 114.097 35.4737Z" fill="#FF945C"/>
</g>
<g opacity="0.7">
<path opacity="0.7" d="M116.66 80.99C114.884 84.81 112.662 88.4066 110.04 91.7049C107.391 95.0336 104.349 98.0294 100.978 100.627C100.153 101.3 99.2684 101.893 98.4007 102.513C97.9726 102.831 97.5134 103.101 97.0683 103.391L95.719 104.235C93.8919 105.326 92.0054 106.315 90.0681 107.196C82.2919 110.771 73.773 112.436 65.2217 112.054C56.6704 111.672 48.3345 109.252 40.909 104.998C37.2232 102.901 33.8016 100.372 30.7172 97.4634C27.6577 94.5454 24.926 91.3026 22.5704 87.7927C20.2271 84.2649 18.2908 80.4835 16.7984 76.5206C16.5956 76.0309 16.4407 75.5271 16.2688 75.0261L15.7646 73.5231L15.3364 71.9977C15.1956 71.4882 15.0378 70.9845 14.9336 70.4666C14.7054 69.4365 14.4406 68.412 14.2801 67.3706L13.9984 65.8114L13.8012 64.2409C13.6406 63.1517 13.5871 62.0512 13.497 60.9535C13.4406 60.4047 13.4491 59.8531 13.4293 59.3014C13.4096 58.7498 13.3927 58.2009 13.3871 57.6493C13.3947 55.4424 13.5301 53.2377 13.7927 51.0464C13.8632 50.5004 13.9223 49.9516 13.9984 49.4028L14.2801 47.7732C14.4435 46.6811 14.7252 45.6116 14.9618 44.5365C15.0716 43.9961 15.2435 43.4698 15.3872 42.9378L15.8407 41.3476L16.3703 39.7828C16.5449 39.2621 16.7196 38.7386 16.9337 38.232L17.545 36.7093C17.6435 36.4532 17.7534 36.1999 17.8717 35.9522L18.2154 35.2035C18.4492 34.7054 18.6633 34.1988 18.9168 33.7119L19.6802 32.2539C19.8098 32.0119 19.9309 31.767 20.0633 31.525L20.4802 30.8157L21.3253 29.4085C21.607 28.9441 21.9254 28.4909 22.2268 28.0322C22.5282 27.5734 22.8183 27.109 23.1535 26.6728C23.8015 25.789 24.4325 24.8912 25.1395 24.0524C25.4888 23.6303 25.8184 23.1912 26.1818 22.7803L27.2748 21.5504C27.4579 21.3477 27.6354 21.1366 27.8241 20.9396L28.3875 20.3514L29.5368 19.1749L30.7397 18.0491C31.1397 17.672 31.5369 17.2948 31.9623 16.9486C35.2758 14.043 38.9186 11.5351 42.8161 9.47609L44.2865 8.71335L45.7908 8.0238C46.7852 7.53971 47.8247 7.17944 48.8472 6.75164C49.3599 6.54618 49.8867 6.38857 50.4078 6.20281L51.191 5.93543C51.4501 5.84255 51.7121 5.75811 51.9797 5.68775C53.0417 5.4063 54.0924 5.06012 55.1714 4.8434C59.3639 3.86603 63.6656 3.43558 67.9689 3.5628C72.2374 3.69446 76.479 4.28708 80.6199 5.33031C80.8819 5.3866 81.1411 5.45697 81.3974 5.53296L82.1721 5.75249C82.6876 5.90166 83.2059 6.03394 83.7186 6.19437L85.2454 6.7038L86.0088 6.9571C86.2652 7.04154 86.5103 7.14849 86.761 7.23855L88.2652 7.81834L88.6427 7.96469L89.0117 8.12794L89.7498 8.45442C90.2399 8.67677 90.7385 8.87941 91.2231 9.11583L92.6653 9.83916C96.509 11.7911 100.087 14.2257 103.314 17.0837C104.136 17.7705 104.88 18.5444 105.654 19.279C105.852 19.462 106.035 19.6562 106.218 19.8419L106.767 20.4274C107.128 20.8214 107.508 21.1985 107.857 21.6066L108.897 22.8281C109.069 23.0336 109.246 23.2334 109.415 23.4417L109.905 24.0778L110.888 25.3471C111.201 25.7806 111.503 26.2224 111.812 26.6587C112.446 27.5227 112.993 28.4431 113.573 29.3437C114.046 30.1459 114.255 31.6629 112.072 28.2883C111.815 27.8549 111.508 27.4439 111.226 27.0415L110.364 25.8031L109.432 24.6351C109.125 24.2382 108.829 23.8301 108.494 23.453C107.838 22.693 107.212 21.905 106.508 21.1873L105.477 20.0896C105.122 19.735 104.756 19.3916 104.395 19.0454C101.5 16.2735 98.2848 13.8557 94.8175 11.8431C91.3546 9.83293 87.6892 8.19333 83.882 6.95147C80.0892 5.69503 76.1699 4.85786 72.1944 4.45499C68.216 4.04884 64.2039 4.10741 60.2391 4.6295C56.0482 5.19114 51.9452 6.27959 48.0275 7.869C47.0359 8.2377 46.0838 8.69928 45.1176 9.1299C44.6302 9.33818 44.1682 9.5943 43.7091 9.83072C43.2499 10.0671 42.7654 10.3092 42.3006 10.5569C40.451 11.5746 38.6586 12.6927 36.9314 13.9061C35.2054 15.1145 33.5456 16.4148 31.9594 17.8014L30.7848 18.8737C30.4016 19.234 30.0045 19.5802 29.6439 19.9658C28.9087 20.7201 28.1537 21.4547 27.4692 22.2568C24.6321 25.3896 22.2008 28.8666 20.2323 32.6058C18.2638 36.3561 16.7634 40.3337 15.7646 44.4492C14.7832 48.5635 14.2571 52.7729 14.1956 57.002C14.1239 61.3383 14.5713 65.6677 15.528 69.8981C16.4733 74.1456 17.9576 78.2552 19.945 82.1271C23.9763 89.929 29.8514 96.6308 37.061 101.651C37.4948 101.984 37.9652 102.262 38.4188 102.566C38.8723 102.87 39.3258 103.16 39.7991 103.441L41.2076 104.272L41.9118 104.688L42.6358 105.068L44.0837 105.831C44.5711 106.076 45.0697 106.295 45.5626 106.529C46.5429 107.01 47.5627 107.401 48.5712 107.815C49.0726 108.032 49.5909 108.201 50.1064 108.378L51.6529 108.918L53.2276 109.377C53.7544 109.526 54.2727 109.695 54.8108 109.811C55.8756 110.056 56.9348 110.34 58.0193 110.511L59.6363 110.793L61.2673 111.004C63.4513 111.273 65.6501 111.405 67.8506 111.398L69.5013 111.345C70.0647 111.322 70.6028 111.319 71.1493 111.26C72.2451 111.162 73.3437 111.091 74.4339 110.917C74.9775 110.838 75.524 110.773 76.0677 110.683L77.6875 110.376L78.4988 110.224L79.3016 110.033L80.9045 109.65C81.4369 109.512 81.9608 109.349 82.4876 109.2C83.0144 109.051 83.5468 108.918 84.0623 108.721C85.0989 108.364 86.144 108.035 87.161 107.613C89.2066 106.82 91.2061 105.913 93.1499 104.897C95.0832 103.864 96.955 102.72 98.7557 101.471C99.674 100.863 100.533 100.182 101.406 99.5011C101.852 99.1774 102.252 98.8059 102.68 98.4541C103.108 98.1023 103.525 97.7505 103.93 97.3818L105.133 96.256C105.333 96.0674 105.536 95.8844 105.731 95.6931L106.294 95.0992L107.438 93.9143L108.519 92.6731C111.395 89.3401 113.842 85.6611 115.804 81.7218C116.776 79.8361 117.415 79.3379 116.66 80.99Z" fill="#FF945C"/>
</g>
</g>
<path d="M55.5463 54.9973V60.9423C55.5463 63.3394 55.6662 64.7777 55.9059 65.2571C55.9858 65.4489 56.1217 65.6167 56.3134 65.7605C56.5052 65.9044 56.713 65.9923 56.9367 66.0242C57.1764 66.0562 57.488 66.0722 57.8716 66.0722L57.9195 66.3598H51.4472L51.4952 66.0722C51.8947 66.0722 52.2063 66.0562 52.43 66.0242C52.6698 65.9923 52.8855 65.9044 53.0773 65.7605C53.285 65.6167 53.4289 65.4569 53.5088 65.2811C53.6047 65.0893 53.6846 64.7777 53.7485 64.3462C53.8284 63.7869 53.8683 62.6522 53.8683 60.9423V58.3054H44.1599V60.9423C44.1599 62.6522 44.2078 63.8189 44.3037 64.4421C44.4156 65.0654 44.5674 65.4569 44.7592 65.6167C45.1267 65.9204 45.71 66.0722 46.5091 66.0722L46.557 66.3598H40.0847L40.1327 66.0722C40.5322 66.0722 40.8438 66.0562 41.0675 66.0242C41.2913 65.9923 41.499 65.9044 41.6908 65.7605C41.8986 65.6167 42.0424 65.4569 42.1223 65.2811C42.2182 65.0893 42.2981 64.7777 42.362 64.3462C42.4419 63.7869 42.4819 62.6522 42.4819 60.9423V54.9973C42.4819 53.3353 42.4339 52.1767 42.338 51.5215C42.2422 50.8662 42.0983 50.4587 41.9066 50.2989C41.523 49.9953 40.9317 49.8435 40.1327 49.8435L40.0847 49.5798H46.557L46.5091 49.8435C45.71 49.8435 45.1267 49.9953 44.7592 50.2989C44.3596 50.6345 44.1599 52.2007 44.1599 54.9973V57.6821H53.8683V54.9973C53.8683 52.6162 53.7485 51.1699 53.5088 50.6585C53.4289 50.4667 53.285 50.2989 53.0773 50.1551C52.8855 50.0113 52.6698 49.9234 52.43 49.8914C52.2063 49.8594 51.8947 49.8435 51.4952 49.8435L51.4472 49.5798H57.9195L57.8716 49.8435C57.488 49.8435 57.1764 49.8594 56.9367 49.8914C56.713 49.9234 56.5052 50.0113 56.3134 50.1551C56.1217 50.2989 55.9778 50.4667 55.8819 50.6585C55.802 50.8503 55.7301 51.1619 55.6662 51.5934C55.5863 52.2965 55.5463 53.4312 55.5463 54.9973Z" fill="#282828"/>
<path d="M60.5504 60.7026C60.5504 59.0245 61.0298 57.6182 61.9887 56.4836C62.9476 55.3489 64.25 54.7816 65.896 54.7816C67.5421 54.7816 68.8685 55.3489 69.8753 56.4836C70.8821 57.6182 71.3855 59.0245 71.3855 60.7026C71.3855 62.3806 70.8981 63.7869 69.9233 64.9215C68.9644 66.0402 67.6619 66.5996 66.0159 66.5996C64.3699 66.5996 63.0434 66.0322 62.0366 64.8976C61.0458 63.7629 60.5504 62.3646 60.5504 60.7026ZM63.3071 64.5859C63.9464 65.6087 64.8493 66.1201 66.0159 66.1201C67.1825 66.1201 68.0615 65.6167 68.6528 64.6099C69.2601 63.6031 69.5637 62.3086 69.5637 60.7265C69.5637 59.1284 69.2441 57.818 68.6048 56.7952C67.9656 55.7724 67.0627 55.261 65.896 55.261C64.7454 55.261 63.8665 55.7724 63.2592 56.7952C62.6679 57.802 62.3722 59.0965 62.3722 60.6786C62.3722 62.2607 62.6839 63.5632 63.3071 64.5859Z" fill="#282828"/>
<path d="M76.6407 56.3877C76.6407 57.1228 77.0163 58.4333 77.7674 60.319L79.6132 64.9695L82.0823 56.8911C81.6987 55.8363 81.0435 55.309 80.1166 55.309L80.0687 55.0213H85.6061L85.5581 55.309C84.9988 55.309 84.6073 55.3969 84.3835 55.5727C84.1758 55.7484 84.0719 56.0521 84.0719 56.4836C84.0719 56.9151 84.4474 58.1935 85.1986 60.319L86.8046 64.9695L88.6744 59.2163C89.042 58.0657 89.2258 57.1947 89.2258 56.6034C89.2258 55.7405 88.6664 55.309 87.5478 55.309L87.4998 55.0213H92.0065L91.9585 55.309C91.3033 55.309 90.8398 55.5247 90.5682 55.9562C90.3125 56.3717 89.8251 57.6742 89.1059 59.8636L86.9485 66.4318H85.5342L82.3939 57.778L79.757 66.4318H78.3427L75.2264 58.4732C74.699 57.1308 74.2196 56.2678 73.7881 55.8843C73.3726 55.5007 72.8692 55.309 72.2779 55.309L72.23 55.0213H78.1749L78.127 55.309C77.5676 55.309 77.1761 55.3969 76.9523 55.5727C76.7446 55.7484 76.6407 56.0201 76.6407 56.3877Z" fill="#282828"/>
<path d="M104.227 54.9973V60.9423C104.227 62.6522 104.275 63.8189 104.371 64.4421C104.483 65.0654 104.635 65.4569 104.827 65.6167C105.194 65.9204 105.777 66.0722 106.576 66.0722L106.624 66.3598H100.152L100.2 66.0722C100.6 66.0722 100.911 66.0562 101.135 66.0242C101.359 65.9923 101.566 65.9044 101.758 65.7605C101.966 65.6167 102.11 65.4569 102.19 65.2811C102.286 65.0893 102.365 64.7777 102.429 64.3462C102.509 63.7869 102.549 62.6522 102.549 60.9423V54.9973C102.549 53.3353 102.501 52.1767 102.405 51.5215C102.31 50.8662 102.166 50.4587 101.974 50.2989C101.59 49.9953 100.999 49.8435 100.2 49.8435L100.152 49.5798H106.624L106.576 49.8435C105.777 49.8435 105.194 49.9953 104.827 50.2989C104.427 50.6345 104.227 52.2007 104.227 54.9973Z" fill="#282828"/>
<path d="M125.397 66.0722C126.004 66.0722 126.428 66.0242 126.667 65.9283C126.923 65.8325 127.051 65.5848 127.051 65.1852C127.051 64.7857 126.627 63.4273 125.78 61.1101H118.469C117.782 63.1397 117.438 64.4181 117.438 64.9455C117.438 65.4569 117.566 65.7765 117.822 65.9044C118.094 66.0162 118.573 66.0722 119.26 66.0722L119.308 66.3598H113.915L113.963 66.0722C114.426 66.0722 114.786 66.0322 115.041 65.9523C115.313 65.8724 115.601 65.6647 115.904 65.3291C116.224 64.9775 116.527 64.4741 116.815 63.8189C117.103 63.1636 117.446 62.2447 117.846 61.0621L119.979 54.9014C120.73 52.728 121.106 51.4096 121.106 50.9461C121.106 50.4827 120.994 50.1871 120.77 50.0592C120.547 49.9154 120.115 49.8435 119.476 49.8435L119.428 49.5798H123.383L127.626 61.0621C128.345 62.9639 128.825 64.1704 129.065 64.6818C129.32 65.1932 129.56 65.5208 129.784 65.6647C130.183 65.9363 130.687 66.0722 131.294 66.0722L131.342 66.3598H125.349L125.397 66.0722ZM122.041 50.8742L118.661 60.5348H125.589L122.041 50.8742Z" fill="#282828"/>
<path d="M135.28 57.9219C135.551 57.0429 135.983 56.2998 136.574 55.6925C137.181 55.0852 137.989 54.7816 138.995 54.7816C140.018 54.7816 140.873 55.0932 141.56 55.7165C142.807 56.8192 143.43 58.4892 143.43 60.7265C143.43 62.4045 142.919 63.8029 141.896 64.9215C140.873 66.0402 139.579 66.5996 138.012 66.5996C136.878 66.5996 135.967 66.3838 135.28 65.9523V68.781C135.28 69.7398 135.288 70.435 135.304 70.8665C135.336 71.298 135.424 71.6655 135.567 71.9692C135.727 72.2888 135.927 72.4806 136.167 72.5445C136.422 72.6084 136.806 72.6404 137.317 72.6404L137.365 72.928H131.564L131.612 72.6404C132.539 72.6404 133.098 72.4326 133.29 72.0171C133.498 71.6176 133.602 70.5389 133.602 68.781V58.665C133.602 57.802 133.586 57.1867 133.554 56.8192C133.538 56.4516 133.45 56.132 133.29 55.8603C133.146 55.5886 132.955 55.4368 132.715 55.4049C132.491 55.3569 132.123 55.3329 131.612 55.3329L131.564 55.0692C132.699 54.8775 133.937 54.7816 135.28 54.7816V57.9219ZM137.701 65.9044C139.171 65.9044 140.202 65.353 140.793 64.2503C141.337 63.2435 141.608 62.0689 141.608 60.7265C141.608 59.528 141.432 58.4173 141.081 57.3945C140.873 56.8352 140.553 56.3877 140.122 56.0521C139.69 55.7005 139.171 55.5247 138.564 55.5247C137.973 55.5247 137.445 55.7405 136.982 56.1719C136.518 56.5874 136.175 57.1068 135.951 57.7301C135.503 58.9766 135.28 60.0314 135.28 60.8943V64.6339C135.775 65.4809 136.582 65.9044 137.701 65.9044Z" fill="#282828"/>
<path d="M149.173 57.9219C149.445 57.0429 149.876 56.2998 150.467 55.6925C151.075 55.0852 151.882 54.7816 152.889 54.7816C153.911 54.7816 154.766 55.0932 155.453 55.7165C156.7 56.8192 157.323 58.4892 157.323 60.7265C157.323 62.4045 156.812 63.8029 155.789 64.9215C154.766 66.0402 153.472 66.5996 151.906 66.5996C150.771 66.5996 149.86 66.3838 149.173 65.9523V68.781C149.173 69.7398 149.181 70.435 149.197 70.8665C149.229 71.298 149.317 71.6655 149.461 71.9692C149.62 72.2888 149.82 72.4806 150.06 72.5445C150.316 72.6084 150.699 72.6404 151.211 72.6404L151.258 72.928H145.457L145.505 72.6404C146.432 72.6404 146.992 72.4326 147.183 72.0171C147.391 71.6176 147.495 70.5389 147.495 68.781V58.665C147.495 57.802 147.479 57.1867 147.447 56.8192C147.431 56.4516 147.343 56.132 147.183 55.8603C147.039 55.5886 146.848 55.4368 146.608 55.4049C146.384 55.3569 146.017 55.3329 145.505 55.3329L145.457 55.0692C146.592 54.8775 147.831 54.7816 149.173 54.7816V57.9219ZM151.594 65.9044C153.064 65.9044 154.095 65.353 154.686 64.2503C155.23 63.2435 155.501 62.0689 155.501 60.7265C155.501 59.528 155.326 58.4173 154.974 57.3945C154.766 56.8352 154.447 56.3877 154.015 56.0521C153.584 55.7005 153.064 55.5247 152.457 55.5247C151.866 55.5247 151.338 55.7405 150.875 56.1719C150.411 56.5874 150.068 57.1068 149.844 57.7301C149.397 58.9766 149.173 60.0314 149.173 60.8943V64.6339C149.668 65.4809 150.475 65.9044 151.594 65.9044Z" fill="#282828"/>
<path d="M167.093 54.6617C167.493 54.6617 167.844 54.7496 168.148 54.9254C168.452 55.1012 168.604 55.3409 168.604 55.6446C168.604 55.9482 168.508 56.1879 168.316 56.3637C168.124 56.5395 167.908 56.6274 167.669 56.6274C167.429 56.6274 167.125 56.5235 166.758 56.3158C166.406 56.108 166.031 56.0041 165.631 56.0041C165.008 56.0041 164.496 56.5795 164.097 57.7301C163.713 58.8807 163.522 60.2151 163.522 61.7333C163.522 63.7789 163.625 65.0174 163.833 65.4489C163.897 65.5927 164.017 65.7286 164.193 65.8564C164.369 65.9683 164.552 66.0322 164.744 66.0482C164.936 66.0642 165.208 66.0722 165.559 66.0722L165.607 66.3598H159.782L159.83 66.0722C160.341 66.0722 160.709 66.0482 160.933 66.0003C161.172 65.9363 161.372 65.7366 161.532 65.401C161.692 65.0654 161.78 64.6499 161.796 64.1545C161.828 63.6431 161.844 62.836 161.844 61.7333V60.343C161.844 58.1216 161.78 56.8591 161.652 56.5555C161.54 56.2518 161.436 56.0121 161.34 55.8363C161.244 55.6605 161.1 55.5407 160.909 55.4768C160.557 55.3809 160.094 55.3329 159.518 55.3329L159.47 55.0692C160.829 54.8775 162.179 54.7816 163.522 54.7816V58.3054C163.697 57.1708 164.089 56.2838 164.696 55.6446C165.319 54.9893 166.118 54.6617 167.093 54.6617Z" fill="#282828"/>
<path d="M169.811 60.7026C169.811 59.0245 170.29 57.6182 171.249 56.4836C172.208 55.3489 173.511 54.7816 175.157 54.7816C176.803 54.7816 178.129 55.3489 179.136 56.4836C180.143 57.6182 180.646 59.0245 180.646 60.7026C180.646 62.3806 180.159 63.7869 179.184 64.9215C178.225 66.0402 176.922 66.5996 175.276 66.5996C173.63 66.5996 172.304 66.0322 171.297 64.8976C170.306 63.7629 169.811 62.3646 169.811 60.7026ZM172.568 64.5859C173.207 65.6087 174.11 66.1201 175.276 66.1201C176.443 66.1201 177.322 65.6167 177.913 64.6099C178.521 63.6031 178.824 62.3086 178.824 60.7265C178.824 59.1284 178.505 57.818 177.865 56.7952C177.226 55.7724 176.323 55.261 175.157 55.261C174.006 55.261 173.127 55.7724 172.52 56.7952C171.928 57.802 171.633 59.0965 171.633 60.6786C171.633 62.2607 171.944 63.5632 172.568 64.5859Z" fill="#282828"/>
<path d="M191.966 58.617V61.0382C191.966 62.8121 192.022 63.9787 192.134 64.538C192.246 65.0814 192.517 65.353 192.949 65.353C193.221 65.353 193.58 65.2412 194.028 65.0174L194.147 65.2571C194.02 65.353 193.852 65.4729 193.644 65.6167C193.436 65.7446 193.013 65.9204 192.374 66.1441C191.734 66.3678 191.119 66.4797 190.528 66.4797C190.368 65.8085 190.288 64.7378 190.288 63.2675C189.936 64.2583 189.473 65.0654 188.898 65.6886C188.338 66.2959 187.555 66.5996 186.548 66.5996C185.542 66.5996 184.743 66.3359 184.151 65.8085C183.576 65.2651 183.288 64.53 183.288 63.6031C183.288 61.0302 185.622 59.7357 190.288 59.7197V58.8567C190.288 57.7061 190.12 56.8272 189.785 56.2199C189.449 55.6126 188.826 55.309 187.915 55.309C187.403 55.309 186.988 55.4368 186.668 55.6925C186.349 55.9482 186.133 56.2279 186.021 56.5315C185.749 57.3625 185.342 57.778 184.799 57.778C184.271 57.778 184.007 57.4824 184.007 56.8911C184.007 56.2838 184.407 55.7804 185.206 55.3809C186.005 54.9814 186.972 54.7816 188.107 54.7816C189.241 54.7816 190.168 55.1092 190.887 55.7644C191.606 56.4037 191.966 57.3545 191.966 58.617ZM185.11 63.699C185.11 64.3223 185.262 64.8416 185.566 65.2571C185.869 65.6567 186.349 65.8564 187.004 65.8564C187.675 65.8564 188.282 65.5368 188.826 64.8976C189.369 64.2424 189.737 63.5232 189.928 62.7401C190.136 61.9411 190.256 61.1181 190.288 60.2711C188.514 60.287 187.204 60.6147 186.357 61.2539C185.526 61.8931 185.11 62.7082 185.11 63.699Z" fill="#282828"/>
<path d="M201.323 66.5996C199.916 66.5996 198.71 66.0802 197.703 65.0414C196.696 64.0026 196.193 62.5963 196.193 60.8224C196.193 59.0325 196.648 57.5783 197.559 56.4596C198.486 55.3409 199.796 54.7816 201.49 54.7816C202.545 54.7816 203.464 54.9574 204.247 55.309C205.03 55.6446 205.422 56.116 205.422 56.7233C205.422 57.2666 205.126 57.5383 204.535 57.5383C204.231 57.5383 203.975 57.4185 203.768 57.1787C203.576 56.939 203.424 56.6833 203.312 56.4117C203.216 56.124 203.017 55.8603 202.713 55.6206C202.409 55.3809 202.01 55.261 201.514 55.261C200.364 55.261 199.493 55.7405 198.901 56.6993C198.31 57.6582 198.015 58.9766 198.015 60.6546C198.015 62.3166 198.366 63.6111 199.069 64.538C199.772 65.4489 200.643 65.9044 201.682 65.9044C203.264 65.9044 204.391 65.2651 205.062 63.9867L205.422 64.1784C204.607 65.7925 203.24 66.5996 201.323 66.5996Z" fill="#282828"/>
<path d="M211.204 48.7168V59.0725C211.347 57.9219 211.747 56.923 212.402 56.0761C213.057 55.2131 213.928 54.7816 215.015 54.7816C217.46 54.7816 218.683 56.0601 218.683 58.617V62.4045C218.683 64.0666 218.787 65.0973 218.994 65.4969C219.218 65.8804 219.793 66.0722 220.72 66.0722L220.768 66.3598H214.943L214.991 66.0722C215.95 66.0722 216.525 65.8724 216.717 65.4729C216.909 65.0734 217.005 63.9787 217.005 62.1888V58.8567C217.005 57.7541 216.829 56.923 216.477 56.3637C216.142 55.8044 215.598 55.5247 214.847 55.5247C214.112 55.5247 213.497 55.7804 213.001 56.2918C212.506 56.7872 212.138 57.4185 211.899 58.1855C211.435 59.6718 211.204 61.166 211.204 62.6682C211.204 64.1704 211.299 65.1133 211.491 65.4969C211.699 65.8804 212.274 66.0722 213.217 66.0722L213.265 66.3598H207.416L207.464 66.0722C208.423 66.0722 209.006 65.8804 209.214 65.4969C209.422 65.0973 209.526 64.0506 209.526 62.3566V54.3741C209.526 51.9769 209.414 50.5386 209.19 50.0592C209.094 49.8674 208.942 49.6996 208.734 49.5558C208.543 49.412 208.327 49.3241 208.087 49.2921C207.863 49.2602 207.552 49.2442 207.152 49.2442L207.104 48.9805C208.495 48.8047 209.861 48.7168 211.204 48.7168Z" fill="#282828"/>
<path d="M234.48 49.5798C237.229 49.5798 239.29 49.8195 240.665 50.2989C241.288 50.5227 241.951 50.8423 242.654 51.2578C243.357 51.6733 243.925 52.1687 244.356 52.744C244.804 53.3193 245.171 54.0545 245.459 54.9494C245.762 55.8443 245.914 56.8511 245.914 57.9698C245.914 59.0725 245.762 60.0713 245.459 60.9662C245.171 61.8452 244.804 62.5723 244.356 63.1477C243.925 63.723 243.381 64.2264 242.726 64.6579C242.087 65.0734 241.48 65.385 240.904 65.5927C240.329 65.8005 239.69 65.9683 238.987 66.0961C238.044 66.2719 237.077 66.3598 236.086 66.3598H229.638L229.686 66.0722C230.485 66.0722 231.068 65.9204 231.435 65.6167C231.835 65.2811 232.035 63.723 232.035 60.9423V54.9973C232.035 53.2874 231.979 52.1208 231.867 51.4975C231.771 50.8583 231.627 50.4587 231.435 50.2989C231.068 49.9953 230.485 49.8435 229.686 49.8435L229.638 49.5798H234.48ZM234.6 65.7845C234.792 65.8005 235.183 65.8085 235.774 65.8085C236.382 65.8085 237.037 65.7446 237.74 65.6167C238.459 65.4889 239.194 65.2492 239.945 64.8976C240.712 64.53 241.368 64.0666 241.911 63.5072C242.47 62.9479 242.926 62.1968 243.277 61.2539C243.645 60.295 243.829 59.2083 243.829 57.9938C243.829 56.7632 243.653 55.6765 243.301 54.7336C242.95 53.7908 242.494 53.0397 241.935 52.4803C241.376 51.905 240.72 51.4336 239.969 51.066C238.643 50.4427 237.181 50.1311 235.583 50.1311C234.863 50.1311 234.24 50.1791 233.713 50.2749V61.2299C233.713 62.9559 233.761 64.0985 233.857 64.6579C233.952 65.2172 234.2 65.5927 234.6 65.7845Z" fill="#282828"/>
<path d="M257.868 60.295H250.006V60.7026C250.006 62.3965 250.365 63.691 251.084 64.5859C251.803 65.4649 252.698 65.9044 253.769 65.9044C255.367 65.9044 256.518 65.2651 257.221 63.9867L257.581 64.1784C256.75 65.7925 255.359 66.5996 253.41 66.5996C251.971 66.5996 250.741 66.0802 249.718 65.0414C248.695 64.0026 248.184 62.6043 248.184 60.8464C248.184 59.0725 248.631 57.6182 249.526 56.4836C250.437 55.3489 251.644 54.7816 253.146 54.7816C254.664 54.7816 255.831 55.301 256.646 56.3397C257.461 57.3625 257.868 58.681 257.868 60.295ZM253.218 55.261C252.291 55.261 251.556 55.6605 251.012 56.4596C250.485 57.2427 250.165 58.2894 250.053 59.5999H256.022C255.911 56.7073 254.976 55.261 253.218 55.261Z" fill="#282828"/>
<path d="M261.276 62.7881C261.276 63.8268 261.555 64.6099 262.115 65.1373C262.674 65.6487 263.337 65.9044 264.104 65.9044C264.887 65.9044 265.518 65.7286 265.998 65.377C266.477 65.0254 266.717 64.554 266.717 63.9627C266.717 63.3554 266.509 62.86 266.094 62.4764C265.694 62.0929 265.207 61.7813 264.632 61.5416C264.056 61.3018 263.473 61.0541 262.882 60.7984C262.306 60.5427 261.811 60.1672 261.395 59.6718C260.996 59.1764 260.796 58.5132 260.796 57.6821C260.796 56.8511 261.164 56.1639 261.899 55.6206C262.65 55.0613 263.513 54.7816 264.488 54.7816C265.878 54.7816 266.965 55.0053 267.748 55.4528C267.748 56.1879 267.652 57.2107 267.46 58.5211L267.173 58.4492C267.173 57.3945 266.933 56.6274 266.453 56.148C265.974 55.6685 265.391 55.4288 264.703 55.4288C264.032 55.4288 263.489 55.6046 263.073 55.9562C262.674 56.3078 262.474 56.7872 262.474 57.3945C262.474 57.9858 262.674 58.4652 263.073 58.8328C263.489 59.1844 263.984 59.48 264.56 59.7197C265.135 59.9594 265.71 60.2151 266.286 60.4868C266.877 60.7425 267.372 61.1181 267.772 61.6135C268.187 62.0929 268.395 62.6842 268.395 63.3874C268.395 64.4102 267.996 65.2012 267.196 65.7605C266.397 66.3199 265.343 66.5996 264.032 66.5996C262.738 66.5996 261.643 66.256 260.748 65.5688C260.748 64.7697 260.828 63.8268 260.988 62.7401L261.276 62.7881Z" fill="#282828"/>
<path d="M272.833 51.905C272.561 51.6333 272.425 51.3137 272.425 50.9461C272.425 50.5786 272.561 50.259 272.833 49.9873C273.105 49.7156 273.424 49.5798 273.792 49.5798C274.159 49.5798 274.479 49.7156 274.751 49.9873C275.022 50.259 275.158 50.5786 275.158 50.9461C275.158 51.3137 275.022 51.6333 274.751 51.905C274.479 52.1767 274.159 52.3125 273.792 52.3125C273.424 52.3125 273.105 52.1767 272.833 51.905ZM274.703 54.7816V62.4045C274.703 64.0825 274.799 65.1133 274.99 65.4969C275.198 65.8804 275.773 66.0722 276.716 66.0722L276.764 66.3598H270.915L270.963 66.0722C271.922 66.0722 272.505 65.8804 272.713 65.4969C272.921 65.0973 273.025 64.0506 273.025 62.3566V60.6786C273.025 58.8248 272.969 57.6022 272.857 57.0109C272.761 56.4037 272.617 56.0121 272.425 55.8363C272.042 55.4848 271.451 55.309 270.652 55.309L270.604 55.0453C271.994 54.8695 273.36 54.7816 274.703 54.7816Z" fill="#282828"/>
<path d="M287.417 54.5179L287.273 53.2954C287.273 52.9917 287.361 52.752 287.537 52.5762C287.728 52.4004 287.944 52.3125 288.184 52.3125C288.424 52.3125 288.631 52.4004 288.807 52.5762C288.999 52.752 289.095 52.9917 289.095 53.2954C289.095 54.1903 288.432 55.1571 287.105 56.1959C287.808 56.979 288.16 57.9219 288.16 59.0245C288.16 60.1113 287.728 61.0701 286.865 61.9011C286.003 62.7321 284.948 63.1477 283.701 63.1477C282.822 63.1477 282.039 62.9399 281.352 62.5244C280.681 63.1317 280.345 63.7789 280.345 64.4661C280.345 64.9295 280.513 65.3051 280.849 65.5927C281.2 65.8644 281.728 66.0003 282.431 66.0003C283.15 66.0003 283.749 66.0083 284.229 66.0242C284.708 66.0402 285.275 66.0722 285.931 66.1201C286.586 66.1681 287.089 66.256 287.441 66.3838C287.808 66.5117 288.176 66.6795 288.544 66.8872C289.215 67.2708 289.55 67.934 289.55 68.8768C289.55 70.0275 288.951 71.0263 287.752 71.8733C286.57 72.7363 285.036 73.1677 283.15 73.1677C281.712 73.1677 280.545 72.8961 279.65 72.3527C278.755 71.8253 278.308 71.1222 278.308 70.2432C278.308 69.62 278.515 69.0207 278.931 68.4454C279.346 67.886 279.882 67.5025 280.537 67.2947C279.61 66.9272 279.147 66.208 279.147 65.1373C279.147 64.6259 279.314 64.1065 279.65 63.5791C279.986 63.0358 280.417 62.5963 280.945 62.2607C279.81 61.3977 279.243 60.327 279.243 59.0485C279.243 57.7541 279.674 56.7233 280.537 55.9562C281.4 55.1731 282.447 54.7816 283.677 54.7816C284.924 54.7816 285.971 55.1571 286.818 55.9083C287.217 55.5087 287.417 55.0453 287.417 54.5179ZM279.986 70.0035C279.986 70.8026 280.297 71.4418 280.921 71.9212C281.56 72.4007 282.431 72.6404 283.533 72.6404C284.652 72.6404 285.651 72.3287 286.53 71.7055C287.425 71.0822 287.872 70.3391 287.872 69.4761C287.872 68.6291 287.425 68.0778 286.53 67.8221C285.651 67.5664 283.885 67.4386 281.232 67.4386C280.929 67.6143 280.641 67.942 280.369 68.4214C280.114 68.9168 279.986 69.4442 279.986 70.0035ZM281.688 61.5176C282.151 62.1888 282.822 62.5244 283.701 62.5244C284.58 62.5244 285.251 62.1888 285.715 61.5176C286.178 60.8304 286.41 59.9594 286.41 58.9047C286.41 57.834 286.178 56.979 285.715 56.3397C285.251 55.7005 284.58 55.3809 283.701 55.3809C282.822 55.3809 282.151 55.7005 281.688 56.3397C281.224 56.979 280.992 57.834 280.992 58.9047C280.992 59.9594 281.224 60.8304 281.688 61.5176Z" fill="#282828"/>
<path d="M295.209 54.7816V59.0725C295.353 57.9219 295.752 56.923 296.407 56.0761C297.063 55.2131 297.933 54.7816 299.02 54.7816C301.465 54.7816 302.688 56.0601 302.688 58.617V62.4045C302.688 64.0666 302.792 65.0973 302.999 65.4969C303.223 65.8804 303.798 66.0722 304.725 66.0722L304.773 66.3598H298.948L298.996 66.0722C299.955 66.0722 300.53 65.8724 300.722 65.4729C300.914 65.0734 301.01 63.9787 301.01 62.1888V58.8567C301.01 57.7541 300.834 56.923 300.482 56.3637C300.147 55.8044 299.603 55.5247 298.852 55.5247C298.117 55.5247 297.502 55.7804 297.007 56.2918C296.511 56.7872 296.144 57.4185 295.904 58.1855C295.44 59.6718 295.209 61.166 295.209 62.6682C295.209 64.1704 295.305 65.1133 295.496 65.4969C295.704 65.8804 296.279 66.0722 297.222 66.0722L297.27 66.3598H291.421L291.469 66.0722C292.428 66.0722 293.011 65.8804 293.219 65.4969C293.427 65.0973 293.531 64.0506 293.531 62.3566V60.4389C293.531 58.0417 293.411 56.5954 293.171 56.1C293.091 55.9242 292.947 55.7644 292.74 55.6206C292.548 55.4768 292.332 55.3889 292.092 55.3569C291.869 55.3249 291.557 55.309 291.158 55.309L291.11 55.0453C292.5 54.8695 293.866 54.7816 295.209 54.7816Z" fill="#282828"/>
<defs>
<filter id="filter0_f" x="0.164429" y="106.688" width="133.204" height="31.5948" filterUnits="userSpaceOnUse" color-interpolation-filters="sRGB">
<feFlood flood-opacity="0" result="BackgroundImageFix"/>
<feBlend mode="normal" in="SourceGraphic" in2="BackgroundImageFix" result="shape"/>
<feGaussianBlur stdDeviation="5" result="effect1_foregroundBlur"/>
</filter>
<filter id="filter1_f" x="25.08" y="113.39" width="86.1753" height="12.9502" filterUnits="userSpaceOnUse" color-interpolation-filters="sRGB">
<feFlood flood-opacity="0" result="BackgroundImageFix"/>
<feBlend mode="normal" in="SourceGraphic" in2="BackgroundImageFix" result="shape"/>
<feGaussianBlur stdDeviation="2" result="effect1_foregroundBlur"/>
</filter>
<linearGradient id="paint0_linear" x1="66.7665" y1="116.688" x2="66.7665" y2="128.282" gradientUnits="userSpaceOnUse">
<stop stop-color="#B4B4B4"/>
<stop offset="1" stop-color="#F2F1EE"/>
</linearGradient>
<clipPath id="clip0">
<rect width="107.992" height="114.326" fill="white" transform="translate(10.1644 0.30957)"/>
</clipPath>
</defs>
</svg>
