<svg viewBox="0 0 316 139" fill="none" xmlns="http://www.w3.org/2000/svg">
<path d="M36.8565 51.1177C36.8565 51.4852 36.9444 51.9405 37.1201 52.4837C37.2958 53.0269 37.4077 53.3864 37.4556 53.5622C37.6314 54.0894 37.8151 54.6406 38.0068 55.2158L41.338 65.3053L44.4775 55.4794C43.5988 52.9231 42.9837 51.4212 42.6322 50.9739C42.4884 50.8141 42.2887 50.6623 42.033 50.5185C41.7934 50.3588 41.5617 50.2709 41.338 50.2549C41.1144 50.223 40.8028 50.207 40.4034 50.207L40.3555 49.9194H46.8022L46.7543 50.207C46.1312 50.207 45.6998 50.2709 45.4601 50.3987C45.2205 50.5106 45.1006 50.8061 45.1006 51.2854C45.1006 51.7488 45.4681 53.0589 46.2031 55.2158L49.5822 65.3053L52.7457 55.2158C53.3688 53.2027 53.6803 51.8366 53.6803 51.1177C53.6803 50.7502 53.5285 50.5106 53.225 50.3987C52.9374 50.2709 52.482 50.207 51.8589 50.207L51.811 49.9194H57.6346L57.6107 50.207C56.8118 50.207 56.2207 50.3108 55.8372 50.5185C55.4538 50.7103 55.0863 51.1416 54.7348 51.8127C54.3833 52.4837 53.9519 53.6181 53.4407 55.2158L49.7739 66.8151H48.2401L44.7651 56.462L41.5537 66.8151H40.0439L36.1615 55.2158C35.7301 53.9217 35.4026 52.995 35.1789 52.4358C34.9712 51.8606 34.7076 51.3813 34.388 50.9979C34.0845 50.5984 33.7889 50.3668 33.5013 50.3029C33.2137 50.2389 32.7743 50.207 32.1832 50.207L32.1353 49.9194H38.582L38.5341 50.207C37.911 50.207 37.4716 50.2629 37.216 50.3747C36.9763 50.4866 36.8565 50.7342 36.8565 51.1177Z" fill="#282828"/>
<path d="M63.1185 49.0566V59.4098C63.2623 58.2594 63.6617 57.2609 64.3167 56.4141C64.9718 55.5513 65.8425 55.1199 66.929 55.1199C69.3735 55.1199 70.5957 56.3981 70.5957 58.9544V62.741C70.5957 64.4026 70.6996 65.4331 70.9073 65.8326C71.131 66.216 71.7061 66.4077 72.6328 66.4077L72.6807 66.6953H66.8571L66.905 66.4077C67.8636 66.4077 68.4388 66.208 68.6305 65.8086C68.8223 65.4092 68.9181 64.3147 68.9181 62.5253V59.1941C68.9181 58.0917 68.7424 57.2609 68.3909 56.7017C68.0554 56.1425 67.5122 55.8629 66.7612 55.8629C66.0263 55.8629 65.4112 56.1185 64.9159 56.6298C64.4206 57.1251 64.0531 57.7562 63.8135 58.5231C63.3501 60.0089 63.1185 61.5028 63.1185 63.0046C63.1185 64.5065 63.2143 65.4491 63.406 65.8326C63.6137 66.216 64.1889 66.4077 65.1316 66.4077L65.1795 66.6953H59.3319L59.3798 66.4077C60.3384 66.4077 60.9216 66.216 61.1293 65.8326C61.337 65.4331 61.4409 64.3866 61.4409 62.6931V54.7125C61.4409 52.316 61.329 50.878 61.1053 50.3987C61.0095 50.207 60.8577 50.0392 60.65 49.8954C60.4583 49.7516 60.2426 49.6638 60.0029 49.6318C59.7793 49.5999 59.4677 49.5839 59.0683 49.5839L59.0203 49.3203C60.4103 49.1445 61.7764 49.0566 63.1185 49.0566Z" fill="#282828"/>
<path d="M84.5197 60.632H76.659V61.0394C76.659 62.733 77.0185 64.0271 77.7375 64.9219C78.4564 65.8006 79.3512 66.24 80.4216 66.24C82.0193 66.24 83.1697 65.6009 83.8727 64.3227L84.2321 64.5144C83.4013 66.1281 82.0113 66.935 80.0621 66.935C78.6242 66.935 77.394 66.4157 76.3714 65.3772C75.3489 64.3387 74.8376 62.9407 74.8376 61.1832C74.8376 59.4098 75.285 57.9559 76.1797 56.8215C77.0904 55.6871 78.2967 55.1199 79.7985 55.1199C81.3163 55.1199 82.4827 55.6392 83.2975 56.6777C84.1123 57.7002 84.5197 59.0183 84.5197 60.632ZM79.8704 55.5992C78.9437 55.5992 78.2088 55.9987 77.6656 56.7975C77.1383 57.5804 76.8188 58.6269 76.7069 59.937H82.6744C82.5625 57.0452 81.6279 55.5992 79.8704 55.5992Z" fill="#282828"/>
<path d="M91.0178 55.1199V59.4098C91.1616 58.2594 91.561 57.2609 92.2161 56.4141C92.8711 55.5513 93.7419 55.1199 94.8283 55.1199C97.2728 55.1199 98.495 56.3981 98.495 58.9544V62.741C98.495 64.4026 98.5989 65.4331 98.8066 65.8326C99.0303 66.216 99.6054 66.4077 100.532 66.4077L100.58 66.6953H94.7564L94.8043 66.4077C95.763 66.4077 96.3381 66.208 96.5299 65.8086C96.7216 65.4092 96.8175 64.3147 96.8175 62.5253V59.1941C96.8175 58.0917 96.6417 57.2609 96.2902 56.7017C95.9547 56.1425 95.4115 55.8629 94.6605 55.8629C93.9256 55.8629 93.3105 56.1185 92.8152 56.6298C92.3199 57.1251 91.9524 57.7562 91.7128 58.5231C91.2494 60.0089 91.0178 61.5028 91.0178 63.0046C91.0178 64.5065 91.1136 65.4491 91.3054 65.8326C91.5131 66.216 92.0882 66.4077 93.0309 66.4077L93.0788 66.6953H87.2312L87.2791 66.4077C88.2378 66.4077 88.8209 66.216 89.0286 65.8326C89.2363 65.4331 89.3402 64.3866 89.3402 62.6931V60.7758C89.3402 58.3793 89.2204 56.9333 88.9807 56.438C88.9008 56.2623 88.757 56.1025 88.5493 55.9587C88.3576 55.8149 88.1419 55.7271 87.9022 55.6951C87.6786 55.6632 87.367 55.6472 86.9676 55.6472L86.9197 55.3836C88.3097 55.2078 89.6757 55.1199 91.0178 55.1199Z" fill="#282828"/>
<path d="M113.519 55.3356V61.2791C113.519 62.9886 113.567 64.155 113.662 64.7781C113.774 65.4012 113.926 65.7926 114.118 65.9524C114.485 66.2559 115.068 66.4077 115.867 66.4077L115.915 66.6953H109.445L109.492 66.4077C109.892 66.4077 110.203 66.3918 110.427 66.3598C110.651 66.3278 110.858 66.24 111.05 66.0962C111.258 65.9524 111.402 65.7926 111.482 65.6169C111.577 65.4251 111.657 65.1136 111.721 64.6822C111.801 64.123 111.841 62.9886 111.841 61.2791V55.3356C111.841 53.674 111.793 52.5157 111.697 51.8606C111.601 51.2056 111.458 50.7981 111.266 50.6384C110.882 50.3348 110.291 50.183 109.492 50.183L109.445 49.9194H115.915L115.867 50.183C115.068 50.183 114.485 50.3348 114.118 50.6384C113.718 50.9739 113.519 52.5396 113.519 55.3356Z" fill="#282828"/>
<path d="M120.495 52.4598C120.495 52.1562 120.312 51.9565 119.944 51.8606C119.177 51.6849 118.794 51.2535 118.794 50.5665C118.794 50.199 118.914 49.8954 119.153 49.6558C119.409 49.4161 119.729 49.2963 120.112 49.2963C120.511 49.2963 120.855 49.4641 121.143 49.7996C121.446 50.1191 121.598 50.6224 121.598 51.3094C121.598 51.9804 121.398 52.6515 120.999 53.3225C120.615 53.9936 120.056 54.5687 119.321 55.048L118.962 54.5927C119.984 53.9217 120.495 53.2107 120.495 52.4598Z" fill="#282828"/>
<path d="M134.501 59.4098C134.644 58.2594 135.012 57.2609 135.603 56.4141C136.21 55.5513 137.049 55.1199 138.119 55.1199C139.19 55.1199 140.021 55.4475 140.612 56.1025C141.203 56.7576 141.498 57.7082 141.498 58.9544V62.741C141.498 64.4026 141.602 65.4331 141.81 65.8326C142.034 66.216 142.609 66.4077 143.536 66.4077L143.583 66.6953H137.928L137.976 66.4077C138.854 66.4077 139.382 66.208 139.557 65.8086C139.733 65.4092 139.821 64.3147 139.821 62.5253V59.1941C139.821 58.0917 139.661 57.2609 139.342 56.7017C139.038 56.1425 138.543 55.8629 137.856 55.8629C137.169 55.8629 136.602 56.1185 136.154 56.6298C135.707 57.1251 135.371 57.7562 135.148 58.5231C134.716 60.0089 134.501 61.5028 134.501 63.0046C134.501 64.5065 134.596 65.4491 134.788 65.8326C134.996 66.216 135.571 66.4077 136.514 66.4077L136.562 66.6953H130.93L130.978 66.4077C131.856 66.4077 132.384 66.208 132.559 65.8086C132.735 65.4092 132.823 64.3147 132.823 62.5253V59.1941C132.823 58.0917 132.663 57.2609 132.344 56.7017C132.04 56.1425 131.545 55.8629 130.858 55.8629C130.171 55.8629 129.604 56.1185 129.156 56.6298C128.709 57.1251 128.373 57.7562 128.15 58.5231C127.718 60.0089 127.503 61.5028 127.503 63.0046C127.503 64.5065 127.598 65.4491 127.79 65.8326C127.998 66.216 128.573 66.4077 129.516 66.4077L129.564 66.6953H123.716L123.764 66.4077C124.723 66.4077 125.306 66.216 125.513 65.8326C125.721 65.4331 125.825 64.3866 125.825 62.6931V60.7758C125.825 58.3793 125.705 56.9333 125.466 56.438C125.386 56.2623 125.242 56.1025 125.034 55.9587C124.842 55.8149 124.627 55.7271 124.387 55.6951C124.163 55.6632 123.852 55.6472 123.452 55.6472L123.404 55.3836C124.794 55.2078 126.161 55.1199 127.503 55.1199V59.4098C127.646 58.2594 128.014 57.2609 128.605 56.4141C129.212 55.5513 130.051 55.1199 131.121 55.1199C133.374 55.1199 134.501 56.5499 134.501 59.4098Z" fill="#282828"/>
<path d="M156.078 55.1199V59.4098C156.222 58.2594 156.621 57.2609 157.276 56.4141C157.931 55.5513 158.802 55.1199 159.888 55.1199C162.333 55.1199 163.555 56.3981 163.555 58.9544V62.741C163.555 64.4026 163.659 65.4331 163.867 65.8326C164.09 66.216 164.665 66.4077 165.592 66.4077L165.64 66.6953H159.816L159.864 66.4077C160.823 66.4077 161.398 66.208 161.59 65.8086C161.782 65.4092 161.877 64.3147 161.877 62.5253V59.1941C161.877 58.0917 161.702 57.2609 161.35 56.7017C161.015 56.1425 160.471 55.8629 159.721 55.8629C158.986 55.8629 158.371 56.1185 157.875 56.6298C157.38 57.1251 157.012 57.7562 156.773 58.5231C156.309 60.0089 156.078 61.5028 156.078 63.0046C156.078 64.5065 156.174 65.4491 156.365 65.8326C156.573 66.216 157.148 66.4077 158.091 66.4077L158.139 66.6953H152.291L152.339 66.4077C153.298 66.4077 153.881 66.216 154.089 65.8326C154.296 65.4331 154.4 64.3866 154.4 62.6931V60.7758C154.4 58.3793 154.28 56.9333 154.041 56.438C153.961 56.2623 153.817 56.1025 153.609 55.9587C153.418 55.8149 153.202 55.7271 152.962 55.6951C152.739 55.6632 152.427 55.6472 152.028 55.6472L151.98 55.3836C153.37 55.2078 154.736 55.1199 156.078 55.1199Z" fill="#282828"/>
<path d="M167.794 61.0394C167.794 59.3618 168.273 57.9559 169.232 56.8215C170.191 55.6871 171.493 55.1199 173.139 55.1199C174.784 55.1199 176.11 55.6871 177.117 56.8215C178.123 57.9559 178.627 59.3618 178.627 61.0394C178.627 62.717 178.139 64.123 177.165 65.2574C176.206 66.3758 174.904 66.935 173.258 66.935C171.613 66.935 170.287 66.3678 169.28 65.2334C168.289 64.099 167.794 62.7011 167.794 61.0394ZM170.55 64.9219C171.189 65.9444 172.092 66.4557 173.258 66.4557C174.425 66.4557 175.303 65.9524 175.895 64.9458C176.502 63.9393 176.805 62.6451 176.805 61.0634C176.805 59.4657 176.486 58.1556 175.847 57.133C175.208 56.1105 174.305 55.5992 173.139 55.5992C171.988 55.5992 171.109 56.1105 170.502 57.133C169.911 58.1396 169.616 59.4337 169.616 61.0155C169.616 62.5972 169.927 63.8993 170.55 64.9219Z" fill="#282828"/>
<path d="M184.288 55.3596H187.236V55.8868H184.288V65.0177C184.288 65.3532 184.368 65.6249 184.528 65.8326C184.687 66.0243 184.895 66.1201 185.151 66.1201C185.726 66.1201 186.405 65.9524 187.188 65.6169L187.236 65.8805C186.117 66.5835 185.127 66.935 184.264 66.935C183.705 66.935 183.289 66.7992 183.018 66.5276C182.746 66.2559 182.61 65.7846 182.61 65.1136V55.8868H181.172V55.3596C182.035 55.3596 182.634 55.1199 182.97 54.6406C183.321 54.1453 183.585 53.4184 183.761 52.4598L184.288 52.4118V55.3596Z" fill="#282828"/>
<path d="M203.732 64.0351C203.476 64.8659 203.037 65.5609 202.414 66.1201C201.807 66.6634 201.056 66.935 200.161 66.935C199.282 66.935 198.548 66.7592 197.956 66.4077C197.365 66.0562 196.91 65.5929 196.59 65.0177C195.951 63.9153 195.632 62.5732 195.632 60.9915C195.632 59.4098 196.175 58.0357 197.261 56.8694C198.348 55.7031 199.802 55.1199 201.623 55.1199C202.422 55.1199 203.149 55.2158 203.804 55.4075V53.1308C203.804 51.9325 203.764 51.1257 203.684 50.7103C203.604 50.2789 203.476 50.0153 203.301 49.9194C202.981 49.7277 202.478 49.6318 201.791 49.6318L201.743 49.3682C202.893 49.1765 204.14 49.0806 205.482 49.0806V61.375C205.482 63.1484 205.538 64.3147 205.649 64.8739C205.761 65.4172 206.033 65.6888 206.464 65.6888C206.736 65.6888 207.095 65.5769 207.543 65.3532L207.662 65.5929C207.535 65.6888 207.367 65.8086 207.159 65.9524C206.951 66.0802 206.528 66.2559 205.889 66.4796C205.25 66.7033 204.635 66.8151 204.044 66.8151C203.836 65.9524 203.732 65.0257 203.732 64.0351ZM198.028 64.4426C198.22 64.9698 198.516 65.3932 198.915 65.7127C199.33 66.0323 199.826 66.192 200.401 66.192C200.992 66.192 201.519 65.9923 201.983 65.5929C202.462 65.1935 202.821 64.6822 203.061 64.0591C203.556 62.8608 203.804 61.6226 203.804 60.3444V56.6777C203.117 56.1345 202.366 55.8629 201.551 55.8629C200.736 55.8629 200.057 56.0386 199.514 56.3901C198.971 56.7416 198.556 57.2049 198.268 57.7801C197.725 58.8506 197.453 59.9929 197.453 61.2072C197.453 62.3735 197.645 63.452 198.028 64.4426Z" fill="#282828"/>
<path d="M219.25 60.632H211.39V61.0394C211.39 62.733 211.749 64.0271 212.468 64.9219C213.187 65.8006 214.082 66.24 215.152 66.24C216.75 66.24 217.9 65.6009 218.603 64.3227L218.963 64.5144C218.132 66.1281 216.742 66.935 214.793 66.935C213.355 66.935 212.125 66.4157 211.102 65.3772C210.08 64.3387 209.568 62.9407 209.568 61.1832C209.568 59.4098 210.016 57.9559 210.91 56.8215C211.821 55.6871 213.027 55.1199 214.529 55.1199C216.047 55.1199 217.213 55.6392 218.028 56.6777C218.843 57.7002 219.25 59.0183 219.25 60.632ZM214.601 55.5992C213.674 55.5992 212.939 55.9987 212.396 56.7975C211.869 57.5804 211.549 58.6269 211.438 59.937H217.405C217.293 57.0452 216.359 55.5992 214.601 55.5992Z" fill="#282828"/>
<path d="M222.657 63.1244C222.657 64.163 222.936 64.9458 223.496 65.4731C224.055 65.9843 224.718 66.24 225.485 66.24C226.268 66.24 226.899 66.0642 227.378 65.7127C227.857 65.3612 228.097 64.8899 228.097 64.2988C228.097 63.6916 227.889 63.1963 227.474 62.8129C227.075 62.4294 226.587 62.1179 226.012 61.8782C225.437 61.6386 224.854 61.3909 224.263 61.1353C223.687 60.8797 223.192 60.5042 222.777 60.0089C222.377 59.5136 222.178 58.8506 222.178 58.0198C222.178 57.189 222.545 56.502 223.28 55.9587C224.031 55.3995 224.894 55.1199 225.868 55.1199C227.258 55.1199 228.345 55.3436 229.128 55.791C229.128 56.5259 229.032 57.5484 228.84 58.8586L228.552 58.7867C228.552 57.7322 228.313 56.9653 227.833 56.486C227.354 56.0067 226.771 55.767 226.084 55.767C225.413 55.767 224.87 55.9428 224.454 56.2942C224.055 56.6457 223.855 57.1251 223.855 57.7322C223.855 58.3233 224.055 58.8026 224.454 59.1701C224.87 59.5216 225.365 59.8172 225.94 60.0568C226.515 60.2965 227.091 60.5521 227.666 60.8237C228.257 61.0794 228.752 61.4548 229.152 61.9501C229.567 62.4294 229.775 63.0206 229.775 63.7236C229.775 64.7461 229.375 65.537 228.576 66.0962C227.778 66.6554 226.723 66.935 225.413 66.935C224.119 66.935 223.024 66.5915 222.13 65.9045C222.13 65.1056 222.209 64.163 222.369 63.0765L222.657 63.1244Z" fill="#282828"/>
<path d="M234.211 52.2441C233.94 51.9725 233.804 51.6529 233.804 51.2854C233.804 50.918 233.94 50.5984 234.211 50.3268C234.483 50.0552 234.803 49.9194 235.17 49.9194C235.538 49.9194 235.857 50.0552 236.129 50.3268C236.4 50.5984 236.536 50.918 236.536 51.2854C236.536 51.6529 236.4 51.9725 236.129 52.2441C235.857 52.5157 235.538 52.6515 235.17 52.6515C234.803 52.6515 234.483 52.5157 234.211 52.2441ZM236.081 55.1199V62.741C236.081 64.4186 236.177 65.4491 236.368 65.8326C236.576 66.216 237.151 66.4077 238.094 66.4077L238.142 66.6953H232.294L232.342 66.4077C233.301 66.4077 233.884 66.216 234.092 65.8326C234.299 65.4331 234.403 64.3866 234.403 62.6931V61.0155C234.403 59.1621 234.347 57.9399 234.235 57.3487C234.14 56.7416 233.996 56.3502 233.804 56.1744C233.421 55.8229 232.829 55.6472 232.031 55.6472L231.983 55.3836C233.373 55.2078 234.739 55.1199 236.081 55.1199Z" fill="#282828"/>
<path d="M248.792 54.8563L248.648 53.6341C248.648 53.3305 248.736 53.0908 248.912 52.9151C249.103 52.7394 249.319 52.6515 249.559 52.6515C249.798 52.6515 250.006 52.7394 250.182 52.9151C250.373 53.0908 250.469 53.3305 250.469 53.6341C250.469 54.5288 249.806 55.4954 248.48 56.5339C249.183 57.3168 249.535 58.2594 249.535 59.3618C249.535 60.4483 249.103 61.4069 248.24 62.2377C247.378 63.0685 246.323 63.4839 245.077 63.4839C244.198 63.4839 243.415 63.2762 242.728 62.8608C242.057 63.4679 241.722 64.115 241.722 64.802C241.722 65.2654 241.89 65.6408 242.225 65.9284C242.577 66.2 243.104 66.3358 243.807 66.3358C244.526 66.3358 245.125 66.3438 245.604 66.3598C246.084 66.3758 246.651 66.4077 247.306 66.4557C247.961 66.5036 248.464 66.5915 248.816 66.7193C249.183 66.8471 249.551 67.0149 249.918 67.2226C250.589 67.606 250.925 68.2691 250.925 69.2117C250.925 70.3621 250.326 71.3606 249.127 72.2074C247.945 73.0702 246.411 73.5015 244.526 73.5015C243.088 73.5015 241.922 73.2299 241.027 72.6867C240.132 72.1595 239.685 71.4565 239.685 70.5777C239.685 69.9546 239.892 69.3555 240.308 68.7803C240.723 68.2211 241.259 67.8377 241.914 67.63C240.987 67.2625 240.524 66.5435 240.524 65.4731C240.524 64.9618 240.691 64.4426 241.027 63.9153C241.362 63.3721 241.794 62.9327 242.321 62.5972C241.187 61.7344 240.619 60.664 240.619 59.3858C240.619 58.0917 241.051 57.0611 241.914 56.2942C242.776 55.5114 243.823 55.1199 245.053 55.1199C246.299 55.1199 247.346 55.4954 248.193 56.2463C248.592 55.8469 248.792 55.3836 248.792 54.8563ZM241.362 70.3381C241.362 71.1369 241.674 71.776 242.297 72.2553C242.936 72.7346 243.807 72.9743 244.909 72.9743C246.028 72.9743 247.026 72.6627 247.905 72.0396C248.8 71.4165 249.247 70.6736 249.247 69.8108C249.247 68.9641 248.8 68.4129 247.905 68.1572C247.026 67.9016 245.261 67.7738 242.609 67.7738C242.305 67.9495 242.017 68.277 241.746 68.7564C241.49 69.2516 241.362 69.7789 241.362 70.3381ZM243.064 61.8543C243.527 62.5253 244.198 62.8608 245.077 62.8608C245.956 62.8608 246.627 62.5253 247.09 61.8543C247.553 61.1673 247.785 60.2965 247.785 59.242C247.785 58.1716 247.553 57.3168 247.09 56.6777C246.627 56.0386 245.956 55.7191 245.077 55.7191C244.198 55.7191 243.527 56.0386 243.064 56.6777C242.601 57.3168 242.369 58.1716 242.369 59.242C242.369 60.2965 242.601 61.1673 243.064 61.8543Z" fill="#282828"/>
<path d="M256.582 55.1199V59.4098C256.725 58.2594 257.125 57.2609 257.78 56.4141C258.435 55.5513 259.306 55.1199 260.392 55.1199C262.837 55.1199 264.059 56.3981 264.059 58.9544V62.741C264.059 64.4026 264.163 65.4331 264.37 65.8326C264.594 66.216 265.169 66.4077 266.096 66.4077L266.144 66.6953H260.32L260.368 66.4077C261.327 66.4077 261.902 66.208 262.094 65.8086C262.285 65.4092 262.381 64.3147 262.381 62.5253V59.1941C262.381 58.0917 262.206 57.2609 261.854 56.7017C261.519 56.1425 260.975 55.8629 260.224 55.8629C259.489 55.8629 258.874 56.1185 258.379 56.6298C257.884 57.1251 257.516 57.7562 257.277 58.5231C256.813 60.0089 256.582 61.5028 256.582 63.0046C256.582 64.5065 256.678 65.4491 256.869 65.8326C257.077 66.216 257.652 66.4077 258.595 66.4077L258.643 66.6953H252.795L252.843 66.4077C253.802 66.4077 254.385 66.216 254.593 65.8326C254.8 65.4331 254.904 64.3866 254.904 62.6931V60.7758C254.904 58.3793 254.784 56.9333 254.545 56.438C254.465 56.2623 254.321 56.1025 254.113 55.9587C253.921 55.8149 253.706 55.7271 253.466 55.6951C253.242 55.6632 252.931 55.6472 252.531 55.6472L252.484 55.3836C253.874 55.2078 255.24 55.1199 256.582 55.1199Z" fill="#282828"/>
<path d="M270.287 52.2441C270.016 51.9725 269.88 51.6529 269.88 51.2854C269.88 50.918 270.016 50.5984 270.287 50.3268C270.559 50.0552 270.878 49.9194 271.246 49.9194C271.613 49.9194 271.933 50.0552 272.204 50.3268C272.476 50.5984 272.612 50.918 272.612 51.2854C272.612 51.6529 272.476 51.9725 272.204 52.2441C271.933 52.5157 271.613 52.6515 271.246 52.6515C270.878 52.6515 270.559 52.5157 270.287 52.2441ZM272.156 55.1199V62.741C272.156 64.4186 272.252 65.4491 272.444 65.8326C272.652 66.216 273.227 66.4077 274.17 66.4077L274.218 66.6953H268.37L268.418 66.4077C269.376 66.4077 269.96 66.216 270.167 65.8326C270.375 65.4331 270.479 64.3866 270.479 62.6931V61.0155C270.479 59.1621 270.423 57.9399 270.311 57.3487C270.215 56.7416 270.071 56.3502 269.88 56.1744C269.496 55.8229 268.905 55.6472 268.106 55.6472L268.058 55.3836C269.448 55.2078 270.814 55.1199 272.156 55.1199Z" fill="#282828"/>
<path d="M280.242 55.1199V59.4098C280.386 58.2594 280.785 57.2609 281.44 56.4141C282.095 55.5513 282.966 55.1199 284.053 55.1199C286.497 55.1199 287.719 56.3981 287.719 58.9544V62.741C287.719 64.4026 287.823 65.4331 288.031 65.8326C288.255 66.216 288.83 66.4077 289.756 66.4077L289.804 66.6953H283.981L284.029 66.4077C284.987 66.4077 285.562 66.208 285.754 65.8086C285.946 65.4092 286.042 64.3147 286.042 62.5253V59.1941C286.042 58.0917 285.866 57.2609 285.514 56.7017C285.179 56.1425 284.636 55.8629 283.885 55.8629C283.15 55.8629 282.535 56.1185 282.039 56.6298C281.544 57.1251 281.177 57.7562 280.937 58.5231C280.474 60.0089 280.242 61.5028 280.242 63.0046C280.242 64.5065 280.338 65.4491 280.53 65.8326C280.737 66.216 281.313 66.4077 282.255 66.4077L282.303 66.6953H276.455L276.503 66.4077C277.462 66.4077 278.045 66.216 278.253 65.8326C278.461 65.4331 278.564 64.3866 278.564 62.6931V60.7758C278.564 58.3793 278.445 56.9333 278.205 56.438C278.125 56.2623 277.981 56.1025 277.774 55.9587C277.582 55.8149 277.366 55.7271 277.127 55.6951C276.903 55.6632 276.591 55.6472 276.192 55.6472L276.144 55.3836C277.534 55.2078 278.9 55.1199 280.242 55.1199Z" fill="#282828"/>
<path d="M300.442 54.8563L300.298 53.6341C300.298 53.3305 300.386 53.0908 300.562 52.9151C300.754 52.7394 300.969 52.6515 301.209 52.6515C301.449 52.6515 301.656 52.7394 301.832 52.9151C302.024 53.0908 302.12 53.3305 302.12 53.6341C302.12 54.5288 301.457 55.4954 300.131 56.5339C300.834 57.3168 301.185 58.2594 301.185 59.3618C301.185 60.4483 300.754 61.4069 299.891 62.2377C299.028 63.0685 297.974 63.4839 296.728 63.4839C295.849 63.4839 295.066 63.2762 294.379 62.8608C293.708 63.4679 293.372 64.115 293.372 64.802C293.372 65.2654 293.54 65.6408 293.876 65.9284C294.227 66.2 294.754 66.3358 295.457 66.3358C296.176 66.3358 296.775 66.3438 297.255 66.3598C297.734 66.3758 298.301 66.4077 298.956 66.4557C299.611 66.5036 300.115 66.5915 300.466 66.7193C300.834 66.8471 301.201 67.0149 301.569 67.2226C302.24 67.606 302.575 68.2691 302.575 69.2117C302.575 70.3621 301.976 71.3606 300.778 72.2074C299.595 73.0702 298.062 73.5015 296.176 73.5015C294.738 73.5015 293.572 73.2299 292.677 72.6867C291.783 72.1595 291.335 71.4565 291.335 70.5777C291.335 69.9546 291.543 69.3555 291.958 68.7803C292.374 68.2211 292.909 67.8377 293.564 67.63C292.637 67.2625 292.174 66.5435 292.174 65.4731C292.174 64.9618 292.342 64.4426 292.677 63.9153C293.013 63.3721 293.444 62.9327 293.972 62.5972C292.837 61.7344 292.27 60.664 292.27 59.3858C292.27 58.0917 292.701 57.0611 293.564 56.2942C294.427 55.5114 295.473 55.1199 296.704 55.1199C297.95 55.1199 298.996 55.4954 299.843 56.2463C300.243 55.8469 300.442 55.3836 300.442 54.8563ZM293.013 70.3381C293.013 71.1369 293.324 71.776 293.948 72.2553C294.587 72.7346 295.457 72.9743 296.56 72.9743C297.678 72.9743 298.677 72.6627 299.556 72.0396C300.45 71.4165 300.898 70.6736 300.898 69.8108C300.898 68.9641 300.45 68.4129 299.556 68.1572C298.677 67.9016 296.911 67.7738 294.259 67.7738C293.956 67.9495 293.668 68.277 293.396 68.7564C293.141 69.2516 293.013 69.7789 293.013 70.3381ZM294.714 61.8543C295.178 62.5253 295.849 62.8608 296.728 62.8608C297.606 62.8608 298.277 62.5253 298.741 61.8543C299.204 61.1673 299.436 60.2965 299.436 59.242C299.436 58.1716 299.204 57.3168 298.741 56.6777C298.277 56.0386 297.606 55.7191 296.728 55.7191C295.849 55.7191 295.178 56.0386 294.714 56.6777C294.251 57.3168 294.019 58.1716 294.019 59.242C294.019 60.2965 294.251 61.1673 294.714 61.8543Z" fill="#282828"/>
<path d="M304.23 65.6888C304.23 65.3213 304.35 65.0177 304.589 64.7781C304.845 64.5224 305.149 64.3946 305.5 64.3946C305.852 64.3946 306.147 64.5224 306.387 64.7781C306.626 65.0177 306.746 65.3213 306.746 65.6888C306.746 66.0403 306.618 66.3358 306.363 66.5755C306.123 66.8151 305.828 66.935 305.476 66.935C305.141 66.935 304.845 66.8151 304.589 66.5755C304.35 66.3358 304.23 66.0403 304.23 65.6888Z" fill="#282828"/>
<path d="M308.852 65.6888C308.852 65.3213 308.972 65.0177 309.211 64.7781C309.467 64.5224 309.77 64.3946 310.122 64.3946C310.473 64.3946 310.769 64.5224 311.009 64.7781C311.248 65.0177 311.368 65.3213 311.368 65.6888C311.368 66.0403 311.24 66.3358 310.985 66.5755C310.745 66.8151 310.449 66.935 310.098 66.935C309.762 66.935 309.467 66.8151 309.211 66.5755C308.972 66.3358 308.852 66.0403 308.852 65.6888Z" fill="#282828"/>
<path d="M313.474 65.6888C313.474 65.3213 313.593 65.0177 313.833 64.7781C314.089 64.5224 314.392 64.3946 314.744 64.3946C315.095 64.3946 315.391 64.5224 315.63 64.7781C315.87 65.0177 315.99 65.3213 315.99 65.6888C315.99 66.0403 315.862 66.3358 315.606 66.5755C315.367 66.8151 315.071 66.935 314.72 66.935C314.384 66.935 314.089 66.8151 313.833 66.5755C313.593 66.3358 313.474 66.0403 313.474 65.6888Z" fill="#282828"/>
<g opacity="0.7" filter="url(#filter0_f)">
<ellipse cx="66.7665" cy="122.835" rx="56.6021" ry="5.79738" fill="url(#paint0_linear)" fill-opacity="0.4"/>
</g>
<g filter="url(#filter1_f)">
<ellipse cx="68.1676" cy="120.215" rx="39.0876" ry="2.47511" fill="#F5F5F5"/>
</g>
<g clip-path="url(#clip0)">
<g opacity="0.8">
<path opacity="0.8" d="M114.618 28.1833C112.252 24.2839 109.455 20.6624 106.28 17.3868L105.08 16.1738L103.823 15.017C103.001 14.2289 102.097 13.5309 101.22 12.7964C100.781 12.4333 100.311 12.1068 99.8543 11.7578L99.1641 11.2456L98.8176 10.9894L98.4599 10.7502C97.5021 10.1169 96.5528 9.45834 95.5415 8.89544C95.0457 8.61399 94.5555 8.31002 94.0513 8.0342L92.5245 7.25458L91.7583 6.86055L90.9751 6.50311L89.4033 5.78823C88.8737 5.56306 88.3356 5.36042 87.8004 5.14652C87.2652 4.93261 86.7356 4.71026 86.1835 4.53576C85.0905 4.17269 84.0059 3.77866 82.8904 3.48876C78.4628 2.21709 73.8967 1.48841 69.2929 1.31878C64.5401 1.12736 59.7823 1.54256 55.1347 2.55434L53.3966 2.94838L51.6783 3.42122L50.8332 3.66045L49.9881 3.94191L48.2979 4.50481L46.6331 5.1437L45.788 5.46456C45.5063 5.57995 45.2415 5.70379 44.9711 5.822L43.3372 6.54251C42.802 6.80145 42.2724 7.07164 41.7372 7.33902L40.9259 7.72179C40.6611 7.8597 40.4047 8.00325 40.1456 8.15523L38.5878 9.03898C38.0779 9.34858 37.5765 9.67507 37.0694 9.99311L36.3117 10.4744C36.061 10.6376 35.8215 10.8149 35.5736 10.9866L34.1088 12.0224C33.6299 12.3798 33.1623 12.757 32.7003 13.1228L31.9932 13.6857C31.7594 13.8715 31.5369 14.0742 31.3087 14.2684L29.9397 15.4167C29.4974 15.8191 29.0692 16.2385 28.6326 16.6494L27.9819 17.2686C27.7649 17.4769 27.5649 17.6992 27.3565 17.9131L26.117 19.2106C25.7142 19.6525 25.3283 20.1085 24.9339 20.5588L24.3451 21.2343C24.148 21.4594 23.9705 21.6987 23.7817 21.9323L22.669 23.3395C22.3056 23.8124 21.9676 24.3049 21.6155 24.7862C21.2634 25.2675 20.9112 25.7487 20.5957 26.2554L19.6182 27.7499C19.2943 28.2508 19.0098 28.7715 18.7027 29.281C18.0774 30.2942 17.5478 31.3609 16.99 32.4107C16.8463 32.6724 16.7083 32.9398 16.5956 33.21L16.2181 34.0178L15.8548 34.8368C15.728 35.1183 15.604 35.3744 15.4942 35.653C15.0519 36.7563 14.5702 37.8455 14.2012 38.977C14.0068 39.5399 13.8012 40.1028 13.6181 40.6657L13.1138 42.3769L12.8631 43.2212L12.6519 44.0881L12.2378 45.8275C12.1082 46.4101 12.0124 46.9983 11.8997 47.5837L11.7392 48.4647L11.6603 48.9066L11.6011 49.3513C11.4518 50.5362 11.2631 51.7183 11.1983 52.9144C11.1532 53.5111 11.1025 54.1078 11.0659 54.7045L11.0208 56.5001L10.9983 57.3979C10.9983 57.6963 10.9983 57.9974 11.018 58.2958L11.0659 60.0942C11.1881 62.4923 11.4638 64.8802 11.8913 67.2431L12.0518 68.1297L12.1307 68.5716L12.2321 69.0106L12.6378 70.7669C12.7617 71.3551 12.9476 71.9265 13.1026 72.5062C13.2575 73.086 13.4153 73.6771 13.6012 74.24C13.9871 75.3658 14.342 76.5226 14.8012 77.6343C15.0238 78.1972 15.2238 78.7601 15.4688 79.3061L16.2012 80.9498C16.4351 81.5127 16.7168 82.0334 16.9844 82.5681C17.252 83.1029 17.514 83.6433 17.8069 84.1696C18.4041 85.211 18.9675 86.272 19.6295 87.2656C20.9047 89.2999 22.3075 91.2514 23.8296 93.1085C24.6184 94.0147 25.3705 94.952 26.2128 95.8076C26.6269 96.241 27.0297 96.6857 27.4551 97.1107L28.7509 98.3604C29.1763 98.7854 29.6298 99.1766 30.0833 99.5734C30.5369 99.9703 30.9819 100.37 31.4439 100.753L32.8524 101.879C33.089 102.064 33.32 102.256 33.5623 102.441L34.2947 102.968C34.7849 103.317 35.2694 103.674 35.7623 104.018L37.2723 105.003L38.03 105.492L38.8075 105.948L40.3625 106.86L41.9597 107.705L42.7597 108.121C43.0414 108.253 43.3034 108.377 43.5766 108.504L45.2133 109.261C45.7767 109.5 46.3401 109.717 46.8838 109.945C47.9909 110.418 49.1374 110.789 50.2642 111.18C50.5459 111.285 50.8276 111.369 51.1262 111.462L51.9938 111.712C52.5741 111.873 53.1459 112.061 53.7319 112.196L55.4897 112.607C55.7714 112.672 56.0756 112.751 56.3714 112.802L57.2587 112.962L59.0362 113.277L60.8278 113.502L61.8222 113.623C62.1546 113.66 62.487 113.677 62.8223 113.702L64.8223 113.843L66.8252 113.882C67.1604 113.882 67.4928 113.899 67.828 113.882L68.8309 113.851C71.5032 113.784 74.1668 113.52 76.8001 113.061L78.772 112.695C79.4227 112.551 80.0706 112.391 80.7213 112.239C81.0453 112.16 81.3721 112.09 81.6932 111.999L82.6538 111.718L83.6144 111.437C83.9355 111.344 84.2566 111.254 84.5693 111.141L86.4624 110.494C87.0934 110.28 87.7046 110.012 88.3272 109.773L89.2568 109.405C89.5638 109.275 89.8653 109.123 90.1695 108.996C90.7751 108.715 91.3892 108.456 91.9893 108.152C96.1293 106.147 100.014 103.655 103.561 100.727C107.056 97.8267 110.149 94.4743 112.759 90.7584C113.184 90.1223 112.857 90.3474 112.424 90.9835C109.874 94.49 106.878 97.6492 103.511 100.381C103.102 100.739 102.666 101.057 102.229 101.386L100.947 102.385L99.6007 103.305C99.15 103.609 98.7106 103.925 98.2401 104.2C97.3134 104.763 96.4007 105.357 95.4429 105.864L94.0344 106.652L92.5808 107.378C91.5808 107.904 90.5329 108.332 89.5047 108.802C88.9892 109.039 88.4539 109.224 87.93 109.438C87.406 109.652 86.8793 109.866 86.3412 110.046C85.2651 110.401 84.2003 110.806 83.1017 111.099L81.4622 111.572L79.8002 111.954C78.6988 112.236 77.572 112.41 76.4536 112.627C76.1719 112.683 75.8902 112.723 75.6085 112.759L74.7634 112.875C74.2 112.945 73.6366 113.038 73.0732 113.089L71.3831 113.229L70.538 113.297L69.6929 113.325L68.0027 113.376C67.4393 113.376 66.8759 113.359 66.3125 113.353C63.95 113.298 61.5933 113.096 59.256 112.748L57.5151 112.439C56.9348 112.332 56.3545 112.239 55.7826 112.095C54.6361 111.814 53.484 111.577 52.3572 111.228C51.7938 111.059 51.2304 110.91 50.667 110.727L48.9965 110.164L48.1514 109.883L47.3317 109.554L45.6471 108.858C43.4819 107.921 41.3756 106.853 39.3399 105.661C38.3089 105.098 37.3286 104.426 36.337 103.787L35.9652 103.545L35.6046 103.286L34.8863 102.771L34.1651 102.27C33.9229 102.098 33.6862 101.926 33.4552 101.738C32.5313 101 31.5904 100.288 30.7143 99.4862C30.2721 99.0921 29.8157 98.7178 29.3903 98.3097L28.1114 97.0826C27.6776 96.6801 27.2663 96.2382 26.872 95.816C26.4776 95.3939 26.0522 94.9717 25.6635 94.5214C24.9001 93.6207 24.1029 92.7482 23.4099 91.7997C23.0493 91.3325 22.6803 90.8709 22.331 90.3925L21.3141 88.9458C21.1479 88.7038 20.9704 88.4673 20.8126 88.2197L20.3394 87.4738C20.0267 86.9757 19.7056 86.4803 19.3985 85.9765C14.5531 77.8378 11.8683 68.5976 11.5983 59.1317C11.5983 58.5435 11.5673 57.9552 11.5617 57.3698L11.6096 55.6079L11.6349 54.727C11.6518 54.4455 11.6772 54.1415 11.6997 53.8488L11.8406 52.0954C11.8885 51.5128 11.9842 50.933 12.0547 50.3504L12.1702 49.4807C12.2068 49.1993 12.2462 48.9009 12.3026 48.6139L12.6181 46.8886C12.6744 46.6071 12.7166 46.3257 12.7843 46.0273L12.9871 45.183C14.0187 40.6102 15.6299 36.1877 17.7816 32.0223C18.0633 31.5072 18.314 30.9894 18.5929 30.4799L19.4746 28.9742L19.9168 28.2227L20.3929 27.4937L21.3479 26.0358C22.674 24.1246 24.1162 22.2964 25.6663 20.5616C28.7608 17.0887 32.2784 14.0167 36.137 11.4173C36.6074 11.0767 37.1089 10.7812 37.599 10.4688C38.0892 10.1563 38.5765 9.83831 39.0836 9.55123C40.1005 8.98832 41.0949 8.37758 42.1456 7.86252C44.2208 6.79747 46.3581 5.85761 48.5458 5.04801L50.2022 4.4851L51.0304 4.20365L51.8755 3.95879L53.5657 3.4747L55.2558 3.06941L56.1009 2.86958C56.3826 2.80484 56.6643 2.7598 56.946 2.70351L58.6672 2.38829C59.2306 2.28979 59.8222 2.22787 60.3968 2.14625C60.9715 2.06462 61.549 1.98019 62.1321 1.9436L64.0645 1.78599C64.7096 1.73533 65.3575 1.73533 66.0026 1.71L66.9717 1.67904C67.2956 1.67904 67.6196 1.67904 67.9407 1.67904L69.8816 1.71281L71.8169 1.83946L72.7859 1.9042L73.7493 2.01678L75.6761 2.24757L77.5889 2.56842C77.9072 2.62471 78.2283 2.66975 78.5438 2.73729L79.4931 2.94557C80.1241 3.08911 80.7608 3.22702 81.3862 3.37619C82.6341 3.72519 83.8933 4.03478 85.113 4.46822L86.0342 4.775C86.3412 4.87351 86.6483 4.98046 86.9497 5.10148L88.761 5.80511C89.0652 5.91769 89.361 6.05279 89.654 6.18507L90.5413 6.58191C91.1329 6.84648 91.7273 7.10822 92.2963 7.42626L94.0288 8.31847L95.7189 9.30073C96.0006 9.46679 96.2823 9.6244 96.564 9.80171L97.3753 10.3365L98.1838 10.8712C98.4655 11.0485 98.7247 11.2259 98.981 11.4341L100.539 12.5853C100.801 12.7738 101.049 12.9793 101.299 13.1848L102.046 13.7983L102.792 14.4119C103.04 14.6173 103.274 14.8397 103.514 15.0536L104.942 16.3539C106.79 18.1424 108.53 20.039 110.153 22.0336C110.559 22.5318 110.939 23.0524 111.333 23.5591L111.922 24.3246L112.486 25.1155C112.852 25.6446 113.238 26.1625 113.59 26.7029L114.641 28.3325C115.012 28.8841 114.987 28.7715 114.618 28.1833Z" fill="#FF945C"/>
</g>
<g opacity="0.8">
<path opacity="0.8" d="M116.729 29.3821C112.726 22.2079 106.999 16.0273 100.247 11.2257L98.7202 10.1928L97.9568 9.67774L97.1709 9.19927L95.599 8.24234L93.9821 7.3614L93.1736 6.91952L92.3454 6.51704L90.689 5.71491L88.9989 4.99157L88.1538 4.63132C87.8721 4.51311 87.5904 4.41742 87.2918 4.30765C82.6931 2.55135 77.8806 1.41554 72.9815 0.930235L71.142 0.764179C70.5279 0.73322 69.911 0.71633 69.2969 0.690999L68.3729 0.657227C68.0659 0.657227 67.756 0.657227 67.449 0.657227L65.601 0.688186C63.1367 0.786393 60.6815 1.04683 58.2515 1.46781C57.0318 1.65075 55.8346 1.93783 54.6317 2.2024C54.3303 2.26431 54.0317 2.3403 53.7359 2.42474L52.8457 2.66679C52.2542 2.83566 51.6542 2.97076 51.071 3.1734L49.3161 3.7363C49.0344 3.82637 48.7329 3.9305 48.4456 4.04027L47.5836 4.36113C46.423 4.76642 45.3019 5.2674 44.1723 5.74587C41.9313 6.739 39.7526 7.86688 37.6481 9.12329C36.5805 9.72841 35.572 10.4208 34.5495 11.0934C34.0368 11.4284 33.5522 11.8055 33.0536 12.1601C32.555 12.5148 32.0536 12.8694 31.5832 13.2634L30.1493 14.4146C29.6704 14.7973 29.2254 15.2195 28.7606 15.622C27.8253 16.4157 26.969 17.3107 26.0873 18.1551C24.3639 19.9117 22.7638 21.785 21.2984 23.7616C18.2954 27.8104 15.857 32.2482 14.0503 36.9532C13.1573 39.3049 12.4168 41.7116 11.8333 44.1583C11.5094 45.3742 11.3066 46.6126 11.0643 47.8453L10.977 48.3069L10.9122 48.7741L10.7798 49.7057L10.6474 50.6373C10.6023 50.9469 10.5572 51.2593 10.5347 51.5718C9.98007 56.5718 10.0747 61.6226 10.8164 66.5984C11.1768 69.0843 11.7039 71.5431 12.3939 73.9584C12.7714 75.1574 13.1207 76.3704 13.5799 77.5413L13.9066 78.4278C14.0137 78.7234 14.1235 79.0189 14.2531 79.306L14.994 81.0425C19.1669 90.2486 25.6954 98.1926 33.9213 104.074C34.4171 104.459 34.9495 104.791 35.4678 105.146L36.2481 105.672C36.5073 105.85 36.7692 106.024 37.0397 106.182C38.1129 106.832 39.1778 107.502 40.2961 108.079L41.1243 108.529L41.5384 108.754L41.9637 108.96L43.6539 109.779L44.0793 109.984L44.5131 110.167L45.3807 110.533L46.2484 110.899L46.6822 111.082L47.1245 111.245C54.4932 114.067 62.3703 115.321 70.2518 114.926C70.9589 114.881 71.6603 114.845 72.3759 114.794L74.4914 114.561C75.1985 114.499 75.8999 114.358 76.5957 114.251L77.6464 114.082C77.9957 114.029 78.3422 113.941 78.6887 113.871C81.4672 113.316 84.1985 112.546 86.8579 111.569C87.5199 111.315 88.1904 111.09 88.8298 110.812L90.782 109.967C91.4299 109.686 92.0581 109.357 92.6975 109.05C93.013 108.892 93.337 108.746 93.6497 108.577L94.5793 108.067C95.8328 107.412 97.0272 106.66 98.2414 105.914C99.4104 105.118 100.594 104.344 101.703 103.471C102.267 103.046 102.83 102.627 103.368 102.163C103.906 101.698 104.458 101.265 104.988 100.798L106.546 99.365C106.811 99.1314 107.056 98.8781 107.304 98.6276L108.047 97.8733C110.025 95.8585 111.845 93.6943 113.49 91.3999C113.695 91.1185 113.915 90.837 114.109 90.5556L114.695 89.6746L115.278 88.7937C115.374 88.6473 115.476 88.5122 115.56 88.3518L115.842 87.8987L116.924 86.0833C117.262 85.4641 117.588 84.8393 117.918 84.2201C118.279 83.539 118.171 83.5418 117.808 84.2201L116.935 85.8553C116.625 86.3901 116.301 86.9164 115.983 87.4483L115.504 88.242C115.34 88.5038 115.16 88.7571 114.991 89.0132L113.954 90.5499C113.591 91.0509 113.216 91.5406 112.847 92.036L112.284 92.7762C112.092 93.0183 111.892 93.2547 111.695 93.4911L110.509 94.9181L109.259 96.2859L108.633 96.9698L107.977 97.6228L106.658 98.9259L105.284 100.167C105.053 100.373 104.827 100.584 104.594 100.784L103.878 101.372C103.399 101.76 102.926 102.16 102.441 102.54L100.957 103.646C100.706 103.826 100.467 104.02 100.21 104.192L99.4442 104.71C98.9315 105.05 98.4273 105.408 97.9061 105.737C93.7367 108.394 89.2448 110.507 84.5396 112.027L83.6579 112.309L83.2156 112.45L82.7677 112.571L80.9761 113.052L80.5282 113.173L80.0747 113.272L79.1676 113.469L78.2605 113.663L77.807 113.761L77.3506 113.837L75.5196 114.136L75.0633 114.209L74.6013 114.262L73.6801 114.366L72.759 114.468C72.4519 114.504 72.1449 114.535 71.835 114.549L69.9842 114.659C69.3673 114.71 68.7476 114.693 68.1307 114.704C67.5138 114.715 66.894 114.729 66.2771 114.704C65.0433 114.642 63.8038 114.634 62.5756 114.49L60.7305 114.313L58.8966 114.048L57.9811 113.916C57.6769 113.865 57.3754 113.801 57.0712 113.742L55.2543 113.384C52.8416 112.849 50.4658 112.16 48.1414 111.321C36.412 107.13 26.4056 99.1693 19.6899 88.6867C18.3772 86.633 17.1909 84.5013 16.1377 82.3034C15.5743 81.217 15.1236 80.08 14.6278 78.9626C14.3912 78.3997 14.1883 77.8199 13.9686 77.2514C13.7489 76.6828 13.5292 76.1087 13.3517 75.5233L12.7883 73.7783C12.608 73.1928 12.4615 72.599 12.2981 72.0079C11.9516 70.8315 11.7347 69.6269 11.453 68.4335C10.9858 66.0288 10.6818 63.5952 10.5432 61.1495C10.4446 59.928 10.4586 58.7037 10.4474 57.4907C10.4305 56.8799 10.484 56.2692 10.5009 55.6584C10.5178 55.0477 10.5403 54.4369 10.5967 53.8262L10.7713 52.0024C10.8051 51.6984 10.822 51.3944 10.8671 51.0905L10.9995 50.1842L11.2812 48.3717L11.639 46.576C12.6231 41.7857 14.2184 37.1414 16.3856 32.7567C16.6391 32.1938 16.949 31.6619 17.2307 31.1215C17.5124 30.5811 17.7941 30.0379 18.1124 29.5088C18.7547 28.4646 19.3518 27.3923 20.0589 26.3903C20.4054 25.8837 20.735 25.3686 21.0928 24.8705L22.1914 23.3985C22.5491 22.9003 22.9407 22.4303 23.3322 21.9603C23.7238 21.4902 24.1041 21.009 24.5097 20.553C27.7397 16.8637 31.4322 13.6058 35.496 10.8598C37.5079 9.48171 39.604 8.23057 41.7722 7.11372C42.868 6.57896 43.9554 6.0245 45.085 5.56292L45.9301 5.19985C46.2118 5.07602 46.4935 4.95781 46.7751 4.85648L48.4879 4.21196C49.0513 3.98398 49.6428 3.82074 50.2231 3.62653L51.0936 3.34508C51.3753 3.24939 51.6739 3.15651 51.9697 3.08334C53.15 2.76811 54.3247 2.42474 55.5247 2.19114C57.9194 1.66217 60.3463 1.2908 62.7897 1.0794L64.8123 0.949938L65.3165 0.918978H65.8236H66.8348C68.1842 0.873946 69.5307 0.961194 70.88 1.00904C71.5533 1.05126 72.2237 1.12443 72.8942 1.18354L73.8998 1.27642L74.8999 1.41714L76.8999 1.6986L78.8718 2.087C79.2014 2.15455 79.5338 2.20802 79.8606 2.28964L80.8409 2.53451C81.4944 2.70338 82.1536 2.84691 82.7987 3.0383L84.7339 3.62653L85.2185 3.77289L85.6945 3.94177L86.6467 4.28514C87.9256 4.71576 89.1594 5.2674 90.4073 5.78527C91.0214 6.06672 91.6271 6.36505 92.2384 6.65213C92.5426 6.79849 92.8497 6.93359 93.1511 7.09402L94.0441 7.5753C98.6952 10.0496 102.981 13.1553 106.78 16.8041C108.666 18.6401 110.428 20.5986 112.056 22.6667C112.825 23.725 113.631 24.7466 114.309 25.8415L114.842 26.6493C115.019 26.9307 115.2 27.1868 115.357 27.4655L116.332 29.1204C116.504 29.4451 116.706 29.7524 116.938 30.0379C117.053 30.097 117.005 29.9085 116.729 29.3821Z" fill="#FF945C"/>
</g>
<path d="M117.317 33.3992L116.604 31.9666C116.351 31.4966 116.086 31.035 115.827 30.5594C115.322 29.6165 114.739 28.7215 114.173 27.8152C113.891 27.3564 113.584 26.923 113.28 26.4839L112.362 25.1668L111.384 23.8946C111.055 23.4724 110.739 23.0502 110.384 22.6393C107.649 19.3443 104.556 16.3632 101.161 13.7511C97.7598 11.164 94.0739 8.9733 90.1751 7.22142C89.6963 6.985 89.192 6.79924 88.699 6.5966L87.2117 5.99429L85.6961 5.46517C85.1891 5.2963 84.6905 5.09646 84.1722 4.95855L82.6313 4.50822C82.3749 4.43505 82.1186 4.35343 81.8594 4.28588L81.0791 4.10013L79.5185 3.73423C78.9974 3.60477 78.4678 3.52878 77.941 3.42464C73.727 2.62812 69.4385 2.29402 65.1519 2.4283C60.8616 2.59527 56.6063 3.2708 52.4755 4.44068L51.698 4.65458L50.9318 4.90507L49.3994 5.40605C48.8867 5.5693 48.3909 5.78039 47.8866 5.96896C47.3824 6.15753 46.8782 6.34329 46.3824 6.55438C44.3952 7.3816 42.4568 8.32129 40.5766 9.36889C40.109 9.63627 39.6301 9.88113 39.1681 10.1654L37.7962 11.0098L37.1117 11.4376L36.4469 11.8963L35.1173 12.8139C34.675 13.1206 34.2581 13.4612 33.8271 13.7849C33.3961 14.1085 32.9623 14.4294 32.5538 14.7784L31.32 15.8226C31.1143 15.9971 30.9059 16.1688 30.7059 16.3461L30.1143 16.909L28.934 18.0123C28.5452 18.3866 28.179 18.7806 27.8072 19.1662L27.2438 19.746C27.0551 19.9374 26.8691 20.1344 26.6945 20.3399L25.6269 21.5529C25.4522 21.7584 25.2663 21.9526 25.0973 22.1637L24.5874 22.7829L23.5789 24.0466C23.255 24.4772 22.9451 24.9191 22.6296 25.3553C22.3141 25.7916 21.9845 26.2194 21.7028 26.6781C19.3065 30.2654 17.3221 34.1108 15.7871 38.1416C14.2861 42.1593 13.2686 46.341 12.7561 50.5987C11.679 59.1292 12.5654 67.7929 15.3477 75.9293C16.7311 79.9848 18.5981 83.8592 20.9084 87.4688C22.0595 89.2731 23.3123 91.0106 24.6606 92.6728L25.7057 93.8887C26.0578 94.2912 26.3931 94.7077 26.7677 95.0877C27.5086 95.8561 28.2213 96.6554 29.0213 97.3759L30.1791 98.482L31.3848 99.5346C32.1763 100.252 33.0299 100.894 33.8637 101.558C34.275 101.896 34.7088 102.2 35.1482 102.51L36.4497 103.438L37.7934 104.308C38.2441 104.589 38.6807 104.899 39.1484 105.152C42.8093 107.336 46.7116 109.087 50.7768 110.37C54.8373 111.641 59.03 112.444 63.273 112.763C67.5263 113.102 71.8041 112.97 76.0283 112.369C80.2483 111.736 84.3798 110.612 88.3385 109.02C92.2872 107.428 96.0389 105.386 99.5191 102.935C101.262 101.716 102.935 100.4 104.53 98.9942C104.928 98.6396 105.308 98.2681 105.697 97.9078C106.085 97.5476 106.485 97.1929 106.846 96.8017C107.578 96.0305 108.345 95.2932 109.026 94.4769C109.57 93.8578 109.35 93.7592 108.809 94.3756L108.285 94.9723C108.108 95.1693 107.919 95.3551 107.736 95.5352L106.632 96.6751C106.269 97.0607 105.866 97.4068 105.485 97.7727C105.105 98.1386 104.719 98.5045 104.322 98.8535C102.731 100.256 101.062 101.567 99.3219 102.78C95.8536 105.223 92.1094 107.249 88.1666 108.817C80.2636 111.993 71.7221 113.261 63.2364 112.518C61.1233 112.344 59.0214 112.054 56.9404 111.648L56.5489 111.578L56.1601 111.488L55.3854 111.311L53.8361 110.953L52.3065 110.52C51.7994 110.368 51.2811 110.238 50.7825 110.067C46.7361 108.767 42.8545 107.001 39.216 104.806C35.5806 102.6 32.2036 99.9945 29.1481 97.0381L28.5847 96.4752C28.3959 96.2895 28.2157 96.0925 28.0213 95.9123L26.9227 94.7584C26.5508 94.3784 26.2212 93.9591 25.8691 93.5622C25.517 93.1654 25.1677 92.7629 24.8353 92.3492C23.4948 90.6964 22.254 88.9652 21.1197 87.1648C16.5393 79.9766 13.8096 71.685 12.9504 63.2415C12.5568 59.0083 12.6693 54.7433 13.2857 50.5368C14.5016 42.1014 17.5808 34.042 22.3 26.9427C24.6757 23.4024 27.4644 20.157 30.6073 17.2749C35.3326 12.9365 40.7624 9.43305 46.6641 6.91464C47.157 6.71199 47.6584 6.52342 48.1542 6.32921C48.65 6.13501 49.143 5.92674 49.6529 5.76631C50.6698 5.43983 51.6698 5.0655 52.7065 4.80375C56.8149 3.64197 61.0461 2.9684 65.3125 2.79701C69.5747 2.64857 73.8403 2.97234 78.0311 3.76238C86.4088 5.2991 94.3386 8.93264 101.113 14.0522C104.484 16.6432 107.551 19.607 110.255 22.887C110.607 23.2838 110.914 23.7314 111.241 24.1366C111.567 24.5419 111.891 24.981 112.207 25.4004L113.117 26.7063L113.57 27.3593C113.722 27.576 113.852 27.8068 113.998 28.0291L114.843 29.3773L115.055 29.715L115.249 30.0612L115.641 30.7536C115.897 31.2179 116.167 31.6739 116.415 32.1439L117.131 33.5653L117.491 34.2745C117.61 34.5025 117.813 34.3449 117.317 33.3992Z" fill="#FF945C"/>
<path d="M113.677 83.4746C111.74 86.8324 109.494 90.0021 106.967 92.9426C104.415 95.9104 101.529 98.5746 98.3668 100.882L98.0316 101.133L97.6823 101.366L96.9837 101.822L96.2879 102.29C96.0569 102.447 95.8231 102.602 95.5836 102.743C94.6259 103.306 93.6822 103.916 92.6878 104.431C90.7285 105.497 88.7038 106.437 86.6256 107.246C85.5749 107.623 84.5411 108.04 83.4678 108.349C82.9354 108.513 82.4058 108.693 81.8706 108.839L80.2508 109.261C79.9691 109.329 79.7127 109.41 79.4395 109.464L78.6198 109.636C78.0733 109.748 77.5296 109.869 76.9803 109.973L75.3267 110.232L74.4985 110.362L73.6534 110.452C73.0506 110.514 72.4478 110.587 71.8449 110.643L70.028 110.747C69.4223 110.795 68.8167 110.792 68.211 110.798C67.6054 110.804 66.9969 110.826 66.3913 110.798C65.18 110.744 63.9658 110.722 62.7602 110.584L61.8531 110.502L61.3996 110.46L60.9489 110.395L59.146 110.139C56.7486 109.754 54.3805 109.205 52.0585 108.496C50.8894 108.172 49.757 107.733 48.6133 107.33C48.0499 107.125 47.4865 106.872 46.9231 106.644C46.3597 106.416 45.7963 106.185 45.2583 105.912L43.6188 105.127C43.0836 104.845 42.554 104.564 42.0244 104.263L41.23 103.826L40.4582 103.351C39.9455 103.03 39.4271 102.723 38.9201 102.394C37.9313 101.701 36.9172 101.048 35.9763 100.291L35.258 99.7284L34.9002 99.447L34.5538 99.1655L33.1762 97.9975C29.5651 94.8013 26.3988 91.1361 23.7619 87.0997L23.2577 86.3398C23.0887 86.0865 22.9422 85.8191 22.7844 85.5602L21.8492 83.9953C21.2858 82.9201 20.6717 81.8675 20.159 80.7558L19.7984 79.9621L19.6012 79.5512L19.4238 79.1318L18.7111 77.4431C18.4801 76.8802 18.2857 76.3032 18.0688 75.7347L17.7505 74.8903L17.4688 74.0207C16.7142 71.6999 16.1286 69.3276 15.7166 66.9225L15.4349 65.1212C15.3532 64.5189 15.2997 63.9138 15.2321 63.3114L15.1363 62.408L15.0856 61.4989C15.0546 60.8938 15.0124 60.2887 14.9926 59.6835C14.9926 58.4705 14.9504 57.2574 15.0321 56.0444L15.0715 55.1353C15.0715 54.8313 15.0912 54.5302 15.1279 54.229L15.2969 52.4165L15.3391 51.9633L15.4039 51.513L15.5335 50.6124L15.6631 49.7117L15.7279 49.2614L15.8152 48.8139L16.1645 47.0267C16.1955 46.8775 16.2208 46.7283 16.2546 46.5792L16.3645 46.1373L16.5842 45.2535C17.7504 40.5363 19.5709 36.0052 21.9928 31.7917C22.6323 30.7616 23.2323 29.7062 23.9422 28.7239L24.4577 27.9752L24.714 27.6009L24.9957 27.2378L26.1 25.794C26.4662 25.3127 26.8775 24.8652 27.2634 24.3867L27.8493 23.6944C28.0465 23.4636 28.2606 23.2497 28.4663 23.0273L29.7085 21.7045L31.0128 20.4436C32.7687 18.7795 34.6381 17.2391 36.6073 15.8334L37.3398 15.2987L38.0947 14.7977C38.6018 14.4684 39.1004 14.125 39.6102 13.8042C40.6525 13.1906 41.6751 12.5433 42.7512 11.9916C51.3195 7.35982 61.009 5.2022 70.735 5.76029C74.3615 5.96304 77.9598 6.51729 81.479 7.41523C85.0056 8.30898 88.4234 9.58691 91.6708 11.2261C98.2093 14.5037 103.994 19.1044 108.657 24.7357C110.99 27.592 113.002 30.6964 114.655 33.9927C116.308 37.2969 110.973 26.2387 103.913 19.5711L102.567 18.3468C102.347 18.1385 102.113 17.9443 101.877 17.7557L101.173 17.1928C100.251 16.402 99.2513 15.7152 98.2851 14.9891C97.7865 14.6485 97.2766 14.3192 96.7724 13.9843L96.0146 13.4861L95.2343 13.0245C94.7103 12.7206 94.1977 12.3997 93.6681 12.1098L92.0624 11.2655C91.5328 10.984 90.9779 10.7335 90.4314 10.4774L89.6088 10.0946C89.3271 9.96517 89.0623 9.83852 88.7778 9.73156L87.0876 9.05046L86.6679 8.88158L86.2397 8.73242L85.3946 8.43408C84.2678 8.00909 83.0959 7.69386 81.941 7.34767C81.6593 7.25479 81.3579 7.19006 81.0649 7.11689L80.1832 6.90298C79.5944 6.76507 79.0141 6.59901 78.4169 6.49769C66.6201 3.98623 54.3183 5.58076 43.5534 11.0166C32.7884 16.4525 24.2076 25.4028 19.235 36.3822L18.5364 38.0456C18.4209 38.327 18.2998 38.6085 18.1899 38.8899L17.8829 39.7343C17.68 40.2972 17.466 40.8601 17.2716 41.423L16.742 43.1483C16.6575 43.4297 16.5589 43.7112 16.4828 44.0123L16.2631 44.8876C16.1194 45.4731 15.9617 46.0529 15.8265 46.6411L15.4744 48.4114C15.418 48.6929 15.3504 48.9996 15.3025 49.298L15.1701 50.1902C13.6465 59.7709 14.8098 69.5861 18.5308 78.5464C22.3019 87.5245 28.474 95.2921 36.3707 100.998C38.3235 102.42 40.3726 103.706 42.5033 104.845L43.3005 105.279C43.5653 105.422 43.8442 105.543 44.1146 105.678L45.7484 106.464L47.4048 107.17L48.2499 107.522L49.095 107.831L50.8021 108.448L52.5402 108.98L53.4106 109.244L54.2923 109.464L56.0558 109.906L57.8276 110.266L58.7206 110.44L59.6192 110.57L61.4193 110.826L63.2278 110.992C65.7974 111.209 68.38 111.224 70.952 111.037L71.9154 110.975L72.8731 110.868C73.5098 110.789 74.1492 110.733 74.7859 110.637L76.6845 110.322L77.1578 110.241L77.6282 110.139L78.5691 109.937L79.5099 109.734C79.8226 109.664 80.1297 109.571 80.4395 109.489C81.0565 109.317 81.679 109.165 82.2931 108.983L84.1241 108.394L84.5805 108.248L85.0312 108.079L85.9326 107.741L86.8341 107.404C87.1327 107.288 87.4256 107.153 87.7214 107.029C88.3102 106.77 88.9046 106.531 89.4849 106.261L91.2173 105.417C91.499 105.281 91.7807 105.135 92.0624 104.972L92.9075 104.51L93.7075 104.074C93.9723 103.928 94.2287 103.762 94.4878 103.604L96.0456 102.65C97.0484 101.958 98.0823 101.302 99.0457 100.542L99.7809 99.9789L100.147 99.6975L100.502 99.416L101.911 98.2424C102.378 97.8455 102.82 97.4205 103.277 97.0096L103.958 96.3904L104.609 95.7403C106.354 94.0243 107.982 92.1925 109.48 90.2576L110.584 88.8025C110.939 88.3099 111.274 87.8033 111.621 87.3052L112.139 86.5565L112.618 85.7853C112.936 85.2703 113.263 84.7637 113.576 84.2486C114.198 83.1735 114.283 82.422 113.677 83.4746Z" fill="#FF945C"/>
<g opacity="0.6">
<path opacity="0.6" d="M114.097 35.8243L113.457 34.493L112.753 33.1899C109.083 26.3497 103.897 20.4387 97.5894 15.9088C91.1329 11.3493 83.6002 8.4982 76.1381 7.25418C72.0449 6.56526 67.8868 6.34244 63.7434 6.58996C63.225 6.60403 62.7095 6.66313 62.194 6.71379L60.6447 6.86578L59.1066 7.09657C58.5939 7.17256 58.0784 7.24292 57.5714 7.35832L56.0417 7.66792C55.7854 7.71576 55.5319 7.77487 55.2812 7.84523L54.5234 8.03943C54.022 8.17453 53.5093 8.2843 53.0135 8.44191L51.5205 8.90912C51.2726 8.99074 51.0191 9.05829 50.774 9.14835L50.0387 9.4298L48.5655 9.97863L47.1232 10.5781L46.3992 10.8905C46.157 10.9947 45.926 11.1185 45.6893 11.2339L44.2808 11.9319C43.8076 12.1655 43.3569 12.4385 42.8949 12.689L42.2047 13.0718L41.8611 13.2632L41.5258 13.4714L40.185 14.3158C39.7314 14.5832 39.3089 14.8984 38.8723 15.1911C38.4356 15.4838 38.0018 15.7793 37.5793 16.0918L36.3257 17.0459L35.7003 17.5243L35.0975 18.031L33.8834 19.0273L32.7228 20.0855C31.934 20.7723 31.2185 21.5378 30.4692 22.264C30.2805 22.4441 30.103 22.6355 29.9283 22.8269L29.4016 23.4039C29.0551 23.7923 28.6889 24.1638 28.3565 24.5663L27.3593 25.7709C27.1959 25.9735 27.024 26.1677 26.8635 26.376L26.3958 27.0008L25.4578 28.2504C25.1592 28.6783 24.8747 29.1145 24.5817 29.5451C23.9789 30.3895 23.4549 31.3042 22.9197 32.1936C22.638 32.6326 22.4098 33.1027 22.1563 33.5586L21.4182 34.9377L20.7478 36.345C20.5224 36.815 20.2943 37.285 20.1027 37.7719C19.7055 38.7373 19.2858 39.6943 18.9562 40.6906L18.4322 42.171L17.9815 43.6768C17.3973 45.6626 16.9271 47.6802 16.573 49.7196C16.4857 50.229 16.4266 50.744 16.3505 51.2563L16.2434 52.0246C16.204 52.2808 16.1702 52.5369 16.1533 52.7958L16.0181 54.3438C15.9956 54.6027 15.9674 54.8588 15.9533 55.1178L15.9251 55.8946L15.866 57.451C15.866 57.9689 15.866 58.4896 15.866 59.0074V59.7871V60.1755L15.8913 60.5639L15.9871 62.1203C16.0068 62.641 16.0716 63.156 16.1308 63.6739L16.3026 65.2247L16.5533 66.7671C16.635 67.2821 16.7111 67.7972 16.835 68.3038L17.159 69.8264C17.2069 70.0825 17.2717 70.333 17.3393 70.5835L17.5393 71.335C17.6773 71.836 17.7928 72.3426 17.9477 72.838L18.4181 74.324C18.497 74.5717 18.5703 74.8194 18.6576 75.067L18.9393 75.7988L19.483 77.2624C19.6802 77.7436 19.8914 78.2193 20.0914 78.6978C20.2914 79.1762 20.4886 79.6603 20.7281 80.1219C21.1844 81.0563 21.6211 82.002 22.1366 82.9083C22.3901 83.3642 22.6267 83.8286 22.8943 84.2761L23.7084 85.6102C23.8465 85.8326 23.9901 86.0577 24.1169 86.2773L24.5564 86.9246L25.4324 88.2277L26.3677 89.483C26.6804 89.8995 26.9846 90.3273 27.3254 90.7214L28.317 91.9288L28.5649 92.2299L28.8269 92.5114L29.348 93.0912C29.7002 93.474 30.0326 93.8736 30.396 94.248L31.4889 95.3738L32.0354 95.9367L32.5988 96.4658L33.7397 97.5297C34.1284 97.8759 34.5313 98.2023 34.9285 98.5429C35.3257 98.8834 35.7144 99.2296 36.1341 99.5364C39.4161 102.135 43.0126 104.31 46.8387 106.01C54.5459 109.331 63.0842 110.885 71.4534 110.254C72.5042 110.206 73.5436 110.06 74.5887 109.942C75.1127 109.894 75.6282 109.79 76.1465 109.705C76.6649 109.621 77.1832 109.536 77.7015 109.441L79.2424 109.103L80.0142 108.937C80.2706 108.875 80.5213 108.802 80.7776 108.734L82.3354 108.295C82.8425 108.154 83.3383 107.977 83.8397 107.822C85.8387 107.175 87.798 106.411 89.7075 105.534L91.1159 104.839L91.823 104.493C92.054 104.372 92.2822 104.239 92.5132 104.116L93.8879 103.356C94.3442 103.1 94.7808 102.81 95.2287 102.539C97.0096 101.437 98.7243 100.231 100.364 98.9285L101.57 97.9181L102.173 97.4143L102.753 96.8823L103.908 95.8156C104.288 95.4554 104.646 95.0698 105.015 94.6898C107.954 91.7153 110.504 88.3808 112.604 84.7659C112.832 84.3892 113.035 83.9981 113.212 83.595C113.311 83.3136 113.319 83.1869 113.263 83.1813C113.207 83.1757 113.086 83.3079 112.886 83.5584C112.608 83.9273 112.353 84.3127 112.122 84.7124C109.836 88.5353 107.075 92.0541 103.905 95.1852C102.311 96.745 100.617 98.1994 98.8345 99.5392C97.964 100.234 97.0203 100.834 96.1076 101.473C95.6428 101.78 95.1611 102.061 94.6992 102.357C94.2372 102.652 93.7526 102.945 93.2569 103.201L91.7864 104.006C91.2906 104.262 90.7836 104.498 90.2821 104.743L89.53 105.109C89.2793 105.23 89.0173 105.331 88.761 105.444L87.2201 106.103C86.6989 106.305 86.175 106.494 85.651 106.691L84.8651 106.972C84.6031 107.065 84.3327 107.144 84.0679 107.228L82.4706 107.735L80.8537 108.166L80.0452 108.38C79.7635 108.444 79.4987 108.498 79.2283 108.557L77.5916 108.906L75.9409 109.187L75.1155 109.322C74.8338 109.362 74.5521 109.387 74.2845 109.421L72.6225 109.61C72.0591 109.655 71.5098 109.683 70.9548 109.722L70.1097 109.776C69.828 109.795 69.5463 109.776 69.2646 109.795L67.5942 109.821C63.1464 109.779 58.722 109.172 54.4276 108.014C50.14 106.819 46.0166 105.1 42.1512 102.894C38.2808 100.677 34.7052 97.9822 31.5087 94.8728C29.907 93.3182 28.4098 91.6597 27.0268 89.908C26.3592 89.0158 25.6634 88.1433 25.055 87.2089C24.7479 86.7445 24.4155 86.297 24.1282 85.8185L23.2605 84.3718C22.9591 83.9018 22.7169 83.4036 22.4464 82.9167L22.0521 82.1821C21.9197 81.9401 21.7873 81.6952 21.6746 81.4419C21.2013 80.44 20.7112 79.4464 20.3112 78.4135C19.4677 76.3763 18.7609 74.2851 18.1956 72.154C17.0759 67.9004 16.479 63.5263 16.4181 59.1285C16.4181 58.5656 16.3956 58.0252 16.4181 57.4763L16.4829 55.8242C16.4829 55.5428 16.4998 55.2613 16.5167 54.9996L16.5899 54.1777L16.7336 52.5312C17.2594 48.1517 18.3199 43.8529 19.8914 39.7308L20.5224 38.2054L20.8379 37.4426L21.1929 36.6968L21.8971 35.2051C22.1507 34.7182 22.4155 34.2369 22.6746 33.75C24.7774 29.8744 27.3633 26.2807 30.3706 23.0549C31.8796 21.4445 33.4925 19.9346 35.1989 18.5347C36.044 17.8114 36.937 17.1782 37.8159 16.5139C38.261 16.1874 38.7258 15.8947 39.1793 15.5823C39.6328 15.2699 40.0892 14.9603 40.5652 14.6873L41.9737 13.843C42.4498 13.5615 42.94 13.3195 43.4217 13.0577C44.3766 12.5145 45.3936 12.0839 46.371 11.6026C46.8697 11.3774 47.3823 11.1776 47.8838 10.9637L48.6415 10.6485C48.8922 10.5415 49.1542 10.4599 49.4106 10.367L50.9543 9.80413C51.4726 9.62963 51.9994 9.48046 52.5205 9.31722C56.708 8.05555 61.0381 7.32647 65.4082 7.14723C67.5934 7.0605 69.782 7.11314 71.9605 7.30484C74.1381 7.49355 76.3019 7.8169 78.4395 8.27304C82.7232 9.21197 86.8714 10.6862 90.7864 12.6609C91.7413 13.1872 92.7273 13.6628 93.6512 14.2454C94.1188 14.5269 94.5949 14.8083 95.0597 15.0898L96.4288 15.9961C96.657 16.148 96.8908 16.2775 97.1105 16.452L97.7725 16.9389C98.2119 17.2654 98.6626 17.5806 99.0993 17.9127L100.378 18.9457C100.589 19.1202 100.809 19.2862 101.015 19.4664L101.629 20.0152C102.037 20.3811 103.79 22.0219 104.615 22.8494C105.856 24.0816 107.01 25.3982 108.069 26.7897C108.947 27.9155 110.249 29.9223 110.249 29.9223C110.564 30.3698 110.84 30.8398 111.122 31.307C111.404 31.7742 111.686 32.2358 111.967 32.7143C112.48 33.6796 113.032 34.6225 113.483 35.616C114.466 37.558 114.548 36.6996 114.097 35.8243Z" fill="#FF945C"/>
</g>
<g opacity="0.7">
<path opacity="0.7" d="M116.66 81.3406C114.884 85.1605 112.662 88.7571 110.04 92.0555C107.391 95.3842 104.349 98.38 100.978 100.977C100.153 101.65 99.2684 102.244 98.4007 102.863C97.9726 103.181 97.5134 103.451 97.0683 103.741L95.719 104.586C93.8919 105.677 92.0054 106.665 90.0681 107.547C82.2919 111.121 73.773 112.787 65.2217 112.404C56.6704 112.022 48.3345 109.603 40.909 105.348C37.2232 103.252 33.8016 100.723 30.7172 97.814C27.6577 94.896 24.926 91.6532 22.5704 88.1433C20.2271 84.6155 18.2908 80.834 16.7984 76.8712C16.5956 76.3815 16.4407 75.8777 16.2688 75.3767L15.7646 73.8737L15.3364 72.3483C15.1956 71.8388 15.0378 71.335 14.9336 70.8172C14.7054 69.7871 14.4406 68.7626 14.2801 67.7212L13.9984 66.162L13.8012 64.5915C13.6406 63.5022 13.5871 62.4018 13.497 61.3041C13.4406 60.7553 13.4491 60.2036 13.4293 59.652C13.4096 59.1004 13.3927 58.5515 13.3871 57.9999C13.3947 55.7929 13.5301 53.5883 13.7927 51.397C13.8632 50.851 13.9223 50.3022 13.9984 49.7534L14.2801 48.1237C14.4435 47.0317 14.7252 45.9622 14.9618 44.8871C15.0716 44.3467 15.2435 43.8204 15.3872 43.2884L15.8407 41.6982L16.3703 40.1334C16.5449 39.6127 16.7196 39.0892 16.9337 38.5826L17.545 37.0599C17.6435 36.8038 17.7534 36.5505 17.8717 36.3028L18.2154 35.5541C18.4492 35.056 18.6633 34.5494 18.9168 34.0624L19.6802 32.6045C19.8098 32.3625 19.9309 32.1176 20.0633 31.8756L20.4802 31.1663L21.3253 29.7591C21.607 29.2947 21.9254 28.8415 22.2268 28.3828C22.5282 27.924 22.8183 27.4596 23.1535 27.0233C23.8015 26.1396 24.4325 25.2418 25.1395 24.403C25.4888 23.9809 25.8184 23.5418 26.1818 23.1309L27.2748 21.9009C27.4579 21.6983 27.6354 21.4872 27.8241 21.2902L28.3875 20.702L29.5368 19.5255L30.7397 18.3997C31.1397 18.0225 31.5369 17.6454 31.9623 17.2992C35.2758 14.3936 38.9186 11.8857 42.8161 9.82668L44.2865 9.06394L45.7908 8.37439C46.7852 7.89029 47.8247 7.53003 48.8472 7.10222C49.3599 6.89676 49.8867 6.73916 50.4078 6.5534L51.191 6.28602C51.4501 6.19314 51.7121 6.1087 51.9797 6.03834C53.0417 5.75689 54.0924 5.4107 55.1714 5.19398C59.3639 4.21661 63.6656 3.78616 67.9689 3.91338C72.2374 4.04505 76.479 4.63767 80.6199 5.6809C80.8819 5.73719 81.1411 5.80755 81.3974 5.88354L82.1721 6.10307C82.6876 6.25224 83.2059 6.38453 83.7186 6.54496L85.2454 7.05438L86.0088 7.30769C86.2652 7.39212 86.5103 7.49907 86.761 7.58914L88.2652 8.16893L88.6427 8.31528L89.0117 8.47852L89.7498 8.80501C90.2399 9.02736 90.7385 9.22999 91.2231 9.46641L92.6653 10.1897C96.509 12.1417 100.087 14.5763 103.314 17.4343C104.136 18.121 104.88 18.895 105.654 19.6296C105.852 19.8126 106.035 20.0068 106.218 20.1925L106.767 20.7779C107.128 21.172 107.508 21.5491 107.857 21.9572L108.897 23.1787C109.069 23.3842 109.246 23.584 109.415 23.7923L109.905 24.4284L110.888 25.6977C111.201 26.1311 111.503 26.573 111.812 27.0093C112.446 27.8733 112.993 28.7937 113.573 29.6943C114.046 30.4965 114.255 32.0135 112.072 28.6389C111.815 28.2054 111.508 27.7945 111.226 27.392L110.364 26.1537L109.432 24.9856C109.125 24.5888 108.829 24.1807 108.494 23.8035C107.838 23.0436 107.212 22.2556 106.508 21.5379L105.477 20.4402C105.122 20.0856 104.756 19.7422 104.395 19.396C101.5 16.6241 98.2848 14.2063 94.8175 12.1937C91.3546 10.1835 87.6892 8.54392 83.882 7.30206C80.0892 6.04562 76.1699 5.20845 72.1944 4.80558C68.216 4.39943 64.2039 4.458 60.2391 4.98009C56.0482 5.54172 51.9452 6.63017 48.0275 8.21959C47.0359 8.58829 46.0838 9.04987 45.1176 9.48049C44.6302 9.68876 44.1682 9.94488 43.7091 10.1813C43.2499 10.4177 42.7654 10.6598 42.3006 10.9075C40.451 11.9251 38.6586 13.0432 36.9314 14.2567C35.2054 15.4651 33.5456 16.7654 31.9594 18.152L30.7848 19.2243C30.4016 19.5846 30.0045 19.9308 29.6439 20.3164C28.9087 21.0707 28.1537 21.8052 27.4692 22.6074C24.6321 25.7402 22.2008 29.2172 20.2323 32.9563C18.2638 36.7067 16.7634 40.6843 15.7646 44.7998C14.7832 48.914 14.2571 53.1235 14.1956 57.3525C14.1239 61.6889 14.5713 66.0183 15.528 70.2486C16.4733 74.4962 17.9576 78.6058 19.945 82.4777C23.9763 90.2796 29.8514 96.9814 37.061 102.002C37.4948 102.334 37.9652 102.613 38.4188 102.917C38.8723 103.221 39.3258 103.511 39.7991 103.792L41.2076 104.622L41.9118 105.039L42.6358 105.419L44.0837 106.182C44.5711 106.426 45.0697 106.646 45.5626 106.88C46.5429 107.361 47.5627 107.752 48.5712 108.166C49.0726 108.382 49.5909 108.551 50.1064 108.729L51.6529 109.269L53.2276 109.728C53.7544 109.877 54.2727 110.046 54.8108 110.161C55.8756 110.406 56.9348 110.69 58.0193 110.862L59.6363 111.144L61.2673 111.355C63.4513 111.624 65.6501 111.755 67.8506 111.749L69.5013 111.695C70.0647 111.673 70.6028 111.67 71.1493 111.611C72.2451 111.512 73.3437 111.442 74.4339 111.267C74.9775 111.189 75.524 111.124 76.0677 111.034L77.6875 110.727L78.4988 110.575L79.3016 110.384L80.9045 110.001C81.4369 109.863 81.9608 109.7 82.4876 109.55C83.0144 109.401 83.5468 109.269 84.0623 109.072C85.0989 108.715 86.144 108.385 87.161 107.963C89.2066 107.171 91.2061 106.264 93.1499 105.247C95.0832 104.215 96.955 103.071 98.7557 101.822C99.674 101.214 100.533 100.533 101.406 99.8517C101.852 99.528 102.252 99.1565 102.68 98.8047C103.108 98.4529 103.525 98.101 103.93 97.7323L105.133 96.6065C105.333 96.418 105.536 96.235 105.731 96.0436L106.294 95.4498L107.438 94.2649L108.519 93.0237C111.395 89.6906 113.842 86.0117 115.804 82.0724C116.776 80.1867 117.415 79.6885 116.66 81.3406Z" fill="#FF945C"/>
</g>
</g>
<defs>
<filter id="filter0_f" x="0.164429" y="107.038" width="133.204" height="31.5948" filterUnits="userSpaceOnUse" color-interpolation-filters="sRGB">
<feFlood flood-opacity="0" result="BackgroundImageFix"/>
<feBlend mode="normal" in="SourceGraphic" in2="BackgroundImageFix" result="shape"/>
<feGaussianBlur stdDeviation="5" result="effect1_foregroundBlur"/>
</filter>
<filter id="filter1_f" x="25.08" y="113.74" width="86.1753" height="12.9502" filterUnits="userSpaceOnUse" color-interpolation-filters="sRGB">
<feFlood flood-opacity="0" result="BackgroundImageFix"/>
<feBlend mode="normal" in="SourceGraphic" in2="BackgroundImageFix" result="shape"/>
<feGaussianBlur stdDeviation="2" result="effect1_foregroundBlur"/>
</filter>
<linearGradient id="paint0_linear" x1="66.7665" y1="117.038" x2="66.7665" y2="128.633" gradientUnits="userSpaceOnUse">
<stop stop-color="#B4B4B4"/>
<stop offset="1" stop-color="#F2F1EE"/>
</linearGradient>
<clipPath id="clip0">
<rect width="107.992" height="114.326" fill="white" transform="translate(10.1644 0.660156)"/>
</clipPath>
</defs>
</svg>
