<svg viewBox="0 0 316 138" fill="none" xmlns="http://www.w3.org/2000/svg">
<g opacity="0.7" filter="url(#filter0_f)">
<ellipse cx="66.7665" cy="122.197" rx="56.6021" ry="5.79738" fill="url(#paint0_linear)" fill-opacity="0.4"/>
</g>
<g filter="url(#filter1_f)">
<ellipse cx="68.1676" cy="119.577" rx="39.0876" ry="2.47511" fill="#F5F5F5"/>
</g>
<g clip-path="url(#clip0)">
<g opacity="0.8">
<path opacity="0.8" d="M114.618 27.5446C112.252 23.6453 109.455 20.0237 106.28 16.7482L105.08 15.5351L103.823 14.3783C103.001 13.5903 102.097 12.8923 101.22 12.1577C100.781 11.7946 100.311 11.4681 99.8543 11.1191L99.1641 10.6069L98.8176 10.3508L98.4599 10.1115C97.5021 9.47827 96.5528 8.81967 95.5415 8.25677C95.0457 7.97532 94.5555 7.67135 94.0513 7.39553L92.5245 6.61591L91.7583 6.22188L90.9751 5.86443L89.4033 5.14955C88.8737 4.92439 88.3356 4.72175 87.8004 4.50784C87.2652 4.29394 86.7356 4.07159 86.1835 3.89709C85.0905 3.53402 84.0059 3.13999 82.8904 2.85009C78.4628 1.57842 73.8967 0.849736 69.2929 0.680106C64.5401 0.488688 59.7823 0.903893 55.1347 1.91567L53.3966 2.30971L51.6783 2.78255L50.8332 3.02178L49.9881 3.30323L48.2979 3.86614L46.6331 4.50503L45.788 4.82589C45.5063 4.94128 45.2415 5.06512 44.9711 5.18333L43.3372 5.90384C42.802 6.16278 42.2724 6.43297 41.7372 6.70034L40.9259 7.08312C40.6611 7.22103 40.4047 7.36458 40.1456 7.51656L38.5878 8.40031C38.0779 8.70991 37.5765 9.0364 37.0694 9.35444L36.3117 9.83571C36.061 9.99896 35.8215 10.1763 35.5736 10.348L34.1088 11.3837C33.6299 11.7411 33.1623 12.1183 32.7003 12.4842L31.9932 13.0471C31.7594 13.2328 31.5369 13.4355 31.3087 13.6297L29.9397 14.778C29.4974 15.1805 29.0692 15.5998 28.6326 16.0108L27.9819 16.6299C27.7649 16.8382 27.5649 17.0606 27.3565 17.2745L26.117 18.572C25.7142 19.0138 25.3283 19.4698 24.9339 19.9201L24.3451 20.5956C24.148 20.8208 23.9705 21.06 23.7817 21.2936L22.669 22.7008C22.3056 23.1737 21.9676 23.6662 21.6155 24.1475C21.2634 24.6288 20.9112 25.1101 20.5957 25.6167L19.6182 27.1112C19.2943 27.6122 19.0098 28.1329 18.7027 28.6423C18.0774 29.6555 17.5478 30.7222 16.99 31.772C16.8463 32.0338 16.7083 32.3012 16.5956 32.5713L16.2181 33.3791L15.8548 34.1981C15.728 34.4796 15.604 34.7357 15.4942 35.0143C15.0519 36.1176 14.5702 37.2068 14.2012 38.3383C14.0068 38.9012 13.8012 39.4641 13.6181 40.027L13.1138 41.7382L12.8631 42.5826L12.6519 43.4494L12.2378 45.1888C12.1082 45.7714 12.0124 46.3596 11.8997 46.9451L11.7392 47.826L11.6603 48.2679L11.6011 48.7126C11.4518 49.8975 11.2631 51.0796 11.1983 52.2758C11.1532 52.8724 11.1025 53.4691 11.0659 54.0658L11.0208 55.8614L10.9983 56.7593C10.9983 57.0576 10.9983 57.3588 11.018 57.6571L11.0659 59.4556C11.1881 61.8537 11.4638 64.2415 11.8913 66.6044L12.0518 67.491L12.1307 67.9329L12.2321 68.372L12.6378 70.1282C12.7617 70.7164 12.9476 71.2878 13.1026 71.8676C13.2575 72.4474 13.4153 73.0384 13.6012 73.6013C13.9871 74.7271 14.342 75.8839 14.8012 76.9956C15.0238 77.5585 15.2238 78.1214 15.4688 78.6674L16.2012 80.3111C16.4351 80.874 16.7168 81.3947 16.9844 81.9295C17.252 82.4642 17.514 83.0046 17.8069 83.5309C18.4041 84.5723 18.9675 85.6334 19.6295 86.6269C20.9047 88.6612 22.3075 90.6127 23.8296 92.4698C24.6184 93.3761 25.3705 94.3133 26.2128 95.1689C26.6269 95.6024 27.0297 96.0471 27.4551 96.472L28.7509 97.7217C29.1763 98.1467 29.6298 98.5379 30.0833 98.9347C30.5369 99.3316 30.9819 99.7313 31.4439 100.114L32.8524 101.24C33.089 101.426 33.32 101.617 33.5623 101.803L34.2947 102.329C34.7849 102.678 35.2694 103.035 35.7623 103.379L37.2723 104.364L38.03 104.854L38.8075 105.31L40.3625 106.222L41.9597 107.066L42.7597 107.482C43.0414 107.615 43.3034 107.739 43.5766 107.865L45.2133 108.622C45.7767 108.862 46.3401 109.078 46.8838 109.306C47.9909 109.779 49.1374 110.151 50.2642 110.542C50.5459 110.646 50.8276 110.73 51.1262 110.823L51.9938 111.074C52.5741 111.234 53.1459 111.423 53.7319 111.558L55.4897 111.969C55.7714 112.033 56.0756 112.112 56.3714 112.163L57.2587 112.323L59.0362 112.639L60.8278 112.864L61.8222 112.985C62.1546 113.021 62.487 113.038 62.8223 113.064L64.8223 113.204L66.8252 113.244C67.1604 113.244 67.4928 113.261 67.828 113.244L68.8309 113.213C71.5032 113.146 74.1668 112.881 76.8001 112.422L78.772 112.056C79.4227 111.912 80.0706 111.752 80.7213 111.6C81.0453 111.521 81.3721 111.451 81.6932 111.361L82.6538 111.079L83.6144 110.798C83.9355 110.705 84.2566 110.615 84.5693 110.502L86.4624 109.855C87.0934 109.641 87.7046 109.374 88.3272 109.135L89.2568 108.766C89.5638 108.636 89.8653 108.484 90.1695 108.358C90.7751 108.076 91.3892 107.817 91.9893 107.513C96.1293 105.509 100.014 103.016 103.561 100.089C107.056 97.188 110.149 93.8356 112.759 90.1197C113.184 89.4836 112.857 89.7088 112.424 90.3448C109.874 93.8513 106.878 97.0105 103.511 99.7425C103.102 100.1 102.666 100.418 102.229 100.747L100.947 101.746L99.6007 102.667C99.15 102.971 98.7106 103.286 98.2401 103.562C97.3134 104.125 96.4007 104.719 95.4429 105.225L94.0344 106.013L92.5808 106.739C91.5808 107.266 90.5329 107.693 89.5047 108.164C88.9892 108.4 88.4539 108.586 87.93 108.8C87.406 109.014 86.8793 109.227 86.3412 109.408C85.2651 109.762 84.2003 110.167 83.1017 110.46L81.4622 110.933L79.8002 111.316C78.6988 111.597 77.572 111.772 76.4536 111.988C76.1719 112.045 75.8902 112.084 75.6085 112.121L74.7634 112.236C74.2 112.306 73.6366 112.399 73.0732 112.45L71.3831 112.591L70.538 112.658L69.6929 112.686L68.0027 112.737C67.4393 112.737 66.8759 112.72 66.3125 112.715C63.95 112.66 61.5933 112.457 59.256 112.109L57.5151 111.8C56.9348 111.693 56.3545 111.6 55.7826 111.457C54.6361 111.175 53.484 110.939 52.3572 110.59C51.7938 110.421 51.2304 110.272 50.667 110.089L48.9965 109.526L48.1514 109.244L47.3317 108.915L45.6471 108.22C43.4819 107.283 41.3756 106.215 39.3399 105.023C38.3089 104.46 37.3286 103.787 36.337 103.148L35.9652 102.906L35.6046 102.647L34.8863 102.132L34.1651 101.631C33.9229 101.459 33.6862 101.288 33.4552 101.099C32.5313 100.362 31.5904 99.6496 30.7143 98.8475C30.2721 98.4535 29.8157 98.0791 29.3903 97.671L28.1114 96.4439C27.6776 96.0414 27.2663 95.5995 26.872 95.1774C26.4776 94.7552 26.0522 94.333 25.6635 93.8827C24.9001 92.982 24.1029 92.1096 23.4099 91.1611C23.0493 90.6939 22.6803 90.2323 22.331 89.7538L21.3141 88.3071C21.1479 88.0651 20.9704 87.8287 20.8126 87.581L20.3394 86.8352C20.0267 86.337 19.7056 85.8416 19.3985 85.3378C14.5531 77.1991 11.8683 67.9589 11.5983 58.493C11.5983 57.9048 11.5673 57.3165 11.5617 56.7311L11.6096 54.9692L11.6349 54.0883C11.6518 53.8068 11.6772 53.5029 11.6997 53.2102L11.8406 51.4567C11.8885 50.8741 11.9842 50.2943 12.0547 49.7117L12.1702 48.842C12.2068 48.5606 12.2462 48.2623 12.3026 47.9752L12.6181 46.2499C12.6744 45.9684 12.7166 45.687 12.7843 45.3886L12.9871 44.5443C14.0187 39.9716 15.6299 35.549 17.7816 31.3836C18.0633 30.8686 18.314 30.3507 18.5929 29.8413L19.4746 28.3355L19.9168 27.584L20.3929 26.8551L21.3479 25.3972C22.674 23.4859 24.1162 21.6577 25.6663 19.9229C28.7608 16.4501 32.2784 13.378 36.137 10.7786C36.6074 10.438 37.1089 10.1425 37.599 9.83009C38.0892 9.51768 38.5765 9.19964 39.0836 8.91256C40.1005 8.34965 41.0949 7.7389 42.1456 7.22385C44.2208 6.1588 46.3581 5.21894 48.5458 4.40934L50.2022 3.84643L51.0304 3.56498L51.8755 3.32012L53.5657 2.83602L55.2558 2.43073L56.1009 2.23091C56.3826 2.16617 56.6643 2.12113 56.946 2.06484L58.6672 1.74962C59.2306 1.65111 59.8222 1.58919 60.3968 1.50757C60.9715 1.42595 61.549 1.34152 62.1321 1.30493L64.0645 1.14732C64.7096 1.09665 65.3575 1.09665 66.0026 1.07132L66.9717 1.04036C67.2956 1.04036 67.6196 1.04036 67.9407 1.04036L69.8816 1.07414L71.8169 1.20079L72.7859 1.26553L73.7493 1.3781L75.6761 1.6089L77.5889 1.92975C77.9072 1.98604 78.2283 2.03107 78.5438 2.09862L79.4931 2.30689C80.1241 2.45043 80.7608 2.58834 81.3862 2.73751C82.6341 3.08651 83.8933 3.39611 85.113 3.82955L86.0342 4.13633C86.3412 4.23484 86.6483 4.34179 86.9497 4.46281L88.761 5.16644C89.0652 5.27902 89.361 5.41412 89.654 5.5464L90.5413 5.94324C91.1329 6.2078 91.7273 6.46955 92.2963 6.78759L94.0288 7.6798L95.7189 8.66206C96.0006 8.82812 96.2823 8.98573 96.564 9.16304L97.3753 9.69781L98.1838 10.2326C98.4655 10.4099 98.7247 10.5872 98.981 10.7955L100.539 11.9466C100.801 12.1352 101.049 12.3406 101.299 12.5461L102.046 13.1597L102.792 13.7732C103.04 13.9787 103.274 14.201 103.514 14.4149L104.942 15.7152C106.79 17.5037 108.53 19.4003 110.153 21.3949C110.559 21.8931 110.939 22.4138 111.333 22.9204L111.922 23.6859L112.486 24.4768C112.852 25.0059 113.238 25.5238 113.59 26.0642L114.641 27.6938C115.012 28.2454 114.987 28.1329 114.618 27.5446Z" fill="#FF945C"/>
</g>
<g opacity="0.8">
<path opacity="0.8" d="M116.729 28.7435C112.726 21.5693 106.999 15.3886 100.247 10.587L98.7202 9.55412L97.9568 9.03906L97.1709 8.5606L95.599 7.60367L93.9821 6.72273L93.1736 6.28085L92.3454 5.87837L90.689 5.07623L88.9989 4.3529L88.1538 3.99265C87.8721 3.87444 87.5904 3.77874 87.2918 3.66898C82.6931 1.91268 77.8806 0.776867 72.9815 0.291563L71.142 0.125508C70.5279 0.0945479 69.911 0.0776581 69.2969 0.0523275L68.3729 0.0185547C68.0659 0.0185547 67.756 0.0185547 67.449 0.0185547L65.601 0.0495145C63.1367 0.147722 60.6815 0.408161 58.2515 0.829136C57.0318 1.01208 55.8346 1.29916 54.6317 1.56372C54.3303 1.62564 54.0317 1.70163 53.7359 1.78607L52.8457 2.02812C52.2542 2.19699 51.6542 2.33208 51.071 2.53473L49.3161 3.09763C49.0344 3.1877 48.7329 3.29183 48.4456 3.4016L47.5836 3.72245C46.423 4.12774 45.3019 4.62873 44.1723 5.1072C41.9313 6.10033 39.7526 7.2282 37.6481 8.48461C36.5805 9.08973 35.572 9.7821 34.5495 10.4548C34.0368 10.7897 33.5522 11.1668 33.0536 11.5215C32.555 11.8761 32.0536 12.2307 31.5832 12.6248L30.1493 13.7759C29.6704 14.1587 29.2254 14.5808 28.7606 14.9833C27.8253 15.777 26.969 16.672 26.0873 17.5164C24.3639 19.273 22.7638 21.1463 21.2984 23.1229C18.2954 27.1717 15.857 31.6095 14.0503 36.3145C13.1573 38.6662 12.4168 41.0729 11.8333 43.5197C11.5094 44.7355 11.3066 45.9739 11.0643 47.2067L10.977 47.6682L10.9122 48.1355L10.7798 49.0671L10.6474 49.9987C10.6023 50.3083 10.5572 50.6207 10.5347 50.9331C9.98007 55.9332 10.0747 60.9839 10.8164 65.9598C11.1768 68.4456 11.7039 70.9044 12.3939 73.3197C12.7714 74.5187 13.1207 75.7318 13.5799 76.9026L13.9066 77.7892C14.0137 78.0847 14.1235 78.3802 14.2531 78.6673L14.994 80.4038C19.1669 89.6099 25.6954 97.5539 33.9213 103.435C34.4171 103.821 34.9495 104.153 35.4678 104.507L36.2481 105.034C36.5073 105.211 36.7692 105.385 37.0397 105.543C38.1129 106.193 39.1778 106.863 40.2961 107.44L41.1243 107.89L41.5384 108.116L41.9637 108.321L43.6539 109.14L44.0793 109.345L44.5131 109.528L45.3807 109.894L46.2484 110.26L46.6822 110.443L47.1245 110.606C54.4932 113.428 62.3703 114.682 70.2518 114.288C70.9589 114.243 71.6603 114.206 72.3759 114.155L74.4914 113.922C75.1985 113.86 75.8999 113.719 76.5957 113.612L77.6464 113.443C77.9957 113.39 78.3422 113.303 78.6887 113.232C81.4672 112.677 84.1985 111.907 86.8579 110.93C87.5199 110.677 88.1904 110.452 88.8298 110.173L90.782 109.329C91.4299 109.047 92.0581 108.718 92.6975 108.411C93.013 108.253 93.337 108.107 93.6497 107.938L94.5793 107.429C95.8328 106.773 97.0272 106.022 98.2414 105.276C99.4104 104.479 100.594 103.705 101.703 102.833C102.267 102.408 102.83 101.988 103.368 101.524C103.906 101.06 104.458 100.626 104.988 100.159L106.546 98.7263C106.811 98.4927 107.056 98.2394 107.304 97.9889L108.047 97.2346C110.025 95.2198 111.845 93.0556 113.49 90.7612C113.695 90.4798 113.915 90.1983 114.109 89.9169L114.695 89.036L115.278 88.155C115.374 88.0087 115.476 87.8736 115.56 87.7131L115.842 87.26L116.924 85.4446C117.262 84.8255 117.588 84.2006 117.918 83.5814C118.279 82.9003 118.171 82.9031 117.808 83.5814L116.935 85.2167C116.625 85.7514 116.301 86.2777 115.983 86.8097L115.504 87.6034C115.34 87.8651 115.16 88.1184 114.991 88.3745L113.954 89.9113C113.591 90.4123 113.216 90.902 112.847 91.3973L112.284 92.1375C112.092 92.3796 111.892 92.616 111.695 92.8524L110.509 94.2794L109.259 95.6473L108.633 96.3312L107.977 96.9841L106.658 98.2873L105.284 99.5285C105.053 99.7339 104.827 99.945 104.594 100.145L103.878 100.733C103.399 101.121 102.926 101.521 102.441 101.901L100.957 103.007C100.706 103.187 100.467 103.382 100.21 103.553L99.4442 104.071C98.9315 104.412 98.4273 104.769 97.9061 105.098C93.7367 107.755 89.2448 109.869 84.5396 111.389L83.6579 111.67L83.2156 111.811L82.7677 111.932L80.9761 112.413L80.5282 112.534L80.0747 112.633L79.1676 112.83L78.2605 113.024L77.807 113.123L77.3506 113.199L75.5196 113.497L75.0633 113.57L74.6013 113.624L73.6801 113.728L72.759 113.829C72.4519 113.866 72.1449 113.897 71.835 113.911L69.9842 114.02C69.3673 114.071 68.7476 114.054 68.1307 114.065C67.5138 114.077 66.894 114.091 66.2771 114.065C65.0433 114.004 63.8038 113.995 62.5756 113.852L60.7305 113.674L58.8966 113.41L57.9811 113.277C57.6769 113.227 57.3754 113.162 57.0712 113.103L55.2543 112.745C52.8416 112.21 50.4658 111.521 48.1414 110.682C36.412 106.491 26.4056 98.5306 19.6899 88.0481C18.3772 85.9943 17.1909 83.8626 16.1377 81.6648C15.5743 80.5784 15.1236 79.4413 14.6278 78.3239C14.3912 77.761 14.1883 77.1812 13.9686 76.6127C13.7489 76.0442 13.5292 75.47 13.3517 74.8846L12.7883 73.1396C12.608 72.5542 12.4615 71.9603 12.2981 71.3693C11.9516 70.1928 11.7347 68.9882 11.453 67.7948C10.9858 65.3901 10.6818 62.9566 10.5432 60.5109C10.4446 59.2894 10.4586 58.0651 10.4474 56.852C10.4305 56.2413 10.484 55.6305 10.5009 55.0198C10.5178 54.409 10.5403 53.7983 10.5967 53.1875L10.7713 51.3637C10.8051 51.0597 10.822 50.7558 10.8671 50.4518L10.9995 49.5455L11.2812 47.733L11.639 45.9373C12.6231 41.147 14.2184 36.5027 16.3856 32.1181C16.6391 31.5552 16.949 31.0232 17.2307 30.4828C17.5124 29.9424 17.7941 29.3993 18.1124 28.8701C18.7547 27.8259 19.3518 26.7536 20.0589 25.7516C20.4054 25.245 20.735 24.73 21.0928 24.2318L22.1914 22.7598C22.5491 22.2616 22.9407 21.7916 23.3322 21.3216C23.7238 20.8516 24.1041 20.3703 24.5097 19.9143C27.7397 16.225 31.4322 12.9671 35.496 10.2212C37.5079 8.84304 39.604 7.5919 41.7722 6.47505C42.868 5.94029 43.9554 5.38583 45.085 4.92425L45.9301 4.56118C46.2118 4.43734 46.4935 4.31913 46.7751 4.21781L48.4879 3.57329C49.0513 3.34531 49.6428 3.18206 50.2231 2.98786L51.0936 2.70641C51.3753 2.61072 51.6739 2.51784 51.9697 2.44466C53.15 2.12944 54.3247 1.78607 55.5247 1.55246C57.9194 1.0235 60.3463 0.652127 62.7897 0.440732L64.8123 0.311266L65.3165 0.280307H65.8236H66.8348C68.1842 0.235274 69.5307 0.322522 70.88 0.370369C71.5533 0.412586 72.2237 0.485762 72.8942 0.544867L73.8998 0.637747L74.8999 0.778472L76.8999 1.05992L78.8718 1.44833C79.2014 1.51588 79.5338 1.56935 79.8606 1.65097L80.8409 1.89584C81.4944 2.06471 82.1536 2.20824 82.7987 2.39963L84.7339 2.98786L85.2185 3.13422L85.6945 3.30309L86.6467 3.64647C87.9256 4.07709 89.1594 4.62873 90.4073 5.1466C91.0214 5.42805 91.6271 5.72638 92.2384 6.01346C92.5426 6.15982 92.8497 6.29492 93.1511 6.45534L94.0441 6.93663C98.6952 9.41092 102.981 12.5167 106.78 16.1654C108.666 18.0014 110.428 19.9599 112.056 22.028C112.825 23.0863 113.631 24.108 114.309 25.2028L114.842 26.0106C115.019 26.292 115.2 26.5481 115.357 26.8268L116.332 28.4817C116.504 28.8065 116.706 29.1138 116.938 29.3993C117.053 29.4584 117.005 29.2698 116.729 28.7435Z" fill="#FF945C"/>
</g>
<path d="M117.317 32.7605L116.604 31.3279C116.351 30.8579 116.086 30.3963 115.827 29.9207C115.322 28.9778 114.739 28.0828 114.173 27.1765C113.891 26.7178 113.584 26.2843 113.28 25.8453L112.362 24.5281L111.384 23.2559C111.055 22.8337 110.739 22.4116 110.384 22.0006C107.649 18.7056 104.556 15.7246 101.161 13.1124C97.7598 10.5254 94.0739 8.33463 90.1751 6.58275C89.6963 6.34633 89.192 6.16057 88.699 5.95792L87.2117 5.35562L85.6961 4.82649C85.1891 4.65762 84.6905 4.45779 84.1722 4.31988L82.6313 3.86955C82.3749 3.79638 82.1186 3.71476 81.8594 3.64721L81.0791 3.46145L79.5185 3.09556C78.9974 2.96609 78.4678 2.89011 77.941 2.78597C73.727 1.98945 69.4385 1.65535 65.1519 1.78963C60.8616 1.9566 56.6063 2.63212 52.4755 3.80201L51.698 4.01591L50.9318 4.2664L49.3994 4.76738C48.8867 4.93062 48.3909 5.14171 47.8866 5.33029C47.3824 5.51886 46.8782 5.70462 46.3824 5.91571C44.3952 6.74293 42.4568 7.68262 40.5766 8.73022C40.109 8.9976 39.6301 9.24246 39.1681 9.52672L37.7962 10.3711L37.1117 10.7989L36.4469 11.2576L35.1173 12.1752C34.675 12.482 34.2581 12.8225 33.8271 13.1462C33.3961 13.4699 32.9623 13.7907 32.5538 14.1397L31.32 15.1839C31.1143 15.3584 30.9059 15.5301 30.7059 15.7074L30.1143 16.2703L28.934 17.3736C28.5452 17.7479 28.179 18.142 27.8072 18.5275L27.2438 19.1073C27.0551 19.2987 26.8691 19.4957 26.6945 19.7012L25.6269 20.9142C25.4522 21.1197 25.2663 21.3139 25.0973 21.525L24.5874 22.1442L23.5789 23.4079C23.255 23.8385 22.9451 24.2804 22.6296 24.7166C22.3141 25.1529 21.9845 25.5807 21.7028 26.0395C19.3065 29.6267 17.3221 33.4721 15.7871 37.503C14.2861 41.5206 13.2686 45.7023 12.7561 49.96C11.679 58.4906 12.5654 67.1542 15.3477 75.2906C16.7311 79.3461 18.5981 83.2205 20.9084 86.8301C22.0595 88.6344 23.3123 90.3719 24.6606 92.0342L25.7057 93.25C26.0578 93.6525 26.3931 94.0691 26.7677 94.449C27.5086 95.2174 28.2213 96.0167 29.0213 96.7372L30.1791 97.8433L31.3848 98.8959C32.1763 99.6136 33.0299 100.255 33.8637 100.92C34.275 101.257 34.7088 101.561 35.1482 101.871L36.4497 102.8L37.7934 103.669C38.2441 103.951 38.6807 104.26 39.1484 104.514C42.8093 106.697 46.7116 108.448 50.7768 109.732C54.8373 111.003 59.03 111.805 63.273 112.124C67.5263 112.463 71.8041 112.331 76.0283 111.73C80.2483 111.097 84.3798 109.973 88.3385 108.381C92.2872 106.789 96.0389 104.747 99.5191 102.296C101.262 101.077 102.935 99.7617 104.53 98.3556C104.928 98.0009 105.308 97.6294 105.697 97.2692C106.085 96.9089 106.485 96.5543 106.846 96.163C107.578 95.3919 108.345 94.6545 109.026 93.8383C109.57 93.2191 109.35 93.1206 108.809 93.7369L108.285 94.3336C108.108 94.5306 107.919 94.7164 107.736 94.8965L106.632 96.0364C106.269 96.422 105.866 96.7682 105.485 97.1341C105.105 97.4999 104.719 97.8658 104.322 98.2148C102.731 99.617 101.062 100.928 99.3219 102.141C95.8536 104.584 92.1094 106.61 88.1666 108.178C80.2636 111.354 71.7221 112.622 63.2364 111.879C61.1233 111.706 59.0214 111.415 56.9404 111.01L56.5489 110.939L56.1601 110.849L55.3854 110.672L53.8361 110.314L52.3065 109.881C51.7994 109.729 51.2811 109.6 50.7825 109.428C46.7361 108.128 42.8545 106.363 39.216 104.168C35.5806 101.961 32.2036 99.3558 29.1481 96.3995L28.5847 95.8366C28.3959 95.6508 28.2157 95.4538 28.0213 95.2737L26.9227 94.1197C26.5508 93.7398 26.2212 93.3204 25.8691 92.9236C25.517 92.5267 25.1677 92.1242 24.8353 91.7105C23.4948 90.0577 22.254 88.3265 21.1197 86.5262C16.5393 79.3379 13.8096 71.0463 12.9504 62.6028C12.5568 58.3696 12.6693 54.1047 13.2857 49.8981C14.5016 41.4627 17.5808 33.4033 22.3 26.304C24.6757 22.7638 27.4644 19.5184 30.6073 16.6362C35.3326 12.2978 40.7624 8.79437 46.6641 6.27597C47.157 6.07332 47.6584 5.88474 48.1542 5.69054C48.65 5.49634 49.143 5.28807 49.6529 5.12764C50.6698 4.80116 51.6698 4.42683 52.7065 4.16508C56.8149 3.0033 61.0461 2.32973 65.3125 2.15833C69.5747 2.0099 73.8403 2.33367 78.0311 3.12371C86.4088 4.66043 94.3386 8.29397 101.113 13.4136C104.484 16.0045 107.551 18.9683 110.255 22.2483C110.607 22.6452 110.914 23.0927 111.241 23.498C111.567 23.9033 111.891 24.3423 112.207 24.7617L113.117 26.0676L113.57 26.7206C113.722 26.9373 113.852 27.1681 113.998 27.3904L114.843 28.7386L115.055 29.0763L115.249 29.4225L115.641 30.1149C115.897 30.5793 116.167 31.0352 116.415 31.5053L117.131 32.9266L117.491 33.6358C117.61 33.8638 117.813 33.7062 117.317 32.7605Z" fill="#FF945C"/>
<path d="M113.677 82.8359C111.74 86.1937 109.494 89.3635 106.967 92.304C104.415 95.2717 101.529 97.9359 98.3668 100.244L98.0316 100.494L97.6823 100.728L96.9837 101.184L96.2879 101.651C96.0569 101.809 95.8231 101.963 95.5836 102.104C94.6259 102.667 93.6822 103.278 92.6878 103.793C90.7285 104.858 88.7038 105.798 86.6256 106.607C85.5749 106.984 84.5411 107.401 83.4678 107.711C82.9354 107.874 82.4058 108.054 81.8706 108.2L80.2508 108.623C79.9691 108.69 79.7127 108.772 79.4395 108.825L78.6198 108.997C78.0733 109.109 77.5296 109.23 76.9803 109.335L75.3267 109.594L74.4985 109.723L73.6534 109.813C73.0506 109.875 72.4478 109.948 71.8449 110.004L70.028 110.109C69.4223 110.156 68.8167 110.154 68.211 110.159C67.6054 110.165 66.9969 110.187 66.3913 110.159C65.18 110.106 63.9658 110.083 62.7602 109.945L61.8531 109.864L61.3996 109.821L60.9489 109.757L59.146 109.501C56.7486 109.115 54.3805 108.566 52.0585 107.857C50.8894 107.533 49.757 107.094 48.6133 106.692C48.0499 106.486 47.4865 106.233 46.9231 106.005C46.3597 105.777 45.7963 105.546 45.2583 105.273L43.6188 104.488C43.0836 104.207 42.554 103.925 42.0244 103.624L41.23 103.188L40.4582 102.712C39.9455 102.391 39.4271 102.084 38.9201 101.755C37.9313 101.063 36.9172 100.41 35.9763 99.6527L35.258 99.0897L34.9002 98.8083L34.5538 98.5268L33.1762 97.3588C29.5651 94.1626 26.3988 90.4974 23.7619 86.461L23.2577 85.7011C23.0887 85.4478 22.9422 85.1804 22.7844 84.9215L21.8492 83.3566C21.2858 82.2815 20.6717 81.2289 20.159 80.1171L19.7984 79.3234L19.6012 78.9125L19.4238 78.4931L18.7111 76.8044C18.4801 76.2415 18.2857 75.6646 18.0688 75.096L17.7505 74.2517L17.4688 73.382C16.7142 71.0612 16.1286 68.689 15.7166 66.2838L15.4349 64.4825C15.3532 63.8802 15.2997 63.2751 15.2321 62.6728L15.1363 61.7693L15.0856 60.8602C15.0546 60.2551 15.0124 59.65 14.9926 59.0449C14.9926 57.8318 14.9504 56.6188 15.0321 55.4057L15.0715 54.4966C15.0715 54.1926 15.0912 53.8915 15.1279 53.5903L15.2969 51.7778L15.3391 51.3247L15.4039 50.8743L15.5335 49.9737L15.6631 49.073L15.7279 48.6227L15.8152 48.1752L16.1645 46.388C16.1955 46.2388 16.2208 46.0897 16.2546 45.9405L16.3645 45.4986L16.5842 44.6149C17.7504 39.8977 19.5709 35.3665 21.9928 31.153C22.6323 30.1229 23.2323 29.0675 23.9422 28.0852L24.4577 27.3366L24.714 26.9622L24.9957 26.5992L26.1 25.1553C26.4662 24.674 26.8775 24.2265 27.2634 23.7481L27.8493 23.0557C28.0465 22.8249 28.2606 22.611 28.4663 22.3887L29.7085 21.0658L31.0128 19.8049C32.7687 18.1408 34.6381 16.6004 36.6073 15.1948L37.3398 14.66L38.0947 14.159C38.6018 13.8297 39.1004 13.4863 39.6102 13.1655C40.6525 12.5519 41.6751 11.9046 42.7512 11.3529C51.3195 6.72115 61.009 4.56353 70.735 5.12162C74.3615 5.32437 77.9598 5.87862 81.479 6.77655C85.0056 7.67031 88.4234 8.94824 91.6708 10.5874C98.2093 13.8651 103.994 18.4657 108.657 24.0971C110.99 26.9533 113.002 30.0577 114.655 33.354C116.308 36.6582 110.973 25.6 103.913 18.9324L102.567 17.7081C102.347 17.4998 102.113 17.3056 101.877 17.1171L101.173 16.5542C100.251 15.7633 99.2513 15.0766 98.2851 14.3504C97.7865 14.0099 97.2766 13.6806 96.7724 13.3456L96.0146 12.8475L95.2343 12.3859C94.7103 12.0819 94.1977 11.7611 93.6681 11.4712L92.0624 10.6268C91.5328 10.3454 90.9779 10.0949 90.4314 9.83874L89.6088 9.45597C89.3271 9.3265 89.0623 9.19984 88.7778 9.09289L87.0876 8.41178L86.6679 8.24291L86.2397 8.09374L85.3946 7.79541C84.2678 7.37041 83.0959 7.05518 81.941 6.709C81.6593 6.61612 81.3579 6.55139 81.0649 6.47822L80.1832 6.26431C79.5944 6.1264 79.0141 5.96034 78.4169 5.85902C66.6201 3.34756 54.3183 4.94208 43.5534 10.3779C32.7884 15.8138 24.2076 24.7641 19.235 35.7435L18.5364 37.4069C18.4209 37.6883 18.2998 37.9698 18.1899 38.2512L17.8829 39.0956C17.68 39.6585 17.466 40.2214 17.2716 40.7843L16.742 42.5096C16.6575 42.7911 16.5589 43.0725 16.4828 43.3737L16.2631 44.249C16.1194 44.8344 15.9617 45.4142 15.8265 46.0024L15.4744 47.7727C15.418 48.0542 15.3504 48.361 15.3025 48.6593L15.1701 49.5515C13.6465 59.1323 14.8098 68.9475 18.5308 77.9077C22.3019 86.8858 28.474 94.6534 36.3707 100.359C38.3235 101.782 40.3726 103.067 42.5033 104.207L43.3005 104.64C43.5653 104.784 43.8442 104.905 44.1146 105.04L45.7484 105.825L47.4048 106.531L48.2499 106.883L49.095 107.193L50.8021 107.809L52.5402 108.341L53.4106 108.606L54.2923 108.825L56.0558 109.267L57.8276 109.627L58.7206 109.802L59.6192 109.931L61.4193 110.187L63.2278 110.353C65.7974 110.57 68.38 110.586 70.952 110.398L71.9154 110.337L72.8731 110.23C73.5098 110.151 74.1492 110.094 74.7859 109.999L76.6845 109.684L77.1578 109.602L77.6282 109.501L78.5691 109.298L79.5099 109.095C79.8226 109.025 80.1297 108.932 80.4395 108.85C81.0565 108.679 81.679 108.527 82.2931 108.344L84.1241 107.756L84.5805 107.609L85.0312 107.44L85.9326 107.103L86.8341 106.765C87.1327 106.65 87.4256 106.514 87.7214 106.391C88.3102 106.132 88.9046 105.892 89.4849 105.622L91.2173 104.778C91.499 104.643 91.7807 104.496 92.0624 104.333L92.9075 103.872L93.7075 103.435C93.9723 103.289 94.2287 103.123 94.4878 102.965L96.0456 102.011C97.0484 101.319 98.0823 100.663 99.0457 99.9031L99.7809 99.3402L100.147 99.0588L100.502 98.7773L101.911 97.6037C102.378 97.2068 102.82 96.7819 103.277 96.3709L103.958 95.7517L104.609 95.1016C106.354 93.3856 107.982 91.5539 109.48 89.6189L110.584 88.1638C110.939 87.6713 111.274 87.1647 111.621 86.6665L112.139 85.9178L112.618 85.1467C112.936 84.6316 113.263 84.125 113.576 83.6099C114.198 82.5348 114.283 81.7833 113.677 82.8359Z" fill="#FF945C"/>
<g opacity="0.6">
<path opacity="0.6" d="M114.097 35.1856L113.457 33.8544L112.753 32.5512C109.083 25.7111 103.897 19.8 97.5894 15.2701C91.1329 10.7106 83.6002 7.85953 76.1381 6.61551C72.0449 5.92659 67.8868 5.70376 63.7434 5.95129C63.225 5.96536 62.7095 6.02446 62.194 6.07512L60.6447 6.22711L59.1066 6.4579C58.5939 6.53389 58.0784 6.60425 57.5714 6.71965L56.0417 7.02924C55.7854 7.07709 55.5319 7.1362 55.2812 7.20656L54.5234 7.40076C54.022 7.53586 53.5093 7.64562 53.0135 7.80324L51.5205 8.27045C51.2726 8.35207 51.0191 8.41962 50.774 8.50968L50.0387 8.79113L48.5655 9.33996L47.1232 9.93945L46.3992 10.2519C46.157 10.356 45.926 10.4798 45.6893 10.5952L44.2808 11.2932C43.8076 11.5268 43.3569 11.7998 42.8949 12.0503L42.2047 12.4331L41.8611 12.6245L41.5258 12.8328L40.185 13.6771C39.7314 13.9445 39.3089 14.2597 38.8723 14.5524C38.4356 14.8451 38.0018 15.1407 37.5793 15.4531L36.3257 16.4072L35.7003 16.8857L35.0975 17.3923L33.8834 18.3886L32.7228 19.4469C31.934 20.1336 31.2185 20.8992 30.4692 21.6253C30.2805 21.8054 30.103 21.9968 29.9283 22.1882L29.4016 22.7652C29.0551 23.1536 28.6889 23.5251 28.3565 23.9276L27.3593 25.1322C27.1959 25.3348 27.024 25.529 26.8635 25.7373L26.3958 26.3621L25.4578 27.6118C25.1592 28.0396 24.8747 28.4758 24.5817 28.9065C23.9789 29.7508 23.4549 30.6655 22.9197 31.5549C22.638 31.994 22.4098 32.464 22.1563 32.9199L21.4182 34.2991L20.7478 35.7063C20.5224 36.1763 20.2943 36.6464 20.1027 37.1333C19.7055 38.0986 19.2858 39.0556 18.9562 40.0519L18.4322 41.5324L17.9815 43.0381C17.3973 45.024 16.9271 47.0415 16.573 49.0809C16.4857 49.5903 16.4266 50.1054 16.3505 50.6176L16.2434 51.386C16.204 51.6421 16.1702 51.8982 16.1533 52.1571L16.0181 53.7051C15.9956 53.9641 15.9674 54.2202 15.9533 54.4791L15.9251 55.2559L15.866 56.8123C15.866 57.3302 15.866 57.8509 15.866 58.3688V59.1484V59.5368L15.8913 59.9252L15.9871 61.4816C16.0068 62.0023 16.0716 62.5174 16.1308 63.0352L16.3026 64.586L16.5533 66.1284C16.635 66.6434 16.7111 67.1585 16.835 67.6651L17.159 69.1878C17.2069 69.4439 17.2717 69.6944 17.3393 69.9449L17.5393 70.6963C17.6773 71.1973 17.7928 71.7039 17.9477 72.1993L18.4181 73.6853C18.497 73.933 18.5703 74.1807 18.6576 74.4284L18.9393 75.1601L19.483 76.6237C19.6802 77.105 19.8914 77.5806 20.0914 78.0591C20.2914 78.5376 20.4886 79.0217 20.7281 79.4832C21.1844 80.4177 21.6211 81.3633 22.1366 82.2696C22.3901 82.7256 22.6267 83.1899 22.8943 83.6375L23.7084 84.9715C23.8465 85.1939 23.9901 85.419 24.1169 85.6386L24.5564 86.2859L25.4324 87.589L26.3677 88.8443C26.6804 89.2608 26.9846 89.6887 27.3254 90.0827L28.317 91.2901L28.5649 91.5913L28.8269 91.8727L29.348 92.4525C29.7002 92.8353 30.0326 93.235 30.396 93.6093L31.4889 94.7351L32.0354 95.298L32.5988 95.8271L33.7397 96.891C34.1284 97.2372 34.5313 97.5637 34.9285 97.9042C35.3257 98.2448 35.7144 98.591 36.1341 98.8977C39.4161 101.496 43.0126 103.671 46.8387 105.371C54.5459 108.692 63.0842 110.246 71.4534 109.615C72.5042 109.568 73.5436 109.421 74.5887 109.303C75.1127 109.255 75.6282 109.151 76.1465 109.067C76.6649 108.982 77.1832 108.898 77.7015 108.802L79.2424 108.464L80.0142 108.298C80.2706 108.236 80.5213 108.163 80.7776 108.096L82.3354 107.657C82.8425 107.516 83.3383 107.338 83.8397 107.184C85.8387 106.536 87.798 105.772 89.7075 104.895L91.1159 104.2L91.823 103.854C92.054 103.733 92.2822 103.601 92.5132 103.477L93.8879 102.717C94.3442 102.461 94.7808 102.171 95.2287 101.901C97.0096 100.798 98.7243 99.5926 100.364 98.2898L101.57 97.2794L102.173 96.7756L102.753 96.2437L103.908 95.177C104.288 94.8167 104.646 94.4311 105.015 94.0511C107.954 91.0767 110.504 87.7421 112.604 84.1272C112.832 83.7506 113.035 83.3594 113.212 82.9563C113.311 82.6749 113.319 82.5482 113.263 82.5426C113.207 82.537 113.086 82.6693 112.886 82.9198C112.608 83.2887 112.353 83.674 112.122 84.0737C109.836 87.8966 107.075 91.4154 103.905 94.5465C102.311 96.1063 100.617 97.5608 98.8345 98.9006C97.964 99.5957 97.0203 100.195 96.1076 100.834C95.6428 101.141 95.1611 101.422 94.6992 101.718C94.2372 102.013 93.7526 102.306 93.2569 102.562L91.7864 103.367C91.2906 103.623 90.7836 103.86 90.2821 104.105L89.53 104.47C89.2793 104.592 89.0173 104.693 88.761 104.805L87.2201 105.464C86.6989 105.667 86.175 105.855 85.651 106.052L84.8651 106.334C84.6031 106.427 84.3327 106.505 84.0679 106.59L82.4706 107.096L80.8537 107.527L80.0452 107.741C79.7635 107.806 79.4987 107.859 79.2283 107.918L77.5916 108.267L75.9409 108.549L75.1155 108.684C74.8338 108.723 74.5521 108.749 74.2845 108.782L72.6225 108.971C72.0591 109.016 71.5098 109.044 70.9548 109.083L70.1097 109.137C69.828 109.157 69.5463 109.137 69.2646 109.157L67.5942 109.182C63.1464 109.14 58.722 108.533 54.4276 107.375C50.14 106.18 46.0166 104.461 42.1512 102.255C38.2808 100.039 34.7052 97.3435 31.5087 94.2341C29.907 92.6795 28.4098 91.021 27.0268 89.2693C26.3592 88.3771 25.6634 87.5046 25.055 86.5702C24.7479 86.1058 24.4155 85.6583 24.1282 85.1798L23.2605 83.7332C22.9591 83.2631 22.7169 82.765 22.4464 82.2781L22.0521 81.5435C21.9197 81.3014 21.7873 81.0566 21.6746 80.8033C21.2013 79.8013 20.7112 78.8078 20.3112 77.7748C19.4677 75.7376 18.7609 73.6465 18.1956 71.5154C17.0759 67.2617 16.479 62.8877 16.4181 58.4898C16.4181 57.9269 16.3956 57.3865 16.4181 56.8377L16.4829 55.1856C16.4829 54.9041 16.4998 54.6227 16.5167 54.3609L16.5899 53.5391L16.7336 51.8926C17.2594 47.513 18.3199 43.2142 19.8914 39.0922L20.5224 37.5667L20.8379 36.804L21.1929 36.0581L21.8971 34.5664C22.1507 34.0795 22.4155 33.5982 22.6746 33.1113C24.7774 29.2357 27.3633 25.642 30.3706 22.4162C31.8796 20.8059 33.4925 19.2959 35.1989 17.8961C36.044 17.1727 36.937 16.5395 37.8159 15.8753C38.261 15.5488 38.7258 15.2561 39.1793 14.9437C39.6328 14.6312 40.0892 14.3216 40.5652 14.0486L41.9737 13.2043C42.4498 12.9228 42.94 12.6808 43.4217 12.419C44.3766 11.8758 45.3936 11.4452 46.371 10.9639C46.8697 10.7388 47.3823 10.5389 47.8838 10.325L48.6415 10.0098C48.8922 9.90286 49.1542 9.82124 49.4106 9.72836L50.9543 9.16546C51.4726 8.99096 51.9994 8.84179 52.5205 8.67855C56.708 7.41687 61.0381 6.6878 65.4082 6.50856C67.5934 6.42183 69.782 6.47447 71.9605 6.66617C74.1381 6.85488 76.3019 7.17823 78.4395 7.63436C82.7232 8.5733 86.8714 10.0475 90.7864 12.0222C91.7413 12.5485 92.7273 13.0242 93.6512 13.6068C94.1188 13.8882 94.5949 14.1697 95.0597 14.4511L96.4288 15.3574C96.657 15.5094 96.8908 15.6388 97.1105 15.8133L97.7725 16.3002C98.2119 16.6267 98.6626 16.942 99.0993 17.2741L100.378 18.307C100.589 18.4815 100.809 18.6476 101.015 18.8277L101.629 19.3765C102.037 19.7424 103.79 21.3833 104.615 22.2107C105.856 23.4429 107.01 24.7595 108.069 26.151C108.947 27.2768 110.249 29.2836 110.249 29.2836C110.564 29.7311 110.84 30.2011 111.122 30.6683C111.404 31.1355 111.686 31.5971 111.967 32.0756C112.48 33.041 113.032 33.9838 113.483 34.9774C114.466 36.9194 114.548 36.0609 114.097 35.1856Z" fill="#FF945C"/>
</g>
<g opacity="0.7">
<path opacity="0.7" d="M116.66 80.702C114.884 84.5219 112.662 88.1185 110.04 91.4168C107.391 94.7455 104.349 97.7414 100.978 100.339C100.153 101.011 99.2684 101.605 98.4007 102.225C97.9726 102.543 97.5134 102.813 97.0683 103.103L95.719 103.947C93.8919 105.038 92.0054 106.027 90.0681 106.908C82.2919 110.483 73.773 112.148 65.2217 111.766C56.6704 111.383 48.3345 108.964 40.909 104.71C37.2232 102.613 33.8016 100.084 30.7172 97.1753C27.6577 94.2573 24.926 91.0146 22.5704 87.5046C20.2271 83.9768 18.2908 80.1954 16.7984 76.2325C16.5956 75.7428 16.4407 75.239 16.2688 74.738L15.7646 73.2351L15.3364 71.7096C15.1956 71.2002 15.0378 70.6964 14.9336 70.1785C14.7054 69.1484 14.4406 68.1239 14.2801 67.0825L13.9984 65.5233L13.8012 63.9528C13.6406 62.8636 13.5871 61.7631 13.497 60.6654C13.4406 60.1166 13.4491 59.565 13.4293 59.0133C13.4096 58.4617 13.3927 57.9128 13.3871 57.3612C13.3947 55.1543 13.5301 52.9496 13.7927 50.7584C13.8632 50.2123 13.9223 49.6635 13.9984 49.1147L14.2801 47.4851C14.4435 46.393 14.7252 45.3235 14.9618 44.2484C15.0716 43.708 15.2435 43.1817 15.3872 42.6497L15.8407 41.0595L16.3703 39.4947C16.5449 38.974 16.7196 38.4505 16.9337 37.9439L17.545 36.4212C17.6435 36.1651 17.7534 35.9118 17.8717 35.6641L18.2154 34.9155C18.4492 34.4173 18.6633 33.9107 18.9168 33.4238L19.6802 31.9659C19.8098 31.7238 19.9309 31.4789 20.0633 31.2369L20.4802 30.5276L21.3253 29.1204C21.607 28.656 21.9254 28.2029 22.2268 27.7441C22.5282 27.2853 22.8183 26.8209 23.1535 26.3847C23.8015 25.5009 24.4325 24.6031 25.1395 23.7644C25.4888 23.3422 25.8184 22.9031 26.1818 22.4922L27.2748 21.2623C27.4579 21.0596 27.6354 20.8485 27.8241 20.6515L28.3875 20.0633L29.5368 18.8868L30.7397 17.761C31.1397 17.3839 31.5369 17.0067 31.9623 16.6605C35.2758 13.7549 38.9186 11.247 42.8161 9.18801L44.2865 8.42527L45.7908 7.73572C46.7852 7.25162 47.8247 6.89136 48.8472 6.46355C49.3599 6.25809 49.8867 6.10048 50.4078 5.91473L51.191 5.64734C51.4501 5.55447 51.7121 5.47003 51.9797 5.39967C53.0417 5.11821 54.0924 4.77203 55.1714 4.55531C59.3639 3.57794 63.6656 3.14749 67.9689 3.27471C72.2374 3.40638 76.479 3.999 80.6199 5.04223C80.8819 5.09852 81.1411 5.16888 81.3974 5.24487L82.1721 5.4644C82.6876 5.61357 83.2059 5.74586 83.7186 5.90628L85.2454 6.41571L86.0088 6.66901C86.2652 6.75345 86.5103 6.8604 86.761 6.95047L88.2652 7.53025L88.6427 7.67661L89.0117 7.83985L89.7498 8.16634C90.2399 8.38868 90.7385 8.59132 91.2231 8.82774L92.6653 9.55107C96.509 11.5031 100.087 13.9376 103.314 16.7956C104.136 17.4824 104.88 18.2564 105.654 18.991C105.852 19.1739 106.035 19.3681 106.218 19.5539L106.767 20.1393C107.128 20.5333 107.508 20.9104 107.857 21.3185L108.897 22.54C109.069 22.7455 109.246 22.9453 109.415 23.1536L109.905 23.7897L110.888 25.059C111.201 25.4925 111.503 25.9344 111.812 26.3706C112.446 27.2347 112.993 28.155 113.573 29.0557C114.046 29.8578 114.255 31.3748 112.072 28.0002C111.815 27.5668 111.508 27.1558 111.226 26.7534L110.364 25.515L109.432 24.347C109.125 23.9501 108.829 23.542 108.494 23.1649C107.838 22.405 107.212 21.6169 106.508 20.8992L105.477 19.8015C105.122 19.4469 104.756 19.1035 104.395 18.7574C101.5 15.9854 98.2848 13.5676 94.8175 11.555C91.3546 9.54485 87.6892 7.90524 83.882 6.66339C80.0892 5.40695 76.1699 4.56978 72.1944 4.16691C68.216 3.76076 64.2039 3.81933 60.2391 4.34142C56.0482 4.90305 51.9452 5.9915 48.0275 7.58091C47.0359 7.94961 46.0838 8.4112 45.1176 8.84182C44.6302 9.05009 44.1682 9.30621 43.7091 9.54263C43.2499 9.77905 42.7654 10.0211 42.3006 10.2688C40.451 11.2865 38.6586 12.4046 36.9314 13.618C35.2054 14.8264 33.5456 16.1267 31.9594 17.5133L30.7848 18.5857C30.4016 18.9459 30.0045 19.2921 29.6439 19.6777C28.9087 20.432 28.1537 21.1666 27.4692 21.9687C24.6321 25.1015 22.2008 28.5785 20.2323 32.3177C18.2638 36.068 16.7634 40.0456 15.7646 44.1611C14.7832 48.2754 14.2571 52.4848 14.1956 56.7139C14.1239 61.0502 14.5713 65.3796 15.528 69.61C16.4733 73.8576 17.9576 77.9672 19.945 81.839C23.9763 89.641 29.8514 96.3427 37.061 101.363C37.4948 101.695 37.9652 101.974 38.4188 102.278C38.8723 102.582 39.3258 102.872 39.7991 103.153L41.2076 103.984L41.9118 104.4L42.6358 104.78L44.0837 105.543C44.5711 105.788 45.0697 106.007 45.5626 106.241C46.5429 106.722 47.5627 107.113 48.5712 107.527C49.0726 107.744 49.5909 107.913 50.1064 108.09L51.6529 108.63L53.2276 109.089C53.7544 109.238 54.2727 109.407 54.8108 109.523C55.8756 109.767 56.9348 110.052 58.0193 110.223L59.6363 110.505L61.2673 110.716C63.4513 110.985 65.6501 111.117 67.8506 111.11L69.5013 111.056C70.0647 111.034 70.6028 111.031 71.1493 110.972C72.2451 110.874 73.3437 110.803 74.4339 110.629C74.9775 110.55 75.524 110.485 76.0677 110.395L77.6875 110.088L78.4988 109.936L79.3016 109.745L80.9045 109.362C81.4369 109.224 81.9608 109.061 82.4876 108.912C83.0144 108.763 83.5468 108.63 84.0623 108.433C85.0989 108.076 86.144 107.747 87.161 107.324C89.2066 106.532 91.2061 105.625 93.1499 104.608C95.0832 103.576 96.955 102.432 98.7557 101.183C99.674 100.575 100.533 99.8941 101.406 99.213C101.852 98.8893 102.252 98.5178 102.68 98.166C103.108 97.8142 103.525 97.4624 103.93 97.0937L105.133 95.9679C105.333 95.7793 105.536 95.5964 105.731 95.405L106.294 94.8111L107.438 93.6262L108.519 92.385C111.395 89.052 113.842 85.3731 115.804 81.4337C116.776 79.548 117.415 79.0498 116.66 80.702Z" fill="#FF945C"/>
</g>
</g>
<path d="M44.1519 49.6099C48.3868 49.6099 50.5042 51.224 50.5042 54.4521C50.5042 55.8744 50.0008 57.041 48.994 57.9519C48.0032 58.8628 46.8207 59.3182 45.4463 59.3182C44.072 59.3182 42.9054 59.0945 41.9465 58.647V60.9722C41.9465 62.6822 41.9945 63.8488 42.0904 64.472C42.2022 65.0953 42.3541 65.4868 42.5458 65.6466C42.9134 65.9502 43.4967 66.102 44.2957 66.102L44.3436 66.3897H37.8715L37.9194 66.102C38.7184 66.102 39.3017 65.9502 39.6693 65.6466C40.0688 65.311 40.2686 63.7529 40.2686 60.9722V55.0274C40.2686 53.3175 40.2126 52.1509 40.1008 51.5276C40.0049 50.9044 39.8611 50.5129 39.6693 50.3531C39.3017 50.0494 38.7184 49.8976 37.9194 49.8976L37.8715 49.6099H44.1519ZM41.9465 50.1613V58.0478C42.7775 58.4952 43.7524 58.719 44.871 58.719C46.0056 58.719 46.9165 58.3674 47.6037 57.6642C48.2909 56.9451 48.6345 55.8744 48.6345 54.4521C48.6345 52.6782 48.0592 51.4957 46.9086 50.9044C45.9657 50.409 44.8311 50.1613 43.5047 50.1613H41.9465Z" fill="#282828"/>
<path d="M59.7973 54.6918C60.1968 54.6918 60.5484 54.7797 60.852 54.9555C61.1557 55.1313 61.3075 55.371 61.3075 55.6746C61.3075 55.9783 61.2116 56.218 61.0198 56.3938C60.8281 56.5696 60.6123 56.6574 60.3726 56.6574C60.1329 56.6574 59.8293 56.5536 59.4617 56.3458C59.1101 56.1381 58.7346 56.0342 58.3351 56.0342C57.7118 56.0342 57.2004 56.6095 56.8009 57.7601C56.4174 58.9107 56.2256 60.2451 56.2256 61.7633C56.2256 63.8088 56.3295 65.0473 56.5372 65.4788C56.6012 65.6226 56.721 65.7585 56.8968 65.8863C57.0726 65.9982 57.2564 66.0621 57.4481 66.0781C57.6399 66.0941 57.9116 66.102 58.2632 66.102L58.3111 66.3897H52.4861L52.5341 66.102C53.0455 66.102 53.413 66.0781 53.6367 66.0301C53.8765 65.9662 54.0762 65.7665 54.236 65.4309C54.3958 65.0953 54.4837 64.6798 54.4997 64.1844C54.5317 63.673 54.5476 62.866 54.5476 61.7633V60.373C54.5476 58.1516 54.4837 56.8892 54.3559 56.5855C54.244 56.2819 54.1401 56.0422 54.0443 55.8664C53.9484 55.6906 53.8045 55.5708 53.6128 55.5068C53.2612 55.4109 52.7978 55.363 52.2225 55.363L52.1745 55.0993C53.5329 54.9076 54.8832 54.8117 56.2256 54.8117V58.3354C56.4014 57.2008 56.7929 56.3139 57.4002 55.6746C58.0235 55.0194 58.8225 54.6918 59.7973 54.6918Z" fill="#282828"/>
<path d="M62.5148 60.7325C62.5148 59.0546 62.9943 57.6482 63.9531 56.5136C64.912 55.379 66.2144 54.8117 67.8604 54.8117C69.5064 54.8117 70.8328 55.379 71.8396 56.5136C72.8464 57.6482 73.3498 59.0546 73.3498 60.7325C73.3498 62.4105 72.8624 63.8168 71.8875 64.9514C70.9287 66.0701 69.6263 66.6294 67.9802 66.6294C66.3342 66.6294 65.0078 66.0621 64.0011 64.9275C63.0102 63.7928 62.5148 62.3945 62.5148 60.7325ZM65.2715 64.6158C65.9107 65.6386 66.8137 66.15 67.9802 66.15C69.1468 66.15 70.0258 65.6466 70.6171 64.6398C71.2243 63.633 71.528 62.3386 71.528 60.7565C71.528 59.1584 71.2084 57.848 70.5691 56.8252C69.9299 55.8025 69.027 55.2911 67.8604 55.2911C66.7098 55.2911 65.8308 55.8025 65.2236 56.8252C64.6323 57.832 64.3366 59.1265 64.3366 60.7086C64.3366 62.2906 64.6483 63.5931 65.2715 64.6158Z" fill="#282828"/>
<path d="M79.6836 55.5787V60.9722C79.6836 62.6822 79.7315 63.8488 79.8274 64.472C79.9393 65.0953 80.0911 65.4868 80.2828 65.6466C80.6504 65.9502 81.2337 66.102 82.0327 66.102L82.0807 66.3897H75.6325L75.6804 66.102C76.0639 66.102 76.3676 66.0861 76.5913 66.0541C76.831 66.0221 77.0467 65.9343 77.2385 65.7904C77.4303 65.6466 77.5661 65.4868 77.646 65.311C77.7419 65.1192 77.8218 64.8076 77.8857 64.3761C77.9656 63.8168 78.0056 62.6822 78.0056 60.9722V55.5787H75.8002V55.0514H78.0056C78.0056 52.031 78.5809 50.0814 79.7315 49.2024C80.3388 48.755 81.0659 48.5312 81.9129 48.5312C82.7599 48.5312 83.5669 48.755 84.334 49.2024C85.101 49.6499 85.4846 50.1613 85.4846 50.7366C85.4846 50.9763 85.3887 51.184 85.1969 51.3598C85.0211 51.5356 84.7814 51.6235 84.4778 51.6235C84.1741 51.6235 83.9105 51.4957 83.6867 51.24C83.463 50.9843 83.2952 50.7126 83.1833 50.425C83.0875 50.1213 82.9117 49.8417 82.656 49.586C82.4003 49.3303 82.0807 49.2024 81.6971 49.2024C80.8821 49.2024 80.3388 49.586 80.0671 50.3531C79.8114 51.1041 79.6836 52.2947 79.6836 53.9247V55.0514H82.8477V55.5787H79.6836Z" fill="#282828"/>
<path d="M94.4604 60.325H86.5979V60.7325C86.5979 62.4265 86.9575 63.7209 87.6766 64.6158C88.3957 65.4948 89.2907 65.9343 90.3614 65.9343C91.9594 65.9343 93.1101 65.295 93.8132 64.0166L94.1728 64.2083C93.3418 65.8224 91.9515 66.6294 90.0018 66.6294C88.5635 66.6294 87.333 66.11 86.3103 65.0713C85.2875 64.0325 84.7761 62.6342 84.7761 60.8764C84.7761 59.1025 85.2236 57.6482 86.1185 56.5136C87.0294 55.379 88.2359 54.8117 89.7381 54.8117C91.2563 54.8117 92.4229 55.331 93.2379 56.3698C94.0529 57.3926 94.4604 58.711 94.4604 60.325ZM89.81 55.2911C88.8832 55.2911 88.148 55.6906 87.6047 56.4896C87.0773 57.2727 86.7577 58.3194 86.6459 59.6299H92.6147C92.5028 56.7373 91.5679 55.2911 89.81 55.2911Z" fill="#282828"/>
<path d="M97.8677 62.818C97.8677 63.8568 98.1473 64.6398 98.7067 65.1672C99.266 65.6786 99.9292 65.9343 100.696 65.9343C101.479 65.9343 102.111 65.7585 102.59 65.4069C103.069 65.0553 103.309 64.5839 103.309 63.9926C103.309 63.3853 103.101 62.8899 102.686 62.5064C102.286 62.1228 101.799 61.8112 101.224 61.5715C100.648 61.3318 100.065 61.0841 99.4737 60.8284C98.8984 60.5727 98.403 60.1972 97.9875 59.7018C97.588 59.2064 97.3883 58.5432 97.3883 57.7122C97.3883 56.8812 97.7558 56.194 98.4909 55.6507C99.242 55.0913 100.105 54.8117 101.08 54.8117C102.47 54.8117 103.557 55.0354 104.34 55.4829C104.34 56.218 104.244 57.2407 104.052 58.5512L103.765 58.4792C103.765 57.4245 103.525 56.6574 103.045 56.178C102.566 55.6986 101.983 55.4589 101.296 55.4589C100.624 55.4589 100.081 55.6347 99.6655 55.9863C99.266 56.3378 99.0662 56.8173 99.0662 57.4245C99.0662 58.0158 99.266 58.4952 99.6655 58.8628C100.081 59.2144 100.576 59.51 101.152 59.7497C101.727 59.9894 102.302 60.2451 102.878 60.5168C103.469 60.7725 103.964 61.148 104.364 61.6434C104.779 62.1229 104.987 62.7141 104.987 63.4173C104.987 64.4401 104.588 65.2311 103.789 65.7904C102.99 66.3498 101.935 66.6294 100.624 66.6294C99.3299 66.6294 98.2352 66.2858 97.3403 65.5987C97.3403 64.7996 97.4202 63.8568 97.58 62.7701L97.8677 62.818Z" fill="#282828"/>
<path d="M108.202 62.818C108.202 63.8568 108.482 64.6398 109.041 65.1672C109.601 65.6786 110.264 65.9343 111.031 65.9343C111.814 65.9343 112.445 65.7585 112.925 65.4069C113.404 65.0553 113.644 64.5839 113.644 63.9926C113.644 63.3853 113.436 62.8899 113.021 62.5064C112.621 62.1228 112.134 61.8112 111.558 61.5715C110.983 61.3318 110.4 61.0841 109.808 60.8284C109.233 60.5727 108.738 60.1972 108.322 59.7018C107.923 59.2064 107.723 58.5432 107.723 57.7122C107.723 56.8812 108.091 56.194 108.826 55.6507C109.577 55.0913 110.44 54.8117 111.415 54.8117C112.805 54.8117 113.892 55.0354 114.675 55.4829C114.675 56.218 114.579 57.2407 114.387 58.5512L114.099 58.4792C114.099 57.4245 113.86 56.6574 113.38 56.178C112.901 55.6986 112.317 55.4589 111.63 55.4589C110.959 55.4589 110.416 55.6347 110 55.9863C109.601 56.3378 109.401 56.8173 109.401 57.4245C109.401 58.0158 109.601 58.4952 110 58.8628C110.416 59.2144 110.911 59.51 111.486 59.7497C112.062 59.9894 112.637 60.2451 113.212 60.5168C113.804 60.7725 114.299 61.148 114.699 61.6434C115.114 62.1229 115.322 62.7141 115.322 63.4173C115.322 64.4401 114.922 65.2311 114.123 65.7904C113.324 66.3498 112.269 66.6294 110.959 66.6294C109.665 66.6294 108.57 66.2858 107.675 65.5987C107.675 64.7996 107.755 63.8568 107.915 62.7701L108.202 62.818Z" fill="#282828"/>
<path d="M119.76 51.9351C119.488 51.6635 119.352 51.3439 119.352 50.9763C119.352 50.6087 119.488 50.2891 119.76 50.0175C120.031 49.7458 120.351 49.6099 120.718 49.6099C121.086 49.6099 121.406 49.7458 121.677 50.0175C121.949 50.2891 122.085 50.6087 122.085 50.9763C122.085 51.3439 121.949 51.6635 121.677 51.9351C121.406 52.2068 121.086 52.3427 120.718 52.3427C120.351 52.3427 120.031 52.2068 119.76 51.9351ZM121.629 54.8117V62.4345C121.629 64.1124 121.725 65.1432 121.917 65.5267C122.125 65.9103 122.7 66.102 123.643 66.102L123.691 66.3897H117.842L117.89 66.102C118.849 66.102 119.432 65.9103 119.64 65.5267C119.848 65.1272 119.951 64.0805 119.951 62.3865V60.7086C119.951 58.8548 119.895 57.6323 119.784 57.041C119.688 56.4337 119.544 56.0422 119.352 55.8664C118.969 55.5148 118.377 55.339 117.578 55.339L117.53 55.0754C118.921 54.8996 120.287 54.8117 121.629 54.8117Z" fill="#282828"/>
<path d="M125.857 60.7325C125.857 59.0546 126.337 57.6482 127.296 56.5136C128.255 55.379 129.557 54.8117 131.203 54.8117C132.849 54.8117 134.175 55.379 135.182 56.5136C136.189 57.6482 136.692 59.0546 136.692 60.7325C136.692 62.4105 136.205 63.8168 135.23 64.9514C134.271 66.0701 132.969 66.6294 131.323 66.6294C129.677 66.6294 128.35 66.0621 127.344 64.9275C126.353 63.7928 125.857 62.3945 125.857 60.7325ZM128.614 64.6158C129.253 65.6386 130.156 66.15 131.323 66.15C132.489 66.15 133.368 65.6466 133.96 64.6398C134.567 63.633 134.871 62.3386 134.871 60.7565C134.871 59.1584 134.551 57.848 133.912 56.8252C133.273 55.8025 132.37 55.2911 131.203 55.2911C130.052 55.2911 129.173 55.8025 128.566 56.8252C127.975 57.832 127.679 59.1265 127.679 60.7086C127.679 62.2906 127.991 63.5931 128.614 64.6158Z" fill="#282828"/>
<path d="M142.954 54.8117V59.1025C143.098 57.9519 143.498 56.9531 144.153 56.1061C144.808 55.2432 145.679 54.8117 146.766 54.8117C149.211 54.8117 150.433 56.0901 150.433 58.647V62.4345C150.433 64.0965 150.537 65.1272 150.745 65.5267C150.969 65.9103 151.544 66.102 152.471 66.102L152.519 66.3897H146.694L146.742 66.102C147.701 66.102 148.276 65.9023 148.468 65.5028C148.659 65.1033 148.755 64.0086 148.755 62.2187V58.8868C148.755 57.7841 148.579 56.9531 148.228 56.3938C147.892 55.8344 147.349 55.5548 146.598 55.5548C145.863 55.5548 145.248 55.8105 144.752 56.3218C144.257 56.8173 143.889 57.4485 143.649 58.2156C143.186 59.7018 142.954 61.196 142.954 62.6982C142.954 64.2003 143.05 65.1432 143.242 65.5267C143.45 65.9103 144.025 66.102 144.968 66.102L145.016 66.3897H139.167L139.215 66.102C140.174 66.102 140.757 65.9103 140.965 65.5267C141.172 65.1272 141.276 64.0805 141.276 62.3865V60.4688C141.276 58.0717 141.156 56.6255 140.917 56.1301C140.837 55.9543 140.693 55.7945 140.485 55.6507C140.293 55.5068 140.078 55.4189 139.838 55.387C139.614 55.355 139.303 55.339 138.903 55.339L138.855 55.0754C140.246 54.8996 141.612 54.8117 142.954 54.8117Z" fill="#282828"/>
<path d="M163.591 58.647V61.0681C163.591 62.842 163.646 64.0086 163.758 64.5679C163.87 65.1112 164.142 65.3829 164.573 65.3829C164.845 65.3829 165.205 65.2711 165.652 65.0473L165.772 65.287C165.644 65.3829 165.476 65.5028 165.269 65.6466C165.061 65.7744 164.637 65.9502 163.998 66.174C163.359 66.3977 162.744 66.5096 162.152 66.5096C161.992 65.8384 161.913 64.7677 161.913 63.2974C161.561 64.2882 161.098 65.0953 160.522 65.7185C159.963 66.3258 159.18 66.6294 158.173 66.6294C157.166 66.6294 156.367 66.3657 155.776 65.8384C155.201 65.295 154.913 64.5599 154.913 63.633C154.913 61.0601 157.246 59.7657 161.913 59.7497V58.8868C161.913 57.7361 161.745 56.8572 161.409 56.2499C161.074 55.6427 160.45 55.339 159.539 55.339C159.028 55.339 158.613 55.4669 158.293 55.7226C157.973 55.9783 157.758 56.2579 157.646 56.5616C157.374 57.3926 156.967 57.8081 156.423 57.8081C155.896 57.8081 155.632 57.5124 155.632 56.9211C155.632 56.3139 156.032 55.8105 156.831 55.4109C157.63 55.0114 158.597 54.8117 159.731 54.8117C160.866 54.8117 161.793 55.1393 162.512 55.7945C163.231 56.4337 163.591 57.3846 163.591 58.647ZM156.735 63.7289C156.735 64.3522 156.887 64.8715 157.19 65.287C157.494 65.6866 157.973 65.8863 158.629 65.8863C159.3 65.8863 159.907 65.5667 160.45 64.9275C160.994 64.2723 161.361 63.5531 161.553 62.7701C161.761 61.971 161.881 61.148 161.913 60.301C160.139 60.317 158.828 60.6446 157.981 61.2839C157.15 61.9231 156.735 62.7381 156.735 63.7289Z" fill="#282828"/>
<path d="M171.245 48.747V62.2187C171.245 63.9926 171.349 65.0873 171.557 65.5028C171.764 65.9023 172.34 66.102 173.283 66.102L173.33 66.3897H167.458L167.506 66.102C168.464 66.102 169.048 65.9023 169.255 65.5028C169.463 65.1033 169.567 64.0086 169.567 62.2187V53.0618C169.567 51.2879 169.471 50.2172 169.279 49.8497C169.215 49.7378 169.096 49.6259 168.92 49.5141C168.744 49.4022 168.552 49.3383 168.345 49.3223C168.153 49.3063 167.873 49.2983 167.506 49.2983L167.458 49.0346C168.656 48.8429 169.919 48.747 171.245 48.747Z" fill="#282828"/>
<path d="M178.911 48.747V62.2187C178.911 63.9926 179.015 65.0873 179.223 65.5028C179.43 65.9023 180.006 66.102 180.949 66.102L180.997 66.3897H175.124L175.172 66.102C176.13 66.102 176.714 65.9023 176.921 65.5028C177.129 65.1033 177.233 64.0086 177.233 62.2187V53.0618C177.233 51.2879 177.137 50.2172 176.945 49.8497C176.882 49.7378 176.762 49.6259 176.586 49.5141C176.41 49.4022 176.218 49.3383 176.011 49.3223C175.819 49.3063 175.539 49.2983 175.172 49.2983L175.124 49.0346C176.322 48.8429 177.585 48.747 178.911 48.747Z" fill="#282828"/>
<path d="M184.516 71.4236C185.315 71.4236 185.978 71.112 186.505 70.4888C187.049 69.8815 187.6 68.8907 188.159 67.5163L184.588 58.5032C184.06 57.1608 183.581 56.2979 183.149 55.9143C182.734 55.5308 182.23 55.339 181.639 55.339L181.591 55.0514H187.536L187.488 55.339C186.929 55.339 186.537 55.4269 186.313 55.6027C186.106 55.7785 186.002 56.0502 186.002 56.4177C186.002 57.1528 186.377 58.4633 187.128 60.349L188.974 64.9994L190.844 59.2463C191.212 58.0957 191.395 57.2248 191.395 56.6335C191.395 55.7705 190.836 55.339 189.717 55.339L189.669 55.0514H194.176L194.128 55.339C193.473 55.339 193.009 55.5548 192.738 55.9863C192.482 56.4018 191.995 57.7042 191.275 59.8935L189.118 66.4616C188.415 68.619 187.592 70.281 186.649 71.4476C185.706 72.6142 184.723 73.1975 183.701 73.1975C183.237 73.1975 182.854 73.1016 182.55 72.9098C182.246 72.734 182.095 72.4784 182.095 72.1428C182.095 71.8231 182.19 71.5675 182.382 71.3757C182.59 71.1999 182.806 71.112 183.029 71.112C183.269 71.112 183.533 71.1599 183.82 71.2558C184.108 71.3677 184.34 71.4236 184.516 71.4236Z" fill="#282828"/>
<path d="M203.093 61.3078C203.093 62.858 203.469 64.0405 204.22 64.8556C204.987 65.6706 205.922 66.0781 207.024 66.0781C208.127 66.0781 209.03 65.8144 209.733 65.287C210.436 64.7437 210.788 63.8967 210.788 62.7461C210.788 61.7074 210.237 60.7805 209.134 59.9655C208.654 59.6139 208.119 59.2703 207.528 58.9347C206.937 58.5831 206.345 58.2236 205.754 57.856C205.163 57.4884 204.627 57.1049 204.148 56.7054C203.045 55.7785 202.494 54.6998 202.494 53.4693C202.494 52.2228 202.941 51.232 203.836 50.4969C204.747 49.7618 205.946 49.3942 207.432 49.3942C208.934 49.3942 210.324 49.7218 211.603 50.377C211.603 51.1761 211.483 52.5504 211.243 54.5L210.884 54.4042C210.884 52.902 210.516 51.7833 209.781 51.0482C209.046 50.2971 208.199 49.9216 207.24 49.9216C206.297 49.9216 205.538 50.2012 204.963 50.7606C204.388 51.3039 204.1 51.9511 204.1 52.7022C204.1 53.4533 204.3 54.1005 204.699 54.6439C205.115 55.1712 205.626 55.6107 206.233 55.9623C206.857 56.3139 207.528 56.7054 208.247 57.1369C208.966 57.5524 209.629 57.9679 210.237 58.3834C210.86 58.7829 211.371 59.3102 211.771 59.9655C212.186 60.6207 212.394 61.3558 212.394 62.1708C212.394 63.641 211.867 64.7517 210.812 65.5028C209.773 66.2539 208.519 66.6294 207.048 66.6294C206.233 66.6294 205.394 66.5016 204.531 66.2459C203.684 65.9902 202.989 65.6146 202.446 65.1192C202.446 64.0965 202.542 62.802 202.734 61.2359L203.093 61.3078Z" fill="#282828"/>
<path d="M218.516 57.9519C218.788 57.0729 219.219 56.3298 219.81 55.7226C220.418 55.1153 221.225 54.8117 222.231 54.8117C223.254 54.8117 224.109 55.1233 224.796 55.7465C226.043 56.8492 226.666 58.5192 226.666 60.7565C226.666 62.4345 226.155 63.8328 225.132 64.9514C224.109 66.0701 222.815 66.6294 221.249 66.6294C220.114 66.6294 219.203 66.4137 218.516 65.9822V68.8108C218.516 69.7696 218.524 70.4648 218.54 70.8963C218.572 71.3277 218.66 71.6953 218.804 71.9989C218.963 72.3185 219.163 72.5103 219.403 72.5742C219.659 72.6382 220.042 72.6701 220.553 72.6701L220.601 72.9578H214.8L214.848 72.6701C215.775 72.6701 216.335 72.4624 216.526 72.0469C216.734 71.6474 216.838 70.5687 216.838 68.8108V58.695C216.838 57.832 216.822 57.2168 216.79 56.8492C216.774 56.4817 216.686 56.162 216.526 55.8904C216.383 55.6187 216.191 55.4669 215.951 55.4349C215.727 55.387 215.36 55.363 214.848 55.363L214.8 55.0993C215.935 54.9076 217.174 54.8117 218.516 54.8117V57.9519ZM220.937 65.9343C222.407 65.9343 223.438 65.3829 224.029 64.2802C224.573 63.2735 224.844 62.0989 224.844 60.7565C224.844 59.5579 224.669 58.4473 224.317 57.4245C224.109 56.8652 223.79 56.4177 223.358 56.0821C222.927 55.7306 222.407 55.5548 221.8 55.5548C221.209 55.5548 220.681 55.7705 220.218 56.202C219.754 56.6175 219.411 57.1369 219.187 57.7601C218.74 59.0066 218.516 60.0613 218.516 60.9243V64.6638C219.011 65.5108 219.818 65.9343 220.937 65.9343Z" fill="#282828"/>
<path d="M238.737 60.325H230.875V60.7325C230.875 62.4265 231.234 63.7209 231.953 64.6158C232.673 65.4948 233.567 65.9343 234.638 65.9343C236.236 65.9343 237.387 65.295 238.09 64.0166L238.45 64.2083C237.619 65.8224 236.228 66.6294 234.279 66.6294C232.84 66.6294 231.61 66.11 230.587 65.0713C229.564 64.0325 229.053 62.6342 229.053 60.8764C229.053 59.1025 229.5 57.6482 230.395 56.5136C231.306 55.379 232.513 54.8117 234.015 54.8117C235.533 54.8117 236.7 55.331 237.515 56.3698C238.33 57.3926 238.737 58.711 238.737 60.325ZM234.087 55.2911C233.16 55.2911 232.425 55.6906 231.882 56.4896C231.354 57.2727 231.035 58.3194 230.923 59.6299H236.891C236.78 56.7373 235.845 55.2911 234.087 55.2911Z" fill="#282828"/>
<path d="M250.295 58.647V61.0681C250.295 62.842 250.351 64.0086 250.462 64.5679C250.574 65.1112 250.846 65.3829 251.277 65.3829C251.549 65.3829 251.909 65.2711 252.356 65.0473L252.476 65.287C252.348 65.3829 252.18 65.5028 251.973 65.6466C251.765 65.7744 251.341 65.9502 250.702 66.174C250.063 66.3977 249.448 66.5096 248.856 66.5096C248.697 65.8384 248.617 64.7677 248.617 63.2974C248.265 64.2882 247.802 65.0953 247.226 65.7185C246.667 66.3258 245.884 66.6294 244.877 66.6294C243.87 66.6294 243.071 66.3657 242.48 65.8384C241.905 65.295 241.617 64.5599 241.617 63.633C241.617 61.0601 243.95 59.7657 248.617 59.7497V58.8868C248.617 57.7361 248.449 56.8572 248.113 56.2499C247.778 55.6427 247.154 55.339 246.244 55.339C245.732 55.339 245.317 55.4669 244.997 55.7226C244.677 55.9783 244.462 56.2579 244.35 56.5616C244.078 57.3926 243.671 57.8081 243.127 57.8081C242.6 57.8081 242.336 57.5124 242.336 56.9211C242.336 56.3139 242.736 55.8105 243.535 55.4109C244.334 55.0114 245.301 54.8117 246.435 54.8117C247.57 54.8117 248.497 55.1393 249.216 55.7945C249.935 56.4337 250.295 57.3846 250.295 58.647ZM243.439 63.7289C243.439 64.3522 243.591 64.8715 243.894 65.287C244.198 65.6866 244.677 65.8863 245.333 65.8863C246.004 65.8863 246.611 65.5667 247.154 64.9275C247.698 64.2723 248.065 63.5531 248.257 62.7701C248.465 61.971 248.585 61.148 248.617 60.301C246.843 60.317 245.532 60.6446 244.685 61.2839C243.854 61.9231 243.439 62.7381 243.439 63.7289Z" fill="#282828"/>
<path d="M264.397 66.3897C263.502 66.3897 262.592 65.7105 261.665 64.3522C261.281 63.7769 260.898 63.2015 260.514 62.6262C259.571 61.2199 258.716 60.4609 257.949 60.349V62.4345C257.949 64.0965 258.053 65.1272 258.261 65.5267C258.468 65.9103 259.036 66.102 259.963 66.102L260.011 66.3897H254.162L254.21 66.102C255.168 66.102 255.752 65.9023 255.96 65.5028C256.167 65.0873 256.271 63.9926 256.271 62.2187V53.0378C256.271 51.7913 256.231 50.9363 256.151 50.4729C256.071 49.9935 255.944 49.7058 255.768 49.6099C255.416 49.4182 254.897 49.3223 254.21 49.3223L254.162 49.0346C255.36 48.8589 256.623 48.771 257.949 48.771V59.9415C258.892 59.8776 259.779 59.3981 260.61 58.5032C261.441 57.5923 261.856 56.7773 261.856 56.0582C261.856 55.7865 261.784 55.5947 261.641 55.4829C261.497 55.371 261.257 55.3151 260.922 55.3151L260.874 55.0514H265.979L265.931 55.3151C264.893 55.3151 264.134 55.5548 263.654 56.0342C263.175 56.5136 262.671 57.041 262.144 57.6163C261.617 58.1916 261.233 58.6071 260.993 58.8628C260.354 59.518 259.691 59.9335 259.004 60.1093C259.723 60.2052 260.378 60.4768 260.969 60.9243C261.561 61.3718 262.056 61.8831 262.456 62.4584C262.855 63.0178 263.247 63.5771 263.63 64.1364C264.557 65.4468 265.596 66.102 266.747 66.102L266.794 66.3897H264.397Z" fill="#282828"/>
<path d="M269.514 51.9351C269.243 51.6635 269.107 51.3439 269.107 50.9763C269.107 50.6087 269.243 50.2891 269.514 50.0175C269.786 49.7458 270.106 49.6099 270.473 49.6099C270.841 49.6099 271.16 49.7458 271.432 50.0175C271.704 50.2891 271.839 50.6087 271.839 50.9763C271.839 51.3439 271.704 51.6635 271.432 51.9351C271.16 52.2068 270.841 52.3427 270.473 52.3427C270.106 52.3427 269.786 52.2068 269.514 51.9351ZM271.384 54.8117V62.4345C271.384 64.1124 271.48 65.1432 271.672 65.5267C271.879 65.9103 272.455 66.102 273.398 66.102L273.445 66.3897H267.597L267.644 66.102C268.603 66.102 269.187 65.9103 269.394 65.5267C269.602 65.1272 269.706 64.0805 269.706 62.3865V60.7086C269.706 58.8548 269.65 57.6323 269.538 57.041C269.442 56.4337 269.298 56.0422 269.107 55.8664C268.723 55.5148 268.132 55.339 267.333 55.339L267.285 55.0754C268.675 54.8996 270.042 54.8117 271.384 54.8117Z" fill="#282828"/>
<path d="M279.471 54.8117V59.1025C279.615 57.9519 280.015 56.9531 280.67 56.1061C281.325 55.2432 282.196 54.8117 283.283 54.8117C285.728 54.8117 286.95 56.0901 286.95 58.647V62.4345C286.95 64.0965 287.054 65.1272 287.262 65.5267C287.486 65.9103 288.061 66.102 288.988 66.102L289.036 66.3897H283.211L283.259 66.102C284.218 66.102 284.793 65.9023 284.985 65.5028C285.176 65.1033 285.272 64.0086 285.272 62.2187V58.8868C285.272 57.7841 285.097 56.9531 284.745 56.3938C284.409 55.8344 283.866 55.5548 283.115 55.5548C282.38 55.5548 281.765 55.8105 281.269 56.3218C280.774 56.8173 280.406 57.4485 280.167 58.2156C279.703 59.7018 279.471 61.196 279.471 62.6982C279.471 64.2003 279.567 65.1432 279.759 65.5267C279.967 65.9103 280.542 66.102 281.485 66.102L281.533 66.3897H275.684L275.732 66.102C276.691 66.102 277.274 65.9103 277.482 65.5267C277.69 65.1272 277.793 64.0805 277.793 62.3865V60.4688C277.793 58.0717 277.674 56.6255 277.434 56.1301C277.354 55.9543 277.21 55.7945 277.002 55.6507C276.811 55.5068 276.595 55.4189 276.355 55.387C276.131 55.355 275.82 55.339 275.42 55.339L275.372 55.0754C276.763 54.8996 278.129 54.8117 279.471 54.8117Z" fill="#282828"/>
<path d="M299.676 54.548L299.532 53.3255C299.532 53.0218 299.62 52.7821 299.796 52.6063C299.988 52.4305 300.204 52.3427 300.443 52.3427C300.683 52.3427 300.891 52.4305 301.067 52.6063C301.258 52.7821 301.354 53.0218 301.354 53.3255C301.354 54.2204 300.691 55.1872 299.365 56.226C300.068 57.009 300.419 57.9519 300.419 59.0546C300.419 60.1412 299.988 61.1001 299.125 61.9311C298.262 62.7621 297.207 63.1776 295.961 63.1776C295.082 63.1776 294.299 62.9698 293.612 62.5543C292.94 63.1616 292.605 63.8088 292.605 64.496C292.605 64.9594 292.773 65.335 293.108 65.6226C293.46 65.8943 293.987 66.0301 294.69 66.0301C295.409 66.0301 296.009 66.0381 296.488 66.0541C296.967 66.0701 297.535 66.102 298.19 66.15C298.845 66.1979 299.349 66.2858 299.7 66.4137C300.068 66.5415 300.435 66.7093 300.803 66.9171C301.474 67.3006 301.81 67.9638 301.81 68.9067C301.81 70.0573 301.21 71.0561 300.012 71.903C298.829 72.766 297.295 73.1975 295.409 73.1975C293.971 73.1975 292.804 72.9258 291.91 72.3825C291.015 71.8551 290.567 71.152 290.567 70.273C290.567 69.6498 290.775 69.0505 291.19 68.4752C291.606 67.9159 292.141 67.5323 292.796 67.3246C291.87 66.957 291.406 66.2379 291.406 65.1672C291.406 64.6558 291.574 64.1364 291.91 63.6091C292.245 63.0657 292.677 62.6262 293.204 62.2906C292.069 61.4277 291.502 60.357 291.502 59.0785C291.502 57.7841 291.934 56.7533 292.796 55.9863C293.659 55.2032 294.706 54.8117 295.937 54.8117C297.183 54.8117 298.23 55.1872 299.077 55.9383C299.476 55.5388 299.676 55.0754 299.676 54.548ZM292.245 70.0333C292.245 70.8323 292.557 71.4716 293.18 71.951C293.819 72.4304 294.69 72.6701 295.793 72.6701C296.912 72.6701 297.91 72.3585 298.789 71.7352C299.684 71.112 300.132 70.3689 300.132 69.5059C300.132 68.659 299.684 68.1076 298.789 67.8519C297.91 67.5962 296.144 67.4684 293.492 67.4684C293.188 67.6442 292.9 67.9718 292.629 68.4512C292.373 68.9466 292.245 69.474 292.245 70.0333ZM293.947 61.5475C294.411 62.2187 295.082 62.5543 295.961 62.5543C296.84 62.5543 297.511 62.2187 297.974 61.5475C298.438 60.8604 298.669 59.9894 298.669 58.9347C298.669 57.864 298.438 57.009 297.974 56.3698C297.511 55.7306 296.84 55.4109 295.961 55.4109C295.082 55.4109 294.411 55.7306 293.947 56.3698C293.484 57.009 293.252 57.864 293.252 58.9347C293.252 59.9894 293.484 60.8604 293.947 61.5475Z" fill="#282828"/>
<path d="M303.465 65.3829C303.465 65.0154 303.585 64.7117 303.824 64.472C304.08 64.2163 304.384 64.0885 304.735 64.0885C305.087 64.0885 305.382 64.2163 305.622 64.472C305.862 64.7117 305.982 65.0154 305.982 65.3829C305.982 65.7345 305.854 66.0301 305.598 66.2698C305.358 66.5096 305.063 66.6294 304.711 66.6294C304.376 66.6294 304.08 66.5096 303.824 66.2698C303.585 66.0301 303.465 65.7345 303.465 65.3829Z" fill="#282828"/>
<path d="M308.088 65.3829C308.088 65.0154 308.207 64.7117 308.447 64.472C308.703 64.2163 309.006 64.0885 309.358 64.0885C309.71 64.0885 310.005 64.2163 310.245 64.472C310.485 64.7117 310.605 65.0154 310.605 65.3829C310.605 65.7345 310.477 66.0301 310.221 66.2698C309.981 66.5096 309.686 66.6294 309.334 66.6294C308.999 66.6294 308.703 66.5096 308.447 66.2698C308.207 66.0301 308.088 65.7345 308.088 65.3829Z" fill="#282828"/>
<path d="M312.71 65.3829C312.71 65.0154 312.83 64.7117 313.07 64.472C313.326 64.2163 313.629 64.0885 313.981 64.0885C314.333 64.0885 314.628 64.2163 314.868 64.472C315.108 64.7117 315.227 65.0154 315.227 65.3829C315.227 65.7345 315.1 66.0301 314.844 66.2698C314.604 66.5096 314.309 66.6294 313.957 66.6294C313.621 66.6294 313.326 66.5096 313.07 66.2698C312.83 66.0301 312.71 65.7345 312.71 65.3829Z" fill="#282828"/>
<defs>
<filter id="filter0_f" x="0.164429" y="106.399" width="133.204" height="31.5948" filterUnits="userSpaceOnUse" color-interpolation-filters="sRGB">
<feFlood flood-opacity="0" result="BackgroundImageFix"/>
<feBlend mode="normal" in="SourceGraphic" in2="BackgroundImageFix" result="shape"/>
<feGaussianBlur stdDeviation="5" result="effect1_foregroundBlur"/>
</filter>
<filter id="filter1_f" x="25.08" y="113.102" width="86.1753" height="12.9502" filterUnits="userSpaceOnUse" color-interpolation-filters="sRGB">
<feFlood flood-opacity="0" result="BackgroundImageFix"/>
<feBlend mode="normal" in="SourceGraphic" in2="BackgroundImageFix" result="shape"/>
<feGaussianBlur stdDeviation="2" result="effect1_foregroundBlur"/>
</filter>
<linearGradient id="paint0_linear" x1="66.7665" y1="116.399" x2="66.7665" y2="127.994" gradientUnits="userSpaceOnUse">
<stop stop-color="#B4B4B4"/>
<stop offset="1" stop-color="#F2F1EE"/>
</linearGradient>
<clipPath id="clip0">
<rect width="107.992" height="114.326" fill="white" transform="translate(10.1644 0.0214844)"/>
</clipPath>
</defs>
</svg>
