<svg viewBox="0 0 212 139" fill="none" xmlns="http://www.w3.org/2000/svg">
<path d="M56.3457 53.9831V59.928C56.3457 61.638 56.3935 62.8046 56.4892 63.4279C56.6009 64.0511 56.7525 64.4427 56.9439 64.6025C57.3108 64.9061 57.8931 65.0579 58.6908 65.0579L58.7387 65.3456H52.3254L52.3733 65.0579C53.155 65.0579 53.7293 64.9141 54.0962 64.6265C54.3994 64.3867 54.5748 63.6037 54.6227 62.2772C54.6546 61.7499 54.6706 60.9668 54.6706 59.928V49.7881L47.9702 65.1059L41.0544 52.1373V59.8801C41.0544 61.4782 41.1262 62.6368 41.2698 63.356C41.4293 64.0591 41.6766 64.5226 42.0116 64.7463C42.3466 64.9541 42.905 65.0579 43.6867 65.0579L43.7346 65.3456H37.8478L37.8956 65.0579C38.4859 65.0579 38.9246 65.018 39.2118 64.9381C39.5149 64.8422 39.7702 64.6025 39.9775 64.2189C40.1849 63.8354 40.3126 63.324 40.3604 62.6848C40.4242 62.0455 40.4561 61.1106 40.4561 59.8801V54.0071C40.4561 52.7766 40.4242 51.8417 40.3604 51.2024C40.3126 50.5632 40.1849 50.0518 39.9775 49.6683C39.7702 49.2847 39.5149 49.053 39.2118 48.9731C38.9246 48.8772 38.4859 48.8293 37.8956 48.8293L37.8478 48.5656H41.0544L48.4488 62.5409L54.5509 48.5656H58.7387L58.6908 48.8293C57.8931 48.8293 57.3108 48.9811 56.9439 49.2847C56.5451 49.6203 56.3457 51.1864 56.3457 53.9831Z" fill="#282828"/>
<path d="M62.7262 70.3796C63.5238 70.3796 64.1859 70.068 64.7124 69.4447C65.2548 68.8374 65.8052 67.8466 66.3635 66.4723L62.798 57.459C62.2715 56.1166 61.7929 55.2536 61.3622 54.8701C60.9474 54.4865 60.4449 54.2947 59.8546 54.2947L59.8067 54.0071H65.7414L65.6935 54.2947C65.1351 54.2947 64.7443 54.3826 64.5209 54.5584C64.3135 54.7342 64.2098 55.0059 64.2098 55.3735C64.2098 56.1086 64.5847 57.419 65.3345 59.3048L67.1772 63.9553L69.0437 58.2021C69.4106 57.0515 69.5941 56.1805 69.5941 55.5892C69.5941 54.7262 69.0357 54.2947 67.919 54.2947L67.8711 54.0071H72.37L72.3221 54.2947C71.668 54.2947 71.2054 54.5105 70.9342 54.942C70.6789 55.3575 70.1923 56.6599 69.4744 58.8493L67.3207 65.4175C66.6188 67.5749 65.7972 69.237 64.8559 70.4036C63.9147 71.5702 62.9336 72.1535 61.9126 72.1535C61.4499 72.1535 61.067 72.0576 60.7639 71.8658C60.4608 71.69 60.3092 71.4344 60.3092 71.0988C60.3092 70.7791 60.405 70.5234 60.5964 70.3317C60.8038 70.1559 61.0192 70.068 61.2425 70.068C61.4818 70.068 61.745 70.1159 62.0322 70.2118C62.3194 70.3237 62.5507 70.3796 62.7262 70.3796Z" fill="#282828"/>
<path d="M92.9737 60.6472C92.9737 62.2453 92.3595 63.4279 91.1311 64.195C89.9186 64.9621 88.2515 65.3456 86.1297 65.3456H80.5062L80.554 65.0579C80.9528 65.0579 81.2639 65.042 81.4873 65.01C81.7106 64.978 81.918 64.8901 82.1095 64.7463C82.3169 64.6025 82.4604 64.4427 82.5402 64.2669C82.6359 64.0751 82.7157 63.7635 82.7795 63.332C82.8593 62.7727 82.8992 61.638 82.8992 59.928V53.9831C82.8992 51.586 82.7875 50.1477 82.5641 49.6683C82.4684 49.4765 82.3169 49.3087 82.1095 49.1649C81.918 49.021 81.7106 48.9331 81.4873 48.9012C81.2639 48.8692 80.9528 48.8532 80.554 48.8532L80.5062 48.5656H85.8665C87.047 48.5656 88.2435 48.7733 89.456 49.1888C90.142 49.4126 90.7003 49.8041 91.1311 50.3634C91.5618 50.9068 91.7772 51.57 91.7772 52.3531C91.7772 53.4238 91.3943 54.2628 90.6285 54.8701C89.8628 55.4773 88.9455 55.9008 87.8766 56.1406C89.1209 56.2684 90.2377 56.6519 91.2268 57.2912C91.7532 57.6428 92.176 58.1062 92.4951 58.6815C92.8141 59.2568 92.9737 59.9121 92.9737 60.6472ZM89.6953 52.3531C89.6953 50.1956 87.9883 49.1169 84.5743 49.1169V55.9728H84.7896C88.0601 55.9728 89.6953 54.7662 89.6953 52.3531ZM90.8918 60.6472C90.8918 57.8505 88.9056 56.4522 84.9332 56.4522H84.5743V60.2876C84.5743 62.0295 84.6221 63.1722 84.7178 63.7155C84.8295 64.2429 85.0927 64.6025 85.5075 64.7943C86.3052 64.7943 87.039 64.6984 87.7091 64.5066C88.3951 64.3148 88.9375 64.0831 89.3363 63.8114C89.7511 63.5397 90.1101 63.1322 90.4132 62.5889C90.7322 62.0455 90.8918 61.3983 90.8918 60.6472Z" fill="#282828"/>
<path d="M104.44 57.6028V60.0239C104.44 61.7978 104.496 62.9644 104.608 63.5238C104.719 64.0671 104.99 64.3388 105.421 64.3388C105.692 64.3388 106.051 64.2269 106.498 64.0032L106.618 64.2429C106.49 64.3388 106.323 64.4587 106.115 64.6025C105.908 64.7303 105.485 64.9061 104.847 65.1299C104.209 65.3536 103.595 65.4655 103.004 65.4655C102.845 64.7943 102.765 63.7235 102.765 62.2533C102.414 63.2441 101.951 64.0511 101.377 64.6744C100.819 65.2817 100.037 65.5853 99.0319 65.5853C98.0268 65.5853 97.2292 65.3216 96.6389 64.7943C96.0646 64.2509 95.7774 63.5158 95.7774 62.5889C95.7774 60.0159 98.1066 58.7215 102.765 58.7055V57.8425C102.765 56.6919 102.597 55.8129 102.262 55.2057C101.927 54.5984 101.305 54.2947 100.396 54.2947C99.8854 54.2947 99.4706 54.4226 99.1515 54.6783C98.8325 54.934 98.6171 55.2137 98.5054 55.5173C98.2342 56.3483 97.8274 56.7638 97.285 56.7638C96.7585 56.7638 96.4953 56.4682 96.4953 55.8769C96.4953 55.2696 96.8941 54.7662 97.6918 54.3667C98.4895 53.9671 99.4547 53.7674 100.587 53.7674C101.72 53.7674 102.645 54.095 103.363 54.7502C104.081 55.3894 104.44 56.3403 104.44 57.6028ZM97.5961 62.6848C97.5961 63.308 97.7476 63.8274 98.0508 64.2429C98.3539 64.6424 98.8325 64.8422 99.4866 64.8422C100.157 64.8422 100.763 64.5226 101.305 63.8833C101.848 63.2281 102.215 62.509 102.406 61.7259C102.613 60.9269 102.733 60.1038 102.765 59.2568C100.994 59.2728 99.686 59.6004 98.8405 60.2397C98.0109 60.8789 97.5961 61.6939 97.5961 62.6848Z" fill="#282828"/>
<path d="M113.78 65.5853C112.377 65.5853 111.172 65.0659 110.167 64.0272C109.162 62.9884 108.659 61.5821 108.659 59.8082C108.659 58.0183 109.114 56.564 110.023 55.4454C110.949 54.3267 112.257 53.7674 113.948 53.7674C115.001 53.7674 115.918 53.9432 116.7 54.2947C117.482 54.6303 117.872 55.1018 117.872 55.7091C117.872 56.2524 117.577 56.5241 116.987 56.5241C116.684 56.5241 116.429 56.4042 116.221 56.1645C116.03 55.9248 115.878 55.6691 115.767 55.3974C115.671 55.1098 115.471 54.8461 115.168 54.6064C114.865 54.3667 114.466 54.2468 113.972 54.2468C112.823 54.2468 111.954 54.7262 111.363 55.6851C110.773 56.644 110.478 57.9624 110.478 59.6404C110.478 61.3024 110.829 62.5969 111.531 63.5238C112.233 64.4347 113.102 64.8901 114.139 64.8901C115.719 64.8901 116.843 64.2509 117.514 62.9724L117.872 63.1642C117.059 64.7783 115.695 65.5853 113.78 65.5853Z" fill="#282828"/>
<path d="M129.77 65.3456C128.877 65.3456 127.968 64.6664 127.042 63.308C126.659 62.7327 126.277 62.1574 125.894 61.5821C124.952 60.1757 124.099 59.4167 123.333 59.3048V61.3903C123.333 63.0523 123.437 64.0831 123.644 64.4826C123.852 64.8662 124.418 65.0579 125.343 65.0579L125.391 65.3456H119.552L119.6 65.0579C120.557 65.0579 121.14 64.8582 121.347 64.4587C121.554 64.0431 121.658 62.9485 121.658 61.1746V51.9935C121.658 50.747 121.618 49.892 121.538 49.4285C121.459 48.9491 121.331 48.6615 121.156 48.5656C120.805 48.3738 120.286 48.2779 119.6 48.2779L119.552 47.9902C120.749 47.8145 122.009 47.7266 123.333 47.7266V58.8973C124.274 58.8333 125.16 58.3539 125.989 57.459C126.819 56.5481 127.234 55.733 127.234 55.0139C127.234 54.7422 127.162 54.5504 127.018 54.4386C126.875 54.3267 126.635 54.2708 126.3 54.2708L126.253 54.0071H131.35L131.302 54.2708C130.265 54.2708 129.507 54.5105 129.028 54.9899C128.55 55.4694 128.047 55.9967 127.521 56.572C126.994 57.1474 126.612 57.5629 126.372 57.8186C125.734 58.4738 125.072 58.8893 124.386 59.0651C125.104 59.161 125.758 59.4326 126.348 59.8801C126.939 60.3276 127.433 60.839 127.832 61.4143C128.231 61.9736 128.622 62.5329 129.005 63.0923C129.93 64.4027 130.967 65.0579 132.115 65.0579L132.163 65.3456H129.77Z" fill="#282828"/>
<path d="M141.363 53.5037L141.22 52.2811C141.22 51.9775 141.308 51.7378 141.483 51.562C141.675 51.3862 141.89 51.2983 142.129 51.2983C142.369 51.2983 142.576 51.3862 142.751 51.562C142.943 51.7378 143.039 51.9775 143.039 52.2811C143.039 53.1761 142.377 54.1429 141.052 55.1817C141.754 55.9648 142.105 56.9076 142.105 58.0103C142.105 59.097 141.675 60.0559 140.813 60.8869C139.952 61.7179 138.899 62.1334 137.654 62.1334C136.777 62.1334 135.995 61.9257 135.309 61.5102C134.639 62.1174 134.304 62.7647 134.304 63.4519C134.304 63.9153 134.472 64.2909 134.807 64.5785C135.158 64.8502 135.684 64.986 136.386 64.986C137.104 64.986 137.702 64.994 138.181 65.01C138.659 65.026 139.226 65.0579 139.88 65.1059C140.534 65.1538 141.036 65.2417 141.387 65.3696C141.754 65.4974 142.121 65.6652 142.488 65.873C143.158 66.2565 143.493 66.9197 143.493 67.8626C143.493 69.0132 142.895 70.012 141.698 70.859C140.518 71.722 138.986 72.1535 137.104 72.1535C135.668 72.1535 134.504 71.8818 133.61 71.3385C132.717 70.8111 132.27 70.1079 132.27 69.229C132.27 68.6057 132.477 68.0064 132.892 67.4311C133.307 66.8718 133.841 66.4882 134.496 66.2805C133.57 65.9129 133.108 65.1938 133.108 64.1231C133.108 63.6117 133.275 63.0923 133.61 62.5649C133.945 62.0216 134.376 61.5821 134.902 61.2465C133.77 60.3835 133.203 59.3128 133.203 58.0343C133.203 56.7398 133.634 55.7091 134.496 54.942C135.357 54.1589 136.402 53.7674 137.63 53.7674C138.875 53.7674 139.92 54.1429 140.765 54.894C141.164 54.4945 141.363 54.0311 141.363 53.5037ZM133.945 68.9893C133.945 69.7883 134.256 70.4276 134.878 70.907C135.517 71.3864 136.386 71.6261 137.487 71.6261C138.604 71.6261 139.601 71.3145 140.478 70.6912C141.371 70.068 141.818 69.3249 141.818 68.4619C141.818 67.6149 141.371 67.0636 140.478 66.8079C139.601 66.5522 137.838 66.4243 135.19 66.4243C134.886 66.6001 134.599 66.9277 134.328 67.4071C134.073 67.9026 133.945 68.4299 133.945 68.9893ZM135.644 60.5034C136.107 61.1746 136.777 61.5102 137.654 61.5102C138.532 61.5102 139.202 61.1746 139.664 60.5034C140.127 59.8162 140.358 58.9452 140.358 57.8905C140.358 56.8197 140.127 55.9648 139.664 55.3255C139.202 54.6863 138.532 54.3667 137.654 54.3667C136.777 54.3667 136.107 54.6863 135.644 55.3255C135.182 55.9648 134.95 56.8197 134.95 57.8905C134.95 58.9452 135.182 59.8162 135.644 60.5034Z" fill="#282828"/>
<path d="M152.66 53.6475C153.058 53.6475 153.409 53.7354 153.712 53.9112C154.016 54.087 154.167 54.3267 154.167 54.6303C154.167 54.934 154.071 55.1737 153.88 55.3495C153.689 55.5253 153.473 55.6132 153.234 55.6132C152.995 55.6132 152.691 55.5093 152.325 55.3015C151.974 55.0938 151.599 54.9899 151.2 54.9899C150.578 54.9899 150.067 55.5652 149.668 56.7159C149.285 57.8665 149.094 59.2009 149.094 60.7191C149.094 62.7647 149.198 64.0032 149.405 64.4347C149.469 64.5785 149.589 64.7143 149.764 64.8422C149.94 64.9541 150.123 65.018 150.314 65.034C150.506 65.0499 150.777 65.0579 151.128 65.0579L151.176 65.3456H145.361L145.409 65.0579C145.919 65.0579 146.286 65.034 146.51 64.986C146.749 64.9221 146.948 64.7223 147.108 64.3867C147.267 64.0511 147.355 63.6356 147.371 63.1402C147.403 62.6288 147.419 61.8218 147.419 60.7191V59.3288C147.419 57.1074 147.355 55.8449 147.227 55.5413C147.116 55.2376 147.012 54.9979 146.916 54.8221C146.821 54.6463 146.677 54.5265 146.486 54.4625C146.135 54.3667 145.672 54.3187 145.098 54.3187L145.05 54.055C146.406 53.8633 147.754 53.7674 149.094 53.7674V57.2912C149.269 56.1565 149.66 55.2696 150.267 54.6303C150.889 53.9751 151.686 53.6475 152.66 53.6475Z" fill="#282828"/>
<path d="M155.372 59.6883C155.372 58.0103 155.851 56.604 156.808 55.4693C157.765 54.3347 159.066 53.7674 160.709 53.7674C162.352 53.7674 163.676 54.3347 164.681 55.4693C165.686 56.604 166.189 58.0103 166.189 59.6883C166.189 61.3663 165.702 62.7727 164.729 63.9073C163.772 65.026 162.472 65.5853 160.828 65.5853C159.185 65.5853 157.861 65.018 156.856 63.8833C155.867 62.7487 155.372 61.3504 155.372 59.6883ZM158.124 63.5717C158.763 64.5945 159.664 65.1059 160.828 65.1059C161.993 65.1059 162.87 64.6025 163.461 63.5957C164.067 62.5889 164.37 61.2944 164.37 59.7123C164.37 58.1142 164.051 56.8038 163.413 55.781C162.775 54.7582 161.873 54.2468 160.709 54.2468C159.56 54.2468 158.683 54.7582 158.077 55.781C157.486 56.7878 157.191 58.0822 157.191 59.6644C157.191 61.2465 157.502 62.5489 158.124 63.5717Z" fill="#282828"/>
<path d="M177.25 62.7327C177.505 62.1094 177.689 61.4782 177.8 60.839C177.928 60.1997 177.992 59.5125 177.992 58.7774C177.992 58.0423 177.976 57.427 177.944 56.9316C177.912 56.4362 177.856 55.9967 177.776 55.6132C177.697 55.2137 177.561 54.926 177.37 54.7502C177.019 54.4466 176.436 54.2947 175.623 54.2947L175.575 54.0311C176.963 53.8553 178.327 53.7674 179.667 53.7674V60.0239C179.667 61.7978 179.723 62.9644 179.834 63.5238C179.946 64.0671 180.217 64.3388 180.648 64.3388C180.919 64.3388 181.278 64.2269 181.725 64.0032L181.844 64.2429C181.717 64.3388 181.549 64.4587 181.342 64.6025C181.134 64.7303 180.712 64.9061 180.074 65.1299C179.435 65.3536 178.821 65.4655 178.231 65.4655C178.071 64.5386 177.992 63.4678 177.992 62.2533C177.258 64.4746 175.99 65.5853 174.187 65.5853C171.746 65.5853 170.526 64.3068 170.526 61.7499V59.4246C170.526 57.0275 170.406 55.5812 170.167 55.0858C170.087 54.91 169.943 54.7502 169.736 54.6064C169.544 54.4625 169.329 54.3747 169.09 54.3427C168.866 54.3107 168.555 54.2947 168.156 54.2947L168.109 54.0311C169.497 53.8553 170.861 53.7674 172.201 53.7674V61.5102C172.201 62.6128 172.368 63.4439 172.703 64.0032C173.054 64.5625 173.589 64.8422 174.306 64.8422C175.04 64.8422 175.647 64.6424 176.125 64.2429C176.62 63.8434 176.995 63.34 177.25 62.7327Z" fill="#282828"/>
<path d="M187.735 53.7674V58.0583C187.878 56.9076 188.277 55.9088 188.931 55.0618C189.585 54.1989 190.455 53.7674 191.539 53.7674C193.98 53.7674 195.201 55.0459 195.201 57.6028V61.3903C195.201 63.0523 195.304 64.0831 195.512 64.4826C195.735 64.8662 196.309 65.0579 197.235 65.0579L197.283 65.3456H191.468L191.515 65.0579C192.473 65.0579 193.047 64.8582 193.238 64.4587C193.43 64.0591 193.526 62.9644 193.526 61.1746V57.8425C193.526 56.7398 193.35 55.9088 192.999 55.3495C192.664 54.7902 192.122 54.5105 191.372 54.5105C190.638 54.5105 190.024 54.7662 189.529 55.2776C189.035 55.773 188.668 56.4042 188.429 57.1713C187.966 58.6576 187.735 60.1518 187.735 61.654C187.735 63.1562 187.83 64.0991 188.022 64.4826C188.229 64.8662 188.803 65.0579 189.745 65.0579L189.793 65.3456H183.954L184.001 65.0579C184.959 65.0579 185.541 64.8662 185.748 64.4826C185.956 64.0831 186.059 63.0363 186.059 61.3424V59.4246C186.059 57.0275 185.94 55.5812 185.7 55.0858C185.621 54.91 185.477 54.7502 185.27 54.6064C185.078 54.4625 184.863 54.3747 184.624 54.3427C184.4 54.3107 184.089 54.2947 183.69 54.2947L183.643 54.0311C185.03 53.8553 186.394 53.7674 187.735 53.7674Z" fill="#282828"/>
<path d="M207.522 62.6848C207.267 63.5158 206.828 64.2109 206.206 64.7703C205.599 65.3136 204.85 65.5853 203.956 65.5853C203.079 65.5853 202.345 65.4095 201.755 65.0579C201.164 64.7064 200.71 64.2429 200.391 63.6676C199.753 62.5649 199.433 61.2225 199.433 59.6404C199.433 58.0583 199.976 56.6839 201.061 55.5173C202.146 54.3507 203.597 53.7674 205.416 53.7674C206.214 53.7674 206.94 53.8633 207.594 54.055V51.7777C207.594 50.5792 207.554 49.7721 207.474 49.3566C207.394 48.9251 207.267 48.6615 207.091 48.5656C206.772 48.3738 206.269 48.2779 205.583 48.2779L205.536 48.0142C206.684 47.8224 207.929 47.7266 209.269 47.7266V60.0239C209.269 61.7978 209.325 62.9644 209.436 63.5238C209.548 64.0671 209.819 64.3388 210.25 64.3388C210.521 64.3388 210.88 64.2269 211.327 64.0032L211.446 64.2429C211.319 64.3388 211.151 64.4587 210.944 64.6025C210.736 64.7303 210.314 64.9061 209.676 65.1299C209.037 65.3536 208.423 65.4655 207.833 65.4655C207.626 64.6025 207.522 63.6756 207.522 62.6848ZM201.826 63.0923C202.018 63.6197 202.313 64.0431 202.712 64.3628C203.127 64.6824 203.621 64.8422 204.196 64.8422C204.786 64.8422 205.312 64.6424 205.775 64.2429C206.254 63.8434 206.612 63.332 206.852 62.7087C207.346 61.5102 207.594 60.2716 207.594 58.9932V55.3255C206.908 54.7822 206.158 54.5105 205.344 54.5105C204.531 54.5105 203.853 54.6863 203.31 55.0379C202.768 55.3894 202.353 55.8529 202.066 56.4282C201.523 57.4989 201.252 58.6416 201.252 59.8561C201.252 61.0227 201.444 62.1015 201.826 63.0923Z" fill="#282828"/>
<g opacity="0.7" filter="url(#filter0_f)">
<ellipse cx="66.7665" cy="122.929" rx="56.6021" ry="5.79738" fill="url(#paint0_linear)" fill-opacity="0.4"/>
</g>
<g filter="url(#filter1_f)">
<ellipse cx="68.1676" cy="120.309" rx="39.0876" ry="2.47511" fill="#F5F5F5"/>
</g>
<g clip-path="url(#clip0)">
<g opacity="0.8">
<path opacity="0.8" d="M114.618 28.277C112.252 24.3777 109.455 20.7562 106.28 17.4806L105.08 16.2675L103.823 15.1108C103.001 14.3227 102.097 13.6247 101.22 12.8901C100.781 12.527 100.311 12.2006 99.8543 11.8516L99.1641 11.3393L98.8176 11.0832L98.4599 10.844C97.5021 10.2107 96.5528 9.55209 95.5415 8.98919C95.0457 8.70774 94.5555 8.40377 94.0513 8.12795L92.5245 7.34833L91.7583 6.9543L90.9751 6.59686L89.4033 5.88198C88.8737 5.65681 88.3356 5.45417 87.8004 5.24027C87.2652 5.02636 86.7356 4.80401 86.1835 4.62951C85.0905 4.26644 84.0059 3.87241 82.8904 3.58251C78.4628 2.31084 73.8967 1.58216 69.2929 1.41253C64.5401 1.22111 59.7823 1.63631 55.1347 2.64809L53.3966 3.04213L51.6783 3.51497L50.8332 3.7542L49.9881 4.03566L48.2979 4.59856L46.6331 5.23745L45.788 5.55831C45.5063 5.6737 45.2415 5.79754 44.9711 5.91575L43.3372 6.63626C42.802 6.8952 42.2724 7.16539 41.7372 7.43277L40.9259 7.81554C40.6611 7.95345 40.4047 8.097 40.1456 8.24898L38.5878 9.13273C38.0779 9.44233 37.5765 9.76882 37.0694 10.0869L36.3117 10.5681C36.061 10.7314 35.8215 10.9087 35.5736 11.0804L34.1088 12.1161C33.6299 12.4736 33.1623 12.8507 32.7003 13.2166L31.9932 13.7795C31.7594 13.9653 31.5369 14.1679 31.3087 14.3621L29.9397 15.5104C29.4974 15.9129 29.0692 16.3323 28.6326 16.7432L27.9819 17.3624C27.7649 17.5706 27.5649 17.793 27.3565 18.0069L26.117 19.3044C25.7142 19.7463 25.3283 20.2022 24.9339 20.6525L24.3451 21.328C24.148 21.5532 23.9705 21.7924 23.7817 22.026L22.669 23.4333C22.3056 23.9061 21.9676 24.3987 21.6155 24.8799C21.2634 25.3612 20.9112 25.8425 20.5957 26.3491L19.6182 27.8436C19.2943 28.3446 19.0098 28.8653 18.7027 29.3747C18.0774 30.3879 17.5478 31.4546 16.99 32.5044C16.8463 32.7662 16.7083 33.0336 16.5956 33.3038L16.2181 34.1115L15.8548 34.9306C15.728 35.212 15.604 35.4681 15.4942 35.7468C15.0519 36.8501 14.5702 37.9393 14.2012 39.0707C14.0068 39.6336 13.8012 40.1965 13.6181 40.7594L13.1138 42.4706L12.8631 43.315L12.6519 44.1819L12.2378 45.9212C12.1082 46.5038 12.0124 47.0921 11.8997 47.6775L11.7392 48.5584L11.6603 49.0003L11.6011 49.445C11.4518 50.6299 11.2631 51.812 11.1983 53.0082C11.1532 53.6049 11.1025 54.2015 11.0659 54.7982L11.0208 56.5939L10.9983 57.4917C10.9983 57.79 10.9983 58.0912 11.018 58.3895L11.0659 60.188C11.1881 62.5861 11.4638 64.9739 11.8913 67.3369L12.0518 68.2234L12.1307 68.6653L12.2321 69.1044L12.6378 70.8606C12.7617 71.4489 12.9476 72.0202 13.1026 72.6C13.2575 73.1798 13.4153 73.7708 13.6012 74.3337C13.9871 75.4595 14.342 76.6163 14.8012 77.728C15.0238 78.2909 15.2238 78.8538 15.4688 79.3999L16.2012 81.0435C16.4351 81.6064 16.7168 82.1271 16.9844 82.6619C17.252 83.1966 17.514 83.737 17.8069 84.2633C18.4041 85.3047 18.9675 86.3658 19.6295 87.3593C20.9047 89.3936 22.3075 91.3451 23.8296 93.2022C24.6184 94.1085 25.3705 95.0457 26.2128 95.9013C26.6269 96.3348 27.0297 96.7795 27.4551 97.2045L28.7509 98.4541C29.1763 98.8791 29.6298 99.2703 30.0833 99.6672C30.5369 100.064 30.9819 100.464 31.4439 100.846L32.8524 101.972C33.089 102.158 33.32 102.349 33.5623 102.535L34.2947 103.061C34.7849 103.41 35.2694 103.768 35.7623 104.111L37.2723 105.096L38.03 105.586L38.8075 106.042L40.3625 106.954L41.9597 107.798L42.7597 108.215C43.0414 108.347 43.3034 108.471 43.5766 108.598L45.2133 109.355C45.7767 109.594 46.3401 109.811 46.8838 110.039C47.9909 110.511 49.1374 110.883 50.2642 111.274C50.5459 111.378 50.8276 111.463 51.1262 111.556L51.9938 111.806C52.5741 111.967 53.1459 112.155 53.7319 112.29L55.4897 112.701C55.7714 112.766 56.0756 112.845 56.3714 112.895L57.2587 113.056L59.0362 113.371L60.8278 113.596L61.8222 113.717C62.1546 113.754 62.487 113.771 62.8223 113.796L64.8223 113.937L66.8252 113.976C67.1604 113.976 67.4928 113.993 67.828 113.976L68.8309 113.945C71.5032 113.878 74.1668 113.614 76.8001 113.154L78.772 112.788C79.4227 112.645 80.0706 112.484 80.7213 112.332C81.0453 112.254 81.3721 112.183 81.6932 112.093L82.6538 111.812L83.6144 111.53C83.9355 111.437 84.2566 111.347 84.5693 111.235L86.4624 110.587C87.0934 110.374 87.7046 110.106 88.3272 109.867L89.2568 109.498C89.5638 109.369 89.8653 109.217 90.1695 109.09C90.7751 108.809 91.3892 108.55 91.9893 108.246C96.1293 106.241 100.014 103.748 103.561 100.821C107.056 97.9205 110.149 94.568 112.759 90.8521C113.184 90.216 112.857 90.4412 112.424 91.0773C109.874 94.5837 106.878 97.7429 103.511 100.475C103.102 100.832 102.666 101.15 102.229 101.48L100.947 102.479L99.6007 103.399C99.15 103.703 98.7106 104.018 98.2401 104.294C97.3134 104.857 96.4007 105.451 95.4429 105.958L94.0344 106.746L92.5808 107.472C91.5808 107.998 90.5329 108.426 89.5047 108.896C88.9892 109.132 88.4539 109.318 87.93 109.532C87.406 109.746 86.8793 109.96 86.3412 110.14C85.2651 110.495 84.2003 110.9 83.1017 111.193L81.4622 111.665L79.8002 112.048C78.6988 112.33 77.572 112.504 76.4536 112.721C76.1719 112.777 75.8902 112.817 75.6085 112.853L74.7634 112.969C74.2 113.039 73.6366 113.132 73.0732 113.182L71.3831 113.323L70.538 113.391L69.6929 113.419L68.0027 113.47C67.4393 113.47 66.8759 113.453 66.3125 113.447C63.95 113.392 61.5933 113.19 59.256 112.842L57.5151 112.532C56.9348 112.425 56.3545 112.332 55.7826 112.189C54.6361 111.907 53.484 111.671 52.3572 111.322C51.7938 111.153 51.2304 111.004 50.667 110.821L48.9965 110.258L48.1514 109.977L47.3317 109.647L45.6471 108.952C43.4819 108.015 41.3756 106.947 39.3399 105.755C38.3089 105.192 37.3286 104.519 36.337 103.88L35.9652 103.638L35.6046 103.38L34.8863 102.864L34.1651 102.363C33.9229 102.192 33.6862 102.02 33.4552 101.832C32.5313 101.094 31.5904 100.382 30.7143 99.5799C30.2721 99.1859 29.8157 98.8116 29.3903 98.4035L28.1114 97.1763C27.6776 96.7738 27.2663 96.332 26.872 95.9098C26.4776 95.4876 26.0522 95.0654 25.6635 94.6151C24.9001 93.7145 24.1029 92.842 23.4099 91.8935C23.0493 91.4263 22.6803 90.9647 22.331 90.4862L21.3141 89.0396C21.1479 88.7975 20.9704 88.5611 20.8126 88.3134L20.3394 87.5676C20.0267 87.0694 19.7056 86.5741 19.3985 86.0703C14.5531 77.9315 11.8683 68.6913 11.5983 59.2254C11.5983 58.6372 11.5673 58.049 11.5617 57.4635L11.6096 55.7017L11.6349 54.8207C11.6518 54.5393 11.6772 54.2353 11.6997 53.9426L11.8406 52.1892C11.8885 51.6065 11.9842 51.0268 12.0547 50.4442L12.1702 49.5745C12.2068 49.293 12.2462 48.9947 12.3026 48.7076L12.6181 46.9823C12.6744 46.7009 12.7166 46.4194 12.7843 46.1211L12.9871 45.2767C14.0187 40.704 15.6299 36.2814 17.7816 32.116C18.0633 31.601 18.314 31.0831 18.5929 30.5737L19.4746 29.0679L19.9168 28.3165L20.3929 27.5875L21.3479 26.1296C22.674 24.2183 24.1162 22.3902 25.6663 20.6553C28.7608 17.1825 32.2784 14.1105 36.137 11.511C36.6074 11.1704 37.1089 10.8749 37.599 10.5625C38.0892 10.2501 38.5765 9.93206 39.0836 9.64498C40.1005 9.08207 41.0949 8.47133 42.1456 7.95627C44.2208 6.89122 46.3581 5.95136 48.5458 5.14176L50.2022 4.57885L51.0304 4.2974L51.8755 4.05254L53.5657 3.56845L55.2558 3.16316L56.1009 2.96333C56.3826 2.89859 56.6643 2.85355 56.946 2.79726L58.6672 2.48204C59.2306 2.38354 59.8222 2.32162 60.3968 2.24C60.9715 2.15837 61.549 2.07394 62.1321 2.03735L64.0645 1.87974C64.7096 1.82908 65.3575 1.82908 66.0026 1.80375L66.9717 1.77279C67.2956 1.77279 67.6196 1.77279 67.9407 1.77279L69.8816 1.80656L71.8169 1.93321L72.7859 1.99795L73.7493 2.11053L75.6761 2.34132L77.5889 2.66217C77.9072 2.71846 78.2283 2.7635 78.5438 2.83104L79.4931 3.03932C80.1241 3.18286 80.7608 3.32077 81.3862 3.46994C82.6341 3.81894 83.8933 4.12853 85.113 4.56197L86.0342 4.86875C86.3412 4.96726 86.6483 5.07421 86.9497 5.19523L88.761 5.89886C89.0652 6.01144 89.361 6.14654 89.654 6.27882L90.5413 6.67566C91.1329 6.94023 91.7273 7.20197 92.2963 7.52001L94.0288 8.41222L95.7189 9.39448C96.0006 9.56054 96.2823 9.71815 96.564 9.89546L97.3753 10.4302L98.1838 10.965C98.4655 11.1423 98.7247 11.3196 98.981 11.5279L100.539 12.679C100.801 12.8676 101.049 13.0731 101.299 13.2785L102.046 13.8921L102.792 14.5056C103.04 14.7111 103.274 14.9334 103.514 15.1473L104.942 16.4476C106.79 18.2361 108.53 20.1327 110.153 22.1273C110.559 22.6255 110.939 23.1462 111.333 23.6528L111.922 24.4184L112.486 25.2092C112.852 25.7384 113.238 26.2562 113.59 26.7966L114.641 28.4262C115.012 28.9779 114.987 28.8653 114.618 28.277Z" fill="#FF945C"/>
</g>
<g opacity="0.8">
<path opacity="0.8" d="M116.729 29.4759C112.726 22.3017 106.999 16.121 100.247 11.3195L98.7202 10.2865L97.9568 9.77149L97.1709 9.29302L95.599 8.33609L93.9821 7.45515L93.1736 7.01327L92.3454 6.61079L90.689 5.80866L88.9989 5.08532L88.1538 4.72507C87.8721 4.60686 87.5904 4.51117 87.2918 4.4014C82.6931 2.6451 77.8806 1.50929 72.9815 1.02398L71.142 0.857929C70.5279 0.82697 69.911 0.81008 69.2969 0.784749L68.3729 0.750977C68.0659 0.750977 67.756 0.750977 67.449 0.750977L65.601 0.781936C63.1367 0.880143 60.6815 1.14058 58.2515 1.56156C57.0318 1.7445 55.8346 2.03158 54.6317 2.29615C54.3303 2.35806 54.0317 2.43405 53.7359 2.51849L52.8457 2.76054C52.2542 2.92941 51.6542 3.06451 51.071 3.26715L49.3161 3.83005C49.0344 3.92012 48.7329 4.02425 48.4456 4.13402L47.5836 4.45488C46.423 4.86017 45.3019 5.36115 44.1723 5.83962C41.9313 6.83275 39.7526 7.96063 37.6481 9.21704C36.5805 9.82216 35.572 10.5145 34.5495 11.1872C34.0368 11.5221 33.5522 11.8993 33.0536 12.2539C32.555 12.6085 32.0536 12.9631 31.5832 13.3572L30.1493 14.5083C29.6704 14.8911 29.2254 15.3133 28.7606 15.7157C27.8253 16.5094 26.969 17.4045 26.0873 18.2488C24.3639 20.0054 22.7638 21.8787 21.2984 23.8553C18.2954 27.9041 15.857 32.3419 14.0503 37.0469C13.1573 39.3986 12.4168 41.8053 11.8333 44.2521C11.5094 45.468 11.3066 46.7063 11.0643 47.9391L10.977 48.4007L10.9122 48.8679L10.7798 49.7995L10.6474 50.7311C10.6023 51.0407 10.5572 51.3531 10.5347 51.6655C9.98007 56.6656 10.0747 61.7164 10.8164 66.6922C11.1768 69.178 11.7039 71.6368 12.3939 74.0521C12.7714 75.2511 13.1207 76.4642 13.5799 77.635L13.9066 78.5216C14.0137 78.8171 14.1235 79.1126 14.2531 79.3997L14.994 81.1363C19.1669 90.3423 25.6954 98.2864 33.9213 104.167C34.4171 104.553 34.9495 104.885 35.4678 105.24L36.2481 105.766C36.5073 105.943 36.7692 106.118 37.0397 106.275C38.1129 106.926 39.1778 107.595 40.2961 108.172L41.1243 108.623L41.5384 108.848L41.9637 109.053L43.6539 109.872L44.0793 110.078L44.5131 110.261L45.3807 110.627L46.2484 110.993L46.6822 111.176L47.1245 111.339C54.4932 114.161 62.3703 115.414 70.2518 115.02C70.9589 114.975 71.6603 114.939 72.3759 114.888L74.4914 114.654C75.1985 114.592 75.8999 114.452 76.5957 114.345L77.6464 114.176C77.9957 114.122 78.3422 114.035 78.6887 113.965C81.4672 113.409 84.1985 112.64 86.8579 111.662C87.5199 111.409 88.1904 111.184 88.8298 110.905L90.782 110.061C91.4299 109.78 92.0581 109.45 92.6975 109.143C93.013 108.986 93.337 108.84 93.6497 108.671L94.5793 108.161C95.8328 107.505 97.0272 106.754 98.2414 106.008C99.4104 105.212 100.594 104.438 101.703 103.565C102.267 103.14 102.83 102.721 103.368 102.256C103.906 101.792 104.458 101.359 104.988 100.891L106.546 99.4588C106.811 99.2251 107.056 98.9718 107.304 98.7214L108.047 97.967C110.025 95.9522 111.845 93.788 113.49 91.4937C113.695 91.2122 113.915 90.9308 114.109 90.6493L114.695 89.7684L115.278 88.8874C115.374 88.7411 115.476 88.606 115.56 88.4456L115.842 87.9924L116.924 86.1771C117.262 85.5579 117.588 84.9331 117.918 84.3139C118.279 83.6327 118.171 83.6356 117.808 84.3139L116.935 85.9491C116.625 86.4838 116.301 87.0102 115.983 87.5421L115.504 88.3358C115.34 88.5975 115.16 88.8508 114.991 89.107L113.954 90.6437C113.591 91.1447 113.216 91.6344 112.847 92.1298L112.284 92.87C112.092 93.112 111.892 93.3484 111.695 93.5849L110.509 95.0118L109.259 96.3797L108.633 97.0636L107.977 97.7166L106.658 99.0197L105.284 100.261C105.053 100.466 104.827 100.677 104.594 100.877L103.878 101.466C103.399 101.854 102.926 102.254 102.441 102.634L100.957 103.74C100.706 103.92 100.467 104.114 100.21 104.286L99.4442 104.804C98.9315 105.144 98.4273 105.501 97.9061 105.831C93.7367 108.487 89.2448 110.601 84.5396 112.121L83.6579 112.403L83.2156 112.543L82.7677 112.664L80.9761 113.146L80.5282 113.267L80.0747 113.365L79.1676 113.562L78.2605 113.756L77.807 113.855L77.3506 113.931L75.5196 114.229L75.0633 114.302L74.6013 114.356L73.6801 114.46L72.759 114.561C72.4519 114.598 72.1449 114.629 71.835 114.643L69.9842 114.753C69.3673 114.803 68.7476 114.787 68.1307 114.798C67.5138 114.809 66.894 114.823 66.2771 114.798C65.0433 114.736 63.8038 114.727 62.5756 114.584L60.7305 114.407L58.8966 114.142L57.9811 114.01C57.6769 113.959 57.3754 113.894 57.0712 113.835L55.2543 113.478C52.8416 112.943 50.4658 112.254 48.1414 111.415C36.412 107.224 26.4056 99.263 19.6899 88.7805C18.3772 86.7268 17.1909 84.595 16.1377 82.3972C15.5743 81.3108 15.1236 80.1737 14.6278 79.0564C14.3912 78.4935 14.1883 77.9137 13.9686 77.3451C13.7489 76.7766 13.5292 76.2024 13.3517 75.617L12.7883 73.872C12.608 73.2866 12.4615 72.6927 12.2981 72.1017C11.9516 70.9252 11.7347 69.7206 11.453 68.5273C10.9858 66.1225 10.6818 63.689 10.5432 61.2433C10.4446 60.0218 10.4586 58.7975 10.4474 57.5844C10.4305 56.9737 10.484 56.3629 10.5009 55.7522C10.5178 55.1414 10.5403 54.5307 10.5967 53.9199L10.7713 52.0961C10.8051 51.7922 10.822 51.4882 10.8671 51.1842L10.9995 50.278L11.2812 48.4654L11.639 46.6697C12.6231 41.8795 14.2184 37.2351 16.3856 32.8505C16.6391 32.2876 16.949 31.7556 17.2307 31.2153C17.5124 30.6749 17.7941 30.1317 18.1124 29.6025C18.7547 28.5584 19.3518 27.486 20.0589 26.4841C20.4054 25.9775 20.735 25.4624 21.0928 24.9642L22.1914 23.4922C22.5491 22.9941 22.9407 22.524 23.3322 22.054C23.7238 21.584 24.1041 21.1027 24.5097 20.6468C27.7397 16.9575 31.4322 13.6995 35.496 10.9536C37.5079 9.57546 39.604 8.32432 41.7722 7.20747C42.868 6.67271 43.9554 6.11825 45.085 5.65667L45.9301 5.2936C46.2118 5.16977 46.4935 5.05156 46.7751 4.95023L48.4879 4.30571C49.0513 4.07773 49.6428 3.91449 50.2231 3.72028L51.0936 3.43883C51.3753 3.34314 51.6739 3.25026 51.9697 3.17709C53.15 2.86186 54.3247 2.51849 55.5247 2.28489C57.9194 1.75592 60.3463 1.38455 62.7897 1.17315L64.8123 1.04369L65.3165 1.01273H65.8236H66.8348C68.1842 0.967696 69.5307 1.05494 70.88 1.10279C71.5533 1.14501 72.2237 1.21818 72.8942 1.27729L73.8998 1.37017L74.8999 1.51089L76.8999 1.79235L78.8718 2.18075C79.2014 2.2483 79.5338 2.30177 79.8606 2.38339L80.8409 2.62826C81.4944 2.79713 82.1536 2.94066 82.7987 3.13205L84.7339 3.72028L85.2185 3.86664L85.6945 4.03552L86.6467 4.37889C87.9256 4.80951 89.1594 5.36115 90.4073 5.87902C91.0214 6.16047 91.6271 6.4588 92.2384 6.74588C92.5426 6.89224 92.8497 7.02734 93.1511 7.18777L94.0441 7.66905C98.6952 10.1433 102.981 13.2491 106.78 16.8978C108.666 18.7338 110.428 20.6923 112.056 22.7605C112.825 23.8187 113.631 24.8404 114.309 25.9352L114.842 26.743C115.019 27.0245 115.2 27.2806 115.357 27.5592L116.332 29.2141C116.504 29.5389 116.706 29.8462 116.938 30.1317C117.053 30.1908 117.005 30.0022 116.729 29.4759Z" fill="#FF945C"/>
</g>
<path d="M117.317 33.493L116.604 32.0604C116.351 31.5903 116.086 31.1288 115.827 30.6531C115.322 29.7102 114.739 28.8152 114.173 27.909C113.891 27.4502 113.584 27.0168 113.28 26.5777L112.362 25.2605L111.384 23.9883C111.055 23.5662 110.739 23.144 110.384 22.7331C107.649 19.438 104.556 16.457 101.161 13.8448C97.7598 11.2578 94.0739 9.06705 90.1751 7.31517C89.6963 7.07875 89.192 6.89299 88.699 6.69035L87.2117 6.08804L85.6961 5.55892C85.1891 5.39005 84.6905 5.19021 84.1722 5.0523L82.6313 4.60197C82.3749 4.5288 82.1186 4.44718 81.8594 4.37963L81.0791 4.19388L79.5185 3.82798C78.9974 3.69852 78.4678 3.62253 77.941 3.51839C73.727 2.72187 69.4385 2.38777 65.1519 2.52205C60.8616 2.68902 56.6063 3.36455 52.4755 4.53443L51.698 4.74833L50.9318 4.99882L49.3994 5.4998C48.8867 5.66305 48.3909 5.87414 47.8866 6.06271C47.3824 6.25128 46.8782 6.43704 46.3824 6.64813C44.3952 7.47535 42.4568 8.41504 40.5766 9.46264C40.109 9.73002 39.6301 9.97488 39.1681 10.2591L37.7962 11.1035L37.1117 11.5313L36.4469 11.9901L35.1173 12.9076C34.675 13.2144 34.2581 13.5549 33.8271 13.8786C33.3961 14.2023 32.9623 14.5231 32.5538 14.8721L31.32 15.9163C31.1143 16.0908 30.9059 16.2625 30.7059 16.4398L30.1143 17.0027L28.934 18.106C28.5452 18.4803 28.179 18.8744 27.8072 19.26L27.2438 19.8398C27.0551 20.0311 26.8691 20.2281 26.6945 20.4336L25.6269 21.6467C25.4522 21.8521 25.2663 22.0463 25.0973 22.2574L24.5874 22.8766L23.5789 24.1403C23.255 24.5709 22.9451 25.0128 22.6296 25.4491C22.3141 25.8853 21.9845 26.3131 21.7028 26.7719C19.3065 30.3591 17.3221 34.2045 15.7871 38.2354C14.2861 42.253 13.2686 46.4347 12.7561 50.6924C11.679 59.223 12.5654 67.8867 15.3477 76.0231C16.7311 80.0786 18.5981 83.9529 20.9084 87.5626C22.0595 89.3668 23.3123 91.1043 24.6606 92.7666L25.7057 93.9825C26.0578 94.3849 26.3931 94.8015 26.7677 95.1814C27.5086 95.9498 28.2213 96.7491 29.0213 97.4696L30.1791 98.5757L31.3848 99.6284C32.1763 100.346 33.0299 100.988 33.8637 101.652C34.275 101.99 34.7088 102.294 35.1482 102.603L36.4497 103.532L37.7934 104.402C38.2441 104.683 38.6807 104.993 39.1484 105.246C42.8093 107.429 46.7116 109.18 50.7768 110.464C54.8373 111.735 59.03 112.538 63.273 112.857C67.5263 113.196 71.8041 113.064 76.0283 112.463C80.2483 111.829 84.3798 110.705 88.3385 109.113C92.2872 107.521 96.0389 105.48 99.5191 103.028C101.262 101.81 102.935 100.494 104.53 99.088C104.928 98.7334 105.308 98.3618 105.697 98.0016C106.085 97.6413 106.485 97.2867 106.846 96.8955C107.578 96.1243 108.345 95.3869 109.026 94.5707C109.57 93.9515 109.35 93.853 108.809 94.4694L108.285 95.066C108.108 95.2631 107.919 95.4488 107.736 95.6289L106.632 96.7688C106.269 97.1544 105.866 97.5006 105.485 97.8665C105.105 98.2324 104.719 98.5983 104.322 98.9473C102.731 100.349 101.062 101.66 99.3219 102.874C95.8536 105.317 92.1094 107.343 88.1666 108.911C80.2636 112.086 71.7221 113.354 63.2364 112.612C61.1233 112.438 59.0214 112.148 56.9404 111.742L56.5489 111.672L56.1601 111.582L55.3854 111.404L53.8361 111.047L52.3065 110.613C51.7994 110.461 51.2811 110.332 50.7825 110.16C46.7361 108.86 42.8545 107.095 39.216 104.9C35.5806 102.694 32.2036 100.088 29.1481 97.1319L28.5847 96.569C28.3959 96.3832 28.2157 96.1862 28.0213 96.0061L26.9227 94.8521C26.5508 94.4722 26.2212 94.0528 25.8691 93.656C25.517 93.2591 25.1677 92.8567 24.8353 92.4429C23.4948 90.7901 22.254 89.0589 21.1197 87.2586C16.5393 80.0703 13.8096 71.7788 12.9504 63.3352C12.5568 59.1021 12.6693 54.8371 13.2857 50.6305C14.5016 42.1951 17.5808 34.1357 22.3 27.0365C24.6757 23.4962 27.4644 20.2508 30.6073 17.3686C35.3326 13.0302 40.7624 9.5268 46.6641 7.00839C47.157 6.80574 47.6584 6.61717 48.1542 6.42296C48.65 6.22876 49.143 6.02049 49.6529 5.86006C50.6698 5.53358 51.6698 5.15925 52.7065 4.8975C56.8149 3.73572 61.0461 3.06215 65.3125 2.89076C69.5747 2.74232 73.8403 3.06609 78.0311 3.85613C86.4088 5.39285 94.3386 9.02639 101.113 14.146C104.484 16.737 107.551 19.7007 110.255 22.9807C110.607 23.3776 110.914 23.8251 111.241 24.2304C111.567 24.6357 111.891 25.0747 112.207 25.4941L113.117 26.8L113.57 27.453C113.722 27.6697 113.852 27.9005 113.998 28.1229L114.843 29.471L115.055 29.8087L115.249 30.1549L115.641 30.8473C115.897 31.3117 116.167 31.7677 116.415 32.2377L117.131 33.659L117.491 34.3683C117.61 34.5962 117.813 34.4386 117.317 33.493Z" fill="#FF945C"/>
<path d="M113.677 83.5684C111.74 86.9261 109.494 90.0959 106.967 93.0364C104.415 96.0042 101.529 98.6683 98.3668 100.976L98.0316 101.227L97.6823 101.46L96.9837 101.916L96.2879 102.383C96.0569 102.541 95.8231 102.696 95.5836 102.837C94.6259 103.399 93.6822 104.01 92.6878 104.525C90.7285 105.59 88.7038 106.53 86.6256 107.34C85.5749 107.717 84.5411 108.133 83.4678 108.443C82.9354 108.606 82.4058 108.786 81.8706 108.933L80.2508 109.355C79.9691 109.422 79.7127 109.504 79.4395 109.558L78.6198 109.729C78.0733 109.842 77.5296 109.963 76.9803 110.067L75.3267 110.326L74.4985 110.455L73.6534 110.545C73.0506 110.607 72.4478 110.681 71.8449 110.737L70.028 110.841C69.4223 110.889 68.8167 110.886 68.211 110.892C67.6054 110.897 66.9969 110.92 66.3913 110.892C65.18 110.838 63.9658 110.816 62.7602 110.678L61.8531 110.596L61.3996 110.554L60.9489 110.489L59.146 110.233C56.7486 109.848 54.3805 109.299 52.0585 108.589C50.8894 108.266 49.757 107.827 48.6133 107.424C48.0499 107.219 47.4865 106.965 46.9231 106.737C46.3597 106.509 45.7963 106.279 45.2583 106.006L43.6188 105.22C43.0836 104.939 42.554 104.657 42.0244 104.356L41.23 103.92L40.4582 103.444C39.9455 103.124 39.4271 102.817 38.9201 102.488C37.9313 101.795 36.9172 101.142 35.9763 100.385L35.258 99.8222L34.9002 99.5407L34.5538 99.2593L33.1762 98.0912C29.5651 94.895 26.3988 91.2298 23.7619 87.1935L23.2577 86.4335C23.0887 86.1802 22.9422 85.9128 22.7844 85.6539L21.8492 84.089C21.2858 83.0139 20.6717 81.9613 20.159 80.8495L19.7984 80.0559L19.6012 79.6449L19.4238 79.2256L18.7111 77.5369C18.4801 76.974 18.2857 76.397 18.0688 75.8285L17.7505 74.9841L17.4688 74.1144C16.7142 71.7936 16.1286 69.4214 15.7166 67.0162L15.4349 65.2149C15.3532 64.6126 15.2997 64.0075 15.2321 63.4052L15.1363 62.5017L15.0856 61.5926C15.0546 60.9875 15.0124 60.3824 14.9926 59.7773C14.9926 58.5642 14.9504 57.3512 15.0321 56.1381L15.0715 55.229C15.0715 54.9251 15.0912 54.6239 15.1279 54.3228L15.2969 52.5102L15.3391 52.0571L15.4039 51.6068L15.5335 50.7061L15.6631 49.8055L15.7279 49.3551L15.8152 48.9076L16.1645 47.1204C16.1955 46.9713 16.2208 46.8221 16.2546 46.6729L16.3645 46.231L16.5842 45.3473C17.7504 40.6301 19.5709 36.099 21.9928 31.8855C22.6323 30.8554 23.2323 29.7999 23.9422 28.8176L24.4577 28.069L24.714 27.6947L24.9957 27.3316L26.1 25.8877C26.4662 25.4065 26.8775 24.9589 27.2634 24.4805L27.8493 23.7881C28.0465 23.5573 28.2606 23.3434 28.4663 23.1211L29.7085 21.7983L31.0128 20.5373C32.7687 18.8732 34.6381 17.3328 36.6073 15.9272L37.3398 15.3924L38.0947 14.8914C38.6018 14.5621 39.1004 14.2188 39.6102 13.8979C40.6525 13.2843 41.6751 12.637 42.7512 12.0854C51.3195 7.45357 61.009 5.29595 70.735 5.85404C74.3615 6.05679 77.9598 6.61104 81.479 7.50898C85.0056 8.40273 88.4234 9.68066 91.6708 11.3198C98.2093 14.5975 103.994 19.1981 108.657 24.8295C110.99 27.6857 113.002 30.7901 114.655 34.0864C116.308 37.3907 110.973 26.3324 103.913 19.6649L102.567 18.4405C102.347 18.2323 102.113 18.0381 101.877 17.8495L101.173 17.2866C100.251 16.4957 99.2513 15.809 98.2851 15.0828C97.7865 14.7423 97.2766 14.413 96.7724 14.078L96.0146 13.5799L95.2343 13.1183C94.7103 12.8143 94.1977 12.4935 93.6681 12.2036L92.0624 11.3592C91.5328 11.0778 90.9779 10.8273 90.4314 10.5712L89.6088 10.1884C89.3271 10.0589 89.0623 9.93227 88.7778 9.82531L87.0876 9.14421L86.6679 8.97533L86.2397 8.82617L85.3946 8.52783C84.2678 8.10284 83.0959 7.78761 81.941 7.44142C81.6593 7.34854 81.3579 7.28381 81.0649 7.21064L80.1832 6.99673C79.5944 6.85882 79.0141 6.69276 78.4169 6.59144C66.6201 4.07998 54.3183 5.67451 43.5534 11.1104C32.7884 16.5462 24.2076 25.4966 19.235 36.4759L18.5364 38.1393C18.4209 38.4208 18.2998 38.7022 18.1899 38.9837L17.8829 39.828C17.68 40.3909 17.466 40.9538 17.2716 41.5167L16.742 43.242C16.6575 43.5235 16.5589 43.8049 16.4828 44.1061L16.2631 44.9814C16.1194 45.5668 15.9617 46.1466 15.8265 46.7348L15.4744 48.5052C15.418 48.7866 15.3504 49.0934 15.3025 49.3917L15.1701 50.2839C13.6465 59.8647 14.8098 69.6799 18.5308 78.6401C22.3019 87.6183 28.474 95.3858 36.3707 101.092C38.3235 102.514 40.3726 103.8 42.5033 104.939L43.3005 105.372C43.5653 105.516 43.8442 105.637 44.1146 105.772L45.7484 106.557L47.4048 107.264L48.2499 107.616L49.095 107.925L50.8021 108.542L52.5402 109.073L53.4106 109.338L54.2923 109.558L56.0558 109.999L57.8276 110.36L58.7206 110.534L59.6192 110.664L61.4193 110.92L63.2278 111.086C65.7974 111.303 68.38 111.318 70.952 111.131L71.9154 111.069L72.8731 110.962C73.5098 110.883 74.1492 110.827 74.7859 110.731L76.6845 110.416L77.1578 110.334L77.6282 110.233L78.5691 110.03L79.5099 109.828C79.8226 109.757 80.1297 109.665 80.4395 109.583C81.0565 109.411 81.679 109.259 82.2931 109.076L84.1241 108.488L84.5805 108.342L85.0312 108.173L85.9326 107.835L86.8341 107.497C87.1327 107.382 87.4256 107.247 87.7214 107.123C88.3102 106.864 88.9046 106.625 89.4849 106.355L91.2173 105.51C91.499 105.375 91.7807 105.229 92.0624 105.066L92.9075 104.604L93.7075 104.168C93.9723 104.021 94.2287 103.855 94.4878 103.698L96.0456 102.744C97.0484 102.051 98.0823 101.395 99.0457 100.636L99.7809 100.073L100.147 99.7912L100.502 99.5098L101.911 98.3361C102.378 97.9393 102.82 97.5143 103.277 97.1034L103.958 96.4842L104.609 95.834C106.354 94.118 107.982 92.2863 109.48 90.3513L110.584 88.8962C110.939 88.4037 111.274 87.8971 111.621 87.3989L112.139 86.6503L112.618 85.8791C112.936 85.364 113.263 84.8574 113.576 84.3424C114.198 83.2672 114.283 82.5157 113.677 83.5684Z" fill="#FF945C"/>
<g opacity="0.6">
<path opacity="0.6" d="M114.097 35.9181L113.457 34.5868L112.753 33.2837C109.083 26.4435 103.897 20.5324 97.5894 16.0026C91.1329 11.443 83.6002 8.59195 76.1381 7.34793C72.0449 6.65901 67.8868 6.43619 63.7434 6.68371C63.225 6.69778 62.7095 6.75688 62.194 6.80754L60.6447 6.95953L59.1066 7.19032C58.5939 7.26631 58.0784 7.33667 57.5714 7.45207L56.0417 7.76167C55.7854 7.80951 55.5319 7.86862 55.2812 7.93898L54.5234 8.13318C54.022 8.26828 53.5093 8.37805 53.0135 8.53566L51.5205 9.00287C51.2726 9.08449 51.0191 9.15204 50.774 9.2421L50.0387 9.52355L48.5655 10.0724L47.1232 10.6719L46.3992 10.9843C46.157 11.0884 45.926 11.2123 45.6893 11.3277L44.2808 12.0257C43.8076 12.2593 43.3569 12.5323 42.8949 12.7828L42.2047 13.1655L41.8611 13.3569L41.5258 13.5652L40.185 14.4095C39.7314 14.6769 39.3089 14.9922 38.8723 15.2849C38.4356 15.5776 38.0018 15.8731 37.5793 16.1855L36.3257 17.1396L35.7003 17.6181L35.0975 18.1247L33.8834 19.121L32.7228 20.1793C31.934 20.866 31.2185 21.6316 30.4692 22.3577C30.2805 22.5379 30.103 22.7292 29.9283 22.9206L29.4016 23.4976C29.0551 23.886 28.6889 24.2575 28.3565 24.66L27.3593 25.8646C27.1959 26.0673 27.024 26.2615 26.8635 26.4697L26.3958 27.0946L25.4578 28.3442C25.1592 28.772 24.8747 29.2083 24.5817 29.6389C23.9789 30.4832 23.4549 31.3979 22.9197 32.2873C22.638 32.7264 22.4098 33.1964 22.1563 33.6524L21.4182 35.0315L20.7478 36.4387C20.5224 36.9088 20.2943 37.3788 20.1027 37.8657C19.7055 38.8311 19.2858 39.788 18.9562 40.7843L18.4322 42.2648L17.9815 43.7705C17.3973 45.7564 16.9271 47.7739 16.573 49.8133C16.4857 50.3227 16.4266 50.8378 16.3505 51.35L16.2434 52.1184C16.204 52.3745 16.1702 52.6306 16.1533 52.8896L16.0181 54.4375C15.9956 54.6965 15.9674 54.9526 15.9533 55.2115L15.9251 55.9883L15.866 57.5448C15.866 58.0626 15.866 58.5833 15.866 59.1012V59.8808V60.2692L15.8913 60.6576L15.9871 62.214C16.0068 62.7347 16.0716 63.2498 16.1308 63.7676L16.3026 65.3184L16.5533 66.8608C16.635 67.3759 16.7111 67.8909 16.835 68.3975L17.159 69.9202C17.2069 70.1763 17.2717 70.4268 17.3393 70.6773L17.5393 71.4288C17.6773 71.9297 17.7928 72.4363 17.9477 72.9317L18.4181 74.4178C18.497 74.6654 18.5703 74.9131 18.6576 75.1608L18.9393 75.8926L19.483 77.3561C19.6802 77.8374 19.8914 78.3131 20.0914 78.7915C20.2914 79.27 20.4886 79.7541 20.7281 80.2157C21.1844 81.1501 21.6211 82.0958 22.1366 83.002C22.3901 83.458 22.6267 83.9224 22.8943 84.3699L23.7084 85.704C23.8465 85.9263 23.9901 86.1515 24.1169 86.371L24.5564 87.0183L25.4324 88.3215L26.3677 89.5767C26.6804 89.9933 26.9846 90.4211 27.3254 90.8151L28.317 92.0225L28.5649 92.3237L28.8269 92.6051L29.348 93.1849C29.7002 93.5677 30.0326 93.9674 30.396 94.3417L31.4889 95.4675L32.0354 96.0304L32.5988 96.5595L33.7397 97.6234C34.1284 97.9696 34.5313 98.2961 34.9285 98.6366C35.3257 98.9772 35.7144 99.3234 36.1341 99.6302C39.4161 102.229 43.0126 104.403 46.8387 106.104C54.5459 109.425 63.0842 110.978 71.4534 110.348C72.5042 110.3 73.5436 110.154 74.5887 110.035C75.1127 109.988 75.6282 109.883 76.1465 109.799C76.6649 109.715 77.1832 109.63 77.7015 109.534L79.2424 109.197L80.0142 109.031C80.2706 108.969 80.5213 108.896 80.7776 108.828L82.3354 108.389C82.8425 108.248 83.3383 108.071 83.8397 107.916C85.8387 107.269 87.798 106.505 89.7075 105.628L91.1159 104.933L91.823 104.587C92.054 104.465 92.2822 104.333 92.5132 104.209L93.8879 103.449C94.3442 103.193 94.7808 102.903 95.2287 102.633C97.0096 101.531 98.7243 100.325 100.364 99.0222L101.57 98.0118L102.173 97.508L102.753 96.9761L103.908 95.9094C104.288 95.5491 104.646 95.1635 105.015 94.7836C107.954 91.8091 110.504 88.4745 112.604 84.8596C112.832 84.483 113.035 84.0919 113.212 83.6888C113.311 83.4073 113.319 83.2807 113.263 83.275C113.207 83.2694 113.086 83.4017 112.886 83.6522C112.608 84.0211 112.353 84.4065 112.122 84.8061C109.836 88.629 107.075 92.1479 103.905 95.2789C102.311 96.8387 100.617 98.2932 98.8345 99.633C97.964 100.328 97.0203 100.928 96.1076 101.567C95.6428 101.873 95.1611 102.155 94.6992 102.45C94.2372 102.746 93.7526 103.039 93.2569 103.295L91.7864 104.1C91.2906 104.356 90.7836 104.592 90.2821 104.837L89.53 105.203C89.2793 105.324 89.0173 105.425 88.761 105.538L87.2201 106.196C86.6989 106.399 86.175 106.588 85.651 106.785L84.8651 107.066C84.6031 107.159 84.3327 107.238 84.0679 107.322L82.4706 107.829L80.8537 108.259L80.0452 108.473C79.7635 108.538 79.4987 108.592 79.2283 108.651L77.5916 109L75.9409 109.281L75.1155 109.416C74.8338 109.456 74.5521 109.481 74.2845 109.515L72.6225 109.703C72.0591 109.748 71.5098 109.776 70.9548 109.816L70.1097 109.869C69.828 109.889 69.5463 109.869 69.2646 109.889L67.5942 109.914C63.1464 109.872 58.722 109.265 54.4276 108.107C50.14 106.913 46.0166 105.193 42.1512 102.988C38.2808 100.771 34.7052 98.076 31.5087 94.9665C29.907 93.412 28.4098 91.7534 27.0268 90.0017C26.3592 89.1095 25.6634 88.237 25.055 87.3026C24.7479 86.8382 24.4155 86.3907 24.1282 85.9122L23.2605 84.4656C22.9591 83.9955 22.7169 83.4974 22.4464 83.0105L22.0521 82.2759C21.9197 82.0338 21.7873 81.789 21.6746 81.5357C21.2013 80.5337 20.7112 79.5402 20.3112 78.5073C19.4677 76.47 18.7609 74.3789 18.1956 72.2478C17.0759 67.9941 16.479 63.6201 16.4181 59.2222C16.4181 58.6593 16.3956 58.1189 16.4181 57.5701L16.4829 55.918C16.4829 55.6365 16.4998 55.3551 16.5167 55.0933L16.5899 54.2715L16.7336 52.625C17.2594 48.2454 18.3199 43.9466 19.8914 39.8246L20.5224 38.2991L20.8379 37.5364L21.1929 36.7905L21.8971 35.2989C22.1507 34.8119 22.4155 34.3307 22.6746 33.8438C24.7774 29.9682 27.3633 26.3745 30.3706 23.1486C31.8796 21.5383 33.4925 20.0283 35.1989 18.6285C36.044 17.9052 36.937 17.2719 37.8159 16.6077C38.261 16.2812 38.7258 15.9885 39.1793 15.6761C39.6328 15.3637 40.0892 15.0541 40.5652 14.7811L41.9737 13.9367C42.4498 13.6553 42.94 13.4132 43.4217 13.1515C44.3766 12.6083 45.3936 12.1776 46.371 11.6964C46.8697 11.4712 47.3823 11.2714 47.8838 11.0575L48.6415 10.7422C48.8922 10.6353 49.1542 10.5537 49.4106 10.4608L50.9543 9.89788C51.4726 9.72338 51.9994 9.57421 52.5205 9.41097C56.708 8.1493 61.0381 7.42022 65.4082 7.24098C67.5934 7.15425 69.782 7.20689 71.9605 7.39859C74.1381 7.5873 76.3019 7.91065 78.4395 8.36679C82.7232 9.30572 86.8714 10.7799 90.7864 12.7546C91.7413 13.2809 92.7273 13.7566 93.6512 14.3392C94.1188 14.6206 94.5949 14.9021 95.0597 15.1835L96.4288 16.0898C96.657 16.2418 96.8908 16.3713 97.1105 16.5458L97.7725 17.0327C98.2119 17.3592 98.6626 17.6744 99.0993 18.0065L100.378 19.0394C100.589 19.2139 100.809 19.38 101.015 19.5601L101.629 20.1089C102.037 20.4748 103.79 22.1157 104.615 22.9431C105.856 24.1754 107.01 25.492 108.069 26.8835C108.947 28.0093 110.249 30.016 110.249 30.016C110.564 30.4635 110.84 30.9335 111.122 31.4008C111.404 31.868 111.686 32.3295 111.967 32.808C112.48 33.7734 113.032 34.7163 113.483 35.7098C114.466 37.6518 114.548 36.7934 114.097 35.9181Z" fill="#FF945C"/>
</g>
<g opacity="0.7">
<path opacity="0.7" d="M116.66 81.4344C114.884 85.2543 112.662 88.8509 110.04 92.1492C107.391 95.4779 104.349 98.4738 100.978 101.071C100.153 101.744 99.2684 102.338 98.4007 102.957C97.9726 103.275 97.5134 103.545 97.0683 103.835L95.719 104.679C93.8919 105.771 92.0054 106.759 90.0681 107.64C82.2919 111.215 73.773 112.881 65.2217 112.498C56.6704 112.116 48.3345 109.697 40.909 105.442C37.2232 103.346 33.8016 100.816 30.7172 97.9077C27.6577 94.9897 24.926 91.747 22.5704 88.2371C20.2271 84.7092 18.2908 80.9278 16.7984 76.9649C16.5956 76.4752 16.4407 75.9714 16.2688 75.4704L15.7646 73.9675L15.3364 72.442C15.1956 71.9326 15.0378 71.4288 14.9336 70.9109C14.7054 69.8808 14.4406 68.8563 14.2801 67.815L13.9984 66.2557L13.8012 64.6852C13.6406 63.596 13.5871 62.4955 13.497 61.3979C13.4406 60.849 13.4491 60.2974 13.4293 59.7457C13.4096 59.1941 13.3927 58.6453 13.3871 58.0936C13.3947 55.8867 13.5301 53.6821 13.7927 51.4908C13.8632 50.9448 13.9223 50.3959 13.9984 49.8471L14.2801 48.2175C14.4435 47.1255 14.7252 46.056 14.9618 44.9808C15.0716 44.4404 15.2435 43.9141 15.3872 43.3822L15.8407 41.792L16.3703 40.2271C16.5449 39.7064 16.7196 39.1829 16.9337 38.6763L17.545 37.1536C17.6435 36.8975 17.7534 36.6442 17.8717 36.3965L18.2154 35.6479C18.4492 35.1497 18.6633 34.6431 18.9168 34.1562L19.6802 32.6983C19.8098 32.4562 19.9309 32.2114 20.0633 31.9693L20.4802 31.2601L21.3253 29.8528C21.607 29.3884 21.9254 28.9353 22.2268 28.4765C22.5282 28.0177 22.8183 27.5533 23.1535 27.1171C23.8015 26.2333 24.4325 25.3355 25.1395 24.4968C25.4888 24.0746 25.8184 23.6355 26.1818 23.2246L27.2748 21.9947C27.4579 21.792 27.6354 21.581 27.8241 21.3839L28.3875 20.7957L29.5368 19.6192L30.7397 18.4934C31.1397 18.1163 31.5369 17.7391 31.9623 17.393C35.2758 14.4873 38.9186 11.9794 42.8161 9.92043L44.2865 9.15769L45.7908 8.46814C46.7852 7.98404 47.8247 7.62378 48.8472 7.19597C49.3599 6.99051 49.8867 6.83291 50.4078 6.64715L51.191 6.37977C51.4501 6.28689 51.7121 6.20245 51.9797 6.13209C53.0417 5.85064 54.0924 5.50445 55.1714 5.28773C59.3639 4.31036 63.6656 3.87991 67.9689 4.00713C72.2374 4.1388 76.479 4.73142 80.6199 5.77465C80.8819 5.83094 81.1411 5.9013 81.3974 5.97729L82.1721 6.19682C82.6876 6.34599 83.2059 6.47828 83.7186 6.63871L85.2454 7.14813L86.0088 7.40144C86.2652 7.48587 86.5103 7.59282 86.761 7.68289L88.2652 8.26268L88.6427 8.40903L89.0117 8.57227L89.7498 8.89876C90.2399 9.12111 90.7385 9.32374 91.2231 9.56016L92.6653 10.2835C96.509 12.2355 100.087 14.67 103.314 17.5281C104.136 18.2148 104.88 18.9888 105.654 19.7234C105.852 19.9063 106.035 20.1005 106.218 20.2863L106.767 20.8717C107.128 21.2657 107.508 21.6429 107.857 22.051L108.897 23.2725C109.069 23.4779 109.246 23.6778 109.415 23.886L109.905 24.5221L110.888 25.7915C111.201 26.2249 111.503 26.6668 111.812 27.103C112.446 27.9671 112.993 28.8874 113.573 29.7881C114.046 30.5902 114.255 32.1072 112.072 28.7326C111.815 28.2992 111.508 27.8883 111.226 27.4858L110.364 26.2474L109.432 25.0794C109.125 24.6825 108.829 24.2744 108.494 23.8973C107.838 23.1374 107.212 22.3493 106.508 21.6316L105.477 20.534C105.122 20.1793 104.756 19.836 104.395 19.4898C101.5 16.7178 98.2848 14.3001 94.8175 12.2874C91.3546 10.2773 87.6892 8.63767 83.882 7.39581C80.0892 6.13937 76.1699 5.3022 72.1944 4.89933C68.216 4.49318 64.2039 4.55175 60.2391 5.07384C56.0482 5.63547 51.9452 6.72392 48.0275 8.31334C47.0359 8.68204 46.0838 9.14362 45.1176 9.57424C44.6302 9.78251 44.1682 10.0386 43.7091 10.2751C43.2499 10.5115 42.7654 10.7535 42.3006 11.0012C40.451 12.0189 38.6586 13.137 36.9314 14.3505C35.2054 15.5589 33.5456 16.8592 31.9594 18.2458L30.7848 19.3181C30.4016 19.6783 30.0045 20.0245 29.6439 20.4101C28.9087 21.1644 28.1537 21.899 27.4692 22.7011C24.6321 25.834 22.2008 29.3109 20.2323 33.0501C18.2638 36.8005 16.7634 40.778 15.7646 44.8936C14.7832 49.0078 14.2571 53.2173 14.1956 57.4463C14.1239 61.7827 14.5713 66.1121 15.528 70.3424C16.4733 74.59 17.9576 78.6996 19.945 82.5714C23.9763 90.3734 29.8514 97.0751 37.061 102.096C37.4948 102.428 37.9652 102.706 38.4188 103.01C38.8723 103.314 39.3258 103.604 39.7991 103.886L41.2076 104.716L41.9118 105.133L42.6358 105.513L44.0837 106.275C44.5711 106.52 45.0697 106.74 45.5626 106.973C46.5429 107.455 47.5627 107.846 48.5712 108.259C49.0726 108.476 49.5909 108.645 50.1064 108.822L51.6529 109.363L53.2276 109.822C53.7544 109.971 54.2727 110.14 54.8108 110.255C55.8756 110.5 56.9348 110.784 58.0193 110.956L59.6363 111.237L61.2673 111.448C63.4513 111.718 65.6501 111.849 67.8506 111.842L69.5013 111.789C70.0647 111.766 70.6028 111.764 71.1493 111.704C72.2451 111.606 73.3437 111.536 74.4339 111.361C74.9775 111.282 75.524 111.218 76.0677 111.127L77.6875 110.821L78.4988 110.669L79.3016 110.477L80.9045 110.095C81.4369 109.957 81.9608 109.793 82.4876 109.644C83.0144 109.495 83.5468 109.363 84.0623 109.166C85.0989 108.808 86.144 108.479 87.161 108.057C89.2066 107.264 91.2061 106.358 93.1499 105.341C95.0832 104.308 96.955 103.165 98.7557 101.916C99.674 101.308 100.533 100.627 101.406 99.9454C101.852 99.6218 102.252 99.2503 102.68 98.8984C103.108 98.5466 103.525 98.1948 103.93 97.8261L105.133 96.7003C105.333 96.5117 105.536 96.3288 105.731 96.1374L106.294 95.5435L107.438 94.3586L108.519 93.1174C111.395 89.7844 113.842 86.1055 115.804 82.1662C116.776 80.2804 117.415 79.7823 116.66 81.4344Z" fill="#FF945C"/>
</g>
</g>
<defs>
<filter id="filter0_f" x="0.164429" y="107.132" width="133.204" height="31.5948" filterUnits="userSpaceOnUse" color-interpolation-filters="sRGB">
<feFlood flood-opacity="0" result="BackgroundImageFix"/>
<feBlend mode="normal" in="SourceGraphic" in2="BackgroundImageFix" result="shape"/>
<feGaussianBlur stdDeviation="5" result="effect1_foregroundBlur"/>
</filter>
<filter id="filter1_f" x="25.08" y="113.834" width="86.1753" height="12.9502" filterUnits="userSpaceOnUse" color-interpolation-filters="sRGB">
<feFlood flood-opacity="0" result="BackgroundImageFix"/>
<feBlend mode="normal" in="SourceGraphic" in2="BackgroundImageFix" result="shape"/>
<feGaussianBlur stdDeviation="2" result="effect1_foregroundBlur"/>
</filter>
<linearGradient id="paint0_linear" x1="66.7665" y1="117.132" x2="66.7665" y2="128.727" gradientUnits="userSpaceOnUse">
<stop stop-color="#B4B4B4"/>
<stop offset="1" stop-color="#F2F1EE"/>
</linearGradient>
<clipPath id="clip0">
<rect width="107.992" height="114.326" fill="white" transform="translate(10.1644 0.753906)"/>
</clipPath>
</defs>
</svg>
