<svg width="135" height="43" viewBox="0 0 135 43" fill="none" xmlns="http://www.w3.org/2000/svg">
<path d="M16.3866 0.909609C16.3866 0.909609 15.6504 1.18086 15.4954 1.39398C15.3404 1.60711 15.2047 1.87836 15.2629 2.09149C15.2435 2.09149 15.2241 2.11086 15.2047 2.11086C15.0497 2.18836 14.7785 2.24649 14.6816 2.42086C14.6235 2.53711 14.8172 2.92461 14.8172 3.06024C14.9722 3.29274 15.1079 3.58336 15.3016 3.77711L16.4641 4.12586L17.2585 4.76524C17.7235 5.09461 18.731 6.27648 19.1572 7.98149C18.8666 6.72211 18.4016 5.38523 18.1691 4.97836L17.9366 4.45523C17.801 4.22273 17.6847 4.06773 17.7622 3.89336C17.956 3.48648 18.7891 3.19586 19.6804 3.06024C20.2035 3.02148 20.746 3.00211 21.3854 3.00211C21.5791 3.00211 21.7729 3.00211 21.9666 3.00211C22.7029 3.02148 23.4972 3.06024 24.2529 3.13774C27.3141 3.40898 30.3172 3.91273 30.356 3.93211C32.0416 4.37773 33.8629 4.86211 35.6647 5.52086C36.6335 5.86961 37.6216 6.29586 38.5322 6.76086C39.3847 7.20648 40.1985 7.69086 40.9541 8.27211C42.1554 9.18273 43.1822 10.1902 44.2091 11.7015C44.4416 12.089 44.616 12.5346 44.7129 13.0384C44.7322 13.2321 44.7322 13.484 44.7322 13.7359C44.5385 14.104 44.5966 14.3752 44.616 14.6659C44.5772 14.9565 44.461 15.2665 44.3447 15.5571C43.6472 17.0102 42.4266 18.2309 41.0897 19.3546C40.3729 19.9552 39.036 20.6334 38.1835 21.2534C37.7572 21.5634 33.1072 23.7721 31.9254 24.5084L30.2204 25.1865C29.3291 25.2834 26.3066 26.7752 25.7835 26.969L25.4735 27.0852L24.8341 27.279C24.5629 27.3177 24.3304 27.3952 24.0785 27.4727C22.0829 27.7827 20.2035 28.054 20.1454 28.0346C20.1066 28.0346 17.7622 28.6934 16.2897 29.1777L13.5191 29.7202L13.1316 29.7784C12.7635 29.7977 12.2597 29.8946 11.6979 29.9915C10.8066 30.1077 9.70225 30.2627 8.59787 30.4177C6.69912 30.689 4.81975 30.9021 3.94787 31.0184C3.03725 31.154 2.32037 31.3284 1.77787 31.5802C1.27412 31.8127 0.925371 31.8515 0.654121 32.1034C0.324746 32.4521 0.208496 32.8202 0.208496 33.0527C0.208496 33.2465 0.247246 33.3046 0.344121 33.2852C0.499121 33.2659 1.09975 32.7234 1.42912 32.4909C1.681 32.3552 1.991 32.1421 2.28162 32.0065C3.01787 31.7159 4.0835 31.619 5.36225 31.3865C6.98975 31.0959 8.8885 30.9602 9.79912 30.8634C10.2254 30.8246 10.6904 30.8052 11.136 30.7859C11.7366 30.7859 13.2285 30.6309 13.4029 30.6115C13.7322 30.534 14.8754 30.4371 15.3791 30.2046C16.0379 29.8559 17.3747 29.9334 17.956 29.7396C20.1066 29.3909 22.7416 28.8677 22.9935 28.8677C23.7879 28.7709 24.7372 28.6159 24.8147 28.5965C24.6985 28.674 25.6285 28.364 25.9191 28.3446C26.6554 28.2865 28.4185 27.4921 28.4185 27.5502C28.3991 27.3759 36.9435 25.0702 37.641 23.7334C39.8304 22.7259 41.5741 21.5052 42.4654 20.8465L42.6591 20.6915C42.7366 20.6915 42.8335 20.7109 42.8529 20.7302C42.9497 20.7302 43.066 20.6334 43.221 20.5171C43.376 20.4202 43.7635 19.839 43.841 19.7809C43.8797 19.7227 44.0735 19.529 44.1122 19.4321C44.5385 19.0059 44.9647 18.5796 45.391 18.0759C46.0691 17.3396 46.321 16.5065 46.321 15.6346C46.321 15.1502 46.2241 14.6271 46.1272 14.1427C45.8754 12.9609 45.391 12.6509 44.8679 11.6627C44.1704 10.4421 42.7754 8.83398 41.2447 7.88461C40.4116 7.32273 39.4816 6.81898 38.5322 6.35398C37.3504 5.75336 36.1104 5.24961 34.9091 4.80398C32.7972 4.00961 30.8016 3.40898 29.3097 3.02148C28.6122 2.82774 27.5272 2.61461 26.3066 2.40148C24.6597 1.83961 21.3466 1.31648 20.9591 1.41336C20.8816 1.43273 19.971 1.39398 19.0991 1.25836C17.8397 1.08398 16.5029 0.79336 16.3866 0.909609ZM24.4854 10.9652C24.5629 10.8684 24.6404 10.7327 24.6985 10.5971C24.9116 10.4034 25.6479 10.7521 25.6866 10.6359C25.8416 10.2096 25.706 10.1902 25.861 9.80273C25.9385 9.64773 26.016 9.51211 26.0741 9.35711L26.8297 9.57023C27.0429 9.18273 26.3066 9.29898 26.4616 8.83398C26.5004 8.73711 26.5004 8.67898 26.4229 8.46586C26.4229 8.27211 26.2679 8.09773 26.1129 7.94273C26.171 7.86523 26.2291 7.80711 26.1516 7.74899C26.0354 7.65211 26.1516 7.24523 26.016 7.24523C25.9385 7.24523 25.4347 7.34211 25.0666 7.43898C24.8147 7.36148 24.5241 7.41961 24.3304 7.47773C24.2916 7.51649 24.2529 7.55523 24.2141 7.55523C24.1754 7.57461 24.156 7.59399 24.1172 7.61336C23.9429 7.43898 23.7491 7.76836 23.7104 8.11711C23.691 8.19461 23.7104 8.25273 23.7297 8.31086L23.0322 9.51211C22.7804 9.80273 20.9397 13.174 20.7072 14.0071C20.7072 14.0265 20.6879 14.0265 20.6879 14.0459C20.2229 14.8209 19.7966 15.5959 19.3704 16.3515C19.5641 15.2471 19.6416 14.1427 19.6416 13.1159C19.6416 11.4109 19.4479 9.93836 19.3704 8.98899L19.351 8.77586L19.2735 8.60148C19.1379 8.29148 19.3316 9.27961 19.3316 9.62836C19.3122 11.779 19.4479 15.6927 17.956 18.7927L16.8322 21.2146C16.5222 21.8152 16.1154 22.5321 15.7279 23.2877C15.5535 23.559 15.4179 23.8109 15.3791 23.9852L15.1466 24.489C14.8947 24.8571 14.5654 25.2059 14.5654 25.4577C14.5654 25.574 14.5847 25.6902 14.6041 25.7871C14.5266 25.9809 14.4491 26.1552 14.4297 26.3102L14.391 26.4265H14.4104C14.3716 26.5621 14.3522 26.6784 14.3522 26.7752C14.4297 27.1627 14.6622 27.3177 14.9335 27.2209C15.0691 27.3177 15.2435 27.3565 15.4372 27.3565C16.0379 27.3565 16.7354 26.9496 16.7741 26.9496C17.5685 26.9302 17.3941 26.2909 17.4135 25.8646C17.4135 25.5546 17.7235 23.6752 17.6847 22.8227C17.7622 22.5515 17.8397 22.2609 17.9366 22.0477C18.3047 21.0402 19.0991 19.3352 19.5835 18.4052C20.1647 17.3977 21.521 14.879 22.1216 13.8715L22.451 13.5034L22.761 12.9415C23.226 12.6121 24.0397 11.469 24.4854 10.9652ZM34.8897 24.799C33.1847 25.6515 30.6466 26.6396 28.496 27.0659L27.2754 27.279C28.2635 27.0077 31.5379 25.9421 34.8897 24.799ZM37.176 22.6677C37.1372 22.6484 36.9047 22.7259 36.8466 22.8227L36.3235 23.094L36.3816 23.0552L37.1954 22.5515L37.5441 22.3384C38.3191 21.8927 39.0554 21.3696 39.7722 20.8659C39.9079 20.769 40.0822 20.5365 40.2179 20.4009L40.3341 20.3234C40.4116 20.2846 40.4504 20.2846 40.5279 20.3234C40.6054 20.4009 40.6829 20.4784 40.7604 20.5171C39.501 21.4084 38.1641 22.164 37.176 22.6677ZM41.4191 20.0327L41.3029 20.1296C41.3222 19.9746 41.3222 19.8002 41.3997 19.7227C41.4966 19.5677 41.6904 19.4902 41.8454 19.374C42.5429 18.8509 43.221 18.3084 43.7441 17.8627C43.1629 18.6377 42.3297 19.3352 41.4191 20.0327ZM18.5566 2.03336C18.3822 2.05273 17.9366 2.18836 17.646 2.14961C17.491 2.13023 17.3554 2.07211 17.2197 2.01399C17.5685 1.85899 17.9366 1.74273 18.3047 1.68461C18.4016 1.66523 18.4791 1.66523 18.576 1.66523L19.2347 1.78149C18.9635 1.87836 18.6341 2.03336 18.5566 2.03336ZM34.2504 23.9077L36.5754 22.6484C35.9747 22.9971 35.4516 23.3459 34.9479 23.6365C34.7154 23.7527 34.4829 23.8302 34.2504 23.9077ZM20.3779 1.99461C20.2035 1.99461 20.126 1.95586 20.0485 1.91711C20.0291 1.89773 19.9516 1.83961 19.9322 1.80086C20.2035 1.85899 20.3972 1.91711 20.3972 1.91711L20.6685 2.01399C20.5522 2.01399 20.4554 2.01399 20.3779 1.99461ZM56.6454 16.6034C56.0836 16.5259 56.1029 16.3709 55.6379 16.4871C55.1342 16.3515 53.3904 17.049 52.8479 17.1459C52.2861 17.2621 51.7436 17.4946 50.9492 17.8627L50.0967 18.3471C49.5736 18.6377 48.6436 19.684 48.1786 19.9165C47.5779 20.2846 46.9192 21.3309 46.3379 22.0865C46.2023 22.319 46.1829 22.6677 46.2798 22.7646L46.2992 22.784C46.2023 23.0165 46.1442 23.2102 46.1442 23.3846C46.1442 23.9852 46.8611 25.0121 47.6748 25.1671C47.9654 25.2252 48.2173 25.2446 48.5079 25.2446C49.1861 25.2446 49.8642 25.109 50.5617 25.109C52.2473 25.0315 53.9717 24.2371 55.7348 23.714C57.0523 23.3265 57.6336 23.0552 58.2148 22.8034L60.6754 21.7184C61.0436 21.544 61.4117 21.4084 61.7604 21.234C61.8767 21.1177 61.9929 21.0402 62.0511 20.924C62.1286 20.769 62.1867 20.6527 62.2061 20.5365C62.2061 20.304 62.2836 20.304 62.0511 20.304L61.2567 20.9627C60.7529 21.079 60.7142 21.0596 60.5786 21.0984C60.4042 21.1565 60.2298 21.3115 60.1523 21.4665L59.7648 21.6409C58.3892 22.474 58.7379 22.1252 58.3892 22.2996C57.5561 22.6096 56.7036 22.939 55.8123 23.2102C55.5411 23.3071 55.3086 23.3846 55.0373 23.4621C54.6111 23.5009 53.9136 23.5784 53.4873 23.5977C53.1967 23.6171 52.6736 23.714 52.3442 23.714C51.2979 23.714 50.2517 23.6946 49.9998 23.5396C49.3798 23.1327 48.8761 22.8034 48.8567 22.6677C48.7598 22.0865 49.0698 21.5827 49.3217 21.234C49.6317 21.3115 49.9998 21.389 50.1354 21.389C50.2904 21.4084 50.5811 21.2921 50.7167 21.2534C51.1623 21.1371 51.4336 21.0015 51.5886 20.7496C51.6661 20.614 52.8673 20.1102 53.6423 19.7034C53.8167 19.684 53.9911 19.6259 54.1654 19.5677C54.9211 19.374 55.6573 18.9477 55.9673 18.8315C56.5292 18.599 56.9554 18.599 57.2267 18.134C57.2461 18.0759 57.3042 17.9984 57.3042 17.9402C57.4011 17.8434 57.5754 18.0371 57.6142 17.9402C57.7498 17.7077 57.7111 17.5527 57.5367 17.4365C57.6142 16.7002 56.8779 16.6615 56.6454 16.6034ZM54.2623 17.5915C54.8048 17.3784 55.8704 17.204 56.1417 17.2427C56.2386 17.3009 56.2579 17.4365 56.2192 17.5721C56.1029 18.0952 54.6111 18.8702 53.3323 19.2965C53.2742 19.3159 53.1773 19.3546 53.0611 19.4321L52.1698 19.5677C51.7242 19.6259 51.4529 19.5096 51.3561 19.4515C51.2786 19.3934 51.1429 19.3546 51.0073 19.3159C51.8598 18.754 53.0417 18.0565 54.2623 17.5915ZM47.5392 22.8421C47.4811 22.5515 47.6554 22.164 47.9461 21.7959L47.9848 21.8734C47.9654 21.9509 47.9654 21.9896 47.9654 22.0477C47.9654 22.1834 47.6361 23.0359 47.9461 23.404C48.0042 23.5009 48.0623 23.559 48.1592 23.6365C47.8104 23.4427 47.6167 23.1909 47.5392 22.8421ZM47.6361 21.079C47.6554 21.0209 47.6942 20.9627 47.7717 20.924L48.3917 20.304L48.9148 19.8971L49.1279 19.8196C48.9342 19.9552 48.6629 20.3621 48.4692 20.5171C48.1786 20.7496 47.9654 20.769 47.6361 21.079ZM57.0523 17.514C57.0523 17.5334 57.0911 17.6302 57.1104 17.7077C57.0523 17.669 56.9554 17.6884 56.8004 17.9015L56.3936 18.0952C56.6454 17.7659 56.7617 17.514 56.6842 17.4365L56.6261 17.3396C56.7423 17.3784 56.8779 17.4365 57.0523 17.514ZM51.6661 18.0565C51.8986 17.9596 52.0923 17.9015 52.2861 17.8434C51.8211 18.0565 51.3948 18.289 50.9879 18.5021C51.2204 18.3471 51.4529 18.1727 51.6661 18.0565ZM60.3497 21.1177C60.3303 21.3502 60.5047 21.4859 60.5241 21.7377C60.5435 21.7571 60.5435 21.7959 60.5435 21.8152C60.5241 22.2996 60.5628 22.7065 60.6403 23.0746C60.621 23.2684 60.5628 23.4427 60.5628 23.5784C60.6016 23.5784 60.6791 23.714 60.8147 23.8496C61.1441 24.8184 61.7447 25.2252 62.1903 25.264C63.1203 25.3027 65.2903 23.7334 65.9491 23.2684C68.0997 21.8346 70.6185 19.6452 72.091 18.0759C72.3622 17.824 72.1297 17.3396 72.5366 17.1846C73.1178 16.9715 73.8541 16.9134 74.6097 16.9134C74.8228 16.9134 75.036 16.9134 75.2685 16.9327C76.1597 16.9715 77.1672 17.204 78.0391 17.4559C79.0078 17.7271 79.8216 18.0177 80.0928 18.1146C80.4997 18.2309 81.0228 18.1534 80.5191 17.8821C80.0541 17.6109 79.531 17.3784 78.9303 17.204C77.7678 16.8552 76.431 16.6809 75.191 16.5646C74.0672 16.4677 73.0403 16.429 72.3622 16.4096C72.246 15.8865 71.8972 15.4796 71.5678 15.8865C71.471 16.0221 70.2697 15.9446 69.5528 16.0609C69.301 16.0609 69.146 16.0996 69.146 16.1771V16.1965L69.0491 16.2546C69.0297 16.3127 69.0491 16.3902 69.1072 16.4484C69.0878 16.7971 69.0685 17.4365 69.2041 17.8046C69.2622 18.0177 69.4366 18.5021 69.5722 18.8509C69.456 19.2771 69.2235 19.8196 68.9328 20.1877C68.2741 21.079 67.131 21.9315 66.0653 22.6871C64.6703 23.6752 63.3528 24.4309 62.791 24.4502C62.481 23.7334 62.2097 22.9196 62.2097 22.2221C62.2097 22.0477 62.2291 21.8734 62.2485 21.7184C62.5003 20.7496 63.6241 19.7421 63.6628 18.6765C63.6628 18.3665 64.2053 18.1727 63.8566 17.7077C63.9535 17.5721 63.8953 17.4559 63.5078 17.2621C63.2366 17.1265 63.0428 16.9909 62.8685 16.894C62.791 16.8165 62.7328 16.7584 62.636 16.7584C62.4422 16.6227 62.2872 16.6034 62.1128 16.7777C62.0741 16.7971 62.0741 16.8359 62.0353 16.8746C61.861 16.7971 61.6478 16.739 61.4928 16.9327C61.3572 17.1459 61.2797 17.979 61.2797 18.289C61.1053 18.754 60.931 19.2771 60.8341 19.7809L60.776 20.0715C60.6016 20.0715 60.4853 20.9046 60.3497 21.1177ZM61.7835 22.7065C61.8416 21.7184 62.016 20.6527 62.3841 19.4709C62.4422 19.219 62.5585 19.0252 62.6747 18.8509C62.6747 19.0446 62.6747 19.2384 62.6553 19.4127C62.5391 20.1684 61.9578 22.5127 62.0935 23.7334V23.7527C61.8997 23.4621 61.7447 23.0746 61.7835 22.7065ZM85.5869 16.6034C85.025 16.5259 85.0444 16.3709 84.5794 16.4871C84.0756 16.3515 82.3319 17.049 81.7894 17.1459C81.2275 17.2621 80.685 17.4946 79.8906 17.8627L79.0381 18.3471C78.515 18.6377 77.585 19.684 77.12 19.9165C76.5194 20.2846 75.8606 21.3309 75.2794 22.0865C75.1437 22.319 75.1244 22.6677 75.2212 22.7646L75.2406 22.784C75.1437 23.0165 75.0856 23.2102 75.0856 23.3846C75.0856 23.9852 75.8025 25.0121 76.6162 25.1671C76.9069 25.2252 77.1587 25.2446 77.4494 25.2446C78.1275 25.2446 78.8056 25.109 79.5031 25.109C81.1887 25.0315 82.9131 24.2371 84.6762 23.714C85.9937 23.3265 86.575 23.0552 87.1562 22.8034L89.6169 21.7184C89.985 21.544 90.3531 21.4084 90.7019 21.234C90.8181 21.1177 90.9344 21.0402 90.9925 20.924C91.07 20.769 91.1281 20.6527 91.1475 20.5365C91.1475 20.304 91.225 20.304 90.9925 20.304L90.1981 20.9627C89.6944 21.079 89.6556 21.0596 89.52 21.0984C89.3456 21.1565 89.1712 21.3115 89.0937 21.4665L88.7062 21.6409C87.3306 22.474 87.6794 22.1252 87.3306 22.2996C86.4975 22.6096 85.645 22.939 84.7537 23.2102C84.4825 23.3071 84.25 23.3846 83.9787 23.4621C83.5525 23.5009 82.855 23.5784 82.4287 23.5977C82.1381 23.6171 81.615 23.714 81.2856 23.714C80.2394 23.714 79.1931 23.6946 78.9412 23.5396C78.3212 23.1327 77.8175 22.8034 77.7981 22.6677C77.7012 22.0865 78.0112 21.5827 78.2631 21.234C78.5731 21.3115 78.9412 21.389 79.0769 21.389C79.2319 21.4084 79.5225 21.2921 79.6581 21.2534C80.1037 21.1371 80.375 21.0015 80.53 20.7496C80.6075 20.614 81.8087 20.1102 82.5837 19.7034C82.7581 19.684 82.9325 19.6259 83.1069 19.5677C83.8625 19.374 84.5987 18.9477 84.9087 18.8315C85.4706 18.599 85.8969 18.599 86.1681 18.134C86.1875 18.0759 86.2456 17.9984 86.2456 17.9402C86.3425 17.8434 86.5169 18.0371 86.5556 17.9402C86.6912 17.7077 86.6525 17.5527 86.4781 17.4365C86.5556 16.7002 85.8194 16.6615 85.5869 16.6034ZM83.2037 17.5915C83.7462 17.3784 84.8119 17.204 85.0831 17.2427C85.18 17.3009 85.1994 17.4365 85.1606 17.5721C85.0444 18.0952 83.5525 18.8702 82.2737 19.2965C82.2156 19.3159 82.1187 19.3546 82.0025 19.4321L81.1112 19.5677C80.6656 19.6259 80.3944 19.5096 80.2975 19.4515C80.22 19.3934 80.0844 19.3546 79.9487 19.3159C80.8012 18.754 81.9831 18.0565 83.2037 17.5915ZM76.4806 22.8421C76.4225 22.5515 76.5969 22.164 76.8875 21.7959L76.9262 21.8734C76.9069 21.9509 76.9069 21.9896 76.9069 22.0477C76.9069 22.1834 76.5775 23.0359 76.8875 23.404C76.9456 23.5009 77.0037 23.559 77.1006 23.6365C76.7519 23.4427 76.5581 23.1909 76.4806 22.8421ZM76.5775 21.079C76.5969 21.0209 76.6356 20.9627 76.7131 20.924L77.3331 20.304L77.8562 19.8971L78.0694 19.8196C77.8756 19.9552 77.6044 20.3621 77.4106 20.5171C77.12 20.7496 76.9069 20.769 76.5775 21.079ZM85.9937 17.514C85.9937 17.5334 86.0325 17.6302 86.0519 17.7077C85.9937 17.669 85.8969 17.6884 85.7419 17.9015L85.335 18.0952C85.5869 17.7659 85.7031 17.514 85.6256 17.4365L85.5675 17.3396C85.6837 17.3784 85.8194 17.4365 85.9937 17.514ZM80.6075 18.0565C80.84 17.9596 81.0337 17.9015 81.2275 17.8434C80.7625 18.0565 80.3362 18.289 79.9294 18.5021C80.1619 18.3471 80.3944 18.1727 80.6075 18.0565ZM97.0508 7.49711C96.7214 8.34961 96.6052 8.64023 96.0433 9.41523L95.9658 9.55086C95.3846 10.4615 94.7646 11.3721 94.1833 12.2827C93.6796 13.0771 93.1758 13.8521 92.6914 14.6271C92.3621 15.1696 91.5871 15.9834 91.2577 16.5259C90.9089 17.1459 91.0252 17.4752 90.7346 18.0952C90.3277 18.8509 89.9402 19.5871 89.6108 20.3234C89.3396 20.9434 89.1071 21.6021 88.9908 22.2415C88.9327 22.4546 88.9133 22.6484 88.9133 22.8227C88.9133 23.0165 88.9521 23.2296 89.0102 23.3846C89.1652 23.6946 89.3783 23.8884 89.6883 24.0627C89.9014 24.179 90.2114 24.5859 90.5214 24.6052C90.7539 24.644 91.0446 24.6634 91.2964 24.6634C91.8389 24.6634 92.3814 24.5859 92.9046 24.489C93.6214 24.3727 94.5708 24.0821 94.8614 24.0046C95.9464 23.6946 96.3339 23.5202 96.8183 23.3459C97.1283 23.2102 97.5352 23.0165 98.3683 22.6484C99.0658 22.319 99.6471 21.8927 100.286 21.5827C100.829 21.2921 101.178 21.0015 101.371 20.8659C101.74 20.6527 101.953 20.1877 101.604 20.3427C101.1 20.5559 100.635 20.8659 100.151 21.1177C99.3371 21.5634 98.5814 21.9896 97.7871 22.319C97.3608 22.4934 96.5858 22.8421 96.0627 23.0552C95.3652 23.3265 94.8808 23.4234 94.2802 23.5396C94.0477 23.5784 93.7377 23.5977 93.4858 23.5977C93.2533 23.5977 93.0402 23.5784 92.9433 23.559C92.6333 23.5396 92.4396 23.4234 92.1877 23.3459L92.0133 23.2877V23.2684C91.6452 22.6096 91.5096 22.0865 91.5096 21.5634C91.5096 21.1371 91.6064 20.7302 91.7033 20.2265C91.8971 19.8584 92.6527 17.6302 93.1177 16.4677C93.2533 16.0996 93.6989 15.4215 93.6989 15.4796C93.8346 15.1309 94.2996 14.3171 94.6289 13.7359C94.9196 13.2515 95.0358 12.9609 95.2683 12.554C96.0433 11.1784 96.9152 9.76398 97.7096 8.50461C98.3489 7.59399 98.4458 7.67149 98.6783 7.32273C98.9108 6.97398 99.9764 5.73399 100.306 5.54023H100.248C100.345 5.40461 100.403 5.26898 100.383 5.07524L100.674 3.66086C100.674 3.66086 100.674 3.66086 100.674 3.64149C100.906 3.11836 100.674 2.71148 100.345 2.71148C100.19 2.71148 100.015 2.80836 99.8602 3.04086V3.02148L99.8214 3.09898C99.6858 3.37023 99.2596 3.48648 99.0271 3.77711C98.7946 4.12586 98.5233 4.92024 98.4264 5.50149C98.0389 6.00523 97.6902 6.60586 97.3608 7.22586C97.2252 7.32273 97.1089 7.41961 97.0508 7.49711ZM90.5214 21.0402C90.5602 20.6527 90.6377 20.2652 90.7346 19.8971C90.8702 19.3159 91.0639 18.754 91.2964 18.1534L91.5871 17.5527C91.3352 18.2502 91.1802 18.8702 91.1221 19.1802C91.0446 19.5871 90.7346 20.4784 90.4827 21.3309C90.4827 21.234 90.5021 21.1371 90.5214 21.0402ZM114.292 17.0296C113.75 16.9715 113.091 16.9134 112.452 16.8746C111.87 16.7196 111.134 16.5065 111.095 16.5065C111.057 16.2159 110.32 16.1965 110.068 16.1965L109.972 16.2546C109.913 16.1577 109.758 16.0996 109.603 16.0996C109.255 16.274 108.732 16.9134 108.732 17.2815C108.732 17.3784 108.751 17.4365 108.77 17.4946C108.751 17.5527 108.751 17.6109 108.751 17.669C108.751 17.979 109.138 19.2384 109.487 19.7034C109.332 20.2071 109.119 20.7302 108.712 21.1759C108.189 21.7377 107.317 22.3577 106.697 22.7646L106.503 22.8615C106.155 22.9584 105.806 23.094 105.477 23.249C104.818 23.3265 104.159 23.5396 103.5 23.5396C103.19 23.5396 102.88 23.4815 102.59 23.3459C102.396 23.1521 102.105 22.9777 101.97 22.784C101.718 22.3965 101.698 21.854 101.737 21.6602C102.067 21.2146 102.532 20.6915 103.287 20.1296L104.643 19.4321C104.818 19.1996 105.05 19.1609 105.225 18.9865C105.438 18.9671 105.573 18.8121 105.573 18.6377C105.612 18.599 105.651 18.599 105.748 18.5021C106.174 18.5215 106.465 18.599 106.465 18.6765C106.562 18.6959 106.562 19.1609 106.813 19.1415C107.162 19.1221 107.763 18.599 107.937 18.444C108.228 18.1727 108.344 17.3784 108.189 17.2427V17.2234C107.918 17.049 107.588 17.0102 107.22 17.0102C106.813 17.0102 106.368 17.0684 105.903 17.2234C104.702 17.5527 103.229 18.4634 102.551 18.8896H102.57C101.718 19.3934 100.691 19.994 100.071 21.1759C99.7415 21.7765 99.4509 22.2027 99.4509 22.6677C99.4509 23.2684 99.6253 24.334 100.478 24.5277C101.292 24.6827 101.427 24.7602 101.679 24.7215C102.047 24.7021 102.783 24.6246 103.171 24.5277C103.403 24.489 104.818 24.1984 106 23.6559C106.174 23.5977 106.368 23.4621 106.523 23.3071C106.697 23.2102 106.891 23.1327 107.085 22.9971C107.433 22.784 107.647 22.6096 108.015 22.3384C108.344 22.0865 109.545 21.6021 110.572 20.0521C110.998 19.374 111.231 19.3934 111.367 18.6571C111.386 18.4827 111.386 18.2696 111.367 18.0952C111.754 17.7077 113.343 17.3977 114.137 17.3977C114.35 17.3977 114.544 17.4171 114.757 17.4559C115.3 17.5527 119.31 17.7465 119.368 18.3084C119.543 18.5796 119.872 18.6765 119.911 18.2696V18.1727C119.872 18.0759 119.814 18.0565 119.717 17.9984C119.698 17.9984 119.659 17.979 119.64 17.9596H119.659C119.62 17.7852 116.482 17.2621 114.292 17.0296ZM100.827 22.3771C100.71 22.6677 100.691 22.9196 100.71 23.1327L100.672 23.3071C100.613 23.1909 100.555 23.094 100.536 22.9584C100.458 22.3384 100.865 21.699 101.388 21.079C101.117 21.5634 100.923 22.009 100.827 22.3771ZM102.803 19.7227L103.152 19.3934C103.287 19.2771 103.481 19.1415 103.675 19.0446C103.52 19.219 103.152 19.4709 102.803 19.7227ZM117.823 23.3652C117.823 23.3846 117.843 23.4234 117.843 23.4427C117.823 23.5009 117.804 23.5202 117.804 23.559C116.913 24.6246 116.234 25.6321 115.44 26.659C114.607 27.7246 113.503 29.0421 112.553 30.4177C112.883 29.7784 113.231 29.0615 113.677 28.209L115.169 25.264C115.266 25.1671 115.343 25.0702 115.382 25.0896C115.498 24.9734 115.595 24.8184 115.653 24.6827C115.711 24.6246 115.828 24.5084 115.924 24.3534C116.06 24.1209 116.079 23.8496 116.118 23.7334L116.428 22.8227C116.738 22.2027 117.048 21.6215 117.3 21.1565C117.358 21.0402 117.416 20.924 117.494 20.8077C117.92 20.3815 118.792 19.2577 118.928 19.3546C119.121 19.2577 119.238 19.0834 119.296 18.8896C119.431 18.8896 119.567 18.7927 119.722 18.5796C119.916 18.3084 119.838 17.8627 119.78 17.5527C119.664 17.049 119.47 16.7002 119.315 16.7777C119.315 16.6809 119.334 16.5646 119.334 16.4871C119.315 16.1771 118.792 16.1965 118.521 16.4871C118.172 16.8552 117.784 17.1652 117.416 17.4946C117.378 17.4946 117.319 17.514 117.261 17.5721C117.261 17.6884 116.816 17.6302 116.796 17.7465C116.816 17.8046 116.951 17.8627 117.048 17.9209C116.99 18.0952 116.854 18.4634 116.777 18.7152C116.583 19.4127 116.331 20.459 115.847 21.6215C114.607 23.8496 114.82 23.6752 113.503 26.1359C113.386 26.1552 113.27 26.194 113.173 26.2715C113.057 26.3296 113.212 26.3877 113.289 26.504L113.134 26.814L112.863 26.9302C112.786 27.1821 112.786 27.2402 112.824 27.3371V27.3565C112.204 28.4221 111.468 29.7396 111.061 30.5146C110.693 31.2509 110.131 32.6265 109.763 33.4402C109.279 34.5252 108.465 36.1334 107.903 38.0902C107.632 38.9815 107.496 40.2409 107.341 41.0352C107.225 41.7521 107.923 42.3915 108.349 41.8684C108.446 41.9846 108.504 42.0427 108.659 42.0815C108.775 42.0815 108.872 42.004 108.969 41.8877C108.988 41.9071 109.008 41.9071 109.008 41.8684V41.8296C109.124 41.6552 109.201 41.4034 109.279 41.1127C109.376 41.074 109.511 41.0159 109.647 40.9384L109.724 40.8996C109.744 40.8996 109.763 40.8802 109.783 40.8609C109.841 40.8027 109.899 40.764 109.996 40.7252L110.073 40.5896C110.248 40.4152 110.422 40.2409 110.441 40.2409C110.596 40.0665 110.209 39.989 110.209 39.8146C110.209 39.679 110.616 39.4465 110.635 39.2915C110.558 39.1752 110.461 38.4777 110.364 38.4002C110.248 38.3227 110.112 38.3227 109.996 38.3809C110.073 37.6252 110.248 36.889 110.403 36.1334C111.643 32.9946 113.444 29.7784 115.304 27.1627C116.06 26.0777 117.048 24.8959 118.133 23.7721H118.172L118.269 23.6365C119.47 22.3771 120.729 21.1952 121.853 20.304C123.093 19.3159 123.791 19.0059 124.256 18.9284C124.411 19.064 124.546 19.2384 124.682 19.3934C124.701 19.3934 124.721 19.4127 124.721 19.4321C124.663 19.529 124.624 19.6646 124.604 19.7809C124.566 19.8971 124.546 20.0134 124.604 20.0134C124.624 20.2652 124.682 20.5171 124.701 20.6721C124.837 21.3696 124.914 22.1252 125.166 22.8421C125.224 23.1327 125.244 23.3265 125.438 23.4815L125.496 23.5396L125.593 23.6171C125.941 23.8884 126.464 24.0046 127.084 23.9659C127.53 23.9465 128.034 23.8496 128.557 23.6946C129.235 23.5009 129.816 23.404 130.398 23.1715C130.766 23.0359 131.153 22.8421 131.463 22.6871C131.579 22.629 131.734 22.474 131.87 22.4159C132.103 22.2996 132.471 22.2609 132.703 22.1446C132.955 21.9702 133.149 22.009 133.401 21.854C133.866 21.5052 134.137 21.0984 134.524 20.769C134.641 20.7109 134.66 20.4396 134.486 20.4202C133.943 20.8271 133.265 21.2146 132.645 21.5827C132.199 21.8346 131.715 22.0865 131.269 22.2802C130.804 22.474 130.359 22.6484 129.913 22.784C129.254 22.9777 128.673 23.094 128.111 23.094C127.879 23.094 127.685 23.0746 127.472 23.0359C127.201 22.8809 126.968 22.6677 126.794 22.4159C126.561 22.1059 126.445 21.7184 126.464 21.3502C126.542 20.3621 126.639 19.4709 126.658 18.9477C126.678 18.9284 126.697 18.909 126.716 18.909C126.794 18.8315 126.736 18.7734 126.658 18.6959C126.658 18.599 126.639 18.5409 126.619 18.4827C126.639 18.4246 126.658 18.3084 126.658 18.2309C126.774 18.134 126.891 18.0371 126.91 17.9402C126.813 17.824 126.736 17.1265 126.639 17.049H126.619C126.523 16.9327 126.387 16.8359 126.193 16.7584C125.883 16.6809 125.205 17.049 124.469 17.5527L124.391 17.5915C124.372 17.5721 124.314 17.5721 124.198 17.5721C124.004 17.6302 123.539 18.1727 123.384 18.3277L123.326 18.3859L122.028 19.4321C120.943 20.3427 119.703 21.4859 118.618 22.6484C118.385 22.784 118.017 23.0746 117.939 23.1327C117.901 23.1715 117.843 23.249 117.823 23.3652ZM110.538 33.0915C111.158 31.154 111.817 29.2746 112.844 27.4534C112.883 27.8215 112.553 28.2865 112.631 28.6352C111.875 30.1271 111.158 31.6384 110.538 33.0915ZM117.92 19.4127C117.998 19.3159 118.075 19.1996 118.114 19.1027C118.249 18.9671 118.424 18.8509 118.598 18.7152V18.754C118.637 18.8315 118.327 19.2965 117.998 19.7615C117.978 19.6646 117.92 19.5484 117.92 19.4127ZM125.069 21.544C125.05 21.4084 125.011 21.234 125.011 21.0984C124.992 20.9434 124.914 20.1877 125.166 20.0909C125.108 20.6334 125.069 21.1565 125.069 21.544ZM113.832 26.2134L113.658 26.1552L113.735 26.0584C114.084 25.574 114.413 25.0121 114.743 24.4309L113.832 26.2134ZM113.328 26.6977C113.348 26.6977 113.309 26.7171 113.251 26.7559L113.348 26.6396C113.348 26.6396 113.348 26.659 113.328 26.6977Z" fill="#282828"/>
</svg>
