<svg width="118" height="45" viewBox="0 0 118 45" fill="none" xmlns="http://www.w3.org/2000/svg">
<path d="M3.92725 27.9386C4.15975 27.803 4.15975 27.4155 4.15975 27.2993C4.15975 27.183 4.14037 26.1755 3.94662 25.8849C4.02412 25.6136 4.10162 25.3618 4.23725 25.0905C4.70225 24.1605 6.27162 22.1068 7.1435 20.8474C7.4535 20.4599 7.686 20.1886 7.74412 20.1111C8.306 19.5105 8.8485 19.2005 9.44912 18.5999L9.89475 18.1155C10.1079 18.193 10.3016 18.2899 10.4566 18.3674L11.6385 19.1036C11.4641 18.9099 10.786 18.4643 10.011 17.9605L10.8829 17.0693L11.7354 16.1974C11.7741 16.1974 11.8129 16.1974 11.8322 16.178C13.0916 16.023 14.351 15.8486 15.591 15.7324C18.0129 15.5193 18.5747 15.4611 20.9772 15.2868C22.8566 15.1511 24.6391 14.938 26.5185 14.8605C26.906 14.8411 27.3129 14.8411 27.7197 14.8411C28.5141 14.8411 29.2891 14.8605 30.0641 14.9186L29.0179 17.728C27.526 21.4674 27.1579 25.168 26.3635 28.9074C26.286 29.1786 26.2085 29.4693 26.1697 29.7599C26.0341 29.4305 25.9179 29.1593 25.8985 29.1399C25.046 28.1324 24.4454 27.3574 23.7672 26.3305C23.4185 25.943 23.2247 25.6136 22.9922 25.5361C23.4766 26.098 24.6197 27.5318 24.9297 28.2099C25.0847 28.5393 25.201 28.8493 25.3172 29.0236C25.5885 29.508 25.6854 30.1474 25.6854 30.8449C25.6854 31.368 25.6466 31.9493 25.5885 32.5499C25.4141 33.6349 25.2785 34.7199 25.2785 35.8243C25.2785 36.018 25.2979 36.1924 25.2979 36.3861C25.3366 36.7543 25.5885 36.7155 25.7435 36.4443L25.9954 36.1924H26.0341C26.1504 36.1536 26.5185 36.0374 26.5766 35.7661L26.6735 35.4561C26.751 35.3399 26.8479 35.2043 26.8672 35.0105C26.9641 34.6618 27.0416 34.0611 27.0416 33.4024V33.228C27.0222 32.763 26.9835 32.2399 26.906 31.8136C26.8672 31.6393 26.6541 31.0193 26.4216 30.4186C26.6929 29.1593 27.0222 27.8805 27.3516 26.563C28.3204 22.6686 29.541 18.8905 30.8004 14.9768C32.3891 15.093 33.9585 15.2674 35.6054 15.3836C36.051 15.4224 36.4772 15.3836 36.9035 15.3836C37.3104 15.3836 37.7172 15.403 38.1822 15.5386C38.996 15.8099 40.081 16.2555 40.7204 16.5849C40.9141 16.5461 40.856 16.5849 40.8172 16.3911C40.7204 16.1005 39.4029 15.4611 38.5891 15.1705C36.3997 14.4149 33.6872 14.3761 31.7885 14.3568C31.5172 14.3568 31.2654 14.3374 31.0135 14.3374L31.2654 13.5043C31.5366 12.7874 31.8272 11.9155 31.9241 11.5474L31.9629 11.2955L32.3504 10.0361L32.4085 9.86176L32.486 9.51301C32.5829 9.22238 32.6797 8.95113 32.7379 8.75738L32.9897 7.67238C33.0091 7.49801 33.0479 7.32363 33.106 7.14926L33.2416 6.43238L33.3579 5.81238C33.3579 5.79301 33.3579 5.77363 33.3579 5.75426C33.3966 5.59926 33.4354 5.46363 33.4547 5.30863C33.5904 4.88238 33.6679 4.47551 33.726 4.16551C33.7647 4.16551 33.7454 4.02988 33.7647 3.97176C33.9585 3.60363 33.6485 2.96426 33.6485 2.42176C33.6872 2.36363 33.6679 2.22801 33.6679 2.16988C33.5904 1.91801 33.5904 1.68551 33.3579 1.54988C33.261 1.54988 33.1641 1.20113 33.1254 1.16238C33.0866 1.12363 32.9122 1.02676 32.796 0.968634C32.7185 0.891134 32.641 0.833008 32.5635 0.794259C32.4472 0.736132 30.9747 0.968634 30.8585 0.891134C30.6454 0.813634 30.0835 1.08488 29.3472 1.43363C29.1922 1.49176 29.0179 1.56926 28.8241 1.70488L28.1847 1.97613C28.0491 2.05363 27.9329 2.15051 27.7779 2.26676C26.3829 3.02238 24.9104 3.73926 23.5929 4.72738C21.3647 6.21926 16.8116 9.64863 16.1335 10.0943C15.8235 10.2686 15.4941 10.443 15.4554 10.4236C15.4166 10.3655 14.7966 10.9661 14.5447 11.1211C14.1766 11.373 13.6147 12.0124 13.2079 12.4968C12.5104 13.0586 11.9291 13.5818 11.7547 13.7174C10.941 14.4536 10.3985 14.6861 9.83662 15.2286C9.4685 15.2868 9.081 15.3255 8.67412 15.3255C8.461 15.3255 8.26725 15.3061 8.05412 15.2868C7.24037 15.1511 6.32975 14.4536 5.516 14.3955L5.22537 14.2599C5.14787 14.1049 5.10912 13.9305 5.051 13.7949C4.83787 13.4655 4.62475 13.388 4.46975 13.4074L4.17912 13.2136C3.98537 13.0586 3.77225 13.2718 3.63662 13.4268C3.05537 13.4268 2.37725 13.7561 2.29975 14.1243C2.22225 14.4149 2.31912 14.628 2.47412 14.8411C2.45475 14.938 2.45475 15.0349 2.47412 15.1511C2.571 15.8099 3.98537 16.2555 4.8185 16.4299C5.30287 16.6236 5.80662 16.8174 6.32975 16.9918C6.65912 17.108 7.08537 17.2436 7.55037 17.3793L7.31787 17.6118C6.58162 18.4643 5.516 19.3555 4.8185 20.3824C4.15975 21.1574 1.66037 24.4705 1.2535 25.4005C1.0985 25.7105 0.962871 26.3886 0.885371 27.0474C0.633496 27.5318 0.517246 28.0161 0.652871 28.4811C0.730371 28.5974 0.827246 28.6749 0.924121 28.733C1.00162 28.8105 1.05975 28.7911 1.13725 28.7524C1.23412 28.7524 1.331 28.733 1.44725 28.6943C1.44725 28.6943 1.486 28.7136 1.52475 28.733L1.54412 28.7524C1.62162 28.9268 1.7185 29.1205 1.796 29.1786C2.06725 29.2949 2.06725 28.9268 2.39662 28.6943C2.59037 28.8686 2.78412 28.9655 2.93912 28.9655C3.07475 28.9655 3.17162 28.7524 3.24912 28.4618C3.46225 28.3843 3.5785 28.2486 3.67537 28.1324L3.92725 27.9386ZM29.076 14.3568C23.6316 14.4536 18.1872 14.8024 12.7816 15.1705C14.2347 13.7368 15.746 12.303 17.3154 10.9274C17.9935 10.3268 18.6522 9.74551 19.3304 9.20301C20.4541 8.25363 21.6166 7.12988 22.7597 6.18051L22.9147 6.08363L24.9685 4.51426L25.0847 4.43676C26.4216 3.79738 26.6929 3.46801 27.1191 3.11926C28.1266 2.55738 29.1729 2.11176 30.0254 2.11176C30.316 2.11176 30.5872 2.16988 30.8197 2.28613C30.9166 2.36363 31.0135 2.42176 31.091 2.49926C31.5366 3.27426 31.6141 4.41738 31.6529 4.74676C31.6529 4.82426 31.7497 5.50238 31.7497 6.37426C31.7497 6.66488 31.7304 6.97488 31.711 7.30426C31.5366 9.29988 31.0135 11.8186 30.7422 12.5549L30.5097 13.6593C30.4322 13.8918 30.3547 14.1049 30.2579 14.3374C29.8704 14.3374 29.4829 14.3568 29.076 14.3568ZM2.68725 24.5674C3.32662 23.0949 5.826 19.8399 6.71725 18.6968L7.066 18.2899C7.10475 18.3286 7.12412 18.4255 7.02725 18.5999C6.81412 19.0455 5.88412 20.2661 6.07787 20.2661H6.136C5.051 21.5643 3.63662 23.5018 2.66787 24.7418C2.66787 24.6643 2.66787 24.6061 2.68725 24.5674ZM8.616 16.7205C8.94537 16.7205 9.29412 16.7011 9.68162 16.643L9.19725 17.1274C9.10037 17.1468 8.96475 17.2049 8.8485 17.2436L8.40287 16.953C8.461 16.8949 8.55787 16.8174 8.616 16.7205ZM11.1347 14.8605C11.2704 14.8411 11.4447 14.8024 11.6191 14.7249L11.1929 15.1511C10.9991 15.1511 10.8054 15.1511 10.631 15.1511L11.1347 14.8605ZM7.87975 17.4568L8.151 17.5343L8.03475 17.5924C7.89912 17.6699 7.72475 17.728 7.55037 17.7861L7.87975 17.4568ZM8.151 16.8174L7.93787 16.7011H8.03475C8.0735 16.7205 8.151 16.7205 8.24787 16.7205C8.20912 16.7593 8.17037 16.7786 8.151 16.8174ZM51.4517 24.4318C51.4323 24.4124 52.3042 24.3349 52.3623 24.2961L52.7692 24.0443C52.8467 23.773 53.7573 23.5986 53.8929 23.3855C54.7648 22.9205 55.3267 22.5911 56.1792 22.0874C56.6442 21.7968 57.6323 21.1961 57.6323 20.8474C57.6323 20.518 57.5548 20.7699 57.4192 20.7699C56.8961 20.6924 55.9079 21.6999 54.5711 22.4361C53.2148 23.1724 51.7811 23.7536 50.3861 24.3543C50.1729 24.4318 49.8629 24.5674 49.4948 24.703C48.6811 24.7805 48.6811 24.3349 48.4679 23.6568C48.3904 23.3661 48.3517 23.1143 48.3517 22.843C48.3517 22.4168 48.4292 22.0099 48.5454 21.5061C48.7392 21.138 49.4754 18.9293 49.9598 17.7474C50.0954 17.3793 50.5411 16.7011 50.5217 16.7593C50.6573 16.4105 51.1417 15.6161 51.4711 15.0155C51.7423 14.5311 51.8779 14.2405 52.1104 13.8336C52.7111 12.7874 53.3504 11.7218 53.9704 10.6949C54.4354 10.1136 55.2298 9.02863 55.5204 8.62176C55.7529 8.27301 56.3536 7.63363 56.6636 7.43988L57.0898 6.81988C57.1867 6.70363 57.2448 6.54863 57.2254 6.37426L57.6129 4.45613C57.5936 4.45613 57.5936 4.45613 57.5936 4.45613L57.6323 4.35926C58.2717 4.16551 58.6786 3.46801 58.4461 2.77051C58.4461 2.75113 58.4461 2.73176 58.4654 2.71238C58.7561 2.53801 58.8142 2.47988 58.8142 2.36363C58.8142 2.09238 58.3879 1.68551 57.9617 1.68551C57.9036 1.68551 57.8454 1.68551 57.8067 1.70488C57.7486 1.58863 57.6904 1.49176 57.5161 1.54988C57.3804 1.56926 57.2061 1.31738 57.1479 1.49176C56.6636 2.61551 55.9661 2.69301 55.8886 2.98363C55.8498 3.17738 56.0242 3.29363 56.2373 3.44863C55.4817 4.66926 54.7842 6.18051 54.3967 6.74238C53.1954 8.48613 52.3623 11.0436 51.1998 13.0199C50.0179 14.6861 48.3904 15.6936 47.2861 16.9143L47.2473 16.953C46.8792 16.5461 46.6854 16.3136 46.4142 16.3136C46.2011 16.3136 45.9298 16.3718 45.6004 16.4493C44.8836 16.488 43.4498 16.798 43.2367 16.8368C42.9073 16.9918 42.5392 17.1855 42.2098 17.3793C41.5704 17.7474 40.8923 18.0574 40.4273 18.4061C39.9429 18.7936 39.3229 19.0649 38.8579 19.433C38.3348 19.8786 37.8117 20.3243 37.2886 20.8474C36.8236 21.293 36.0098 21.8936 35.6998 22.4749C35.5836 22.6686 35.4673 22.9399 35.4286 23.2305L35.2348 23.463C35.0411 23.7536 34.9829 24.1411 35.0217 24.4899C35.0798 25.4199 35.6223 25.788 36.1067 25.788C36.5523 25.788 37.3273 25.6911 37.7536 25.478C38.1411 25.2843 38.0442 25.323 39.5167 24.5674C40.1367 24.2768 40.7761 23.7924 41.3379 23.2886L41.4154 23.2305C41.7836 22.9399 43.1592 21.8355 43.5079 21.3705L43.6048 21.2736C44.9611 19.9755 45.5229 19.2974 46.5886 18.3286C46.7048 18.3286 46.7629 18.348 46.7629 18.3868C46.7823 18.5805 46.2979 18.5805 46.3367 19.1036C46.3561 19.4136 46.5304 19.6461 46.9954 19.6461C47.1311 19.6461 47.1892 19.743 47.2861 19.7043C46.8986 20.9055 46.2204 22.7268 46.2204 24.0636C46.2204 25.1293 46.8598 25.788 47.9254 25.788C48.0417 25.788 48.1386 25.7686 48.1967 25.7493C48.3904 25.6718 48.5842 25.5943 48.7973 25.5361C48.8361 25.633 49.6111 25.3618 49.8823 25.2843C50.2504 25.1874 50.8704 24.9161 51.3548 24.7611C51.6842 24.6643 51.1223 24.6643 51.4517 24.4318ZM44.7286 19.743C43.9342 20.3436 42.7523 21.4674 41.3767 22.4168C39.7879 23.4824 38.7611 24.1993 38.2767 24.1993C38.1023 24.1993 37.7536 24.1024 37.7729 23.7536C37.9279 23.4243 37.9861 23.0949 38.1411 22.8236C38.6061 21.9905 39.1292 21.3511 39.7492 20.7505C40.2723 20.2661 40.8729 19.8399 41.6092 19.3555L42.5779 18.6386C43.5854 17.9605 44.0504 17.4374 45.3873 17.4374C45.8717 17.4374 45.8523 18.1155 46.0073 18.4061C45.6973 18.7549 45.0967 19.4136 44.7286 19.743ZM50.6573 14.473C51.1998 13.8336 51.7229 13.1749 52.2073 12.5355L51.2192 14.3761L50.5604 15.6355C50.3861 15.9843 49.8242 16.488 49.4173 16.8949C49.7854 16.1199 50.1729 15.3061 50.6573 14.473ZM40.2917 18.8518C40.5823 18.6968 40.8536 18.658 41.1248 18.5805C40.4661 18.8905 38.5286 20.3824 37.9279 20.7311C38.1217 20.5955 38.3736 20.208 38.9742 19.743C39.3811 19.4136 40.1754 18.9293 40.2917 18.8518ZM47.5573 17.2824C47.8867 16.9336 48.3904 16.8368 48.7198 16.488C48.4292 17.0111 48.0417 17.3599 47.8286 17.9024L47.5961 17.4568C47.5379 17.3986 47.5379 17.3793 47.5186 17.3405L47.5573 17.2824ZM51.5607 32.8405C50.6888 33.7705 50.9407 33.693 50.0494 34.6424C49.8557 34.8555 49.7782 35.2818 49.6232 35.4755L51.6769 33.073C50.9019 34.1968 49.9526 35.4174 48.3832 37.5486L47.3563 38.9436C47.8601 37.9555 48.2863 37.0449 49.1776 35.9793L49.5651 35.553C48.4801 36.6186 47.8407 37.1999 46.7169 38.5368L46.0969 39.2924C45.7094 39.5249 44.9538 40.4161 44.7794 40.513C44.2369 40.823 43.3651 41.5399 43.1907 42.2761C43.1713 42.3924 43.1326 42.4893 43.1326 42.6055C43.1907 42.7411 43.2488 42.7799 43.3651 42.8186L43.2488 42.9736L42.9582 43.9424C42.8032 44.2524 42.8807 44.5043 43.1132 44.5818C43.3457 44.698 43.5782 44.698 43.8494 44.5043C44.2369 44.1749 44.7407 44.3493 44.9926 43.9811C45.1476 43.7874 45.2832 43.5549 45.3607 43.303L45.5932 43.1674C46.5619 42.1211 47.1044 41.7918 47.9376 40.5905C49.8169 37.7811 49.5844 38.0911 51.4057 35.4949C51.7544 35.1268 52.1226 34.6424 52.4713 34.2161C52.9169 33.5186 53.1882 32.9761 53.3044 32.6468C53.6144 32.1043 53.8276 31.678 54.1182 31.1355C53.8663 31.6005 53.5951 31.9686 53.3432 32.3561C53.3432 32.2205 53.2076 32.2205 52.9944 32.4336C52.7813 32.6468 52.8394 32.8599 52.4519 33.4218C52.4132 33.5186 51.9869 33.7511 51.9482 33.8286C51.5413 34.3711 51.4638 34.4874 51.3282 34.7393C51.1151 35.088 51.1538 35.1268 51.0569 35.3786L50.7469 35.8436C50.2626 36.483 50.0494 36.793 49.3713 37.723C49.1388 38.0524 48.8482 38.2074 48.3444 38.7693C49.0807 37.6843 49.3326 37.3161 50.7469 35.2818C52.6263 32.6274 53.2657 31.8718 54.0794 30.4961L54.9126 29.7793L54.4669 30.5543C54.6413 30.2636 54.9126 29.9149 55.1838 29.5274C55.9394 28.8299 56.7144 28.0743 57.0051 27.8224C58.4388 26.5243 59.4657 25.788 61.7907 24.3349C62.7207 23.8118 63.0307 23.2886 63.8444 22.7074C64.2319 22.4168 65.2201 22.1068 65.6657 21.8549C66.0144 21.6224 66.4407 21.1574 66.7313 20.9443C67.3513 20.4599 67.7194 20.2855 68.4944 19.8011C68.8626 19.4911 69.2888 19.278 69.2113 19.1618C69.0563 19.0649 68.7463 19.0649 68.3007 19.3361C67.6226 19.743 66.8088 20.2274 66.1888 20.6343C65.3944 21.1768 64.3094 21.9324 63.1663 22.7268L61.6163 23.8311C60.4151 24.703 59.3494 25.5168 58.7876 26.0786C57.8769 26.9118 56.8307 27.7643 55.8426 28.6168C55.8619 28.5586 55.8813 28.5199 55.8813 28.4811C56.1526 28.0355 56.4626 27.5705 56.6951 27.0668C56.9276 26.6211 57.2376 26.0593 57.5669 25.4586C57.7994 25.0324 58.0319 24.5674 58.2644 24.1024C59.2526 22.1649 60.2213 19.898 60.2213 18.2705C60.2213 17.9799 60.1826 17.6893 60.1244 17.4374C60.0276 17.3018 59.9694 17.2049 59.7951 17.1468C59.5626 17.1468 59.3688 17.1855 59.2138 17.2824C59.1557 17.2243 59.0976 17.1855 59.0007 17.1468C57.9738 17.1661 57.3538 17.9799 57.1794 18.7355C57.1601 18.7549 57.1601 18.7936 57.1794 18.8324C57.1794 18.8905 57.1601 18.968 57.1601 19.0261C57.1407 19.0649 57.1794 19.1618 57.2182 19.2393C57.0826 19.2974 56.9082 19.3749 56.9082 19.3943C56.8307 19.6461 56.8307 19.7043 56.8501 19.8011C57.0051 20.2468 56.8307 19.7043 57.0632 20.0724L57.7026 20.1305C57.8382 20.4405 57.8188 20.9443 57.8769 21.1574C57.8769 21.1961 57.8576 21.2736 57.8576 21.3124C57.1213 23.2499 56.3076 24.9743 55.3001 26.873C53.9632 29.4499 53.1882 30.8255 52.3938 32.0461L51.5607 32.8405ZM60.5894 10.598C60.3376 10.8111 60.2213 11.8574 60.1826 12.1093C60.1632 12.2643 59.9113 12.5936 59.9501 12.6324C59.9501 12.6518 59.9888 12.6518 60.0857 12.5936C60.2213 12.4968 60.4151 12.3224 60.6476 12.1093C60.6863 12.1286 60.9382 11.9349 61.1319 11.8186C61.2482 11.7411 60.9963 12.0124 60.9963 12.1674C60.9963 12.2643 61.0351 12.303 61.2288 12.2643L61.8101 11.7024C62.0619 11.528 62.5657 11.4699 62.9338 11.2374C63.1857 11.1018 63.3988 10.8886 63.4763 10.5205C63.4569 10.2105 63.3794 9.99738 63.2438 9.80363C63.0113 9.47426 62.6238 9.29988 62.2363 9.31926C61.8876 9.33863 61.5388 9.47426 61.2288 9.72613C61.0157 9.93926 60.8413 10.1524 60.7444 10.4818L60.5894 10.598ZM59.2526 21.3124C59.0201 21.913 58.7294 22.5524 58.4001 23.2111C58.0901 23.8118 57.2376 24.6449 56.9082 25.2455C56.4819 26.0399 56.5788 26.6211 56.1913 27.3574L56.0751 27.6093C56.0751 27.3186 56.0944 26.9699 56.0944 26.718C56.9276 25.1099 58.4388 22.4555 59.0976 20.1886C59.2332 20.4793 59.2138 20.9636 59.2719 21.1574C59.2719 21.1961 59.2526 21.2736 59.2526 21.3124ZM55.0288 28.7718V28.7911L55.4357 28.8299L55.2613 29.1205L54.9126 29.4305C54.8157 29.5274 54.5444 29.8374 54.2926 30.1086C54.5251 29.7405 54.7382 29.3143 55.0288 28.7718ZM54.3313 30.7674C54.2926 30.8255 54.2538 30.8836 54.2344 30.9224L54.3313 30.7674ZM54.3313 30.7674C54.3507 30.748 54.3701 30.748 54.3701 30.7286L54.4669 30.5543L54.3313 30.7674ZM54.1182 31.1355C54.1376 31.1161 54.1569 31.0968 54.1569 31.0968C54.1569 31.0968 54.1376 31.1161 54.1182 31.1355ZM54.2344 30.9224L54.1957 31.0193L54.2344 30.9224ZM54.1763 31.0774C54.1763 31.058 54.1957 31.0386 54.1957 31.0193C54.1957 31.0386 54.1763 31.058 54.1763 31.0774ZM67.3755 24.5868C67.5305 24.548 67.6274 24.4899 67.7437 24.4124C68.1312 24.3349 68.5962 24.1605 69.1193 23.9668C69.3712 23.9086 69.6618 23.928 69.8749 23.8699C69.8555 23.8505 70.0299 23.6374 70.2043 23.4436C70.5337 23.2693 70.8824 23.0949 71.2312 22.8818C71.6574 22.6493 72.1418 22.3005 72.6068 22.0293C73.6143 21.4286 74.583 20.8668 75.4549 20.3243C75.7068 20.1499 76.0749 20.053 76.4043 20.053C76.6562 20.053 76.8693 20.1111 77.0437 20.2468C77.373 20.4405 77.528 20.8861 77.6637 21.3318C77.683 22.7074 78.2255 22.6493 78.5937 23.2111C79.0587 23.8893 79.6012 24.3736 80.3374 24.3736C81.0543 24.3736 82.8562 23.7149 84.348 22.9399C85.1424 22.5136 86.2468 21.9905 86.6343 21.5836C86.9249 21.3124 86.7505 21.0024 86.4405 21.2736C86.2855 21.4093 85.9174 21.5643 85.6849 21.7193C85.2199 21.9905 84.8518 22.223 84.4643 22.4168C83.8249 22.7074 83.1468 22.9399 82.5074 23.2111C82.0618 23.4049 81.713 23.4824 81.403 23.5211C80.3955 23.5018 80.0662 22.9399 79.7368 22.1843C79.4849 21.6418 79.4655 20.9443 79.3493 20.2661C79.543 19.6461 79.8143 18.3286 79.8143 18.193C79.8143 17.883 79.6399 17.6311 79.3105 17.6311C79.2524 17.6311 79.1749 17.6505 79.1168 17.6699C79.078 17.3793 78.9037 17.263 78.6324 17.263C78.5743 17.3018 78.4774 17.3599 78.3999 17.4374C78.2837 17.3986 78.1674 17.4374 78.0512 17.573C77.9737 17.6311 77.8962 17.6893 77.838 17.7086C77.6637 17.7861 77.4118 17.8636 77.2374 18.0961L77.1987 18.193C76.9662 18.3868 76.7724 18.5805 76.598 18.7355C76.2299 19.0843 75.8812 19.3555 75.4549 19.6655C75.1062 19.898 74.7574 20.1499 74.4087 20.4018C73.7887 20.8474 73.1299 21.3124 72.413 21.7193C71.1149 22.533 69.8362 23.2693 68.5574 23.5599L68.3443 23.618C67.8793 23.5986 67.4337 23.3274 67.4337 23.1143C67.3949 22.9786 67.3949 22.8624 67.3949 22.7461C67.6274 22.4361 67.6468 22.223 67.608 22.068L67.7049 21.913C67.9374 21.9324 67.8793 21.6611 68.0537 21.3705C68.1699 21.2155 68.228 21.0605 68.2474 20.9055C68.383 20.6343 68.538 20.3436 68.693 20.0918L68.848 19.8399C68.9449 19.9174 68.9643 20.053 69.8555 19.6268C69.9912 19.5686 70.0299 19.4524 70.2237 19.3749C70.3012 19.2199 70.3593 19.0261 70.3593 18.8324C70.3593 18.2318 69.9524 17.6118 69.5843 17.9799C69.5455 17.9411 69.5262 17.9218 69.5068 17.883C69.3324 17.7086 69.003 17.573 68.7124 17.6311C68.693 17.6311 68.6543 17.6118 68.6543 17.6118C68.538 17.6118 68.4218 17.6118 68.2474 17.6699L67.608 17.883C67.608 17.9218 67.5887 18.0574 67.5693 18.0961C67.5112 18.2318 67.4918 18.3674 67.4918 18.4643L67.6468 18.5999C67.3755 18.9293 67.0849 19.3361 66.7943 19.743C66.058 20.5955 65.3412 21.4286 65.1668 21.913C65.0505 22.2036 64.9924 22.4749 64.9924 22.7461C64.9924 23.0368 65.0699 23.308 65.2443 23.5599C65.3218 23.6568 65.4962 23.8118 65.6705 23.9861C65.8062 24.1411 65.9999 24.2768 66.213 24.3543V24.393C66.213 24.5674 67.1237 24.5093 67.3755 24.5868ZM66.9105 23.2305C66.8524 23.2111 66.7943 23.1724 66.7362 23.1336C66.6974 22.9593 66.7555 22.7655 66.8524 22.533L67.2593 22.688C67.2012 23.0949 67.2399 23.5986 67.5693 23.7149H67.453C67.1624 23.7149 67.0268 23.5599 66.8718 23.3468C66.8524 23.3468 66.8524 23.3468 66.8524 23.3274L66.9105 23.2305ZM68.4993 19.6461C68.4993 19.6655 68.5187 19.6655 68.5187 19.6655C68.5187 19.7043 68.5574 19.743 68.5962 19.7624L68.4799 19.9755L68.1699 20.4986C68.1312 20.4211 68.073 20.3243 67.9955 20.2855C68.1699 19.9949 68.3637 19.7818 68.4993 19.6461ZM67.608 17.883H67.5887H67.608ZM83.5088 22.9593C83.257 23.4243 83.6445 23.9086 84.0513 24.083C84.1676 24.1218 84.3032 24.1605 84.4388 24.1993L84.5551 24.2574C84.6132 24.2768 85.427 24.5093 86.0276 24.6061C86.1632 24.6255 86.6863 24.6836 87.2095 24.703C87.597 24.7418 88.0038 24.7611 88.4107 24.7611C88.8176 24.7611 89.2245 24.7418 89.6313 24.703C90.5613 24.6061 91.4138 24.4511 92.092 24.1993C92.1501 24.1799 92.1888 24.1799 92.2276 24.1799C92.4213 24.1605 93.1963 23.9474 93.7776 23.6374C94.1845 23.463 94.4945 23.1143 94.5138 23.1143C94.6495 22.9786 94.727 22.8624 94.7657 22.7074H94.8045C95.2501 22.6686 96.0638 22.5911 97.4395 22.3199C97.982 22.223 99.2026 21.758 99.7645 21.5836C100.288 21.4286 100.714 21.2543 100.849 21.138C101.237 20.8474 101.159 20.5761 100.946 20.4986C100.849 20.4793 100.656 20.4986 100.539 20.5761C100.288 20.7311 99.997 21.1186 99.5126 21.2736C99.0476 21.4286 97.9626 21.8355 97.517 21.913C96.3932 22.1455 95.8701 22.1843 95.4438 22.2618C95.2307 22.3005 94.9982 22.3199 94.7851 22.3393C94.727 22.068 94.5913 21.6999 94.3782 21.1574C93.7776 19.6655 92.8863 17.7474 92.8863 17.728C92.8863 17.6311 92.8863 17.5343 92.8863 17.4568L93.022 17.1661C93.5063 16.6236 93.5838 16.333 93.8163 16.1199C93.9326 16.023 93.952 15.9455 93.952 15.8486C94.2232 15.4999 94.3201 15.1124 94.2038 14.9186C94.2813 14.8411 94.3395 14.7636 94.3201 14.7249C94.2426 14.4924 94.0488 14.473 93.8357 14.4149C93.6807 14.3955 93.5451 14.2599 93.3513 14.318C93.0026 14.3955 92.6151 14.5699 92.2663 14.8411C92.1307 14.938 92.0532 15.2674 91.9176 15.403C91.5882 15.7324 91.2395 15.9068 91.1426 16.2943C91.0457 16.4105 91.0651 16.7011 91.1426 17.0499C91.1426 17.3599 91.1038 17.6311 91.317 17.6311L91.4332 17.883L91.4138 17.9024C90.9682 18.3868 89.767 19.2005 89.1082 19.7624C88.5463 20.1305 87.7907 20.6536 87.3645 20.8668C86.3763 21.4093 85.2138 21.9711 85.0007 22.068C84.7682 22.1455 84.342 22.0874 84.0901 22.4168C83.9157 22.5136 83.7995 22.6299 83.7026 22.7655C83.6251 22.8236 83.567 22.9011 83.5088 22.9593ZM91.6076 18.3286L91.8982 18.9099L91.9757 19.0649C92.0726 19.6268 92.2857 20.2855 92.4601 20.9055L92.5182 21.2349L92.5376 21.448L92.5763 22.3393C91.9951 22.3393 91.3751 22.3393 90.7357 22.378C89.7476 22.4168 87.8295 22.1455 86.6282 22.1261C87.3257 21.5255 88.6626 20.4986 89.3407 19.8205C89.922 19.4136 90.9682 18.813 91.6076 18.3286ZM88.9532 23.9086C88.6045 23.9086 88.0232 23.8311 87.597 23.7536C87.5582 23.6761 87.5195 23.5986 87.5388 23.4824C87.597 23.2693 87.8295 23.1143 87.9651 23.0949C88.7207 23.0368 89.8251 22.8236 90.2513 22.7655C90.7938 22.7074 91.2007 22.688 91.5495 22.688C91.9757 22.688 92.2663 22.7074 92.5957 22.7461L92.6151 23.0755C92.1501 23.6955 90.3288 23.8699 88.9532 23.9086ZM93.797 21.293C93.7582 20.7893 93.642 20.363 93.4676 19.9755C93.7195 20.363 94.0295 20.8668 94.262 21.3511C94.3588 21.5449 94.3588 21.9324 94.2232 22.3199L94.107 22.2424C94.0682 21.913 93.8357 21.7193 93.797 21.293ZM92.9057 18.4449C92.9251 18.5805 93.2157 19.1618 93.2351 19.3943C93.0801 19.3749 92.8476 18.8518 92.8282 18.6774L92.9057 18.4449ZM94.4824 11.1018C94.0174 10.598 93.843 11.4311 93.5717 11.5474C93.3392 11.6636 93.2424 11.9349 93.2424 12.2643C93.2424 12.5743 93.3392 12.923 93.4942 13.1168C93.6299 13.2718 93.843 13.3105 94.0755 13.3105C94.8505 13.3105 96.013 12.7486 96.4586 12.6711C97.3305 12.5161 98.648 12.2255 99.5199 12.1093L100.101 12.0511C99.578 12.1868 101.632 11.8768 102.135 12.0124C102.581 12.4386 102.349 12.0899 102.697 12.303C102.775 12.2449 102.988 12.1868 103.182 12.0899C101.845 14.4536 100.702 16.8949 99.7717 19.278C99.4811 19.9755 98.5511 22.3974 98.6286 23.2499C98.6286 23.4824 98.6092 23.7343 98.6092 24.0055C98.6092 24.2768 98.648 24.548 98.7449 24.7805C98.9967 25.3618 99.5005 25.6136 100.14 25.6136C100.644 25.6136 101.225 25.4586 101.845 25.2068C102.581 24.858 103.317 24.8774 104.054 24.5093C104.887 24.1024 106.185 23.5018 106.669 23.2886C107.25 23.2111 107.735 22.9593 108.335 22.688C108.665 22.5136 108.955 22.3974 109.227 22.2424C109.479 22.0874 109.885 21.9518 110.04 21.913C110.215 21.8161 110.564 21.4674 110.874 21.2736C111.029 21.2155 111.048 21.0218 110.99 20.8861C110.912 20.7505 110.68 20.8668 110.254 21.0799C110.021 21.1961 109.517 21.5255 109.033 21.758C108.219 22.1455 107.405 22.5524 107.173 22.688C106.572 22.9786 105.1 23.4436 104.092 23.8118C103.53 24.0249 102.833 24.1024 102.31 24.1799C101.884 24.238 101.438 24.1024 101.128 23.9861C100.857 23.4436 100.76 22.998 100.76 22.533C100.76 22.1261 100.857 21.6805 100.954 21.1768C101.147 20.8086 101.903 18.5999 102.368 17.4374C102.504 17.0693 102.969 16.3911 102.949 16.4299C103.86 14.2599 104.693 13.5818 105.817 11.7024L106.553 11.6636C106.689 11.6636 106.844 11.6443 106.999 11.6443C108.549 11.5861 109.905 11.4893 110.699 11.4699C111.048 11.4505 111.377 11.4505 111.726 11.4505C112.54 11.4505 113.295 11.4893 114.032 11.528C114.574 11.6055 115.233 11.8186 115.64 12.3805C115.795 12.6518 115.524 13.0586 115.427 13.4074C115.349 13.7561 115.64 13.7561 115.795 13.7949L117.325 12.8068C117.577 12.458 117.519 12.1286 117.229 11.8768C116.919 11.6249 116.609 11.3343 116.299 11.1018C116.105 10.9468 115.524 10.8886 114.768 10.8886C113.121 10.8886 110.719 11.1599 110.505 11.1793C110.079 11.1986 108.8 11.2568 107.27 11.3149L106.03 11.3536C106.049 11.3149 106.088 11.2568 106.127 11.1986C106.165 11.1405 106.127 10.3849 106.146 10.3074C106.534 9.60988 106.999 9.60988 107.405 8.91238C108.239 7.55613 107.89 8.29238 108.529 7.36238C108.762 7.01363 109.246 6.68426 109.556 6.49051H109.498C109.614 6.37426 109.653 6.23863 109.634 6.04488L109.614 5.92863C110.157 5.56051 110.777 5.15363 110.97 4.72738C111.048 4.51426 110.99 3.89426 110.912 3.68113C110.932 3.66176 110.215 2.67363 110.195 2.65426C109.827 2.22801 109.382 2.78988 109.362 3.33238L109.265 3.48738C109.014 3.73926 108.781 4.01051 108.568 4.28176C108.549 4.28176 108.529 4.28176 108.51 4.26238C108.413 4.45613 108.297 4.30113 108.219 4.45613C108.025 4.53363 107.967 4.57238 107.851 4.76613C107.89 4.78551 107.929 4.82426 107.987 4.86301C108.025 4.88238 108.064 4.90176 108.084 4.90176C107.541 5.65738 106.96 6.41301 106.417 7.16863C105.39 8.54426 104.441 9.97801 103.55 11.4699C101.651 11.528 99.9655 11.6443 99.423 11.683C99.0355 11.7024 98.6092 11.7218 98.1636 11.7218C97.1949 11.7218 96.168 11.6636 95.4124 11.5474C95.2961 11.5474 95.1799 11.5474 95.0636 11.5668C94.8892 11.3536 94.618 11.063 94.4824 11.1018ZM100.275 21.6224C100.256 21.2543 100.295 20.8668 100.334 20.4986C100.43 19.5105 100.702 18.5224 101.05 17.7861C101.709 16.4105 102.407 15.1124 103.182 13.853C103.627 13.1555 104.092 12.458 104.577 11.7605L104.867 11.7411L103.647 14.0468L102.988 15.3255C102.717 15.8486 102.697 16.6043 102.484 17.0886C101.961 18.1543 101.322 18.813 101.225 19.3361C101.109 19.8786 100.721 20.828 100.43 21.8355C100.392 21.9905 100.372 22.1261 100.314 22.2424C100.295 22.0293 100.275 21.8161 100.275 21.6224ZM105.468 10.5593C105.41 10.6949 105.313 10.8305 105.274 10.9661C105.197 11.1018 105.119 11.2568 105.042 11.3924C104.964 11.3924 104.906 11.4118 104.829 11.4118C105.042 11.1405 105.255 10.8305 105.468 10.5593Z" fill="#282828"/>
</svg>
