<svg width="182" height="31" viewBox="0 0 182 31" fill="none" xmlns="http://www.w3.org/2000/svg">
<path d="M10.5997 5.97301C10.6966 5.75988 10.7741 5.54676 10.7741 5.39176C10.7741 5.13988 10.5997 4.98488 10.1347 4.98488C10.0185 4.98488 10.0185 4.71363 9.97975 4.71363L9.26287 5.00426C8.97225 4.96551 8.64287 5.00426 8.4685 5.17863C8.391 5.27551 8.3135 5.37238 8.236 5.46926C8.21662 5.46926 8.21662 5.48863 8.19725 5.48863C7.34475 5.97301 7.306 6.22488 7.51912 6.41863C6.78287 7.42613 6.10475 8.49176 5.46537 9.51863C4.76787 10.6424 4.14787 11.7855 3.56662 12.9286C2.28787 15.5249 1.39662 18.1211 0.776621 20.6205C0.718496 20.9693 0.679746 21.3761 0.679746 21.8024C0.679746 22.9455 0.873496 24.2049 0.892871 25.1349C0.892871 25.5418 1.37725 26.4718 1.93912 26.9368C2.05537 27.1886 2.191 27.4405 2.32662 27.673C2.94662 28.6999 3.68287 29.5718 4.47725 29.7268C5.63975 29.9593 6.70537 30.5793 7.96475 30.4243L8.391 30.3274C8.701 30.3274 8.9335 30.308 9.0885 30.2111L12.5954 29.5911C14.0679 29.3393 15.8697 28.4868 17.6716 27.363C18.8922 26.6074 20.1129 25.7355 21.2947 24.8249C23.3485 23.1974 25.286 21.4924 26.6616 20.1168L27.5722 19.2061C27.7272 19.148 27.9016 18.9349 28.0566 18.7024L28.6185 18.1211C29.1997 17.7143 30.2072 17.1136 29.9941 16.7649C29.9747 16.7455 29.9941 16.668 30.0135 16.5324C30.6141 15.8349 31.1566 15.1568 31.641 14.4593C32.106 13.7036 33.2297 11.9986 34.1985 10.2549C35.2254 8.45301 36.1166 6.59301 36.1166 5.74051C36.1747 4.69426 36.1554 3.72551 36.1747 2.73738C36.1554 1.74926 35.671 0.780509 34.8185 0.625509C34.4697 0.625509 34.3147 0.683634 34.2954 0.799883C34.276 0.916133 34.5279 1.10988 34.896 1.32301C35.1672 1.38113 35.2641 1.74926 35.2641 2.25301C35.2641 3.41551 34.7604 5.35301 34.6635 5.93426C34.5279 6.98051 34.0822 8.20113 33.4429 9.51863C32.9585 10.5843 32.2997 11.6886 31.641 12.7155C30.711 14.2268 29.7229 15.5443 28.8897 16.513C26.7972 18.9736 24.4916 21.4924 21.9922 23.643C21.0041 24.4955 19.9772 25.2511 18.931 25.968C17.0516 27.2468 15.0754 28.2736 13.0216 28.913C12.1304 29.2036 11.1616 29.3974 10.1541 29.533H10.1347C9.786 29.5718 9.476 29.5718 9.166 29.5718C6.95725 29.5718 5.69787 28.8355 5.2135 28.4286C4.30287 27.6536 3.741 27.3436 3.46975 26.4524C3.29537 25.9099 3.15975 25.1736 3.08225 24.5536C2.94662 23.333 2.98537 22.2674 2.94662 21.8218C2.90787 21.7055 3.17912 19.9618 3.14037 19.8455L3.31475 19.0511L3.70225 18.2568C3.93475 18.0049 3.68287 17.7143 3.85725 17.4236C3.85725 17.2686 4.01225 16.5711 4.03162 16.1643C4.30287 15.3505 4.57412 14.5949 4.9035 13.9749C5.77537 12.1149 6.04662 11.5336 7.03475 9.90613C7.151 9.88676 7.24787 9.86738 7.34475 9.82863C7.55787 9.75113 7.71287 9.69301 7.82912 9.57676C8.10037 9.22801 8.3135 8.47238 8.81725 7.92988C8.87537 7.85238 8.9335 7.79426 9.011 7.73613C9.37912 8.12363 9.74725 8.45301 9.941 8.39488C10.4835 8.23988 9.8635 7.34863 10.5997 5.97301ZM3.08225 15.5636C2.53975 16.7455 1.97787 17.5786 1.68725 18.8768C1.416 19.9036 1.28037 20.8918 1.22225 21.9961C1.261 20.853 1.31912 19.4968 1.51287 18.5086C1.60975 17.9468 1.93912 17.1718 2.13287 16.6099C2.46225 15.6605 2.75287 14.963 3.276 14.0524C3.62475 13.4324 3.9735 12.7736 4.361 12.1149C3.896 13.1805 3.5085 14.5949 3.08225 15.5636ZM6.2985 9.53801C5.94975 10.1386 5.5235 10.3905 5.09725 10.8749C5.31037 10.5455 5.5235 10.2161 5.756 9.90613C6.08537 9.42176 6.47287 9.03426 6.82162 8.62738C6.64725 8.93738 6.47287 9.26676 6.2985 9.53801ZM44.9056 24.108C44.7119 23.9724 44.4987 23.7205 44.305 23.5849C44.1694 23.4493 44.0531 23.2943 43.9369 23.1586C43.6462 22.868 43.6075 22.4999 43.4525 22.1124C43.375 21.9574 42.2319 20.6011 42.4837 20.388C42.6581 20.1168 41.9606 19.4193 41.3794 19.4193C41.1275 19.2836 40.8562 19.2449 40.5075 19.2449C38.9962 19.2449 35.5281 21.3761 33.9975 22.3836C34.2687 21.783 34.4237 21.4536 34.8694 20.8143C35.2956 20.2136 36.1094 19.3805 36.5937 18.7799C36.8069 18.5474 37.02 18.218 37.2525 17.9855C37.3106 17.908 37.795 17.4624 37.8144 17.3074C37.7756 17.288 38.3375 16.4161 38.2794 16.3968H38.26C38.2987 15.7961 37.8144 14.6143 37.3106 14.8661H37.2912C37.0394 14.8661 36.7487 14.9243 36.6712 14.9824C36.09 15.4668 36.1287 15.893 35.6056 16.3386C35.2762 16.6486 34.3075 18.1018 33.9975 18.2761C33.8037 18.373 33.9975 18.5668 34.2494 18.2374C34.4431 18.0243 34.9081 17.7336 35.1987 17.4236L35.4894 17.133H35.5087C35.315 17.5593 35.0631 18.1211 34.9081 18.5861C34.4819 19.2449 34.0556 19.8649 33.6487 20.4655C32.99 21.3374 32.0987 22.4805 31.4594 23.4686C31.3237 23.5655 31.1881 23.643 31.1494 23.7205L31.1106 24.0693C30.9944 24.2243 30.9362 24.3793 30.8587 24.5343L30.7812 24.6118C30.7231 24.6893 30.665 24.8636 30.6262 25.0961C30.6262 25.193 30.6069 25.3093 30.6069 25.3868V25.5224C30.5875 25.5224 30.5875 25.5224 30.5875 25.5418V25.5805C30.5681 25.7936 30.5681 25.9874 30.5875 26.0455C30.6069 26.1036 30.665 26.1618 30.8006 26.1618C30.9944 26.1618 30.8587 26.3749 31.3625 26.2005H31.4206C31.4594 26.2005 31.4981 26.1811 31.5175 26.1424L31.8469 26.0068C31.9825 25.9293 32.0212 25.8711 32.1956 25.7743C32.3312 25.5611 32.3506 25.3093 32.3119 25.0574L32.5056 24.8249C33.2806 23.798 34.23 22.8486 35.4506 22.0736C35.8962 21.8024 36.5937 21.4343 37.3494 21.0855C37.6206 21.0855 39.035 20.7949 39.1706 20.8143C39.3644 20.8336 39.6356 20.8143 39.8294 20.8918C39.9456 20.8918 40.5656 21.3374 40.6044 21.3374C40.6431 21.3374 40.6625 21.3568 40.7012 21.3568L40.9337 21.6861C41.4762 22.3836 42.0381 23.1586 42.6581 23.8174C42.91 24.108 43.0262 24.3018 43.2781 24.3986C43.3362 24.4374 43.4331 24.4568 43.53 24.4568C43.8981 24.7668 44.305 24.9411 44.7506 24.9411C45.39 24.9411 46.0875 24.7861 46.9012 24.4761C47.5987 24.1855 48.3156 23.8174 48.9744 23.4299C49.73 22.9843 50.505 22.4999 50.8344 22.1124C50.9894 21.9186 51.0862 21.783 51.1056 21.628C51.1056 21.5699 51.0087 21.4536 50.7181 21.628C49.8075 22.2093 49.5169 22.5193 48.8 22.9261C48.5287 23.0811 47.7344 23.4299 47.5019 23.5655C46.6881 23.9918 46.1262 24.1855 45.5062 24.3018C45.3319 24.2824 45.0994 24.2243 44.9056 24.108ZM33.2806 22.868C33.3387 22.7711 33.3969 22.6743 33.4162 22.558V22.5386L33.4356 22.5193C33.8619 21.783 34.3462 20.9111 34.8887 20.0586C35.0437 20.0199 35.2181 19.9424 35.2956 19.9618C35.0825 20.3105 34.9662 20.543 34.7144 20.9111C34.6175 21.0855 34.3462 21.4149 34.23 21.5893C34.0362 21.8605 33.8619 22.2093 33.6875 22.5774C33.4937 22.713 33.3581 22.8099 33.2806 22.868ZM42.3481 23.0618C42.0187 22.7324 41.67 22.3836 41.4375 22.0349C41.3212 21.8993 40.9919 21.4149 40.895 21.1243C40.9144 21.163 40.9531 21.1824 40.9725 21.1824C41.1662 21.3568 41.4375 21.6474 41.7087 21.9961C41.9025 22.3449 42.135 22.713 42.3481 23.0618ZM43.53 23.6043L42.6581 21.9186C42.6 21.8218 42.5612 21.7055 42.5225 21.5893C42.6581 21.7055 42.7356 21.8024 42.7744 21.8605C43.0844 22.4805 43.3556 23.1586 43.8012 23.7593C43.9175 23.9143 43.9756 24.0305 44.0531 24.1274C43.8594 23.9918 43.685 23.8174 43.53 23.6043ZM36.1869 18.2568L36.3612 18.063C36.5162 17.8693 36.71 17.7336 36.8844 17.598C36.6712 17.8886 36.71 17.9661 36.1869 18.6443C36.0512 18.7993 35.935 18.9543 35.8381 19.1093C35.8381 19.0899 35.8187 19.0705 35.8381 19.0511C35.8575 18.9543 35.8575 18.838 35.8575 18.7218C35.9737 18.5474 36.09 18.3924 36.1869 18.2568ZM64.2867 25.1349C64.2673 25.1155 65.1392 25.038 65.1973 24.9993L65.6042 24.7474C65.6817 24.4761 66.5923 24.3018 66.7279 24.0886C67.5998 23.6236 68.1617 23.2943 69.0142 22.7905C69.4792 22.4999 70.4673 21.8993 70.4673 21.5505C70.4673 21.2211 70.3898 21.473 70.2542 21.473C69.731 21.3955 68.7429 22.403 67.406 23.1393C66.0498 23.8755 64.616 24.4568 63.221 25.0574C63.0079 25.1349 62.6979 25.2705 62.3298 25.4061C61.516 25.4836 61.516 25.038 61.3029 24.3599C61.2254 24.0693 61.1867 23.8174 61.1867 23.5461C61.1867 23.1199 61.2642 22.713 61.3804 22.2093C61.5742 21.8411 62.3104 19.6324 62.7948 18.4505C62.9304 18.0824 63.376 17.4043 63.3567 17.4624C63.4923 17.1136 63.9767 16.3193 64.306 15.7186C64.5773 15.2343 64.7129 14.9436 64.9454 14.5368C65.546 13.4905 66.1854 12.4249 66.8054 11.398C67.2704 10.8168 68.0648 9.73176 68.3554 9.32488C68.5879 8.97613 69.1885 8.33676 69.4985 8.14301L69.9248 7.52301C70.0217 7.40676 70.0798 7.25176 70.0604 7.07738L70.4479 5.15926C70.4285 5.15926 70.4285 5.15926 70.4285 5.15926L70.4673 5.06238C71.1067 4.86863 71.5135 4.17113 71.281 3.47363C71.281 3.45426 71.281 3.43488 71.3004 3.41551C71.591 3.24113 71.6492 3.18301 71.6492 3.06676C71.6492 2.79551 71.2229 2.38863 70.7967 2.38863C70.7385 2.38863 70.6804 2.38863 70.6417 2.40801C70.5835 2.29176 70.5254 2.19488 70.351 2.25301C70.2154 2.27238 70.041 2.02051 69.9829 2.19488C69.4985 3.31863 68.801 3.39613 68.7235 3.68676C68.6848 3.88051 68.8592 3.99676 69.0723 4.15176C68.3167 5.37238 67.6192 6.88363 67.2317 7.44551C66.0304 9.18926 65.1973 11.7468 64.0348 13.723C62.8529 15.3893 61.2254 16.3968 60.121 17.6174L60.0823 17.6561C59.7142 17.2493 59.5204 17.0168 59.2492 17.0168C59.036 17.0168 58.7648 17.0749 58.4354 17.1524C57.7185 17.1911 56.2848 17.5011 56.0717 17.5399C55.7423 17.6949 55.3742 17.8886 55.0448 18.0824C54.4054 18.4505 53.7273 18.7605 53.2623 19.1093C52.7779 19.4968 52.1579 19.768 51.6929 20.1361C51.1698 20.5818 50.6467 21.0274 50.1235 21.5505C49.6585 21.9961 48.8448 22.5968 48.5348 23.178C48.4185 23.3718 48.3023 23.643 48.2635 23.9336L48.0698 24.1661C47.876 24.4568 47.8179 24.8443 47.8567 25.193C47.9148 26.123 48.4573 26.4911 48.9417 26.4911C49.3873 26.4911 50.1623 26.3943 50.5885 26.1811C50.976 25.9874 50.8792 26.0261 52.3517 25.2705C52.9717 24.9799 53.611 24.4955 54.1729 23.9918L54.2504 23.9336C54.6185 23.643 55.9942 22.5386 56.3429 22.0736L56.4398 21.9768C57.796 20.6786 58.3579 20.0005 59.4235 19.0318C59.5398 19.0318 59.5979 19.0511 59.5979 19.0899C59.6173 19.2836 59.1329 19.2836 59.1717 19.8068C59.191 20.1168 59.3654 20.3493 59.8304 20.3493C59.966 20.3493 60.0242 20.4461 60.121 20.4074C59.7335 21.6086 59.0554 23.4299 59.0554 24.7668C59.0554 25.8324 59.6948 26.4911 60.7604 26.4911C60.8767 26.4911 60.9735 26.4718 61.0317 26.4524C61.2254 26.3749 61.4192 26.2974 61.6323 26.2393C61.671 26.3361 62.446 26.0649 62.7173 25.9874C63.0854 25.8905 63.7054 25.6193 64.1898 25.4643C64.5192 25.3674 63.9573 25.3674 64.2867 25.1349ZM57.5635 20.4461C56.7692 21.0468 55.5873 22.1705 54.2117 23.1199C52.6229 24.1855 51.596 24.9024 51.1117 24.9024C50.9373 24.9024 50.5885 24.8055 50.6079 24.4568C50.7629 24.1274 50.821 23.798 50.976 23.5268C51.441 22.6936 51.9642 22.0543 52.5842 21.4536C53.1073 20.9693 53.7079 20.543 54.4442 20.0586L55.4129 19.3418C56.4204 18.6636 56.8854 18.1405 58.2223 18.1405C58.7067 18.1405 58.6873 18.8186 58.8423 19.1093C58.5323 19.458 57.9317 20.1168 57.5635 20.4461ZM63.4923 15.1761C64.0348 14.5368 64.5579 13.878 65.0423 13.2386L64.0542 15.0793L63.3954 16.3386C63.221 16.6874 62.6592 17.1911 62.2523 17.598C62.6204 16.823 63.0079 16.0093 63.4923 15.1761ZM53.1267 19.5549C53.4173 19.3999 53.6885 19.3611 53.9598 19.2836C53.301 19.5936 51.3635 21.0855 50.7629 21.4343C50.9567 21.2986 51.2085 20.9111 51.8092 20.4461C52.216 20.1168 53.0104 19.6324 53.1267 19.5549ZM60.3923 17.9855C60.7217 17.6368 61.2254 17.5399 61.5548 17.1911C61.2642 17.7143 60.8767 18.063 60.6635 18.6055L60.431 18.1599C60.3729 18.1018 60.3729 18.0824 60.3535 18.0436L60.3923 17.9855ZM78.3456 17.5399C77.7838 17.4624 77.8031 17.3074 77.3381 17.4236C76.8344 17.288 75.0906 17.9855 74.5481 18.0824C73.9863 18.1986 73.4438 18.4311 72.6494 18.7993L71.7969 19.2836C71.2738 19.5743 70.3438 20.6205 69.8788 20.853C69.2781 21.2211 68.6194 22.2674 68.0381 23.023C67.9025 23.2555 67.8831 23.6043 67.98 23.7011L67.9994 23.7205C67.9025 23.953 67.8444 24.1468 67.8444 24.3211C67.8444 24.9218 68.5613 25.9486 69.375 26.1036C69.6656 26.1618 69.9175 26.1811 70.2081 26.1811C70.8863 26.1811 71.5644 26.0455 72.2619 26.0455C73.9475 25.968 75.6719 25.1736 77.435 24.6505C78.7525 24.263 79.3338 23.9918 79.915 23.7399L82.3756 22.6549C82.7438 22.4805 83.1119 22.3449 83.4606 22.1705C83.5769 22.0543 83.6931 21.9768 83.7513 21.8605C83.8288 21.7055 83.8869 21.5893 83.9063 21.473C83.9063 21.2405 83.9838 21.2405 83.7513 21.2405L82.9569 21.8993C82.4531 22.0155 82.4144 21.9961 82.2788 22.0349C82.1044 22.093 81.93 22.248 81.8525 22.403L81.465 22.5774C80.0894 23.4105 80.4381 23.0618 80.0894 23.2361C79.2563 23.5461 78.4038 23.8755 77.5125 24.1468C77.2413 24.2436 77.0088 24.3211 76.7375 24.3986C76.3113 24.4374 75.6138 24.5149 75.1875 24.5343C74.8969 24.5536 74.3738 24.6505 74.0444 24.6505C72.9981 24.6505 71.9519 24.6311 71.7 24.4761C71.08 24.0693 70.5763 23.7399 70.5569 23.6043C70.46 23.023 70.77 22.5193 71.0219 22.1705C71.3319 22.248 71.7 22.3255 71.8356 22.3255C71.9906 22.3449 72.2813 22.2286 72.4169 22.1899C72.8625 22.0736 73.1338 21.938 73.2888 21.6861C73.3663 21.5505 74.5675 21.0468 75.3425 20.6399C75.5169 20.6205 75.6913 20.5624 75.8656 20.5043C76.6213 20.3105 77.3575 19.8843 77.6675 19.768C78.2294 19.5355 78.6556 19.5355 78.9269 19.0705C78.9463 19.0124 79.0044 18.9349 79.0044 18.8768C79.1013 18.7799 79.2756 18.9736 79.3144 18.8768C79.45 18.6443 79.4113 18.4893 79.2369 18.373C79.3144 17.6368 78.5781 17.598 78.3456 17.5399ZM75.9625 18.528C76.505 18.3149 77.5706 18.1405 77.8419 18.1793C77.9388 18.2374 77.9581 18.373 77.9194 18.5086C77.8031 19.0318 76.3113 19.8068 75.0325 20.233C74.9744 20.2524 74.8775 20.2911 74.7613 20.3686L73.87 20.5043C73.4244 20.5624 73.1531 20.4461 73.0563 20.388C72.9788 20.3299 72.8431 20.2911 72.7075 20.2524C73.56 19.6905 74.7419 18.993 75.9625 18.528ZM69.2394 23.7786C69.1813 23.488 69.3556 23.1005 69.6463 22.7324L69.685 22.8099C69.6656 22.8874 69.6656 22.9261 69.6656 22.9843C69.6656 23.1199 69.3363 23.9724 69.6463 24.3405C69.7044 24.4374 69.7625 24.4955 69.8594 24.573C69.5106 24.3793 69.3169 24.1274 69.2394 23.7786ZM69.3363 22.0155C69.3556 21.9574 69.3944 21.8993 69.4719 21.8605L70.0919 21.2405L70.615 20.8336L70.8281 20.7561C70.6344 20.8918 70.3631 21.2986 70.1694 21.4536C69.8788 21.6861 69.6656 21.7055 69.3363 22.0155ZM78.7525 18.4505C78.7525 18.4699 78.7913 18.5668 78.8106 18.6443C78.7525 18.6055 78.6556 18.6249 78.5006 18.838L78.0938 19.0318C78.3456 18.7024 78.4619 18.4505 78.3844 18.373L78.3263 18.2761C78.4425 18.3149 78.5781 18.373 78.7525 18.4505ZM73.3663 18.993C73.5988 18.8961 73.7925 18.838 73.9863 18.7799C73.5213 18.993 73.095 19.2255 72.6881 19.4386C72.9206 19.2836 73.1531 19.1093 73.3663 18.993ZM90.4102 21.1049C90.3521 21.473 90.3327 22.248 90.3133 22.3449C90.2552 22.7518 90.4296 23.4299 90.5846 23.7593C90.8171 24.3986 91.1271 24.6505 91.7083 24.8249C91.9021 24.883 92.0958 24.9411 92.2508 24.9411C92.3477 24.9411 92.8515 24.9993 93.1227 24.9605C93.2777 24.9799 93.4521 24.9799 93.6652 24.9605C94.2077 24.9411 96.029 24.7861 96.339 24.6118C96.8233 24.3599 97.6371 24.0886 98.3346 23.7786C98.9933 23.488 100.621 22.2868 100.873 22.0736C101.163 21.8218 101.066 21.7443 100.756 21.8799C100.698 21.8993 100.601 21.8605 100.485 21.9186L99.6715 22.4418C99.2065 22.7324 98.664 23.0811 98.354 23.2168C97.889 23.3911 97.424 23.6043 97.0946 23.7786C96.959 23.8755 96.494 23.9918 95.9708 24.0886C95.3702 24.2243 94.6533 24.3211 94.2271 24.3405C93.6458 24.3599 93.084 24.3986 92.5996 24.108C92.2508 23.9143 92.0183 23.7011 91.999 23.5655C92.0183 23.5655 92.0377 23.5268 92.0377 23.4493C92.0765 22.5968 92.5027 21.8218 92.5802 21.7055C92.6383 21.628 93.0646 20.5818 93.084 20.4849C93.1808 20.1749 93.2196 20.0393 93.2196 19.9036C93.2196 19.7486 93.1615 19.6905 93.1421 19.4193C93.1227 19.1093 92.5608 18.5861 92.3283 18.4699C92.2121 18.3924 90.9527 17.9855 90.7202 17.8886C89.7515 17.6174 89.2477 16.8036 89.1508 16.7068C89.0152 16.5324 88.9765 15.8349 88.8021 15.738C88.7827 15.5636 88.3177 15.1761 87.814 15.0986C87.504 15.0405 87.0777 14.9049 86.8452 15.0986C86.7483 15.2343 86.3027 15.6218 86.2833 15.7186C86.2446 15.9124 86.4965 16.6486 86.4577 16.823C86.3608 17.4818 86.6902 17.7143 84.9271 19.3224C84.5008 20.1361 84.3846 20.1555 84.1521 20.3686C83.8615 20.6011 83.4933 20.9886 83.3965 21.0661C83.1833 21.2793 82.2533 22.2286 82.3115 22.3061L82.3502 22.3449C82.2921 22.5193 82.1952 22.5386 82.234 22.5386C82.2533 22.5386 82.3308 22.5193 82.544 22.5386C82.5633 22.5193 83.2608 22.0543 83.2996 21.9961L88.589 17.7336C88.8796 17.5786 89.4996 17.8111 90.1196 18.1018C90.4877 18.5086 90.5846 18.9349 90.5846 19.3805C90.5846 19.9424 90.4102 20.5236 90.4102 21.1049ZM86.1477 19.0705C86.5352 18.7605 87.4458 17.8886 87.8333 17.598C87.7365 17.6949 87.7171 17.8693 87.6783 17.9274C87.1746 18.528 86.3996 19.3224 85.6246 19.6905C85.5665 19.6324 85.5858 19.3611 86.1477 19.0705ZM92.5027 20.7755C92.5415 20.9693 92.154 21.6474 91.8633 22.1705C91.8052 21.938 91.6502 21.7249 91.7665 21.473C91.8052 21.3761 92.154 21.163 92.2702 20.9499L92.5027 20.7755ZM97.5245 23.6624C97.2726 24.1274 97.6601 24.6118 98.067 24.7861C98.1832 24.8249 98.3188 24.8636 98.4545 24.9024L98.5707 24.9605C98.6288 24.9799 99.4426 25.2124 100.043 25.3093C100.179 25.3286 100.702 25.3868 101.225 25.4061C101.613 25.4449 102.019 25.4643 102.426 25.4643C102.833 25.4643 103.24 25.4449 103.647 25.4061C104.577 25.3093 105.429 25.1543 106.108 24.9024C106.166 24.883 106.204 24.883 106.243 24.883C106.437 24.8636 107.212 24.6505 107.793 24.3405C108.2 24.1661 108.51 23.8174 108.529 23.8174C108.665 23.6818 108.743 23.5655 108.781 23.4105H108.82C109.266 23.3718 110.079 23.2943 111.455 23.023C111.998 22.9261 113.218 22.4611 113.78 22.2868C114.303 22.1318 114.729 21.9574 114.865 21.8411C115.253 21.5505 115.175 21.2793 114.962 21.2018C114.865 21.1824 114.671 21.2018 114.555 21.2793C114.303 21.4343 114.013 21.8218 113.528 21.9768C113.063 22.1318 111.978 22.5386 111.533 22.6161C110.409 22.8486 109.886 22.8874 109.459 22.9649C109.246 23.0036 109.014 23.023 108.801 23.0424C108.743 22.7711 108.607 22.403 108.394 21.8605C107.793 20.3686 106.902 18.4505 106.902 18.4311C106.902 18.3343 106.902 18.2374 106.902 18.1599L107.038 17.8693C107.522 17.3268 107.599 17.0361 107.832 16.823C107.948 16.7261 107.968 16.6486 107.968 16.5518C108.239 16.203 108.336 15.8155 108.219 15.6218C108.297 15.5443 108.355 15.4668 108.336 15.428C108.258 15.1955 108.064 15.1761 107.851 15.118C107.696 15.0986 107.561 14.963 107.367 15.0211C107.018 15.0986 106.631 15.273 106.282 15.5443C106.146 15.6411 106.069 15.9705 105.933 16.1061C105.604 16.4355 105.255 16.6099 105.158 16.9974C105.061 17.1136 105.081 17.4043 105.158 17.753C105.158 18.063 105.119 18.3343 105.333 18.3343L105.449 18.5861L105.429 18.6055C104.984 19.0899 103.783 19.9036 103.124 20.4655C102.562 20.8336 101.806 21.3568 101.38 21.5699C100.392 22.1124 99.2295 22.6743 99.0163 22.7711C98.7838 22.8486 98.3576 22.7905 98.1057 23.1199C97.9313 23.2168 97.8151 23.333 97.7182 23.4686C97.6407 23.5268 97.5826 23.6043 97.5245 23.6624ZM105.623 19.0318L105.914 19.613L105.991 19.768C106.088 20.3299 106.301 20.9886 106.476 21.6086L106.534 21.938L106.553 22.1511L106.592 23.0424C106.011 23.0424 105.391 23.0424 104.751 23.0811C103.763 23.1199 101.845 22.8486 100.644 22.8293C101.341 22.2286 102.678 21.2018 103.356 20.5236C103.938 20.1168 104.984 19.5161 105.623 19.0318ZM102.969 24.6118C102.62 24.6118 102.039 24.5343 101.613 24.4568C101.574 24.3793 101.535 24.3018 101.554 24.1855C101.613 23.9724 101.845 23.8174 101.981 23.798C102.736 23.7399 103.841 23.5268 104.267 23.4686C104.809 23.4105 105.216 23.3911 105.565 23.3911C105.991 23.3911 106.282 23.4105 106.611 23.4493L106.631 23.7786C106.166 24.3986 104.344 24.573 102.969 24.6118ZM107.813 21.9961C107.774 21.4924 107.658 21.0661 107.483 20.6786C107.735 21.0661 108.045 21.5699 108.278 22.0543C108.374 22.248 108.374 22.6355 108.239 23.023L108.123 22.9455C108.084 22.6161 107.851 22.4224 107.813 21.9961ZM106.921 19.148C106.941 19.2836 107.231 19.8649 107.251 20.0974C107.096 20.078 106.863 19.5549 106.844 19.3805L106.921 19.148ZM108.498 11.8049C108.033 11.3011 107.859 12.1343 107.587 12.2505C107.355 12.3668 107.258 12.638 107.258 12.9674C107.258 13.2774 107.355 13.6261 107.51 13.8199C107.645 13.9749 107.859 14.0136 108.091 14.0136C108.866 14.0136 110.029 13.4518 110.474 13.3743C111.346 13.2193 112.664 12.9286 113.535 12.8124L114.117 12.7543C113.594 12.8899 115.647 12.5799 116.151 12.7155C116.597 13.1418 116.364 12.793 116.713 13.0061C116.79 12.948 117.004 12.8899 117.197 12.793C115.86 15.1568 114.717 17.598 113.787 19.9811C113.497 20.6786 112.567 23.1005 112.644 23.953C112.644 24.1855 112.625 24.4374 112.625 24.7086C112.625 24.9799 112.664 25.2511 112.76 25.4836C113.012 26.0649 113.516 26.3168 114.155 26.3168C114.659 26.3168 115.24 26.1618 115.86 25.9099C116.597 25.5611 117.333 25.5805 118.069 25.2124C118.902 24.8055 120.2 24.2049 120.685 23.9918C121.266 23.9143 121.75 23.6624 122.351 23.3911C122.68 23.2168 122.971 23.1005 123.242 22.9455C123.494 22.7905 123.901 22.6549 124.056 22.6161C124.23 22.5193 124.579 22.1705 124.889 21.9768C125.044 21.9186 125.064 21.7249 125.005 21.5893C124.928 21.4536 124.695 21.5699 124.269 21.783C124.037 21.8993 123.533 22.2286 123.049 22.4611C122.235 22.8486 121.421 23.2555 121.189 23.3911C120.588 23.6818 119.115 24.1468 118.108 24.5149C117.546 24.728 116.849 24.8055 116.325 24.883C115.899 24.9411 115.454 24.8055 115.144 24.6893C114.872 24.1468 114.775 23.7011 114.775 23.2361C114.775 22.8293 114.872 22.3836 114.969 21.8799C115.163 21.5118 115.919 19.303 116.384 18.1405C116.519 17.7724 116.984 17.0943 116.965 17.133C117.875 14.963 118.709 14.2849 119.832 12.4055L120.569 12.3668C120.704 12.3668 120.859 12.3474 121.014 12.3474C122.564 12.2893 123.92 12.1924 124.715 12.173C125.064 12.1536 125.393 12.1536 125.742 12.1536C126.555 12.1536 127.311 12.1924 128.047 12.2311C128.59 12.3086 129.249 12.5218 129.655 13.0836C129.81 13.3549 129.539 13.7618 129.442 14.1105C129.365 14.4593 129.655 14.4593 129.81 14.498L131.341 13.5099C131.593 13.1611 131.535 12.8318 131.244 12.5799C130.934 12.328 130.624 12.0374 130.314 11.8049C130.12 11.6499 129.539 11.5918 128.784 11.5918C127.137 11.5918 124.734 11.863 124.521 11.8824C124.095 11.9018 122.816 11.9599 121.285 12.018L120.045 12.0568C120.065 12.018 120.104 11.9599 120.142 11.9018C120.181 11.8436 120.142 11.088 120.162 11.0105C120.549 10.313 121.014 10.313 121.421 9.61551C122.254 8.25926 121.905 8.99551 122.545 8.06551C122.777 7.71676 123.262 7.38738 123.572 7.19363H123.514C123.63 7.07738 123.669 6.94176 123.649 6.74801L123.63 6.63176C124.172 6.26363 124.792 5.85676 124.986 5.43051C125.064 5.21738 125.005 4.59738 124.928 4.38426C124.947 4.36488 124.23 3.37676 124.211 3.35738C123.843 2.93113 123.397 3.49301 123.378 4.03551L123.281 4.19051C123.029 4.44238 122.797 4.71363 122.584 4.98488C122.564 4.98488 122.545 4.98488 122.525 4.96551C122.429 5.15926 122.312 5.00426 122.235 5.15926C122.041 5.23676 121.983 5.27551 121.867 5.46926C121.905 5.48863 121.944 5.52738 122.002 5.56613C122.041 5.58551 122.08 5.60488 122.099 5.60488C121.557 6.36051 120.975 7.11613 120.433 7.87176C119.406 9.24738 118.457 10.6811 117.565 12.173C115.667 12.2311 113.981 12.3474 113.439 12.3861C113.051 12.4055 112.625 12.4249 112.179 12.4249C111.21 12.4249 110.184 12.3668 109.428 12.2505C109.312 12.2505 109.195 12.2505 109.079 12.2699C108.905 12.0568 108.634 11.7661 108.498 11.8049ZM114.291 22.3255C114.272 21.9574 114.31 21.5699 114.349 21.2018C114.446 20.2136 114.717 19.2255 115.066 18.4893C115.725 17.1136 116.422 15.8155 117.197 14.5561C117.643 13.8586 118.108 13.1611 118.592 12.4636L118.883 12.4443L117.662 14.7499L117.004 16.0286C116.732 16.5518 116.713 17.3074 116.5 17.7918C115.977 18.8574 115.337 19.5161 115.24 20.0393C115.124 20.5818 114.737 21.5311 114.446 22.5386C114.407 22.6936 114.388 22.8293 114.33 22.9455C114.31 22.7324 114.291 22.5193 114.291 22.3255ZM119.484 11.2624C119.425 11.398 119.329 11.5336 119.29 11.6693C119.212 11.8049 119.135 11.9599 119.057 12.0955C118.98 12.0955 118.922 12.1149 118.844 12.1149C119.057 11.8436 119.27 11.5336 119.484 11.2624ZM143.058 21.6668C142.981 21.6668 142.651 21.8024 142.574 21.8411L142.244 22.093L141.489 22.5968C141.198 22.7905 140.869 23.023 140.598 23.1393C140.094 23.3718 139.629 23.5461 139.183 23.6818L138.738 23.7786C138.815 23.7399 138.873 23.7011 138.931 23.6818C139.203 23.5268 139.551 23.3524 139.881 23.2168C140.384 23.023 140.888 22.8099 140.908 22.7518C140.908 22.6936 140.423 22.8874 139.881 23.1005C139.222 23.333 137.924 23.8174 137.866 23.7786C137.691 23.7011 137.904 23.7205 137.633 23.7399L137.42 23.798C136.897 23.8949 136.451 23.643 136.083 23.2555C135.87 22.9068 135.56 22.6355 135.502 22.1124L135.25 21.0274C135.211 20.8918 135.192 20.6011 135.056 20.6011C134.901 20.6011 134.688 20.4849 134.494 20.388C134.359 20.233 134.223 20.0005 134.088 19.9618C133.797 19.9036 133.468 20.3105 133.351 20.3299C133.138 20.3686 132.421 20.8724 131.569 21.4149C131.414 21.473 131.278 21.5505 131.181 21.5699C130.716 21.6668 130.251 22.1705 129.767 22.3836C129.205 22.5968 128.585 22.9843 128.12 23.0811C127.888 23.1393 127.132 23.1974 126.841 23.1005C126.667 23.0424 126.512 22.8874 126.415 22.8099C126.338 22.7518 126.357 22.4224 126.434 22.0543C126.473 21.8218 126.764 21.3955 126.803 21.2986C127.229 20.7755 127.888 19.9811 128.566 19.4774C129.631 18.683 130.813 17.9855 131.453 17.9855C131.627 17.9855 131.898 18.0824 132.131 18.218C132.208 18.3343 132.247 18.4893 132.324 18.6055C132.363 18.6636 132.421 18.683 132.479 18.7218C132.538 18.8961 132.499 19.5549 132.576 19.613C132.615 19.6711 132.673 19.5549 132.848 19.5161C132.944 19.4774 133.061 19.4774 133.274 19.4774C133.429 19.4774 133.603 19.458 133.797 19.3611C134.591 18.7605 134.068 18.5668 134.262 17.8305C134.339 17.5786 134.049 17.288 133.719 17.133L133.603 16.9393C133.332 16.7068 132.983 16.4549 132.654 16.513C132.421 16.5518 132.131 16.4936 131.879 16.4936C131.685 16.4936 131.511 16.5324 131.356 16.6099C130.852 16.9393 129.205 17.443 128.508 17.8693C128.217 18.0049 127.926 18.2568 127.674 18.5086L127.481 18.683C127.403 18.7411 127.345 18.7993 127.268 18.838C125.175 20.5236 123.606 22.1318 123.121 23.8561C123.063 24.0886 122.928 24.7668 123.238 24.9993C123.334 25.0961 123.276 25.2318 123.315 25.2899C123.431 25.4449 123.819 25.4643 123.993 25.4836C124.071 25.6386 124.226 25.5224 124.4 25.4449C124.671 25.3674 125.001 25.2511 125.233 25.1736C125.601 25.0961 125.95 24.9605 126.279 24.8443C126.589 24.7474 126.861 24.5536 127.171 24.418C127.461 24.3018 127.752 24.0886 128.101 23.8949C128.256 23.7786 128.469 23.6624 128.604 23.5461C128.701 23.4686 129.554 22.9649 129.941 22.6743C130.581 22.3449 131.162 22.0543 131.453 22.0155C131.704 21.9961 132.247 22.0543 132.731 22.4418C133.429 22.9843 133.991 24.0499 134.398 24.3405C134.417 24.418 134.494 24.4761 134.533 24.5536C134.804 24.7861 135.269 24.9024 135.638 24.9605C135.812 25.2511 136.141 25.0574 136.471 24.8443L137.459 24.6311C138.234 24.418 138.97 24.1661 139.668 23.9143C140.288 23.7011 140.985 23.3524 141.644 23.1005C142.109 22.9261 142.477 22.5968 143 22.248C143.194 22.1318 143.349 21.6474 143.058 21.6668ZM129.263 17.598C129.612 17.443 129.941 17.3849 130.213 17.3849C130.464 17.3849 130.678 17.4236 130.852 17.4818L130.484 17.6368C129.999 17.8111 129.554 18.0049 129.108 18.2374C128.992 18.1793 128.604 18.2568 128.411 18.1793H128.353C128.759 17.8886 129.108 17.6561 129.263 17.598ZM126.899 19.8068C126.473 20.2524 126.047 20.7174 125.64 21.1824C125.679 21.0661 125.873 20.9111 125.931 20.6011L126.105 20.4461C126.221 20.3493 126.454 19.8261 126.667 19.613L127.345 18.9736C127.326 19.1868 127.19 19.4386 126.899 19.8068ZM124.4 22.7324C124.574 22.3449 124.749 21.9574 125.059 21.5311C125.175 21.4343 125.349 21.3374 125.582 21.2793L124.981 21.9961C124.768 22.2674 124.516 22.6161 124.264 23.0036L124.4 22.7324ZM125.969 24.5149C126.124 24.4761 126.241 24.4568 126.318 24.4568C126.183 24.5149 126.086 24.5536 125.969 24.5924L125.776 24.6311C125.795 24.6118 125.853 24.573 125.969 24.5149ZM155.01 24.108C154.816 23.9724 154.603 23.7205 154.409 23.5849C154.274 23.4493 154.158 23.2943 154.041 23.1586C153.751 22.868 153.712 22.4999 153.557 22.1124C153.479 21.9574 152.336 20.6011 152.588 20.388C152.763 20.1168 152.065 19.4193 151.484 19.4193C151.232 19.2836 150.961 19.2449 150.612 19.2449C149.101 19.2449 145.633 21.3761 144.102 22.3836C144.373 21.783 144.528 21.4536 144.974 20.8143C145.4 20.2136 146.214 19.3805 146.698 18.7799C146.911 18.5474 147.124 18.218 147.357 17.9855C147.415 17.908 147.899 17.4624 147.919 17.3074C147.88 17.288 148.442 16.4161 148.384 16.3968H148.364C148.403 15.7961 147.919 14.6143 147.415 14.8661H147.396C147.144 14.8661 146.853 14.9243 146.776 14.9824C146.194 15.4668 146.233 15.893 145.71 16.3386C145.381 16.6486 144.412 18.1018 144.102 18.2761C143.908 18.373 144.102 18.5668 144.354 18.2374C144.548 18.0243 145.013 17.7336 145.303 17.4236L145.594 17.133H145.613C145.419 17.5593 145.168 18.1211 145.013 18.5861C144.586 19.2449 144.16 19.8649 143.753 20.4655C143.094 21.3374 142.203 22.4805 141.564 23.4686C141.428 23.5655 141.293 23.643 141.254 23.7205L141.215 24.0693C141.099 24.2243 141.041 24.3793 140.963 24.5343L140.886 24.6118C140.828 24.6893 140.769 24.8636 140.731 25.0961C140.731 25.193 140.711 25.3093 140.711 25.3868V25.5224C140.692 25.5224 140.692 25.5224 140.692 25.5418V25.5805C140.673 25.7936 140.673 25.9874 140.692 26.0455C140.711 26.1036 140.769 26.1618 140.905 26.1618C141.099 26.1618 140.963 26.3749 141.467 26.2005H141.525C141.564 26.2005 141.603 26.1811 141.622 26.1424L141.951 26.0068C142.087 25.9293 142.126 25.8711 142.3 25.7743C142.436 25.5611 142.455 25.3093 142.416 25.0574L142.61 24.8249C143.385 23.798 144.334 22.8486 145.555 22.0736C146.001 21.8024 146.698 21.4343 147.454 21.0855C147.725 21.0855 149.139 20.7949 149.275 20.8143C149.469 20.8336 149.74 20.8143 149.934 20.8918C150.05 20.8918 150.67 21.3374 150.709 21.3374C150.748 21.3374 150.767 21.3568 150.806 21.3568L151.038 21.6861C151.581 22.3836 152.143 23.1586 152.763 23.8174C153.014 24.108 153.131 24.3018 153.383 24.3986C153.441 24.4374 153.538 24.4568 153.634 24.4568C154.003 24.7668 154.409 24.9411 154.855 24.9411C155.494 24.9411 156.192 24.7861 157.006 24.4761C157.703 24.1855 158.42 23.8174 159.079 23.4299C159.834 22.9843 160.609 22.4999 160.939 22.1124C161.094 21.9186 161.191 21.783 161.21 21.628C161.21 21.5699 161.113 21.4536 160.823 21.628C159.912 22.2093 159.621 22.5193 158.904 22.9261C158.633 23.0811 157.839 23.4299 157.606 23.5655C156.793 23.9918 156.231 24.1855 155.611 24.3018C155.436 24.2824 155.204 24.2243 155.01 24.108ZM143.385 22.868C143.443 22.7711 143.501 22.6743 143.521 22.558V22.5386L143.54 22.5193C143.966 21.783 144.451 20.9111 144.993 20.0586C145.148 20.0199 145.323 19.9424 145.4 19.9618C145.187 20.3105 145.071 20.543 144.819 20.9111C144.722 21.0855 144.451 21.4149 144.334 21.5893C144.141 21.8605 143.966 22.2093 143.792 22.5774C143.598 22.713 143.463 22.8099 143.385 22.868ZM152.453 23.0618C152.123 22.7324 151.774 22.3836 151.542 22.0349C151.426 21.8993 151.096 21.4149 150.999 21.1243C151.019 21.163 151.058 21.1824 151.077 21.1824C151.271 21.3568 151.542 21.6474 151.813 21.9961C152.007 22.3449 152.239 22.713 152.453 23.0618ZM153.634 23.6043L152.763 21.9186C152.704 21.8218 152.666 21.7055 152.627 21.5893C152.763 21.7055 152.84 21.8024 152.879 21.8605C153.189 22.4805 153.46 23.1586 153.906 23.7593C154.022 23.9143 154.08 24.0305 154.158 24.1274C153.964 23.9918 153.789 23.8174 153.634 23.6043ZM146.291 18.2568L146.466 18.063C146.621 17.8693 146.814 17.7336 146.989 17.598C146.776 17.8886 146.814 17.9661 146.291 18.6443C146.156 18.7993 146.039 18.9543 145.943 19.1093C145.943 19.0899 145.923 19.0705 145.943 19.0511C145.962 18.9543 145.962 18.838 145.962 18.7218C146.078 18.5474 146.194 18.3924 146.291 18.2568ZM174.391 25.1349C174.372 25.1155 175.244 25.038 175.302 24.9993L175.709 24.7474C175.786 24.4761 176.697 24.3018 176.832 24.0886C177.704 23.6236 178.266 23.2943 179.119 22.7905C179.584 22.4999 180.572 21.8993 180.572 21.5505C180.572 21.2211 180.494 21.473 180.359 21.473C179.836 21.3955 178.847 22.403 177.511 23.1393C176.154 23.8755 174.721 24.4568 173.326 25.0574C173.112 25.1349 172.802 25.2705 172.434 25.4061C171.621 25.4836 171.621 25.038 171.407 24.3599C171.33 24.0693 171.291 23.8174 171.291 23.5461C171.291 23.1199 171.369 22.713 171.485 22.2093C171.679 21.8411 172.415 19.6324 172.899 18.4505C173.035 18.0824 173.481 17.4043 173.461 17.4624C173.597 17.1136 174.081 16.3193 174.411 15.7186C174.682 15.2343 174.817 14.9436 175.05 14.5368C175.651 13.4905 176.29 12.4249 176.91 11.398C177.375 10.8168 178.169 9.73176 178.46 9.32488C178.692 8.97613 179.293 8.33676 179.603 8.14301L180.029 7.52301C180.126 7.40676 180.184 7.25176 180.165 7.07738L180.552 5.15926C180.533 5.15926 180.533 5.15926 180.533 5.15926L180.572 5.06238C181.211 4.86863 181.618 4.17113 181.386 3.47363C181.386 3.45426 181.386 3.43488 181.405 3.41551C181.696 3.24113 181.754 3.18301 181.754 3.06676C181.754 2.79551 181.327 2.38863 180.901 2.38863C180.843 2.38863 180.785 2.38863 180.746 2.40801C180.688 2.29176 180.63 2.19488 180.456 2.25301C180.32 2.27238 180.146 2.02051 180.087 2.19488C179.603 3.31863 178.906 3.39613 178.828 3.68676C178.789 3.88051 178.964 3.99676 179.177 4.15176C178.421 5.37238 177.724 6.88363 177.336 7.44551C176.135 9.18926 175.302 11.7468 174.139 13.723C172.957 15.3893 171.33 16.3968 170.226 17.6174L170.187 17.6561C169.819 17.2493 169.625 17.0168 169.354 17.0168C169.141 17.0168 168.869 17.0749 168.54 17.1524C167.823 17.1911 166.389 17.5011 166.176 17.5399C165.847 17.6949 165.479 17.8886 165.149 18.0824C164.51 18.4505 163.832 18.7605 163.367 19.1093C162.882 19.4968 162.262 19.768 161.797 20.1361C161.274 20.5818 160.751 21.0274 160.228 21.5505C159.763 21.9961 158.949 22.5968 158.639 23.178C158.523 23.3718 158.407 23.643 158.368 23.9336L158.174 24.1661C157.981 24.4568 157.922 24.8443 157.961 25.193C158.019 26.123 158.562 26.4911 159.046 26.4911C159.492 26.4911 160.267 26.3943 160.693 26.1811C161.081 25.9874 160.984 26.0261 162.456 25.2705C163.076 24.9799 163.716 24.4955 164.277 23.9918L164.355 23.9336C164.723 23.643 166.099 22.5386 166.447 22.0736L166.544 21.9768C167.901 20.6786 168.462 20.0005 169.528 19.0318C169.644 19.0318 169.702 19.0511 169.702 19.0899C169.722 19.2836 169.237 19.2836 169.276 19.8068C169.296 20.1168 169.47 20.3493 169.935 20.3493C170.071 20.3493 170.129 20.4461 170.226 20.4074C169.838 21.6086 169.16 23.4299 169.16 24.7668C169.16 25.8324 169.799 26.4911 170.865 26.4911C170.981 26.4911 171.078 26.4718 171.136 26.4524C171.33 26.3749 171.524 26.2974 171.737 26.2393C171.776 26.3361 172.551 26.0649 172.822 25.9874C173.19 25.8905 173.81 25.6193 174.294 25.4643C174.624 25.3674 174.062 25.3674 174.391 25.1349ZM167.668 20.4461C166.874 21.0468 165.692 22.1705 164.316 23.1199C162.727 24.1855 161.701 24.9024 161.216 24.9024C161.042 24.9024 160.693 24.8055 160.712 24.4568C160.867 24.1274 160.926 23.798 161.081 23.5268C161.546 22.6936 162.069 22.0543 162.689 21.4536C163.212 20.9693 163.812 20.543 164.549 20.0586L165.517 19.3418C166.525 18.6636 166.99 18.1405 168.327 18.1405C168.811 18.1405 168.792 18.8186 168.947 19.1093C168.637 19.458 168.036 20.1168 167.668 20.4461ZM173.597 15.1761C174.139 14.5368 174.662 13.878 175.147 13.2386L174.159 15.0793L173.5 16.3386C173.326 16.6874 172.764 17.1911 172.357 17.598C172.725 16.823 173.112 16.0093 173.597 15.1761ZM163.231 19.5549C163.522 19.3999 163.793 19.3611 164.064 19.2836C163.406 19.5936 161.468 21.0855 160.867 21.4343C161.061 21.2986 161.313 20.9111 161.914 20.4461C162.321 20.1168 163.115 19.6324 163.231 19.5549ZM170.497 17.9855C170.826 17.6368 171.33 17.5399 171.659 17.1911C171.369 17.7143 170.981 18.063 170.768 18.6055L170.536 18.1599C170.477 18.1018 170.477 18.0824 170.458 18.0436L170.497 17.9855Z" fill="#282828"/>
</svg>
