<svg width="99" height="35" viewBox="0 0 99 35" fill="none" xmlns="http://www.w3.org/2000/svg">
<path d="M17.7491 8.48949C17.4779 9.94262 16.4122 11.4926 15.1916 13.2945C15.056 13.4689 14.8429 13.682 14.7266 13.8564C14.3779 14.3214 14.1841 14.7476 13.8354 15.232C13.6416 15.5032 13.4672 15.7939 13.2929 16.0845C11.8979 18.2739 9.5535 21.6257 8.79787 23.5439C8.06162 25.4232 8.64287 23.6795 7.88725 25.5007C7.2285 27.2639 6.64725 27.8257 6.18225 29.5307C6.12412 29.7245 5.71725 30.5189 5.62037 31.1001L5.42662 31.4489C5.34912 31.5264 5.31037 31.6232 5.25225 31.7395L5.17475 31.9526C4.9035 32.4564 4.981 33.0182 4.78725 33.522C4.70975 33.7351 4.84537 33.9095 4.78725 34.1226C4.671 34.5101 4.94225 34.7039 5.291 34.6651C5.31037 34.6651 5.31037 34.6651 5.3685 34.6651C5.48475 34.6264 5.63975 34.5682 5.756 34.4714L6.31787 34.1807L6.531 34.0645L6.56975 33.8901C6.66662 33.7157 6.70537 33.3089 6.72475 33.0764C6.72475 32.9601 6.86037 32.5726 7.01537 32.282C7.36412 31.6814 7.75162 30.6932 7.67412 30.4995C7.57725 30.3057 7.40287 30.2864 7.18975 30.3639L7.32537 29.957C7.75162 29.0076 8.21662 28.0776 8.72037 27.167C8.99162 26.6632 9.7085 24.997 9.96037 24.532L10.3285 23.7957L10.3479 23.8539C11.5491 21.7032 11.9947 20.6957 13.3316 18.4289C14.4166 16.627 15.9472 14.4182 17.2841 12.3839C18.5822 10.4076 19.6672 9.07074 20.9072 7.32699C21.1785 6.93949 21.5466 6.66824 21.876 6.20324C22.2054 5.75762 22.4572 5.15699 22.6897 4.73074C23.2322 3.80074 23.9104 2.75449 23.736 1.92137C23.581 1.10762 22.6122 0.681367 21.7597 0.661993C21.4497 0.661993 21.0816 0.661993 20.6554 0.681367C20.5972 0.661993 20.5004 0.661993 20.4422 0.661993C19.6091 0.623243 18.5629 0.720118 17.2647 0.991369C13.7966 1.70824 8.97225 3.14199 5.96912 4.44012C5.31037 4.73074 4.5935 4.98262 3.87662 5.25387C3.586 5.25387 3.276 5.40887 2.94662 5.62199L2.59787 5.77699C1.9585 6.06762 1.3385 6.45512 0.834746 6.88137C0.330996 7.26887 0.234121 7.50137 0.330996 7.75324C0.408496 7.92762 0.505371 8.06324 0.621621 8.16012C0.602246 8.41199 0.757246 8.68324 0.776621 8.76074C0.931621 9.20637 0.776621 8.66387 0.989746 9.03199L1.29975 8.79949C1.39662 8.76074 1.53225 8.76074 1.66787 8.74137C1.84225 9.01262 1.99725 9.09012 2.15225 9.09012C2.30725 9.09012 2.48162 8.99324 2.69475 8.85762C2.8885 8.68324 2.966 8.76074 3.17912 8.60574C3.41162 8.41199 3.76037 7.98574 3.56662 7.63699C3.56662 7.46262 4.671 7.13324 5.48475 6.31949C6.64725 5.29262 8.64287 4.30449 9.06912 3.99449C10.7741 3.20012 12.5372 2.48324 13.2541 2.28949C14.7654 1.88262 16.9354 1.43699 18.4466 1.43699C18.7566 1.43699 19.0472 1.45637 19.2797 1.49512C19.7835 1.57262 20.4616 1.74699 20.6554 2.32824C20.8104 2.79324 20.5197 3.62637 20.326 4.22699C20.0547 5.07949 19.7641 5.81574 19.4347 6.47449L19.2604 6.86199C19.1054 6.88137 18.931 6.93949 18.7954 7.11387C18.7954 7.11387 18.7954 7.11387 18.776 7.15262L18.2141 7.98574C18.0591 8.14074 17.8072 8.23762 17.7491 8.48949ZM19.9579 7.32699C20.4229 6.59074 21.101 5.66074 21.5466 4.80824C21.2754 5.46699 21.0041 6.04824 20.7135 6.57137C20.326 7.30762 19.8997 7.98574 19.4347 8.70262L18.0591 10.8532C17.9235 11.047 17.1679 11.5701 16.9935 11.7832C18.0204 10.117 18.931 8.87699 19.9579 7.32699ZM11.7816 19.5526C10.9485 21.0639 10.0766 22.672 9.22412 24.2607L9.14662 24.377C9.34037 23.8732 9.65037 23.3307 10.1929 22.2651C10.7935 21.1026 11.646 18.9132 12.9635 16.9176C13.1185 16.7045 13.3316 16.5689 13.5641 16.4332C13.0216 17.3632 12.421 18.4289 11.7816 19.5526ZM13.0022 18.4289C13.9904 16.627 15.3854 14.4182 16.606 12.3839L16.6447 12.287C16.2766 13.0426 16.9547 12.5582 14.9397 15.5226C14.2616 16.5301 13.4479 17.8282 12.576 19.2426C12.6922 18.9714 12.8472 18.7195 13.0022 18.4289ZM14.2616 15.2707C14.2422 15.1545 14.2229 15.077 14.2616 15.0189C14.6685 14.457 15.0172 13.9339 15.366 13.4107L15.7729 12.8489C15.5404 13.2557 15.1141 13.9145 14.2616 15.2707ZM35.8599 24.1251C35.8405 24.1057 36.7124 24.0282 36.7705 23.9895L37.1774 23.7376C37.2549 23.4664 38.1655 23.292 38.3012 23.0789C39.173 22.6139 39.7349 22.2845 40.5874 21.7807C41.0524 21.4901 42.0405 20.8895 42.0405 20.5407C42.0405 20.2114 41.963 20.4632 41.8274 20.4632C41.3043 20.3857 40.3162 21.3932 38.9793 22.1295C37.623 22.8657 36.1893 23.447 34.7943 24.0476C34.5812 24.1251 34.2712 24.2607 33.903 24.3964C33.0893 24.4739 33.0893 24.0282 32.8762 23.3501C32.7987 23.0595 32.7599 22.8076 32.7599 22.5364C32.7599 22.1101 32.8374 21.7032 32.9537 21.1995C33.1474 20.8314 33.8837 18.6226 34.368 17.4407C34.5037 17.0726 34.9493 16.3945 34.9299 16.4526C35.0655 16.1039 35.5499 15.3095 35.8793 14.7089C36.1505 14.2245 36.2862 13.9339 36.5187 13.527C37.1193 12.4807 37.7587 11.4151 38.3787 10.3882C38.8437 9.80699 39.638 8.72199 39.9287 8.31512C40.1612 7.96637 40.7618 7.32699 41.0718 7.13324L41.498 6.51324C41.5949 6.39699 41.653 6.24199 41.6337 6.06762L42.0212 4.14949C42.0018 4.14949 42.0018 4.14949 42.0018 4.14949L42.0405 4.05262C42.6799 3.85887 43.0868 3.16137 42.8543 2.46387C42.8543 2.44449 42.8543 2.42512 42.8737 2.40574C43.1643 2.23137 43.2224 2.17324 43.2224 2.05699C43.2224 1.78574 42.7962 1.37887 42.3699 1.37887C42.3118 1.37887 42.2537 1.37887 42.2149 1.39824C42.1568 1.28199 42.0987 1.18512 41.9243 1.24324C41.7887 1.26262 41.6143 1.01074 41.5562 1.18512C41.0718 2.30887 40.3743 2.38637 40.2968 2.67699C40.258 2.87074 40.4324 2.98699 40.6455 3.14199C39.8899 4.36262 39.1924 5.87387 38.8049 6.43574C37.6037 8.17949 36.7705 10.737 35.608 12.7132C34.4262 14.3795 32.7987 15.387 31.6943 16.6076L31.6555 16.6464C31.2874 16.2395 31.0937 16.007 30.8224 16.007C30.6093 16.007 30.338 16.0651 30.0087 16.1426C29.2918 16.1814 27.858 16.4914 27.6449 16.5301C27.3155 16.6851 26.9474 16.8789 26.618 17.0726C25.9787 17.4407 25.3005 17.7507 24.8355 18.0995C24.3512 18.487 23.7312 18.7582 23.2662 19.1264C22.743 19.572 22.2199 20.0176 21.6968 20.5407C21.2318 20.9864 20.418 21.587 20.108 22.1682C19.9918 22.362 19.8755 22.6332 19.8368 22.9239L19.643 23.1564C19.4493 23.447 19.3912 23.8345 19.4299 24.1832C19.488 25.1132 20.0305 25.4814 20.5149 25.4814C20.9605 25.4814 21.7355 25.3845 22.1618 25.1714C22.5493 24.9776 22.4524 25.0164 23.9249 24.2607C24.5449 23.9701 25.1843 23.4857 25.7462 22.982L25.8237 22.9239C26.1918 22.6332 27.5674 21.5289 27.9162 21.0639L28.013 20.967C29.3693 19.6689 29.9312 18.9907 30.9968 18.022C31.113 18.022 31.1712 18.0414 31.1712 18.0801C31.1905 18.2739 30.7062 18.2739 30.7449 18.797C30.7643 19.107 30.9387 19.3395 31.4037 19.3395C31.5393 19.3395 31.5974 19.4364 31.6943 19.3976C31.3068 20.5989 30.6287 22.4201 30.6287 23.757C30.6287 24.8226 31.268 25.4814 32.3337 25.4814C32.4499 25.4814 32.5468 25.462 32.6049 25.4426C32.7987 25.3651 32.9924 25.2876 33.2055 25.2295C33.2443 25.3264 34.0193 25.0551 34.2905 24.9776C34.6587 24.8807 35.2787 24.6095 35.763 24.4545C36.0924 24.3576 35.5305 24.3576 35.8599 24.1251ZM29.1368 19.4364C28.3424 20.037 27.1605 21.1607 25.7849 22.1101C24.1962 23.1757 23.1693 23.8926 22.6849 23.8926C22.5105 23.8926 22.1618 23.7957 22.1812 23.447C22.3362 23.1176 22.3943 22.7882 22.5493 22.517C23.0143 21.6839 23.5374 21.0445 24.1574 20.4439C24.6805 19.9595 25.2812 19.5332 26.0174 19.0489L26.9862 18.332C27.9937 17.6539 28.4587 17.1307 29.7955 17.1307C30.2799 17.1307 30.2605 17.8089 30.4155 18.0995C30.1055 18.4482 29.5049 19.107 29.1368 19.4364ZM35.0655 14.1664C35.608 13.527 36.1312 12.8682 36.6155 12.2289L35.6274 14.0695L34.9687 15.3289C34.7943 15.6776 34.2324 16.1814 33.8255 16.5882C34.1937 15.8132 34.5812 14.9995 35.0655 14.1664ZM24.6999 18.5451C24.9905 18.3901 25.2618 18.3514 25.533 18.2739C24.8743 18.5839 22.9368 20.0757 22.3362 20.4245C22.5299 20.2889 22.7818 19.9014 23.3824 19.4364C23.7893 19.107 24.5837 18.6226 24.6999 18.5451ZM31.9655 16.9757C32.2949 16.627 32.7987 16.5301 33.128 16.1814C32.8374 16.7045 32.4499 17.0532 32.2368 17.5957L32.0043 17.1501C31.9462 17.092 31.9462 17.0726 31.9268 17.0339L31.9655 16.9757ZM49.9189 16.5301C49.357 16.4526 49.3764 16.2976 48.9114 16.4139C48.4076 16.2782 46.6639 16.9757 46.1214 17.0726C45.5595 17.1889 45.017 17.4214 44.2226 17.7895L43.3701 18.2739C42.847 18.5645 41.917 19.6107 41.452 19.8432C40.8514 20.2114 40.1926 21.2576 39.6114 22.0132C39.4758 22.2457 39.4564 22.5945 39.5533 22.6914L39.5726 22.7107C39.4758 22.9432 39.4176 23.137 39.4176 23.3114C39.4176 23.912 40.1345 24.9389 40.9483 25.0939C41.2389 25.152 41.4908 25.1714 41.7814 25.1714C42.4595 25.1714 43.1376 25.0357 43.8351 25.0357C45.5208 24.9582 47.2451 24.1639 49.0083 23.6407C50.3258 23.2532 50.907 22.982 51.4883 22.7301L53.9489 21.6451C54.317 21.4707 54.6851 21.3351 55.0339 21.1607C55.1501 21.0445 55.2664 20.967 55.3245 20.8507C55.402 20.6957 55.4601 20.5795 55.4795 20.4632C55.4795 20.2307 55.557 20.2307 55.3245 20.2307L54.5301 20.8895C54.0264 21.0057 53.9876 20.9864 53.852 21.0251C53.6776 21.0832 53.5033 21.2382 53.4258 21.3932L53.0383 21.5676C51.6626 22.4007 52.0114 22.052 51.6626 22.2264C50.8295 22.5364 49.977 22.8657 49.0858 23.137C48.8145 23.2339 48.582 23.3114 48.3108 23.3889C47.8845 23.4276 47.187 23.5051 46.7608 23.5245C46.4701 23.5439 45.947 23.6407 45.6176 23.6407C44.5714 23.6407 43.5251 23.6214 43.2733 23.4664C42.6533 23.0595 42.1495 22.7301 42.1301 22.5945C42.0333 22.0132 42.3433 21.5095 42.5951 21.1607C42.9051 21.2382 43.2733 21.3157 43.4089 21.3157C43.5639 21.3351 43.8545 21.2189 43.9901 21.1801C44.4358 21.0639 44.707 20.9282 44.862 20.6764C44.9395 20.5407 46.1408 20.037 46.9158 19.6301C47.0901 19.6107 47.2645 19.5526 47.4389 19.4945C48.1945 19.3007 48.9308 18.8745 49.2408 18.7582C49.8026 18.5257 50.2289 18.5257 50.5001 18.0607C50.5195 18.0026 50.5776 17.9251 50.5776 17.867C50.6745 17.7701 50.8489 17.9639 50.8876 17.867C51.0233 17.6345 50.9845 17.4795 50.8101 17.3632C50.8876 16.627 50.1514 16.5882 49.9189 16.5301ZM47.5358 17.5182C48.0783 17.3051 49.1439 17.1307 49.4151 17.1695C49.512 17.2276 49.5314 17.3632 49.4926 17.4989C49.3764 18.022 47.8845 18.797 46.6058 19.2232C46.5476 19.2426 46.4508 19.2814 46.3345 19.3589L45.4433 19.4945C44.9976 19.5526 44.7264 19.4364 44.6295 19.3782C44.552 19.3201 44.4164 19.2814 44.2808 19.2426C45.1333 18.6807 46.3151 17.9832 47.5358 17.5182ZM40.8126 22.7689C40.7545 22.4782 40.9289 22.0907 41.2195 21.7226L41.2583 21.8001C41.2389 21.8776 41.2389 21.9164 41.2389 21.9745C41.2389 22.1101 40.9095 22.9626 41.2195 23.3307C41.2776 23.4276 41.3358 23.4857 41.4326 23.5632C41.0839 23.3695 40.8901 23.1176 40.8126 22.7689ZM40.9095 21.0057C40.9289 20.9476 40.9676 20.8895 41.0451 20.8507L41.6651 20.2307L42.1883 19.8239L42.4014 19.7464C42.2076 19.882 41.9364 20.2889 41.7426 20.4439C41.452 20.6764 41.2389 20.6957 40.9095 21.0057ZM50.3258 17.4407C50.3258 17.4601 50.3645 17.557 50.3839 17.6345C50.3258 17.5957 50.2289 17.6151 50.0739 17.8282L49.667 18.022C49.9189 17.6926 50.0351 17.4407 49.9576 17.3632L49.8995 17.2664C50.0158 17.3051 50.1514 17.3632 50.3258 17.4407ZM44.9395 17.9832C45.172 17.8864 45.3658 17.8282 45.5595 17.7701C45.0945 17.9832 44.6683 18.2157 44.2614 18.4289C44.4939 18.2739 44.7264 18.0995 44.9395 17.9832ZM73.066 20.657C72.9885 20.657 72.6591 20.7926 72.5816 20.8314L72.2522 21.0832L71.4966 21.587C71.206 21.7807 70.8766 22.0132 70.6053 22.1295C70.1016 22.362 69.6366 22.5364 69.191 22.672L68.7453 22.7689C68.8228 22.7301 68.881 22.6914 68.9391 22.672C69.2103 22.517 69.5591 22.3426 69.8885 22.207C70.3922 22.0132 70.896 21.8001 70.9153 21.742C70.9153 21.6839 70.431 21.8776 69.8885 22.0907C69.2297 22.3232 67.9316 22.8076 67.8735 22.7689C67.6991 22.6914 67.9122 22.7107 67.641 22.7301L67.4278 22.7882C66.9047 22.8851 66.4591 22.6332 66.091 22.2457C65.8778 21.897 65.5678 21.6257 65.5097 21.1026L65.2578 20.0176C65.2191 19.882 65.1997 19.5914 65.0641 19.5914C64.9091 19.5914 64.696 19.4751 64.5022 19.3782C64.3666 19.2232 64.231 18.9907 64.0953 18.952C63.8047 18.8939 63.4753 19.3007 63.3591 19.3201C63.146 19.3589 62.4291 19.8626 61.5766 20.4051C61.4216 20.4632 61.286 20.5407 61.1891 20.5601C60.7241 20.657 60.2591 21.1607 59.7747 21.3739C59.2128 21.587 58.5928 21.9745 58.1278 22.0714C57.8953 22.1295 57.1397 22.1876 56.8491 22.0907C56.6747 22.0326 56.5197 21.8776 56.4228 21.8001C56.3453 21.742 56.3647 21.4126 56.4422 21.0445C56.481 20.812 56.7716 20.3857 56.8103 20.2889C57.2366 19.7657 57.8953 18.9714 58.5735 18.4676C59.6391 17.6732 60.821 16.9757 61.4603 16.9757C61.6347 16.9757 61.906 17.0726 62.1385 17.2082C62.216 17.3245 62.2547 17.4795 62.3322 17.5957C62.371 17.6539 62.4291 17.6732 62.4872 17.712C62.5453 17.8864 62.5066 18.5451 62.5841 18.6032C62.6228 18.6614 62.681 18.5451 62.8553 18.5064C62.9522 18.4676 63.0685 18.4676 63.2816 18.4676C63.4366 18.4676 63.611 18.4482 63.8047 18.3514C64.5991 17.7507 64.076 17.557 64.2697 16.8207C64.3472 16.5689 64.0566 16.2782 63.7272 16.1232L63.611 15.9295C63.3397 15.697 62.991 15.4451 62.6616 15.5032C62.4291 15.542 62.1385 15.4839 61.8866 15.4839C61.6928 15.4839 61.5185 15.5226 61.3635 15.6001C60.8597 15.9295 59.2128 16.4332 58.5153 16.8595C58.2247 16.9951 57.9341 17.247 57.6822 17.4989L57.4885 17.6732C57.411 17.7314 57.3528 17.7895 57.2753 17.8282C55.1828 19.5139 53.6135 21.122 53.1291 22.8464C53.071 23.0789 52.9353 23.757 53.2453 23.9895C53.3422 24.0864 53.2841 24.222 53.3228 24.2801C53.4391 24.4351 53.8266 24.4545 54.001 24.4739C54.0785 24.6289 54.2335 24.5126 54.4078 24.4351C54.6791 24.3576 55.0085 24.2414 55.241 24.1639C55.6091 24.0864 55.9578 23.9507 56.2872 23.8345C56.5972 23.7376 56.8685 23.5439 57.1785 23.4082C57.4691 23.292 57.7597 23.0789 58.1085 22.8851C58.2635 22.7689 58.4766 22.6526 58.6122 22.5364C58.7091 22.4589 59.5616 21.9551 59.9491 21.6645C60.5885 21.3351 61.1697 21.0445 61.4603 21.0057C61.7122 20.9864 62.2547 21.0445 62.7391 21.432C63.4366 21.9745 63.9985 23.0401 64.4053 23.3307C64.4247 23.4082 64.5022 23.4664 64.541 23.5439C64.8122 23.7764 65.2772 23.8926 65.6453 23.9507C65.8197 24.2414 66.1491 24.0476 66.4785 23.8345L67.4666 23.6214C68.2416 23.4082 68.9778 23.1564 69.6753 22.9045C70.2953 22.6914 70.9928 22.3426 71.6516 22.0907C72.1166 21.9164 72.4847 21.587 73.0078 21.2382C73.2016 21.122 73.3566 20.6376 73.066 20.657ZM59.271 16.5882C59.6197 16.4332 59.9491 16.3751 60.2203 16.3751C60.4722 16.3751 60.6853 16.4139 60.8597 16.472L60.4916 16.627C60.0072 16.8014 59.5616 16.9951 59.116 17.2276C58.9997 17.1695 58.6122 17.247 58.4185 17.1695H58.3603C58.7672 16.8789 59.116 16.6464 59.271 16.5882ZM56.9072 18.797C56.481 19.2426 56.0547 19.7076 55.6478 20.1726C55.6866 20.0564 55.8803 19.9014 55.9385 19.5914L56.1128 19.4364C56.2291 19.3395 56.4616 18.8164 56.6747 18.6032L57.3528 17.9639C57.3335 18.177 57.1978 18.4289 56.9072 18.797ZM54.4078 21.7226C54.5822 21.3351 54.7566 20.9476 55.0666 20.5214C55.1828 20.4245 55.3572 20.3276 55.5897 20.2695L54.9891 20.9864C54.776 21.2576 54.5241 21.6064 54.2722 21.9939L54.4078 21.7226ZM55.9772 23.5051C56.1322 23.4664 56.2485 23.447 56.326 23.447C56.1903 23.5051 56.0935 23.5439 55.9772 23.5826L55.7835 23.6214C55.8028 23.602 55.861 23.5632 55.9772 23.5051ZM67.871 10.7951C67.406 10.2914 67.2317 11.1245 66.9604 11.2407C66.7279 11.357 66.631 11.6282 66.631 11.9576C66.631 12.2676 66.7279 12.6164 66.8829 12.8101C67.0185 12.9651 67.2317 13.0039 67.4642 13.0039C68.2392 13.0039 69.4017 12.442 69.8473 12.3645C70.7192 12.2095 72.0367 11.9189 72.9085 11.8026L73.4898 11.7445C72.9667 11.8801 75.0204 11.5701 75.5242 11.7057C75.9698 12.132 75.7373 11.7832 76.086 11.9964C76.1635 11.9382 76.3767 11.8801 76.5704 11.7832C75.2335 14.147 74.0904 16.5882 73.1604 18.9714C72.8698 19.6689 71.9398 22.0907 72.0173 22.9432C72.0173 23.1757 71.9979 23.4276 71.9979 23.6989C71.9979 23.9701 72.0367 24.2414 72.1335 24.4739C72.3854 25.0551 72.8892 25.307 73.5285 25.307C74.0323 25.307 74.6135 25.152 75.2335 24.9001C75.9698 24.5514 76.706 24.5707 77.4423 24.2026C78.2754 23.7957 79.5735 23.1951 80.0579 22.982C80.6392 22.9045 81.1235 22.6526 81.7242 22.3814C82.0535 22.207 82.3442 22.0907 82.6154 21.9357C82.8673 21.7807 83.2742 21.6451 83.4292 21.6064C83.6035 21.5095 83.9523 21.1607 84.2623 20.967C84.4173 20.9089 84.4367 20.7151 84.3785 20.5795C84.301 20.4439 84.0685 20.5601 83.6423 20.7732C83.4098 20.8895 82.906 21.2189 82.4217 21.4514C81.6079 21.8389 80.7942 22.2457 80.5617 22.3814C79.961 22.672 78.4885 23.137 77.481 23.5051C76.9192 23.7182 76.2217 23.7957 75.6985 23.8732C75.2723 23.9314 74.8267 23.7957 74.5167 23.6795C74.2454 23.137 74.1485 22.6914 74.1485 22.2264C74.1485 21.8195 74.2454 21.3739 74.3423 20.8701C74.536 20.502 75.2917 18.2932 75.7567 17.1307C75.8923 16.7626 76.3573 16.0845 76.3379 16.1232C77.2485 13.9532 78.0817 13.2751 79.2054 11.3957L79.9417 11.357C80.0773 11.357 80.2323 11.3376 80.3873 11.3376C81.9373 11.2795 83.2935 11.1826 84.0879 11.1632C84.4367 11.1439 84.766 11.1439 85.1148 11.1439C85.9285 11.1439 86.6842 11.1826 87.4204 11.2214C87.9629 11.2989 88.6217 11.512 89.0285 12.0739C89.1835 12.3451 88.9123 12.752 88.8154 13.1007C88.7379 13.4495 89.0285 13.4495 89.1835 13.4882L90.7142 12.5001C90.966 12.1514 90.9079 11.822 90.6173 11.5701C90.3073 11.3182 89.9973 11.0276 89.6873 10.7951C89.4935 10.6401 88.9123 10.582 88.1567 10.582C86.5098 10.582 84.1073 10.8532 83.8942 10.8726C83.4679 10.892 82.1892 10.9501 80.6585 11.0082L79.4185 11.047C79.4379 11.0082 79.4767 10.9501 79.5154 10.892C79.5542 10.8339 79.5154 10.0782 79.5348 10.0007C79.9223 9.30324 80.3873 9.30324 80.7942 8.60574C81.6273 7.24949 81.2785 7.98574 81.9179 7.05574C82.1504 6.70699 82.6348 6.37762 82.9448 6.18387H82.8867C83.0029 6.06762 83.0417 5.93199 83.0223 5.73824L83.0029 5.62199C83.5454 5.25387 84.1654 4.84699 84.3592 4.42074C84.4367 4.20762 84.3785 3.58762 84.301 3.37449C84.3204 3.35512 83.6035 2.36699 83.5842 2.34762C83.216 1.92137 82.7704 2.48324 82.751 3.02574L82.6542 3.18074C82.4023 3.43262 82.1698 3.70387 81.9567 3.97512C81.9373 3.97512 81.9179 3.97512 81.8985 3.95574C81.8017 4.14949 81.6854 3.99449 81.6079 4.14949C81.4142 4.22699 81.356 4.26574 81.2398 4.45949C81.2785 4.47887 81.3173 4.51762 81.3754 4.55637C81.4142 4.57574 81.4529 4.59512 81.4723 4.59512C80.9298 5.35074 80.3485 6.10637 79.806 6.86199C78.7792 8.23762 77.8298 9.67137 76.9385 11.1632C75.0398 11.2214 73.3542 11.3376 72.8117 11.3764C72.4242 11.3957 71.9979 11.4151 71.5523 11.4151C70.5835 11.4151 69.5567 11.357 68.801 11.2407C68.6848 11.2407 68.5685 11.2407 68.4523 11.2601C68.2779 11.047 68.0067 10.7564 67.871 10.7951ZM73.6642 21.3157C73.6448 20.9476 73.6835 20.5601 73.7223 20.192C73.8192 19.2039 74.0904 18.2157 74.4392 17.4795C75.0979 16.1039 75.7954 14.8057 76.5704 13.5464C77.016 12.8489 77.481 12.1514 77.9654 11.4539L78.256 11.4345L77.0354 13.7401L76.3767 15.0189C76.1054 15.542 76.086 16.2976 75.8729 16.782C75.3498 17.8476 74.7104 18.5064 74.6135 19.0295C74.4973 19.572 74.1098 20.5214 73.8192 21.5289C73.7804 21.6839 73.761 21.8195 73.7029 21.9357C73.6835 21.7226 73.6642 21.5095 73.6642 21.3157ZM78.8567 10.2526C78.7985 10.3882 78.7017 10.5239 78.6629 10.6595C78.5854 10.7951 78.5079 10.9501 78.4304 11.0857C78.3529 11.0857 78.2948 11.1051 78.2173 11.1051C78.4304 10.8339 78.6435 10.5239 78.8567 10.2526ZM92.4531 16.5301C91.8912 16.4526 91.9106 16.2976 91.4456 16.4139C90.9418 16.2782 89.1981 16.9757 88.6556 17.0726C88.0937 17.1889 87.5512 17.4214 86.7568 17.7895L85.9043 18.2739C85.3812 18.5645 84.4512 19.6107 83.9862 19.8432C83.3856 20.2114 82.7268 21.2576 82.1456 22.0132C82.0099 22.2457 81.9906 22.5945 82.0874 22.6914L82.1068 22.7107C82.0099 22.9432 81.9518 23.137 81.9518 23.3114C81.9518 23.912 82.6687 24.9389 83.4824 25.0939C83.7731 25.152 84.0249 25.1714 84.3156 25.1714C84.9937 25.1714 85.6718 25.0357 86.3693 25.0357C88.0549 24.9582 89.7793 24.1639 91.5424 23.6407C92.8599 23.2532 93.4412 22.982 94.0224 22.7301L96.4831 21.6451C96.8512 21.4707 97.2193 21.3351 97.5681 21.1607C97.6843 21.0445 97.8006 20.967 97.8587 20.8507C97.9362 20.6957 97.9943 20.5795 98.0137 20.4632C98.0137 20.2307 98.0912 20.2307 97.8587 20.2307L97.0643 20.8895C96.5606 21.0057 96.5218 20.9864 96.3862 21.0251C96.2118 21.0832 96.0374 21.2382 95.9599 21.3932L95.5724 21.5676C94.1968 22.4007 94.5456 22.052 94.1968 22.2264C93.3637 22.5364 92.5112 22.8657 91.6199 23.137C91.3487 23.2339 91.1162 23.3114 90.8449 23.3889C90.4187 23.4276 89.7212 23.5051 89.2949 23.5245C89.0043 23.5439 88.4812 23.6407 88.1518 23.6407C87.1056 23.6407 86.0593 23.6214 85.8074 23.4664C85.1874 23.0595 84.6837 22.7301 84.6643 22.5945C84.5674 22.0132 84.8774 21.5095 85.1293 21.1607C85.4393 21.2382 85.8074 21.3157 85.9431 21.3157C86.0981 21.3351 86.3887 21.2189 86.5243 21.1801C86.9699 21.0639 87.2412 20.9282 87.3962 20.6764C87.4737 20.5407 88.6749 20.037 89.4499 19.6301C89.6243 19.6107 89.7987 19.5526 89.9731 19.4945C90.7287 19.3007 91.4649 18.8745 91.7749 18.7582C92.3368 18.5257 92.7631 18.5257 93.0343 18.0607C93.0537 18.0026 93.1118 17.9251 93.1118 17.867C93.2087 17.7701 93.3831 17.9639 93.4218 17.867C93.5574 17.6345 93.5187 17.4795 93.3443 17.3632C93.4218 16.627 92.6856 16.5882 92.4531 16.5301ZM90.0699 17.5182C90.6124 17.3051 91.6781 17.1307 91.9493 17.1695C92.0462 17.2276 92.0656 17.3632 92.0268 17.4989C91.9106 18.022 90.4187 18.797 89.1399 19.2232C89.0818 19.2426 88.9849 19.2814 88.8687 19.3589L87.9774 19.4945C87.5318 19.5526 87.2606 19.4364 87.1637 19.3782C87.0862 19.3201 86.9506 19.2814 86.8149 19.2426C87.6674 18.6807 88.8493 17.9832 90.0699 17.5182ZM83.3468 22.7689C83.2887 22.4782 83.4631 22.0907 83.7537 21.7226L83.7924 21.8001C83.7731 21.8776 83.7731 21.9164 83.7731 21.9745C83.7731 22.1101 83.4437 22.9626 83.7537 23.3307C83.8118 23.4276 83.8699 23.4857 83.9668 23.5632C83.6181 23.3695 83.4243 23.1176 83.3468 22.7689ZM83.4437 21.0057C83.4631 20.9476 83.5018 20.8895 83.5793 20.8507L84.1993 20.2307L84.7224 19.8239L84.9356 19.7464C84.7418 19.882 84.4706 20.2889 84.2768 20.4439C83.9862 20.6764 83.7731 20.6957 83.4437 21.0057ZM92.8599 17.4407C92.8599 17.4601 92.8987 17.557 92.9181 17.6345C92.8599 17.5957 92.7631 17.6151 92.6081 17.8282L92.2012 18.022C92.4531 17.6926 92.5693 17.4407 92.4918 17.3632L92.4337 17.2664C92.5499 17.3051 92.6856 17.3632 92.8599 17.4407ZM87.4737 17.9832C87.7062 17.8864 87.8999 17.8282 88.0937 17.7701C87.6287 17.9832 87.2024 18.2157 86.7956 18.4289C87.0281 18.2739 87.2606 18.0995 87.4737 17.9832Z" fill="#282828"/>
</svg>
