<svg id="Layer_1" data-name="Layer 1" xmlns="http://www.w3.org/2000/svg" viewBox="0 0 180 47.07"><defs><style>.cls-1{fill:#da9b5c;fill-rule:evenodd;}</style></defs><title>vecteezy</title><path class="cls-1" d="M187.92,137.92a3.14,3.14,0,0,1,1.86.89l-16.2,34.59c-1.78,0-6.08.24-7.13.24a3.14,3.14,0,0,1-1.86-.89L159,138.16c3.4,0,7.61-.24,8.83-.24a3.15,3.15,0,0,1,1.86.89l1.7,16.93a41.25,41.25,0,0,1,.08,5.59,52.5,52.5,0,0,1,1.7-6l6.72-17.09c3.16-.08,6.89-.32,8-.32ZM335.19,171.7C333.74,180.53,327.66,185,320,185c-4.86,0-8.51-2.59-8.51-5.51a3.37,3.37,0,0,1,1.62-2.84,7.67,7.67,0,0,0,4.94,1.54c3.08,0,7.21-1.3,7.94-5.91l.57-3.56c-2,3-4.78,5.35-8.26,5.35-3.89,0-5.59-3.16-4.62-9.64l1.13-7c.65-4.29.89-7.78.89-7.78,2.75-.49,6.4-1.78,7.7-1.78a3.63,3.63,0,0,1,1.94.81L324,157.44l-1.3,8c-.08.73,0,1.13.73,1.13,3.24,0,5-9.23,5-9.23.65-4.29.89-7.78.89-7.78,2.75-.49,6.4-1.78,7.7-1.78a3.64,3.64,0,0,1,1.94.81l-1.38,8.75-2.43,14.34ZM309,164.41a6.6,6.6,0,0,1,1.86,4.62c0,3.89-3.24,4.86-6,4.86-3.56,0-6.16-1.7-8.91-2.59-.73.89-1.54,1.78-2.19,2.59,0,0-4.05-.08-4.05-2.83,0-3.32,5.59-9.07,11.58-15.55a9.1,9.1,0,0,0-1.94-.24c-3.4,0-4.7,1.7-4.7,1.7a7.09,7.09,0,0,1-1.62-4.62c.16-3.65,3.65-4.62,6.4-4.62,2.92,0,5,1.13,7.13,2l1.7-2s4.05.16,4.05,2.84c0,3.24-5.43,8.83-11.26,15.07a13.85,13.85,0,0,0,3.48.65,5.33,5.33,0,0,0,4.45-1.86ZM290.64,155c0,3.73-2.11,6.24-7.37,7.37l-5.51,1.13c.41,2.35,1.94,3.48,4.37,3.48a7.44,7.44,0,0,0,5.1-2.27,3.24,3.24,0,0,1,1.54,2.59c0,3.16-4.86,6.56-10.45,6.56s-9.4-3.56-9.4-9.64c0-7,4.94-16.53,13.85-16.53,4.86,0,7.86,2.91,7.86,7.29Zm-9.32,3.65a2.21,2.21,0,0,0,1.54-2.43c0-1.05-.32-2.59-1.54-2.59-2.19,0-3.16,3.48-3.48,6.16l3.48-1.13ZM268.2,155c0,3.73-2.11,6.24-7.37,7.37l-5.51,1.13c.41,2.35,1.94,3.48,4.37,3.48a7.44,7.44,0,0,0,5.1-2.27,3.24,3.24,0,0,1,1.54,2.59c0,3.16-4.86,6.56-10.45,6.56s-9.4-3.56-9.4-9.64c0-7,4.94-16.53,13.85-16.53,4.78,0,7.86,2.92,7.86,7.29Zm-9.32,3.65a2.21,2.21,0,0,0,1.54-2.43c0-1.05-.32-2.59-1.54-2.59-2.19,0-3.16,3.48-3.48,6.16l3.48-1.13ZM241,142.13a2.64,2.64,0,0,1,1.78.81l-.81,5.27h5.59l-1.3,4.05c-.41,1.3-1.05,2-2.35,2H241l-1.62,10.29c-.24,1.7.08,2.43,1.22,2.43a4.19,4.19,0,0,0,2-.65,3.2,3.2,0,0,1,1.54,2.51c0,2.51-3.56,5-8.18,5-4.86,0-6.8-2.92-6-8.1l1.86-11.5h-3.08l1.3-4.21a2.5,2.5,0,0,1,2.35-1.86h1.46l1.78-4.86a47.41,47.41,0,0,1,5.35-1.22Zm-21.47,5.59c4.46,0,7.86,2.35,7.86,5.43,0,3.81-4.62,5.27-4.62,5.27s-1.38-4.21-4.46-4.21c-2.11,0-3.32,2.11-3.32,6.72,0,4.21,1.13,6.08,3.81,6.08a6.52,6.52,0,0,0,4.54-1.86,3.24,3.24,0,0,1,1.54,2.59c0,3-4.62,6.24-10,6.24-5.75,0-9.32-3.56-9.32-9.56-.08-7.21,5-16.69,14-16.69ZM204.61,155c0,3.73-2.11,6.24-7.37,7.37l-5.51,1.13c.41,2.35,1.94,3.48,4.37,3.48a7.44,7.44,0,0,0,5.1-2.27,3.24,3.24,0,0,1,1.54,2.59c0,3.16-4.86,6.56-10.45,6.56s-9.4-3.56-9.4-9.64c0-7,4.94-16.53,13.85-16.53,4.86,0,7.86,2.92,7.86,7.29Zm-9.32,3.65a2.21,2.21,0,0,0,1.54-2.43c0-1.05-.32-2.59-1.54-2.59-2.19,0-3.16,3.48-3.48,6.16l3.48-1.13Z" transform="translate(-159 -137.92)"/></svg>